<svg xmlns="http://www.w3.org/2000/svg" width="54" height="50" viewBox="0 0 54 50">
  <g fill="none" fill-rule="evenodd">
    <path fill="#F2D021" d="M22.3264571,47.7385833 L18.7976,48.7894167 C4.74788571,52.97275 -5.89782857,36.33025 4.17502857,25.9288611 L8.00902857,21.9696944 C9.58531429,20.3419167 10.7353143,18.3694167 11.3618857,16.2185833 L13.0961714,10.2649722 C17.0024571,-3.14530556 36.5050286,-3.27697222 40.6027429,10.0791389 L42.5418857,16.3999722 C43.1661714,18.4346944 44.2604571,20.3035833 45.7416,21.8638611 L49.9856,26.3346944 C59.8996,36.7791389 49.2427429,53.25525 35.2653143,49.0933056 L30.7153143,47.7385833 C27.9816,46.9246944 25.0601714,46.9246944 22.3264571,47.7385833"/>
    <path fill="#133055" d="M17.9381714 19.1475556L4.29588571 19.1475556C3.11302857 19.1475556 2.15388571 18.2150556 2.15388571 17.0650556L2.15388571 3.80172222C2.15388571 2.65144444 3.11302857 1.71922222 4.29588571 1.71922222L17.9381714 1.71922222C19.1213143 1.71922222 20.0801714 2.65144444 20.0801714 3.80172222L20.0801714 17.0650556C20.0801714 18.2150556 19.1213143 19.1475556 17.9381714 19.1475556M44.8323143 35.8500278C44.8323143 32.84975 42.3306 30.4178056 39.2448857 30.4178056 36.1588857 30.4178056 33.6574571 32.84975 33.6574571 35.8500278 33.6574571 38.8503056 36.1588857 41.28225 39.2448857 41.28225 42.3306 41.28225 44.8323143 38.8503056 44.8323143 35.8500278M31.9890857 30.3406667C31.6808 30.3406667 31.3716571 30.2334444 31.1256571 30.0165L22.3519429 22.2784444C21.8259429 21.8145556 21.7862286 21.024 22.2633714 20.5126111 22.7410857 20.0009444 23.5542286 19.9637222 24.0793714 20.4267778L32.8530857 28.1648333C33.3790857 28.6287222 33.4188 29.4192778 32.9416571 29.9303889 32.6876571 30.2026111 32.3390857 30.3406667 31.9890857 30.3406667"/>
  </g>
</svg>
