<svg id="Layer_4" data-name="Layer 4" xmlns="http://www.w3.org/2000/svg" viewBox="0 0 200 72"><defs><style>.cls-1{fill:#90191c;}</style></defs><title>logo-human-cancer-models-initiative-nav</title><path class="cls-1" d="M34,25.84a.24.24,0,0,0-.17.07.25.25,0,0,0-.06.16V31a.38.38,0,0,1-.11.3.53.53,0,0,1-.36.1H31.05a.41.41,0,0,1-.3-.09.38.38,0,0,1-.09-.28V18.73c0-.23.1-.34.28-.34h2.51c.19,0,.28.11.28.32V23.2c0,.19.09.29.26.29h4c.19,0,.29-.09.29-.28v-4.5c0-.21.08-.32.26-.32H41.1c.19,0,.29.11.29.34V31a.33.33,0,0,1-.38.37H38.78a.54.54,0,0,1-.35-.09.39.39,0,0,1-.1-.31V26.07a.22.22,0,0,0-.07-.17.24.24,0,0,0-.18-.06Z"/><path class="cls-1" d="M49.32,28.6V22.51c0-.27.15-.4.45-.4h1.9a.39.39,0,0,1,.29.09.41.41,0,0,1,.07.28l0,8.6a.34.34,0,0,1-.08.23.25.25,0,0,1-.2.09H49.63c-.17,0-.26-.1-.26-.3v-.86c0-.07,0-.11,0-.12s-.08,0-.14.05a4.69,4.69,0,0,1-1.46,1.08,3.7,3.7,0,0,1-1.56.33,2.61,2.61,0,0,1-1.93-.77,2.8,2.8,0,0,1-.75-2.06V22.53a.37.37,0,0,1,.42-.42h2c.22,0,.33.12.33.37v5.89a1.28,1.28,0,0,0,.33.92,1.18,1.18,0,0,0,.9.34A2.65,2.65,0,0,0,49.32,28.6Z"/><path class="cls-1" d="M54,31.32a.38.38,0,0,1-.08-.27V22.44A.34.34,0,0,1,54,22.2a.27.27,0,0,1,.21-.09h2.1c.18,0,.26.1.26.3v.86c0,.09,0,.14.09.14a.19.19,0,0,0,.12-.07,6.78,6.78,0,0,1,1.44-1.06,3.24,3.24,0,0,1,1.49-.36,2.77,2.77,0,0,1,1.58.43,2.33,2.33,0,0,1,.91,1.2.08.08,0,0,0,.07.07.24.24,0,0,0,.16-.09,5.38,5.38,0,0,1,1.46-1.16,3.47,3.47,0,0,1,1.62-.44,2.58,2.58,0,0,1,2,.76,2.87,2.87,0,0,1,.73,2.07V31a.37.37,0,0,1-.42.42h-2a.33.33,0,0,1-.26-.08.38.38,0,0,1-.07-.27V25.12a1.28,1.28,0,0,0-.32-.91,1.18,1.18,0,0,0-.89-.33,1.83,1.83,0,0,0-.92.26,3.21,3.21,0,0,0-.77.63.74.74,0,0,0-.14.23.67.67,0,0,0,0,.26V31a.37.37,0,0,1-.42.42H60.08a.36.36,0,0,1-.25-.08.34.34,0,0,1-.08-.27V25.12a1.28,1.28,0,0,0-.32-.91,1.19,1.19,0,0,0-.91-.33,1.89,1.89,0,0,0-1,.26,4,4,0,0,0-.92.83v6a.38.38,0,0,1-.11.3.49.49,0,0,1-.35.1H54.31A.44.44,0,0,1,54,31.32Z"/><path class="cls-1" d="M72.42,31.58a3,3,0,0,1-2.08-.71A2.39,2.39,0,0,1,69.57,29a2.72,2.72,0,0,1,1.35-2.37,7,7,0,0,1,3.71-.95l.63-.05a.31.31,0,0,0,.19-.06.22.22,0,0,0,.08-.18V25A1.4,1.4,0,0,0,75.14,24a1.55,1.55,0,0,0-1.1-.36,2,2,0,0,0-1.83,1.05.22.22,0,0,1-.22.17h-.16l-1.76-.41a.18.18,0,0,1-.15-.19A.6.6,0,0,1,70,24a2.87,2.87,0,0,1,1.5-1.53,6.2,6.2,0,0,1,2.67-.51,4.76,4.76,0,0,1,3,.77,2.66,2.66,0,0,1,.92,2.16V31a.46.46,0,0,1-.07.3.3.3,0,0,1-.26.09H76a.29.29,0,0,1-.26-.12,1,1,0,0,1-.11-.37l0-.39c0-.1-.06-.15-.14-.15a.54.54,0,0,0-.26.14A4,4,0,0,1,72.42,31.58Zm3-4.54a.23.23,0,0,0-.21-.08l-.49,0a4.28,4.28,0,0,0-1.79.48,1.32,1.32,0,0,0-.78,1.19,1,1,0,0,0,.36.83,1.59,1.59,0,0,0,1,.31A2,2,0,0,0,75,29.33a1.25,1.25,0,0,0,.58-.93V27.26A.32.32,0,0,0,75.47,27Z"/><path class="cls-1" d="M80,31.32a.34.34,0,0,1-.09-.27V22.44c0-.22.09-.33.28-.33h2.12c.17,0,.26.1.26.3v.86c0,.09,0,.14.09.14a.19.19,0,0,0,.12-.07,6,6,0,0,1,1.44-1.05,3.38,3.38,0,0,1,1.53-.36,2.58,2.58,0,0,1,2.76,2.77V31a.37.37,0,0,1-.42.42H86.17a.33.33,0,0,1-.26-.08.38.38,0,0,1-.07-.27V25.12a1.25,1.25,0,0,0-.33-.92,1.31,1.31,0,0,0-1-.32,2,2,0,0,0-1,.26,4.25,4.25,0,0,0-1,.83v6a.38.38,0,0,1-.11.3.49.49,0,0,1-.35.1H80.3A.41.41,0,0,1,80,31.32Z"/><path class="cls-1" d="M102.17,18.73A5,5,0,0,1,104,20.11a4.08,4.08,0,0,1,.92,2,.86.86,0,0,1,0,.28.17.17,0,0,1,0,.14.34.34,0,0,1-.16.06l-2.37.16a.25.25,0,0,1-.2-.06.56.56,0,0,1-.08-.21,2.79,2.79,0,0,0-.77-1.52,2.1,2.1,0,0,0-1.54-.56Q97,20.36,97,24.84a6.48,6.48,0,0,0,.7,3.41,2.38,2.38,0,0,0,2.14,1.06,3,3,0,0,0,1.78-.52,3.65,3.65,0,0,0,1.19-1.72A.21.21,0,0,1,103,27h.16l1.72.37c.16.06.23.21.19.44a4.75,4.75,0,0,1-.81,1.63,5.49,5.49,0,0,1-1.8,1.53,5.59,5.59,0,0,1-2.77.65,5.84,5.84,0,0,1-3.15-.85,5.6,5.6,0,0,1-2.06-2.39,8.24,8.24,0,0,1-.72-3.55,8,8,0,0,1,.72-3.49A5.33,5.33,0,0,1,96.57,19a6.09,6.09,0,0,1,3.15-.79A5.81,5.81,0,0,1,102.17,18.73Z"/><path class="cls-1" d="M109.06,31.58a3,3,0,0,1-2.08-.71,2.39,2.39,0,0,1-.77-1.85,2.72,2.72,0,0,1,1.35-2.37,6.94,6.94,0,0,1,3.71-.95l.63-.05a.31.31,0,0,0,.19-.06.22.22,0,0,0,.08-.18V25a1.4,1.4,0,0,0-.39-1.06,1.55,1.55,0,0,0-1.1-.36,2,2,0,0,0-1.83,1.05.22.22,0,0,1-.22.17h-.16l-1.76-.41a.18.18,0,0,1-.15-.19.6.6,0,0,1,.07-.26,2.87,2.87,0,0,1,1.5-1.53,6.23,6.23,0,0,1,2.67-.51,4.71,4.71,0,0,1,3,.77,2.64,2.64,0,0,1,.93,2.16V31a.46.46,0,0,1-.07.3.3.3,0,0,1-.26.09H112.6a.28.28,0,0,1-.25-.12,1,1,0,0,1-.11-.37l0-.39c0-.1-.06-.15-.14-.15a.5.5,0,0,0-.26.14A3.94,3.94,0,0,1,109.06,31.58Zm3-4.54a.23.23,0,0,0-.21-.08l-.49,0a4.24,4.24,0,0,0-1.79.48,1.32,1.32,0,0,0-.78,1.19,1,1,0,0,0,.36.83,1.59,1.59,0,0,0,1,.31,2,2,0,0,0,1.37-.48,1.25,1.25,0,0,0,.58-.93V27.26A.32.32,0,0,0,112.11,27Z"/><path class="cls-1" d="M116.65,31.32a.38.38,0,0,1-.08-.27V22.44c0-.22.09-.33.28-.33H119c.17,0,.26.1.26.3v.86c0,.09,0,.14.09.14a.22.22,0,0,0,.12-.07,6,6,0,0,1,1.44-1.05,3.38,3.38,0,0,1,1.53-.36,2.6,2.6,0,0,1,2.77,2.77V31a.38.38,0,0,1-.43.42h-1.94a.33.33,0,0,1-.26-.08.38.38,0,0,1-.07-.27V25.12a1.25,1.25,0,0,0-.33-.92,1.3,1.3,0,0,0-1-.32,2,2,0,0,0-1,.26,4.25,4.25,0,0,0-1,.83v6a.38.38,0,0,1-.11.3.47.47,0,0,1-.35.1h-1.87A.46.46,0,0,1,116.65,31.32Z"/><path class="cls-1" d="M133.85,22.71a3.77,3.77,0,0,1,1.37,1.89c0,.09,0,.15,0,.17s-.09.17-.25.2l-1.84.17h0c-.11,0-.18-.06-.21-.19a3.62,3.62,0,0,0-.64-.94,1.33,1.33,0,0,0-.92-.31,1.69,1.69,0,0,0-1.48.78,3.94,3.94,0,0,0-.54,2.27,3.91,3.91,0,0,0,.57,2.32,1.87,1.87,0,0,0,1.59.77,1.76,1.76,0,0,0,1.17-.37,4,4,0,0,0,.9-1.12.17.17,0,0,1,.11-.1h.18l1.3.3a.16.16,0,0,1,.16.18l0,.15a4.12,4.12,0,0,1-1.35,1.85,4,4,0,0,1-2.66.84,4.82,4.82,0,0,1-2.41-.61,4.28,4.28,0,0,1-1.66-1.69,5.09,5.09,0,0,1-.59-2.49,5.16,5.16,0,0,1,.6-2.52,4.32,4.32,0,0,1,1.67-1.72,4.65,4.65,0,0,1,2.39-.62A4.17,4.17,0,0,1,133.85,22.71Z"/><path class="cls-1" d="M139.7,29.13a2.34,2.34,0,0,0,1.64.61,2.59,2.59,0,0,0,1.17-.28,3.68,3.68,0,0,0,1.07-.9.21.21,0,0,1,.14-.07.62.62,0,0,1,.18.05l1.26.53a.17.17,0,0,1,.12.17.27.27,0,0,1-.07.18,5.08,5.08,0,0,1-1.8,1.67,5.24,5.24,0,0,1-2.4.49,5,5,0,0,1-2.44-.6,4.31,4.31,0,0,1-1.7-1.66,4.72,4.72,0,0,1-.61-2.43,5.27,5.27,0,0,1,.63-2.6,4.47,4.47,0,0,1,1.71-1.74,4.64,4.64,0,0,1,2.35-.62,4.73,4.73,0,0,1,2.37.59,4,4,0,0,1,1.61,1.69,5.58,5.58,0,0,1,.58,2.63.82.82,0,0,1,0,.32c0,.06-.12.09-.26.1h-6c-.14,0-.21.1-.21.28A2,2,0,0,0,139.7,29.13Zm2.87-3.34a.42.42,0,0,0,.24,0s.05-.1.05-.21a2.19,2.19,0,0,0-.21-.91,1.93,1.93,0,0,0-.61-.75,1.61,1.61,0,0,0-1-.3,1.85,1.85,0,0,0-1.44.62,2.18,2.18,0,0,0-.54,1.57Z"/><path class="cls-1" d="M147,31.05V22.44c0-.22.09-.33.28-.33h2.05c.19,0,.28.1.28.3v1a.14.14,0,0,0,0,.11.09.09,0,0,0,.07,0,.26.26,0,0,0,.14-.09,4.44,4.44,0,0,1,1.24-1.13,2.76,2.76,0,0,1,1.37-.43q.63,0,.63.3v2a.25.25,0,0,1-.07.19.18.18,0,0,1-.19,0,5.32,5.32,0,0,0-1.23-.14,2.12,2.12,0,0,0-.89.22,2.21,2.21,0,0,0-.73.58,1.17,1.17,0,0,0-.29.73V31c0,.27-.15.4-.46.4h-1.87C147.07,31.4,147,31.28,147,31.05Z"/><path class="cls-1" d="M30.76,53.5a.45.45,0,0,1-.1-.3V40.93q0-.33.3-.33h3.63a.63.63,0,0,1,.28,0,.37.37,0,0,1,.14.21l2.65,7.35c0,.09.07.14.12.14s.09-.05.12-.14L40.43,41c.07-.27.2-.4.38-.4h3.77c.18,0,.27.1.27.31V53.19a.41.41,0,0,1-.11.32.45.45,0,0,1-.33.1H42.15a.42.42,0,0,1-.29-.08.38.38,0,0,1-.08-.27V44.53c0-.09,0-.13-.05-.13s-.07.05-.11.14l-3.07,8.79a.36.36,0,0,1-.36.28H36.73a.37.37,0,0,1-.39-.28l-3-8.66c0-.1-.07-.14-.1-.14s-.07,0-.07.15v8.61a.35.35,0,0,1-.07.26.36.36,0,0,1-.25.06H31A.35.35,0,0,1,30.76,53.5Z"/><path class="cls-1" d="M48.87,53.18a4.35,4.35,0,0,1-1.66-1.69A5.16,5.16,0,0,1,46.62,49a5.27,5.27,0,0,1,.6-2.54,4.44,4.44,0,0,1,1.69-1.72,4.76,4.76,0,0,1,2.42-.61,4.86,4.86,0,0,1,2.46.62,4.3,4.3,0,0,1,1.65,1.73,5.55,5.55,0,0,1,0,5,4.4,4.4,0,0,1-1.67,1.7,4.82,4.82,0,0,1-2.45.61A4.89,4.89,0,0,1,48.87,53.18Zm3.93-2A4.2,4.2,0,0,0,53.3,49a4.31,4.31,0,0,0-.5-2.3,1.78,1.78,0,0,0-2.94,0,4.22,4.22,0,0,0-.51,2.3,4.09,4.09,0,0,0,.51,2.26,1.79,1.79,0,0,0,2.94,0Z"/><path class="cls-1" d="M63.62,53.26v-.49c0-.1,0-.14-.08-.14a.3.3,0,0,0-.16.07,4.26,4.26,0,0,1-1.12.78,3.19,3.19,0,0,1-1.44.3,3.29,3.29,0,0,1-2.66-1.22,5.46,5.46,0,0,1-1-3.53,6,6,0,0,1,.52-2.55,4.32,4.32,0,0,1,1.39-1.73A3.3,3.3,0,0,1,61,44.14a3.26,3.26,0,0,1,1.24.23,3.42,3.42,0,0,1,1.06.7.36.36,0,0,0,.18.09c.08,0,.12-.08.12-.23v-4c0-.21.09-.31.28-.31H66a.25.25,0,0,1,.2.09.36.36,0,0,1,.08.24V53.24a.38.38,0,0,1-.09.28.44.44,0,0,1-.32.09H64A.32.32,0,0,1,63.62,53.26Zm-.83-7.17a1.86,1.86,0,0,0-.89-.21,1.71,1.71,0,0,0-1.47.76A4.11,4.11,0,0,0,59.89,49a4.13,4.13,0,0,0,.52,2.35,1.79,1.79,0,0,0,2.67.28,1.39,1.39,0,0,0,.51-1.07V46.74A3,3,0,0,0,62.79,46.09Z"/><path class="cls-1" d="M71.24,51.34a2.35,2.35,0,0,0,1.64.6,2.58,2.58,0,0,0,1.17-.27,3.68,3.68,0,0,0,1.07-.9.21.21,0,0,1,.14-.07.41.41,0,0,1,.18,0l1.26.53a.17.17,0,0,1,.12.17.27.27,0,0,1-.07.18A5.08,5.08,0,0,1,75,53.3a5.34,5.34,0,0,1-2.4.48,5.06,5.06,0,0,1-2.44-.59,4.38,4.38,0,0,1-1.7-1.66,4.77,4.77,0,0,1-.61-2.43,5.24,5.24,0,0,1,.63-2.6,4.43,4.43,0,0,1,1.71-1.75,4.63,4.63,0,0,1,2.35-.61,4.73,4.73,0,0,1,2.37.59,4,4,0,0,1,1.61,1.69,5.55,5.55,0,0,1,.58,2.63.82.82,0,0,1,0,.32c0,.05-.11.09-.26.1h-6c-.14,0-.21.09-.21.28A2.06,2.06,0,0,0,71.24,51.34ZM74.11,48a.38.38,0,0,0,.24,0s.05-.09.05-.2a2,2,0,0,0-.21-.91,1.93,1.93,0,0,0-.61-.75,1.61,1.61,0,0,0-1-.3,1.87,1.87,0,0,0-1.44.61A2.22,2.22,0,0,0,70.62,48Z"/><path class="cls-1" d="M81.21,53.19a.41.41,0,0,1-.11.32.51.51,0,0,1-.37.1H78.88a.4.4,0,0,1-.3-.09.38.38,0,0,1-.09-.28l.05-12.31c0-.22.1-.33.28-.33h2.12c.18,0,.27.1.27.31Z"/><path class="cls-1" d="M86.83,45.79a2.16,2.16,0,0,0-1.1.25.78.78,0,0,0-.44.7.62.62,0,0,0,.2.44,1.68,1.68,0,0,0,.78.34l2,.49a3.88,3.88,0,0,1,2,1.07A2.44,2.44,0,0,1,91,50.79,2.52,2.52,0,0,1,89.81,53a5.24,5.24,0,0,1-3,.8,6,6,0,0,1-2.61-.53,3.27,3.27,0,0,1-1.56-1.4.37.37,0,0,1-.09-.22.18.18,0,0,1,.13-.18l1.19-.61a.49.49,0,0,1,.24-.07.27.27,0,0,1,.19.08,3,3,0,0,0,.94.87,2.86,2.86,0,0,0,1.47.33A3.05,3.05,0,0,0,88,51.8a.77.77,0,0,0,.51-.72.62.62,0,0,0-.26-.52,2.29,2.29,0,0,0-.89-.37l-1.81-.39c-1.77-.38-2.66-1.26-2.66-2.64a2.62,2.62,0,0,1,.48-1.56,3.07,3.07,0,0,1,1.38-1.07,5.18,5.18,0,0,1,2.1-.39,5.29,5.29,0,0,1,2.27.47,3.27,3.27,0,0,1,1.43,1.2.4.4,0,0,1,.1.24.21.21,0,0,1-.12.18l-1.26.61a.29.29,0,0,1-.14,0,.31.31,0,0,1-.26-.14A2.42,2.42,0,0,0,86.83,45.79Z"/><path class="cls-1" d="M99.11,40.6c.18,0,.28.1.28.31V53.19a.41.41,0,0,1-.11.32.51.51,0,0,1-.37.1H96.7a.37.37,0,0,1-.29-.09.38.38,0,0,1-.09-.28V40.93c0-.22.09-.33.28-.33Z"/><path class="cls-1" d="M101.67,53.53a.34.34,0,0,1-.09-.27V44.65c0-.22.09-.33.28-.33H104c.17,0,.26.1.26.29v.86c0,.1,0,.14.09.14a.15.15,0,0,0,.12-.07,6.19,6.19,0,0,1,1.44-1,3.38,3.38,0,0,1,1.53-.36,2.72,2.72,0,0,1,2,.75,2.76,2.76,0,0,1,.75,2v6.28a.37.37,0,0,1-.42.42h-2a.33.33,0,0,1-.26-.08.38.38,0,0,1-.07-.27V47.33a1.23,1.23,0,0,0-.33-.92,1.26,1.26,0,0,0-1-.32,1.87,1.87,0,0,0-1,.26,4.4,4.4,0,0,0-1,.82v6a.4.4,0,0,1-.11.31.47.47,0,0,1-.35.1H102A.41.41,0,0,1,101.67,53.53Z"/><path class="cls-1" d="M114.76,42.75c0,.3-.16.44-.47.44H112.4a.41.41,0,0,1-.3-.09.46.46,0,0,1-.09-.31V41c0-.23.1-.35.3-.35h2.17a.25.25,0,0,1,.2.09.32.32,0,0,1,.08.24Zm0,10.44a.41.41,0,0,1-.11.32.51.51,0,0,1-.37.1h-1.84a.41.41,0,0,1-.3-.09.43.43,0,0,1-.08-.28V44.65q0-.33.3-.33h2.13c.18,0,.27.1.27.29Z"/><path class="cls-1" d="M120.58,46.17c-.13,0-.19.07-.19.21v4.23a1.09,1.09,0,0,0,.28.85,1.3,1.3,0,0,0,.89.25h1a.24.24,0,0,1,.19.08.32.32,0,0,1,.07.22v1.07a.4.4,0,0,1-.39.42,15.65,15.65,0,0,1-2.09.11,2.87,2.87,0,0,1-1.91-.58,2.11,2.11,0,0,1-.68-1.68V46.44c0-.18-.08-.27-.23-.27h-1.07c-.22,0-.33-.09-.33-.29v-1.3c0-.18.1-.26.31-.26h1.21c.1,0,.16-.07.18-.2l.25-2.66c0-.2.11-.3.26-.3h1.91a.25.25,0,0,1,.2.09.36.36,0,0,1,.08.24v2.63a.16.16,0,0,0,.18.18h1.84c.21,0,.31.09.31.28v1.3c0,.2-.12.29-.35.29Z"/><path class="cls-1" d="M127,42.75c0,.3-.16.44-.47.44h-1.9a.37.37,0,0,1-.29-.09.46.46,0,0,1-.09-.31V41c0-.23.1-.35.3-.35h2.17a.25.25,0,0,1,.2.09.36.36,0,0,1,.08.24Zm0,10.44a.41.41,0,0,1-.11.32.51.51,0,0,1-.37.1h-1.84a.41.41,0,0,1-.3-.09.38.38,0,0,1-.08-.28V44.65c0-.22.1-.33.29-.33h2.14c.18,0,.27.1.27.29Z"/><path class="cls-1" d="M131.26,53.78a2.94,2.94,0,0,1-2.09-.71,2.41,2.41,0,0,1-.77-1.85,2.71,2.71,0,0,1,1.35-2.36,6.89,6.89,0,0,1,3.72-1l.63,0a.28.28,0,0,0,.18-.06.22.22,0,0,0,.08-.19v-.37a1.42,1.42,0,0,0-.38-1.05,1.58,1.58,0,0,0-1.11-.37,2,2,0,0,0-1.82,1.06.24.24,0,0,1-.23.17l-.16,0-1.75-.4a.18.18,0,0,1-.16-.19.89.89,0,0,1,.07-.27,2.89,2.89,0,0,1,1.5-1.52,6.23,6.23,0,0,1,2.67-.51,4.74,4.74,0,0,1,3,.76,2.65,2.65,0,0,1,.93,2.17v6.15a.47.47,0,0,1-.07.3.33.33,0,0,1-.26.09H134.8a.26.26,0,0,1-.25-.13.89.89,0,0,1-.12-.36l0-.39c0-.1,0-.16-.14-.16a.73.73,0,0,0-.26.14A3.89,3.89,0,0,1,131.26,53.78Zm3.05-4.54a.29.29,0,0,0-.21-.07l-.49,0a4,4,0,0,0-1.8.48,1.31,1.31,0,0,0-.78,1.18,1,1,0,0,0,.37.84,1.57,1.57,0,0,0,1,.3,2.06,2.06,0,0,0,1.36-.47,1.23,1.23,0,0,0,.58-.93V49.47A.37.37,0,0,0,134.31,49.24Z"/><path class="cls-1" d="M142.67,46.17c-.13,0-.19.07-.19.21v4.23a1.09,1.09,0,0,0,.28.85,1.3,1.3,0,0,0,.89.25h.95a.24.24,0,0,1,.19.08.32.32,0,0,1,.07.22v1.07a.4.4,0,0,1-.39.42,15.65,15.65,0,0,1-2.09.11,2.87,2.87,0,0,1-1.91-.58,2.11,2.11,0,0,1-.68-1.68V46.44c0-.18-.08-.27-.23-.27h-1.07c-.22,0-.33-.09-.33-.29v-1.3c0-.18.1-.26.31-.26h1.21c.1,0,.16-.07.18-.2l.25-2.66c0-.2.11-.3.26-.3h1.91a.25.25,0,0,1,.2.09.36.36,0,0,1,.08.24v2.63a.16.16,0,0,0,.18.18h1.84c.21,0,.31.09.31.28v1.3c0,.2-.12.29-.35.29Z"/><path class="cls-1" d="M149.07,42.75c0,.3-.16.44-.47.44h-1.9a.37.37,0,0,1-.29-.09.46.46,0,0,1-.09-.31V41c0-.23.1-.35.3-.35h2.17a.25.25,0,0,1,.2.09.36.36,0,0,1,.08.24Zm0,10.44a.41.41,0,0,1-.11.32.51.51,0,0,1-.37.1h-1.84a.41.41,0,0,1-.3-.09.38.38,0,0,1-.08-.28V44.65c0-.22.1-.33.29-.33h2.14c.18,0,.27.1.27.29Z"/><path class="cls-1" d="M159.68,44.44a.34.34,0,0,1,0,.28l-3.47,8.52a.57.57,0,0,1-.56.37h-1.24a.57.57,0,0,1-.56-.37l-3.46-8.5a.7.7,0,0,1,0-.14.27.27,0,0,1,.09-.21.28.28,0,0,1,.21-.07h2.22a.38.38,0,0,1,.39.29l2,5.18c.06.1.11.15.14.15s.1-.06.14-.17l2-5.17a.4.4,0,0,1,.38-.28h1.51A.26.26,0,0,1,159.68,44.44Z"/><path class="cls-1" d="M163.52,51.34a2.35,2.35,0,0,0,1.64.6,2.55,2.55,0,0,0,1.17-.27,3.58,3.58,0,0,0,1.08-.9.17.17,0,0,1,.14-.07.41.41,0,0,1,.17,0l1.27.53a.17.17,0,0,1,.12.17.27.27,0,0,1-.07.18,5,5,0,0,1-1.81,1.67,5.34,5.34,0,0,1-2.4.48,5.09,5.09,0,0,1-2.44-.59,4.38,4.38,0,0,1-1.7-1.66,4.77,4.77,0,0,1-.61-2.43,5.24,5.24,0,0,1,.63-2.6,4.43,4.43,0,0,1,1.71-1.75,5,5,0,0,1,4.73,0,4.11,4.11,0,0,1,1.61,1.69,5.67,5.67,0,0,1,.58,2.63.78.78,0,0,1-.05.32c0,.05-.11.09-.25.1h-6c-.14,0-.21.09-.21.28A2.09,2.09,0,0,0,163.52,51.34ZM166.39,48a.44.44,0,0,0,.25,0,.28.28,0,0,0,.05-.2,2.16,2.16,0,0,0-.21-.91,2,2,0,0,0-.61-.75,1.62,1.62,0,0,0-1-.3,1.84,1.84,0,0,0-1.43.61A2.18,2.18,0,0,0,162.9,48Z"/></svg>