<svg width="180" height="80" viewBox="0 0 180 80" fill="none" xmlns="http://www.w3.org/2000/svg">
<path fill-rule="evenodd" clip-rule="evenodd" d="M0 10C0 4.47716 4.47715 0 10 0H170C175.523 0 180 4.47715 180 10V69.7459C180 75.2687 175.523 79.7459 170 79.7459H10C4.47716 79.7459 0 75.2687 0 69.7459V10Z" fill="#F2F3F5"/>
<path fill-rule="evenodd" clip-rule="evenodd" d="M38.5606 31.9247C38.5061 31.9247 38.463 31.9429 38.4312 31.9792C38.3994 32.0155 38.3835 32.0564 38.3835 32.1018V35.929C38.3835 36.038 38.3535 36.1174 38.295 36.1674C38.236 36.2173 38.1429 36.2423 38.0158 36.2423H36.2996C36.1907 36.2423 36.113 36.2196 36.0681 36.1742C36.0227 36.1288 36 36.0562 36 35.9563V26.395C36 26.2225 36.0726 26.1362 36.2179 26.1362H38.1656C38.3104 26.1362 38.3835 26.218 38.3835 26.3814V29.8681C38.3835 30.0225 38.4516 30.0997 38.5878 30.0997H41.734C41.8793 30.0997 41.952 30.027 41.952 29.8817V26.3814C41.952 26.218 42.0201 26.1362 42.1563 26.1362H44.1039C44.2583 26.1362 44.3355 26.2225 44.3355 26.395V35.9563C44.3355 36.147 44.2356 36.2423 44.0358 36.2423H42.3061C42.1785 36.2423 42.0882 36.2196 42.0337 36.1742C41.9792 36.1288 41.952 36.0471 41.952 35.929V32.1018C41.952 32.0473 41.9361 32.0042 41.9043 31.9724C41.8721 31.9406 41.8244 31.9247 41.7613 31.9247H38.5606Z" fill="#900000"/>
<path fill-rule="evenodd" clip-rule="evenodd" d="M50.4915 34.0632V29.3371C50.4915 29.1282 50.6091 29.0238 50.8456 29.0238H52.3166C52.4256 29.0238 52.5005 29.0465 52.5413 29.0919C52.5822 29.1373 52.6026 29.2099 52.6026 29.3098L52.5754 35.9973C52.5754 36.0699 52.555 36.1289 52.5141 36.1743C52.4732 36.2197 52.421 36.2424 52.3575 36.2424H50.7367C50.6005 36.2424 50.5324 36.1652 50.5324 36.0109V35.3435C50.5324 35.289 50.5188 35.2572 50.4915 35.2482C50.4643 35.2391 50.4275 35.2527 50.3826 35.289C50.0012 35.6795 49.6244 35.9587 49.2521 36.1267C48.8794 36.2946 48.4758 36.3786 48.0399 36.3786C47.4316 36.3786 46.9322 36.1811 46.5417 35.7862C46.1508 35.3912 45.9561 34.8577 45.9561 34.1858V29.3507C45.9561 29.1328 46.065 29.0238 46.2829 29.0238H47.7948C47.9668 29.0238 48.0535 29.1191 48.0535 29.3098V33.8862C48.0535 34.1858 48.1398 34.4241 48.3123 34.6012C48.4848 34.7783 48.7159 34.8668 49.0069 34.8668C49.5063 34.8668 50.0012 34.5989 50.4915 34.0632Z" fill="#900000"/>
<path fill-rule="evenodd" clip-rule="evenodd" d="M54.155 36.1812C54.1096 36.1403 54.0869 36.0699 54.0869 35.9701V29.2826C54.0869 29.2009 54.1073 29.1373 54.1482 29.0919C54.1891 29.0465 54.2413 29.0238 54.3048 29.0238H55.9392C56.0754 29.0238 56.1435 29.101 56.1435 29.2554V29.9228C56.1435 29.9954 56.1662 30.0317 56.2116 30.0317C56.2389 30.0317 56.2707 30.0136 56.307 29.9772C56.6883 29.6231 57.0606 29.3507 57.4238 29.16C57.787 28.9694 58.1729 28.874 58.5815 28.874C59.0628 28.874 59.4714 28.9875 59.8073 29.2145C60.1433 29.4415 60.3794 29.7502 60.5156 30.1407C60.5247 30.177 60.5428 30.1952 60.5701 30.1952C60.6064 30.1952 60.6472 30.1725 60.6926 30.1271C61.0286 29.7548 61.4077 29.4551 61.8299 29.2281C62.2521 29.0011 62.6721 28.8876 63.0898 28.8876C63.7254 28.8876 64.2316 29.0829 64.6084 29.4733C64.9852 29.8637 65.1736 30.3995 65.1736 31.0805V35.9156C65.1736 36.1335 65.0647 36.2425 64.8467 36.2425H63.3349C63.235 36.2425 63.1669 36.222 63.1306 36.1812C63.0943 36.1403 63.0761 36.0699 63.0761 35.9701V31.3665C63.0761 31.0668 62.9944 30.8308 62.831 30.6582C62.6675 30.4857 62.436 30.3995 62.1364 30.3995C61.8912 30.3995 61.6528 30.4676 61.4213 30.6038C61.1898 30.74 60.9923 30.9034 60.8288 31.0941C60.7744 31.1576 60.7358 31.2167 60.7131 31.2712C60.6904 31.3256 60.679 31.3937 60.679 31.4755V35.9156C60.679 36.1335 60.5701 36.2425 60.3521 36.2425H58.8539C58.7631 36.2425 58.6973 36.222 58.6564 36.1812C58.6156 36.1403 58.5951 36.0699 58.5951 35.9701V31.3665C58.5951 31.0668 58.5134 30.8308 58.35 30.6582C58.1865 30.4857 57.9505 30.3995 57.6417 30.3995C57.3784 30.3995 57.1333 30.4676 56.9063 30.6038C56.6793 30.74 56.4386 30.9533 56.1844 31.2439V35.9292C56.1844 36.0382 56.1572 36.1176 56.1027 36.1676C56.0482 36.2175 55.9574 36.2425 55.8303 36.2425H54.3729C54.2731 36.2425 54.2004 36.222 54.155 36.1812Z" fill="#900000"/>
<path fill-rule="evenodd" clip-rule="evenodd" d="M70.8126 32.8509C70.7853 32.8145 70.7309 32.7964 70.6491 32.7964L70.2678 32.8236C69.7411 32.8509 69.2758 32.9757 68.8717 33.1982C68.4677 33.4206 68.2656 33.7275 68.2656 34.1175C68.2656 34.3899 68.361 34.606 68.5516 34.7645C68.7423 34.9234 69.0056 35.0028 69.3416 35.0028C69.7593 35.0028 70.1134 34.8803 70.404 34.6351C70.7036 34.399 70.8534 34.1584 70.8534 33.9132V33.0279C70.8534 32.9462 70.8398 32.8876 70.8126 32.8509ZM68.4427 36.3784C67.7617 36.3784 67.2215 36.1945 66.8219 35.8267C66.4224 35.459 66.2227 34.98 66.2227 34.3898C66.2227 33.6271 66.5722 33.0142 67.2714 32.5511C67.9706 32.088 68.933 31.8429 70.1588 31.8156L70.6492 31.7748C70.7036 31.7748 70.7513 31.7593 70.7922 31.7271C70.833 31.6958 70.8535 31.6481 70.8535 31.5841V31.2981C70.8535 30.944 70.7536 30.6716 70.5538 30.4809C70.3541 30.2902 70.068 30.1949 69.6958 30.1949C69.0602 30.1949 68.588 30.4673 68.2793 31.0121C68.243 31.1029 68.1839 31.1483 68.1022 31.1483C68.0568 31.1483 68.016 31.1437 67.9796 31.1346L66.6176 30.8214C66.5359 30.8032 66.4951 30.7533 66.4951 30.6716C66.4951 30.6171 66.5132 30.549 66.5495 30.4673C66.7675 29.9406 67.1556 29.5461 67.7141 29.2823C68.2725 29.0194 68.9648 28.8873 69.7911 28.8873C70.8716 28.8873 71.6525 29.0848 72.1338 29.4798C72.615 29.8748 72.8556 30.4355 72.8556 31.1619V35.9425C72.8556 36.0515 72.8375 36.1287 72.8011 36.1741C72.7648 36.2195 72.6967 36.2422 72.5968 36.2422H71.194C71.1032 36.2422 71.0373 36.2104 70.9965 36.1468C70.9556 36.0837 70.9261 35.9884 70.9079 35.8608L70.8943 35.5611C70.8853 35.4794 70.8489 35.4386 70.7854 35.4386C70.749 35.4386 70.6809 35.4749 70.5811 35.5475C69.9818 36.1014 69.269 36.3784 68.4427 36.3784Z" fill="#900000"/>
<path fill-rule="evenodd" clip-rule="evenodd" d="M74.3396 36.1811C74.2942 36.1402 74.2715 36.0699 74.2715 35.97V29.2826C74.2715 29.11 74.3441 29.0238 74.4894 29.0238H76.1374C76.2736 29.0238 76.3417 29.101 76.3417 29.2553V29.9227C76.3417 29.9953 76.3644 30.0317 76.4098 30.0317C76.4371 30.0317 76.4689 30.0135 76.5052 29.9772C76.8775 29.6231 77.2497 29.3529 77.622 29.1668C77.9943 28.9806 78.3893 28.8876 78.807 28.8876C79.4698 28.8876 79.9942 29.0828 80.3801 29.4732C80.766 29.8637 80.9589 30.3858 80.9589 31.0395V35.9155C80.9589 36.1334 80.85 36.2424 80.632 36.2424H79.1202C79.0203 36.2424 78.9522 36.222 78.9159 36.1811C78.8796 36.1402 78.8614 36.0699 78.8614 35.97V31.3664C78.8614 31.0577 78.7774 30.8193 78.6095 30.6514C78.4415 30.4834 78.1941 30.3994 77.8672 30.3994C77.5948 30.3994 77.3428 30.4675 77.1113 30.6037C76.8797 30.7399 76.6323 30.9533 76.369 31.2438V35.9291C76.369 36.0381 76.3417 36.1175 76.2873 36.1675C76.2328 36.2174 76.142 36.2424 76.0148 36.2424H74.5575C74.4576 36.2424 74.385 36.222 74.3396 36.1811Z" fill="#900000"/>
<path fill-rule="evenodd" clip-rule="evenodd" d="M91.5553 26.3951C92.136 26.6584 92.6149 27.0171 92.9922 27.4711C93.369 27.9251 93.6074 28.4336 93.7073 28.9965C93.7254 29.0601 93.7345 29.1327 93.7345 29.2145C93.7345 29.2689 93.7209 29.3053 93.6936 29.3234C93.6664 29.3416 93.6255 29.3552 93.5711 29.3643L91.7324 29.4869C91.6506 29.4869 91.5984 29.4732 91.5757 29.446C91.553 29.4188 91.5326 29.3643 91.5144 29.2826C91.4141 28.7832 91.2148 28.3882 90.9152 28.0976C90.6155 27.807 90.2155 27.6618 89.7166 27.6618C88.2638 27.6618 87.5374 28.824 87.5374 31.1485C87.5374 32.3561 87.719 33.2369 88.0822 33.7908C88.4449 34.3447 88.9993 34.6216 89.7438 34.6216C90.2886 34.6216 90.7494 34.4854 91.1263 34.213C91.5031 33.9406 91.8095 33.4957 92.0456 32.8782C92.0729 32.8147 92.1319 32.7829 92.2227 32.7829C92.2772 32.7829 92.318 32.7874 92.3453 32.7965L93.68 33.0825C93.8067 33.1279 93.8571 33.2414 93.8298 33.423C93.739 33.8135 93.5279 34.2357 93.1965 34.6897C92.8651 35.1437 92.3997 35.5387 91.8005 35.8747C91.2012 36.2106 90.4839 36.3786 89.6485 36.3786C88.7133 36.3786 87.8983 36.1584 87.2037 35.718C86.5091 35.2776 85.9752 34.6602 85.6033 33.8657C85.2306 33.0712 85.0449 32.1518 85.0449 31.1076C85.0449 30.0725 85.2306 29.1691 85.6033 28.3972C85.9752 27.6254 86.5091 27.033 87.2037 26.6198C87.8983 26.2067 88.7133 26.0001 89.6485 26.0001C90.3381 26.0001 90.9742 26.1318 91.5553 26.3951Z" fill="#900000"/>
<path fill-rule="evenodd" clip-rule="evenodd" d="M99.2776 32.8509C99.2503 32.8146 99.1958 32.7964 99.1141 32.7964L98.7328 32.8237C98.2061 32.8509 97.7408 32.9757 97.3367 33.1982C96.9327 33.4207 96.7306 33.7276 96.7306 34.1176C96.7306 34.39 96.826 34.6061 97.0166 34.7645C97.2073 34.9234 97.4706 35.0029 97.8066 35.0029C98.2243 35.0029 98.5784 34.8803 98.869 34.6351C99.1686 34.399 99.3184 34.1584 99.3184 33.9133V33.028C99.3184 32.9462 99.3048 32.8877 99.2776 32.8509ZM96.9076 36.3785C96.2266 36.3785 95.6863 36.1946 95.2868 35.8269C94.8873 35.4591 94.6875 34.9801 94.6875 34.3899C94.6875 33.6272 95.0371 33.0143 95.7362 32.5512C96.4354 32.0882 97.3979 31.843 98.6237 31.8158L99.114 31.7749C99.1685 31.7749 99.2162 31.7595 99.257 31.7272C99.2979 31.6959 99.3183 31.6482 99.3183 31.5842V31.2982C99.3183 30.9441 99.2184 30.6717 99.0187 30.481C98.8189 30.2903 98.5329 30.195 98.1606 30.195C97.525 30.195 97.0528 30.4674 96.7441 31.0122C96.7078 31.103 96.6488 31.1484 96.5671 31.1484C96.5217 31.1484 96.4808 31.1438 96.4445 31.1348L95.0825 30.8215C95.0008 30.8033 94.9599 30.7534 94.9599 30.6717C94.9599 30.6172 94.9781 30.5491 95.0144 30.4674C95.2323 29.9407 95.6205 29.5462 96.1789 29.2824C96.7373 29.0196 97.4297 28.8875 98.256 28.8875C99.3365 28.8875 100.117 29.0849 100.599 29.4799C101.08 29.8749 101.32 30.4356 101.32 31.162V35.9426C101.32 36.0516 101.302 36.1288 101.266 36.1742C101.23 36.2196 101.162 36.2423 101.062 36.2423H99.6588C99.568 36.2423 99.5022 36.2105 99.4613 36.1469C99.4205 36.0838 99.391 35.9885 99.3728 35.8609L99.3592 35.5613C99.3501 35.4796 99.3138 35.4387 99.2502 35.4387C99.2139 35.4387 99.1458 35.475 99.0459 35.5477C98.4466 36.1015 97.7338 36.3785 96.9076 36.3785Z" fill="#900000"/>
<path fill-rule="evenodd" clip-rule="evenodd" d="M102.805 36.1811C102.76 36.1402 102.737 36.0699 102.737 35.97V29.2826C102.737 29.11 102.81 29.0238 102.955 29.0238H104.603C104.739 29.0238 104.808 29.101 104.808 29.2553V29.9227C104.808 29.9953 104.83 30.0317 104.876 30.0317C104.903 30.0317 104.935 30.0135 104.971 29.9772C105.343 29.6231 105.716 29.3529 106.088 29.1668C106.46 28.9806 106.855 28.8876 107.273 28.8876C107.936 28.8876 108.46 29.0828 108.846 29.4732C109.232 29.8637 109.425 30.3858 109.425 31.0395V35.9155C109.425 36.1334 109.316 36.2424 109.098 36.2424H107.586C107.486 36.2424 107.418 36.222 107.382 36.1811C107.345 36.1402 107.327 36.0699 107.327 35.97V31.3664C107.327 31.0577 107.243 30.8193 107.075 30.6514C106.907 30.4834 106.66 30.3994 106.333 30.3994C106.061 30.3994 105.809 30.4675 105.577 30.6037C105.346 30.7399 105.098 30.9533 104.835 31.2438V35.9291C104.835 36.0381 104.808 36.1175 104.753 36.1675C104.699 36.2174 104.608 36.2424 104.481 36.2424H103.023C102.923 36.2424 102.851 36.222 102.805 36.1811Z" fill="#900000"/>
<path fill-rule="evenodd" clip-rule="evenodd" d="M116.16 29.4934C116.691 29.8979 117.048 30.3855 117.229 30.9576C117.248 31.0307 117.257 31.0756 117.257 31.0938C117.257 31.1755 117.193 31.2254 117.066 31.2436L115.636 31.3798H115.595C115.513 31.3798 115.459 31.3299 115.432 31.23C115.268 30.9031 115.102 30.6602 114.934 30.5013C114.766 30.3429 114.528 30.263 114.219 30.263C113.729 30.263 113.345 30.4627 113.068 30.8622C112.792 31.2622 112.653 31.852 112.653 32.6328C112.653 33.4319 112.801 34.0316 113.096 34.4307C113.391 34.8302 113.802 35.03 114.328 35.03C114.701 35.03 115.005 34.9346 115.241 34.7439C115.477 34.5533 115.708 34.2627 115.935 33.8723C115.963 33.8269 115.992 33.8023 116.024 33.7974C116.056 33.7928 116.103 33.7955 116.167 33.8042L117.175 34.0357C117.257 34.0448 117.297 34.0902 117.297 34.1719L117.27 34.2945C117.089 34.8211 116.737 35.3006 116.215 35.7314C115.693 36.1627 115.005 36.3784 114.151 36.3784C113.452 36.3784 112.828 36.2217 112.278 35.9085C111.729 35.5952 111.3 35.1575 110.991 34.5941C110.683 34.0316 110.528 33.3869 110.528 32.6601C110.528 31.9246 110.685 31.2708 110.998 30.6988C111.311 30.1268 111.743 29.6823 112.292 29.364C112.841 29.0467 113.461 28.8873 114.151 28.8873C114.959 28.8873 115.629 29.0894 116.16 29.4934Z" fill="#900000"/>
<path fill-rule="evenodd" clip-rule="evenodd" d="M122.935 31.8838C123.035 31.8838 123.099 31.8725 123.126 31.8498C123.153 31.8271 123.167 31.7749 123.167 31.6932C123.167 31.4571 123.113 31.2215 123.004 30.9849C122.895 30.7488 122.736 30.5536 122.527 30.3993C122.318 30.2449 122.064 30.1677 121.764 30.1677C121.31 30.1677 120.938 30.3266 120.647 30.6444C120.357 30.9622 120.216 31.3713 120.225 31.8702L122.935 31.8838ZM120.709 34.4785C121.049 34.7917 121.474 34.9484 121.982 34.9484C122.309 34.9484 122.611 34.878 122.888 34.7373C123.165 34.5965 123.444 34.3627 123.725 34.0358C123.762 34 123.798 33.9813 123.834 33.9813C123.862 33.9813 123.907 33.995 123.971 34.0222L124.951 34.4308C125.015 34.458 125.047 34.5039 125.047 34.567C125.047 34.6124 125.028 34.6578 124.992 34.7032C124.556 35.3207 124.089 35.7542 123.589 36.0039C123.09 36.2536 122.468 36.3785 121.723 36.3785C121.024 36.3785 120.393 36.2241 119.83 35.9154C119.267 35.6067 118.827 35.1776 118.509 34.6283C118.191 34.079 118.032 33.4502 118.032 32.7419C118.032 31.9792 118.196 31.305 118.523 30.7193C118.849 30.1337 119.292 29.682 119.851 29.3642C120.409 29.0464 121.02 28.8875 121.682 28.8875C122.372 28.8875 122.985 29.0395 123.521 29.3437C124.057 29.6479 124.475 30.086 124.774 30.6581C125.074 31.2301 125.224 31.9111 125.224 32.7011C125.224 32.8191 125.212 32.9008 125.19 32.9462C125.167 32.9916 125.101 33.0189 124.992 33.0279H120.361C120.252 33.0279 120.198 33.1006 120.198 33.2459C120.198 33.7548 120.368 34.1652 120.709 34.4785Z" fill="#900000"/>
<path fill-rule="evenodd" clip-rule="evenodd" d="M126.341 35.9697V29.2823C126.341 29.1102 126.413 29.0235 126.559 29.0235H128.152C128.298 29.0235 128.37 29.1007 128.37 29.2551V30.0587C128.37 30.095 128.379 30.1222 128.397 30.1404C128.416 30.1585 128.434 30.1676 128.452 30.1676C128.479 30.1676 128.515 30.1449 128.561 30.0995C128.833 29.7368 129.156 29.4435 129.528 29.221C129.9 28.9986 130.254 28.8873 130.59 28.8873C130.917 28.8873 131.081 28.9645 131.081 29.1189V30.6988C131.081 30.7624 131.062 30.8127 131.026 30.8486C130.99 30.8849 130.94 30.894 130.876 30.8759C130.586 30.8032 130.268 30.7669 129.923 30.7669C129.696 30.7669 129.467 30.8236 129.235 30.9371C129.004 31.0511 128.813 31.2009 128.663 31.3866C128.513 31.5727 128.438 31.7612 128.438 31.9518V35.9289C128.438 36.1382 128.32 36.2422 128.084 36.2422H126.627C126.436 36.2422 126.341 36.1514 126.341 35.9697Z" fill="#900000"/>
<path fill-rule="evenodd" clip-rule="evenodd" d="M36.0749 53.4125C36.025 53.3581 36 53.2809 36 53.181V43.647C36 43.4744 36.0767 43.3882 36.2315 43.3882H39.0509C39.1508 43.3882 39.2234 43.4018 39.2688 43.429C39.3142 43.4563 39.3505 43.5108 39.3778 43.5925L41.4344 49.2993C41.4616 49.3724 41.4934 49.4082 41.5297 49.4082C41.5661 49.4082 41.5978 49.3724 41.6251 49.2993L43.5864 43.7014C43.6408 43.4926 43.7407 43.3882 43.886 43.3882H46.8143C46.9505 43.3882 47.0186 43.4699 47.0186 43.6333V53.1674C47.0186 53.2854 46.9914 53.3694 46.9369 53.4193C46.8824 53.4693 46.7962 53.4943 46.6781 53.4943H44.9211C44.8122 53.4943 44.7373 53.4738 44.6964 53.433C44.6555 53.3921 44.6351 53.3217 44.6351 53.2219V46.4391C44.6351 46.3755 44.6215 46.3437 44.5942 46.3437C44.567 46.3437 44.5398 46.3801 44.5125 46.4527L42.129 53.2763C42.0832 53.4221 41.9878 53.4943 41.843 53.4943H40.7125C40.5491 53.4943 40.4492 53.4221 40.4129 53.2763L38.0566 46.548C38.0294 46.4754 38.0021 46.4391 37.9749 46.4391C37.9381 46.4391 37.9204 46.4799 37.9204 46.5617V53.2491C37.9204 53.349 37.9045 53.4148 37.8728 53.4466C37.841 53.4788 37.7751 53.4943 37.6753 53.4943H36.286C36.1952 53.4943 36.1244 53.467 36.0749 53.4125Z" fill="#900000"/>
<mask id="mask0_626_7966" style="mask-type:luminance" maskUnits="userSpaceOnUse" x="48" y="46" width="8" height="8">
<path fill-rule="evenodd" clip-rule="evenodd" d="M48.3945 46.1396H55.7085V53.6305H48.3945V46.1396Z" fill="white"/>
</mask>
<g mask="url(#mask0_626_7966)">
<path fill-rule="evenodd" clip-rule="evenodd" d="M53.1959 51.649C53.4546 51.254 53.584 50.666 53.584 49.8852C53.584 49.0952 53.4546 48.4982 53.1959 48.0941C52.9371 47.6901 52.558 47.488 52.0586 47.488C51.5592 47.488 51.1778 47.6901 50.9145 48.0941C50.6512 48.4982 50.5195 49.0952 50.5195 49.8852C50.5195 50.657 50.6512 51.2426 50.9145 51.6421C51.1778 52.0417 51.5592 52.2414 52.0586 52.2414C52.558 52.2414 52.9371 52.0439 53.1959 51.649ZM50.1447 53.1608C49.5954 52.8475 49.1663 52.4094 48.8576 51.8464C48.5489 51.2835 48.3945 50.6433 48.3945 49.926C48.3945 49.1815 48.5512 48.5232 48.8644 47.9511C49.1777 47.3791 49.6135 46.9342 50.1719 46.6163C50.7304 46.2985 51.3592 46.1396 52.0583 46.1396C52.7756 46.1396 53.4112 46.3008 53.9651 46.6232C54.519 46.9455 54.948 47.3927 55.2522 47.9647C55.5564 48.5368 55.7085 49.186 55.7085 49.9124C55.7085 50.6297 55.5541 51.2699 55.2454 51.8328C54.9367 52.3958 54.5054 52.8362 53.9515 53.154C53.3976 53.4718 52.762 53.6307 52.0447 53.6307C51.3274 53.6307 50.694 53.474 50.1447 53.1608Z" fill="#900000"/>
</g>
<mask id="mask1_626_7966" style="mask-type:luminance" maskUnits="userSpaceOnUse" x="56" y="43" width="8" height="11">
<path fill-rule="evenodd" clip-rule="evenodd" d="M56.5791 43.3883H63.6751V53.6305H56.5791V43.3883Z" fill="white"/>
</mask>
<g mask="url(#mask1_626_7966)">
<path fill-rule="evenodd" clip-rule="evenodd" d="M60.9582 47.6514C60.7539 47.5424 60.5246 47.4879 60.2704 47.4879C59.7892 47.4879 59.4078 47.6854 59.1263 48.0804C58.8448 48.4754 58.7041 49.0865 58.7041 49.9123C58.7041 50.7476 58.8403 51.3583 59.1127 51.7442C59.3851 52.1301 59.7619 52.323 60.2432 52.323C60.6064 52.323 60.9196 52.2027 61.1829 51.9621C61.4463 51.7215 61.5779 51.4427 61.5779 51.1245V48.1553C61.3691 47.9283 61.1625 47.7603 60.9582 47.6514ZM61.6049 53.222V52.8406C61.6049 52.7684 61.5822 52.7317 61.5368 52.7317C61.5096 52.7317 61.4687 52.7498 61.4142 52.7861C61.1509 53.0404 60.8626 53.2447 60.5493 53.399C60.2361 53.5534 59.8615 53.6306 59.4257 53.6306C58.5722 53.6306 57.8844 53.3128 57.3623 52.6772C56.8402 52.0416 56.5791 51.1295 56.5791 49.9395C56.5791 49.195 56.713 48.5344 56.9809 47.9578C57.2488 47.3812 57.6097 46.9341 58.0637 46.6163C58.5177 46.2989 59.0171 46.1396 59.5619 46.1396C59.916 46.1396 60.2361 46.1986 60.5221 46.3166C60.8081 46.4347 61.0828 46.6163 61.3461 46.8614C61.4097 46.9068 61.4551 46.9295 61.4823 46.9295C61.5459 46.9295 61.5777 46.8705 61.5777 46.7525V43.6335C61.5777 43.47 61.6503 43.3883 61.7956 43.3883H63.4572C63.5208 43.3883 63.573 43.411 63.6139 43.4564C63.6547 43.5018 63.6751 43.5654 63.6751 43.6471V53.2084C63.6751 53.3082 63.6524 53.3809 63.607 53.4263C63.5616 53.4717 63.4799 53.4944 63.3619 53.4944H61.8909C61.7002 53.4944 61.6049 53.4036 61.6049 53.222Z" fill="#900000"/>
</g>
<mask id="mask2_626_7966" style="mask-type:luminance" maskUnits="userSpaceOnUse" x="64" y="46" width="9" height="8">
<path fill-rule="evenodd" clip-rule="evenodd" d="M64.8477 46.1395H72.039V53.6305H64.8477V46.1395Z" fill="white"/>
</mask>
<g mask="url(#mask2_626_7966)">
<path fill-rule="evenodd" clip-rule="evenodd" d="M69.7508 49.1359C69.8507 49.1359 69.9143 49.1246 69.9415 49.1019C69.9687 49.0792 69.9824 49.0269 69.9824 48.9452C69.9824 48.7091 69.9279 48.4735 69.8189 48.237C69.71 48.0009 69.5511 47.8057 69.3422 47.6513C69.1334 47.497 68.8791 47.4198 68.5795 47.4198C68.1255 47.4198 67.7532 47.5787 67.4627 47.8965C67.1721 48.2143 67.0314 48.6233 67.0404 49.1223L69.7508 49.1359ZM67.524 51.7306C67.8645 52.0438 68.289 52.2004 68.7975 52.2004C69.1243 52.2004 69.4263 52.1301 69.7032 51.9893C69.9801 51.8486 70.2594 51.6148 70.5408 51.2879C70.5772 51.252 70.6135 51.2334 70.6498 51.2334C70.677 51.2334 70.7224 51.247 70.786 51.2743L71.7666 51.6829C71.8302 51.7101 71.862 51.756 71.862 51.8191C71.862 51.8645 71.8438 51.9099 71.8075 51.9553C71.3717 52.5727 70.904 53.0063 70.4046 53.256C69.9052 53.5057 69.2832 53.6305 68.5387 53.6305C67.8395 53.6305 67.2085 53.4762 66.6455 53.1675C66.0825 52.8587 65.6422 52.4297 65.3244 51.8804C65.0066 51.331 64.8477 50.7022 64.8477 49.994C64.8477 49.2313 65.0111 48.5571 65.338 47.9714C65.6649 47.3858 66.1075 46.934 66.6659 46.6162C67.2244 46.2984 67.835 46.1395 68.4978 46.1395C69.1879 46.1395 69.8008 46.2916 70.3365 46.5958C70.8723 46.9 71.2899 47.3381 71.5896 47.9101C71.8892 48.4822 72.039 49.1632 72.039 49.9531C72.039 50.0712 72.0277 50.1529 72.005 50.1983C71.9823 50.2437 71.9165 50.2709 71.8075 50.28H67.1767C67.0677 50.28 67.0132 50.3527 67.0132 50.4979C67.0132 51.0069 67.1835 51.4173 67.524 51.7306Z" fill="#900000"/>
</g>
<path fill-rule="evenodd" clip-rule="evenodd" d="M75.2664 53.1674C75.2664 53.2854 75.2391 53.3694 75.1847 53.4193C75.1302 53.4697 75.0348 53.4943 74.8986 53.4943H73.4549C73.346 53.4943 73.2688 53.4716 73.2234 53.4262C73.178 53.3808 73.1553 53.3086 73.1553 53.2082L73.1961 43.647C73.1961 43.4744 73.2688 43.3882 73.4141 43.3882H75.0621C75.1983 43.3882 75.2664 43.4699 75.2664 43.6333V53.1674Z" fill="#900000"/>
<mask id="mask3_626_7966" style="mask-type:luminance" maskUnits="userSpaceOnUse" x="76" y="46" width="7" height="8">
<path fill-rule="evenodd" clip-rule="evenodd" d="M76.2881 46.1396H82.8529V53.6305H76.2881V46.1396Z" fill="white"/>
</mask>
<g mask="url(#mask3_626_7966)">
<path fill-rule="evenodd" clip-rule="evenodd" d="M79.6386 47.4199C79.2931 47.4199 79.0071 47.4858 78.7806 47.6174C78.5536 47.7491 78.4401 47.9284 78.4401 48.1554C78.4401 48.2825 78.4923 48.3983 78.5967 48.5027C78.7011 48.6071 78.9031 48.6957 79.2028 48.7683L80.7691 49.1497C81.4859 49.3222 82.0126 49.5969 82.349 49.9737C82.6845 50.3505 82.8529 50.7932 82.8529 51.3016C82.8529 52.019 82.5533 52.5865 81.954 53.0041C81.3547 53.4218 80.5693 53.6307 79.5978 53.6307C78.8164 53.6307 78.1404 53.4922 77.5684 53.2153C76.9963 52.9383 76.5923 52.5774 76.3562 52.1325C76.3103 52.0689 76.2881 52.0099 76.2881 51.9554C76.2881 51.8918 76.3194 51.8464 76.3834 51.8192L77.3096 51.3425C77.3822 51.3062 77.4458 51.288 77.5003 51.288C77.5547 51.288 77.6047 51.3107 77.6501 51.3561C77.8499 51.6376 78.0927 51.8623 78.3788 52.0303C78.6648 52.1983 79.0434 52.2823 79.516 52.2823C79.9423 52.2823 80.2901 52.2187 80.558 52.0916C80.8254 51.9645 80.9598 51.7783 80.9598 51.5332C80.9598 51.3697 80.8917 51.2335 80.7555 51.1246C80.6193 51.0156 80.3877 50.9203 80.0608 50.8386L78.658 50.5389C77.2774 50.2393 76.5877 49.5537 76.5877 48.4823C76.5877 48.0283 76.7126 47.6242 76.9623 47.2701C77.212 46.916 77.5684 46.639 78.0315 46.4393C78.4945 46.2395 79.0393 46.1396 79.6659 46.1396C80.3287 46.1396 80.9162 46.2622 81.4297 46.5074C81.9427 46.7526 82.3127 47.0613 82.5397 47.4336C82.5942 47.5062 82.6214 47.5698 82.6214 47.6242C82.6214 47.6787 82.5896 47.7241 82.5261 47.7604L81.5454 48.2371C81.5182 48.2553 81.4819 48.2644 81.4365 48.2644C81.3547 48.2644 81.2866 48.2281 81.2322 48.1554C80.8594 47.6651 80.3287 47.4199 79.6386 47.4199Z" fill="#900000"/>
</g>
<path fill-rule="evenodd" clip-rule="evenodd" d="M89.1724 43.3884C89.3172 43.3884 89.3903 43.4701 89.3903 43.6336V53.1676C89.3903 53.2857 89.3631 53.3696 89.3086 53.4196C89.2541 53.4695 89.1588 53.4945 89.0226 53.4945H87.3065C87.1975 53.4945 87.1199 53.4718 87.0749 53.4264C87.0295 53.381 87.0068 53.3084 87.0068 53.2085V43.6472C87.0068 43.4747 87.0795 43.3884 87.2248 43.3884H89.1724Z" fill="#900000"/>
<path fill-rule="evenodd" clip-rule="evenodd" d="M91.1599 53.4332C91.1145 53.3923 91.0918 53.3219 91.0918 53.2221V46.5346C91.0918 46.3621 91.1644 46.2758 91.3097 46.2758H92.9577C93.0939 46.2758 93.162 46.353 93.162 46.5074V47.1748C93.162 47.2474 93.1847 47.2837 93.2301 47.2837C93.2574 47.2837 93.2892 47.2656 93.3255 47.2293C93.6978 46.8751 94.07 46.605 94.4423 46.4189C94.8146 46.2327 95.2096 46.1396 95.6273 46.1396C96.2901 46.1396 96.8145 46.3349 97.2004 46.7253C97.5863 47.1158 97.7792 47.6379 97.7792 48.2916V53.1676C97.7792 53.3855 97.6703 53.4945 97.4524 53.4945H95.9405C95.8407 53.4945 95.7726 53.474 95.7362 53.4332C95.6999 53.3923 95.6818 53.3219 95.6818 53.2221V48.6185C95.6818 48.3098 95.5978 48.0714 95.4298 47.9034C95.2618 47.7355 95.0144 47.6515 94.6875 47.6515C94.4151 47.6515 94.1631 47.7196 93.9316 47.8558C93.7 47.992 93.4526 48.2054 93.1893 48.4959V53.1812C93.1893 53.2902 93.162 53.3696 93.1076 53.4196C93.0531 53.4695 92.9623 53.4945 92.8352 53.4945H91.3778C91.2779 53.4945 91.2053 53.474 91.1599 53.4332Z" fill="#900000"/>
<path fill-rule="evenodd" clip-rule="evenodd" d="M101.307 53.1673C101.307 53.2854 101.279 53.3694 101.225 53.4193C101.17 53.4697 101.075 53.4942 100.939 53.4942H99.5087C99.3997 53.4942 99.3226 53.4715 99.2772 53.4261C99.2318 53.3807 99.2091 53.3085 99.2091 53.2082V46.5344C99.2091 46.3623 99.2862 46.2756 99.4406 46.2756H101.102C101.238 46.2756 101.307 46.3528 101.307 46.5071V53.1673ZM101.334 45.0634C101.334 45.2904 101.211 45.4039 100.966 45.4039H99.495C99.386 45.4039 99.3088 45.379 99.2634 45.329C99.218 45.2791 99.1953 45.1996 99.1953 45.0907V43.6606C99.1953 43.479 99.2725 43.3882 99.4269 43.3882H101.116C101.179 43.3882 101.232 43.4109 101.272 43.4563C101.313 43.5017 101.334 43.5652 101.334 43.647V45.0634Z" fill="#900000"/>
<path fill-rule="evenodd" clip-rule="evenodd" d="M105.857 47.7194C105.757 47.7194 105.707 47.7739 105.707 47.8829V51.1653C105.707 51.4745 105.78 51.6942 105.925 51.8259C106.07 51.9575 106.302 52.0234 106.619 52.0234H107.355C107.419 52.0234 107.468 52.0438 107.505 52.0847C107.541 52.1255 107.559 52.1827 107.559 52.2549L107.546 53.0857C107.546 53.2678 107.446 53.3763 107.246 53.4126C106.865 53.4671 106.324 53.4943 105.625 53.4943C104.99 53.4943 104.495 53.3445 104.141 53.0449C103.786 52.7452 103.609 52.3094 103.609 51.7373V47.9237C103.609 47.7875 103.55 47.7194 103.432 47.7194H102.602C102.429 47.7194 102.343 47.6427 102.343 47.4879V46.48C102.343 46.3438 102.424 46.2757 102.588 46.2757H103.528C103.6 46.2757 103.646 46.2258 103.664 46.1259L103.855 44.0556C103.873 43.9013 103.941 43.8241 104.059 43.8241H105.543C105.607 43.8241 105.659 43.8468 105.7 43.8922C105.741 43.9376 105.761 44.0012 105.761 44.0829V46.1259C105.761 46.2167 105.807 46.2621 105.898 46.2621H107.328C107.491 46.2621 107.573 46.3352 107.573 46.48V47.4879C107.573 47.6427 107.482 47.7194 107.3 47.7194H105.857Z" fill="#900000"/>
<path fill-rule="evenodd" clip-rule="evenodd" d="M110.801 53.1673C110.801 53.2853 110.773 53.3693 110.719 53.4193C110.665 53.4697 110.569 53.4942 110.433 53.4942H109.003C108.894 53.4942 108.817 53.4715 108.771 53.4261C108.726 53.3807 108.703 53.3085 108.703 53.2082V46.5343C108.703 46.3623 108.78 46.2756 108.935 46.2756H110.596C110.733 46.2756 110.801 46.3527 110.801 46.5071V53.1673ZM110.828 45.0634C110.828 45.2904 110.705 45.4039 110.46 45.4039H108.989C108.88 45.4039 108.803 45.379 108.758 45.329C108.712 45.2791 108.689 45.1996 108.689 45.0907V43.6606C108.689 43.479 108.767 43.3882 108.921 43.3882H110.61C110.673 43.3882 110.726 43.4109 110.767 43.4563C110.807 43.5017 110.828 43.5652 110.828 43.647V45.0634Z" fill="#900000"/>
<path fill-rule="evenodd" clip-rule="evenodd" d="M116.522 50.1028C116.494 50.0665 116.44 50.0484 116.358 50.0484L115.977 50.0756C115.45 50.1028 114.985 50.2277 114.581 50.4502C114.177 50.6726 113.975 50.9795 113.975 51.3695C113.975 51.6419 114.07 51.858 114.261 52.0165C114.451 52.1754 114.715 52.2548 115.051 52.2548C115.468 52.2548 115.823 52.1322 116.113 51.8871C116.413 51.651 116.563 51.4104 116.563 51.1652V50.2799C116.563 50.1982 116.549 50.1396 116.522 50.1028ZM114.152 53.6304C113.471 53.6304 112.93 53.4466 112.531 53.0788C112.131 52.7111 111.932 52.2321 111.932 51.6419C111.932 50.8792 112.281 50.2663 112.98 49.8032C113.68 49.3401 114.642 49.095 115.868 49.0677L116.358 49.0269C116.413 49.0269 116.46 49.0114 116.501 48.9792C116.542 48.9479 116.562 48.9002 116.562 48.8362V48.5502C116.562 48.196 116.463 47.9236 116.263 47.7329C116.063 47.5423 115.777 47.4469 115.405 47.4469C114.769 47.4469 114.297 47.7193 113.988 48.2641C113.952 48.3549 113.893 48.4003 113.811 48.4003C113.766 48.4003 113.725 48.3958 113.689 48.3867L112.327 48.0734C112.245 48.0553 112.204 48.0053 112.204 47.9236C112.204 47.8691 112.222 47.801 112.259 47.7193C112.476 47.1927 112.865 46.7982 113.423 46.5344C113.981 46.2715 114.674 46.1394 115.5 46.1394C116.581 46.1394 117.361 46.3369 117.843 46.7319C118.324 47.1269 118.565 47.6875 118.565 48.414V53.1946C118.565 53.3035 118.546 53.3807 118.51 53.4261C118.474 53.4715 118.406 53.4942 118.306 53.4942H116.903C116.812 53.4942 116.746 53.4624 116.705 53.3989C116.665 53.3358 116.635 53.2404 116.617 53.1129L116.603 52.8132C116.594 52.7315 116.558 52.6906 116.494 52.6906C116.458 52.6906 116.39 52.727 116.29 52.7996C115.691 53.3535 114.978 53.6304 114.152 53.6304Z" fill="#900000"/>
<path fill-rule="evenodd" clip-rule="evenodd" d="M123.017 47.7194C122.917 47.7194 122.867 47.7739 122.867 47.8829V51.1653C122.867 51.4745 122.94 51.6942 123.085 51.8259C123.23 51.9575 123.462 52.0234 123.78 52.0234H124.515C124.579 52.0234 124.629 52.0438 124.665 52.0847C124.701 52.1255 124.719 52.1827 124.719 52.2549L124.706 53.0857C124.706 53.2678 124.606 53.3763 124.406 53.4126C124.025 53.4671 123.485 53.4943 122.785 53.4943C122.15 53.4943 121.655 53.3445 121.301 53.0449C120.947 52.7452 120.77 52.3094 120.77 51.7373V47.9237C120.77 47.7875 120.711 47.7194 120.593 47.7194H119.762C119.589 47.7194 119.503 47.6427 119.503 47.4879V46.48C119.503 46.3438 119.585 46.2757 119.748 46.2757H120.688C120.761 46.2757 120.806 46.2258 120.824 46.1259L121.015 44.0556C121.033 43.9013 121.101 43.8241 121.219 43.8241H122.704C122.767 43.8241 122.819 43.8468 122.86 43.8922C122.901 43.9376 122.922 44.0012 122.922 44.0829V46.1259C122.922 46.2167 122.967 46.2621 123.058 46.2621H124.488C124.651 46.2621 124.733 46.3352 124.733 46.48V47.4879C124.733 47.6427 124.642 47.7194 124.461 47.7194H123.017Z" fill="#900000"/>
<path fill-rule="evenodd" clip-rule="evenodd" d="M127.962 53.1673C127.962 53.2853 127.935 53.3693 127.88 53.4192C127.826 53.4696 127.73 53.4941 127.594 53.4941H126.164C126.055 53.4941 125.978 53.4714 125.932 53.426C125.887 53.3806 125.864 53.3084 125.864 53.2081V46.5343C125.864 46.3622 125.941 46.2755 126.096 46.2755H127.757C127.894 46.2755 127.962 46.3527 127.962 46.5071V53.1673ZM127.989 45.0634C127.989 45.2904 127.866 45.4039 127.621 45.4039H126.15C126.041 45.4039 125.964 45.379 125.919 45.329C125.873 45.2791 125.851 45.1996 125.851 45.0907V43.6606C125.851 43.479 125.928 43.3882 126.082 43.3882H127.771C127.835 43.3882 127.887 43.4109 127.928 43.4563C127.969 43.5017 127.989 43.5652 127.989 43.647V45.0634Z" fill="#900000"/>
<path fill-rule="evenodd" clip-rule="evenodd" d="M136.228 46.3711C136.265 46.4347 136.269 46.5073 136.242 46.589L133.545 53.2084C133.463 53.399 133.318 53.4944 133.109 53.4944H132.142C131.933 53.4944 131.788 53.399 131.706 53.2084L129.023 46.6026C129.005 46.5482 128.996 46.5118 128.996 46.4937C128.996 46.4301 129.019 46.3779 129.064 46.337C129.11 46.2962 129.164 46.2758 129.228 46.2758H130.957C131.112 46.2758 131.212 46.3529 131.257 46.5073L132.823 50.5252C132.869 50.6069 132.905 50.6478 132.932 50.6478C132.969 50.6478 133.005 50.6024 133.041 50.5116L134.58 46.4937C134.644 46.3484 134.744 46.2758 134.88 46.2758H136.051C136.133 46.2758 136.192 46.3075 136.228 46.3711Z" fill="#900000"/>
<mask id="mask4_626_7966" style="mask-type:luminance" maskUnits="userSpaceOnUse" x="136" y="46" width="8" height="8">
<path fill-rule="evenodd" clip-rule="evenodd" d="M136.542 46.1395H143.733V53.6305H136.542V46.1395Z" fill="white"/>
</mask>
<g mask="url(#mask4_626_7966)">
<path fill-rule="evenodd" clip-rule="evenodd" d="M141.445 49.1359C141.545 49.1359 141.608 49.1246 141.636 49.1019C141.663 49.0792 141.677 49.0269 141.677 48.9452C141.677 48.7091 141.623 48.4735 141.513 48.237C141.404 48.0009 141.246 47.8057 141.037 47.6513C140.828 47.497 140.573 47.4198 140.274 47.4198C139.82 47.4198 139.448 47.5787 139.157 47.8965C138.866 48.2143 138.726 48.6233 138.735 49.1223L141.445 49.1359ZM139.219 51.7306C139.559 52.0438 139.983 52.2004 140.492 52.2004C140.818 52.2004 141.121 52.1301 141.398 51.9893C141.674 51.8486 141.953 51.6148 142.235 51.2879C142.271 51.252 142.308 51.2334 142.344 51.2334C142.371 51.2334 142.417 51.247 142.48 51.2743L143.461 51.6829C143.525 51.7101 143.556 51.756 143.556 51.8191C143.556 51.8645 143.538 51.9099 143.501 51.9553C143.066 52.5727 142.598 53.0063 142.099 53.256C141.6 53.5057 140.977 53.6305 140.233 53.6305C139.533 53.6305 138.903 53.4762 138.34 53.1675C137.777 52.8587 137.336 52.4297 137.019 51.8804C136.701 51.331 136.542 50.7022 136.542 49.994C136.542 49.2313 136.705 48.5571 137.032 47.9714C137.359 47.3858 137.802 46.934 138.36 46.6162C138.919 46.2984 139.529 46.1395 140.192 46.1395C140.882 46.1395 141.495 46.2916 142.03 46.5958C142.567 46.9 142.985 47.3381 143.284 47.9101C143.584 48.4822 143.733 49.1632 143.733 49.9531C143.733 50.0712 143.722 50.1529 143.699 50.1983C143.676 50.2437 143.611 50.2709 143.501 50.28H138.871C138.762 50.28 138.708 50.3527 138.708 50.4979C138.708 51.0069 138.878 51.4173 139.219 51.7306Z" fill="#900000"/>
</g>
</svg>
