<?xml version="1.0" encoding="UTF-8"?>
<svg width="428px" height="394px" viewBox="0 0 428 394" version="1.1" xmlns="http://www.w3.org/2000/svg" xmlns:xlink="http://www.w3.org/1999/xlink">
    <!-- Generator: Sketch 54.1 (76490) - https://sketchapp.com -->
    <title>illustration</title>
    <desc>Created with Sketch.</desc>
    <defs>
        <path d="M133.722,0.627 C127.822,0.627 122.995,5.483 122.995,11.418 L122.995,11.418 L122.995,33.002 C122.995,38.937 127.822,43.793 133.722,43.793 L133.722,43.793 L155.174,43.793 C161.073,43.793 165.899,38.937 165.899,33.002 L165.899,33.002 L165.899,11.418 C165.899,5.483 161.073,0.627 155.174,0.627 L155.174,0.627 L133.722,0.627 Z M79.092,0.627 C73.193,0.627 68.366,5.483 68.366,11.418 L68.366,11.418 L68.366,33.002 C68.366,38.937 73.193,43.793 79.092,43.793 L79.092,43.793 L100.544,43.793 C106.443,43.793 111.268,38.937 111.268,33.002 L111.268,33.002 L111.268,11.418 C111.268,5.483 106.443,0.627 100.544,0.627 L100.544,0.627 L79.092,0.627 Z M23.462,0.627 C17.563,0.627 12.736,5.483 12.736,11.418 L12.736,11.418 L12.736,33.002 C12.736,38.937 17.563,43.793 23.462,43.793 L23.462,43.793 L44.914,43.793 C50.813,43.793 55.639,38.937 55.639,33.002 L55.639,33.002 L55.639,11.418 C55.639,5.483 50.813,0.627 44.914,0.627 L44.914,0.627 L23.462,0.627 Z M14.62,49.598 C7.1,49.598 0.945,55.788 0.945,63.355 L0.945,63.355 L0.945,90.87 C0.945,98.437 7.1,104.627 14.62,104.627 L14.62,104.627 L41.966,104.627 C49.487,104.627 55.639,98.437 55.639,90.87 L55.639,90.87 L55.639,63.355 C55.639,55.788 49.487,49.598 41.966,49.598 L41.966,49.598 L14.62,49.598 Z M133.722,55.585 C127.822,55.585 122.995,60.441 122.995,66.376 L122.995,66.376 L122.995,87.959 C122.995,93.894 127.822,98.75 133.722,98.75 L133.722,98.75 L155.174,98.75 C161.073,98.75 165.899,93.894 165.899,87.959 L165.899,87.959 L165.899,66.376 C165.899,60.441 161.073,55.585 155.174,55.585 L155.174,55.585 L133.722,55.585 Z M79.092,55.585 C73.193,55.585 68.366,60.441 68.366,66.376 L68.366,66.376 L68.366,87.959 C68.366,93.894 73.193,98.75 79.092,98.75 L79.092,98.75 L100.544,98.75 C106.443,98.75 111.268,93.894 111.268,87.959 L111.268,87.959 L111.268,66.376 C111.268,60.441 106.443,55.585 100.544,55.585 L100.544,55.585 L79.092,55.585 Z M133.722,110.543 C127.822,110.543 122.995,115.399 122.995,121.335 L122.995,121.335 L122.995,142.917 C122.995,148.854 127.822,153.709 133.722,153.709 L133.722,153.709 L155.174,153.709 C161.073,153.709 165.899,148.854 165.899,142.917 L165.899,142.917 L165.899,121.335 C165.899,115.399 161.073,110.543 155.174,110.543 L155.174,110.543 L133.722,110.543 Z M79.092,110.543 C73.193,110.543 68.366,115.399 68.366,121.335 L68.366,121.335 L68.366,142.917 C68.366,148.854 73.193,153.709 79.092,153.709 L79.092,153.709 L100.544,153.709 C106.443,153.709 111.268,148.854 111.268,142.917 L111.268,142.917 L111.268,121.335 C111.268,115.399 106.443,110.543 100.544,110.543 L100.544,110.543 L79.092,110.543 Z M23.462,110.543 C17.563,110.543 12.736,115.399 12.736,121.335 L12.736,121.335 L12.736,142.917 C12.736,148.854 17.563,153.709 23.462,153.709 L23.462,153.709 L44.914,153.709 C50.813,153.709 55.639,148.854 55.639,142.917 L55.639,142.917 L55.639,121.335 C55.639,115.399 50.813,110.543 44.914,110.543 L44.914,110.543 L23.462,110.543 Z" id="path-1"></path>
        <path d="M9.212,23.941 C-7.467,48.754 -0.872,82.391 23.941,99.07 L23.941,99.07 C42.204,111.346 66.081,111.346 84.343,99.07 L84.343,99.07 L115.491,130.207 C119.698,134.125 126.286,133.893 130.205,129.688 L130.205,129.688 C133.932,125.689 133.932,119.49 130.205,115.492 L130.205,115.492 L99.071,84.343 C115.751,59.529 109.156,25.893 84.343,9.213 L84.343,9.213 C75.076,2.984 64.577,0 54.191,0 L54.191,0 C36.769,0 19.663,8.395 9.212,23.941 L9.212,23.941 Z M20.823,54.138 C20.823,35.738 35.739,20.824 54.137,20.824 L54.137,20.824 C72.537,20.824 87.452,35.738 87.452,54.138 L87.452,54.138 C87.452,72.537 72.537,87.452 54.137,87.452 L54.137,87.452 C35.739,87.452 20.823,72.537 20.823,54.138 L20.823,54.138 Z" id="path-3"></path>
        <path d="M3.893,1.318 C-0.071,3.847 -1.074,9.53 1.644,14.01 L1.644,14.01 C4.361,18.489 9.779,20.07 13.741,17.542 L13.741,17.542 C17.703,15.01 18.71,9.329 15.99,4.85 L15.99,4.85 C14.149,1.816 11.073,0.112 8.048,0.112 L8.048,0.112 C6.604,0.112 5.172,0.5 3.893,1.318 L3.893,1.318 Z" id="path-5"></path>
        <path d="M5.444,1.74 C0.521,4.801 -0.989,11.275 2.074,16.201 L2.074,16.201 C5.136,21.126 11.61,22.636 16.535,19.572 L16.535,19.572 C21.457,16.51 22.97,10.036 19.906,5.113 L19.906,5.113 C17.917,1.913 14.489,0.156 10.979,0.156 L10.979,0.156 C9.087,0.156 7.17,0.667 5.444,1.74 L5.444,1.74 Z" id="path-7"></path>
        <path d="M62.951,188.632 C43.321,200.816 22.15,209.934 0.005,215.732 L0.005,215.732 L0.686,218.353 C15.418,214.494 29.738,209.181 43.458,202.489 L43.458,202.489 C50.602,199.004 57.583,195.148 64.38,190.927 L64.38,190.927 C130.984,149.577 171.797,78.284 173.559,0.222 L173.559,0.222 L170.841,0.173 C169.098,77.316 128.766,147.769 62.951,188.632 L62.951,188.632 Z" id="path-9"></path>
        <path d="M8.542,2.924 C0.803,7.738 -1.571,17.91 3.242,25.649 L3.242,25.649 C8.055,33.387 18.226,35.76 25.964,30.947 L25.964,30.947 C33.704,26.136 36.074,15.963 31.263,8.223 L31.263,8.223 C28.138,3.197 22.749,0.435 17.235,0.435 L17.235,0.435 C14.263,0.435 11.251,1.239 8.542,2.924 L8.542,2.924 Z" id="path-11"></path>
        <path d="M6.897,2.242 C0.098,6.469 -1.985,15.409 2.243,22.21 L2.243,22.21 C6.47,29.011 15.411,31.096 22.21,26.866 L22.21,26.866 C29.01,22.639 31.095,13.698 26.868,6.896 L26.868,6.896 C24.12,2.48 19.386,0.053 14.542,0.053 L14.542,0.053 C11.927,0.053 9.28,0.76 6.897,2.242 L6.897,2.242 Z" id="path-13"></path>
        <path d="M0.044,3.642 C52.495,15.094 96.969,46.453 125.272,91.935 L125.272,91.935 C153.085,136.627 161.763,189.496 149.711,240.804 L149.711,240.804 C137.658,292.115 106.318,335.724 61.461,363.594 L61.461,363.594 C58.988,365.133 56.441,366.635 53.889,368.074 L53.889,368.074 L55.224,370.444 C57.81,368.989 60.392,367.463 62.897,365.903 L62.897,365.903 C108.373,337.646 140.145,293.439 152.366,241.422 L152.366,241.422 C164.585,189.403 155.785,135.804 127.59,90.495 L127.59,90.495 C98.894,44.384 53.807,12.592 0.636,0.982 L0.636,0.982 L0.044,3.642 Z" id="path-15"></path>
        <path d="M5.777,2.948 C0.425,6.857 -0.744,14.361 3.164,19.714 L3.164,19.714 C7.073,25.066 14.577,26.236 19.929,22.327 L19.929,22.327 C25.281,18.42 26.451,10.914 22.543,5.562 L22.543,5.562 C20.194,2.345 16.543,0.64 12.842,0.64 L12.842,0.64 C10.388,0.64 7.911,1.391 5.777,2.948 L5.777,2.948 Z" id="path-17"></path>
        <path d="M2.821,1.91 C0.367,3.701 -0.17,7.141 1.622,9.594 L1.622,9.594 C3.413,12.047 6.852,12.584 9.305,10.792 L9.305,10.792 C11.758,9.001 12.295,5.561 10.504,3.11 L10.504,3.11 C9.427,1.634 7.754,0.852 6.057,0.852 L6.057,0.852 C4.933,0.852 3.798,1.197 2.821,1.91 L2.821,1.91 Z" id="path-19"></path>
        <path d="M23.25,154.216 C28.257,161.109 33.984,167.438 40.28,173.026 L40.28,173.026 L42.056,170.985 C35.912,165.527 30.317,159.346 25.428,152.616 L25.428,152.616 C-8.651,105.699 -2.526,41.243 39.674,2.689 L39.674,2.689 L37.84,0.65 C-5.385,40.141 -11.658,106.161 23.25,154.216 L23.25,154.216 Z" id="path-21"></path>
        <path d="M3.502,0.833 C0.769,2.166 -0.364,5.459 0.968,8.187 L0.968,8.187 C2.299,10.917 5.591,12.052 8.323,10.719 L8.323,10.719 C11.053,9.388 12.185,6.095 10.854,3.366 L10.854,3.366 C9.902,1.412 7.944,0.275 5.907,0.275 L5.907,0.275 C5.099,0.275 4.277,0.455 3.502,0.833 L3.502,0.833 Z" id="path-23"></path>
        <path d="M8.601,1.507 C1.65,4.897 -1.235,13.28 2.154,20.228 L2.154,20.228 C5.542,27.175 13.924,30.063 20.875,26.673 L20.875,26.673 C27.823,23.284 30.708,14.901 27.32,7.954 L27.32,7.954 C24.894,2.98 19.91,0.088 14.725,0.088 L14.725,0.088 C12.666,0.088 10.575,0.544 8.601,1.507 L8.601,1.507 Z" id="path-25"></path>
    </defs>
    <g id="final" stroke="none" stroke-width="1" fill="none" fill-rule="evenodd">
        <g id="Arranger" transform="translate(-815.000000, -311.000000)">
            <g id="product-card" transform="translate(103.000000, 311.000000)">
                <g id="illustration" transform="translate(712.000000, 0.000000)">
                    <g id="Group-3" transform="translate(117.000000, 115.000000)">
                        <mask id="mask-2" fill="white">
                            <use xlink:href="#path-1"></use>
                        </mask>
                        <g id="Clip-2"></g>
                        <polygon id="Fill-1" fill="#04518C" mask="url(#mask-2)" points="-4.055 158.709 170.9 158.709 170.9 -4.374 -4.055 -4.374"></polygon>
                    </g>
                    <g id="Group-6" transform="translate(78.000000, 139.000000)">
                        <mask id="mask-4" fill="white">
                            <use xlink:href="#path-3"></use>
                        </mask>
                        <use id="Clip-5" fill="#D8D8D8" xlink:href="#path-3"></use>
                        <polygon id="Fill-4" fill="#04A0D8" mask="url(#mask-4)" points="-5 138 138 138 138 -5 -5 -5"></polygon>
                    </g>
                    <g id="Group-9" transform="translate(237.000000, 320.000000)">
                        <mask id="mask-6" fill="white">
                            <use xlink:href="#path-5"></use>
                        </mask>
                        <g id="Clip-8"></g>
                        <polygon id="Fill-7" fill="#04518C" mask="url(#mask-6)" points="14.594 -9.5208 -9.674 2.3152 3.039 28.3802 27.307 16.5442"></polygon>
                    </g>
                    <g id="Group-12" transform="translate(406.000000, 104.000000)">
                        <mask id="mask-8" fill="white">
                            <use xlink:href="#path-7"></use>
                        </mask>
                        <g id="Clip-11"></g>
                        <polygon id="Fill-10" fill="#04518C" mask="url(#mask-8)" points="18.1262 -10.0701 -9.7358 3.5189 3.8532 31.3819 31.7162 17.7919"></polygon>
                    </g>
                    <g id="Group-15" transform="translate(246.000000, 114.000000)">
                        <mask id="mask-10" fill="white">
                            <use xlink:href="#path-9"></use>
                        </mask>
                        <g id="Clip-14"></g>
                        <polygon id="Fill-13" fill="#04518C" mask="url(#mask-10)" points="175.3201 -7.5754 -59.2649 106.8396 0.3531 229.0756 234.9381 114.6606"></polygon>
                    </g>
                    <g id="Group-18" transform="translate(284.000000, 360.000000)">
                        <mask id="mask-12" fill="white">
                            <use xlink:href="#path-11"></use>
                        </mask>
                        <g id="Clip-17"></g>
                        <polygon id="Fill-16" fill="#04518C" mask="url(#mask-12)" points="27.1516 -11.8132 -11.4964 7.0368 7.3536 45.6848 46.0016 26.8348"></polygon>
                    </g>
                    <g id="Group-21" transform="translate(229.000000, 0.000000)">
                        <mask id="mask-14" fill="white">
                            <use xlink:href="#path-13"></use>
                        </mask>
                        <g id="Clip-20"></g>
                        <polygon id="Fill-19" fill="#04518C" mask="url(#mask-14)" points="23.5334 -11.5212 -11.5196 5.5758 5.5764 40.6278 40.6304 23.5318"></polygon>
                    </g>
                    <g id="Group-24" transform="translate(245.000000, 12.000000)">
                        <mask id="mask-16" fill="white">
                            <use xlink:href="#path-15"></use>
                        </mask>
                        <g id="Clip-23"></g>
                        <polygon id="Fill-22" fill="#04518C" mask="url(#mask-16)" points="71.1936 -38.9939 -107.6664 48.2421 52.7776 377.2001 231.6376 289.9641"></polygon>
                    </g>
                    <g id="Group-27" transform="translate(28.000000, 263.000000)">
                        <mask id="mask-18" fill="white">
                            <use xlink:href="#path-17"></use>
                        </mask>
                        <g id="Clip-26"></g>
                        <polygon id="Fill-25" fill="#04518C" mask="url(#mask-18)" points="20.6805 -10.094 -9.8785 4.811 5.0265 35.37 35.5845 20.465"></polygon>
                    </g>
                    <g id="Group-30" transform="translate(34.000000, 100.000000)">
                        <mask id="mask-20" fill="white">
                            <use xlink:href="#path-19"></use>
                        </mask>
                        <g id="Clip-29"></g>
                        <polygon id="Fill-28" fill="#04518C" mask="url(#mask-20)" points="10.8973 -7.6887 -7.9777 1.5173 1.2283 20.3923 20.1033 11.1863"></polygon>
                    </g>
                    <g id="Group-33" transform="translate(0.000000, 104.000000)">
                        <mask id="mask-22" fill="white">
                            <use xlink:href="#path-21"></use>
                        </mask>
                        <g id="Clip-32"></g>
                        <polygon id="Fill-31" fill="#04518C" mask="url(#mask-22)" points="40.8206 -6.366 -42.7674 34.403 30.0026 183.602 113.5906 142.834"></polygon>
                    </g>
                    <g id="Group-36" transform="translate(127.000000, 52.000000)">
                        <mask id="mask-24" fill="white">
                            <use xlink:href="#path-23"></use>
                        </mask>
                        <g id="Clip-35"></g>
                        <polygon id="Fill-34" fill="#04518C" mask="url(#mask-24)" points="10.7454 -8.2634 -8.1296 0.9426 1.0764 19.8176 19.9514 10.6116"></polygon>
                    </g>
                    <g id="Group-39" transform="translate(92.000000, 337.000000)">
                        <mask id="mask-26" fill="white">
                            <use xlink:href="#path-25"></use>
                        </mask>
                        <g id="Clip-38"></g>
                        <polygon id="Fill-37" fill="#04518C" mask="url(#mask-26)" points="23.4847 -11.3157 -10.6693 5.3423 5.9887 39.4973 40.1427 22.8383"></polygon>
                    </g>
                </g>
            </g>
        </g>
    </g>
</svg>