<?xml version="1.0" encoding="UTF-8"?>
<svg width="382px" height="367px" viewBox="0 0 382 367" version="1.1" xmlns="http://www.w3.org/2000/svg" xmlns:xlink="http://www.w3.org/1999/xlink">
    <!-- Generator: Sketch 50 (54983) - http://www.bohemiancoding.com/sketch -->
    <title>Group 4</title>
    <desc>Created with Sketch.</desc>
    <defs>
        <polygon id="path-1" points="0.00459541985 0.144091945 128.671756 0.144091945 128.671756 185 0.00459541985 185"></polygon>
        <polygon id="path-3" points="0.00459541985 0.144091945 128.671756 0.144091945 128.671756 185 0.00459541985 185"></polygon>
        <polygon id="path-5" points="0 0 47 0 47 47 0 47"></polygon>
    </defs>
    <g id="final" stroke="none" stroke-width="1" fill="none" fill-rule="evenodd">
        <g id="Ego" transform="translate(-850.000000, -356.000000)">
            <g id="Group-4" transform="translate(774.000000, 302.000000)">
                <g id="Group-11" transform="translate(190.000000, 148.000000)">
                    <g id="Page-1">
                        <g id="Group-3">
                            <mask id="mask-2" fill="white">
                                <use xlink:href="#path-1"></use>
                            </mask>
                            <g id="Clip-2"></g>
                            <path d="M73.531313,136.076188 L73.531313,148.076821 C73.531313,153.606343 69.8549771,157.308077 64.3404733,157.308077 C58.8167786,157.308077 55.1496336,153.606343 55.1496336,148.076821 L55.1496336,136.076188 C49.6259389,132.383685 45.9587939,126.844931 45.9587939,120.383052 C45.9587939,108.382419 56.9878015,100.074288 68.9358931,102.834434 C75.3602901,104.689916 80.8839847,110.22867 82.7221527,116.681318 C84.5511298,124.99868 79.9557099,132.383685 73.531313,136.076188 M119.485511,74.2267703 L36.7679542,74.2267703 L36.7679542,47.4561269 C36.7679542,33.6092424 45.9587939,21.6086092 58.8167786,18.8392323 C76.2885649,16.0698554 91.9129924,28.9936142 91.9129924,46.5330013 C91.9129924,52.0717551 96.5084122,55.7642576 101.103832,55.7642576 C105.699252,55.7642576 110.294672,52.0717551 110.294672,46.5330013 C110.294672,19.7623579 87.3175725,-2.39265729 59.7450534,0.376719605 C35.8396794,3.1460965 18.3862748,24.3779861 18.3862748,48.3792525 L18.3862748,74.2267703 L9.19543511,74.2267703 C4.60001527,74.2267703 0.00459541985,77.9192728 0.00459541985,83.4580266 L0.00459541985,175.77059 C0.00459541985,180.386218 4.60001527,185.001846 9.19543511,185.001846 L119.485511,185.001846 C125.000015,185.001846 128.676351,180.386218 128.676351,175.77059 L128.676351,83.4580266 C128.676351,77.9192728 125.000015,74.2267703 119.485511,74.2267703" id="Fill-1" fill="#04518C" mask="url(#mask-2)"></path>
                        </g>
                        <path d="M84.7087468,119.23002 C84.7087468,130.552542 75.7542192,139.734043 64.7213089,139.734043 C53.6786865,139.734043 44.733871,130.552542 44.733871,119.23002 C44.733871,107.917455 53.6786865,98.7359551 64.7213089,98.7359551 C75.7542192,98.7359551 84.7087468,107.917455 84.7087468,119.23002" id="Fill-4" fill="#00A1D9"></path>
                        <path d="M65.1607907,160.034066 L63.721201,160.034066 C58.4245974,160.034066 54.0967742,155.590618 54.0967742,150.182411 L54.0967742,132.492104 C54.0967742,127.074622 58.4245974,122.640449 63.721201,122.640449 L65.1607907,122.640449 C70.4483403,122.640449 74.7761635,127.074622 74.7761635,132.492104 L74.7761635,150.182411 C74.7761635,155.590618 70.4483403,160.034066 65.1607907,160.034066" id="Fill-6" fill="#00A1D9"></path>
                    </g>
                </g>
                <g id="Group-11" transform="translate(190.000000, 148.000000)">
                    <g id="Page-1">
                        <g id="Group-3">
                            <mask id="mask-4" fill="white">
                                <use xlink:href="#path-3"></use>
                            </mask>
                            <g id="Clip-2"></g>
                            <path d="M73.531313,136.076188 L73.531313,148.076821 C73.531313,153.606343 69.8549771,157.308077 64.3404733,157.308077 C58.8167786,157.308077 55.1496336,153.606343 55.1496336,148.076821 L55.1496336,136.076188 C49.6259389,132.383685 45.9587939,126.844931 45.9587939,120.383052 C45.9587939,108.382419 56.9878015,100.074288 68.9358931,102.834434 C75.3602901,104.689916 80.8839847,110.22867 82.7221527,116.681318 C84.5511298,124.99868 79.9557099,132.383685 73.531313,136.076188 M119.485511,74.2267703 L36.7679542,74.2267703 L36.7679542,47.4561269 C36.7679542,33.6092424 45.9587939,21.6086092 58.8167786,18.8392323 C76.2885649,16.0698554 91.9129924,28.9936142 91.9129924,46.5330013 C91.9129924,52.0717551 96.5084122,55.7642576 101.103832,55.7642576 C105.699252,55.7642576 110.294672,52.0717551 110.294672,46.5330013 C110.294672,19.7623579 87.3175725,-2.39265729 59.7450534,0.376719605 C35.8396794,3.1460965 18.3862748,24.3779861 18.3862748,48.3792525 L18.3862748,74.2267703 L9.19543511,74.2267703 C4.60001527,74.2267703 0.00459541985,77.9192728 0.00459541985,83.4580266 L0.00459541985,175.77059 C0.00459541985,180.386218 4.60001527,185.001846 9.19543511,185.001846 L119.485511,185.001846 C125.000015,185.001846 128.676351,180.386218 128.676351,175.77059 L128.676351,83.4580266 C128.676351,77.9192728 125.000015,74.2267703 119.485511,74.2267703" id="Fill-1" fill="#04518C" mask="url(#mask-4)"></path>
                        </g>
                        <path d="M84.7087468,119.23002 C84.7087468,130.552542 75.7542192,139.734043 64.7213089,139.734043 C53.6786865,139.734043 44.733871,130.552542 44.733871,119.23002 C44.733871,107.917455 53.6786865,98.7359551 64.7213089,98.7359551 C75.7542192,98.7359551 84.7087468,107.917455 84.7087468,119.23002" id="Fill-4" fill="#00A1D9"></path>
                        <path d="M65.1607907,160.034066 L63.721201,160.034066 C58.4245974,160.034066 54.0967742,155.590618 54.0967742,150.182411 L54.0967742,132.492104 C54.0967742,127.074622 58.4245974,122.640449 63.721201,122.640449 L65.1607907,122.640449 C70.4483403,122.640449 74.7761635,127.074622 74.7761635,132.492104 L74.7761635,150.182411 C74.7761635,155.590618 70.4483403,160.034066 65.1607907,160.034066" id="Fill-6" fill="#00A1D9"></path>
                    </g>
                </g>
                <g id="ego-illustration">
                    <g id="Group-9">
                        <g id="Group-13" transform="translate(218.960190, 175.243600) rotate(-1.000000) translate(-218.960190, -175.243600) translate(2.960190, 3.743600)">
                            <g id="Group" transform="translate(215.840893, 171.157365) rotate(68.000000) translate(-215.840893, -171.157365) translate(107.840893, -17.842635)" fill="#04518C">
                                <path d="M195.305993,332.701449 C182.94858,331.428624 171.897204,340.419805 170.624464,352.778053 C169.355424,365.140002 178.342298,376.192125 190.703412,377.46125 C203.064525,378.734076 214.112201,369.746595 215.384941,357.384646 C216.657681,345.022697 207.667107,333.974275 195.305993,332.701449 Z" id="Fill-13" transform="translate(193.005011, 355.081371) rotate(1.000000) translate(-193.005011, -355.081371) "></path>
                                <path d="M81.0541488,0.433119543 C75.011545,-0.187916268 69.6087464,4.20533706 68.9856682,10.2484128 C68.3646809,16.2914885 72.759682,21.6947092 78.8022857,22.315745 C84.8448895,22.9388718 90.2476882,18.5435275 90.8686755,12.5004517 C91.4896628,6.45737601 87.0967526,1.05415535 81.0541488,0.433119543 Z" id="Fill-15" transform="translate(79.927184, 11.374607) rotate(1.000000) translate(-79.927184, -11.374607) "></path>
                                <path d="M192.838916,363 C189.876614,362.825842 186.887009,362.586376 183.952009,362.2816 C130.69063,356.820125 82.7559357,331.01486 48.9693066,289.619764 C15.1826776,248.221947 -0.404220664,196.189629 5.07535627,143.106922 C10.6532216,89.082676 37.2402272,40.7430441 79.9410658,7 L81.6392706,9.13070996 C39.5172412,42.4165902 13.2906263,90.0976885 7.78920753,143.384486 C2.38334687,195.746071 17.7600172,247.068153 51.0852369,287.899957 C84.4104567,328.734483 131.695356,354.191433 184.230493,359.576714 C187.12727,359.876047 190.075921,360.110072 193,360.284229 L192.838916,363 Z" id="Fill-17" transform="translate(98.500000, 185.000000) rotate(1.000000) translate(-98.500000, -185.000000) "></path>
                            </g>
                            <path d="M105.488167,318.099409 C104.480612,319.949803 103.043115,321.395669 101.177683,322.437008 C99.3122514,323.479331 97.1715755,324 94.7566601,324 C93.018805,324 91.3623177,323.67126 89.7902118,323.014764 C88.2181058,322.358268 86.8619761,321.471457 85.7208181,320.354331 C84.5806646,319.23622 83.6745691,317.90748 83.0045405,316.366142 C82.334512,314.825787 82,313.202756 82,311.5 C82,309.79626 82.334512,308.174213 83.0045405,306.633858 C83.6745691,305.09252 84.5806646,303.76378 85.7208181,302.645669 C86.8619761,301.528543 88.2181058,300.640748 89.7902118,299.984252 C91.3623177,299.327756 93.018805,299 94.7566601,299 C98.0796802,299 100.931571,300.090551 103.312332,302.271654 L99.8406397,305.543307 C98.4784827,304.251969 96.7838229,303.606299 94.7566601,303.606299 C93.329208,303.606299 92.0082372,303.958661 90.7957568,304.66437 C89.5832764,305.369094 88.6219311,306.326772 87.9137301,307.537402 C87.2045245,308.747047 86.8499216,310.067913 86.8499216,311.5 C86.8499216,312.932087 87.2045245,314.253937 87.9137301,315.462598 C88.6219311,316.673228 89.5832764,317.629921 90.7957568,318.33563 C92.0082372,319.041339 93.329208,319.393701 94.7566601,319.393701 C95.721019,319.393701 96.6070237,319.26378 97.4156789,319.002953 C98.224334,318.742126 98.8883353,318.417323 99.4086873,318.026575 C99.9290393,317.635827 100.383092,317.190945 100.770844,316.691929 C101.157592,316.192913 101.443886,315.720472 101.625708,315.276575 C101.809539,314.831693 101.934102,314.40748 101.999397,314.00689 L94.7566601,314.00689 L94.7566601,309.709646 L106.801101,309.709646 C106.9337,310.436024 107,311.130906 107,311.793307 C107,314.146654 106.496725,316.25 105.488167,318.099409 M94.5,288 C81.521,288 71,298.521 71,311.5 C71,324.478 81.521,335 94.5,335 C107.478,335 118,324.478 118,311.5 C118,298.521 107.478,288 94.5,288" id="Fill-1" fill="#00A1D9"></path>
                        </g>
                        <g id="Group-14" transform="translate(163.000000, 300.000000)">
                            <g id="Group-12">
                                <g id="Group-2" transform="translate(103.519505, 82.793604) scale(1, -1) rotate(-66.000000) translate(-103.519505, -82.793604) translate(54.519505, -8.706396)" fill="#04518C">
                                    <path d="M97.1222143,165.080139 C99.1655097,153.653322 91.5607268,142.736106 80.1339524,140.692802 C68.7071779,138.649499 57.7900024,146.259211 55.746707,157.681128 C53.7034116,169.107945 61.3081945,180.025161 72.7349689,182.068464 C84.1617433,184.111767 95.0789189,176.506956 97.1222143,165.080139" id="Fill-19"></path>
                                    <path d="M6.46725822,0.0867942998 C3.47947565,-0.447777957 0.621366557,1.54231282 0.0867942998,4.53274178 C-0.447777957,7.52052435 1.54231282,10.3786334 4.53274178,10.9132057 C7.52317074,11.447778 10.3786334,9.45768718 10.9132057,6.46725822 C11.447778,3.47682926 9.45768718,0.621366557 6.46725822,0.0867942998 Z" id="Fill-22"></path>
                                    <path d="M77.6348993,157.944149 C80.764973,150.34476 83.0841468,142.336744 84.5275486,134.144982 C94.5908167,77.0357576 60.8303498,21.7886715 6,5.635515 L6.75413693,3 C62.9170657,19.5453299 97.4965414,76.1334845 87.1873004,134.627657 C85.7087595,143.016877 83.3355257,151.216866 80.127065,159 L77.6348993,157.944149 Z" id="Fill-25"></path>
                                </g>
                                <g id="Page-1" transform="translate(154.000000, 54.000000)">
                                    <mask id="mask-6" fill="white">
                                        <use xlink:href="#path-5"></use>
                                    </mask>
                                    <g id="Clip-2"></g>
                                </g>
                            </g>
                            <path d="M172.509855,97.870098 L172.509855,94.0356059 C166.412907,95.393159 165.117454,91.0108824 165.117454,91.0108824 C164.735949,89.6652376 163.894499,88.4982183 162.740476,87.7122665 C160.755699,86.3189883 162.894979,86.342805 162.894979,86.342805 C164.315224,86.5512013 165.557195,87.4097941 166.258403,88.6649353 C167.43263,90.9299055 170.214883,91.812315 172.475389,90.6369598 C172.531248,90.6071889 172.585918,90.577418 172.640589,90.5464563 C172.742799,89.408017 173.233645,88.3398371 174.031121,87.5217327 C169.158316,86.9620398 164.035929,85.020977 164.035929,76.3874156 C163.997897,74.1569796 164.804881,71.9956122 166.294058,70.3379684 C165.634446,68.3933331 165.715264,66.2724541 166.519871,64.3837881 C166.519871,64.3837881 168.362029,63.7764617 172.54551,66.6940101 C176.1395,65.6758452 179.943853,65.6758452 183.539032,66.6940101 C187.722513,63.7764617 189.564671,64.3837881 189.564671,64.3837881 C190.374032,66.2724541 190.448907,68.3957148 189.778599,70.3379684 C191.267776,71.9956122 192.073572,74.1569796 192.036728,76.3874156 C192.036728,85.0447937 186.902456,86.9501314 182.017767,87.5098243 C183.080276,88.6292102 183.61985,90.1487171 183.503378,91.6896589 L183.503378,97.870098 C183.503378,98.6084164 183.895579,99.1681093 185.012759,98.9537589 C194.066667,95.7527915 200.089929,87.1382835 199.998416,77.5187098 C200.143411,65.2269001 190.316985,55.1464728 178.05059,55.0011908 C178.013747,55 177.978093,55 177.941249,55 C165.67129,55.1571904 155.849617,65.2483351 156.001744,77.5425266 C155.911418,87.1704361 161.946565,95.7873258 171.012359,98.9775756 C172.105769,99.1323843 172.509855,98.4416993 172.509855,97.870098" id="Fill-1" fill="#00A1D9"></path>
                        </g>
                    </g>
                    <g id="Group-2" transform="translate(398.131616, 217.006649) rotate(-1.000000) translate(-398.131616, -217.006649) translate(339.631616, 123.006649)">
                        <g id="Group-16" transform="translate(0.000000, 0.000000)">
                            <path d="M41.0623337,29.9919851 C42.7310909,20.75032 36.5202726,11.9208046 27.1880377,10.2682427 C17.8558029,8.61568078 8.93975692,14.7701859 7.27099966,24.007888 C5.6022424,33.2495531 11.8130608,42.0790685 21.1452956,43.7316304 C30.4775304,45.3841923 39.3935764,39.2336502 41.0623337,29.9919851" id="Fill-19" fill="#04518C"></path>
                            <path d="M107.530663,177.086794 C104.513588,176.552222 101.627458,178.542313 101.087645,181.532742 C100.547832,184.520524 102.557434,187.378633 105.57718,187.913206 C108.596927,188.447778 111.480385,186.457687 112.020198,183.467258 C112.560011,180.476829 110.55041,177.621367 107.530663,177.086794 Z" id="Fill-22" fill="#04518C"></path>
                            <path d="M105.396026,181.944149 C108.556786,174.34476 110.898697,166.336744 112.35625,158.144982 C122.518178,101.035758 88.4267258,45.7886715 33.0588235,29.635515 L33.820354,27 C90.5338996,43.5453299 125.45239,100.133485 115.042078,158.627657 C113.549041,167.016877 111.152541,175.216866 107.912624,183 L105.396026,181.944149 Z" id="Fill-25" fill="#04518C"></path>
                            <path d="M29.88335,23.5 L26.1864407,23.5 L26.1864407,36 L20.7437687,36 L20.7437687,23.5 L18.1764706,23.5 L18.1764706,19.0708661 L20.7437687,19.0708661 L20.7437687,16.2165354 C20.7437687,14.2480315 21.667996,11 26.1864407,11 L30.1914257,11 L30.1914257,15.3307087 L27.3160518,15.3307087 C26.9052841,15.3307087 26.1864407,15.5275591 26.1864407,16.511811 L26.1864407,19.0708661 L30.2941176,19.0708661 L29.88335,23.5 Z M0,23.5 C0,36.4788542 10.6242943,47 23.7303922,47 C36.83649,47 47.4607843,36.4788542 47.4607843,23.5 C47.4607843,10.5211458 36.83649,-3.83693077e-13 23.7303922,-3.83693077e-13 C10.6242943,-3.83693077e-13 0,10.5211458 0,23.5 Z" id="Page-1" fill="#00A1D9"></path>
                        </g>
                    </g>
                </g>
            </g>
        </g>
    </g>
</svg>