<?xml version="1.0" encoding="UTF-8"?>
<svg width="389px" height="257px" viewBox="0 0 389 257" version="1.1" xmlns="http://www.w3.org/2000/svg" xmlns:xlink="http://www.w3.org/1999/xlink">
    <!-- Generator: Sketch 50 (54983) - http://www.bohemiancoding.com/sketch -->
    <title>Group 17</title>
    <desc>Created with Sketch.</desc>
    <defs>
        <polygon id="path-1" points="0 0 179.999818 0 179.999818 246 0 246"></polygon>
        <polygon id="path-3" points="0 246 180 246 180 0 0 0"></polygon>
        <polygon id="path-5" points="0.011658254 0.280051932 6.05345094 0.280051932 6.05345094 6.32183908 0.011658254 6.32183908"></polygon>
        <polygon id="path-7" points="0.264605229 0.248448276 6.14816418 0.248448276 6.14816418 6.13221086 0.264605229 6.13221086"></polygon>
    </defs>
    <g id="final" stroke="none" stroke-width="1" fill="none" fill-rule="evenodd">
        <g id="Jukebox" transform="translate(-833.000000, -441.000000)">
            <g id="Group-17" transform="translate(756.000000, 321.000000)">
                <g id="Group-18">
                    <g id="Group-9" transform="translate(269.000000, 258.500000) rotate(-34.000000) translate(-269.000000, -258.500000) translate(59.000000, 89.000000)" fill="#04518C">
                        <path d="M38.9607269,166.634499 C39.8940693,157.56907 33.300982,149.466894 24.2361653,148.533488 C15.1740618,147.600083 7.06971957,154.193615 6.13637717,163.256331 C5.20574798,172.32176 11.796122,180.42665 20.8609388,181.357342 C29.9257555,182.290748 38.0273845,175.699928 38.9607269,166.634499" id="Fill-13" transform="translate(22.548778, 164.945430) rotate(119.000000) translate(-22.548778, -164.945430) "></path>
                        <path d="M395.8378,243.013367 C396.656374,235.047495 390.86572,227.925067 382.900469,227.106429 C374.935219,226.287791 367.813348,232.078898 366.992018,240.04477 C366.173443,248.010643 371.966854,255.13307 379.932104,255.951708 C387.897355,256.773103 395.019226,250.97924 395.8378,243.013367" id="Fill-15" transform="translate(381.414925, 241.529298) rotate(119.000000) translate(-381.414925, -241.529298) "></path>
                        <path d="M312.751889,347.469506 C309.789586,347.295349 306.799982,347.055882 303.864982,346.751106 C250.603603,341.289631 202.668908,315.484366 168.882279,274.08927 C135.09565,232.691453 119.508752,180.659135 124.988329,127.576428 C130.566194,73.5521822 157.1532,25.2125503 199.854038,-8.53049381 L201.552243,-6.39978385 C159.430214,26.8860964 133.203599,74.5671947 127.70218,127.853992 C122.29632,180.215577 137.67299,231.537659 170.99821,272.369463 C204.323429,313.203989 251.608329,338.660939 304.143465,344.04622 C307.040242,344.345553 309.988893,344.579578 312.912973,344.753735 L312.751889,347.469506 Z" id="Fill-17" transform="translate(218.412973, 169.469506) rotate(119.000000) translate(-218.412973, -169.469506) "></path>
                    </g>
                    <g id="Group-4" transform="translate(244.500000, 243.000000) rotate(45.000000) translate(-244.500000, -243.000000) translate(102.000000, 73.000000)" fill="#04518C">
                        <path d="M212.102664,244.528011 C117.644756,234.916021 35.3640024,179.199115 -8,95.491572 L-5.06705736,94 C37.7888762,176.721866 119.09968,231.78274 212.439177,241.28376 C219.251612,241.976242 226.067011,242.420884 232.874349,242.618023 C253.884396,243.226468 274.817667,241.477251 295.350068,237.380215 L296,240.582036 C277.91407,244.188572 259.504824,246 241.016398,246 C231.389484,246 221.742775,245.510425 212.102664,244.528011 Z" id="Fill-11" transform="translate(144.000000, 170.000000) rotate(119.000000) translate(-144.000000, -170.000000) "></path>
                        <path d="M32,257 C32,248.167655 24.8390402,241 15.9956862,241 C7.16095983,241 0,248.167655 0,257 C0,265.832345 7.16095983,273 15.9956862,273 C24.8390402,273 32,265.832345 32,257" id="Fill-27"></path>
                    </g>
                    <g id="Group-15" transform="translate(183.000000, 120.000000)">
                        <g id="Page-1">
                            <g id="Group-3">
                                <mask id="mask-2" fill="white">
                                    <use xlink:href="#path-1"></use>
                                </mask>
                                <g id="Clip-2"></g>
                                <path d="M175.082545,234.668511 C175.603455,233.792478 175.908909,232.760189 175.908909,231.65 C175.908909,228.811433 173.938,226.463956 171.363455,226.033 L171.363455,156.285167 L171.363455,151.7 L171.363455,73.7703889 C171.363455,49.6756 158.656636,28.2808889 139.005273,14.8178556 C133.558455,16.1225667 125.908909,20.7277778 123.181636,29.9313667 L113.181636,26.8299444 C113.181636,26.8299444 127.737545,16.9393778 129.588909,9.25324444 C117.931182,3.36063333 104.511636,0 90.2270909,0 C75.943,0 62.5234545,3.36063333 50.8657273,9.25324444 C52.7170909,16.9393778 67.2725455,26.8299444 67.2725455,26.8299444 L57.2725455,29.9313667 C55.4543636,20.7277778 46.8957273,16.1225667 41.4493636,14.8178556 C21.7975455,28.2808889 9.09072727,49.6756 9.09072727,73.7703889 L9.09072727,151.7 L9.09072727,156.285167 L9.09072727,226.130033 C6.74254545,226.7464 4.99981818,228.9809 4.99981818,231.65 C4.99981818,232.736044 5.293,233.747833 5.793,234.611111 L5.68163636,234.611111 C2.54390909,234.611111 -0.000181818182,237.160856 -0.000181818182,240.305556 C-0.000181818182,243.450256 2.54390909,246 5.68163636,246 L174.318,246 C177.456182,246 179.999818,243.450256 179.999818,240.305556 C179.999818,237.421433 177.858,235.043433 175.082545,234.668511" id="Fill-1" fill="#04518C" mask="url(#mask-2)"></path>
                            </g>
                            <path d="M150,202.600948 C150,210.001043 143.815519,216 136.18531,216 L45.8146899,216 C38.1844806,216 32,210.001043 32,202.600948 L32,134.399052 C32,126.998507 38.1844806,121 45.8146899,121 L136.18531,121 C143.815519,121 150,126.998507 150,134.399052 L150,202.600948 Z" id="Fill-4" fill="#F2F3F5"></path>
                            <path d="M150,66.2707182 C150,43.4773591 127.450566,25 99.634124,25 L82.365876,25 C54.5494341,25 32,43.4773591 32,66.2707182 C32,66.439011 32.0054884,66.6063867 32.0082326,66.774221 C32.0054884,66.8755635 32,66.975989 32,67.0777901 L32,94.3531492 C32,101.890099 38.1844806,108 45.8146899,108 L136.18531,108 C143.815519,108 150,101.890099 150,94.3531492 L150,67.0777901 C150,66.975989 149.994512,66.8755635 149.992225,66.774221 C149.994512,66.6063867 150,66.439011 150,66.2707182" id="Fill-6" fill="#00A1D9"></path>
                            <mask id="mask-4" fill="white">
                                <use xlink:href="#path-3"></use>
                            </mask>
                            <g id="Clip-9"></g>
                            <polygon id="Fill-8" fill="#04518C" mask="url(#mask-4)" points="37 103 42 103 42 67 37 67"></polygon>
                            <polygon id="Fill-10" fill="#04518C" mask="url(#mask-4)" points="47 103 52 103 52 67 47 67"></polygon>
                            <polygon id="Fill-11" fill="#04518C" mask="url(#mask-4)" points="55 103 60 103 60 67 55 67"></polygon>
                            <polygon id="Fill-12" fill="#04518C" mask="url(#mask-4)" points="65 103 70 103 70 67 65 67"></polygon>
                            <polygon id="Fill-13" fill="#04518C" mask="url(#mask-4)" points="74 103 79 103 79 67 74 67"></polygon>
                            <polygon id="Fill-14" fill="#04518C" mask="url(#mask-4)" points="83 103 88 103 88 67 83 67"></polygon>
                            <polygon id="Fill-15" fill="#04518C" mask="url(#mask-4)" points="92 103 97 103 97 67 92 67"></polygon>
                            <polygon id="Fill-16" fill="#04518C" mask="url(#mask-4)" points="101 103 106 103 106 67 101 67"></polygon>
                            <polygon id="Fill-17" fill="#04518C" mask="url(#mask-4)" points="109 103 114 103 114 67 109 67"></polygon>
                            <polygon id="Fill-18" fill="#04518C" mask="url(#mask-4)" points="120 103 125 103 125 67 120 67"></polygon>
                            <polygon id="Fill-19" fill="#04518C" mask="url(#mask-4)" points="128 103 133 103 133 67 128 67"></polygon>
                            <polygon id="Fill-20" fill="#04518C" mask="url(#mask-4)" points="138 103 143 103 143 67 138 67"></polygon>
                        </g>
                        <g id="Page-1" transform="translate(35.000000, 150.000000)">
                            <path d="M59.2013318,29.1011229 C89.4951453,23.2189762 112.14443,14.5687605 109.838436,9.75609496 C107.500853,4.94342947 81.0924817,5.79272338 50.7986682,11.6748701 C20.5048547,17.5570168 -2.14443028,26.2072326 0.16156387,31.0198981 C2.46755802,35.832249 28.9075183,34.9832696 59.2013318,29.1011229 Z" id="Stroke-1" stroke="#000000" stroke-width="1.465"></path>
                            <path d="M59.2013318,29.1011229 C89.4951453,23.2189762 112.14443,14.5687605 109.838436,9.75609496 C107.500853,4.94342947 81.0924817,5.79272338 50.7986682,11.6748701 C20.5048547,17.5570168 -2.14443028,26.2072326 0.16156387,31.0198981 C2.46755802,35.832249 28.9075183,34.9832696 59.2013318,29.1011229 Z" id="Stroke-3" stroke="#000000" stroke-width="1.465"></path>
                            <path d="M56.8965517,37.8649854 C49.147878,37.8649854 42.4071618,35.0969006 38.8793103,30.9770115 C41.5251989,38.3367645 48.6124005,43.6206897 56.8965517,43.6206897 C65.1807029,43.6206897 72.2364058,38.3367645 74.9137931,30.9770115 C71.3859416,35.0969006 64.6452255,37.8649854 56.8965517,37.8649854" id="Fill-5" fill="#E46E2E"></path>
                            <path d="M56.8965517,10.8131755 C64.6455405,10.8131755 71.3859416,13.5809458 74.9137931,17.7011494 C72.2682195,10.3413965 65.1810179,5.05747126 56.8965517,5.05747126 C48.6124005,5.05747126 41.5566976,10.3413965 38.8793103,17.7011494 C42.4071618,13.5809458 49.147878,10.8131755 56.8965517,10.8131755" id="Fill-7" fill="#E46E2E"></path>
                            <g id="Group-11" transform="translate(40.143678, 41.408046)">
                                <mask id="mask-6" fill="white">
                                    <use xlink:href="#path-5"></use>
                                </mask>
                                <g id="Clip-10"></g>
                                <path d="M3.17479598,6.31962644 C1.49950862,6.38284483 0.108704023,5.08686782 0.0138764368,3.44318966 C-0.049341954,1.7679023 1.24663506,0.377097701 2.89031322,0.282270115 C4.56560057,0.219051724 5.95640517,1.51502874 6.05123276,3.1587069 C6.11445115,4.83399425 4.81847414,6.25640805 3.17479598,6.31962644" id="Fill-9" fill="#767474" mask="url(#mask-6)"></path>
                            </g>
                            <path d="M40.8555103,8.53355962 C39.8041533,8.56541892 38.9120928,7.76893633 38.8802335,6.71757929 C38.8483742,5.66622226 39.6448568,4.77416175 40.6962138,4.74230245 C41.7475708,4.71044314 42.6396314,5.50692574 42.6714907,6.55828277 C42.70335,7.60963981 41.9068674,8.46984101 40.8555103,8.53355962" id="Fill-12" fill="#767474"></path>
                            <g id="Group-16" transform="translate(67.643678, 0.000000)">
                                <mask id="mask-8" fill="white">
                                    <use xlink:href="#path-7"></use>
                                </mask>
                                <g id="Clip-15"></g>
                                <path d="M3.33296839,6.12993966 C1.72058333,6.19315805 0.361704023,4.92879023 0.266876437,3.31672126 C0.203658046,1.7046523 1.46802586,0.313847701 3.07977874,0.25062931 C4.69216379,0.18741092 6.0513592,1.45177874 6.14587069,3.0638477 C6.20940517,4.67591667 4.94503736,6.06672126 3.33296839,6.12993966" id="Fill-14" fill="#767474" mask="url(#mask-8)"></path>
                            </g>
                            <path d="M21.7981874,26.6333892 C21.7981874,28.3771792 21.6766136,28.9478741 21.3118921,29.3603597 C21.0079576,29.7088006 20.4912688,29.867327 19.9137931,29.9307375 L20.0353669,30.9770115 C20.704023,30.9770115 21.6462202,30.7233693 22.2236958,30.1529915 C22.8619584,29.4868637 23.0747126,28.5677279 23.0747126,27.1723789 L23.0747126,20.545977 L21.7981874,20.545977 L21.7981874,26.6333892" id="Fill-17" fill="#313940"></path>
                            <path d="M31.8611062,25.9370262 C31.8611062,26.7117877 31.8611062,27.3897041 31.9252874,27.9707753 L30.7379369,27.9707753 L30.6737558,26.7440695 L30.6416652,26.7440695 C30.2886691,27.3574224 29.5184958,28.1321839 28.1706926,28.1321839 C27.0154326,28.1321839 25.6034483,27.4865493 25.6034483,24.871729 L25.6034483,20.545977 L26.9512515,20.545977 L26.9512515,24.6457569 C26.9512515,26.0661531 27.3684287,27.0023233 28.6199603,27.0023233 C29.5184958,27.0023233 30.1603069,26.3889704 30.3849408,25.7756175 C30.4491219,25.5819271 30.513303,25.3239961 30.513303,25.0977011 L30.513303,20.545977 L31.8611062,20.545977 L31.8611062,25.9370262" id="Fill-19" fill="#313940"></path>
                            <path d="M35.4909762,25.0481256 C35.4909762,25.2383573 35.5224424,25.4285889 35.5539086,25.5871153 C35.8056379,26.5065681 36.5922921,27.1406736 37.5362771,27.1406736 C38.9207885,27.1406736 39.7389088,25.9992838 39.7389088,24.3189044 C39.7389088,22.8604619 38.9837208,21.6239563 37.5677433,21.6239563 C36.6552244,21.6239563 35.8371041,22.2580617 35.5539086,23.2726304 C35.5224424,23.4311568 35.4595101,23.6213884 35.4595101,23.81162 L35.4595101,25.0481256 L35.4909762,25.0481256 Z M34.2008634,23.114104 C34.2008634,22.1946512 34.1693972,21.4337246 34.137931,20.7362086 L35.3336454,20.7362086 L35.3965777,21.9727143 L35.4280439,21.9727143 C35.9629687,21.0849666 36.8125553,20.545977 38.0082696,20.545977 C39.770375,20.545977 41.091954,22.0361248 41.091954,24.2554938 C41.091954,26.8870314 39.4871795,28.1552423 37.7880064,28.1552423 C36.8125553,28.1552423 35.9944349,27.7430738 35.5539086,27.0138525 L35.5224424,27.0138525 L35.5224424,30.9770115 L34.2008634,30.9770115 L34.2008634,23.114104 Z" id="Fill-21" fill="#313940"></path>
                            <path d="M43.5326458,20.545977 L45.1520758,24.9089895 C45.3108434,25.3902042 45.5013646,25.9676617 45.6283787,26.4167953 L45.6601323,26.4167953 C45.7871464,25.9676617 45.945914,25.4222851 46.1364352,24.8769086 L47.5970976,20.545977 L48.9942529,20.545977 L46.9937805,25.8072568 C46.0411746,28.3416538 45.3743505,29.6248928 44.4852517,30.4269171 C43.8184275,31.0043747 43.183357,31.2289415 42.8340681,31.2931034 L42.4847793,30.1702693 C42.8340681,30.0740264 43.246864,29.8494596 43.6596599,29.5286499 C44.0089487,29.2399211 44.4852517,28.7266255 44.7710334,28.0208441 C44.8345405,27.8925202 44.866294,27.7641963 44.866294,27.7000343 C44.866294,27.6358724 44.8345405,27.5075485 44.7710334,27.3471436 L42.0402299,20.545977 L43.5326458,20.545977" id="Fill-23" fill="#313940"></path>
                            <path d="M52.7315754,18.6494253 L52.7315754,20.7287013 L54.683908,20.7287013 L54.683908,21.7368351 L52.7315754,21.7368351 L52.7315754,25.6433536 C52.7315754,26.5254707 52.9918864,27.0610417 53.7728195,27.0610417 C54.1307471,27.0610417 54.3910581,27.0295376 54.5537525,26.9665292 L54.6188303,27.9431588 C54.3585193,28.0376714 53.9355139,28.1321839 53.4148918,28.1321839 C52.7641143,28.1321839 52.2760311,27.9431588 51.9506423,27.5651086 C51.5601758,27.1870585 51.4300203,26.5254707 51.4300203,25.6748578 L51.4300203,21.7368351 L50.2586207,21.7368351 L50.2586207,20.7287013 L51.4300203,20.7287013 L51.4300203,18.9959713 L52.7315754,18.6494253" id="Fill-25" fill="#313940"></path>
                            <path d="M60.9422049,23.6436782 C60.9422049,22.7902299 60.5860233,21.4942529 59.0641562,21.4942529 C57.6718096,21.4942529 57.0892907,22.7270115 56.9594463,23.6436782 L60.9422049,23.6436782 Z M56.9594463,24.591954 C56.9921503,26.3936782 58.1575119,27.1206897 59.5178021,27.1206897 C60.4892066,27.1206897 61.0717255,26.9626437 61.589808,26.7413793 L61.816469,27.6896552 C61.3307668,27.9109195 60.521263,28.1321839 59.3231974,28.1321839 C57.0242066,28.1321839 55.6321839,26.6465517 55.6321839,24.4655172 C55.6321839,22.2844828 56.9594463,20.545977 59.1612966,20.545977 C61.6225119,20.545977 62.2701149,22.6321839 62.2701149,23.9597701 C62.2701149,24.2442529 62.237411,24.433908 62.237411,24.5603448 L56.9594463,24.5603448 L56.9594463,24.591954 Z" id="Fill-27" fill="#313940"></path>
                            <path d="M63.9159787,22.9282012 C63.9159787,22.0928758 63.9159787,21.3813024 63.8505747,20.7006669 L65.0605482,20.7006669 L65.0932502,22.0928758 L65.1586542,22.0928758 C65.518049,21.1337986 66.3355987,20.545977 67.2512543,20.545977 C67.4147643,20.545977 67.5131972,20.545977 67.6436782,20.576915 L67.6436782,21.783496 C67.5131972,21.7525581 67.3496873,21.7525581 67.1861774,21.7525581 C66.2051178,21.7525581 65.518049,22.4331935 65.3545391,23.4232088 C65.3221641,23.6088366 65.2891351,23.7944645 65.2891351,24.0110303 L65.2891351,27.816092 L63.9159787,27.816092 L63.9159787,22.9282012" id="Fill-29" fill="#313940"></path>
                            <path d="M87.7862163,23.7889499 C87.7862163,23.5670329 87.8177823,23.4085207 87.8493482,23.2500085 C88.1018759,22.2672329 88.9541566,21.6331841 89.8380034,21.6331841 C91.2265897,21.6331841 91.9529223,22.8695792 91.9529223,24.2961889 C91.9529223,25.9447157 91.1322075,27.054301 89.7748715,27.054301 C88.8278928,27.054301 88.0699943,26.4202523 87.8177823,25.532584 C87.7862163,25.3740718 87.7543347,25.2155596 87.7543347,25.0570474 L87.7543347,23.7889499 L87.7862163,23.7889499 Z M87.5652547,27.9419693 L87.6283866,26.7689791 L87.6599525,26.7689791 C88.1965737,27.7200522 89.0169729,28.1321839 90.058965,28.1321839 C91.6688287,28.1321839 93.2471264,26.8640864 93.2471264,24.2961889 C93.2471264,22.1087207 92.0157386,20.6504086 90.2483608,20.6504086 C89.1119864,20.6504086 88.2597056,21.1576476 87.8177823,21.981911 L87.7862163,21.981911 L87.7862163,17.4801648 L86.4916965,17.4801648 L86.4916965,26.1666328 C86.4916965,26.8006815 86.4604462,27.5298376 86.4288803,28.0053742 L87.5652547,28.0053742 L87.5652547,27.9419693 Z M84.3455273,20.7772183 L83.0513232,20.7772183 L83.0513232,25.1838572 C83.0513232,25.4057743 83.0194416,25.6593938 82.9250594,25.8496084 C82.703782,26.4202523 82.0724629,27.0225986 81.2204978,27.0225986 C80.0525575,27.0225986 79.6106341,26.1032279 79.6106341,24.7400231 L79.6106341,20.7772183 L78.31643,20.7772183 L78.31643,24.9619401 C78.31643,27.4664327 79.6737661,28.1004815 80.7785745,28.1004815 C82.0412126,28.1004815 82.7987955,27.339623 83.146021,26.7689791 L83.1772713,26.7689791 L83.2407189,27.9419693 L84.3770933,27.9419693 C84.3455273,27.3713254 84.3139614,26.7372766 84.3139614,25.9764181 L84.3139614,20.7772183 L84.3455273,20.7772183 Z M70.1724138,27.9419693 L71.4666179,27.9419693 L71.4666179,23.5987353 C71.4666179,23.3451158 71.4666179,23.1549012 71.5613158,22.9646865 C71.7822775,22.2672329 72.4767285,21.6648866 73.2974433,21.6648866 C74.5285155,21.6648866 74.9388729,22.6476622 74.9388729,23.7889499 L74.9388729,27.9102668 L76.2327614,27.9102668 L76.2327614,23.6304377 C76.2327614,21.1576476 74.6863453,20.5553013 73.7393666,20.5553013 C73.2658773,20.5553013 72.792388,20.7138134 72.4135966,20.9357305 C72.0032391,21.1576476 71.6875796,21.474672 71.4978682,21.8551012 L71.4666179,21.8551012 L71.4666179,17.3850575 L70.1724138,17.3850575 L70.1724138,27.9419693 Z" id="Fill-31" fill="#999999"></path>
                        </g>
                    </g>
                </g>
                <path d="M434,281 C434,273.269749 427.732435,267 419.998593,267 C412.267565,267 406,273.269749 406,281 C406,288.730251 412.267565,295 419.998593,295 C427.732435,295 434,288.730251 434,281" id="Fill-29" fill="#04518C" transform="translate(420.000000, 281.000000) rotate(119.000000) translate(-420.000000, -281.000000) "></path>
            </g>
        </g>
    </g>
</svg>