<?xml version="1.0" encoding="UTF-8"?>
<svg width="394px" height="388px" viewBox="0 0 394 388" version="1.1" xmlns="http://www.w3.org/2000/svg" xmlns:xlink="http://www.w3.org/1999/xlink">
    <!-- Generator: Sketch 54.1 (76490) - https://sketchapp.com -->
    <title>THE THING</title>
    <desc>Created with Sketch.</desc>
    <defs>
        <polygon id="path-1" points="307 -1.16415322e-10 318 -1.16415322e-10 318 11 307 11 307 -1.16415322e-10"></polygon>
        <polygon id="path-3" points="0.000646226415 0.230810862 273.632297 0.230810862 273.632297 272 0.000646226415 272"></polygon>
        <polygon id="path-5" points="0 272 274 272 274 1 0 1"></polygon>
    </defs>
    <g id="final" stroke="none" stroke-width="1" fill="none" fill-rule="evenodd">
        <g id="Maestro" transform="translate(-820.000000, -308.000000)">
            <g id="THE-THING" transform="translate(1002.727182, 523.341613) scale(-1, 1) rotate(-89.000000) translate(-1002.727182, -523.341613) translate(787.227182, 301.341613)">
                <g id="Group-16" transform="translate(0.220221, 11.000000)" fill="#04518C">
                    <g id="Group" transform="translate(146.000000, 221.701350) rotate(-13.000000) translate(-146.000000, -221.701350) translate(41.000000, 29.701350)">
                        <path d="M207.102155,371.893747 C208.035497,362.828318 201.44241,354.726142 192.377593,353.792736 C183.315489,352.859331 175.211147,359.452864 174.277805,368.515579 C173.347176,377.581009 179.93755,385.685898 189.002366,386.61659 C198.067183,387.549996 206.168812,380.959177 207.102155,371.893747" id="Fill-13" transform="translate(190.690206, 370.204679) rotate(2.000000) translate(-190.690206, -370.204679) "></path>
                        <path d="M99.9228753,16.9840686 C100.741449,9.01819605 94.9507951,1.89576882 86.9855447,1.07713071 C79.0202943,0.258492592 71.8984233,6.04959925 71.077093,14.0154718 C70.2585188,21.9813444 76.0519293,29.1037716 84.0171798,29.9224097 C91.9824302,30.7438042 99.1043011,24.9499412 99.9228753,16.9840686" id="Fill-15" transform="translate(85.500000, 15.500000) rotate(2.000000) translate(-85.500000, -15.500000) "></path>
                        <path d="M195.838916,371 C192.876614,370.825842 189.887009,370.586376 186.952009,370.2816 C133.69063,364.820125 85.7559357,339.01486 51.9693066,297.619764 C18.1826776,256.221947 2.59577934,204.189629 8.07535627,151.106922 C13.6532216,97.082676 40.2402272,48.7430441 82.9410658,15 L84.6392706,17.13071 C42.5172412,50.4165902 16.2906263,98.0976885 10.7892075,151.384486 C5.38334687,203.746071 20.7600172,255.068153 54.0852369,295.899957 C87.4104567,336.734483 134.695356,362.191433 187.230493,367.576714 C190.12727,367.876047 193.075921,368.110072 196,368.284229 L195.838916,371 Z" id="Fill-17" transform="translate(101.500000, 193.000000) rotate(2.000000) translate(-101.500000, -193.000000) "></path>
                    </g>
                    <path d="M429.729723,187.414212 C430.896233,180.890683 426.55469,174.658084 420.031186,173.49157 C413.507682,172.325056 407.275106,176.669412 406.108596,183.190143 C404.942086,189.713671 409.283629,195.946271 415.807133,197.112785 C422.330637,198.279299 428.563213,193.93774 429.729723,187.414212" id="Fill-19"></path>
                    <path d="M416.551427,185.243234 C419.681501,177.643846 422.000675,169.63583 423.444077,161.444068 C433.507345,104.334843 399.746878,49.0877572 344.916528,32.9346008 L345.670665,30.2990858 C401.833594,46.8444157 436.413069,103.43257 426.103828,161.926743 C424.625288,170.315963 422.252054,178.515952 419.043593,186.299086 L416.551427,185.243234 Z" id="Fill-25"></path>
                    <path d="M208.779779,5.5 C208.779779,2.4638814 206.318199,-7.27595761e-12 203.278296,-7.27595761e-12 C200.241359,-7.27595761e-12 197.779779,2.4638814 197.779779,5.5 C197.779779,8.5361186 200.241359,11 203.278296,11 C206.318199,11 208.779779,8.5361186 208.779779,5.5" id="Fill-27"></path>
                    <path d="M362.779779,305 C362.779779,300.030553 358.750631,296 353.778875,296 C348.808928,296 344.779779,300.030553 344.779779,305 C344.779779,309.969447 348.808928,314 353.778875,314 C358.750631,314 362.779779,309.969447 362.779779,305 Z" id="Fill-29"></path>
                </g>
                <mask id="mask-2" fill="white">
                    <use xlink:href="#path-1"></use>
                </mask>
                <g id="Clip-23"></g>
                <path d="M350.052586,44.7694804 C350.587158,41.7790514 348.597068,38.9235887 345.606639,38.3890165 C342.618856,37.8544442 339.760747,39.844535 339.226175,42.8349639 C338.691603,45.8227465 340.681693,48.6808556 343.672122,49.2154279 C346.662551,49.7500001 349.518014,47.7599093 350.052586,44.7694804" id="Fill-22" fill="#04518C"></path>
                <g id="Group-8" transform="translate(93.000000, 57.000000)">
                    <path d="M235,136.999353 C235,191.123517 191.124811,235 137.000647,235 C82.8764831,235 39,191.123517 39,136.999353 C39,82.875189 82.8764831,39 137.000647,39 C191.124811,39 235,82.875189 235,136.999353" id="Fill-1" fill="#119FD6"></path>
                    <g id="Group-5">
                        <mask id="mask-4" fill="white">
                            <use xlink:href="#path-3"></use>
                        </mask>
                        <g id="Clip-4"></g>
                        <path d="M134.396354,272.000259 C124.079995,272.000259 115.685514,263.587688 115.685514,253.247802 C115.685514,243.837897 122.641495,236.050926 131.670571,234.719421 L131.670571,216.926735 L125.53659,216.926735 C124.534939,216.926735 123.667703,216.341288 123.136505,215.490316 C122.447627,214.391954 122.959439,213.14464 123.259288,212.691307 L132.119052,199.211764 C132.298703,198.939764 133.047033,197.71965 134.396354,197.71965 C135.65908,197.71965 136.495297,198.939764 136.673656,199.211764 L145.530835,212.691307 C146.082712,213.531916 146.129241,214.606964 145.65491,215.490316 C145.18058,216.374964 144.256476,216.926735 143.254825,216.926735 L137.123429,216.926735 L137.123429,234.719421 C146.148627,236.050926 153.108486,243.837897 153.108486,253.247802 C153.108486,263.587688 144.712712,272.000259 134.396354,272.000259 L134.396354,272.000259 Z M273.632297,140.432564 C273.632297,151.341059 264.777703,160.214735 253.892665,160.214735 C243.987307,160.214735 235.787986,152.860373 234.386967,143.315764 L215.658033,143.315764 L215.658033,149.801021 C215.658033,150.85923 215.040241,151.776259 214.143278,152.338392 C212.99041,153.066316 211.675986,152.523611 211.197778,152.207573 L197.007939,142.840411 C196.722307,142.651307 195.437608,141.859916 195.437608,140.432564 C195.437608,139.099764 196.722307,138.213821 197.007939,138.026011 L211.197778,128.660145 C212.083108,128.078583 213.214005,128.029364 214.143278,128.530621 C215.076429,129.031878 215.658033,130.009783 215.658033,131.067992 L215.658033,137.550659 L234.386967,137.550659 C235.787986,128.00864 243.987307,120.650392 253.892665,120.650392 C264.777703,120.650392 273.632297,129.525364 273.632297,140.432564 L273.632297,140.432564 Z M153.977014,20.0103924 C153.977014,29.9370971 146.639759,38.1566781 137.115675,39.5581257 L137.115675,59.0877257 L143.429307,59.0877257 C144.445175,59.0877257 145.388665,59.6239543 145.905646,60.5021257 C146.425212,61.3790019 146.442014,62.4670019 145.952175,63.359421 L136.605156,80.4125257 C136.388024,80.8101638 135.598335,82.3968305 134.07841,82.3968305 C132.559778,82.3968305 131.772675,81.1119543 131.56459,80.7324495 L122.216278,63.3620114 C121.727731,62.4682971 121.744533,61.3841829 122.262807,60.5060114 C122.78108,59.6304305 123.720693,59.0903162 124.739146,59.0903162 L131.364259,59.0903162 L131.364259,39.559421 C121.842759,38.1566781 114.500335,29.9370971 114.500335,20.0129829 C114.500335,9.10578286 123.356222,0.230811429 134.241259,0.230811429 C145.12242,0.228220952 153.977014,9.10189714 153.977014,20.0103924 L153.977014,20.0103924 Z M62.6199858,152.207573 C62.1391934,152.523611 60.8661274,153.112945 59.6744858,152.338392 C58.7852783,151.763307 58.1610236,150.85923 58.1610236,149.801021 L58.1610236,143.315764 L39.244684,143.315764 C37.8449575,152.857783 29.6456368,160.214735 19.7402783,160.214735 C8.85524057,160.214735 0.000646226415,151.341059 0.000646226415,140.432564 C0.000646226415,129.525364 8.85524057,120.650392 19.7402783,120.650392 C29.6430519,120.650392 37.8449575,128.00605 39.244684,137.550659 L58.1610236,137.550659 L58.1610236,131.067992 C58.1610236,130.009783 58.7426274,129.031878 59.6744858,128.530621 C60.6050519,128.029364 61.7372406,128.078583 62.6199858,128.660145 L76.8059481,138.026011 C77.0347123,138.176259 78.3517217,139.002621 78.3517217,140.27325 C78.3517217,141.923383 77.0579764,142.674621 76.8059481,142.840411 L62.6199858,152.207573 Z" id="Fill-3" fill="#113154" mask="url(#mask-4)"></path>
                    </g>
                    <mask id="mask-6" fill="white">
                        <use xlink:href="#path-5"></use>
                    </mask>
                    <g id="Clip-7"></g>
                    <path d="M110.60631,167.027966 L163.405347,167.027966 L163.405347,160.563595 L110.60631,160.563595 L110.60631,167.027966 Z M110.60631,149.300503 L163.405347,149.300503 L163.405347,142.86445 L110.60631,142.86445 L110.60631,149.300503 Z M110.60631,132.593797 L163.405347,132.593797 L163.405347,126.139723 L110.60631,126.139723 L110.60631,132.593797 Z M155.231107,93.2308985 L175.589641,112.504302 L160.026074,112.504302 C157.365658,112.504302 155.225926,110.476945 155.225926,107.961736 L155.231107,93.2308985 Z M99.800148,90 C97.1410266,90 95,92.0273566 95,94.5438532 L95,180.456147 C95,182.972643 97.1410266,185 99.800148,185 L174.199852,185 C176.860269,185 179,182.972643 179,180.456147 L179,109.278552 L158.644057,90.0051488 L99.800148,90 Z" id="Fill-6" fill="#113154" mask="url(#mask-6)"></path>
                </g>
            </g>
        </g>
    </g>
</svg>