<?xml version="1.0" encoding="UTF-8"?>
<svg width="405px" height="389px" viewBox="0 0 405 389" version="1.1" xmlns="http://www.w3.org/2000/svg" xmlns:xlink="http://www.w3.org/1999/xlink">
    <!-- Generator: Sketch 50.2 (55047) - http://www.bohemiancoding.com/sketch -->
    <title>Group 3</title>
    <desc>Created with Sketch.</desc>
    <defs>
        <polygon id="path-1" points="308 0 319 0 319 11 308 11 308 0"></polygon>
        <polygon id="path-3" points="0.000226136364 0.139910959 197.891932 0.139910959 197.891932 4.52032192 0.000226136364 4.52032192"></polygon>
        <polygon id="path-5" points="0.9974875 0.976247347 21.4334307 0.976247347 21.4334307 21.3953364 0.9974875 21.3953364"></polygon>
    </defs>
    <g id="final" stroke="none" stroke-width="1" fill="none" fill-rule="evenodd">
        <g id="OncoJS" transform="translate(-842.000000, -346.000000)">
            <g id="Group-3" transform="translate(770.000000, 243.000000)">
                <g id="Page-1" transform="translate(300.000000, 299.000000) scale(-1, 1) rotate(40.000000) translate(-300.000000, -299.000000) translate(84.000000, 90.000000)">
                    <path d="M266.9549,335.471827 C267.43406,330.254045 264.040666,325.586426 259.369513,325.050894 C254.700979,324.512435 250.524696,328.307984 250.045536,333.528693 C249.563758,338.746476 252.95977,343.411168 257.630923,343.949627 C262.299457,344.485159 266.47574,340.68961 266.9549,335.471827" id="Fill-7" fill="#04518C"></path>
                    <path d="M20.9441649,217.575189 C21.5369285,211.805632 17.3424206,206.648597 11.5756779,206.055834 C5.80611246,205.463072 0.649069407,209.657573 0.0563058379,215.42713 C-0.539280415,221.193864 3.65805019,226.3509 9.42479291,226.943662 C15.1943583,227.539248 20.3514014,223.344746 20.9441649,217.575189" id="Fill-9" fill="#04518C"></path>
                    <path d="M213.602355,342 C205.653817,342 197.688936,341.594168 189.729502,340.779799 C111.739584,332.811965 43.8038309,286.625582 8,217.236435 L10.4216072,216 C45.8059471,284.572073 112.940854,330.21464 190.007347,338.090485 C212.992186,340.436194 236.017885,339.35127 258.463378,334.854652 L259,337.508793 C244.067209,340.498422 228.86747,342 213.602355,342" id="Fill-11" fill="#04518C"></path>
                    <path d="M245.911949,403.189069 C246.845291,394.12364 240.252204,386.021463 231.187387,385.088058 C222.125284,384.154652 214.020942,390.748185 213.087599,399.810901 C212.15697,408.87633 218.747344,416.98122 227.812161,417.911912 C236.876977,418.845317 244.978606,412.254498 245.911949,403.189069" id="Fill-13" fill="#04518C"></path>
                    <path d="M136.922875,51.9840686 C137.741449,44.018196 131.950795,36.8957688 123.985545,36.0771307 C116.020294,35.2584926 108.898423,41.0495992 108.077093,49.0154718 C107.258519,56.9813444 113.051929,64.1037716 121.01718,64.9224097 C128.98243,65.7438042 136.104301,59.9499412 136.922875,51.9840686" id="Fill-15" fill="#04518C"></path>
                    <path d="M232.838916,406 C229.876614,405.825842 226.887009,405.586376 223.952009,405.2816 C170.69063,399.820125 122.755936,374.01486 88.9693066,332.619764 C55.1826776,291.221947 39.5957793,239.189629 45.0753563,186.106922 C50.6532216,132.082676 77.2402272,83.7430441 119.941066,50 L121.639271,52.13071 C79.5172412,85.4165902 53.2906263,133.097688 47.7892075,186.384486 C42.3833469,238.746071 57.7600172,290.068153 91.0852369,330.899957 C124.410457,371.734483 171.695356,397.191433 224.230493,402.576714 C227.12727,402.876047 230.075921,403.110072 233,403.284229 L232.838916,406 Z" id="Fill-17" fill="#04518C"></path>
                    <path d="M430.949944,198.414212 C432.116454,191.890683 427.774911,185.658084 421.251407,184.49157 C414.727903,183.325056 408.495327,187.669412 407.328817,194.190143 C406.162307,200.713671 410.50385,206.946271 417.027354,208.112785 C423.550858,209.279299 429.783434,204.93774 430.949944,198.414212" id="Fill-19" fill="#04518C"></path>
                    <mask id="mask-2" fill="white">
                        <use xlink:href="#path-1"></use>
                    </mask>
                    <g id="Clip-23"></g>
                    <path d="M351.052586,44.7694804 C351.587158,41.7790514 349.597068,38.9235887 346.606639,38.3890165 C343.618856,37.8544442 340.760747,39.844535 340.226175,42.8349639 C339.691603,45.8227465 341.681693,48.6808556 344.672122,49.2154279 C347.662551,49.7500001 350.518014,47.7599093 351.052586,44.7694804" id="Fill-22" fill="#04518C"></path>
                    <path d="M417.771648,196.243234 C420.901722,188.643846 423.220895,180.63583 424.664297,172.444068 C434.727565,115.334843 400.967099,60.0877572 346.136749,43.9346008 L346.890886,41.2990858 C403.053814,57.8444157 437.63329,114.43257 427.324049,172.926743 C425.845508,181.315963 423.472274,189.515952 420.263814,197.299086 L417.771648,196.243234 Z" id="Fill-25" fill="#04518C"></path>
                    <path d="M246.394302,40.8454199 C246.394302,37.8093013 243.932722,35.3454199 240.892819,35.3454199 C237.855882,35.3454199 235.394302,37.8093013 235.394302,40.8454199 C235.394302,43.8815385 237.855882,46.3454199 240.892819,46.3454199 C243.932722,46.3454199 246.394302,43.8815385 246.394302,40.8454199" id="Fill-27" fill="#04518C"></path>
                    <path d="M407,293 C407,285.269749 400.732435,279 392.998593,279 C385.267565,279 379,285.269749 379,293 C379,300.730251 385.267565,307 392.998593,307 C400.732435,307 407,300.730251 407,293" id="Fill-29" fill="#04518C"></path>
                </g>
                <g id="Page-1" transform="translate(162.000000, 223.000000)">
                    <polygon id="Fill-1" fill="#00A1D9" points="5 154 26 154 26 76 5 76"></polygon>
                    <polygon id="Fill-2" fill="#00A1D9" points="47 152 68 152 68 96 47 96"></polygon>
                    <polygon id="Fill-3" fill="#00A1D9" points="88 153 109 153 109 53 88 53"></polygon>
                    <polygon id="Fill-4" fill="#00A1D9" points="130 152 151 152 151 66 130 66"></polygon>
                    <polygon id="Fill-5" fill="#00A1D9" points="172 152 193 152 193 36 172 36"></polygon>
                    <g id="Group-28">
                        <g id="Group-8" transform="translate(0.000000, 159.317480)">
                            <mask id="mask-4" fill="white">
                                <use xlink:href="#path-3"></use>
                            </mask>
                            <g id="Clip-7"></g>
                            <path d="M195.700897,0.139910959 L2.1914875,0.139910959 C0.981657955,0.139910959 0.000226136364,1.12313014 0.000226136364,2.33011644 C0.000226136364,3.53936301 0.981657955,4.52032192 2.1914875,4.52032192 L195.700897,4.52032192 C196.910726,4.52032192 197.892158,3.53936301 197.892158,2.33011644 C197.892158,1.12313014 196.910726,0.139910959 195.700897,0.139910959" id="Fill-6" fill="#04518C" mask="url(#mask-4)"></path>
                        </g>
                        <path d="M14.5975545,58.5142336 C20.2306114,58.5142336 24.8143955,53.9326583 24.8143955,48.3023158 C24.8143955,42.6719734 20.2306114,38.0949186 14.5975545,38.0949186 C8.96449773,38.0949186 4.38523636,42.6719734 4.38523636,48.3023158 C4.38523636,53.9326583 8.96675909,58.5142336 14.5975545,58.5142336" id="Fill-9" fill="#00A1D9"></path>
                        <path d="M56.8798534,80.2937816 C62.5129102,80.2937816 67.0966943,75.7167268 67.0966943,70.0863843 C67.0966943,64.4537816 62.5129102,59.8744665 56.8798534,59.8744665 C51.2467966,59.8744665 46.6630125,64.4515213 46.6630125,70.0863843 C46.6630125,75.7167268 51.2467966,80.2937816 56.8798534,80.2937816" id="Fill-11" fill="#00A1D9"></path>
                        <path d="M98.9459659,37.8318227 C104.579023,37.8318227 109.162807,33.2502473 109.162807,27.6199049 C109.162807,21.9895624 104.579023,17.4125076 98.9459659,17.4125076 C93.3129091,17.4125076 88.729125,21.9895624 88.729125,27.6199049 C88.729125,33.2502473 93.3129091,37.8318227 98.9459659,37.8318227" id="Fill-13" fill="#00A1D9"></path>
                        <path d="M141.012983,51.3328912 C146.64604,51.3328912 151.232085,46.7558364 151.232085,41.1209734 C151.232085,35.4906309 146.64604,30.9135761 141.012983,30.9135761 C135.382188,30.9135761 130.796142,35.4906309 130.796142,41.1209734 C130.796142,46.7558364 135.382188,51.3328912 141.012983,51.3328912" id="Fill-15" fill="#00A1D9"></path>
                        <g id="Group-19" transform="translate(171.863636, 0.000000)">
                            <mask id="mask-6" fill="white">
                                <use xlink:href="#path-5"></use>
                            </mask>
                            <g id="Clip-18"></g>
                            <path d="M11.2165898,21.3953364 C16.8496466,21.3953364 21.4334307,16.8182816 21.4334307,11.1834186 C21.4334307,5.55307611 16.8496466,0.97602132 11.2165898,0.97602132 C5.58353295,0.97602132 0.9974875,5.55307611 0.9974875,11.1834186 C0.999748864,16.8160213 5.58353295,21.3953364 11.2165898,21.3953364" id="Fill-17" fill="#00A1D9" mask="url(#mask-6)"></path>
                        </g>
                        <path d="M28.7055239,58.0318912 L40.5799443,63.9402473 C40.8942739,64.0962063 41.2266943,64.1707953 41.554592,64.1707953 C42.3596375,64.1707953 43.1352852,63.7255213 43.5174557,62.9570282 C44.0556602,61.8743569 43.6146943,60.5588775 42.5315011,60.0209323 L30.6570807,54.1125761 C29.5738875,53.5746309 28.2577739,54.0153843 27.7195693,55.0980556 C27.1813648,56.1784665 27.6223307,57.4916857 28.7055239,58.0318912" id="Fill-20" fill="#04518C"></path>
                        <path d="M69.2092602,59.8387542 C69.7746011,59.8387542 70.3376807,59.6217679 70.7673398,59.1877953 L88.1300898,41.6412884 C88.9803625,40.7823843 88.9735784,39.3945761 88.1119989,38.5447131 C87.2526807,37.6948501 85.8642034,37.7016309 85.0139307,38.5627953 L67.6511807,56.1093021 C66.800908,56.9682063 66.807692,58.3560145 67.6692716,59.2058775 C68.094408,59.6285487 68.6529648,59.8387542 69.2092602,59.8387542" id="Fill-22" fill="#04518C"></path>
                        <path d="M114.572215,34.7946926 L123.633499,38.0788706 C123.879987,38.1692816 124.13326,38.2099665 124.379749,38.2099665 C125.272987,38.2099665 126.114215,37.6561994 126.439851,36.7656515 C126.851419,35.6287336 126.265726,34.3720213 125.12826,33.9606515 L116.066976,30.6764734 C114.92951,30.2651035 113.672192,30.8505145 113.260624,31.9874323 C112.846794,33.1266104 113.434749,34.3810624 114.572215,34.7946926" id="Fill-24" fill="#04518C"></path>
                        <path d="M155.212764,33.3388501 C155.655991,33.3388501 156.106002,33.2054939 156.490434,32.9274802 L170.067661,23.1653569 C171.049093,22.4578912 171.27523,21.0904254 170.567423,20.1072063 C169.864139,19.1239871 168.491491,18.9024802 167.507798,19.6076857 L153.932832,29.369809 C152.949139,30.0772747 152.725264,31.4447405 153.430809,32.4279597 C153.860468,33.0201515 154.532093,33.3388501 155.212764,33.3388501" id="Fill-26" fill="#04518C"></path>
                    </g>
                </g>
            </g>
        </g>
    </g>
</svg>