<?xml version="1.0" encoding="UTF-8"?>
<svg width="407px" height="381px" viewBox="0 0 407 381" version="1.1" xmlns="http://www.w3.org/2000/svg" xmlns:xlink="http://www.w3.org/1999/xlink">
    <!-- Generator: Sketch 51.2 (57519) - http://www.bohemiancoding.com/sketch -->
    <title>Group 18</title>
    <desc>Created with Sketch.</desc>
    <defs>
        <polygon id="path-1" points="0 0.327241379 207.795368 0.327241379 207.795368 155.999686 0 155.999686"></polygon>
        <polygon id="path-3" points="0 0 47 0 47 47 0 47"></polygon>
    </defs>
    <g id="final" stroke="none" stroke-width="1" fill="none" fill-rule="evenodd">
        <g id="Persona" transform="translate(-823.000000, -323.000000)">
            <g id="Group-18" transform="translate(749.000000, 270.000000)">
                <g id="Page-1" transform="translate(175.000000, 181.000000)">
                    <path d="M181.730435,142 L24.2695652,142 C18.0713043,142 13,136.937916 13,130.750925 L13,58.2490749 C13,52.0620837 18.0713043,47 24.2695652,47 L181.730435,47 C187.928696,47 193,52.0620837 193,58.2490749 L193,130.750925 C193,136.937916 187.928696,142 181.730435,142" id="Fill-1" fill="#00A1D9"></path>
                    <g id="Group-5">
                        <mask id="mask-2" fill="white">
                            <use xlink:href="#path-1"></use>
                        </mask>
                        <g id="Clip-4"></g>
                        <path d="M181.172838,127.885393 C184.161786,127.87441 186.593154,130.28591 186.605719,133.271652 C186.616714,136.257393 184.202623,138.686152 181.213675,138.697134 C181.147708,138.698703 181.08174,138.697134 181.015773,138.695566 L123.170276,138.695566 C120.182898,138.7646 117.704411,136.401738 117.633732,133.415997 C117.564623,130.431824 119.930023,127.955997 122.917401,127.885393 C123.002216,127.883824 123.087031,127.883824 123.170276,127.885393 L181.03305,127.885393 L181.191686,127.885393 L181.172838,127.885393 Z M123.185982,101.933134 L181.064463,101.933134 C184.051841,101.840566 186.549176,104.187738 186.640273,107.17191 C186.732942,110.157652 184.384819,112.652307 181.397441,112.744876 C181.284354,112.748014 181.174409,112.748014 181.064463,112.744876 L123.185982,112.744876 C120.198605,112.835876 117.70127,110.490272 117.608602,107.504531 C117.517504,104.51879 119.865627,102.025703 122.853004,101.933134 C122.96295,101.929997 123.076037,101.929997 123.185982,101.933134 Z M42.5330656,96.7900655 L71.0874966,96.7900655 C82.9616163,96.7900655 92.511173,106.343497 92.511173,118.187617 L92.511173,132.449514 L92.511173,136.921066 C92.511173,137.893824 91.7258476,138.695566 90.7206311,138.695566 L22.8999311,138.695566 C21.9104211,138.695566 21.1093892,137.893824 21.1093892,136.921066 L21.1093892,132.449514 L21.1093892,126.205031 L21.1093892,118.186048 C21.1093892,106.341928 30.6589459,96.7869276 42.5330656,96.7900655 Z M123.185982,75.9997034 L181.064463,75.9997034 C184.051841,75.930669 186.530328,78.293531 186.599436,81.2777034 C186.670116,84.2618759 184.304716,86.7377034 181.317338,86.8083069 C181.232523,86.8098759 181.147708,86.8098759 181.064463,86.8083069 L123.185982,86.8083069 C120.198605,86.8773414 117.720118,84.5144793 117.651009,81.5303069 C117.58033,78.5461345 119.947301,76.0703069 122.934678,75.9997034 C123.017923,75.9981345 123.101167,75.9981345 123.185982,75.9997034 Z M56.8102811,52.2141862 C67.1577283,52.2173241 75.5450034,60.5956 75.5481447,70.9303759 C75.5544273,81.2714276 67.1671522,89.6591172 56.8149931,89.6653931 L56.8102811,89.6653931 C46.4581219,89.6622552 38.0692762,81.2761345 38.0724175,70.9350828 L38.0724175,70.9303759 C38.0771294,60.5956 46.4628339,52.2173241 56.8102811,52.2141862 Z M12.9891248,17.6184966 C5.79554426,17.6184966 -0.000157065076,23.4064103 -0.000157065076,30.5938414 L-0.000157065076,143.024341 C-0.000157065076,150.210203 5.79554426,155.999686 12.9891248,155.999686 L194.807657,155.999686 C202.001238,155.999686 207.795368,150.210203 207.795368,143.024341 L207.795368,30.5922724 C207.795368,23.4064103 202.001238,17.6169276 194.807657,17.6169276 L124.45978,17.6169276 L124.45978,21.9472724 C124.45978,33.1967552 115.159957,42.485031 103.882685,42.485031 C92.636825,42.485031 83.3385725,33.1967552 83.3385725,21.9472724 L83.3385725,17.6169276 L12.9891248,17.6184966 Z M103.898391,0.326927586 C96.7048105,0.326927586 90.9091092,6.11641034 90.9091092,13.3038414 L90.9091092,21.9472724 C90.9091092,29.1347034 96.7048105,34.9241862 103.898391,34.9241862 C111.091972,34.9241862 116.887673,29.1347034 116.887673,21.9472724 L116.887673,13.3038414 C116.887673,6.11641034 111.091972,0.325358621 103.898391,0.326927586 Z" id="Fill-3" fill="#04518C" mask="url(#mask-2)"></path>
                    </g>
                </g>
                <g id="Group-4">
                    <g id="ego-illustration">
                        <g id="Group-9">
                            <g id="Group" transform="translate(216.795127, 173.903794) rotate(67.000000) translate(-216.795127, -173.903794) translate(108.795127, -15.096206)" fill="#04518C">
                                <path d="M195.305993,332.701449 C182.94858,331.428624 171.897204,340.419805 170.624464,352.778053 C169.355424,365.140002 178.342298,376.192125 190.703412,377.46125 C203.064525,378.734076 214.112201,369.746595 215.384941,357.384646 C216.657681,345.022697 207.667107,333.974275 195.305993,332.701449 Z" id="Fill-13" transform="translate(193.005011, 355.081371) rotate(1.000000) translate(-193.005011, -355.081371) "></path>
                                <path d="M81.0541488,0.433119543 C75.011545,-0.187916268 69.6087464,4.20533706 68.9856682,10.2484128 C68.3646809,16.2914885 72.759682,21.6947092 78.8022857,22.315745 C84.8448895,22.9388718 90.2476882,18.5435275 90.8686755,12.5004517 C91.4896628,6.45737601 87.0967526,1.05415535 81.0541488,0.433119543 Z" id="Fill-15" transform="translate(79.927184, 11.374607) rotate(1.000000) translate(-79.927184, -11.374607) "></path>
                                <path d="M192.838916,363 C189.876614,362.825842 186.887009,362.586376 183.952009,362.2816 C130.69063,356.820125 82.7559357,331.01486 48.9693066,289.619764 C15.1826776,248.221947 -0.404220664,196.189629 5.07535627,143.106922 C10.6532216,89.082676 37.2402272,40.7430441 79.9410658,7 L81.6392706,9.13070996 C39.5172412,42.4165902 13.2906263,90.0976885 7.78920753,143.384486 C2.38334687,195.746071 17.7600172,247.068153 51.0852369,287.899957 C84.4104567,328.734483 131.695356,354.191433 184.230493,359.576714 C187.12727,359.876047 190.075921,360.110072 193,360.284229 L192.838916,363 Z" id="Fill-17" transform="translate(98.500000, 185.000000) rotate(1.000000) translate(-98.500000, -185.000000) "></path>
                            </g>
                            <g id="Group-14" transform="translate(183.000000, 313.000000)">
                                <g id="Group-12">
                                    <g id="Group-2" transform="translate(103.519505, 82.793604) scale(1, -1) rotate(-66.000000) translate(-103.519505, -82.793604) translate(54.519505, -8.706396)" fill="#04518C">
                                        <path d="M97.1222143,165.080139 C99.1655097,153.653322 91.5607268,142.736106 80.1339524,140.692802 C68.7071779,138.649499 57.7900024,146.259211 55.746707,157.681128 C53.7034116,169.107945 61.3081945,180.025161 72.7349689,182.068464 C84.1617433,184.111767 95.0789189,176.506956 97.1222143,165.080139" id="Fill-19"></path>
                                        <path d="M6.46725822,0.0867942998 C3.47947565,-0.447777957 0.621366557,1.54231282 0.0867942998,4.53274178 C-0.447777957,7.52052435 1.54231282,10.3786334 4.53274178,10.9132057 C7.52317074,11.447778 10.3786334,9.45768718 10.9132057,6.46725822 C11.447778,3.47682926 9.45768718,0.621366557 6.46725822,0.0867942998 Z" id="Fill-22"></path>
                                        <path d="M77.6348993,157.944149 C80.764973,150.34476 83.0841468,142.336744 84.5275486,134.144982 C94.5908167,77.0357576 60.8303498,21.7886715 6,5.635515 L6.75413693,3 C62.9170657,19.5453299 97.4965414,76.1334845 87.1873004,134.627657 C85.7087595,143.016877 83.3355257,151.216866 80.127065,159 L77.6348993,157.944149 Z" id="Fill-25"></path>
                                    </g>
                                    <g id="Page-1" transform="translate(154.000000, 54.000000)">
                                        <mask id="mask-4" fill="white">
                                            <use xlink:href="#path-3"></use>
                                        </mask>
                                        <g id="Clip-2"></g>
                                    </g>
                                </g>
                            </g>
                        </g>
                        <g id="Group-2" transform="translate(430.718345, 225.944804) rotate(8.000000) translate(-430.718345, -225.944804) translate(375.718345, 136.944804)" fill="#04518C">
                            <g id="Group-16" transform="translate(0.000000, -0.000000)">
                                <path d="M34.0623337,19.9919851 C35.7310909,10.75032 29.5202726,1.92080458 20.1880377,0.268242681 C10.8558029,-1.38431922 1.93975692,4.77018589 0.270999658,14.007888 C-1.3977576,23.2495531 4.81306078,32.0790685 14.1452956,33.7316304 C23.4775304,35.3841923 32.3935764,29.2336502 34.0623337,19.9919851" id="Fill-19"></path>
                                <path d="M100.530663,167.086794 C97.5135882,166.552222 94.6274584,168.542313 94.0876452,171.532742 C93.5478321,174.520524 95.5574335,177.378633 98.5771804,177.913206 C101.596927,178.447778 104.480385,176.457687 105.020198,173.467258 C105.560011,170.476829 103.55041,167.621367 100.530663,167.086794 Z" id="Fill-22"></path>
                                <path d="M98.3960257,171.944149 C101.556786,164.34476 103.898697,156.336744 105.35625,148.144982 C115.518178,91.0357576 81.4267258,35.7886715 26.0588235,19.635515 L26.820354,17 C83.5338996,33.5453299 118.45239,90.1334845 108.042078,148.627657 C106.549041,157.016877 104.152541,165.216866 100.912624,173 L98.3960257,171.944149 Z" id="Fill-25"></path>
                            </g>
                        </g>
                    </g>
                </g>
                <path d="M235,142 C235,134.269749 228.732435,128 220.998593,128 C213.267565,128 207,134.269749 207,142 C207,149.730251 213.267565,156 220.998593,156 C228.732435,156 235,149.730251 235,142" id="Fill-29" fill="#04518C"></path>
            </g>
        </g>
    </g>
</svg>