<?xml version="1.0" encoding="UTF-8"?>
<svg width="256px" height="260px" viewBox="0 0 256 260" version="1.1" xmlns="http://www.w3.org/2000/svg" xmlns:xlink="http://www.w3.org/1999/xlink">
    <!-- Generator: Sketch 51.2 (57519) - http://www.bohemiancoding.com/sketch -->
    <title>Group</title>
    <desc>Created with Sketch.</desc>
    <defs>
        <polygon id="path-1" points="0.0251819951 0.302409314 85.3267196 0.302409314 85.3267196 56.0784562 0.0251819951 56.0784562"></polygon>
        <polygon id="path-3" points="0.0329771529 0.0509803922 55.1931921 0.0509803922 55.1931921 82.8167804 0.0329771529 82.8167804"></polygon>
        <polygon id="path-5" points="0.0769423099 0.731136821 38.3943662 0.731136821 38.3943662 45.3304829 0.0769423099 45.3304829"></polygon>
    </defs>
    <g id="final" stroke="none" stroke-width="1" fill="none" fill-rule="evenodd">
        <g id="Riff" transform="translate(-900.000000, -403.000000)">
            <g id="Group" transform="translate(900.000000, 403.000000)">
                <g id="Page-1">
                    <path d="M161.396913,90.4901961 L174.718608,72.7806942 C178.193833,74.2322927 182.248262,75.1032518 186.302691,74.5226124 C199.334784,73.0710139 208.888757,61.1679061 207.440747,48.1035195 C205.992736,35.0391328 194.121947,25.4585826 181.089854,26.9101812 C168.05776,28.3617797 158.500892,40.2648875 159.948902,53.3292741 C160.528107,57.9743894 162.265719,62.0388652 164.872138,65.5227016 L151.550442,83.2322035 C155.025667,85.2644414 158.208394,87.8773188 161.396913,90.4901961" id="Fill-1" fill="#04518C"></path>
                    <g id="Group-5" transform="translate(170.653439, 146.568627)">
                        <mask id="mask-2" fill="white">
                            <use xlink:href="#path-1"></use>
                        </mask>
                        <g id="Clip-4"></g>
                        <path d="M58.6246863,8.61858578 C52.2740011,9.4788799 46.5006509,12.6332917 42.7479733,17.221527 L4.93252965,0.302409314 C3.77785961,4.03035049 2.04585456,7.75829167 0.0251819951,11.1994681 L38.1292932,28.4053505 C37.8406257,30.4127034 37.5519582,32.7068211 37.8406257,35.0009387 C39.2839632,47.9053505 51.1193311,57.3685858 64.109369,55.9347623 C77.0994069,54.5009387 86.6254347,42.7435858 85.1820972,29.839174 C83.4529788,16.3612328 71.6147242,7.18476225 58.6246863,8.61858578" id="Fill-3" fill="#04518C" mask="url(#mask-2)"></path>
                    </g>
                    <path d="M148.860396,233.456476 C147.718749,223.413099 140.298042,215.378397 131.164863,213.082768 L130.59404,183.529412 L130.020362,183.529412 C126.312862,183.813496 122.602509,183.813496 118.892155,183.529412 L119.177567,213.369721 C108.331918,216.529081 100.625799,227.143496 102.052858,238.908595 C103.479917,251.821509 115.181801,261.29098 128.025333,259.856211 C140.866011,258.137359 150.287455,246.659213 148.860396,233.456476" id="Fill-6" fill="#04518C"></path>
                    <path d="M43.2442526,150.659367 C38.359555,143.520599 30.0268356,139.237339 21.1194459,140.379542 C8.18936403,141.807295 -1.292696,153.514874 0.143979758,166.364655 C1.58065552,179.214436 13.3613968,188.637609 26.2914786,187.209856 C38.9342253,185.782102 48.4162854,174.645625 47.2669448,161.795844 L75.1384546,152.08712 C73.4144436,148.660512 71.9777679,144.948353 71.1157624,140.953499 L43.2442526,150.659367 Z" id="Fill-8" fill="#04518C"></path>
                    <g id="Group-12" transform="translate(52.181283, 0.000000)">
                        <mask id="mask-4" fill="white">
                            <use xlink:href="#path-3"></use>
                        </mask>
                        <g id="Clip-11"></g>
                        <path d="M27.9714215,47.2834471 L44.3044838,82.8167804 C47.7430233,80.7945582 51.1815627,79.0612248 55.1931921,77.6167804 L38.5735848,42.3723359 C44.5910288,37.4612248 48.0295682,29.6612248 47.1699334,21.2834471 C45.7372086,8.28344706 33.9888655,-1.24988627 21.0943426,0.19455817 C8.19981966,1.63900261 -1.25616382,13.4834471 0.176560953,26.4834471 C1.60928572,39.4834471 13.3576288,49.0167804 26.2521517,47.5723359 C26.8252417,47.5723359 27.3983316,47.5723359 27.9714215,47.2834471" id="Fill-10" fill="#04518C" mask="url(#mask-4)"></path>
                    </g>
                    <path d="M123.532713,87.9411765 C146.038734,87.9411765 164.285774,106.199337 164.285774,128.72549 C164.285774,151.248771 146.038734,169.509804 123.532713,169.509804 C101.023823,169.509804 82.7796533,151.248771 82.7796533,128.72549 C82.7796533,106.199337 101.023823,87.9411765 123.532713,87.9411765" id="Fill-13" fill="#04518C"></path>
                </g>
                <g id="Group-12" transform="translate(77.000000, 83.000000)">
                    <path d="M93.7491878,52.3624705 C96.4077994,26.265023 77.6274902,2.94057587 51.8064972,0.25349957 C25.9932327,-2.43357673 2.90813654,16.5478053 0.249524862,42.6374414 C-2.40135829,68.7348888 16.3712224,92.0671473 42.1922154,94.7464123 C68.0132085,97.4334886 91.0905761,78.4599179 93.7491878,52.3624705" id="Fill-13" fill="#00A1D9"></path>
                    <path d="M93.7491878,52.3624705 C96.4077994,26.265023 77.6274902,2.94057587 51.8064972,0.25349957 C25.9932327,-2.43357673 2.90813654,16.5478053 0.249524862,42.6374414 C-2.40135829,68.7348888 16.3712224,92.0671473 42.1922154,94.7464123 C68.0132085,97.4334886 91.0905761,78.4599179 93.7491878,52.3624705" id="Fill-13" fill="#00A1D9"></path>
                    <g id="Page-1" transform="translate(17.211268, 16.056338)">
                        <path d="M29.7476799,47.4013325 L24.5776286,52.5633296 C22.9868435,54.1516364 20.8392838,55.0259993 18.6121847,55.0259993 C16.3850857,55.0259993 14.2375259,54.1516364 12.6467409,52.5633296 L10.4196419,50.3397001 C8.82885686,48.7513933 7.9539251,46.607179 7.9539251,44.3835495 C7.9539251,42.15992 8.82885686,40.0157057 10.4196419,38.4273989 L19.7257343,29.135804 C21.3165193,27.5474972 23.464079,26.6739285 25.6911781,26.6739285 C27.9182771,26.6739285 30.0658369,27.5474972 31.6566219,29.135804 L34.2018779,31.6770949 C35.792663,33.2654018 38.2583797,33.2654018 39.8491648,31.6770949 C41.4399498,30.0887881 41.4399498,27.6277067 39.8491648,26.0393999 L37.3039087,23.4973148 C34.2018779,20.4001165 30.0658369,18.7323944 25.7707173,18.7323944 C21.4755978,18.7323944 17.2600175,20.4001165 14.2375259,23.4973148 L4.77235506,32.8683251 C1.67032427,35.9663175 0,40.0959152 0,44.3835495 C0,48.6727721 1.67032427,52.880991 4.77235506,55.8987739 L6.99945409,58.1224035 C10.1014849,61.2196018 14.2375259,62.8873239 18.5326455,62.8873239 C22.827765,62.8873239 27.0433453,61.2196018 30.0658369,58.1224035 L35.2350928,52.9604063 C36.8258778,51.3720995 36.8258778,48.9102239 35.2350928,47.3219171 C33.8041817,45.8932351 31.3384649,45.8932351 29.7476799,47.4013325" id="Fill-1" fill="#04518C"></path>
                        <g id="Group-5" transform="translate(22.507042, 0.000000)">
                            <mask id="mask-6" fill="white">
                                <use xlink:href="#path-5"></use>
                            </mask>
                            <g id="Clip-4"></g>
                            <path d="M31.7906888,5.60538229 C28.7959282,2.43712274 24.8021463,0.731136821 20.6563226,0.731136821 C16.509731,0.731136821 12.4399282,2.43712274 9.44439977,5.60538229 L5.06820992,10.2359155 C3.53243527,11.860664 3.53243527,14.3790241 5.06820992,16.0037726 C6.60398456,17.6285211 8.98443527,17.6285211 10.5202099,16.0037726 L14.8971677,11.3732394 C16.4329423,9.74849095 18.5062381,8.85487928 20.6563226,8.85487928 C22.8064071,8.85487928 24.8797029,9.74849095 26.4154775,11.3732394 L28.565562,13.6478873 C30.1013367,15.2726358 30.9452448,17.4660463 30.9452448,19.7406942 C30.9452448,22.0153421 30.1013367,24.2087525 28.565562,25.833501 L20.1188015,34.6883803 C18.5830268,36.3131288 16.509731,37.2067404 14.3596465,37.2067404 C12.209562,37.2067404 10.1362663,36.3131288 8.60049161,34.6883803 L6.6807733,32.6574447 C5.14499865,31.0326962 2.76454794,31.0326962 1.2287733,32.6574447 C-0.307001352,34.2821932 -0.307001352,36.8005533 1.2287733,38.4253018 L3.14849161,40.4562374 C6.14325217,43.624497 10.1362663,45.3304829 14.2828578,45.3304829 C18.5062381,45.3304829 22.4984843,43.624497 25.417224,40.4562374 L33.7871958,31.6013581 C36.7819564,28.4330986 38.3945198,24.2087525 38.3945198,19.8219316 C38.3945198,15.4351107 36.7819564,11.1295272 33.7871958,8.04250503 L31.7906888,5.60538229 Z" id="Fill-3" fill="#04518C" mask="url(#mask-6)"></path>
                        </g>
                    </g>
                </g>
            </g>
        </g>
    </g>
</svg>