<?xml version="1.0" encoding="UTF-8"?>
<svg width="401px" height="362px" viewBox="0 0 401 362" version="1.1" xmlns="http://www.w3.org/2000/svg" xmlns:xlink="http://www.w3.org/1999/xlink">
    <!-- Generator: Sketch 50 (54983) - http://www.bohemiancoding.com/sketch -->
    <title>Group 14</title>
    <desc>Created with Sketch.</desc>
    <defs>
        <path d="M1.01580008,1.22702075 C-0.248278938,2.67986414 -0.248278938,5.03512193 1.01580008,6.48927951 L9.07185848,15.7477885 L1.01580008,25.0062974 C-0.247238372,26.4593599 -0.248278938,28.8157128 1.01580008,30.2685562 C2.28008721,31.7216186 4.3295851,31.7216186 5.59387223,30.2685562 L18.2280028,15.7477885 L5.59387223,1.22702075 C4.96120838,0.501146641 4.13354255,0.137552487 3.30483615,0.137552487 C2.47717032,0.137552487 1.64846393,0.501146641 1.01580008,1.22702075 Z" id="path-1"></path>
    </defs>
    <g id="final" stroke="none" stroke-width="1" fill="none" fill-rule="evenodd">
        <g id="Score" transform="translate(-817.000000, -379.000000)">
            <g id="Group-14" transform="translate(817.000000, 361.000000)">
                <g id="Page-1" transform="translate(53.000000, 0.000000)" fill="#04518C">
                    <path d="M77.9228753,51.9840686 C78.7414495,44.018196 72.9507951,36.8957688 64.9855447,36.0771307 C57.0202943,35.2584926 49.8984233,41.0495992 49.077093,49.0154718 C48.2585188,56.9813444 54.0519293,64.1037716 62.0171798,64.9224097 C69.9824302,65.7438042 77.1043011,59.9499412 77.9228753,51.9840686" id="Fill-15"></path>
                    <path d="M325,309.5 C325,306.463881 322.53842,304 319.498517,304 C316.46158,304 314,306.463881 314,309.5 C314,312.536119 316.46158,315 319.498517,315 C322.53842,315 325,312.536119 325,309.5" id="Fill-27"></path>
                    <path d="M28,280 C28,272.269749 21.7324354,266 13.9985928,266 C6.26756458,266 0,272.269749 0,280 C0,287.730251 6.26756458,294 13.9985928,294 C21.7324354,294 28,287.730251 28,280" id="Fill-29"></path>
                </g>
                <path d="M374.025482,45.4738705 C370.505052,29.7502445 356.637333,18 340.033226,18 C320.769395,18 305.152984,33.8016755 305.152984,53.2940413 C305.152984,54.307256 305.220241,55.3033379 305.303019,56.2946607 C295.67957,56.2870461 288,64.0577221 288,73.643523 C288,83.2293239 295.67957,91 305.152984,91 L377.366716,91 C389.866711,91 400,80.7469718 400,68.0982072 C400,55.4503944 389.866711,45.1968903 377.366716,45.1968903 C376.228514,45.1968903 375.118532,45.3096812 374.025482,45.4738705 Z" id="Fill-26" fill="#00A1D9"></path>
                <path d="M74.504212,117.710327 C71.4552681,104.140622 59.4448327,94 45.06449,94 C28.3806366,94 14.8557091,107.637062 14.8557091,124.459241 C14.8557091,125.333659 14.9139588,126.193292 14.9856507,127.048817 C6.65105615,127.042245 0,133.748445 0,142.021123 C0,150.2938 6.65105615,157 14.8557091,157 L77.3979591,157 C88.2238483,157 97,148.151496 97,137.235439 C97,126.320203 88.2238483,117.471289 77.3979591,117.471289 C76.412195,117.471289 75.4508714,117.568629 74.504212,117.710327 Z" id="Fill-26" fill="#00A1D9"></path>
                <path d="M388.244656,252.548758 C386.515874,244.794641 379.705833,239 371.55203,239 C362.092114,239 354.42334,246.792607 354.42334,256.405281 C354.42334,256.904948 354.456368,257.396167 354.497018,257.885038 C349.771217,257.881283 346,261.713397 346,266.440642 C346,271.167886 349.771217,275 354.42334,275 L389.885441,275 C396.023832,275 401,269.943712 401,263.705965 C401,257.468688 396.023832,252.412165 389.885441,252.412165 C389.326502,252.412165 388.781422,252.467788 388.244656,252.548758 Z" id="Fill-26" fill="#00A1D9"></path>
                <path d="M198.534011,351.312302 C196.30231,341.404264 187.511166,334 176.985348,334 C164.773456,334 154.873766,343.95722 154.873766,356.240081 C154.873766,356.878545 154.916403,357.506213 154.968878,358.130882 C148.868299,358.126084 144,363.022674 144,369.063042 C144,375.10341 148.868299,380 154.873766,380 L200.652114,380 C208.576219,380 215,373.539188 215,365.568733 C215,357.598879 208.576219,351.137766 200.652114,351.137766 C199.930576,351.137766 199.226926,351.20884 198.534011,351.312302 Z" id="Fill-26" fill="#00A1D9"></path>
                <g id="Page-1" transform="translate(144.000000, 117.000000)">
                    <g id="Group-9">
                        <path d="M0.110946694,135.80845 L0.110946694,107.928548 C0.110946694,106.856244 0.325918006,105.998401 0.540889317,105.140558 C14.7289959,115.863597 46.1148074,120.152813 74.0610779,118.008205 C74.4910206,116.078058 75.1359345,114.147911 75.9958197,112.217763 C41.8153812,115.220214 0.110946694,108.357469 0.110946694,91.6295282 L0.110946694,63.7496262 C0.110946694,63.3207047 0.110946694,62.8917831 0.325918006,62.2484007 C23.5428197,80.6920282 96.4180943,80.6920282 119.849967,62.2484007 L119.849967,63.7496262 L119.849967,84.1234007 C144.141726,84.9812439 163.704115,104.926097 163.704115,129.589087 C163.704115,154.466538 143.28184,174.840313 118.130197,174.840313 C102.867234,174.840313 89.3240411,167.334185 81.1551312,155.967763 C46.1148074,160.042518 0.110946694,153.394234 0.110946694,135.80845 Z" id="Fill-1" fill="#04518C"></path>
                        <polygon id="Fill-3" fill="#000000" points="126.084135 152.750852 110.176258 152.750852 110.176258 137.309675 94.6983239 137.309675 94.6983239 121.654038 110.176258 121.654038 110.176258 106.212862 126.084135 106.212862 126.084135 121.654038 141.347098 121.654038 141.347098 137.309675 126.084135 137.309675"></polygon>
                        <path d="M154.245377,129.589087 C154.245377,149.53394 138.122529,165.618499 118.130197,165.618499 C98.1378648,165.618499 82.0150165,149.53394 82.0150165,129.589087 C82.0150165,109.644234 98.1378648,93.3452145 118.130197,93.3452145 C138.122529,93.3452145 154.245377,109.644234 154.245377,129.589087 Z" id="Fill-5" fill="#00A1D9"></path>
                        <path d="M119.849967,49.1662929 C119.849967,77.4751164 0.110946694,77.4751164 0.110946694,49.1662929 L0.110946694,21.2863909 C0.110946694,-7.0224326 119.849967,-7.0224326 119.849967,21.2863909 L119.849967,49.1662929 Z" id="Fill-7" fill="#04518C"></path>
                    </g>
                    <g id="Group-12" transform="translate(119.040698, 130.232558)">
                        <mask id="mask-2" fill="white">
                            <use xlink:href="#path-1"></use>
                        </mask>
                        <g id="Clip-11"></g>
                    </g>
                </g>
                <g id="Group-4" transform="translate(263.000000, 247.000000) rotate(90.000000) translate(-263.000000, -247.000000) translate(237.000000, 230.000000)" fill="#04518C">
                    <g id="Group" transform="translate(0.000000, 0.872242)">
                        <path d="M12.6513451,31.3922583 C10.9862085,31.3922583 9.63615877,30.0323625 9.63615877,28.3550816 L9.63615877,3.03717669 C9.63615877,1.36027551 10.9862085,0 12.6513451,0 C14.3164818,0 15.6665315,1.36027551 15.6665315,3.03717669 L15.6665315,28.3550816 C15.6665315,30.0323625 14.3164818,31.3922583 12.6513451,31.3922583" id="Fill-5"></path>
                        <path d="M12.6513451,32.6502189 L0.883072711,20.7961183 C-0.29435757,19.6097212 -0.29435757,17.6868087 0.883072711,16.5007912 C2.06087989,15.3151533 3.96986977,15.315533 5.14730005,16.5007912 L12.6513451,24.0599443 L20.1553902,16.5007912 C21.3331974,15.3151533 23.2421873,15.3151533 24.4199945,16.5007912 C25.5974248,17.6871883 25.5974248,19.6097212 24.4199945,20.7961183 L12.6513451,32.6502189 Z" id="Fill-7"></path>
                    </g>
                    <g id="Group" transform="translate(39.000000, 16.713705) rotate(180.000000) translate(-39.000000, -16.713705) translate(26.000000, 0.213705)">
                        <path d="M9.63615877,28.3550816 L9.63615877,3.03717669 C9.63615877,1.36027551 10.9862085,0 12.6513451,0 C14.3164818,0 15.6665315,1.36027551 15.6665315,3.03717669 L15.6665315,28.3550816 C15.6665315,30.0323625 14.3164818,31.3922583 12.6513451,31.3922583 C10.9862085,31.3922583 9.63615877,30.0323625 9.63615877,28.3550816 Z" id="Fill-5"></path>
                        <path d="M12.6513451,32.6502189 L0.883072711,20.7961183 C-0.29435757,19.6097212 -0.29435757,17.6868087 0.883072711,16.5007912 C2.06087989,15.3151533 3.96986977,15.315533 5.14730005,16.5007912 L12.6513451,24.0599443 L20.1553902,16.5007912 C21.3331974,15.3151533 23.2421873,15.3151533 24.4199945,16.5007912 C25.5974248,17.6871883 25.5974248,19.6097212 24.4199945,20.7961183 L12.6513451,32.6502189 Z" id="Fill-7"></path>
                    </g>
                </g>
            </g>
        </g>
    </g>
</svg>