<?xml version="1.0" encoding="UTF-8"?>
<svg width="410px" height="418px" viewBox="0 0 410 418" version="1.1" xmlns="http://www.w3.org/2000/svg" xmlns:xlink="http://www.w3.org/1999/xlink">
    <!-- Generator: Sketch 50 (54983) - http://www.bohemiancoding.com/sketch -->
    <title>Page 1</title>
    <desc>Created with Sketch.</desc>
    <defs>
        <polygon id="path-1" points="319 0 330 0 330 11 319 11 319 0"></polygon>
    </defs>
    <g id="final" stroke="none" stroke-width="1" fill="none" fill-rule="evenodd">
        <g id="Song" transform="translate(-800.000000, -361.000000)">
            <g id="Page-1" transform="translate(800.000000, 361.000000)">
                <path d="M228.173107,108 L151,151.572792 L151,206.387888 C151.577548,242.295639 176.151541,271.898102 208.773005,280.483343 C215.414428,282.231217 222.389412,283.107946 229.563369,282.98938 C270.933153,282.285714 304.304869,248.553347 305,206.739722 L305,151.572792 L228.173107,108 Z" id="Fill-1" fill="#00A1D9"></path>
                <path d="M227.5,131 L168,164.334245 L168,206.333698 C168,239.33151 194.590575,266 227.5,266 C260.409425,266 287,239.33151 287,206.333698 L287,164.334245 L227.5,131 Z" id="Fill-3" fill="#04518C"></path>
                <path d="M225.082014,230 L193.518455,198.460087 C190.160515,195.107366 190.160515,189.67001 193.518455,186.319992 C196.87369,182.964568 202.309712,182.964568 205.667652,186.319992 L225.082014,205.71981 L284.334377,146.514541 C287.689612,143.16182 293.128339,143.16182 296.483574,146.514541 C299.838809,149.867262 299.838809,155.304618 296.483574,158.654636 L225.082014,230 Z" id="Fill-5" fill="#00A1D9"></path>
                <path d="M277.9549,335.471827 C278.43406,330.254045 275.040666,325.586426 270.369513,325.050894 C265.700979,324.512435 261.524696,328.307984 261.045536,333.528693 C260.563758,338.746476 263.95977,343.411168 268.630923,343.949627 C273.299457,344.485159 277.47574,340.68961 277.9549,335.471827" id="Fill-7" fill="#04518C"></path>
                <path d="M31.9441649,217.575189 C32.5369285,211.805632 28.3424206,206.648597 22.5756779,206.055834 C16.8061125,205.463072 11.6490694,209.657573 11.0563058,215.42713 C10.4607196,221.193864 14.6580502,226.3509 20.4247929,226.943662 C26.1943583,227.539248 31.3514014,223.344746 31.9441649,217.575189" id="Fill-9" fill="#04518C"></path>
                <path d="M224.602355,342 C216.653817,342 208.688936,341.594168 200.729502,340.779799 C122.739584,332.811965 54.8038309,286.625582 19,217.236435 L21.4216072,216 C56.8059471,284.572073 123.940854,330.21464 201.007347,338.090485 C223.992186,340.436194 247.017885,339.35127 269.463378,334.854652 L270,337.508793 C255.067209,340.498422 239.86747,342 224.602355,342" id="Fill-11" fill="#04518C"></path>
                <path d="M256.911949,403.189069 C257.845291,394.12364 251.252204,386.021463 242.187387,385.088058 C233.125284,384.154652 225.020942,390.748185 224.087599,399.810901 C223.15697,408.87633 229.747344,416.98122 238.812161,417.911912 C247.876977,418.845317 255.978606,412.254498 256.911949,403.189069" id="Fill-13" fill="#04518C"></path>
                <path d="M147.922875,51.9840686 C148.741449,44.018196 142.950795,36.8957688 134.985545,36.0771307 C127.020294,35.2584926 119.898423,41.0495992 119.077093,49.0154718 C118.258519,56.9813444 124.051929,64.1037716 132.01718,64.9224097 C139.98243,65.7438042 147.104301,59.9499412 147.922875,51.9840686" id="Fill-15" fill="#04518C"></path>
                <path d="M243.838916,406 C240.876614,405.825842 237.887009,405.586376 234.952009,405.2816 C181.69063,399.820125 133.755936,374.01486 99.9693066,332.619764 C66.1826776,291.221947 50.5957793,239.189629 56.0753563,186.106922 C61.6532216,132.082676 88.2402272,83.7430441 130.941066,50 L132.639271,52.13071 C90.5172412,85.4165902 64.2906263,133.097688 58.7892075,186.384486 C53.3833469,238.746071 68.7600172,290.068153 102.085237,330.899957 C135.410457,371.734483 182.695356,397.191433 235.230493,402.576714 C238.12727,402.876047 241.075921,403.110072 244,403.284229 L243.838916,406 Z" id="Fill-17" fill="#04518C"></path>
                <path d="M409.810563,160.111989 C410.977073,153.588461 406.63553,147.355862 400.112026,146.189348 C393.588522,145.022833 387.355947,149.36719 386.189437,155.887921 C385.022927,162.411449 389.36447,168.644048 395.887974,169.810563 C402.411478,170.977077 408.644053,166.635518 409.810563,160.111989" id="Fill-19" fill="#04518C"></path>
                <mask id="mask-2" fill="white">
                    <use xlink:href="#path-1"></use>
                </mask>
                <g id="Clip-23"></g>
                <path d="M329.913206,6.46725822 C330.447778,3.47682926 328.457687,0.621366557 325.467258,0.0867942998 C322.479476,-0.447777957 319.621367,1.54231282 319.086794,4.53274178 C318.552222,7.52052435 320.542313,10.3786334 323.532742,10.9132057 C326.523171,11.447778 329.378633,9.45768718 329.913206,6.46725822" id="Fill-22" fill="#04518C"></path>
                <path d="M399.127065,159 L396.634899,157.944149 C399.764973,150.34476 402.084147,142.336744 403.527549,134.144982 C413.590817,77.0357576 379.83035,21.7886715 325,5.635515 L325.754137,3 C381.917066,19.5453299 416.496541,76.1334845 406.1873,134.627657 C404.70876,143.016877 402.335526,151.216866 399.127065,159" id="Fill-25" fill="#04518C"></path>
                <path d="M410,300.5 C410,297.463881 407.53842,295 404.498517,295 C401.46158,295 399,297.463881 399,300.5 C399,303.536119 401.46158,306 404.498517,306 C407.53842,306 410,303.536119 410,300.5" id="Fill-27" fill="#04518C"></path>
                <path d="M28,108 C28,100.269749 21.7324354,94 13.9985928,94 C6.26756458,94 0,100.269749 0,108 C0,115.730251 6.26756458,122 13.9985928,122 C21.7324354,122 28,115.730251 28,108" id="Fill-29" fill="#04518C"></path>
            </g>
        </g>
    </g>
</svg>