<svg width="649" height="484" viewBox="0 0 649 484" fill="none" xmlns="http://www.w3.org/2000/svg">
<g filter="url(#filter0_d_686_1768)">
<path d="M332.098 77.5386C369.875 56.5983 431.125 56.5983 468.902 77.5386L732.598 223.708C770.376 244.648 770.376 278.599 732.598 299.54L468.902 445.709C431.125 466.649 369.875 466.649 332.098 445.709L68.4017 299.54C30.6244 278.599 30.6244 244.648 68.4018 223.708L332.098 77.5386Z" fill="#009FDA"/>
</g>
<path d="M40.2334 52.136L399.905 243.377V457.857L40.2334 266.616V52.136Z" fill="#009FDA"/>
<path d="M760.052 53.7001L400.38 244.941V459.421L760.052 268.18V53.7001Z" fill="#009FDA"/>
<path d="M332.098 -130.544C369.875 -151.484 431.125 -151.484 468.902 -130.544L732.598 15.6251C770.376 36.5655 770.376 70.5164 732.598 91.4567L468.902 237.626C431.125 258.566 369.875 258.566 332.098 237.626L68.4017 91.4567C30.6244 70.5164 30.6244 36.5654 68.4018 15.6251L332.098 -130.544Z" fill="#4BC6F0"/>
<g filter="url(#filter1_d_686_1768)">
<path d="M469.828 3.02428C508.24 28.9334 508.597 71.4907 470.626 98.0786C432.654 124.666 370.733 125.217 332.321 99.3075C293.91 73.3983 293.552 30.8411 331.524 4.25318C369.495 -22.3347 431.416 -22.8849 469.828 3.02428Z" fill="#005A7B"/>
</g>
<g filter="url(#filter2_d_686_1768)">
<path d="M452.516 15.1425C481.259 34.5298 481.526 66.3745 453.113 86.2697C424.7 106.165 378.365 106.577 349.623 87.1892C320.88 67.802 320.613 35.9572 349.026 16.0621C377.439 -3.83306 423.773 -4.24476 452.516 15.1425Z" fill="#005A7B"/>
</g>
<path fill-rule="evenodd" clip-rule="evenodd" d="M666.93 -312.971C710.07 -388.109 688.951 -477.53 603.934 -537.65C491.91 -616.869 311.366 -615.217 200.678 -533.961C116.352 -472.057 96.8971 -381.811 141.945 -307.308L308.795 179.644H492.957L666.93 -312.971Z" fill="url(#paint0_linear_686_1768)"/>
<g filter="url(#filter3_d_686_1768)">
<path d="M306.76 431.526L117.241 322.107L58.4451 353.37C43.68 361.221 43.4506 374.363 57.9327 382.724L195.007 461.864C209.489 470.225 233.199 470.639 247.964 462.789L306.76 431.526Z" fill="#009FDA"/>
</g>
<path d="M218.003 398.66L47.5335 300.239V366.115L218.003 464.536V398.66Z" fill="#009FDA"/>
<path d="M306.942 287.919L219.74 338.265L231.397 467.405L306.942 431.249V287.919Z" fill="#009FDA"/>
<path d="M306.115 286.477L120.801 179.486L52.0118 277.727C42.4202 291.426 46.3847 309.309 60.8668 317.67L193.736 394.382C208.219 402.743 227.734 398.417 237.326 384.719L306.115 286.477Z" fill="#4BC6F0"/>
<path d="M121.019 208.076C123.392 204.567 128.287 203.443 131.953 205.565L270.9 286.006C274.566 288.128 275.614 292.693 273.241 296.202L220.101 374.785C217.728 378.294 212.833 379.418 209.167 377.296L70.2199 296.855C66.5539 294.732 65.5056 290.167 67.8786 286.658L121.019 208.076Z" fill="#90D6EE"/>
<path fill-rule="evenodd" clip-rule="evenodd" d="M96.0468 284.125C94.6029 286.187 91.6603 286.836 89.4746 285.574C87.2893 284.312 86.6882 281.617 88.1321 279.555L122.124 231.01C123.568 228.948 126.51 228.299 128.695 229.561C130.881 230.823 131.482 233.518 130.038 235.58L96.0468 284.125Z" fill="#F2D021"/>
<path fill-rule="evenodd" clip-rule="evenodd" d="M113.905 294.436C112.461 296.498 109.519 297.147 107.333 295.885C105.148 294.623 104.547 291.928 105.99 289.866L139.982 241.321C141.426 239.259 144.369 238.61 146.554 239.872C148.74 241.133 149.341 243.828 147.897 245.891L113.905 294.436Z" fill="#F2D021"/>
<path fill-rule="evenodd" clip-rule="evenodd" d="M132.129 304.957C130.685 307.019 127.752 307.674 125.577 306.418C123.403 305.163 122.811 302.473 124.255 300.411L158.247 251.866C159.691 249.804 162.624 249.15 164.798 250.405C166.973 251.66 167.565 254.35 166.121 256.412L132.129 304.957Z" fill="#F2D021"/>
<path fill-rule="evenodd" clip-rule="evenodd" d="M151.694 316.252C150.25 318.314 147.308 318.963 145.122 317.702C142.937 316.44 142.336 313.745 143.78 311.683L177.771 263.138C179.215 261.076 182.158 260.427 184.343 261.688C186.529 262.95 187.13 265.645 185.686 267.707L151.694 316.252Z" fill="#F2D021"/>
<path fill-rule="evenodd" clip-rule="evenodd" d="M122.172 251.618C119.945 254.798 115.414 255.803 112.051 253.861C108.688 251.92 107.768 247.768 109.995 244.588C112.222 241.407 116.753 240.403 120.116 242.344C123.478 244.285 124.398 248.438 122.172 251.618Z" fill="white"/>
<path fill-rule="evenodd" clip-rule="evenodd" d="M124.439 284.196C122.212 287.376 117.681 288.381 114.319 286.439C110.956 284.498 110.036 280.346 112.263 277.166C114.489 273.985 119.021 272.981 122.383 274.922C125.746 276.863 126.666 281.015 124.439 284.196Z" fill="white"/>
<path fill-rule="evenodd" clip-rule="evenodd" d="M155.607 276.313C153.38 279.493 148.849 280.498 145.487 278.557C142.124 276.615 141.204 272.463 143.431 269.283C145.657 266.103 150.189 265.098 153.551 267.039C156.914 268.98 157.834 273.133 155.607 276.313Z" fill="white"/>
<path fill-rule="evenodd" clip-rule="evenodd" d="M169.754 295.263C167.527 298.443 162.996 299.448 159.633 297.506C156.271 295.565 155.35 291.413 157.577 288.233C159.804 285.053 164.335 284.048 167.698 285.989C171.06 287.93 171.98 292.083 169.754 295.263Z" fill="white"/>
<path fill-rule="evenodd" clip-rule="evenodd" d="M207.386 321.194C204.807 319.705 204.098 316.511 205.805 314.074C207.185 312.103 209.725 311.245 212.011 311.767L217.655 303.707C218.169 302.973 219.215 302.742 219.991 303.19C220.767 303.638 220.98 304.596 220.466 305.33L214.822 313.391C216.313 315.049 216.535 317.501 215.154 319.473C213.45 321.91 209.964 322.682 207.386 321.194ZM227.405 326.544C227.919 325.81 228.964 325.577 229.74 326.025L233.881 328.416C236.97 323.36 238.017 317.74 237.212 312.438L232.358 313.514C231.901 313.616 231.451 313.538 231.091 313.33C230.732 313.123 230.462 312.785 230.369 312.366C230.184 311.53 230.773 310.689 231.685 310.487L236.54 309.411C235.029 304.266 231.705 299.613 226.764 296.338L223.953 294.715C218.591 292.043 212.542 291.284 206.769 292.223L207.755 296.671C207.941 297.508 207.352 298.349 206.439 298.55C205.983 298.652 205.532 298.574 205.172 298.366C204.813 298.159 204.543 297.821 204.451 297.402L203.465 292.954C197.836 294.541 192.674 297.784 188.944 302.472L193.087 304.863C193.863 305.312 194.076 306.27 193.562 307.004C193.048 307.738 192.002 307.971 191.225 307.522L187.084 305.131C183.993 310.187 182.948 315.807 183.753 321.108L188.607 320.033C189.519 319.83 190.409 320.344 190.595 321.181C190.781 322.017 190.192 322.858 189.279 323.06L184.425 324.134C185.937 329.281 189.26 333.932 194.2 337.208L196.942 333.292C197.456 332.558 198.502 332.327 199.278 332.775C200.054 333.223 200.267 334.181 199.753 334.915L197.012 338.831C202.373 341.503 208.424 342.262 214.197 341.323L213.209 336.876C213.023 336.039 213.612 335.199 214.524 334.997C215.438 334.794 216.326 335.307 216.512 336.144L217.499 340.592C223.128 339.005 228.289 335.762 232.019 331.075L227.878 328.684C227.102 328.236 226.891 327.277 227.405 326.544Z" fill="white"/>
<path fill-rule="evenodd" clip-rule="evenodd" d="M483.633 369.25C483.633 377.722 489.581 381.156 496.918 376.92L683.307 269.309C690.644 265.073 696.592 254.771 696.592 246.298V168.677C696.592 160.205 690.644 156.771 683.307 161.007L496.918 268.618C489.581 272.855 483.633 283.157 483.633 291.629V369.25Z" fill="#90D6EE"/>
<path fill-rule="evenodd" clip-rule="evenodd" d="M582.474 278.053C582.474 280.764 584.377 281.863 586.725 280.507L647.305 245.531C649.652 244.176 651.556 240.879 651.556 238.168V235.944C651.556 233.233 649.652 232.134 647.305 233.489L586.725 268.465C584.377 269.821 582.474 273.117 582.474 275.828V278.053Z" fill="#009FDA"/>
<path fill-rule="evenodd" clip-rule="evenodd" d="M582.474 248.216C582.474 250.927 584.377 252.026 586.725 250.671L674.472 200.009C676.82 198.654 678.724 195.357 678.724 192.646V190.422C678.724 187.711 676.82 186.612 674.472 187.967L586.725 238.628C584.377 239.984 582.474 243.281 582.474 245.992V248.216Z" fill="#009FDA"/>
<path fill-rule="evenodd" clip-rule="evenodd" d="M582.474 309.27C582.474 311.981 584.377 313.08 586.725 311.724L616.284 294.658C618.632 293.303 620.535 290.006 620.535 287.295V285.071C620.535 282.36 618.632 281.261 616.284 282.616L586.725 299.682C584.377 301.038 582.474 304.334 582.474 307.046V309.27Z" fill="#009FDA"/>
<path fill-rule="evenodd" clip-rule="evenodd" d="M564.072 285.608C564.072 306.322 549.53 331.511 531.59 341.868C513.651 352.225 499.108 343.829 499.108 323.115C499.108 302.4 513.651 277.212 531.59 266.854C549.53 256.497 564.072 264.893 564.072 285.608Z" fill="#009FDA"/>
<path fill-rule="evenodd" clip-rule="evenodd" d="M550.523 293.431C550.523 305.504 542.048 320.184 531.592 326.221C521.137 332.257 512.661 327.364 512.661 315.291C512.661 303.218 521.137 288.538 531.592 282.501C542.048 276.465 550.523 281.358 550.523 293.431Z" fill="#015C7C"/>
<defs>
<filter id="filter0_d_686_1768" x="30.0684" y="56.8334" width="740.863" height="419.581" filterUnits="userSpaceOnUse" color-interpolation-filters="sRGB">
<feFlood flood-opacity="0" result="BackgroundImageFix"/>
<feColorMatrix in="SourceAlpha" type="matrix" values="0 0 0 0 0 0 0 0 0 0 0 0 0 0 0 0 0 0 127 0" result="hardAlpha"/>
<feOffset dy="5"/>
<feGaussianBlur stdDeviation="5"/>
<feComposite in2="hardAlpha" operator="out"/>
<feColorMatrix type="matrix" values="0 0 0 0 0 0 0 0 0 0 0 0 0 0 0 0 0 0 0.15 0"/>
<feBlend mode="normal" in2="BackgroundImageFix" result="effect1_dropShadow_686_1768"/>
<feBlend mode="normal" in="SourceGraphic" in2="effect1_dropShadow_686_1768" result="shape"/>
</filter>
<filter id="filter1_d_686_1768" x="283.277" y="-31.0533" width="235.595" height="174.438" filterUnits="userSpaceOnUse" color-interpolation-filters="sRGB">
<feFlood flood-opacity="0" result="BackgroundImageFix"/>
<feColorMatrix in="SourceAlpha" type="matrix" values="0 0 0 0 0 0 0 0 0 0 0 0 0 0 0 0 0 0 127 0" result="hardAlpha"/>
<feOffset dy="5"/>
<feGaussianBlur stdDeviation="10"/>
<feComposite in2="hardAlpha" operator="out"/>
<feColorMatrix type="matrix" values="0 0 0 0 1 0 0 0 0 1 0 0 0 0 1 0 0 0 0.5 0"/>
<feBlend mode="normal" in2="BackgroundImageFix" result="effect1_dropShadow_686_1768"/>
<feBlend mode="normal" in="SourceGraphic" in2="effect1_dropShadow_686_1768" result="shape"/>
</filter>
<filter id="filter2_d_686_1768" x="307.89" y="-14.1328" width="186.359" height="140.597" filterUnits="userSpaceOnUse" color-interpolation-filters="sRGB">
<feFlood flood-opacity="0" result="BackgroundImageFix"/>
<feColorMatrix in="SourceAlpha" type="matrix" values="0 0 0 0 0 0 0 0 0 0 0 0 0 0 0 0 0 0 127 0" result="hardAlpha"/>
<feOffset dy="5"/>
<feGaussianBlur stdDeviation="10"/>
<feComposite in2="hardAlpha" operator="out"/>
<feColorMatrix type="matrix" values="0 0 0 0 1 0 0 0 0 1 0 0 0 0 1 0 0 0 0.5 0"/>
<feBlend mode="normal" in2="BackgroundImageFix" result="effect1_dropShadow_686_1768"/>
<feBlend mode="normal" in="SourceGraphic" in2="effect1_dropShadow_686_1768" result="shape"/>
</filter>
<filter id="filter3_d_686_1768" x="37.2197" y="317.108" width="279.54" height="166.309" filterUnits="userSpaceOnUse" color-interpolation-filters="sRGB">
<feFlood flood-opacity="0" result="BackgroundImageFix"/>
<feColorMatrix in="SourceAlpha" type="matrix" values="0 0 0 0 0 0 0 0 0 0 0 0 0 0 0 0 0 0 127 0" result="hardAlpha"/>
<feOffset dy="5"/>
<feGaussianBlur stdDeviation="5"/>
<feComposite in2="hardAlpha" operator="out"/>
<feColorMatrix type="matrix" values="0 0 0 0 0 0 0 0 0 0 0 0 0 0 0 0 0 0 0.15 0"/>
<feBlend mode="normal" in2="BackgroundImageFix" result="effect1_dropShadow_686_1768"/>
<feBlend mode="normal" in="SourceGraphic" in2="effect1_dropShadow_686_1768" result="shape"/>
</filter>
<linearGradient id="paint0_linear_686_1768" x1="403.515" y1="-596" x2="403.515" y2="179.644" gradientUnits="userSpaceOnUse">
<stop stop-color="#00DDBE"/>
<stop offset="1" stop-color="#00DDBE" stop-opacity="0"/>
</linearGradient>
</defs>
</svg>
