<svg id="Layer_1" data-name="Layer 1" xmlns="http://www.w3.org/2000/svg" xmlns:xlink="http://www.w3.org/1999/xlink" viewBox="0 0 200 72"><defs><style>.cls-1{fill:#010101;}.cls-2{fill:#989898;}.cls-3{fill:#c1282d;}.cls-4{fill:#4e4e4e;}.cls-5{fill:#ec2227;}.cls-6{fill:url(#linear-gradient);}.cls-7{fill:#2aaae2;}.cls-8{fill:#55a4db;}</style><linearGradient id="linear-gradient" x1="32.75" y1="38.03" x2="54.47" y2="38.03" gradientTransform="matrix(1, 0, 0, -1, 0, 74)" gradientUnits="userSpaceOnUse"><stop offset="0" stop-color="#676767"/><stop offset="1" stop-color="#b4b4b4"/></linearGradient></defs><title>logo-Cancer-Genome-Collaboratory-nav</title><path class="cls-1" d="M67.39,64.13h0a1.7,1.7,0,0,1,1.66-1.76h0a1.76,1.76,0,0,1,1.33.54l-.26.28a1.45,1.45,0,0,0-1.07-.47,1.34,1.34,0,0,0-1.32,1.35v0h0a1.34,1.34,0,0,0,1.3,1.39h0A1.45,1.45,0,0,0,70.2,65l.25.25a1.76,1.76,0,0,1-1.36.6,1.69,1.69,0,0,1-1.7-1.69Z"/><path class="cls-1" d="M71.19,62.27h.37v3.55h-.37Z"/><path class="cls-1" d="M72.37,64.58h0a1.31,1.31,0,0,1,2.62,0h0a1.31,1.31,0,0,1-1.3,1.31h0a1.3,1.3,0,0,1-1.3-1.28Zm2.24,0h0a1,1,0,0,0-.92-1h0a.94.94,0,0,0-.92.94v0h0a1,1,0,0,0,.91,1h0a.93.93,0,0,0,.93-.93Z"/><path class="cls-1" d="M75.72,64.86V63.3h.38v1.47a.66.66,0,0,0,.57.75h.12a.76.76,0,0,0,.76-.74V63.3h.37v2.51h-.37v-.43a1,1,0,0,1-.86.49.91.91,0,0,1-1-.86Z"/><path class="cls-1" d="M78.7,64.57h0a1.24,1.24,0,0,1,1.16-1.31h0a1.1,1.1,0,0,1,1,.54V62.28h.39v3.54h-.37v-.51a1.11,1.11,0,0,1-1,.56,1.23,1.23,0,0,1-1.22-1.24Zm2.18,0h0a.93.93,0,0,0-.89-1h0a.89.89,0,0,0-.89.89.22.22,0,0,0,0,.08h0a.9.9,0,0,0,.83,1h0a.94.94,0,0,0,.91-1v0Z"/><path class="cls-1" d="M83.38,64.58h0a1.3,1.3,0,0,1,1.3-1.31,1.33,1.33,0,0,1,1,.44l-.25.26a1,1,0,0,0-.76-.38.94.94,0,0,0-.9,1h0a.94.94,0,0,0,.91,1h0a1,1,0,0,0,.77-.37l.24.22a1.3,1.3,0,0,1-2.31-.81Z"/><path class="cls-1" d="M86.17,64.58h0a1.31,1.31,0,0,1,2.62,0h0a1.3,1.3,0,0,1-1.29,1.31h0a1.29,1.29,0,0,1-1.3-1.27Zm2.24,0h0a1,1,0,0,0-.92-1h0a.92.92,0,0,0-.91.94v0h0a.93.93,0,0,0,.9,1h0a.93.93,0,0,0,.92-.93Z"/><path class="cls-1" d="M89.56,63.31H90v.42a.92.92,0,0,1,.81-.48.86.86,0,0,1,.81.5,1,1,0,0,1,.88-.5.91.91,0,0,1,.94.87v1.7H93V64.35c0-.48-.24-.76-.65-.76a.71.71,0,0,0-.7.7.25.25,0,0,0,0,.08v1.45H91.3V64.34c0-.47-.25-.75-.65-.75a.74.74,0,0,0-.7.76v1.47h-.38Z"/><path class="cls-1" d="M94.28,63.31h.37v.51a1.11,1.11,0,0,1,1-.56,1.23,1.23,0,0,1,1.21,1.24.13.13,0,0,0,0,.06h0a1.22,1.22,0,0,1-1.15,1.3h0a1.15,1.15,0,0,1-1-.54V66.6h-.37Zm2.15,1.26h0a.9.9,0,0,0-.84-1h0a.94.94,0,0,0-.9,1h0a.92.92,0,0,0,.89,1h0a.88.88,0,0,0,.89-.88Z"/><path class="cls-1" d="M97.56,64.86V63.3h.37v1.47a.67.67,0,0,0,.58.75h.12a.74.74,0,0,0,.75-.73V63.3h.37v2.51h-.37v-.43a1,1,0,0,1-.86.49.92.92,0,0,1-1-.86A.76.76,0,0,1,97.56,64.86Z"/><path class="cls-1" d="M100.82,65.15V63.64h-.35v-.33h.35v-.76h.37v.76h.8v.33h-.8V65.1a.37.37,0,0,0,.32.42.17.17,0,0,0,.1,0,.7.7,0,0,0,.35-.09v.32a.79.79,0,0,1-.45.11.64.64,0,0,1-.69-.58A.28.28,0,0,1,100.82,65.15Z"/><path class="cls-1" d="M102.76,62.35h.41v.42h-.41Zm0,1h.37v2.51h-.37Z"/><path class="cls-1" d="M104.12,63.31h.37v.43a1,1,0,0,1,.86-.49.93.93,0,0,1,1,.87.71.71,0,0,1,0,.14v1.56H106V64.35a.68.68,0,0,0-.58-.75h-.12a.75.75,0,0,0-.76.73.13.13,0,0,0,0,.06v1.44h-.38Z"/><path class="cls-1" d="M107.18,66.25l.17-.29a1.61,1.61,0,0,0,1,.32.83.83,0,0,0,.91-.73v-.46a1.19,1.19,0,0,1-1,.53,1.16,1.16,0,0,1-1.18-1.14v0h0a1.16,1.16,0,0,1,1.15-1.18h0a1.16,1.16,0,0,1,1,.5v-.45h.38V65.4a1.2,1.2,0,0,1-.32.88,1.32,1.32,0,0,1-1,.35A2,2,0,0,1,107.18,66.25Zm2.06-1.81h0a.89.89,0,0,0-.91-.85h0a.83.83,0,0,0-.87.79v.06h0a.83.83,0,0,0,.84.85h0a.89.89,0,0,0,.92-.85Z"/><path class="cls-1" d="M112,63.64h-.35v-.33H112v-.22a.9.9,0,0,1,.22-.64.71.71,0,0,1,.54-.2,1.14,1.14,0,0,1,.41.07v.32a1.15,1.15,0,0,0-.37-.06c-.28,0-.43.17-.43.53v.21h.8v.32h-.8v2.18H112Z"/><path class="cls-1" d="M113.57,64.58h0a1.31,1.31,0,1,1,2.61,0h0a1.3,1.3,0,0,1-1.29,1.31h0a1.28,1.28,0,0,1-1.3-1.27A0,0,0,0,1,113.57,64.58Zm2.23,0h0a1,1,0,0,0-.92-1h0a.93.93,0,0,0-.92.94v0h0a.94.94,0,0,0,.91,1h0a.93.93,0,0,0,.92-.93Z"/><path class="cls-1" d="M117,63.31h.38V64a1.07,1.07,0,0,1,1-.69v.4h0a1,1,0,0,0-1,1.15v1H117Z"/><path class="cls-1" d="M120.22,64.58h0a1.31,1.31,0,0,1,2.29-.87l-.24.26a1,1,0,0,0-.77-.38.93.93,0,0,0-.9,1v0h0a.94.94,0,0,0,.91,1h0a1,1,0,0,0,.76-.37l.24.22a1.3,1.3,0,0,1-1.82.21,1.32,1.32,0,0,1-.49-1Z"/><path class="cls-1" d="M123,64.58h0a1.31,1.31,0,0,1,2.62,0h0a1.3,1.3,0,0,1-1.29,1.31h0A1.3,1.3,0,0,1,123,64.61Zm2.24,0h0a1,1,0,0,0-.92-1h0a.93.93,0,0,0-.92.94v0h0a.93.93,0,0,0,.9,1h0a.92.92,0,0,0,.93-.92v0Z"/><path class="cls-1" d="M126.44,62.27h.39v3.55h-.37Z"/><path class="cls-1" d="M127.82,62.27h.37v3.55h-.37Z"/><path class="cls-1" d="M129,65.09h0c0-.54.43-.82,1.07-.82a2.52,2.52,0,0,1,.77.11V64.3c0-.45-.27-.68-.75-.68a1.7,1.7,0,0,0-.76.18l-.11-.31a2.06,2.06,0,0,1,.91-.21,1.13,1.13,0,0,1,.82.28,1,1,0,0,1,.26.73v1.54h-.37v-.37a1.13,1.13,0,0,1-.91.42.84.84,0,0,1-.93-.74Zm1.84-.19v-.24a3,3,0,0,0-.73-.11c-.47,0-.73.21-.73.51h0c0,.32.29.5.63.5a.75.75,0,0,0,.83-.66Z"/><path class="cls-1" d="M132.44,65.34v.48h-.39V62.27h.38v1.55a1.09,1.09,0,0,1,1-.56,1.23,1.23,0,0,1,1.2,1.24v.06h0a1.23,1.23,0,0,1-1.16,1.3h0A1.15,1.15,0,0,1,132.44,65.34Zm1.78-.77h0a.91.91,0,0,0-.84-1h0a1,1,0,0,0-.91,1h0a.94.94,0,0,0,.9,1h0a.89.89,0,0,0,.89-.89v-.07Z"/><path class="cls-1" d="M135.23,64.58h0a1.31,1.31,0,0,1,2.62,0h0a1.31,1.31,0,0,1-1.3,1.31h0a1.3,1.3,0,0,1-1.3-1.28Zm2.23,0h0a1,1,0,0,0-.91-1h0a.94.94,0,0,0-.92.94v0h0a.94.94,0,0,0,.91,1h0a.92.92,0,0,0,.92-.93v0Z"/><path class="cls-1" d="M138.62,63.31H139V64a1.07,1.07,0,0,1,1-.69v.4h0c-.55,0-1,.39-1,1.15v1h-.38Z"/><path class="cls-1" d="M140.37,65.09h0c0-.54.44-.82,1.08-.82a2.45,2.45,0,0,1,.76.11V64.3c0-.45-.27-.68-.74-.68a1.64,1.64,0,0,0-.76.18l-.12-.31a2.1,2.1,0,0,1,.92-.21,1.09,1.09,0,0,1,.81.28,1,1,0,0,1,.26.73v1.54h-.37v-.37a1.11,1.11,0,0,1-.9.42.84.84,0,0,1-.93-.74A.09.09,0,0,1,140.37,65.09Zm1.85-.19v-.24a3.07,3.07,0,0,0-.73-.11c-.47,0-.74.21-.74.51h0c0,.32.29.5.63.5a.76.76,0,0,0,.84-.66Z"/><path class="cls-1" d="M143.58,65.15V63.64h-.35v-.33h.35v-.76H144v.76h.8v.33H144V65.1a.37.37,0,0,0,.32.42.17.17,0,0,0,.1,0,.78.78,0,0,0,.37-.09v.32a.81.81,0,0,1-.45.11.64.64,0,0,1-.71-.56A.38.38,0,0,1,143.58,65.15Z"/><path class="cls-1" d="M145.51,62.35h.43v.42h-.43Zm0,1h.37v2.51h-.37Z"/><path class="cls-1" d="M146.63,63.31h.42l.84,2.08.85-2.08h.4l-1.09,2.53h-.34Z"/><path class="cls-1" d="M150.79,65.56a1.08,1.08,0,0,0,.79-.35l.24.21a1.29,1.29,0,0,1-2.29-.91,1.31,1.31,0,0,1,1.19-1.25,1.21,1.21,0,0,1,1.18,1.34v.13h-2A.88.88,0,0,0,150.79,65.56Zm.73-1.14a.82.82,0,0,0-.8-.84h0a.85.85,0,0,0-.81.84Z"/><path class="cls-1" d="M154,63.31h.38V64a1.07,1.07,0,0,1,1-.69v.4h0a1,1,0,0,0-1,1.15v1H154Z"/><path class="cls-1" d="M157.08,65.56a1.08,1.08,0,0,0,.79-.35l.23.21a1.29,1.29,0,0,1-1,.47,1.32,1.32,0,0,1-.05-2.63,1.21,1.21,0,0,1,1.17,1.34v.13h-2A.87.87,0,0,0,157.08,65.56Zm.73-1.14a.82.82,0,0,0-.8-.84h0a.86.86,0,0,0-.82.84Z"/><path class="cls-1" d="M158.73,65.5l.19-.27a1.45,1.45,0,0,0,.87.32c.3,0,.52-.15.52-.4h0c0-.25-.29-.34-.62-.44s-.84-.25-.84-.69h0a.76.76,0,0,1,.79-.73h.07a1.69,1.69,0,0,1,.9.27l-.17.28a1.41,1.41,0,0,0-.74-.24c-.3,0-.49.15-.49.35h0c0,.24.32.35.65.43s.81.27.81.72h0c0,.48-.4.75-.9.75A1.7,1.7,0,0,1,158.73,65.5Z"/><path class="cls-1" d="M162.56,65.56a1.11,1.11,0,0,0,.8-.35l.23.21a1.31,1.31,0,1,1-1.09-2.16,1.21,1.21,0,0,1,1.17,1.34v.13h-2A.89.89,0,0,0,162.56,65.56Zm.74-1.14a.82.82,0,0,0-.8-.84h0a.86.86,0,0,0-.82.84Z"/><path class="cls-1" d="M164.24,65.09h0c0-.54.44-.82,1.07-.82a2.52,2.52,0,0,1,.77.11V64.3c0-.45-.27-.68-.74-.68a1.71,1.71,0,0,0-.77.18l-.11-.31a2.06,2.06,0,0,1,.91-.21,1.13,1.13,0,0,1,.82.28,1,1,0,0,1,.26.73v1.54h-.37v-.37a1.12,1.12,0,0,1-.9.42.84.84,0,0,1-.94-.74Zm1.84-.19v-.24a2.93,2.93,0,0,0-.73-.11c-.47,0-.73.21-.73.51h0c0,.32.29.5.63.5a.75.75,0,0,0,.83-.66Z"/><path class="cls-1" d="M167.34,63.31h.37V64a1.07,1.07,0,0,1,1-.69v.4h0a1,1,0,0,0-1,1.15v1h-.37Z"/><path class="cls-1" d="M169.14,64.58h0a1.3,1.3,0,0,1,1.3-1.31,1.33,1.33,0,0,1,1,.44l-.25.26a1,1,0,0,0-.76-.38.93.93,0,0,0-.9,1v0h0a.94.94,0,0,0,.91,1h0a1,1,0,0,0,.76-.37l.24.22a1.3,1.3,0,0,1-1.82.21,1.32,1.32,0,0,1-.49-1Z"/><path class="cls-1" d="M172.16,62.27h.38v1.47a1,1,0,0,1,.86-.49.92.92,0,0,1,1,.87.66.66,0,0,1,0,.14v1.56H174V64.35a.66.66,0,0,0-.57-.75h-.12a.75.75,0,0,0-.76.73v1.5h-.37Z"/><rect class="cls-2" x="57.29" y="36.15" width="5.57" height="21.21"/><path class="cls-3" d="M66.94,40.61v0a4.44,4.44,0,0,1,4.39-4.49h.16a4.21,4.21,0,0,1,3.66,1.8l-1.8,1.39a2.32,2.32,0,0,0-1.88-1,2.14,2.14,0,0,0-2.06,2.28v0a2.13,2.13,0,0,0,2.06,2.3,2.36,2.36,0,0,0,1.94-1l1.8,1.28a4.54,4.54,0,0,1-8.27-2.52Z"/><path class="cls-3" d="M75.52,43v0c0-1.4,1-2.09,2.61-2.09a5.17,5.17,0,0,1,1.61.26V41c0-.69-.43-1.08-1.34-1.08a4.79,4.79,0,0,0-1.83.37l-.48-1.65a6.56,6.56,0,0,1,2.7-.52,3.5,3.5,0,0,1,2.54.81A2.75,2.75,0,0,1,82,41.08V44.9h-2.3v-.69a2.54,2.54,0,0,1-2,.84A2,2,0,0,1,75.52,43Zm4.24-.5v-.31a2.2,2.2,0,0,0-.91-.17c-.7,0-1.07.34-1.07.82v0a.74.74,0,0,0,.74.74h.08a1.07,1.07,0,0,0,1.16-1Z"/><path class="cls-3" d="M83,38.23h2.35v.94a2.44,2.44,0,0,1,2-1.1,2.18,2.18,0,0,1,2.27,2.44v4.36H87.26V41.29c0-.73-.39-1.12-.94-1.12a1,1,0,0,0-1,1.12V44.9H83Z"/><path class="cls-3" d="M90.3,41.6v0a3.48,3.48,0,0,1,3.48-3.48h.1a3.15,3.15,0,0,1,2.84,1.48l-1.59,1.19a1.37,1.37,0,0,0-2.55.78h0v0a1.39,1.39,0,0,0,1.33,1.52,1.66,1.66,0,0,0,1.29-.7l1.56,1.13a3.3,3.3,0,0,1-3,1.53,3.44,3.44,0,0,1-3.49-3.39Z"/><path class="cls-3" d="M96.87,41.6v0a3.33,3.33,0,0,1,3.36-3.47c2.31,0,3.37,1.68,3.37,3.65v.48H99.13a1.38,1.38,0,0,0,1.44,1.09,2,2,0,0,0,1.48-.69l1.29,1.07a3.48,3.48,0,0,1-2.89,1.36A3.36,3.36,0,0,1,96.87,41.6Zm4.52-.58c-.09-.74-.52-1.21-1.16-1.21s-1,.48-1.16,1.21Z"/><path class="cls-3" d="M104.35,38.23h2.34v1.35a2.05,2.05,0,0,1,2.11-1.46v2.47h-.2c-1.22,0-1.91.69-1.91,2.24V44.9h-2.34Z"/><path class="cls-4" d="M111.9,40.61v0a4.48,4.48,0,0,1,4.64-4.49,5,5,0,0,1,3.5,1.28l-1.39,1.68a3.09,3.09,0,0,0-2.09-.81,2.26,2.26,0,0,0-2.2,2.32v.07A2.28,2.28,0,0,0,116.52,43h.18a2.35,2.35,0,0,0,1.39-.35v-1h-1.7V39.9h4v3.84a5.81,5.81,0,0,1-3.75,1.33A4.44,4.44,0,0,1,111.9,40.61Z"/><path class="cls-4" d="M121,41.6v0a3.33,3.33,0,0,1,3.36-3.47c2.31,0,3.37,1.68,3.37,3.65v.48h-4.48a1.4,1.4,0,0,0,1.45,1.09,2,2,0,0,0,1.47-.69l1.3,1.07a3.49,3.49,0,0,1-2.9,1.36A3.35,3.35,0,0,1,121,41.6Zm4.52-.58c-.09-.74-.52-1.21-1.16-1.21s-1,.48-1.16,1.21Z"/><path class="cls-4" d="M128.5,38.23h2.34v.94a2.48,2.48,0,0,1,2-1.1,2.17,2.17,0,0,1,2.26,2.44v4.36h-2.34V41.29c0-.73-.38-1.12-.93-1.12a1,1,0,0,0-1,1.12V44.9H128.5Z"/><path class="cls-4" d="M135.8,41.6v0a3.7,3.7,0,0,1,7.38,0v0a3.7,3.7,0,0,1-7.38,0Zm5.09,0v0a1.46,1.46,0,0,0-1.39-1.5h0a1.4,1.4,0,0,0-1.4,1.39.28.28,0,0,0,0,.09v0a1.44,1.44,0,0,0,1.38,1.51h0a1.39,1.39,0,0,0,1.39-1.39Z"/><path class="cls-4" d="M143.66,38.23H146v.92a2.46,2.46,0,0,1,2-1,2,2,0,0,1,1.92,1.09,2.8,2.8,0,0,1,2.23-1.12,2.17,2.17,0,0,1,2.28,2.44v4.37h-2.34v-3.6c0-.73-.35-1.11-.91-1.11s-1,.38-1,1.11V44.9h-2.34V41.28c0-.73-.34-1.11-.91-1.11s-.95.38-.95,1.11V44.9h-2.34Z"/><path class="cls-4" d="M155.11,41.6v0a3.33,3.33,0,0,1,3.36-3.47c2.31,0,3.37,1.68,3.37,3.65v.48h-4.47a1.38,1.38,0,0,0,1.44,1.09,2,2,0,0,0,1.48-.69l1.29,1.07a3.48,3.48,0,0,1-2.89,1.36A3.36,3.36,0,0,1,155.11,41.6Zm4.52-.58a1.19,1.19,0,0,0-1.16-1.21c-.64,0-1,.48-1.15,1.21Z"/><path class="cls-4" d="M66.94,52.71v0a4.43,4.43,0,0,1,4.38-4.49h.17A4.23,4.23,0,0,1,75.15,50l-1.8,1.4a2.3,2.3,0,0,0-1.88-1,2.14,2.14,0,0,0-2.06,2.29v0A2.14,2.14,0,0,0,71.47,55a2.34,2.34,0,0,0,1.94-1.05l1.8,1.29a4.54,4.54,0,0,1-8.27-2.52Z"/><path class="cls-4" d="M75.2,52.71v0a4.52,4.52,0,0,1,4.66-4.48,4.47,4.47,0,0,1,4.63,4.46v0a4.65,4.65,0,0,1-9.29,0Zm6.85,0v0a2.24,2.24,0,0,0-2.15-2.33h-.07a2.21,2.21,0,0,0-2.18,2.22v.11A2.24,2.24,0,0,0,79.8,55h.06a2.2,2.2,0,0,0,2.2-2.21A.28.28,0,0,0,82.05,52.71Z"/><path class="cls-4" d="M85.24,48.38h2.4v6.53h4.17V57H85.24Z"/><path class="cls-4" d="M92.59,48.38H95v6.53h4.18V57H92.59Z"/><path class="cls-4" d="M102.68,48.31H105l3.67,8.7h-2.56l-.63-1.54h-3.33L101.51,57H99Zm2.08,5.29-1-2.43-1,2.43Z"/><path class="cls-4" d="M109.24,48.38h4.43a3.22,3.22,0,0,1,2.36.77,1.9,1.9,0,0,1,.55,1.39v0a2,2,0,0,1-1.33,1.92A2.1,2.1,0,0,1,117,54.6v0c0,1.47-1.21,2.37-3.27,2.37h-4.45Zm3.83,3.43c.73,0,1.14-.24,1.14-.75v0c0-.47-.37-.74-1.09-.74h-1.55v1.51Zm.35,3.27c.73,0,1.14-.28,1.14-.79v0c0-.47-.36-.78-1.17-.78h-1.82v1.59Z"/><path class="cls-4" d="M117.27,52.71v0a4.52,4.52,0,0,1,4.66-4.48,4.47,4.47,0,0,1,4.63,4.46v0a4.65,4.65,0,0,1-9.29,0Zm6.85,0v0A2.24,2.24,0,0,0,122,50.35h-.07a2.2,2.2,0,0,0-2.18,2.22v.11A2.24,2.24,0,0,0,121.87,55h.06a2.2,2.2,0,0,0,2.2-2.21A.28.28,0,0,0,124.12,52.71Z"/><path class="cls-4" d="M127.07,48.38h4.08a3.77,3.77,0,0,1,2.81.93,2.73,2.73,0,0,1,.77,2v0A2.74,2.74,0,0,1,133,54L135,57h-2.76l-1.74-2.61h-1V57h-2.4Zm4,4.14c.81,0,1.28-.4,1.28-1v0c0-.68-.49-1-1.29-1h-1.57v2.08Z"/><path class="cls-4" d="M138.26,48.31h2.31l3.67,8.7h-2.56l-.63-1.54h-3.33L137.1,57h-2.51Zm2.09,5.29-1-2.43-1,2.43Z"/><path class="cls-4" d="M145.58,50.47H143V48.38h7.56v2.09H148V57h-2.39Z"/><path class="cls-4" d="M150.2,52.71v0a4.52,4.52,0,0,1,4.67-4.48,4.47,4.47,0,0,1,4.63,4.46v0a4.52,4.52,0,0,1-4.66,4.49A4.48,4.48,0,0,1,150.2,52.71Zm6.86,0v0a2.24,2.24,0,0,0-2.15-2.33h-.07a2.21,2.21,0,0,0-2.19,2.22.28.28,0,0,1,0,.09v0A2.24,2.24,0,0,0,154.81,55h.06a2.2,2.2,0,0,0,2.19-2.2Z"/><path class="cls-4" d="M160.25,48.38h4.08a3.77,3.77,0,0,1,2.81.93,2.68,2.68,0,0,1,.77,2v0A2.74,2.74,0,0,1,166.13,54l2.06,3h-2.76l-1.74-2.61h-1V57h-2.39Zm4,4.14c.81,0,1.28-.4,1.28-1v0c0-.68-.49-1-1.29-1h-1.57v2.08Z"/><path class="cls-4" d="M170.8,53.78l-3.26-5.4h2.72L172,51.51l1.78-3.13h2.68l-3.29,5.35V57H170.8Z"/><path class="cls-3" d="M32.44,14.41A30.28,30.28,0,0,0,23.5,34.83h5.57A25.09,25.09,0,0,1,53.9,11V5.37A30.51,30.51,0,0,0,32.44,14.41Z"/><path class="cls-5" d="M36.37,53.66a24.77,24.77,0,0,1-7.3-16.22H23.5A30.6,30.6,0,0,0,53.89,66.57V61A24.83,24.83,0,0,1,36.37,53.66Z"/><path class="cls-6" d="M38.32,36A15.79,15.79,0,0,1,53.9,20.21V14.64a21.33,21.33,0,0,0,0,42.66V51.73A15.8,15.8,0,0,1,38.32,36Z"/><path class="cls-7" d="M47.76,37.44H42.12A12.11,12.11,0,0,0,53.9,48.08V42.45A6.4,6.4,0,0,1,47.76,37.44Z"/><path class="cls-8" d="M42.09,34.83h5.63a6.38,6.38,0,0,1,6.18-5.28V24A12.07,12.07,0,0,0,42.09,34.83Z"/></svg>