<svg width="233" height="230" viewBox="0 0 233 230" fill="none" xmlns="http://www.w3.org/2000/svg">
<path fill-rule="evenodd" clip-rule="evenodd" d="M123.762 52.4535L74.0001 80.4842V115.747C74.3725 138.847 90.218 157.89 111.253 163.413C115.535 164.538 120.032 165.102 124.658 165.025C151.334 164.573 172.852 142.872 173.3 115.973V80.4842L123.762 52.4535Z" fill="#00A1D9"/>
<path fill-rule="evenodd" clip-rule="evenodd" d="M123.362 67.464L84.9694 88.8471V115.789C84.9694 136.956 102.127 154.063 123.362 154.063C144.596 154.063 161.754 136.956 161.754 115.789V88.8471L123.362 67.464Z" fill="#04518C"/>
<path fill-rule="evenodd" clip-rule="evenodd" d="M121.843 130.97L101.595 110.644C99.4414 108.483 99.4414 104.979 101.595 102.82C103.748 100.658 107.235 100.658 109.389 102.82L121.843 115.322L159.851 77.167C162.004 75.0063 165.493 75.0063 167.645 77.167C169.797 79.3277 169.797 82.8319 167.645 84.9908L121.843 130.97Z" fill="#00A1D9"/>
<path fill-rule="evenodd" clip-rule="evenodd" d="M153.449 196.528C153.709 193.698 151.869 191.167 149.335 190.876C146.803 190.584 144.538 192.643 144.278 195.474C144.017 198.304 145.859 200.834 148.392 201.126C150.924 201.417 153.189 199.358 153.449 196.528Z" fill="#04518C"/>
<path fill-rule="evenodd" clip-rule="evenodd" d="M20.0195 132.584C20.341 129.455 18.066 126.658 14.9383 126.336C11.809 126.015 9.01195 128.29 8.69045 131.419C8.36742 134.547 10.6439 137.344 13.7717 137.665C16.9009 137.988 19.698 135.713 20.0195 132.584Z" fill="#04518C"/>
<path fill-rule="evenodd" clip-rule="evenodd" d="M124.512 200.069C120.201 200.069 115.881 199.849 111.564 199.407C69.2645 195.086 32.4179 170.035 12.9989 132.4L14.3123 131.73C33.5038 168.922 69.916 193.677 111.715 197.949C124.181 199.221 136.67 198.632 148.844 196.193L149.135 197.633C141.035 199.255 132.792 200.069 124.512 200.069Z" fill="#04518C"/>
<path fill-rule="evenodd" clip-rule="evenodd" d="M139.342 221.437C139.848 216.52 136.272 212.126 131.356 211.62C126.441 211.114 122.045 214.69 121.539 219.605C121.034 224.522 124.609 228.918 129.525 229.423C134.442 229.929 138.836 226.354 139.342 221.437Z" fill="#04518C"/>
<path fill-rule="evenodd" clip-rule="evenodd" d="M80.2296 30.953C80.6736 26.6325 77.5329 22.7695 73.2127 22.3255C68.8926 21.8815 65.0299 25.0225 64.5844 29.3429C64.1404 33.6634 67.2826 37.5264 71.6028 37.9704C75.9229 38.4159 79.7856 35.2735 80.2296 30.953Z" fill="#04518C"/>
<path fill-rule="evenodd" clip-rule="evenodd" d="M132.252 222.962C130.645 222.867 129.024 222.738 127.432 222.572C98.5443 219.61 72.5458 205.614 54.2208 183.162C35.8959 160.709 27.442 132.488 30.4139 103.698C33.4392 74.3964 47.8593 48.1783 71.0191 29.877L71.9402 31.0326C49.0943 49.086 34.8697 74.9469 31.8859 103.848C28.9539 132.248 37.2938 160.084 55.3685 182.23C73.4432 204.377 99.0892 218.184 127.583 221.105C129.154 221.268 130.753 221.394 132.339 221.489L132.252 222.962Z" fill="#04518C"/>
<path fill-rule="evenodd" clip-rule="evenodd" d="M231.392 82.4473C231.15 78.8611 228.048 76.1504 224.462 76.3921C220.876 76.6337 218.165 79.7374 218.406 83.3221C218.648 86.9083 221.75 89.619 225.337 89.3774C228.923 89.1357 231.633 86.0335 231.392 82.4473Z" fill="#04518C"/>
<path fill-rule="evenodd" clip-rule="evenodd" d="M169.194 12.0657C169.083 10.4218 167.661 9.18003 166.017 9.29089C164.374 9.4014 163.131 10.8236 163.242 12.4675C163.353 14.11 164.775 15.3532 166.419 15.2423C168.063 15.1314 169.304 13.7096 169.194 12.0657Z" fill="#04518C"/>
<path fill-rule="evenodd" clip-rule="evenodd" d="M225.624 83.2631L224.174 83.0343C224.824 78.6244 224.995 74.1058 224.68 69.6054C222.486 38.2302 197.473 13.5825 166.499 12.2724L166.55 10.7865C198.277 12.1282 223.897 37.3743 226.143 69.5106C226.465 74.1195 226.292 78.7463 225.624 83.2631Z" fill="#04518C"/>
<path fill-rule="evenodd" clip-rule="evenodd" d="M222.373 165.741C222.373 164.095 221.038 162.758 219.389 162.758C217.742 162.758 216.407 164.095 216.407 165.741C216.407 167.388 217.742 168.725 219.389 168.725C221.038 168.725 222.373 167.388 222.373 165.741Z" fill="#04518C"/>
<path fill-rule="evenodd" clip-rule="evenodd" d="M15.1865 61.3346C15.1865 57.1419 11.7871 53.7413 7.59246 53.7413C3.39936 53.7413 0 57.1419 0 61.3346C0 65.5272 3.39936 68.9278 7.59246 68.9278C11.7871 68.9278 15.1865 65.5272 15.1865 61.3346Z" fill="#04518C"/>
</svg>
