<svg id="Hor_-_UD" data-name="Hor - UD" xmlns="http://www.w3.org/2000/svg" xmlns:xlink="http://www.w3.org/1999/xlink" viewBox="0 0 280.21 58.2"><defs><style>.cls-1,.cls-2{fill:none;}.cls-1{clip-rule:evenodd;}.cls-3{clip-path:url(#clip-path);}.cls-4{clip-path:url(#clip-path-2);}.cls-5{fill:#d1d1d1;}.cls-6{clip-path:url(#clip-path-3);}.cls-7{clip-path:url(#clip-path-4);}.cls-18,.cls-8{fill:#fff;}.cls-9{fill:#47d9bf;}.cls-10{clip-path:url(#clip-path-5);}.cls-11{clip-path:url(#clip-path-6);}.cls-12{clip-path:url(#clip-path-7);}.cls-13{clip-path:url(#clip-path-8);}.cls-14{clip-path:url(#clip-path-9);}.cls-15{clip-path:url(#clip-path-10);}.cls-16{clip-path:url(#clip-path-11);}.cls-17{clip-path:url(#clip-path-12);}.cls-18{opacity:0;}.cls-19{clip-path:url(#clip-path-13);}.cls-20{clip-path:url(#clip-path-14);}.cls-21{clip-path:url(#clip-path-15);}.cls-22{clip-path:url(#clip-path-16);}.cls-23{fill:#9b9b9b;}.cls-24{fill:#24bca1;}</style><clipPath id="clip-path" transform="translate(-1.18 2.67)"><path class="cls-1" d="M109.92,15H243.33c.51,0,.92.67.92,1.5s-.41,1.5-.92,1.5H109.92c-.51,0-.92-.67-.92-1.5S109.41,15,109.92,15Z"/></clipPath><clipPath id="clip-path-2" transform="translate(-1.18 2.67)"><rect class="cls-2" x="43.52" y="-257.98" width="649.32" height="1088"/></clipPath><clipPath id="clip-path-3" transform="translate(-1.18 2.67)"><path class="cls-1" d="M29,15H99.51c.27,0,.49.67.49,1.5s-.22,1.5-.49,1.5H29c-.27,0-.49-.67-.49-1.5S28.72,15,29,15Z"/></clipPath><clipPath id="clip-path-4" transform="translate(-1.18 2.67)"><rect class="cls-2" x="-25.82" y="-257.98" width="538.61" height="1088"/></clipPath><clipPath id="clip-path-5" transform="translate(-1.18 2.67)"><circle class="cls-2" cx="34.5" cy="16.52" r="10"/></clipPath><clipPath id="clip-path-6" transform="translate(-1.18 2.67)"><rect class="cls-2" x="-79.5" y="-257.48" width="1061" height="1088"/></clipPath><clipPath id="clip-path-7" transform="translate(-1.18 2.67)"><circle class="cls-2" cx="104" cy="16.52" r="10"/></clipPath><clipPath id="clip-path-8" transform="translate(-1.18 2.67)"><rect class="cls-2" x="-84" y="-257.48" width="1061" height="1088"/></clipPath><clipPath id="clip-path-9" transform="translate(-1.18 2.67)"><circle class="cls-2" cx="174" cy="16.33" r="10"/></clipPath><clipPath id="clip-path-10" transform="translate(-1.18 2.67)"><rect class="cls-2" x="-88" y="-257.67" width="1061" height="1088"/></clipPath><clipPath id="clip-path-11" transform="translate(-1.18 2.67)"><circle class="cls-2" cx="249" cy="16.33" r="14"/></clipPath><clipPath id="clip-path-12" transform="translate(-1.18 2.67)"><rect class="cls-2" x="-92" y="-257.67" width="1061" height="1088"/></clipPath><clipPath id="clip-path-13" transform="translate(-1.18 2.67)"><circle class="cls-2" cx="249" cy="16.52" r="10"/></clipPath><clipPath id="clip-path-14" transform="translate(-1.18 2.67)"><rect class="cls-2" x="-92" y="-257.48" width="1061" height="1088"/></clipPath><clipPath id="clip-path-15" transform="translate(-1.18 2.67)"><polygon class="cls-1" points="36.58 14.19 36.12 14.65 33.67 17.1 32.82 16.43 32.31 16.02 31.5 17.04 32.01 17.45 33.31 18.49 33.77 18.85 34.18 18.44 37.04 15.57 37.5 15.11 36.58 14.19"/></clipPath><clipPath id="clip-path-16" transform="translate(-1.18 2.67)"><rect class="cls-2" x="-80.5" y="-257.81" width="1061" height="1088"/></clipPath></defs><title>progress-horizontal-UD</title><g class="cls-3"><g class="cls-4"><rect class="cls-5" x="104.76" y="12.69" width="141.37" height="13"/></g></g><g class="cls-6"><g class="cls-7"><rect class="cls-5" x="24.78" y="12.69" width="117.27" height="13"/></g></g><circle class="cls-8" cx="33.32" cy="19.14" r="14"/><path class="cls-9" d="M34.5,31.48a15,15,0,1,1,15-15A15,15,0,0,1,34.5,31.48Zm0-28a13,13,0,1,0,13,13A13,13,0,0,0,34.5,3.48Z" transform="translate(-1.18 2.67)"/><g class="cls-10"><g class="cls-11"><rect class="cls-9" x="18.32" y="4.19" width="30" height="30"/></g></g><g class="cls-12"><g class="cls-13"><rect class="cls-5" x="87.82" y="4.19" width="30" height="30"/></g></g><g class="cls-14"><g class="cls-15"><rect class="cls-5" x="157.82" y="4" width="30" height="30"/></g></g><g class="cls-16"><g class="cls-17"><rect class="cls-18" x="228.82" width="38" height="38"/></g></g><g class="cls-19"><g class="cls-20"><rect class="cls-5" x="232.82" y="4.19" width="30" height="30"/></g></g><g class="cls-21"><g class="cls-22"><rect class="cls-8" x="25.32" y="11.86" width="16" height="14.66"/></g></g><path class="cls-23" d="M233.36,43.79a3,3,0,0,0,.71-.07,2.66,2.66,0,0,0,.58-.21V42.33h-.81a.29.29,0,0,1-.19-.06.26.26,0,0,1-.07-.16v-.69h2.17v2.64a4,4,0,0,1-.52.31,2.94,2.94,0,0,1-.57.22,4.17,4.17,0,0,1-.65.12,5.78,5.78,0,0,1-.75,0,3.42,3.42,0,0,1-1.3-.25,3.1,3.1,0,0,1-1-.69,3,3,0,0,1-.68-1,3.67,3.67,0,0,1-.25-1.34,3.59,3.59,0,0,1,.24-1.34,3.16,3.16,0,0,1,.68-1.06,3.07,3.07,0,0,1,1.06-.68,3.93,3.93,0,0,1,1.41-.24,3.63,3.63,0,0,1,1.38.23,3,3,0,0,1,1,.62l-.35.55a.31.31,0,0,1-.27.16.38.38,0,0,1-.22-.07l-.3-.17a1.66,1.66,0,0,0-.33-.15,2.24,2.24,0,0,0-.41-.1,2.68,2.68,0,0,0-.52,0,2.21,2.21,0,0,0-.87.16,2,2,0,0,0-.67.46,2.09,2.09,0,0,0-.42.73,2.77,2.77,0,0,0-.15.94,2.8,2.8,0,0,0,.16,1,2,2,0,0,0,.44.74,1.83,1.83,0,0,0,.67.46A2.23,2.23,0,0,0,233.36,43.79Z" transform="translate(-1.18 2.67)"/><path class="cls-23" d="M241.21,38.18v1h-2.89V41h2.28v.93h-2.28v1.84h2.89v1H237.1v-6.5Z" transform="translate(-1.18 2.67)"/><path class="cls-23" d="M243.25,38.18l.1,0a.21.21,0,0,1,.08.06l.09.1,3.42,4.35c0-.1,0-.21,0-.31s0-.19,0-.28v-4H248v6.5h-.62a.55.55,0,0,1-.24,0,.47.47,0,0,1-.19-.16l-3.4-4.34c0,.1,0,.2,0,.29s0,.18,0,.26v4h-1.07v-6.5h.77Z" transform="translate(-1.18 2.67)"/><path class="cls-23" d="M253.61,38.18v1h-2.88V41H253v.93h-2.27v1.84h2.88v1h-4.1v-6.5Z" transform="translate(-1.18 2.67)"/><path class="cls-23" d="M256.14,42.14v2.54h-1.21v-6.5h2a3.78,3.78,0,0,1,1.14.14,2,2,0,0,1,.78.38,1.61,1.61,0,0,1,.45.59,2.06,2.06,0,0,1,.14.76,1.79,1.79,0,0,1-.1.62,1.68,1.68,0,0,1-.28.53,1.81,1.81,0,0,1-.45.42,2.29,2.29,0,0,1-.61.29,1.18,1.18,0,0,1,.4.37l1.63,2.4h-1.09a.54.54,0,0,1-.27-.06.64.64,0,0,1-.19-.18l-1.36-2.08a.46.46,0,0,0-.17-.17.62.62,0,0,0-.27,0Zm0-.87h.75a1.82,1.82,0,0,0,.6-.08,1.22,1.22,0,0,0,.42-.24.88.88,0,0,0,.24-.36,1.06,1.06,0,0,0,.09-.45.92.92,0,0,0-.33-.76,1.55,1.55,0,0,0-1-.27h-.77Z" transform="translate(-1.18 2.67)"/><path class="cls-23" d="M266.73,44.68h-.94a.44.44,0,0,1-.26-.07.46.46,0,0,1-.14-.2l-.49-1.33h-2.7l-.48,1.33a.49.49,0,0,1-.14.19.38.38,0,0,1-.26.08h-.94l2.55-6.5h1.24Zm-4.22-2.45h2.08l-.79-2.17a3.24,3.24,0,0,1-.12-.34,4.17,4.17,0,0,1-.13-.42l-.12.43c0,.13-.08.24-.12.34Z" transform="translate(-1.18 2.67)"/><path class="cls-23" d="M268.83,43.69h2.61v1h-3.82v-6.5h1.21Z" transform="translate(-1.18 2.67)"/><path class="cls-23" d="M226.34,55.48h-.94a.39.39,0,0,1-.25-.07.48.48,0,0,1-.15-.2l-.49-1.33h-2.69l-.49,1.33a.41.41,0,0,1-.14.19.38.38,0,0,1-.26.08H220l2.56-6.5h1.23ZM222.13,53h2.07l-.79-2.17a3.24,3.24,0,0,1-.12-.34c0-.13-.08-.27-.13-.42l-.12.43c0,.13-.08.24-.12.34Z" transform="translate(-1.18 2.67)"/><path class="cls-23" d="M225.84,49h1a.42.42,0,0,1,.26.07.59.59,0,0,1,.15.2l1.53,4a3.62,3.62,0,0,1,.14.43c.05.15.09.31.14.48a6.25,6.25,0,0,1,.25-.91l1.53-4a.49.49,0,0,1,.14-.19.45.45,0,0,1,.26-.08h1l-2.63,6.5h-1.1Z" transform="translate(-1.18 2.67)"/><path class="cls-23" d="M238.05,55.48h-.94a.44.44,0,0,1-.26-.07.56.56,0,0,1-.14-.2l-.49-1.33h-2.69L233,55.21a.41.41,0,0,1-.14.19.38.38,0,0,1-.26.08h-.94l2.56-6.5h1.23ZM233.84,53h2.07l-.79-2.17a3.24,3.24,0,0,1-.12-.34c0-.13-.09-.27-.13-.42l-.12.43c0,.13-.08.24-.12.34Z" transform="translate(-1.18 2.67)"/><path class="cls-23" d="M240.31,55.48h-1.22V49h1.22Z" transform="translate(-1.18 2.67)"/><path class="cls-23" d="M243.21,54.49h2.6v1H242V49h1.21Z" transform="translate(-1.18 2.67)"/><path class="cls-23" d="M252.59,55.48h-.93a.42.42,0,0,1-.26-.07.48.48,0,0,1-.15-.2l-.48-1.33h-2.7l-.49,1.33a.41.41,0,0,1-.14.19.37.37,0,0,1-.26.08h-.94L248.8,49H250ZM248.38,53h2.08l-.8-2.17c0-.09-.07-.21-.12-.34l-.12-.42c0,.15-.09.29-.13.43s-.08.24-.12.34Z" transform="translate(-1.18 2.67)"/><path class="cls-23" d="M253.49,55.48V49h2.24a4.4,4.4,0,0,1,1.1.12,2,2,0,0,1,.74.35A1.37,1.37,0,0,1,258,50a1.81,1.81,0,0,1,.14.72,1.31,1.31,0,0,1-.07.44,1.06,1.06,0,0,1-.21.39,1.45,1.45,0,0,1-.36.33,2.1,2.1,0,0,1-.52.25c.9.2,1.34.69,1.34,1.45a2,2,0,0,1-.15.77,1.79,1.79,0,0,1-.46.6,2.23,2.23,0,0,1-.75.4,3.1,3.1,0,0,1-1,.14Zm1.21-3.69h1a1.6,1.6,0,0,0,.93-.22.8.8,0,0,0,.32-.72.82.82,0,0,0-.29-.72,1.52,1.52,0,0,0-.9-.22h-1Zm0,.84v1.91h1.23a1.79,1.79,0,0,0,.56-.08,1.1,1.1,0,0,0,.37-.22.77.77,0,0,0,.19-.31,1,1,0,0,0,.07-.38,1.18,1.18,0,0,0-.07-.39.83.83,0,0,0-.21-.28,1.17,1.17,0,0,0-.37-.19,2.15,2.15,0,0,0-.55-.06Z" transform="translate(-1.18 2.67)"/><path class="cls-23" d="M260.94,55.48h-1.21V49h1.21Z" transform="translate(-1.18 2.67)"/><path class="cls-23" d="M263.84,54.49h2.6v1h-3.81V49h1.21Z" transform="translate(-1.18 2.67)"/><path class="cls-23" d="M268.87,55.48h-1.22V49h1.22Z" transform="translate(-1.18 2.67)"/><path class="cls-23" d="M275.14,49v1h-1.95v5.51H272V50h-2V49Z" transform="translate(-1.18 2.67)"/><path class="cls-23" d="M279,53v2.52h-1.21V53l-2.37-4h1.07a.36.36,0,0,1,.24.07.62.62,0,0,1,.16.2l1.19,2.17c.07.13.13.25.18.37s.1.23.14.34c0-.12.09-.23.14-.35a2.84,2.84,0,0,1,.17-.36l1.19-2.17a.53.53,0,0,1,.15-.19.37.37,0,0,1,.25-.08h1.07Z" transform="translate(-1.18 2.67)"/><path class="cls-23" d="M156.29,42.12v2.54h-1.21V38.15h2a4.18,4.18,0,0,1,1.14.14,2,2,0,0,1,.78.39,1.53,1.53,0,0,1,.45.59,2.06,2.06,0,0,1,.14.76,1.87,1.87,0,0,1-.1.62,1.83,1.83,0,0,1-.73,1,2.28,2.28,0,0,1-.61.28,1.31,1.31,0,0,1,.4.38l1.63,2.4h-1.09a.54.54,0,0,1-.27-.06.65.65,0,0,1-.19-.18l-1.36-2.09a.62.62,0,0,0-.17-.16.54.54,0,0,0-.28-.05Zm0-.87H157a1.8,1.8,0,0,0,.6-.09,1.06,1.06,0,0,0,.42-.23.88.88,0,0,0,.24-.36,1.12,1.12,0,0,0,.08-.45,1,1,0,0,0-.32-.77,1.62,1.62,0,0,0-1-.26h-.77Z" transform="translate(-1.18 2.67)"/><path class="cls-23" d="M165.26,38.15v1h-2.88v1.8h2.27v.93h-2.27v1.84h2.88v1h-4.1V38.15Z" transform="translate(-1.18 2.67)"/><path class="cls-23" d="M167.74,43.66h2.61v1h-3.82V38.15h1.21Z" transform="translate(-1.18 2.67)"/><path class="cls-23" d="M175.52,38.15v1h-2.89v1.8h2.27v.93h-2.27v1.84h2.89v1h-4.11V38.15Z" transform="translate(-1.18 2.67)"/><path class="cls-23" d="M182.51,44.66h-.94a.45.45,0,0,1-.26-.08.52.52,0,0,1-.14-.19l-.49-1.33H178l-.49,1.33a.39.39,0,0,1-.14.18.39.39,0,0,1-.26.09h-.94l2.55-6.51H180ZM178.3,42.2h2.07L179.58,40c0-.1-.08-.21-.12-.34s-.09-.27-.13-.43c0,.16-.08.3-.12.43s-.08.25-.12.35Z" transform="translate(-1.18 2.67)"/><path class="cls-23" d="M186.89,39.34a.4.4,0,0,1-.11.14.42.42,0,0,1-.16,0,.44.44,0,0,1-.2-.07l-.27-.16a1.6,1.6,0,0,0-.35-.15,1.45,1.45,0,0,0-.49-.07,1.46,1.46,0,0,0-.44.06.78.78,0,0,0-.31.17.58.58,0,0,0-.19.25.8.8,0,0,0-.07.34.6.6,0,0,0,.13.38,1.14,1.14,0,0,0,.34.26,2.67,2.67,0,0,0,.48.19l.55.18a5.48,5.48,0,0,1,.56.23,2,2,0,0,1,.48.32,1.54,1.54,0,0,1,.34.48,1.77,1.77,0,0,1,.13.69,2.27,2.27,0,0,1-.16.83,1.86,1.86,0,0,1-.44.67,2.05,2.05,0,0,1-.71.45,2.52,2.52,0,0,1-.95.16,3.26,3.26,0,0,1-.62-.06,3.43,3.43,0,0,1-.57-.17,3.63,3.63,0,0,1-.52-.27,2.52,2.52,0,0,1-.43-.35l.35-.58a.32.32,0,0,1,.12-.11.28.28,0,0,1,.15,0,.45.45,0,0,1,.25.09l.31.21a2.24,2.24,0,0,0,.41.2,1.68,1.68,0,0,0,.58.09,1.19,1.19,0,0,0,.8-.24.9.9,0,0,0,.29-.71.7.7,0,0,0-.13-.42,1.35,1.35,0,0,0-.34-.27,3.69,3.69,0,0,0-.48-.19l-.55-.16a3.71,3.71,0,0,1-.55-.22,1.58,1.58,0,0,1-.48-.33,1.39,1.39,0,0,1-.34-.5,1.83,1.83,0,0,1-.13-.75,1.81,1.81,0,0,1,.14-.69,1.67,1.67,0,0,1,.42-.6,1.87,1.87,0,0,1,.66-.42,2.38,2.38,0,0,1,.91-.16,3,3,0,0,1,1.06.18,2.56,2.56,0,0,1,.83.5Z" transform="translate(-1.18 2.67)"/><path class="cls-23" d="M192.56,38.15v1h-2.88v1.8H192v.93h-2.27v1.84h2.88v1h-4.1V38.15Z" transform="translate(-1.18 2.67)"/><path class="cls-23" d="M152.14,53.93a.23.23,0,0,1,.17.07l.48.52a2.58,2.58,0,0,1-1,.75,3.41,3.41,0,0,1-1.39.26,3.21,3.21,0,0,1-1.3-.25,3,3,0,0,1-1-.68,3,3,0,0,1-.62-1.06,3.83,3.83,0,0,1-.22-1.33,3.68,3.68,0,0,1,.24-1.35,3.22,3.22,0,0,1,.68-1,3.16,3.16,0,0,1,1.06-.68,3.51,3.51,0,0,1,1.36-.25,3.26,3.26,0,0,1,1.26.23,3,3,0,0,1,.93.62l-.4.56a.38.38,0,0,1-.09.09.25.25,0,0,1-.16,0,.31.31,0,0,1-.21-.08l-.28-.17a2.11,2.11,0,0,0-.42-.18,2.27,2.27,0,0,0-.64-.08,2.15,2.15,0,0,0-.85.16,2,2,0,0,0-.66.46,2.16,2.16,0,0,0-.43.72,2.84,2.84,0,0,0-.16,1,2.9,2.9,0,0,0,.16,1,2,2,0,0,0,.42.72,1.74,1.74,0,0,0,.63.45,2,2,0,0,0,.77.16,3.09,3.09,0,0,0,.45,0,2.22,2.22,0,0,0,.37-.09,1.87,1.87,0,0,0,.32-.15,1.91,1.91,0,0,0,.3-.22L152,54A.2.2,0,0,1,152.14,53.93Z" transform="translate(-1.18 2.67)"/><path class="cls-23" d="M159.64,55.46h-.93a.42.42,0,0,1-.26-.08.45.45,0,0,1-.15-.19l-.48-1.33h-2.7l-.48,1.33a.5.5,0,0,1-.15.18.37.37,0,0,1-.26.09h-.94L155.85,49h1.24ZM155.43,53h2.08l-.8-2.16-.11-.34a3.68,3.68,0,0,1-.13-.43l-.13.43c0,.13-.08.25-.12.35Z" transform="translate(-1.18 2.67)"/><path class="cls-23" d="M161.31,49a.17.17,0,0,1,.1,0l.08.06a.3.3,0,0,1,.09.1L165,53.5c0-.11,0-.21,0-.31s0-.19,0-.28V49H166v6.51h-.63a.52.52,0,0,1-.23-.05.47.47,0,0,1-.19-.16l-3.4-4.33c0,.1,0,.19,0,.28s0,.19,0,.26v4h-1.07V49h.77Z" transform="translate(-1.18 2.67)"/><path class="cls-23" d="M173.35,52.21a3.51,3.51,0,0,1-.24,1.31,3,3,0,0,1-.67,1,3.05,3.05,0,0,1-1,.67,3.68,3.68,0,0,1-1.35.24h-2.48V49h2.48a3.68,3.68,0,0,1,1.35.24,3.21,3.21,0,0,1,1,.67,3,3,0,0,1,.67,1A3.52,3.52,0,0,1,173.35,52.21Zm-1.24,0a3.13,3.13,0,0,0-.14-1,2.09,2.09,0,0,0-.41-.72,1.88,1.88,0,0,0-.65-.46,2.31,2.31,0,0,0-.86-.15h-1.26V54.5h1.26a2.31,2.31,0,0,0,.86-.16,2,2,0,0,0,.65-.45,2.3,2.3,0,0,0,.41-.72A3.22,3.22,0,0,0,172.11,52.21Z" transform="translate(-1.18 2.67)"/><path class="cls-23" d="M175.88,55.46h-1.21V49h1.21Z" transform="translate(-1.18 2.67)"/><path class="cls-23" d="M183.35,52.21a3.51,3.51,0,0,1-.24,1.31,3,3,0,0,1-.67,1,3,3,0,0,1-1,.67,3.59,3.59,0,0,1-1.34.24h-2.49V49h2.49a3.59,3.59,0,0,1,1.34.24,3.11,3.11,0,0,1,1,.67,3,3,0,0,1,.67,1A3.52,3.52,0,0,1,183.35,52.21Zm-1.24,0a3.13,3.13,0,0,0-.14-1,1.94,1.94,0,0,0-.41-.72,1.79,1.79,0,0,0-.65-.46,2.3,2.3,0,0,0-.85-.15h-1.27V54.5h1.27a2.3,2.3,0,0,0,.85-.16,1.89,1.89,0,0,0,.65-.45,2.12,2.12,0,0,0,.41-.72A3.22,3.22,0,0,0,182.11,52.21Z" transform="translate(-1.18 2.67)"/><path class="cls-23" d="M190,55.46h-.94a.42.42,0,0,1-.26-.08.45.45,0,0,1-.15-.19l-.48-1.33h-2.7L185,55.19a.41.41,0,0,1-.15.18.37.37,0,0,1-.25.09h-.94L186.22,49h1.24ZM185.8,53h2.08l-.79-2.16c0-.1-.08-.21-.12-.34a3.68,3.68,0,0,1-.13-.43c0,.16-.09.3-.13.43l-.11.35Z" transform="translate(-1.18 2.67)"/><path class="cls-23" d="M194.84,49v1h-2v5.51h-1.21V50h-2V49Z" transform="translate(-1.18 2.67)"/><path class="cls-23" d="M199.93,49v1h-2.88v1.8h2.27v.93h-2.27v1.84h2.88v1h-4.1V49Z" transform="translate(-1.18 2.67)"/><path class="cls-23" d="M93.94,44.66V38.15h2.24a4.26,4.26,0,0,1,1.09.12,2.37,2.37,0,0,1,.75.35,1.33,1.33,0,0,1,.42.55,1.81,1.81,0,0,1,.14.72,1.55,1.55,0,0,1-.07.43,1.71,1.71,0,0,1-.21.4,1.91,1.91,0,0,1-.36.33,2.28,2.28,0,0,1-.52.25c.89.2,1.34.68,1.34,1.45a1.76,1.76,0,0,1-.16.76,1.62,1.62,0,0,1-.46.61,2.28,2.28,0,0,1-.74.4,3.42,3.42,0,0,1-1,.14ZM95.15,41h1a1.63,1.63,0,0,0,.94-.23.8.8,0,0,0,.32-.71.84.84,0,0,0-.29-.72,1.45,1.45,0,0,0-.9-.22h-1Zm0,.84v1.91h1.23a1.53,1.53,0,0,0,.56-.09.9.9,0,0,0,.36-.21.72.72,0,0,0,.2-.32,1.16,1.16,0,0,0,.06-.38,1.12,1.12,0,0,0-.06-.38.77.77,0,0,0-.22-.29.94.94,0,0,0-.36-.18,2.26,2.26,0,0,0-.55-.06Z" transform="translate(-1.18 2.67)"/><path class="cls-23" d="M104.13,38.15v1h-2.89v1.8h2.28v.93h-2.28v1.84h2.89v1H100V38.15Z" transform="translate(-1.18 2.67)"/><path class="cls-23" d="M110,38.15v1h-2v5.51h-1.21V39.15h-2v-1Z" transform="translate(-1.18 2.67)"/><path class="cls-23" d="M116,44.66h-.94a.45.45,0,0,1-.26-.08.52.52,0,0,1-.14-.19l-.49-1.33h-2.69L111,44.39a.39.39,0,0,1-.14.18.39.39,0,0,1-.26.09h-.94l2.56-6.51h1.23Zm-4.21-2.46h2.07L113.11,40c0-.1-.08-.21-.12-.34s-.09-.27-.13-.43c0,.16-.08.3-.12.43s-.08.25-.12.35Z" transform="translate(-1.18 2.67)"/><path class="cls-24" d="M22.27,43.46a1.54,1.54,0,0,0,.55-.1,1.22,1.22,0,0,0,.41-.29,1.36,1.36,0,0,0,.25-.46,2,2,0,0,0,.09-.62V38.1h1.52V42a3,3,0,0,1-.19,1.1,2.46,2.46,0,0,1-.56.87,2.57,2.57,0,0,1-.89.57,3.36,3.36,0,0,1-1.18.2,3.3,3.3,0,0,1-1.17-.2,2.46,2.46,0,0,1-1.45-1.44,3,3,0,0,1-.19-1.1V38.1H21V42a2,2,0,0,0,.09.62,1.14,1.14,0,0,0,.25.46,1.12,1.12,0,0,0,.41.3A1.53,1.53,0,0,0,22.27,43.46Z" transform="translate(-1.18 2.67)"/><path class="cls-24" d="M27.27,38.11l.13,0a.3.3,0,0,1,.1.07l.11.12,3.12,3.94a2.4,2.4,0,0,1,0-.37c0-.12,0-.23,0-.34V38.1H32v6.56h-.79a.85.85,0,0,1-.3,0,.7.7,0,0,1-.23-.2L27.62,40.5c0,.12,0,.23,0,.34s0,.21,0,.31v3.51H26.31V38.1h1Z" transform="translate(-1.18 2.67)"/><path class="cls-24" d="M39.28,41.38A3.51,3.51,0,0,1,39,42.69a3,3,0,0,1-.69,1,3.21,3.21,0,0,1-1.07.68,3.71,3.71,0,0,1-1.4.25H33.34V38.1h2.54a3.92,3.92,0,0,1,1.4.25,3.37,3.37,0,0,1,1.07.68,3.05,3.05,0,0,1,.69,1A3.51,3.51,0,0,1,39.28,41.38Zm-1.55,0a2.71,2.71,0,0,0-.13-.88,1.75,1.75,0,0,0-.36-.66,1.63,1.63,0,0,0-.58-.42,1.94,1.94,0,0,0-.78-.15h-1v4.22h1a1.94,1.94,0,0,0,.78-.15,1.5,1.5,0,0,0,.58-.41,1.88,1.88,0,0,0,.36-.67A2.67,2.67,0,0,0,37.73,41.38Z" transform="translate(-1.18 2.67)"/><path class="cls-24" d="M44.46,38.1v1.17H41.77V40.8h2.06v1.13H41.77v1.56h2.69v1.17H40.24V38.1Z" transform="translate(-1.18 2.67)"/><path class="cls-24" d="M47.07,42.23v2.43H45.55V38.1h2.13a4.2,4.2,0,0,1,1.21.15,2.18,2.18,0,0,1,.82.41,1.5,1.5,0,0,1,.46.61,2,2,0,0,1,.15.78,2,2,0,0,1-.09.6,1.67,1.67,0,0,1-.25.52,1.56,1.56,0,0,1-.42.43,2,2,0,0,1-.56.31,2.9,2.9,0,0,1,.29.19,1.64,1.64,0,0,1,.23.28l1.39,2.28H49.54a.58.58,0,0,1-.55-.29l-1.09-1.9a.43.43,0,0,0-.17-.18.54.54,0,0,0-.27-.06Zm0-1h.61a1.64,1.64,0,0,0,.53-.08,1,1,0,0,0,.36-.22.79.79,0,0,0,.2-.33,1.29,1.29,0,0,0,.06-.4.82.82,0,0,0-.28-.67,1.27,1.27,0,0,0-.87-.25h-.61Z" transform="translate(-1.18 2.67)"/><path class="cls-24" d="M7.13,52.18a3.51,3.51,0,0,1-.24,1.31,3.26,3.26,0,0,1-.69,1,3.15,3.15,0,0,1-1.08.68,3.66,3.66,0,0,1-1.39.25H1.18V48.9H3.73a3.86,3.86,0,0,1,1.39.25,3.31,3.31,0,0,1,1.08.68,3.37,3.37,0,0,1,.69,1A3.51,3.51,0,0,1,7.13,52.18Zm-1.55,0a3,3,0,0,0-.13-.88,1.9,1.9,0,0,0-.36-.66,1.63,1.63,0,0,0-.58-.42,1.94,1.94,0,0,0-.78-.15h-1v4.22h1a1.94,1.94,0,0,0,.78-.15,1.42,1.42,0,0,0,.58-.42,1.9,1.9,0,0,0,.36-.66A3,3,0,0,0,5.58,52.18Z" transform="translate(-1.18 2.67)"/><path class="cls-24" d="M12.31,48.9v1.17H9.62V51.6h2.06v1.13H9.62v1.56h2.69v1.17H8.09V48.9Z" transform="translate(-1.18 2.67)"/><path class="cls-24" d="M12.86,48.9h1.22a.53.53,0,0,1,.32.09.43.43,0,0,1,.18.24l1.27,3.51c.06.15.12.32.18.5s.11.37.16.57a4.74,4.74,0,0,1,.15-.57c.05-.18.11-.35.16-.5l1.26-3.51a.54.54,0,0,1,.18-.23.53.53,0,0,1,.32-.1h1.23l-2.63,6.56H15.48Z" transform="translate(-1.18 2.67)"/><path class="cls-24" d="M24.47,48.9v1.17H21.78V51.6h2.06v1.13H21.78v1.56h2.69v1.17H20.25V48.9Z" transform="translate(-1.18 2.67)"/><path class="cls-24" d="M27.08,54.24h2.43v1.22h-4V48.9h1.52Z" transform="translate(-1.18 2.67)"/><path class="cls-24" d="M36.57,52.18a3.6,3.6,0,0,1-.24,1.32,3.36,3.36,0,0,1-.7,1.07,3.23,3.23,0,0,1-1.07.71,3.66,3.66,0,0,1-1.39.25,3.71,3.71,0,0,1-1.4-.25,3.23,3.23,0,0,1-1.07-.71A3.36,3.36,0,0,1,30,53.5a3.6,3.6,0,0,1-.24-1.32A3.56,3.56,0,0,1,30,50.86a3.26,3.26,0,0,1,.7-1.07,3.06,3.06,0,0,1,1.07-.7,3.71,3.71,0,0,1,1.4-.26,3.66,3.66,0,0,1,1.39.26,3.08,3.08,0,0,1,1.07.71,3.21,3.21,0,0,1,.7,1.06A3.6,3.6,0,0,1,36.57,52.18Zm-1.56,0a3,3,0,0,0-.12-.88,2.2,2.2,0,0,0-.36-.66,1.7,1.7,0,0,0-.58-.41,2.27,2.27,0,0,0-1.57,0,1.61,1.61,0,0,0-.58.41,2,2,0,0,0-.36.66,3,3,0,0,0-.13.88,3,3,0,0,0,.13.88,1.9,1.9,0,0,0,.36.66,1.5,1.5,0,0,0,.58.41,2.27,2.27,0,0,0,1.57,0,1.58,1.58,0,0,0,.58-.41,2.08,2.08,0,0,0,.36-.66A3,3,0,0,0,35,52.18Z" transform="translate(-1.18 2.67)"/><path class="cls-24" d="M39.05,53.27v2.19H37.52V48.9h2.32a3.79,3.79,0,0,1,1.19.17,2.39,2.39,0,0,1,.82.45,1.77,1.77,0,0,1,.47.68,2.34,2.34,0,0,1,.15.85,2.66,2.66,0,0,1-.15.9,2,2,0,0,1-.48.7,2.35,2.35,0,0,1-.83.45,3.7,3.7,0,0,1-1.17.17Zm0-1.15h.79A1,1,0,0,0,41,51.05a1.31,1.31,0,0,0-.06-.41.89.89,0,0,0-.21-.32.93.93,0,0,0-.35-.21,1.7,1.7,0,0,0-.49-.07h-.79Z" transform="translate(-1.18 2.67)"/><path class="cls-24" d="M47,52.82c0,.12.11.25.16.38,0-.14.1-.26.16-.39l.17-.36,1.69-3.32a.73.73,0,0,1,.09-.13.41.41,0,0,1,.11-.07l.13,0h1.33v6.55H49.52V51.69q0-.27,0-.6l-1.74,3.38a.54.54,0,0,1-.22.23.53.53,0,0,1-.31.08h-.21a.55.55,0,0,1-.31-.08.61.61,0,0,1-.22-.23L44.8,51.09c0,.11,0,.21,0,.31s0,.2,0,.29v3.77H43.49V48.91h1.34l.13,0,.1.07a.45.45,0,0,1,.1.13l1.68,3.33Z" transform="translate(-1.18 2.67)"/><path class="cls-24" d="M56.39,48.9v1.17H53.7V51.6h2.06v1.13H53.7v1.56h2.69v1.17H52.17V48.9Z" transform="translate(-1.18 2.67)"/><path class="cls-24" d="M58.44,48.91l.13,0a.3.3,0,0,1,.1.07l.11.12,3.12,3.94c0-.13,0-.25,0-.37s0-.23,0-.34V48.9H63.2v6.56h-.79a.85.85,0,0,1-.3-.05.7.7,0,0,1-.23-.2L58.79,51.3c0,.12,0,.23,0,.34s0,.21,0,.31v3.51H57.48V48.9h1Z" transform="translate(-1.18 2.67)"/><path class="cls-24" d="M69.27,48.9v1.21H67.42v5.35H65.9V50.11H64.06V48.9Z" transform="translate(-1.18 2.67)"/></svg>