<svg id="Hor_-_GA" data-name="Hor - GA" xmlns="http://www.w3.org/2000/svg" xmlns:xlink="http://www.w3.org/1999/xlink" viewBox="0 0 280.62 58.2"><defs><style>.cls-1,.cls-2{fill:none;}.cls-1{clip-rule:evenodd;}.cls-3{clip-path:url(#clip-path);}.cls-4{clip-path:url(#clip-path-2);}.cls-5{fill:#3ab0e3;}.cls-6{clip-path:url(#clip-path-3);}.cls-7{clip-path:url(#clip-path-4);}.cls-8{fill:#47d9bf;}.cls-9{clip-path:url(#clip-path-5);}.cls-10{clip-path:url(#clip-path-6);}.cls-11{clip-path:url(#clip-path-7);}.cls-12{clip-path:url(#clip-path-8);}.cls-13{clip-path:url(#clip-path-9);}.cls-14{clip-path:url(#clip-path-10);}.cls-15,.cls-20{fill:#fff;}.cls-15{opacity:0;}.cls-16{clip-path:url(#clip-path-11);}.cls-17{clip-path:url(#clip-path-12);}.cls-18{clip-path:url(#clip-path-13);}.cls-19{clip-path:url(#clip-path-14);}.cls-21{clip-path:url(#clip-path-15);}.cls-22{clip-path:url(#clip-path-16);}.cls-23{clip-path:url(#clip-path-17);}.cls-24{clip-path:url(#clip-path-18);}.cls-25{clip-path:url(#clip-path-19);}.cls-26{clip-path:url(#clip-path-20);}.cls-27{fill:#24bca1;}</style><clipPath id="clip-path" transform="translate(-1.42 2.67)"><path class="cls-1" d="M29.91,15H234.59a1.5,1.5,0,0,1,0,3H29.91a1.5,1.5,0,0,1,0-3Z"/></clipPath><clipPath id="clip-path-2" transform="translate(-1.42 2.67)"><rect class="cls-2" x="-71.96" y="-257.98" width="996.19" height="1088"/></clipPath><clipPath id="clip-path-3" transform="translate(-1.42 2.67)"><circle class="cls-2" cx="34.5" cy="16.52" r="10"/></clipPath><clipPath id="clip-path-4" transform="translate(-1.42 2.67)"><rect class="cls-2" x="-79.5" y="-257.48" width="1061" height="1088"/></clipPath><clipPath id="clip-path-5" transform="translate(-1.42 2.67)"><circle class="cls-2" cx="104" cy="16.52" r="10"/></clipPath><clipPath id="clip-path-6" transform="translate(-1.42 2.67)"><rect class="cls-2" x="-84" y="-257.48" width="1061" height="1088"/></clipPath><clipPath id="clip-path-7" transform="translate(-1.42 2.67)"><circle class="cls-2" cx="174" cy="16.33" r="10"/></clipPath><clipPath id="clip-path-8" transform="translate(-1.42 2.67)"><rect class="cls-2" x="-88" y="-257.67" width="1061" height="1088"/></clipPath><clipPath id="clip-path-9" transform="translate(-1.42 2.67)"><circle class="cls-2" cx="249" cy="16.33" r="14"/></clipPath><clipPath id="clip-path-10" transform="translate(-1.42 2.67)"><rect class="cls-2" x="-92" y="-257.67" width="1061" height="1088"/></clipPath><clipPath id="clip-path-11" transform="translate(-1.42 2.67)"><circle class="cls-2" cx="249" cy="16.52" r="10"/></clipPath><clipPath id="clip-path-12" transform="translate(-1.42 2.67)"><rect class="cls-2" x="-92" y="-257.48" width="1061" height="1088"/></clipPath><clipPath id="clip-path-13" transform="translate(-1.42 2.67)"><polygon class="cls-1" points="176.08 14.19 175.62 14.65 173.17 17.1 172.32 16.43 171.81 16.02 171 17.04 171.51 17.45 172.81 18.49 173.27 18.85 173.68 18.44 176.54 15.57 177 15.11 176.08 14.19"/></clipPath><clipPath id="clip-path-14" transform="translate(-1.42 2.67)"><rect class="cls-2" x="-88" y="-257.81" width="1061" height="1088"/></clipPath><clipPath id="clip-path-15" transform="translate(-1.42 2.67)"><polygon class="cls-1" points="251.08 14.19 250.62 14.65 248.17 17.1 247.32 16.43 246.81 16.02 246 17.04 246.51 17.45 247.81 18.49 248.27 18.85 248.68 18.44 251.54 15.57 252 15.11 251.08 14.19"/></clipPath><clipPath id="clip-path-16" transform="translate(-1.42 2.67)"><rect class="cls-2" x="-92" y="-257.81" width="1061" height="1088"/></clipPath><clipPath id="clip-path-17" transform="translate(-1.42 2.67)"><polygon class="cls-1" points="106.08 14.33 105.62 14.79 103.17 17.25 102.32 16.57 101.81 16.16 101 17.18 101.51 17.59 102.81 18.63 103.27 18.99 103.68 18.58 106.54 15.72 107 15.26 106.08 14.33"/></clipPath><clipPath id="clip-path-18" transform="translate(-1.42 2.67)"><rect class="cls-2" x="-84" y="-257.67" width="1061" height="1088"/></clipPath><clipPath id="clip-path-19" transform="translate(-1.42 2.67)"><polygon class="cls-1" points="36.58 14.19 36.12 14.65 33.67 17.1 32.82 16.43 32.31 16.02 31.5 17.04 32.01 17.45 33.31 18.49 33.77 18.85 34.18 18.44 37.04 15.57 37.5 15.11 36.58 14.19"/></clipPath><clipPath id="clip-path-20" transform="translate(-1.42 2.67)"><rect class="cls-2" x="-80.5" y="-257.81" width="1061" height="1088"/></clipPath></defs><title>progress-horizontal-GA</title><g class="cls-3"><g class="cls-4"><rect class="cls-5" x="22.38" y="12.69" width="216.89" height="13"/></g></g><g class="cls-6"><g class="cls-7"><rect class="cls-8" x="18.08" y="4.19" width="30" height="30"/></g></g><g class="cls-9"><g class="cls-10"><rect class="cls-8" x="87.58" y="4.19" width="30" height="30"/></g></g><g class="cls-11"><g class="cls-12"><rect class="cls-8" x="157.58" y="4" width="30" height="30"/></g></g><g class="cls-13"><g class="cls-14"><rect class="cls-15" x="228.58" width="38" height="38"/></g></g><path class="cls-8" d="M249,31.52a15,15,0,1,1,15-15A15,15,0,0,1,249,31.52Zm0-28a13,13,0,1,0,13,13A13,13,0,0,0,249,3.52Z" transform="translate(-1.42 2.67)"/><g class="cls-16"><g class="cls-17"><rect class="cls-8" x="232.58" y="4.19" width="30" height="30"/></g></g><g class="cls-18"><g class="cls-19"><rect class="cls-20" x="164.58" y="11.86" width="16" height="14.66"/></g></g><g class="cls-21"><g class="cls-22"><rect class="cls-20" x="239.58" y="11.86" width="16" height="14.66"/></g></g><g class="cls-23"><g class="cls-24"><rect class="cls-20" x="94.58" y="12" width="16" height="14.66"/></g></g><g class="cls-25"><g class="cls-26"><rect class="cls-20" x="25.08" y="11.86" width="16" height="14.66"/></g></g><path class="cls-27" d="M233.28,43.59a2.34,2.34,0,0,0,.56-.06,2.24,2.24,0,0,0,.46-.14v-1h-.65a.31.31,0,0,1-.22-.07.24.24,0,0,1-.08-.2v-.83h2.33v2.77a4.07,4.07,0,0,1-.53.31,3.32,3.32,0,0,1-.58.22,4.15,4.15,0,0,1-.65.13c-.24,0-.49,0-.75,0a3.48,3.48,0,0,1-1.34-.26,3.32,3.32,0,0,1-1.06-.7,3.38,3.38,0,0,1-.7-1.06,3.47,3.47,0,0,1-.25-1.34,3.67,3.67,0,0,1,.24-1.34,3,3,0,0,1,.7-1.06,3.15,3.15,0,0,1,1.09-.7,4,4,0,0,1,1.43-.24,4.63,4.63,0,0,1,.77.06,4.37,4.37,0,0,1,.67.19,3.15,3.15,0,0,1,.55.28,2.69,2.69,0,0,1,.45.35l-.44.67a.54.54,0,0,1-.15.15.41.41,0,0,1-.19.05.54.54,0,0,1-.28-.09l-.34-.19a2.19,2.19,0,0,0-.33-.12,1.8,1.8,0,0,0-.35-.08l-.41,0a1.89,1.89,0,0,0-.77.15,1.55,1.55,0,0,0-.58.43,1.77,1.77,0,0,0-.37.66,2.53,2.53,0,0,0-.13.85,2.67,2.67,0,0,0,.14.93,2.12,2.12,0,0,0,.4.69,1.81,1.81,0,0,0,.6.42A1.91,1.91,0,0,0,233.28,43.59Z" transform="translate(-1.42 2.67)"/><path class="cls-27" d="M241.05,38.13V39.3h-2.69v1.53h2.06V42h-2.06v1.56h2.69v1.17h-4.22V38.13Z" transform="translate(-1.42 2.67)"/><path class="cls-27" d="M243.11,38.14a.27.27,0,0,1,.12,0l.1.07.11.12,3.12,3.94,0-.37c0-.12,0-.23,0-.33V38.13h1.34v6.55h-.79a.67.67,0,0,1-.3,0,.59.59,0,0,1-.23-.2l-3.09-3.9c0,.11,0,.22,0,.33s0,.21,0,.31v3.51h-1.34V38.13h1Z" transform="translate(-1.42 2.67)"/><path class="cls-27" d="M253.39,38.13V39.3H250.7v1.53h2.06V42H250.7v1.56h2.69v1.17h-4.22V38.13Z" transform="translate(-1.42 2.67)"/><path class="cls-27" d="M256,42.26v2.42h-1.52V38.13h2.13a4.68,4.68,0,0,1,1.21.14,2.33,2.33,0,0,1,.82.41,1.53,1.53,0,0,1,.46.62,2,2,0,0,1,.15.77,2,2,0,0,1-.09.61,1.78,1.78,0,0,1-.25.52,1.9,1.9,0,0,1-.42.43,2,2,0,0,1-.56.31,1.07,1.07,0,0,1,.28.19,1.25,1.25,0,0,1,.24.27l1.39,2.28h-1.38a.57.57,0,0,1-.54-.28l-1.09-1.91a.59.59,0,0,0-.17-.18.68.68,0,0,0-.27-.05Zm0-1h.61a1.64,1.64,0,0,0,.53-.08.88.88,0,0,0,.36-.22.83.83,0,0,0,.2-.32,1.35,1.35,0,0,0,.06-.41.83.83,0,0,0-.28-.67,1.33,1.33,0,0,0-.87-.24H256Z" transform="translate(-1.42 2.67)"/><path class="cls-27" d="M266.79,44.68h-1.18a.58.58,0,0,1-.33-.09.48.48,0,0,1-.17-.23l-.39-1.15h-2.49l-.39,1.15a.47.47,0,0,1-.18.22.47.47,0,0,1-.32.1h-1.18l2.53-6.55h1.56Zm-4.21-2.5h1.79l-.6-1.8-.14-.4c-.05-.15-.11-.32-.16-.5-.05.18-.09.35-.15.51s-.09.29-.14.4Z" transform="translate(-1.42 2.67)"/><path class="cls-27" d="M269.07,43.47h2.43v1.21h-3.95V38.13h1.52Z" transform="translate(-1.42 2.67)"/><path class="cls-27" d="M226,55.48h-1.18a.53.53,0,0,1-.32-.09.44.44,0,0,1-.18-.23L224,54h-2.49l-.39,1.15a.51.51,0,0,1-.49.32h-1.19l2.54-6.55h1.55ZM221.81,53h1.79l-.6-1.8-.14-.4c-.05-.15-.11-.32-.16-.5,0,.18-.09.35-.14.51s-.1.29-.15.4Z" transform="translate(-1.42 2.67)"/><path class="cls-27" d="M225.34,48.93h1.22a.53.53,0,0,1,.32.09.43.43,0,0,1,.18.24l1.27,3.51c.06.15.12.32.18.5s.11.37.16.56a5.12,5.12,0,0,1,.15-.56c.05-.18.11-.35.16-.5l1.26-3.51a.49.49,0,0,1,.18-.23.47.47,0,0,1,.32-.1H232l-2.63,6.55H228Z" transform="translate(-1.42 2.67)"/><path class="cls-27" d="M237.94,55.48h-1.18a.56.56,0,0,1-.33-.09.58.58,0,0,1-.18-.23L235.87,54h-2.5L233,55.16a.47.47,0,0,1-.18.22.49.49,0,0,1-.32.1H231.3l2.54-6.55h1.56ZM233.72,53h1.8l-.61-1.8c0-.11-.08-.25-.13-.4a4.92,4.92,0,0,1-.16-.5q-.08.27-.15.51l-.14.4Z" transform="translate(-1.42 2.67)"/><path class="cls-27" d="M240.36,55.48h-1.53V48.93h1.53Z" transform="translate(-1.42 2.67)"/><path class="cls-27" d="M243.32,54.27h2.43v1.21H241.8V48.93h1.52Z" transform="translate(-1.42 2.67)"/><path class="cls-27" d="M252.79,55.48h-1.17a.56.56,0,0,1-.33-.09.44.44,0,0,1-.18-.23L250.72,54h-2.49l-.39,1.15a.44.44,0,0,1-.17.22.49.49,0,0,1-.32.1h-1.19l2.54-6.55h1.56ZM248.58,53h1.79l-.6-1.8c0-.11-.08-.25-.14-.4s-.1-.32-.15-.5q-.07.27-.15.51l-.14.4Z" transform="translate(-1.42 2.67)"/><path class="cls-27" d="M253.55,55.48V48.93H256a4.81,4.81,0,0,1,1.16.12,2.36,2.36,0,0,1,.78.36,1.33,1.33,0,0,1,.44.56,1.9,1.9,0,0,1,.13.73,1.54,1.54,0,0,1-.06.43,1.27,1.27,0,0,1-.2.38,1.53,1.53,0,0,1-.34.33,2.69,2.69,0,0,1-.51.25,1.91,1.91,0,0,1,1,.51,1.37,1.37,0,0,1,.31.91,1.85,1.85,0,0,1-.17.78,1.68,1.68,0,0,1-.47.63,2.45,2.45,0,0,1-.77.41,3.41,3.41,0,0,1-1.05.15Zm1.52-3.79h.79a3.15,3.15,0,0,0,.46,0,.86.86,0,0,0,.34-.13.56.56,0,0,0,.22-.24,1,1,0,0,0,.07-.4,1.14,1.14,0,0,0-.06-.39.64.64,0,0,0-.18-.25.69.69,0,0,0-.3-.13,2,2,0,0,0-.45,0h-.89Zm0,1v1.64h1.07a1.32,1.32,0,0,0,.49-.08.75.75,0,0,0,.3-.2.52.52,0,0,0,.15-.27,1.1,1.1,0,0,0,0-.31,1.15,1.15,0,0,0,0-.33.66.66,0,0,0-.17-.24.61.61,0,0,0-.3-.15,1.61,1.61,0,0,0-.48-.06Z" transform="translate(-1.42 2.67)"/><path class="cls-27" d="M261.34,55.48h-1.53V48.93h1.53Z" transform="translate(-1.42 2.67)"/><path class="cls-27" d="M264.3,54.27h2.44v1.21h-4V48.93h1.52Z" transform="translate(-1.42 2.67)"/><path class="cls-27" d="M269.34,55.48h-1.53V48.93h1.53Z" transform="translate(-1.42 2.67)"/><path class="cls-27" d="M275.55,48.93v1.2H273.7v5.35h-1.52V50.13h-1.85v-1.2Z" transform="translate(-1.42 2.67)"/><path class="cls-27" d="M279.67,53v2.49h-1.52V53l-2.38-4.06h1.34a.53.53,0,0,1,.32.09.78.78,0,0,1,.19.24l.92,1.9.21.43c.06.13.12.25.17.38a3.2,3.2,0,0,1,.16-.39l.2-.42.92-1.9a.75.75,0,0,1,.07-.12l.11-.11.14-.07a.47.47,0,0,1,.17,0H282Z" transform="translate(-1.42 2.67)"/><path class="cls-8" d="M156.29,42.12v2.54h-1.21V38.15h2a4.18,4.18,0,0,1,1.14.14,2,2,0,0,1,.78.39,1.53,1.53,0,0,1,.45.59,2.06,2.06,0,0,1,.14.76,1.87,1.87,0,0,1-.1.62,1.83,1.83,0,0,1-.73,1,2.28,2.28,0,0,1-.61.28,1.31,1.31,0,0,1,.4.38l1.63,2.4h-1.09a.54.54,0,0,1-.27-.06.65.65,0,0,1-.19-.18l-1.36-2.09a.62.62,0,0,0-.17-.16.54.54,0,0,0-.28-.05Zm0-.87H157a1.8,1.8,0,0,0,.6-.09,1.06,1.06,0,0,0,.42-.23.88.88,0,0,0,.24-.36,1.12,1.12,0,0,0,.08-.45,1,1,0,0,0-.32-.77,1.62,1.62,0,0,0-1-.26h-.77Z" transform="translate(-1.42 2.67)"/><path class="cls-8" d="M165.26,38.15v1h-2.88v1.8h2.27v.93h-2.27v1.84h2.88v1h-4.1V38.15Z" transform="translate(-1.42 2.67)"/><path class="cls-8" d="M167.74,43.66h2.61v1h-3.82V38.15h1.21Z" transform="translate(-1.42 2.67)"/><path class="cls-8" d="M175.52,38.15v1h-2.89v1.8h2.27v.93h-2.27v1.84h2.89v1h-4.11V38.15Z" transform="translate(-1.42 2.67)"/><path class="cls-8" d="M182.51,44.66h-.94a.45.45,0,0,1-.26-.08.52.52,0,0,1-.14-.19l-.49-1.33H178l-.49,1.33a.39.39,0,0,1-.14.18.39.39,0,0,1-.26.09h-.94l2.55-6.51H180ZM178.3,42.2h2.07L179.58,40c0-.1-.08-.21-.12-.34s-.09-.27-.13-.43c0,.16-.08.3-.12.43s-.08.25-.12.35Z" transform="translate(-1.42 2.67)"/><path class="cls-8" d="M186.89,39.34a.4.4,0,0,1-.11.14.42.42,0,0,1-.16,0,.44.44,0,0,1-.2-.07l-.27-.16a1.6,1.6,0,0,0-.35-.15,1.45,1.45,0,0,0-.49-.07,1.46,1.46,0,0,0-.44.06.78.78,0,0,0-.31.17.58.58,0,0,0-.19.25.8.8,0,0,0-.07.34.6.6,0,0,0,.13.38,1.14,1.14,0,0,0,.34.26,2.67,2.67,0,0,0,.48.19l.55.18a5.48,5.48,0,0,1,.56.23,2,2,0,0,1,.48.32,1.54,1.54,0,0,1,.34.48,1.77,1.77,0,0,1,.13.69,2.27,2.27,0,0,1-.16.83,1.86,1.86,0,0,1-.44.67,2.05,2.05,0,0,1-.71.45,2.52,2.52,0,0,1-.95.16,3.26,3.26,0,0,1-.62-.06,3.43,3.43,0,0,1-.57-.17,3.63,3.63,0,0,1-.52-.27,2.52,2.52,0,0,1-.43-.35l.35-.58a.32.32,0,0,1,.12-.11.28.28,0,0,1,.15,0,.45.45,0,0,1,.25.09l.31.21a2.24,2.24,0,0,0,.41.2,1.68,1.68,0,0,0,.58.09,1.19,1.19,0,0,0,.8-.24.9.9,0,0,0,.29-.71.7.7,0,0,0-.13-.42,1.35,1.35,0,0,0-.34-.27,3.69,3.69,0,0,0-.48-.19l-.55-.16a3.71,3.71,0,0,1-.55-.22,1.58,1.58,0,0,1-.48-.33,1.39,1.39,0,0,1-.34-.5,1.83,1.83,0,0,1-.13-.75,1.81,1.81,0,0,1,.14-.69,1.67,1.67,0,0,1,.42-.6,1.87,1.87,0,0,1,.66-.42,2.38,2.38,0,0,1,.91-.16,3,3,0,0,1,1.06.18,2.56,2.56,0,0,1,.83.5Z" transform="translate(-1.42 2.67)"/><path class="cls-8" d="M192.56,38.15v1h-2.88v1.8H192v.93h-2.27v1.84h2.88v1h-4.1V38.15Z" transform="translate(-1.42 2.67)"/><path class="cls-8" d="M152.14,53.93a.23.23,0,0,1,.17.07l.48.52a2.58,2.58,0,0,1-1,.75,3.41,3.41,0,0,1-1.39.26,3.21,3.21,0,0,1-1.3-.25,3,3,0,0,1-1-.68,3,3,0,0,1-.62-1.06,3.83,3.83,0,0,1-.22-1.33,3.68,3.68,0,0,1,.24-1.35,3.22,3.22,0,0,1,.68-1,3.16,3.16,0,0,1,1.06-.68,3.51,3.51,0,0,1,1.36-.25,3.26,3.26,0,0,1,1.26.23,3,3,0,0,1,.93.62l-.4.56a.38.38,0,0,1-.09.09.25.25,0,0,1-.16,0,.31.31,0,0,1-.21-.08l-.28-.17a2.11,2.11,0,0,0-.42-.18,2.27,2.27,0,0,0-.64-.08,2.15,2.15,0,0,0-.85.16,2,2,0,0,0-.66.46,2.16,2.16,0,0,0-.43.72,2.84,2.84,0,0,0-.16,1,2.9,2.9,0,0,0,.16,1,2,2,0,0,0,.42.72,1.74,1.74,0,0,0,.63.45,2,2,0,0,0,.77.16,3.09,3.09,0,0,0,.45,0,2.22,2.22,0,0,0,.37-.09,1.87,1.87,0,0,0,.32-.15,1.91,1.91,0,0,0,.3-.22L152,54A.2.2,0,0,1,152.14,53.93Z" transform="translate(-1.42 2.67)"/><path class="cls-8" d="M159.64,55.46h-.93a.42.42,0,0,1-.26-.08.45.45,0,0,1-.15-.19l-.48-1.33h-2.7l-.48,1.33a.5.5,0,0,1-.15.18.37.37,0,0,1-.26.09h-.94L155.85,49h1.24ZM155.43,53h2.08l-.8-2.16-.11-.34a3.68,3.68,0,0,1-.13-.43l-.13.43c0,.13-.08.25-.12.35Z" transform="translate(-1.42 2.67)"/><path class="cls-8" d="M161.31,49a.17.17,0,0,1,.1,0l.08.06a.3.3,0,0,1,.09.1L165,53.5c0-.11,0-.21,0-.31s0-.19,0-.28V49H166v6.51h-.63a.52.52,0,0,1-.23-.05.47.47,0,0,1-.19-.16l-3.4-4.33c0,.1,0,.19,0,.28s0,.19,0,.26v4h-1.07V49h.77Z" transform="translate(-1.42 2.67)"/><path class="cls-8" d="M173.35,52.21a3.51,3.51,0,0,1-.24,1.31,3,3,0,0,1-.67,1,3.05,3.05,0,0,1-1,.67,3.68,3.68,0,0,1-1.35.24h-2.48V49h2.48a3.68,3.68,0,0,1,1.35.24,3.21,3.21,0,0,1,1,.67,3,3,0,0,1,.67,1A3.52,3.52,0,0,1,173.35,52.21Zm-1.24,0a3.13,3.13,0,0,0-.14-1,2.09,2.09,0,0,0-.41-.72,1.88,1.88,0,0,0-.65-.46,2.31,2.31,0,0,0-.86-.15h-1.26V54.5h1.26a2.31,2.31,0,0,0,.86-.16,2,2,0,0,0,.65-.45,2.3,2.3,0,0,0,.41-.72A3.22,3.22,0,0,0,172.11,52.21Z" transform="translate(-1.42 2.67)"/><path class="cls-8" d="M175.88,55.46h-1.21V49h1.21Z" transform="translate(-1.42 2.67)"/><path class="cls-8" d="M183.35,52.21a3.51,3.51,0,0,1-.24,1.31,3,3,0,0,1-.67,1,3,3,0,0,1-1,.67,3.59,3.59,0,0,1-1.34.24h-2.49V49h2.49a3.59,3.59,0,0,1,1.34.24,3.11,3.11,0,0,1,1,.67,3,3,0,0,1,.67,1A3.52,3.52,0,0,1,183.35,52.21Zm-1.24,0a3.13,3.13,0,0,0-.14-1,1.94,1.94,0,0,0-.41-.72,1.79,1.79,0,0,0-.65-.46,2.3,2.3,0,0,0-.85-.15h-1.27V54.5h1.27a2.3,2.3,0,0,0,.85-.16,1.89,1.89,0,0,0,.65-.45,2.12,2.12,0,0,0,.41-.72A3.22,3.22,0,0,0,182.11,52.21Z" transform="translate(-1.42 2.67)"/><path class="cls-8" d="M190,55.46h-.94a.42.42,0,0,1-.26-.08.45.45,0,0,1-.15-.19l-.48-1.33h-2.7L185,55.19a.41.41,0,0,1-.15.18.37.37,0,0,1-.25.09h-.94L186.22,49h1.24ZM185.8,53h2.08l-.79-2.16c0-.1-.08-.21-.12-.34a3.68,3.68,0,0,1-.13-.43c0,.16-.09.3-.13.43l-.11.35Z" transform="translate(-1.42 2.67)"/><path class="cls-8" d="M194.84,49v1h-2v5.51h-1.21V50h-2V49Z" transform="translate(-1.42 2.67)"/><path class="cls-8" d="M199.93,49v1h-2.88v1.8h2.27v.93h-2.27v1.84h2.88v1h-4.1V49Z" transform="translate(-1.42 2.67)"/><path class="cls-8" d="M93.94,44.66V38.15h2.24a4.26,4.26,0,0,1,1.09.12,2.37,2.37,0,0,1,.75.35,1.33,1.33,0,0,1,.42.55,1.81,1.81,0,0,1,.14.72,1.55,1.55,0,0,1-.07.43,1.71,1.71,0,0,1-.21.4,1.91,1.91,0,0,1-.36.33,2.28,2.28,0,0,1-.52.25c.89.2,1.34.68,1.34,1.45a1.76,1.76,0,0,1-.16.76,1.62,1.62,0,0,1-.46.61,2.28,2.28,0,0,1-.74.4,3.42,3.42,0,0,1-1,.14ZM95.15,41h1a1.63,1.63,0,0,0,.94-.23.8.8,0,0,0,.32-.71.84.84,0,0,0-.29-.72,1.45,1.45,0,0,0-.9-.22h-1Zm0,.84v1.91h1.23a1.53,1.53,0,0,0,.56-.09.9.9,0,0,0,.36-.21.72.72,0,0,0,.2-.32,1.16,1.16,0,0,0,.06-.38,1.12,1.12,0,0,0-.06-.38.77.77,0,0,0-.22-.29.94.94,0,0,0-.36-.18,2.26,2.26,0,0,0-.55-.06Z" transform="translate(-1.42 2.67)"/><path class="cls-8" d="M104.13,38.15v1h-2.89v1.8h2.28v.93h-2.28v1.84h2.89v1H100V38.15Z" transform="translate(-1.42 2.67)"/><path class="cls-8" d="M110,38.15v1h-2v5.51h-1.21V39.15h-2v-1Z" transform="translate(-1.42 2.67)"/><path class="cls-8" d="M116,44.66h-.94a.45.45,0,0,1-.26-.08.52.52,0,0,1-.14-.19l-.49-1.33h-2.69L111,44.39a.39.39,0,0,1-.14.18.39.39,0,0,1-.26.09h-.94l2.56-6.51h1.23Zm-4.21-2.46h2.07L113.11,40c0-.1-.08-.21-.12-.34s-.09-.27-.13-.43c0,.16-.08.3-.12.43s-.08.25-.12.35Z" transform="translate(-1.42 2.67)"/><path class="cls-8" d="M22.26,43.68a1.81,1.81,0,0,0,.63-.11,1.43,1.43,0,0,0,.47-.33,1.53,1.53,0,0,0,.29-.52,2,2,0,0,0,.1-.67v-3.9H25v3.9a2.87,2.87,0,0,1-.19,1.07,2.31,2.31,0,0,1-.53.85,2.47,2.47,0,0,1-.85.56,2.92,2.92,0,0,1-1.13.2,2.83,2.83,0,0,1-1.12-.2,2.29,2.29,0,0,1-.85-.56,2.33,2.33,0,0,1-.54-.85,3.08,3.08,0,0,1-.19-1.07v-3.9h1.22v3.9a2,2,0,0,0,.1.67,1.4,1.4,0,0,0,.29.52,1.29,1.29,0,0,0,.46.33A1.81,1.81,0,0,0,22.26,43.68Z" transform="translate(-1.42 2.67)"/><path class="cls-8" d="M27.19,38.16a.14.14,0,0,1,.09,0l.09.06.09.1,3.41,4.35c0-.11,0-.21,0-.31a2.72,2.72,0,0,1,0-.28v-4h1.07v6.51h-.63a.86.86,0,0,1-.24,0,.7.7,0,0,1-.18-.17l-3.4-4.33c0,.1,0,.19,0,.29v4.25H26.42V38.15h.77Z" transform="translate(-1.42 2.67)"/><path class="cls-8" d="M39.23,41.41A3.51,3.51,0,0,1,39,42.72a3.16,3.16,0,0,1-.67,1,3.05,3.05,0,0,1-1,.67,3.68,3.68,0,0,1-1.35.24H33.45V38.15h2.48a3.68,3.68,0,0,1,1.35.24,3.21,3.21,0,0,1,1,.67,3.16,3.16,0,0,1,.67,1A3.52,3.52,0,0,1,39.23,41.41Zm-1.24,0a2.85,2.85,0,0,0-.15-1,1.81,1.81,0,0,0-.41-.72,1.75,1.75,0,0,0-.64-.46,2.31,2.31,0,0,0-.86-.15H34.67V43.7h1.26a2.31,2.31,0,0,0,.86-.16,1.85,1.85,0,0,0,.64-.45,2,2,0,0,0,.41-.72A2.93,2.93,0,0,0,38,41.41Z" transform="translate(-1.42 2.67)"/><path class="cls-8" d="M44.5,38.15v1H41.62v1.8h2.27v.93H41.62v1.84H44.5v1H40.4V38.15Z" transform="translate(-1.42 2.67)"/><path class="cls-8" d="M47,42.12v2.54H45.82V38.15h2a4.12,4.12,0,0,1,1.14.14,2,2,0,0,1,.78.39,1.53,1.53,0,0,1,.45.59,2.06,2.06,0,0,1,.14.76,1.87,1.87,0,0,1-.1.62,1.83,1.83,0,0,1-.73,1,2.28,2.28,0,0,1-.61.28,1.21,1.21,0,0,1,.4.38l1.63,2.4H49.81a.54.54,0,0,1-.27-.06.8.8,0,0,1-.19-.18L48,42.33a.51.51,0,0,0-.17-.16.5.5,0,0,0-.27-.05Zm0-.87h.75a1.8,1.8,0,0,0,.6-.09,1.06,1.06,0,0,0,.42-.23.88.88,0,0,0,.24-.36,1.12,1.12,0,0,0,.08-.45.92.92,0,0,0-.32-.77,1.62,1.62,0,0,0-1-.26H47Z" transform="translate(-1.42 2.67)"/><path class="cls-8" d="M7.2,52.21A3.51,3.51,0,0,1,7,53.52a3,3,0,0,1-.67,1,3,3,0,0,1-1,.67,3.59,3.59,0,0,1-1.34.24H1.42V49H3.91a3.59,3.59,0,0,1,1.34.24,3.11,3.11,0,0,1,1,.67,3,3,0,0,1,.67,1A3.52,3.52,0,0,1,7.2,52.21ZM6,52.21a2.85,2.85,0,0,0-.14-1,1.94,1.94,0,0,0-.41-.72,1.79,1.79,0,0,0-.65-.46,2.26,2.26,0,0,0-.85-.15H2.64V54.5H3.91a2.26,2.26,0,0,0,.85-.16,1.89,1.89,0,0,0,.65-.45,2.12,2.12,0,0,0,.41-.72A2.93,2.93,0,0,0,6,52.21Z" transform="translate(-1.42 2.67)"/><path class="cls-8" d="M12.48,49v1H9.6v1.8h2.27v.93H9.6v1.84h2.88v1H8.38V49Z" transform="translate(-1.42 2.67)"/><path class="cls-8" d="M13.11,49h1a.42.42,0,0,1,.26.08.62.62,0,0,1,.15.2l1.53,4a4.13,4.13,0,0,1,.14.42c0,.16.09.32.14.49a4.75,4.75,0,0,1,.25-.91l1.53-4a.41.41,0,0,1,.14-.19.39.39,0,0,1,.26-.09h1l-2.62,6.51h-1.1Z" transform="translate(-1.42 2.67)"/><path class="cls-8" d="M24.47,49v1H21.59v1.8h2.27v.93H21.59v1.84h2.88v1h-4.1V49Z" transform="translate(-1.42 2.67)"/><path class="cls-8" d="M27,54.46h2.6v1H25.75V49H27Z" transform="translate(-1.42 2.67)"/><path class="cls-8" d="M36.51,52.21a3.6,3.6,0,0,1-.24,1.32,3.3,3.3,0,0,1-.67,1.06,3.1,3.1,0,0,1-1,.69,3.77,3.77,0,0,1-2.7,0,3.1,3.1,0,0,1-1-.69,3.14,3.14,0,0,1-.67-1.06,3.78,3.78,0,0,1,0-2.65,3,3,0,0,1,.67-1.05,3.13,3.13,0,0,1,1-.7,3.77,3.77,0,0,1,2.7,0,3.07,3.07,0,0,1,1.71,1.75A3.61,3.61,0,0,1,36.51,52.21Zm-1.25,0a2.85,2.85,0,0,0-.14-1,1.93,1.93,0,0,0-.41-.73,1.73,1.73,0,0,0-.64-.45,2.39,2.39,0,0,0-1.72,0,1.85,1.85,0,0,0-.65.45,2.07,2.07,0,0,0-.41.73,2.85,2.85,0,0,0-.14,1,2.93,2.93,0,0,0,.14,1,2.12,2.12,0,0,0,.41.72,2,2,0,0,0,.65.45,2.39,2.39,0,0,0,1.72,0,1.85,1.85,0,0,0,.64-.45,2,2,0,0,0,.41-.72A2.93,2.93,0,0,0,35.26,52.21Z" transform="translate(-1.42 2.67)"/><path class="cls-8" d="M38.94,53.17v2.29H37.72V49h2.12a3.42,3.42,0,0,1,1.13.16,2.2,2.2,0,0,1,.79.42,1.76,1.76,0,0,1,.46.66,2.28,2.28,0,0,1,.15.84,2.2,2.2,0,0,1-.16.86,1.7,1.7,0,0,1-.47.68A2.08,2.08,0,0,1,41,53a3.34,3.34,0,0,1-1.11.16Zm0-1h.9a1.66,1.66,0,0,0,.58-.08.88.88,0,0,0,.41-.24,1,1,0,0,0,.25-.38,1.48,1.48,0,0,0,.08-.49,1.36,1.36,0,0,0-.08-.47,1,1,0,0,0-.25-.37,1.06,1.06,0,0,0-.41-.22,1.66,1.66,0,0,0-.58-.08h-.9Z" transform="translate(-1.42 2.67)"/><path class="cls-8" d="M46.94,53.06c.05.1.09.21.13.31,0-.11.09-.21.13-.32s.09-.2.15-.3l1.92-3.6a.52.52,0,0,1,.08-.11.16.16,0,0,1,.08-.06l.11,0h1.05v6.51H49.52v-4.2c0-.08,0-.17,0-.26s0-.19,0-.28l-2,3.69a.45.45,0,0,1-.17.19.43.43,0,0,1-.25.07H47a.41.41,0,0,1-.25-.07.55.55,0,0,1-.18-.19l-2-3.71c0,.1,0,.2,0,.29a2.62,2.62,0,0,1,0,.27v4.2H43.53V49h1.06l.1,0,.09.06a.52.52,0,0,1,.08.11l1.94,3.61C46.85,52.86,46.9,53,46.94,53.06Z" transform="translate(-1.42 2.67)"/><path class="cls-8" d="M56.23,49v1H53.35v1.8h2.27v.93H53.35v1.84h2.88v1h-4.1V49Z" transform="translate(-1.42 2.67)"/><path class="cls-8" d="M58.28,49a.16.16,0,0,1,.09,0l.09.06.09.1L62,53.5c0-.11,0-.21,0-.31a2.72,2.72,0,0,1,0-.28V49H63v6.51h-.63a.57.57,0,0,1-.24-.05.52.52,0,0,1-.18-.16l-3.4-4.33c0,.1,0,.19,0,.28v4.26H57.51V49h.77Z" transform="translate(-1.42 2.67)"/><path class="cls-8" d="M69.12,49v1h-2v5.51H66V50H64V49Z" transform="translate(-1.42 2.67)"/></svg>