<svg width="430" height="490" viewBox="0 0 430 490" fill="none" xmlns="http://www.w3.org/2000/svg">
<path d="M307.805 189.904C321.238 177.085 314.969 154.469 296.854 150.395L201.236 128.896C193.72 127.206 185.854 129.349 180.233 134.617L107.514 202.778C93.8295 215.605 100.182 238.523 118.518 242.474L215.951 263.47C223.482 265.093 231.328 262.88 236.901 257.562L307.805 189.904Z" fill="#6FC3EC" fill-opacity="0.15"/>
<path fill-rule="evenodd" clip-rule="evenodd" d="M314.992 171.982C315.319 178.322 313.083 184.869 307.806 189.904L236.902 257.562C231.329 262.88 223.483 265.093 215.952 263.47L118.519 242.474C109.664 240.566 103.603 234.234 101.245 226.751L100.969 226.828L129.363 329.262L129.639 329.185C131.997 336.668 138.057 343 146.913 344.908L244.346 365.904C251.877 367.527 259.723 365.315 265.296 359.996L336.2 292.338C344.357 284.555 345.249 273.159 340.637 264.496L314.992 171.982Z" fill="#6FC3EC" fill-opacity="0.15"/>
<path d="M173.103 363.818C183.659 360.649 186.426 346.994 177.935 339.966L133.12 302.868C129.597 299.952 124.859 298.97 120.467 300.246L63.6513 316.754C52.9595 319.861 50.1564 333.697 58.7962 340.72L104.707 378.039C108.256 380.924 113.003 381.863 117.383 380.548L173.103 363.818Z" fill="#6FC3EC" fill-opacity="0.15"/>
<path fill-rule="evenodd" clip-rule="evenodd" d="M181.727 356.268C180.194 359.711 177.25 362.573 173.104 363.818L117.384 380.548C113.004 381.863 108.257 380.924 104.708 378.039L58.7973 340.72C54.6248 337.328 53.1212 332.347 53.886 327.754L53.7187 327.72L41.1901 389.563L41.3571 389.596C40.5921 394.19 42.0957 399.171 46.2683 402.563L92.1793 439.882C95.728 442.767 100.475 443.706 104.855 442.391L160.575 425.661C166.985 423.737 170.522 417.947 170.412 412.121L181.727 356.268Z" fill="#6FC3EC" fill-opacity="0.15"/>
</svg>
