<svg width="801" height="1080" viewBox="0 0 801 1080" fill="none" xmlns="http://www.w3.org/2000/svg">
<g filter="url(#filter0_d_1414_6655)">
<path d="M332.098 673.539C369.875 652.598 431.125 652.598 468.902 673.539L732.598 819.708C770.376 840.648 770.376 874.599 732.598 895.54L468.902 1041.71C431.125 1062.65 369.875 1062.65 332.098 1041.71L68.4017 895.54C30.6244 874.599 30.6244 840.648 68.4018 819.708L332.098 673.539Z" fill="#009FDA"/>
</g>
<path d="M40.2334 648.136L399.905 839.377V1053.86L40.2334 862.616V648.136Z" fill="#009FDA"/>
<path d="M760.052 649.7L400.38 840.941V1055.42L760.052 864.18V649.7Z" fill="#009FDA"/>
<path d="M332.098 465.456C369.875 444.516 431.125 444.516 468.902 465.456L732.598 611.625C770.376 632.565 770.376 666.516 732.598 687.457L468.902 833.626C431.125 854.566 369.875 854.566 332.098 833.626L68.4017 687.457C30.6244 666.516 30.6244 632.565 68.4018 611.625L332.098 465.456Z" fill="#4BC6F0"/>
<g filter="url(#filter1_d_1414_6655)">
<path d="M469.828 599.024C508.24 624.933 508.597 667.491 470.626 694.079C432.654 720.666 370.733 721.217 332.321 695.307C293.91 669.398 293.552 626.841 331.524 600.253C369.495 573.665 431.416 573.115 469.828 599.024Z" fill="#005A7B"/>
</g>
<g filter="url(#filter2_d_1414_6655)">
<path d="M452.516 611.143C481.259 630.53 481.526 662.375 453.113 682.27C424.7 702.165 378.365 702.577 349.623 683.189C320.88 663.802 320.613 631.957 349.026 612.062C377.439 592.167 423.773 591.755 452.516 611.143Z" fill="#005A7B"/>
</g>
<path fill-rule="evenodd" clip-rule="evenodd" d="M666.93 283.029C710.07 207.891 688.951 118.47 603.934 58.3498C491.91 -20.8685 311.366 -19.2167 200.678 62.0393C116.352 123.943 96.8971 214.189 141.945 288.692L308.795 775.644H492.957L666.93 283.029Z" fill="url(#paint0_linear_1414_6655)"/>
<g filter="url(#filter3_d_1414_6655)">
<path d="M306.76 1027.53L117.241 918.107L58.4451 949.37C43.68 957.221 43.4506 970.363 57.9327 978.724L195.007 1057.86C209.489 1066.23 233.199 1066.64 247.964 1058.79L306.76 1027.53Z" fill="#009FDA"/>
</g>
<path d="M218.003 994.66L47.5335 896.239V962.115L218.003 1060.54V994.66Z" fill="#009FDA"/>
<path d="M306.942 883.919L219.74 934.265L231.397 1063.4L306.942 1027.25V883.919Z" fill="#009FDA"/>
<path d="M306.115 882.477L120.801 775.486L52.0118 873.728C42.4202 887.426 46.3847 905.309 60.8668 913.67L193.736 990.382C208.219 998.743 227.734 994.417 237.326 980.719L306.115 882.477Z" fill="#4BC6F0"/>
<path d="M121.019 804.076C123.392 800.567 128.287 799.443 131.953 801.565L270.9 882.006C274.566 884.128 275.614 888.694 273.241 892.203L220.101 970.785C217.728 974.294 212.833 975.418 209.167 973.296L70.2199 892.855C66.5539 890.733 65.5056 886.167 67.8786 882.658L121.019 804.076Z" fill="#90D6EE"/>
<path d="M208.705 254.549C208.929 241.735 218.743 235.24 230.625 240.041L551.635 369.737C563.517 374.538 572.968 388.817 572.744 401.63L569.788 571.011C569.564 583.824 559.75 590.32 547.868 585.519L226.858 455.823C214.976 451.022 205.525 436.743 205.749 423.93L208.705 254.549Z" fill="white"/>
<path d="M208.855 245.98C208.996 237.899 215.185 233.802 222.679 236.83L559.581 372.948C567.075 375.975 573.035 384.98 572.894 393.061L208.855 245.98Z" fill="#04518C"/>
<path fill-rule="evenodd" clip-rule="evenodd" d="M337.588 346.995L366.716 358.763C365.498 341.65 353.453 323.612 338.128 316.053L337.588 346.995Z" fill="#00DDBE"/>
<path fill-rule="evenodd" clip-rule="evenodd" d="M330.995 350.872L331.048 347.794L331.102 344.715L331.586 316.993C317.194 312.973 305.813 321.573 305.536 337.486C305.237 354.615 317.913 373.72 333.851 380.159C348.821 386.208 361.342 378.927 363.053 363.824L330.995 350.872Z" fill="#4BC6F0"/>
<path fill-rule="evenodd" clip-rule="evenodd" d="M427.647 383.382L456.776 395.15C455.558 378.037 443.512 359.999 428.188 352.441L427.647 383.382Z" fill="#9E005D"/>
<path fill-rule="evenodd" clip-rule="evenodd" d="M421.059 387.259L421.113 384.181L421.166 381.102L421.65 353.38C407.258 349.36 395.878 357.96 395.6 373.873C395.301 391.002 407.977 410.107 423.915 416.546C438.886 422.595 451.407 415.314 453.118 400.211L421.059 387.259Z" fill="#04518C"/>
<path fill-rule="evenodd" clip-rule="evenodd" d="M517.709 419.768L546.837 431.537C545.619 414.424 533.573 396.385 518.249 388.827L517.709 419.768Z" fill="#F2D021"/>
<path fill-rule="evenodd" clip-rule="evenodd" d="M511.117 423.646L511.171 420.568L511.225 417.49L511.709 389.767C497.316 385.747 485.935 394.347 485.658 410.26C485.359 427.389 498.036 446.494 513.973 452.933C528.943 458.982 541.463 451.701 543.176 436.598L511.117 423.646Z" fill="#00DDBE"/>
<path fill-rule="evenodd" clip-rule="evenodd" d="M304.455 399.442L545.696 496.909L545.982 480.533L304.741 383.065L304.455 399.442Z" fill="#04518C"/>
<path fill-rule="evenodd" clip-rule="evenodd" d="M303.868 433.135L545.109 530.602L545.4 513.89L304.16 416.422L303.868 433.135Z" fill="#04518C"/>
<path fill-rule="evenodd" clip-rule="evenodd" d="M303.354 462.599L544.594 560.067L544.886 543.354L303.646 445.887L303.354 462.599Z" fill="#04518C"/>
<path fill-rule="evenodd" clip-rule="evenodd" d="M223.057 437.795L274.281 458.491L277.25 288.348L226.027 267.653L223.057 437.795Z" fill="#F2D021"/>
<path fill-rule="evenodd" clip-rule="evenodd" d="M225.288 245.253C225.256 247.106 223.837 248.046 222.118 247.351C220.399 246.657 219.032 244.591 219.064 242.738C219.097 240.885 220.516 239.945 222.235 240.64C223.954 241.334 225.321 243.399 225.288 245.253Z" fill="white"/>
<path fill-rule="evenodd" clip-rule="evenodd" d="M235.869 249.528C235.837 251.381 234.418 252.321 232.699 251.626C230.98 250.932 229.613 248.866 229.646 247.013C229.678 245.16 231.098 244.22 232.816 244.915C234.535 245.609 235.902 247.674 235.869 249.528Z" fill="white"/>
<path fill-rule="evenodd" clip-rule="evenodd" d="M247.26 254.129C247.228 255.982 245.808 256.922 244.089 256.228C242.371 255.533 241.004 253.468 241.036 251.615C241.069 249.761 242.488 248.822 244.207 249.516C245.925 250.21 247.292 252.276 247.26 254.129Z" fill="white"/>
<path fill-rule="evenodd" clip-rule="evenodd" d="M96.0468 880.125C94.6029 882.187 91.6603 882.836 89.4746 881.574C87.2893 880.312 86.6882 877.617 88.1321 875.555L122.124 827.01C123.568 824.948 126.51 824.299 128.695 825.561C130.881 826.823 131.482 829.518 130.038 831.58L96.0468 880.125Z" fill="#F2D021"/>
<path fill-rule="evenodd" clip-rule="evenodd" d="M113.905 890.436C112.461 892.498 109.519 893.147 107.333 891.885C105.148 890.623 104.547 887.928 105.99 885.866L139.982 837.321C141.426 835.259 144.369 834.61 146.554 835.872C148.74 837.133 149.341 839.828 147.897 841.891L113.905 890.436Z" fill="#F2D021"/>
<path fill-rule="evenodd" clip-rule="evenodd" d="M132.129 900.957C130.685 903.019 127.752 903.674 125.577 902.418C123.403 901.163 122.811 898.473 124.255 896.411L158.247 847.866C159.691 845.804 162.624 845.15 164.798 846.405C166.973 847.66 167.565 850.35 166.121 852.412L132.129 900.957Z" fill="#F2D021"/>
<path fill-rule="evenodd" clip-rule="evenodd" d="M151.694 912.252C150.25 914.315 147.308 914.964 145.122 913.702C142.937 912.44 142.336 909.745 143.78 907.683L177.771 859.138C179.215 857.076 182.158 856.427 184.343 857.688C186.529 858.95 187.13 861.645 185.686 863.707L151.694 912.252Z" fill="#F2D021"/>
<path fill-rule="evenodd" clip-rule="evenodd" d="M122.172 847.618C119.945 850.798 115.414 851.803 112.051 849.862C108.688 847.92 107.768 843.768 109.995 840.588C112.222 837.408 116.753 836.403 120.116 838.344C123.478 840.285 124.398 844.438 122.172 847.618Z" fill="white"/>
<path fill-rule="evenodd" clip-rule="evenodd" d="M124.439 880.196C122.212 883.376 117.681 884.381 114.319 882.439C110.956 880.498 110.036 876.346 112.263 873.166C114.489 869.985 119.021 868.981 122.383 870.922C125.746 872.863 126.666 877.016 124.439 880.196Z" fill="white"/>
<path fill-rule="evenodd" clip-rule="evenodd" d="M155.607 872.313C153.38 875.493 148.849 876.498 145.487 874.557C142.124 872.615 141.204 868.463 143.431 865.283C145.657 862.103 150.189 861.098 153.551 863.039C156.914 864.981 157.834 869.133 155.607 872.313Z" fill="white"/>
<path fill-rule="evenodd" clip-rule="evenodd" d="M169.754 891.263C167.527 894.443 162.996 895.448 159.633 893.507C156.271 891.565 155.35 887.413 157.577 884.233C159.804 881.053 164.335 880.048 167.698 881.989C171.06 883.931 171.98 888.083 169.754 891.263Z" fill="white"/>
<path fill-rule="evenodd" clip-rule="evenodd" d="M207.386 917.194C204.807 915.705 204.098 912.511 205.805 910.074C207.185 908.103 209.725 907.246 212.011 907.767L217.655 899.707C218.169 898.973 219.215 898.742 219.991 899.19C220.767 899.638 220.98 900.596 220.466 901.33L214.822 909.391C216.313 911.049 216.535 913.501 215.154 915.473C213.45 917.911 209.964 918.682 207.386 917.194ZM227.405 922.544C227.919 921.81 228.964 921.577 229.74 922.025L233.881 924.416C236.97 919.361 238.017 913.74 237.212 908.438L232.358 909.514C231.901 909.616 231.451 909.538 231.091 909.33C230.732 909.123 230.462 908.785 230.369 908.366C230.184 907.53 230.773 906.689 231.685 906.487L236.54 905.412C235.029 900.266 231.705 895.613 226.764 892.338L223.953 890.715C218.591 888.043 212.542 887.284 206.769 888.223L207.755 892.671C207.941 893.508 207.352 894.349 206.439 894.55C205.983 894.652 205.532 894.574 205.172 894.366C204.813 894.159 204.543 893.821 204.451 893.402L203.465 888.954C197.836 890.541 192.674 893.784 188.944 898.472L193.087 900.863C193.863 901.312 194.076 902.27 193.562 903.004C193.048 903.738 192.002 903.971 191.225 903.522L187.084 901.132C183.993 906.187 182.948 911.807 183.753 917.108L188.607 916.033C189.519 915.83 190.409 916.344 190.595 917.181C190.781 918.018 190.192 918.858 189.279 919.06L184.425 920.134C185.937 925.281 189.26 929.932 194.2 933.208L196.942 929.292C197.456 928.558 198.502 928.327 199.278 928.775C200.054 929.223 200.267 930.182 199.753 930.915L197.012 934.831C202.373 937.503 208.424 938.262 214.197 937.323L213.209 932.876C213.023 932.039 213.612 931.199 214.524 930.997C215.438 930.795 216.326 931.307 216.512 932.144L217.499 936.592C223.128 935.005 228.289 931.763 232.019 927.075L227.878 924.684C227.102 924.237 226.891 923.278 227.405 922.544Z" fill="white"/>
<path fill-rule="evenodd" clip-rule="evenodd" d="M483.633 965.25C483.633 973.722 489.581 977.156 496.918 972.92L683.307 865.309C690.644 861.073 696.592 850.771 696.592 842.298V764.677C696.592 756.205 690.644 752.771 683.307 757.007L496.918 864.618C489.581 868.855 483.633 879.157 483.633 887.629V965.25Z" fill="#90D6EE"/>
<path fill-rule="evenodd" clip-rule="evenodd" d="M582.474 874.053C582.474 876.764 584.377 877.863 586.725 876.507L647.305 841.531C649.652 840.176 651.556 836.879 651.556 834.168V831.944C651.556 829.233 649.652 828.134 647.305 829.489L586.725 864.465C584.377 865.821 582.474 869.117 582.474 871.828V874.053Z" fill="#009FDA"/>
<path fill-rule="evenodd" clip-rule="evenodd" d="M582.474 844.216C582.474 846.927 584.377 848.026 586.725 846.671L674.472 796.01C676.82 794.654 678.724 791.357 678.724 788.646V786.422C678.724 783.711 676.82 782.612 674.472 783.968L586.725 834.629C584.377 835.984 582.474 839.281 582.474 841.992V844.216Z" fill="#009FDA"/>
<path fill-rule="evenodd" clip-rule="evenodd" d="M582.474 905.27C582.474 907.981 584.377 909.08 586.725 907.724L616.284 890.658C618.632 889.303 620.535 886.006 620.535 883.295V881.071C620.535 878.36 618.632 877.261 616.284 878.616L586.725 895.682C584.377 897.038 582.474 900.334 582.474 903.046V905.27Z" fill="#009FDA"/>
<path fill-rule="evenodd" clip-rule="evenodd" d="M564.072 881.608C564.072 902.323 549.53 927.511 531.59 937.868C513.651 948.225 499.108 939.829 499.108 919.115C499.108 898.4 513.651 873.212 531.59 862.854C549.53 852.497 564.072 860.893 564.072 881.608Z" fill="#009FDA"/>
<path fill-rule="evenodd" clip-rule="evenodd" d="M550.523 889.431C550.523 901.504 542.048 916.184 531.592 922.221C521.137 928.257 512.661 923.364 512.661 911.291C512.661 899.218 521.137 884.538 531.592 878.501C542.048 872.465 550.523 877.358 550.523 889.431Z" fill="#015C7C"/>
<defs>
<filter id="filter0_d_1414_6655" x="30.0684" y="652.833" width="740.863" height="419.581" filterUnits="userSpaceOnUse" color-interpolation-filters="sRGB">
<feFlood flood-opacity="0" result="BackgroundImageFix"/>
<feColorMatrix in="SourceAlpha" type="matrix" values="0 0 0 0 0 0 0 0 0 0 0 0 0 0 0 0 0 0 127 0" result="hardAlpha"/>
<feOffset dy="5"/>
<feGaussianBlur stdDeviation="5"/>
<feComposite in2="hardAlpha" operator="out"/>
<feColorMatrix type="matrix" values="0 0 0 0 0 0 0 0 0 0 0 0 0 0 0 0 0 0 0.15 0"/>
<feBlend mode="normal" in2="BackgroundImageFix" result="effect1_dropShadow_1414_6655"/>
<feBlend mode="normal" in="SourceGraphic" in2="effect1_dropShadow_1414_6655" result="shape"/>
</filter>
<filter id="filter1_d_1414_6655" x="283.277" y="564.947" width="235.595" height="174.438" filterUnits="userSpaceOnUse" color-interpolation-filters="sRGB">
<feFlood flood-opacity="0" result="BackgroundImageFix"/>
<feColorMatrix in="SourceAlpha" type="matrix" values="0 0 0 0 0 0 0 0 0 0 0 0 0 0 0 0 0 0 127 0" result="hardAlpha"/>
<feOffset dy="5"/>
<feGaussianBlur stdDeviation="10"/>
<feComposite in2="hardAlpha" operator="out"/>
<feColorMatrix type="matrix" values="0 0 0 0 1 0 0 0 0 1 0 0 0 0 1 0 0 0 0.5 0"/>
<feBlend mode="normal" in2="BackgroundImageFix" result="effect1_dropShadow_1414_6655"/>
<feBlend mode="normal" in="SourceGraphic" in2="effect1_dropShadow_1414_6655" result="shape"/>
</filter>
<filter id="filter2_d_1414_6655" x="307.89" y="581.867" width="186.359" height="140.597" filterUnits="userSpaceOnUse" color-interpolation-filters="sRGB">
<feFlood flood-opacity="0" result="BackgroundImageFix"/>
<feColorMatrix in="SourceAlpha" type="matrix" values="0 0 0 0 0 0 0 0 0 0 0 0 0 0 0 0 0 0 127 0" result="hardAlpha"/>
<feOffset dy="5"/>
<feGaussianBlur stdDeviation="10"/>
<feComposite in2="hardAlpha" operator="out"/>
<feColorMatrix type="matrix" values="0 0 0 0 1 0 0 0 0 1 0 0 0 0 1 0 0 0 0.5 0"/>
<feBlend mode="normal" in2="BackgroundImageFix" result="effect1_dropShadow_1414_6655"/>
<feBlend mode="normal" in="SourceGraphic" in2="effect1_dropShadow_1414_6655" result="shape"/>
</filter>
<filter id="filter3_d_1414_6655" x="37.2197" y="913.107" width="279.54" height="166.309" filterUnits="userSpaceOnUse" color-interpolation-filters="sRGB">
<feFlood flood-opacity="0" result="BackgroundImageFix"/>
<feColorMatrix in="SourceAlpha" type="matrix" values="0 0 0 0 0 0 0 0 0 0 0 0 0 0 0 0 0 0 127 0" result="hardAlpha"/>
<feOffset dy="5"/>
<feGaussianBlur stdDeviation="5"/>
<feComposite in2="hardAlpha" operator="out"/>
<feColorMatrix type="matrix" values="0 0 0 0 0 0 0 0 0 0 0 0 0 0 0 0 0 0 0.15 0"/>
<feBlend mode="normal" in2="BackgroundImageFix" result="effect1_dropShadow_1414_6655"/>
<feBlend mode="normal" in="SourceGraphic" in2="effect1_dropShadow_1414_6655" result="shape"/>
</filter>
<linearGradient id="paint0_linear_1414_6655" x1="403.515" y1="0" x2="403.515" y2="775.644" gradientUnits="userSpaceOnUse">
<stop stop-color="#00DDBE"/>
<stop offset="1" stop-color="#00DDBE" stop-opacity="0"/>
</linearGradient>
</defs>
</svg>
