<svg id="Layer_1" data-name="Layer 1" xmlns="http://www.w3.org/2000/svg" viewBox="0 0 237.3 60.86"><defs><style>.cls-1{fill:#90191c;}</style></defs><title>human-cancer-models-initiative-stacked</title><path class="cls-1" d="M7.74,16.62a.34.34,0,0,0-.28.12.36.36,0,0,0-.11.27v8.43a.64.64,0,0,1-.2.52.87.87,0,0,1-.61.17H2.76A.71.71,0,0,1,2.25,26a.66.66,0,0,1-.15-.48V4.44q0-.57.48-.57H6.87q.48,0,.48.54v7.68q0,.51.45.51h6.93a.42.42,0,0,0,.48-.48V4.41q0-.54.45-.54H20q.51,0,.51.57V25.5q0,.63-.66.63H16a.94.94,0,0,1-.6-.15.67.67,0,0,1-.18-.54V17a.38.38,0,0,0-.11-.28.42.42,0,0,0-.31-.11Z" transform="translate(-2.1 -3.57)"/><path class="cls-1" d="M34,21.33V10.92q0-.69.78-.69H38a.64.64,0,0,1,.49.15.71.71,0,0,1,.14.48l-.06,14.73a.56.56,0,0,1-.14.39.43.43,0,0,1-.34.15H34.56q-.45,0-.45-.51V24.15q0-.18-.09-.21t-.24.09a8.62,8.62,0,0,1-2.49,1.85,6.57,6.57,0,0,1-2.67.55,4.41,4.41,0,0,1-3.3-1.31A4.78,4.78,0,0,1,24,21.6V11a.64.64,0,0,1,.72-.72h3.33q.57,0,.57.63V20.94a2.15,2.15,0,0,0,.57,1.57,2,2,0,0,0,1.53.59A4.55,4.55,0,0,0,34,21.33Z" transform="translate(-2.1 -3.57)"/><path class="cls-1" d="M42.09,26a.63.63,0,0,1-.15-.47V10.8a.6.6,0,0,1,.13-.42.45.45,0,0,1,.35-.15H46q.45,0,.45.51v1.47q0,.24.15.24a.33.33,0,0,0,.21-.12,11.61,11.61,0,0,1,2.46-1.8,5.41,5.41,0,0,1,2.55-.63,4.71,4.71,0,0,1,2.7.75,4,4,0,0,1,1.56,2q0,.12.12.12a.41.41,0,0,0,.27-.15,9.26,9.26,0,0,1,2.5-2,5.84,5.84,0,0,1,2.78-.75,4.42,4.42,0,0,1,3.34,1.29,4.89,4.89,0,0,1,1.25,3.54V25.41a.64.64,0,0,1-.72.72H62.31a.63.63,0,0,1-.45-.13.74.74,0,0,1-.12-.47V15.39a2.18,2.18,0,0,0-.54-1.56,2,2,0,0,0-1.53-.57,3.09,3.09,0,0,0-1.58.45,5.09,5.09,0,0,0-1.3,1.08,1.55,1.55,0,0,0-.26.39,1.18,1.18,0,0,0-.07.45v9.78a.64.64,0,0,1-.72.72h-3.3A.66.66,0,0,1,52,26a.68.68,0,0,1-.13-.47V15.39a2.18,2.18,0,0,0-.54-1.56,2,2,0,0,0-1.56-.57,3.09,3.09,0,0,0-1.62.45,7,7,0,0,0-1.59,1.41V25.44a.67.67,0,0,1-.18.52.83.83,0,0,1-.6.17H42.57A.76.76,0,0,1,42.09,26Z" transform="translate(-2.1 -3.57)"/><path class="cls-1" d="M73.56,26.43A5.07,5.07,0,0,1,70,25.21a4.09,4.09,0,0,1-1.32-3.16A4.66,4.66,0,0,1,71,18a11.91,11.91,0,0,1,6.36-1.62l1.08-.09a.48.48,0,0,0,.31-.1.39.39,0,0,0,.14-.32v-.63a2.37,2.37,0,0,0-.66-1.8,2.63,2.63,0,0,0-1.89-.63,3.35,3.35,0,0,0-3.12,1.8.41.41,0,0,1-.39.3,1.12,1.12,0,0,1-.27,0l-3-.69a.31.31,0,0,1-.27-.33,1.16,1.16,0,0,1,.12-.45A4.91,4.91,0,0,1,72,10.8a10.72,10.72,0,0,1,4.58-.87q3.57,0,5.16,1.3a4.53,4.53,0,0,1,1.59,3.71V25.47a.83.83,0,0,1-.12.51.55.55,0,0,1-.45.15H79.62a.49.49,0,0,1-.44-.21,1.62,1.62,0,0,1-.19-.63l0-.66q0-.27-.24-.27a1.07,1.07,0,0,0-.45.24A6.7,6.7,0,0,1,73.56,26.43Zm5.22-7.77a.43.43,0,0,0-.36-.12l-.84.06a7.2,7.2,0,0,0-3.08.82,2.26,2.26,0,0,0-1.33,2,1.77,1.77,0,0,0,.63,1.43,2.64,2.64,0,0,0,1.74.52,3.51,3.51,0,0,0,2.34-.81,2.12,2.12,0,0,0,1-1.59V19.05A.66.66,0,0,0,78.78,18.66Z" transform="translate(-2.1 -3.57)"/><path class="cls-1" d="M86.55,26a.63.63,0,0,1-.15-.47V10.8q0-.57.48-.57h3.63q.45,0,.45.51v1.47q0,.24.15.24a.33.33,0,0,0,.21-.12,10.62,10.62,0,0,1,2.46-1.79,5.89,5.89,0,0,1,2.61-.61,4.64,4.64,0,0,1,3.46,1.29,4.7,4.7,0,0,1,1.28,3.45V25.41a.64.64,0,0,1-.72.72H97.08a.63.63,0,0,1-.45-.13.74.74,0,0,1-.12-.47V15.39A2.16,2.16,0,0,0,96,13.81a2.2,2.2,0,0,0-1.63-.55,3.24,3.24,0,0,0-1.67.45A7.3,7.3,0,0,0,91,15.12V25.44a.67.67,0,0,1-.18.52.83.83,0,0,1-.6.17H87A.76.76,0,0,1,86.55,26Z" transform="translate(-2.1 -3.57)"/><path class="cls-1" d="M124.47,4.44a8.69,8.69,0,0,1,3.16,2.37,7.15,7.15,0,0,1,1.58,3.36,1.75,1.75,0,0,1,.06.48.27.27,0,0,1-.09.24.71.71,0,0,1-.27.09l-4,.27a.47.47,0,0,1-.35-.09.94.94,0,0,1-.13-.36,4.85,4.85,0,0,0-1.32-2.61,3.63,3.63,0,0,0-2.64-1q-4.8,0-4.8,7.68,0,4,1.2,5.82a4.08,4.08,0,0,0,3.66,1.83,5,5,0,0,0,3-.9,6.27,6.27,0,0,0,2-2.94.38.38,0,0,1,.39-.21.91.91,0,0,1,.27,0l2.94.63q.42.15.33.75a7.92,7.92,0,0,1-1.4,2.79A9.41,9.41,0,0,1,125,25.32a9.55,9.55,0,0,1-4.74,1.11A9.86,9.86,0,0,1,114.88,25a9.49,9.49,0,0,1-3.52-4.08,14.19,14.19,0,0,1-1.23-6.08,13.6,13.6,0,0,1,1.23-6,8.93,8.93,0,0,1,3.52-3.91,10.26,10.26,0,0,1,5.39-1.37A10.06,10.06,0,0,1,124.47,4.44Z" transform="translate(-2.1 -3.57)"/><path class="cls-1" d="M136.26,26.43a5.07,5.07,0,0,1-3.57-1.22,4.09,4.09,0,0,1-1.32-3.16A4.66,4.66,0,0,1,133.68,18,11.91,11.91,0,0,1,140,16.38l1.08-.09a.48.48,0,0,0,.31-.1.39.39,0,0,0,.14-.32v-.63a2.37,2.37,0,0,0-.66-1.8,2.63,2.63,0,0,0-1.89-.63,3.35,3.35,0,0,0-3.12,1.8.41.41,0,0,1-.39.3,1.12,1.12,0,0,1-.27,0l-3-.69a.31.31,0,0,1-.27-.33,1.16,1.16,0,0,1,.12-.45,4.91,4.91,0,0,1,2.56-2.61,10.72,10.72,0,0,1,4.58-.87q3.57,0,5.16,1.3A4.53,4.53,0,0,1,146,14.94V25.47a.83.83,0,0,1-.12.51.55.55,0,0,1-.45.15h-3.09a.49.49,0,0,1-.44-.21,1.62,1.62,0,0,1-.19-.63l0-.66q0-.27-.24-.27a1.07,1.07,0,0,0-.45.24A6.7,6.7,0,0,1,136.26,26.43Zm5.22-7.77a.43.43,0,0,0-.36-.12l-.84.06a7.2,7.2,0,0,0-3.08.82,2.26,2.26,0,0,0-1.33,2,1.77,1.77,0,0,0,.63,1.43,2.64,2.64,0,0,0,1.74.52,3.51,3.51,0,0,0,2.34-.81,2.12,2.12,0,0,0,1-1.59V19.05A.66.66,0,0,0,141.48,18.66Z" transform="translate(-2.1 -3.57)"/><path class="cls-1" d="M149.25,26a.63.63,0,0,1-.15-.47V10.8q0-.57.48-.57h3.63q.45,0,.45.51v1.47q0,.24.15.24a.33.33,0,0,0,.21-.12,10.62,10.62,0,0,1,2.46-1.79,5.89,5.89,0,0,1,2.61-.61,4.64,4.64,0,0,1,3.46,1.29,4.7,4.7,0,0,1,1.28,3.45V25.41a.64.64,0,0,1-.72.72h-3.33a.63.63,0,0,1-.45-.13.74.74,0,0,1-.12-.47V15.39a2.16,2.16,0,0,0-.56-1.58,2.2,2.2,0,0,0-1.63-.55,3.24,3.24,0,0,0-1.67.45,7.3,7.3,0,0,0-1.63,1.41V25.44a.67.67,0,0,1-.18.52.83.83,0,0,1-.6.17h-3.21A.76.76,0,0,1,149.25,26Z" transform="translate(-2.1 -3.57)"/><path class="cls-1" d="M178.66,11.26A6.55,6.55,0,0,1,181,14.49a1.8,1.8,0,0,1,.06.3q0,.27-.42.33l-3.15.3h-.09q-.27,0-.36-.33a5.8,5.8,0,0,0-1.1-1.61,2.23,2.23,0,0,0-1.57-.52,2.92,2.92,0,0,0-2.54,1.32,6.85,6.85,0,0,0-.91,3.9,6.64,6.64,0,0,0,1,4,3.19,3.19,0,0,0,2.72,1.32,3.1,3.1,0,0,0,2-.63,6.92,6.92,0,0,0,1.53-1.92.28.28,0,0,1,.19-.16.89.89,0,0,1,.32,0l2.22.51a.27.27,0,0,1,.27.3l-.06.27A7.12,7.12,0,0,1,178.78,25a6.84,6.84,0,0,1-4.54,1.43,8.3,8.3,0,0,1-4.13-1,7.31,7.31,0,0,1-2.83-2.9,8.71,8.71,0,0,1-1-4.26,8.84,8.84,0,0,1,1-4.32A7.47,7.47,0,0,1,170.14,11a8,8,0,0,1,4.1-1.05A7.15,7.15,0,0,1,178.66,11.26Z" transform="translate(-2.1 -3.57)"/><path class="cls-1" d="M188.68,22.25a4,4,0,0,0,2.81,1,4.32,4.32,0,0,0,2-.47,6.27,6.27,0,0,0,1.85-1.54.35.35,0,0,1,.24-.12.91.91,0,0,1,.3.09l2.16.9a.31.31,0,0,1,.21.3.48.48,0,0,1-.12.3A8.56,8.56,0,0,1,195,25.6a9.14,9.14,0,0,1-4.11.83,8.53,8.53,0,0,1-4.17-1,7.36,7.36,0,0,1-2.91-2.84,8.1,8.1,0,0,1-1.05-4.15A9,9,0,0,1,183.87,14a7.61,7.61,0,0,1,2.92-3,8.46,8.46,0,0,1,8.09,0,6.88,6.88,0,0,1,2.76,2.89,9.58,9.58,0,0,1,1,4.5,1.32,1.32,0,0,1-.08.54c-.05.1-.19.16-.43.18h-10.2q-.36,0-.36.48A3.54,3.54,0,0,0,188.68,22.25Zm4.91-5.72a.87.87,0,0,0,.42-.07.47.47,0,0,0,.09-.35,3.7,3.7,0,0,0-.36-1.56,3.3,3.3,0,0,0-1.05-1.29,2.75,2.75,0,0,0-1.68-.51,3.18,3.18,0,0,0-2.46,1.05,3.74,3.74,0,0,0-.93,2.7Z" transform="translate(-2.1 -3.57)"/><path class="cls-1" d="M201.09,25.53V10.8q0-.57.48-.57h3.51q.48,0,.48.51v1.77a.24.24,0,0,0,.06.18.17.17,0,0,0,.12.06.41.41,0,0,0,.24-.15,7.37,7.37,0,0,1,2.13-1.93,4.5,4.5,0,0,1,2.34-.74q1.08,0,1.08.51v3.48a.45.45,0,0,1-.12.33.31.31,0,0,1-.33.06,8.65,8.65,0,0,0-2.1-.24,3.43,3.43,0,0,0-1.52.37,3.8,3.8,0,0,0-1.26,1,2,2,0,0,0-.49,1.24v8.76q0,.69-.78.69h-3.21Q201.09,26.13,201.09,25.53Z" transform="translate(-2.1 -3.57)"/><path class="cls-1" d="M2.27,64a.69.69,0,0,1-.17-.51v-21q0-.57.51-.57H8.82A1,1,0,0,1,9.3,42a.63.63,0,0,1,.24.36l4.53,12.57q.09.24.21.24t.21-.24l4.32-12.33q.18-.69.66-.69h6.45q.45,0,.45.54v21a.71.71,0,0,1-.18.55.78.78,0,0,1-.57.17H21.75a.79.79,0,0,1-.5-.13.73.73,0,0,1-.13-.47V48.59q0-.21-.09-.21t-.18.24l-5.25,15a.61.61,0,0,1-.63.48H12.48a.6.6,0,0,1-.66-.48L6.63,48.83q-.09-.24-.18-.24t-.12.27V63.59a.67.67,0,0,1-.1.43.61.61,0,0,1-.44.11H2.73A.57.57,0,0,1,2.27,64Z" transform="translate(-2.1 -3.57)"/><path class="cls-1" d="M33.25,63.4a7.31,7.31,0,0,1-2.83-2.9,8.65,8.65,0,0,1-1-4.23,8.91,8.91,0,0,1,1-4.35A7.41,7.41,0,0,1,33.31,49a8.77,8.77,0,0,1,8.36,0,7.31,7.31,0,0,1,2.83,3,9,9,0,0,1,1,4.29,8.65,8.65,0,0,1-1,4.23,7.39,7.39,0,0,1-2.85,2.91,8.29,8.29,0,0,1-4.2,1.05A8.42,8.42,0,0,1,33.25,63.4ZM40,60.06a7.13,7.13,0,0,0,.86-3.88,7.4,7.4,0,0,0-.86-4,2.8,2.8,0,0,0-2.5-1.33A2.84,2.84,0,0,0,35,52.23a7.3,7.3,0,0,0-.87,4A7.06,7.06,0,0,0,35,60.05a2.83,2.83,0,0,0,2.52,1.32A2.78,2.78,0,0,0,40,60.06Z" transform="translate(-2.1 -3.57)"/><path class="cls-1" d="M58.5,63.53v-.84q0-.24-.15-.24a.58.58,0,0,0-.27.12,7.54,7.54,0,0,1-1.91,1.35,5.53,5.53,0,0,1-2.47.51,5.6,5.6,0,0,1-4.55-2.1,9.28,9.28,0,0,1-1.72-6,10.23,10.23,0,0,1,.88-4.36,7.24,7.24,0,0,1,2.39-3,5.63,5.63,0,0,1,3.3-1,5.47,5.47,0,0,1,2.11.39,6.1,6.1,0,0,1,1.82,1.2.66.66,0,0,0,.3.15q.21,0,.21-.39V42.41q0-.54.48-.54h3.66a.43.43,0,0,1,.34.15.61.61,0,0,1,.14.42V63.5a.66.66,0,0,1-.15.48.76.76,0,0,1-.54.15H59.13Q58.5,64.13,58.5,63.53ZM57.07,51.26a3.15,3.15,0,0,0-1.51-.36A2.92,2.92,0,0,0,53,52.21a7,7,0,0,0-.93,4,7.09,7.09,0,0,0,.9,4,2.89,2.89,0,0,0,2.49,1.28,2.93,2.93,0,0,0,2.07-.8,2.41,2.41,0,0,0,.87-1.84V52.37A5.3,5.3,0,0,0,57.07,51.26Z" transform="translate(-2.1 -3.57)"/><path class="cls-1" d="M71.53,60.25a4,4,0,0,0,2.81,1,4.32,4.32,0,0,0,2-.47,6.27,6.27,0,0,0,1.85-1.54.35.35,0,0,1,.24-.12.91.91,0,0,1,.3.09l2.16.9a.31.31,0,0,1,.21.3.48.48,0,0,1-.12.3,8.56,8.56,0,0,1-3.09,2.86,9.14,9.14,0,0,1-4.11.83,8.53,8.53,0,0,1-4.17-1,7.36,7.36,0,0,1-2.91-2.84,8.1,8.1,0,0,1-1-4.15A9,9,0,0,1,66.72,52a7.61,7.61,0,0,1,2.92-3,8.46,8.46,0,0,1,8.09,0,6.88,6.88,0,0,1,2.76,2.89,9.58,9.58,0,0,1,1,4.5,1.32,1.32,0,0,1-.08.54c-.05.1-.19.16-.43.18H70.77q-.36,0-.36.48A3.54,3.54,0,0,0,71.53,60.25Zm4.91-5.72a.87.87,0,0,0,.42-.07.47.47,0,0,0,.09-.35,3.7,3.7,0,0,0-.36-1.56,3.3,3.3,0,0,0-1-1.29,2.75,2.75,0,0,0-1.68-.51,3.18,3.18,0,0,0-2.46,1,3.74,3.74,0,0,0-.93,2.7Z" transform="translate(-2.1 -3.57)"/><path class="cls-1" d="M88.59,63.41a.71.71,0,0,1-.18.55.88.88,0,0,1-.63.17H84.6a.71.71,0,0,1-.51-.15.66.66,0,0,1-.15-.48L84,42.44q0-.57.48-.57h3.63q.45,0,.45.54Z" transform="translate(-2.1 -3.57)"/><path class="cls-1" d="M98.22,50.75a3.72,3.72,0,0,0-1.89.44,1.32,1.32,0,0,0-.75,1.18,1,1,0,0,0,.34.76,2.85,2.85,0,0,0,1.34.59l3.45.84a6.61,6.61,0,0,1,3.48,1.82,4.24,4.24,0,0,1,1.11,2.92,4.34,4.34,0,0,1-2,3.75,8.9,8.9,0,0,1-5.19,1.38,10.16,10.16,0,0,1-4.47-.92A5.62,5.62,0,0,1,91,61.13a.69.69,0,0,1-.15-.39.31.31,0,0,1,.21-.3l2-1a1,1,0,0,1,.42-.12.46.46,0,0,1,.33.15,5,5,0,0,0,1.6,1.48,4.84,4.84,0,0,0,2.51.56,5.35,5.35,0,0,0,2.29-.42,1.33,1.33,0,0,0,.89-1.23,1.11,1.11,0,0,0-.45-.9,4.16,4.16,0,0,0-1.53-.63l-3.09-.66q-4.56-1-4.56-4.53a4.51,4.51,0,0,1,.82-2.67,5.44,5.44,0,0,1,2.36-1.83,9,9,0,0,1,3.6-.66,8.88,8.88,0,0,1,3.88.81,5.57,5.57,0,0,1,2.45,2,.74.74,0,0,1,.18.42.35.35,0,0,1-.21.3l-2.16,1a.43.43,0,0,1-.24.06.54.54,0,0,1-.45-.24A4.14,4.14,0,0,0,98.22,50.75Z" transform="translate(-2.1 -3.57)"/><path class="cls-1" d="M119.22,41.87q.48,0,.48.54v21a.71.71,0,0,1-.18.55.88.88,0,0,1-.63.17h-3.78a.71.71,0,0,1-.51-.15.66.66,0,0,1-.15-.48V42.44q0-.57.48-.57Z" transform="translate(-2.1 -3.57)"/><path class="cls-1" d="M123.6,64a.63.63,0,0,1-.15-.47V48.8q0-.57.48-.57h3.63q.45,0,.45.51v1.47q0,.24.15.24a.33.33,0,0,0,.21-.12,10.62,10.62,0,0,1,2.46-1.79,5.89,5.89,0,0,1,2.61-.61,4.64,4.64,0,0,1,3.46,1.29,4.7,4.7,0,0,1,1.28,3.45V63.41a.64.64,0,0,1-.72.72h-3.33a.63.63,0,0,1-.45-.13.74.74,0,0,1-.12-.47V53.39a2.16,2.16,0,0,0-.56-1.58,2.2,2.2,0,0,0-1.63-.55,3.24,3.24,0,0,0-1.67.45,7.3,7.3,0,0,0-1.63,1.41V63.44a.67.67,0,0,1-.18.52.83.83,0,0,1-.6.17h-3.21A.76.76,0,0,1,123.6,64Z" transform="translate(-2.1 -3.57)"/><path class="cls-1" d="M146,45.56q0,.75-.81.75H142a.71.71,0,0,1-.51-.16.78.78,0,0,1-.15-.53V42.47q0-.6.51-.6h3.72a.43.43,0,0,1,.34.15.61.61,0,0,1,.14.42ZM146,63.41a.71.71,0,0,1-.18.55.88.88,0,0,1-.63.17H142a.71.71,0,0,1-.51-.15.66.66,0,0,1-.15-.48V48.8q0-.57.51-.57h3.66q.45,0,.45.51Z" transform="translate(-2.1 -3.57)"/><path class="cls-1" d="M156,51.41q-.33,0-.33.36V59a1.9,1.9,0,0,0,.48,1.46,2.24,2.24,0,0,0,1.53.43h1.62a.45.45,0,0,1,.33.13.56.56,0,0,1,.12.38l0,1.83A.69.69,0,0,1,159,64a26.91,26.91,0,0,1-3.57.18,4.91,4.91,0,0,1-3.27-1A3.56,3.56,0,0,1,151,60.26v-8.4q0-.45-.39-.45H148.8q-.57,0-.57-.51V48.68q0-.45.54-.45h2.07q.24,0,.3-.33l.42-4.56q.06-.51.45-.51h3.27a.43.43,0,0,1,.34.15.61.61,0,0,1,.14.42v4.5a.27.27,0,0,0,.3.3h3.15q.54,0,.54.48V50.9q0,.51-.6.51Z" transform="translate(-2.1 -3.57)"/><path class="cls-1" d="M166.92,45.56q0,.75-.81.75h-3.24a.71.71,0,0,1-.51-.16.78.78,0,0,1-.15-.53V42.47q0-.6.51-.6h3.72a.43.43,0,0,1,.34.15.61.61,0,0,1,.14.42Zm-.06,17.85a.71.71,0,0,1-.18.55.88.88,0,0,1-.63.17H162.9a.71.71,0,0,1-.51-.15.66.66,0,0,1-.15-.48V48.8q0-.57.51-.57h3.66q.45,0,.45.51Z" transform="translate(-2.1 -3.57)"/><path class="cls-1" d="M174.24,64.43a5.07,5.07,0,0,1-3.57-1.22,4.09,4.09,0,0,1-1.32-3.16,4.66,4.66,0,0,1,2.31-4A11.91,11.91,0,0,1,178,54.38l1.08-.09a.48.48,0,0,0,.31-.1.39.39,0,0,0,.14-.32v-.63a2.37,2.37,0,0,0-.66-1.8,2.63,2.63,0,0,0-1.89-.63,3.35,3.35,0,0,0-3.12,1.8.41.41,0,0,1-.39.3,1.12,1.12,0,0,1-.27,0l-3-.69a.31.31,0,0,1-.27-.33,1.16,1.16,0,0,1,.12-.45,4.91,4.91,0,0,1,2.56-2.61,10.72,10.72,0,0,1,4.58-.87q3.57,0,5.16,1.3A4.53,4.53,0,0,1,184,52.94V63.47a.83.83,0,0,1-.12.51.55.55,0,0,1-.45.15H180.3a.49.49,0,0,1-.44-.21,1.62,1.62,0,0,1-.19-.63l0-.66q0-.27-.24-.27a1.07,1.07,0,0,0-.45.24A6.7,6.7,0,0,1,174.24,64.43Zm5.22-7.77a.43.43,0,0,0-.36-.12l-.84.06a7.2,7.2,0,0,0-3.08.82,2.26,2.26,0,0,0-1.33,2,1.77,1.77,0,0,0,.63,1.43,2.64,2.64,0,0,0,1.74.52,3.51,3.51,0,0,0,2.34-.81,2.12,2.12,0,0,0,1-1.59v-2A.66.66,0,0,0,179.46,56.66Z" transform="translate(-2.1 -3.57)"/><path class="cls-1" d="M193.77,51.41q-.33,0-.33.36V59a1.9,1.9,0,0,0,.48,1.46,2.24,2.24,0,0,0,1.53.43h1.62a.45.45,0,0,1,.33.13.56.56,0,0,1,.12.38l0,1.83a.69.69,0,0,1-.66.72,26.91,26.91,0,0,1-3.57.18,4.91,4.91,0,0,1-3.27-1,3.56,3.56,0,0,1-1.17-2.88v-8.4q0-.45-.39-.45H186.6q-.57,0-.57-.51V48.68q0-.45.54-.45h2.07q.24,0,.3-.33l.42-4.56q.06-.51.45-.51h3.27a.43.43,0,0,1,.34.15.61.61,0,0,1,.14.42v4.5a.27.27,0,0,0,.3.3H197q.54,0,.54.48V50.9q0,.51-.6.51Z" transform="translate(-2.1 -3.57)"/><path class="cls-1" d="M204.72,45.56q0,.75-.81.75h-3.24a.71.71,0,0,1-.51-.16.78.78,0,0,1-.15-.53V42.47q0-.6.51-.6h3.72a.43.43,0,0,1,.34.15.61.61,0,0,1,.14.42Zm-.06,17.85a.71.71,0,0,1-.18.55.88.88,0,0,1-.63.17H200.7a.71.71,0,0,1-.51-.15.66.66,0,0,1-.15-.48V48.8q0-.57.51-.57h3.66q.45,0,.45.51Z" transform="translate(-2.1 -3.57)"/><path class="cls-1" d="M222.87,48.44a.57.57,0,0,1,0,.48L217,63.5a1,1,0,0,1-1,.63h-2.13a1,1,0,0,1-1-.63L207,49a1,1,0,0,1-.06-.24.47.47,0,0,1,.15-.35.52.52,0,0,1,.36-.13h3.81a.64.64,0,0,1,.66.51l3.45,8.85q.15.27.24.27t.24-.3l3.39-8.85a.69.69,0,0,1,.66-.48h2.58A.41.41,0,0,1,222.87,48.44Z" transform="translate(-2.1 -3.57)"/><path class="cls-1" d="M229.45,60.25a4,4,0,0,0,2.81,1,4.32,4.32,0,0,0,2-.47,6.27,6.27,0,0,0,1.85-1.54.35.35,0,0,1,.24-.12.91.91,0,0,1,.3.09l2.16.9a.31.31,0,0,1,.21.3.48.48,0,0,1-.12.3,8.56,8.56,0,0,1-3.09,2.86,9.14,9.14,0,0,1-4.11.83,8.53,8.53,0,0,1-4.17-1,7.36,7.36,0,0,1-2.91-2.84,8.1,8.1,0,0,1-1.05-4.15A9,9,0,0,1,224.64,52a7.61,7.61,0,0,1,2.92-3,8.46,8.46,0,0,1,8.09,0,6.88,6.88,0,0,1,2.76,2.89,9.58,9.58,0,0,1,1,4.5,1.32,1.32,0,0,1-.08.54c0,.1-.19.16-.43.18h-10.2q-.36,0-.36.48A3.54,3.54,0,0,0,229.45,60.25Zm4.91-5.72a.87.87,0,0,0,.42-.07.47.47,0,0,0,.09-.35,3.7,3.7,0,0,0-.36-1.56,3.3,3.3,0,0,0-1-1.29,2.75,2.75,0,0,0-1.68-.51,3.18,3.18,0,0,0-2.46,1,3.74,3.74,0,0,0-.93,2.7Z" transform="translate(-2.1 -3.57)"/></svg>