<svg xmlns="http://www.w3.org/2000/svg" width="39" height="35" viewBox="0 0 39 35">
  <g fill="none" fill-rule="evenodd">
    <path fill="#F2D03A" d="M3.58066282,29.030434 L36.1548123,0.429777881 C37.2590153,-0.540064323 39,0.237906053 39,1.70140525 L39,30.3020614 C39,31.2398191 38.2338771,32 37.2887894,32 L4.71463995,32 C3.1391737,32 2.400904,30.0663513 3.58066282,29.030434"/>
    <path fill="#003055" d="M2.5 35C1.119375 35 0 33.8688421 0 32.4736842L0 25.5263158C0 24.1311579 1.119375 23 2.5 23 3.880625 23 5 24.1311579 5 25.5263158L5 32.4736842C5 33.8688421 3.880625 35 2.5 35M15.5 35C14.119375 35 13 33.8477483 13 32.4265734L13 14.5734266C13 13.1522517 14.119375 12 15.5 12 16.880625 12 18 13.1522517 18 14.5734266L18 32.4265734C18 33.8477483 16.880625 35 15.5 35M27.5 35C26.119375 35 25 33.8577916 25 32.4490042L25 4.55099576C25 3.14220835 26.119375 2 27.5 2 28.880625 2 30 3.14220835 30 4.55099576L30 32.4490042C30 33.8577916 28.880625 35 27.5 35"/>
  </g>
</svg>
