<svg xmlns="http://www.w3.org/2000/svg" xmlns:xlink="http://www.w3.org/1999/xlink" width="42" height="37" viewBox="0 0 42 37">
  <defs>
    <polygon id="icon-checkmark-a" points="33.26 .152 33.26 32.999 .168 32.999 .168 .152"/>
    <polygon id="icon-checkmark-c" points="18.03 .079 0 .079 0 35.872 18.03 35.872 36.06 35.872 36.06 .079"/>
  </defs>
  <g fill="none" fill-rule="evenodd">
    <g transform="translate(8.465 .567)">
      <mask id="icon-checkmark-b" fill="#fff">
        <use xlink:href="#icon-checkmark-a"/>
      </mask>
      <path fill="#F2D03A" d="M33.2598651,16.5753465 C33.2598651,7.50478067 25.8519116,0.151892469 16.7141442,0.151892469 C7.57605116,0.151892469 0.168097674,7.50478067 0.168097674,16.5753465 C0.168097674,25.6459123 7.57605116,32.9988005 16.7141442,32.9988005 C25.8519116,32.9988005 33.2598651,25.6459123 33.2598651,16.5753465" mask="url(#icon-checkmark-b)"/>
    </g>
    <g transform="translate(0 .244)">
      <mask id="icon-checkmark-d" fill="#fff">
        <use xlink:href="#icon-checkmark-c"/>
      </mask>
      <path fill="#003055" d="M18.030014,35.8724767 C8.08838605,35.8724767 -3.25581395e-05,27.8441518 -3.25581395e-05,17.9759889 C-3.25581395e-05,8.10782609 8.08838605,0.0791779891 18.030014,0.0791779891 C19.4684326,0.0791779891 20.6346651,1.23679251 20.6346651,2.66458172 C20.6346651,4.09237092 19.4684326,5.24998544 18.030014,5.24998544 C10.9606651,5.24998544 5.20926977,10.95888 5.20926977,17.9759889 C5.20926977,24.9930978 10.9606651,30.7016693 18.030014,30.7016693 C25.0993628,30.7016693 30.8504326,24.9930978 30.8504326,17.9759889 C30.8504326,15.63329 30.2048047,13.3448845 28.9832233,11.3583249 C28.2334093,10.1393071 28.6211767,8.54831425 29.8492698,7.80436432 C31.0776884,7.05976805 32.6805256,7.44563956 33.4293628,8.66433424 C35.1500605,11.4627106 36.0597349,14.6828309 36.0597349,17.9759889 C36.0597349,27.8441518 27.9716419,35.8724767 18.030014,35.8724767" mask="url(#icon-checkmark-d)"/>
    </g>
    <path fill="#003055" d="M17.3712326,27.5737832 L10.0319767,20.289085 C9.01453488,19.2794849 9.01453488,17.6426011 10.0316512,16.633001 C11.049093,15.6230776 12.6981628,15.6230776 13.7152791,16.6326778 L17.3712326,20.2612919 L29.1803953,8.5393946 C30.1978372,7.53011762 31.8465814,7.53011762 32.8640233,8.5393946 C33.8811395,9.54931793 33.8811395,11.1858785 32.8640233,12.1958018 L17.3712326,27.5737832 Z"/>
  </g>
</svg>
