<svg xmlns="http://www.w3.org/2000/svg" xmlns:xlink="http://www.w3.org/1999/xlink" width="34" height="36" viewBox="0 0 34 36">
  <defs>
    <polygon id="icon-download-a" points="33.924 0 33.924 5.171 16.962 5.171 0 5.171 0 0"/>
  </defs>
  <g fill="none" fill-rule="evenodd">
    <polygon fill="#F2D03A" points="2.566 26.078 31.358 26.078 31.358 0 2.566 0"/>
    <g transform="translate(0 3.044)">
      <g transform="translate(0 27.793)">
        <mask id="icon-download-b" fill="#fff">
          <use xlink:href="#icon-download-a"/>
        </mask>
        <path fill="#003055" d="M31.3580075,5.17080745 L2.56610189,5.17080745 C1.14868679,5.17080745 6.41509434e-05,4.01319293 6.41509434e-05,2.58540373 C6.41509434e-05,1.15761452 1.14868679,0 2.56610189,0 L31.3580075,0 C32.7751019,0 33.9240453,1.15761452 33.9240453,2.58540373 C33.9240453,4.01319293 32.7751019,5.17080745 31.3580075,5.17080745" mask="url(#icon-download-b)"/>
      </g>
      <path fill="#003055" d="M16.9619264,26.7579267 C15.5448321,26.7579267 14.3958887,25.6003122 14.3958887,24.172523 L14.3958887,2.62059753 C14.3958887,1.1931315 15.5448321,0.0351938082 16.9619264,0.0351938082 C18.3790208,0.0351938082 19.5279642,1.1931315 19.5279642,2.62059753 L19.5279642,24.172523 C19.5279642,25.6003122 18.3790208,26.7579267 16.9619264,26.7579267"/>
      <path fill="#003055" d="M16.9619264,27.8287686 L6.94668113,17.7379379 C5.9446434,16.7280146 5.9446434,15.0911308 6.94668113,14.0815307 C7.94903962,13.0722537 9.57366226,13.0725769 10.5757,14.0815307 L16.9619264,20.5162774 L23.3481528,14.0815307 C24.3505113,13.0722537 25.975134,13.0722537 26.9774925,14.0815307 C27.9795302,15.091454 27.9795302,16.7280146 26.9774925,17.7379379 L16.9619264,27.8287686 Z"/>
    </g>
  </g>
</svg>
