<?xml version="1.0" encoding="UTF-8"?>
<svg width="496px" height="468px" viewBox="0 0 496 468" version="1.1" xmlns="http://www.w3.org/2000/svg" xmlns:xlink="http://www.w3.org/1999/xlink">
    <!-- Generator: Sketch 50 (54983) - http://www.bohemiancoding.com/sketch -->
    <title>Group</title>
    <desc>Created with Sketch.</desc>
    <defs>
        <path d="M5.84816514,0.345347625 C2.65557012,0.345347625 0.0684796855,2.92716359 0.0684796855,6.1117157 L0.0684796855,82.2828569 C0.0684796855,85.4681299 2.65557012,88.0506669 5.84816514,88.0506669 L108.926671,88.0506669 C112.118545,88.0506669 114.707077,85.4681299 114.707077,82.2828569 L114.707077,6.1117157 C114.707077,2.92716359 112.118545,0.345347625 108.926671,0.345347625 L5.84816514,0.345347625 Z" id="path-1"></path>
        <polygon id="path-3" points="0.0684796855 0.345347625 114.706356 0.345347625 114.706356 18.0474776 0.0684796855 18.0474776"></polygon>
        <path d="M0.0158584535,5.07134697 C0.0158584535,7.84854749 2.26703801,10.1001563 5.04442988,10.1001563 C7.82182176,10.1001563 10.0730013,7.84854749 10.0730013,5.07134697 C10.0730013,2.29342546 7.82182176,0.0425375989 5.04442988,0.0425375989 C2.26703801,0.0425375989 0.0158584535,2.29342546 0.0158584535,5.07134697 Z" id="path-5"></path>
        <path d="M0.399344692,5.07134697 C0.399344692,7.84854749 2.65052425,10.1001563 5.42647444,10.1001563 C8.20386632,10.1001563 10.4550459,7.84854749 10.4550459,5.07134697 C10.4550459,2.29342546 8.20386632,0.0425375989 5.42647444,0.0425375989 C2.65052425,0.0425375989 0.399344692,2.29342546 0.399344692,5.07134697 Z" id="path-7"></path>
        <path d="M0.144167759,5.07134697 C0.144167759,7.84854749 2.39534731,10.1001563 5.17273919,10.1001563 C7.95013106,10.1001563 10.1998689,7.84854749 10.1998689,5.07134697 C10.1998689,2.29342546 7.95013106,0.0425375989 5.17273919,0.0425375989 C2.39534731,0.0425375989 0.144167759,2.29342546 0.144167759,5.07134697 Z" id="path-9"></path>
        <path d="M0.610550459,9.47506992 L10.2640236,9.47506992 C9.76520315,4.53926649 5.69750983,0.62724934 0.610550459,0.222060686 L0.610550459,9.47506992 Z" id="path-11"></path>
        <path d="M0.243643512,9.52698021 C0.243643512,14.6545633 4.48650066,18.8124334 9.71906946,18.8124334 C14.6366317,18.8124334 18.677654,15.1433852 19.1498034,10.4483879 L8.62195282,10.4483879 L8.62195282,9.52698021 L8.62195282,8.60485158 L8.62195282,0.305693931 C3.90622543,0.839216359 0.243643512,4.76276913 0.243643512,9.52698021 Z" id="path-13"></path>
        <path d="M0.368348624,9.47506992 L10.0218218,9.47506992 C9.52300131,4.53926649 5.45530799,0.62724934 0.368348624,0.222060686 L0.368348624,9.47506992 Z" id="path-15"></path>
        <path d="M0.403669725,9.52698021 C0.403669725,14.6545633 4.64652687,18.8124334 9.87909567,18.8124334 C14.7952163,18.8124334 18.8362385,15.1433852 19.3098296,10.4483879 L8.78125819,10.4483879 L8.78125819,9.52698021 L8.78125819,8.60485158 L8.78125819,0.305693931 C4.0655308,0.839216359 0.403669725,4.76276913 0.403669725,9.52698021 Z" id="path-17"></path>
        <polygon id="path-19" points="0.598296199 0.501078496 78.6326999 0.501078496 78.6326999 5.32945646 0.598296199 5.32945646"></polygon>
        <polygon id="path-21" points="0.598296199 0.46575066 78.6326999 0.46575066 78.6326999 5.29340765 0.598296199 5.29340765"></polygon>
        <polygon id="path-23" points="0.598296199 0.428980871 78.6326999 0.428980871 78.6326999 5.25735884 0.598296199 5.25735884"></polygon>
        <polygon id="path-25" points="0.50242464 0.707277704 16.9937746 0.707277704 16.9937746 51.3998391 0.50242464 51.3998391"></polygon>
        <polygon id="path-27" points="0.390213529 0.512753241 13.0214344 0.512753241 13.0214344 59 0.390213529 59"></polygon>
        <path d="M54.6568421,1.70090323 C49.4928947,9.70993548 41.4497368,15.2632258 32.0186842,17.3380645 C22.5868421,19.4098065 12.84,17.7437419 4.71947368,12.6867097 C3.60394737,12.0061935 2.19394737,12.2067097 1.33815789,13.1101935 C1.22763158,13.2263226 1.125,13.3548387 1.035,13.4957419 C0.245526316,14.7166452 0.618157895,16.3362581 1.86394737,17.1096774 C2.01315789,17.2025806 2.16,17.2931613 2.31078947,17.3845161 C11.5918421,22.9927742 22.5402632,24.7927742 33.1934211,22.4477419 C44.0178947,20.067871 53.2436842,13.6954839 59.1726316,4.50503226 C59.9621053,3.28490323 59.5894737,1.66606452 58.3444737,0.891096774 C57.9244737,0.599225806 57.4365789,0.462193548 56.9478947,0.462193548 C56.0605263,0.462193548 55.1668421,0.912 54.6568421,1.70090323 Z" id="path-29"></path>
        <path d="M20.9968182,0.253125 L12.3907955,0.44765625 C6.59272727,0.578125 1.40318182,4.58515625 0.504318182,10.20625 C0.351590909,11.1507812 0.283181818,12.1203125 0.307045455,13.1109375 L1.18045455,49.63125 L34.5314773,49.63125 L33.6604545,12.3585937 C33.6365909,11.3710937 33.5236364,10.4039062 33.3271591,9.46640625 C32.1840909,3.98515625 26.9746591,0.25078125 21.2903409,0.25 C21.1917045,0.25 21.0938636,0.2515625 20.9968182,0.253125 Z" id="path-31"></path>
        <path d="M7.48927273,0.19375 C3.44018182,0.19375 0.159181818,3.509375 0.159181818,7.59765625 L0.159181818,17.5445312 C0.159181818,21.6335938 3.44018182,24.9476563 7.48927273,24.9476563 L9.20704545,24.9476563 C13.2545909,24.9476563 16.5371364,21.6335938 16.5371364,17.5445312 L16.5371364,7.59765625 C16.5371364,3.509375 13.2545909,0.19375 9.20704545,0.19375 L7.48927273,0.19375 Z" id="path-33"></path>
        <path d="M0.670980769,3.11845161 C0.577942308,4.55690323 1.59821154,5.83974194 3.06317308,5.98529032 C12.6666346,6.91432258 21.3270962,11.4689032 27.4495,18.8028387 C33.5703269,26.136 36.4158846,35.3705806 35.4728846,44.8149677 C35.3585577,46.2658065 36.3985385,47.5378065 37.8635,47.6810323 C38.0046346,47.6941935 38.1449808,47.6957419 38.28375,47.6887742 L38.3547115,47.6818065 C39.6091538,47.5780645 40.6491346,46.6064516 40.7792308,45.3274839 C40.8415192,44.6779355 40.8919808,44.0276129 40.9258846,43.3765161 C41.0141923,41.7166452 40.9984231,40.0645161 40.8825192,38.4270968 L40.8643846,38.1646452 C40.2288846,29.8939355 37.0364038,22.0250323 31.5723654,15.48 C27.8587115,11.0307097 23.3321538,7.47406452 18.2615577,4.95174194 C18.2591923,4.95019355 18.2576154,4.94941935 18.2560385,4.94864516 C13.7334231,2.6996129 8.77951923,1.27277419 3.58434615,0.769548387 C3.49525,0.761032258 3.40536538,0.756387097 3.31705769,0.756387097 C1.96484615,0.756387097 0.806596154,1.76593548 0.670980769,3.11845161 Z" id="path-35"></path>
        <path d="M2.51683099,0.896761905 C1.14957746,1.35847619 0.416760563,2.82438095 0.885422535,4.16990476 C4.40619718,14.2971429 11.7273944,22.4662857 21.5042254,27.1740952 C31.1245775,31.8095238 41.991338,32.544 52.1539437,29.2586667 C52.3189437,29.2045714 52.4792958,29.1504762 52.6435211,29.095619 C54.0123239,28.6354286 54.7451408,27.1687619 54.2757042,25.8217143 C54.2222535,25.6670476 54.1548592,25.5222857 54.0773944,25.3866667 C53.4692958,24.3291429 52.1709859,23.8217143 50.9493662,24.2209524 C42.0223239,27.2388571 32.3322535,26.6468571 23.8134507,22.5470476 C15.2961972,18.4441905 8.91232394,11.3234286 5.8478169,2.49904762 C5.47830986,1.4392381 4.44725352,0.732952381 3.38133803,0.732952381 C3.09161972,0.732952381 2.79957746,0.78552381 2.51683099,0.896761905 Z" id="path-37"></path>
        <path d="M1.41590909,9.4484375 C1.22022727,10.3859375 1.10727273,11.3523437 1.08340909,12.340625 L0.212386364,49.6132812 L33.5634091,49.6132812 L34.4368182,13.0921875 C34.4606818,12.1023437 34.3914773,11.1328125 34.2395455,10.1882812 C33.3398864,4.5671875 28.1511364,0.56015625 22.3530682,0.42890625 L13.7470455,0.23515625 C13.65,0.23359375 13.5513636,0.23125 13.4535227,0.23125 C7.76920455,0.23203125 2.55977273,3.9671875 1.41590909,9.4484375 Z" id="path-39"></path>
        <path d="M7.54336364,0.17578125 C3.49581818,0.17578125 0.213272727,3.49140625 0.213272727,7.57890625 L0.213272727,17.5257813 C0.213272727,21.6148438 3.49581818,24.9296875 7.54336364,24.9296875 L9.26113636,24.9296875 C13.311,24.9296875 16.5912273,21.6148438 16.5912273,17.5257813 L16.5912273,7.57890625 C16.5912273,3.49140625 13.311,0.17578125 9.26113636,0.17578125 L7.54336364,0.17578125 Z" id="path-41"></path>
        <path d="M37.9494423,0.750967742 C32.7542692,1.25496774 27.8003654,2.68103226 23.2785385,4.93083871 C23.2769615,4.9316129 23.2753846,4.9323871 23.2722308,4.93393548 C18.2024231,7.45625806 13.6758654,11.0129032 9.96221154,15.4621935 C4.49817308,22.0072258 1.30569231,29.8753548 0.670192308,38.1468387 L0.651269231,38.4085161 C0.536153846,40.0467097 0.520384615,41.6988387 0.607903846,43.3579355 C0.642596154,44.0098065 0.692269231,44.660129 0.755346154,45.3096774 C0.884653846,46.5886452 1.92542308,47.5594839 3.17986538,47.664 L3.25082692,47.6701935 C3.38959615,47.6771613 3.52994231,47.6756129 3.67107692,47.6624516 C5.13525,47.52 6.17601923,46.2472258 6.06169231,44.7963871 C5.11869231,35.3527742 7.96425,26.1174194 14.0842885,18.7842581 C20.2066923,11.4503226 28.8679423,6.89651613 38.4714038,5.96670968 C39.9363654,5.82193548 40.9566346,4.53832258 40.8635962,3.10064516 C40.7279808,1.74735484 39.5697308,0.737806452 38.2167308,0.737806452 C38.1284231,0.737806452 38.0393269,0.742451613 37.9494423,0.750967742 Z" id="path-43"></path>
    </defs>
    <g id="final" stroke="none" stroke-width="1" fill="none" fill-rule="evenodd">
        <g id="Services" transform="translate(-769.000000, -671.000000)">
            <g id="Group" transform="translate(769.000000, 670.000000)">
                <g id="Group-11" transform="translate(401.000000, 383.000000)">
                    <path d="M62.2472995,16.4811309 L66.5318858,15.9921139 C75.9785073,14.9139724 82.2293715,25.3791749 76.6680181,32.9615209 L74.1456048,36.4005301 C71.3568448,40.2022302 71.3948366,45.3414774 74.2393718,49.1034523 L76.8127103,52.5059144 C82.4860182,60.0076182 76.3903546,70.5610107 66.929183,69.618332 L62.6377259,69.1908891 C57.8936005,68.7181594 53.3842968,71.3201589 51.4923858,75.6223964 L49.7807338,79.5138755 C46.0074202,88.0937208 33.6608924,88.1819107 29.7610742,79.6568861 L27.9920303,75.790434 C26.036665,71.5156069 21.4893694,68.9783593 16.752519,69.5190191 L12.4679328,70.0080361 C3.02131126,71.0861776 -3.22955291,60.620975 2.33180044,53.0386291 L4.85461786,49.5996199 C7.64297373,45.7979197 7.60498193,40.6582754 4.76044669,36.8966977 L2.18710825,33.4942356 C-3.4857955,25.9925318 2.60946394,15.4391393 12.0710397,16.3818179 L16.3620926,16.8092609 C21.106218,17.2819906 25.6155218,14.679991 27.5078369,10.3777535 L29.2190848,6.48627448 C32.9923983,-2.09357084 45.3389261,-2.182158 49.2387443,6.34326382 L51.0077882,10.209716 C52.9631536,14.4845431 57.5104491,17.0217906 62.2472995,16.4811309" id="Fill-10" fill="#F2D021"></path>
                    <path d="M69.73433,80.5925968 C59.1038984,80.5925968 50.4860183,72.1358656 50.4860183,61.7033295 L88.9826417,61.7033295 C88.9826417,72.1358656 80.3647617,80.5925968 69.73433,80.5925968 Z M45.2333154,29.6310435 C44.6433878,28.9723095 44.7093399,27.9689214 45.380595,27.3896008 C46.0526594,26.8106772 47.0751198,26.8761933 47.6650474,27.5341332 L59.4053361,40.6440915 C59.9952637,41.3028255 59.9293116,42.3062136 59.2580565,42.8855342 C58.9505496,43.1503779 58.5698075,43.2806158 58.1902793,43.2806158 C57.7407528,43.2806158 57.293654,43.097965 56.9736041,42.7410019 L45.2333154,29.6310435 Z M78.7968812,40.3451001 C74.0094848,38.3768394 68.6867836,38.0452885 63.6841323,39.4036545 L49.3535029,23.4344173 L47.1689903,21 L32,34.1091642 L34.1845126,36.5435815 L48.5151421,52.5132157 C43.5772291,64.0793779 49.1285373,77.3842961 60.9145474,82.2301007 C72.7005575,87.0763024 86.2583736,81.6285444 91.1966912,70.0619851 C96.1346042,58.4958229 90.5832959,45.1909047 78.7968812,40.3451001 Z" id="Fill-12" fill="#133055"></path>
                    <path d="M20,17 C20,15.3429457 18.65665,14 17,14 C15.3429457,14 14,15.3429457 14,17 C14,18.6570543 15.3429457,20 17,20 C18.65665,20 20,18.6570543 20,17" id="Fill-14" fill="#133055"></path>
                    <path d="M40,18 C40,16.3429457 38.65665,15 37,15 C35.3429457,15 34,16.3429457 34,18 C34,19.6570543 35.3429457,21 37,21 C38.65665,21 40,19.6570543 40,18" id="Fill-16" fill="#133055"></path>
                </g>
                <g id="Page-1">
                    <g id="Group-49" transform="translate(0.000000, 0.331649)">
                        <path d="M478.096055,333.526277 L17.6105374,333.526277 C14.7560157,333.526277 12.420498,331.190313 12.420498,328.335247 L12.420498,18.5418451 C12.420498,15.6867792 14.7560157,13.3508161 17.6105374,13.3508161 L478.096055,13.3508161 C480.950577,13.3508161 483.286094,15.6867792 483.286094,18.5418451 L483.286094,328.335247 C483.286094,331.190313 480.950577,333.526277 478.096055,333.526277" id="Fill-1" fill="#00DDBE"></path>
                        <path d="M24.8284404,321.115824 L470.87772,321.115824 L470.87772,25.7614129 L24.8284404,25.7614129 L24.8284404,321.115824 Z M478.819201,345.936873 L16.8869594,345.936873 C7.58237221,345.936873 0.0121231979,338.365181 0.0121231979,329.058819 L0.0121231979,17.8191385 C0.0121231979,8.51205607 7.58237221,0.940363456 16.8869594,0.940363456 L478.819201,0.940363456 C488.124509,0.940363456 495.694758,8.51205607 495.694758,17.8191385 L495.694758,329.058819 C495.694758,338.365181 488.124509,345.936873 478.819201,345.936873 Z" id="Fill-3" fill="#E2E2E2"></path>
                        <polyline id="Fill-5" fill="#FFFFFF" points="110.399286 144.758616 67.2441088 144.758616 67.2441088 62.1145497 133.919535 62.1145497 133.919535 144.758616 126.556887 144.758616 126.556887 149.566085 138.726088 149.566085 138.726088 57.30708 62.4375557 57.30708 62.4375557 149.566085 110.399286 149.566085"></polyline>
                        <path d="M125.738231,74.2859987 L75.4251245,74.2859987 C73.9935387,74.2859987 72.766671,73.0588971 72.766671,71.6270383 C72.766671,70.1951794 73.9935387,68.9673569 75.4251245,68.9673569 L125.738231,68.9673569 C127.169817,68.9673569 128.397405,70.1951794 128.397405,71.6270383 C128.397405,73.0588971 127.169817,74.2859987 125.738231,74.2859987" id="Fill-6" fill="#04518C"></path>
                        <path d="M125.738231,88.1964424 L75.4251245,88.1964424 C73.9935387,88.1964424 72.766671,86.9693408 72.766671,85.537482 C72.766671,84.1049022 73.9935387,82.8778006 75.4251245,82.8778006 L125.738231,82.8778006 C127.169817,82.8778006 128.397405,84.1049022 128.397405,85.537482 C128.397405,86.9693408 127.169817,88.1964424 125.738231,88.1964424" id="Fill-7" fill="#04518C"></path>
                        <path d="M125.738231,102.106958 L75.4251245,102.106958 C73.9935387,102.106958 72.766671,100.879136 72.766671,99.4479978 C72.766671,98.015418 73.9935387,96.7883164 75.4251245,96.7883164 L125.738231,96.7883164 C127.169817,96.7883164 128.397405,98.015418 128.397405,99.4479978 C128.397405,100.879136 127.169817,102.106958 125.738231,102.106958" id="Fill-8" fill="#04518C"></path>
                        <path d="M118.477726,137.394276 C116.330347,137.394276 114.285328,136.883104 112.545944,135.962417 L112.545944,143.428847 L112.545944,144.043119 L112.545944,144.144776 L112.545944,144.554291 L112.545944,150.281726 L112.545944,150.895998 L112.545944,151.40717 L112.545944,155.089196 L118.477726,151.713585 L124.409509,155.089196 L124.409509,151.40717 L124.409509,150.895998 L124.409509,150.281726 L124.409509,144.554291 L124.409509,144.144776 L124.409509,144.043119 L124.409509,143.428847 L124.409509,135.962417 C122.670125,136.780725 120.625105,137.394276 118.477726,137.394276" id="Fill-9" fill="#FFFFFF"></path>
                        <path d="M118.477726,115.3014 C123.956822,115.3014 128.39791,119.743335 128.39791,125.222755 C128.39791,130.702174 123.956822,135.144109 118.477726,135.144109 C112.999351,135.144109 108.558263,130.702174 108.558263,125.222755 C108.558263,119.743335 112.999351,115.3014 118.477726,115.3014" id="Fill-10" fill="#F2D021"></path>
                        <polygon id="Fill-11" fill="#009FDA" points="110.273211 228.815723 110.273211 249.827134 128.43979 239.389561 128.288414 218.226745"></polygon>
                        <polygon id="Fill-12" fill="#F2D021" points="92.805557 239.3892 110.971415 249.826773 110.971415 228.815362 92.805557 218.377789"></polygon>
                        <polygon id="Fill-13" fill="#4BC6F0" points="92.805557 218.212974 110.622529 228.511399 128.440223 218.212974 110.622529 207.895083"></polygon>
                        <polygon id="Fill-14" fill="#D1B534" points="99.41846 238.376012 99.41846 243.18925 104.614266 246.174091 104.614266 235.270047"></polygon>
                        <polygon id="Fill-15" fill="#178DBC" points="122.063611 237.894833 122.063611 242.70807 116.867805 245.692912 116.867805 234.788867"></polygon>
                        <path d="M140.12401,240.533317 C142.052975,241.626317 142.729843,244.076195 141.637051,246.004806 C140.543539,247.934139 138.094849,248.611856 136.165885,247.518135 L118.903958,237.733046 C116.974993,236.639325 116.296684,234.189447 117.390197,232.260115 C118.483709,230.331503 120.933119,229.654507 122.862084,230.747507 L140.12401,240.533317 Z" id="Fill-16" fill="#FFFFFF"></path>
                        <polygon id="Fill-17" fill="#009FDA" points="150.638814 251.720778 150.638814 272.732189 168.805393 262.294616 168.654017 241.1318"></polygon>
                        <polygon id="Fill-18" fill="#4BC6F0" points="133.17116 241.11839 150.988853 251.416814 168.806547 241.11839 150.988853 230.800498"></polygon>
                        <polygon id="Fill-19" fill="#F2D021" points="133.17116 262.294616 151.337739 272.732189 151.337739 251.720778 133.17116 241.283205"></polygon>
                        <path d="M100.048473,229.878514 C101.957975,228.752349 104.418198,229.38825 105.544148,231.298116 C106.670819,233.208703 106.035039,235.669395 104.124817,236.79556 L87.0315662,246.873366 C85.1220642,247.999531 82.6618414,247.36363 81.5351704,245.453764 C80.409941,243.543898 81.0457208,241.083206 82.9552228,239.957041 L100.048473,229.878514 Z" id="Fill-20" fill="#FFFFFF"></path>
                        <polygon id="Fill-21" fill="#009FDA" points="69.7626474 251.720778 69.7626474 272.732189 87.9292267 262.294616 87.7778506 241.1318"></polygon>
                        <polygon id="Fill-22" fill="#F2D021" points="52.0331127 262.54566 69.7628637 272.732333 70.1117497 251.41667 52.2947772 241.118245"></polygon>
                        <polygon id="Fill-23" fill="#4BC6F0" points="52.2949934 241.11839 70.1119659 251.416814 87.9296592 241.11839 70.1119659 230.800498"></polygon>
                        <polygon id="Fill-24" fill="#178DBC" points="82.5307929 260.518274 82.5307929 265.331512 77.3349869 268.316354 77.3349869 257.412309"></polygon>
                        <path d="M100.508152,262.70723 C102.453696,263.769228 103.170931,266.20757 102.109856,268.154206 C101.04806,270.100121 98.6094626,270.817492 96.6631979,269.755494 L79.2448493,260.251585 C77.2985845,259.189587 76.5820708,256.751246 77.6431455,254.80461 C78.704941,252.857974 81.1435387,252.141323 83.0890826,253.202601 L100.508152,262.70723 Z" id="Fill-25" fill="#FFFFFF"></path>
                        <polygon id="Fill-26" fill="#D1B534" points="139.56154 261.251868 139.56154 266.065105 144.757346 269.049947 144.757346 258.145902"></polygon>
                        <path d="M139.263761,253.080035 C141.201376,252.002175 143.64502,252.70008 144.721953,254.638064 C145.799607,256.576048 145.102556,259.020158 143.16422,260.097296 L125.82228,269.740354 C123.884666,270.817492 121.440301,270.120308 120.363368,268.182324 C119.286435,266.24434 119.984207,263.80023 121.921101,262.723092 L139.263761,253.080035 Z" id="Fill-27" fill="#FFFFFF"></path>
                        <polygon id="Fill-28" fill="#009FDA" points="110.273211 275.657334 110.273211 296.668745 128.43979 286.231172 128.288414 265.068356"></polygon>
                        <polygon id="Fill-29" fill="#F2D021" points="92.805557 286.231172 110.972136 296.668745 110.972136 275.657334 92.805557 265.219761"></polygon>
                        <polygon id="Fill-30" fill="#4BC6F0" points="92.805557 265.054945 110.622529 275.35337 128.440223 265.054945 110.622529 254.737054"></polygon>
                        <path d="M153.030125,89.1860544 C153.030125,87.8082688 153.960727,86.8407187 155.263283,86.8407187 C156.565839,86.8407187 157.459679,87.8082688 157.459679,89.1860544 C157.459679,90.5263493 156.603322,91.5313902 155.22652,91.5313902 C153.923244,91.5313902 153.030125,90.5263493 153.030125,89.1860544" id="Fill-31" fill="#FFFFFF"></path>
                        <path d="M168.179705,89.1860544 C168.179705,87.8082688 169.110308,86.8407187 170.413585,86.8407187 C171.715419,86.8407187 172.60998,87.8082688 172.60998,89.1860544 C172.60998,90.5263493 171.752903,91.5313902 170.376101,91.5313902 C169.072824,91.5313902 168.179705,90.5263493 168.179705,89.1860544" id="Fill-32" fill="#FFFFFF"></path>
                        <path d="M183.329286,89.1860544 C183.329286,87.8082688 184.259889,86.8407187 185.563165,86.8407187 C186.865,86.8407187 187.759561,87.8082688 187.759561,89.1860544 C187.759561,90.5263493 186.903204,91.5313902 185.525682,91.5313902 C184.222405,91.5313902 183.329286,90.5263493 183.329286,89.1860544" id="Fill-33" fill="#FFFFFF"></path>
                        <path d="M198.479587,89.1860544 C198.479587,87.8082688 199.41019,86.8407187 200.713467,86.8407187 C202.015301,86.8407187 202.909862,87.8082688 202.909862,89.1860544 C202.909862,90.5263493 202.053506,91.5313902 200.675983,91.5313902 C199.372706,91.5313902 198.479587,90.5263493 198.479587,89.1860544" id="Fill-34" fill="#FFFFFF"></path>
                        <path d="M213.629168,89.1860544 C213.629168,87.8082688 214.559771,86.8407187 215.863047,86.8407187 C217.164882,86.8407187 218.059443,87.8082688 218.059443,89.1860544 C218.059443,90.5263493 217.203087,91.5313902 215.825564,91.5313902 C214.522287,91.5313902 213.629168,90.5263493 213.629168,89.1860544" id="Fill-35" fill="#FFFFFF"></path>
                        <path d="M228.779397,89.1860544 C228.779397,87.8082688 229.71,86.8407187 231.012556,86.8407187 C232.315111,86.8407187 233.208952,87.8082688 233.208952,89.1860544 C233.208952,90.5263493 232.352595,91.5313902 230.975793,91.5313902 C229.671796,91.5313902 228.779397,90.5263493 228.779397,89.1860544" id="Fill-36" fill="#FFFFFF"></path>
                        <path d="M243.928978,89.1860544 C243.928978,87.8082688 244.859581,86.8407187 246.162136,86.8407187 C247.464692,86.8407187 248.358532,87.8082688 248.358532,89.1860544 C248.358532,90.5263493 247.502176,91.5313902 246.125374,91.5313902 C244.821376,91.5313902 243.928978,90.5263493 243.928978,89.1860544" id="Fill-37" fill="#FFFFFF"></path>
                        <path d="M259.078558,89.1860544 C259.078558,87.8082688 260.009161,86.8407187 261.311717,86.8407187 C262.614273,86.8407187 263.508113,87.8082688 263.508113,89.1860544 C263.508113,90.5263493 262.651756,91.5313902 261.274954,91.5313902 C259.971678,91.5313902 259.078558,90.5263493 259.078558,89.1860544" id="Fill-38" fill="#FFFFFF"></path>
                        <path d="M274.22886,89.1860544 C274.22886,87.8082688 275.159463,86.8407187 276.462018,86.8407187 C277.764574,86.8407187 278.658414,87.8082688 278.658414,89.1860544 C278.658414,90.5263493 277.802058,91.5313902 276.425256,91.5313902 C275.121979,91.5313902 274.22886,90.5263493 274.22886,89.1860544" id="Fill-39" fill="#FFFFFF"></path>
                        <path d="M184.497117,254.989468 C184.497117,253.611682 185.42772,252.643411 186.730275,252.643411 C188.032831,252.643411 188.926671,253.611682 188.926671,254.989468 C188.926671,256.329763 188.070315,257.334804 186.693512,257.334804 C185.389515,257.334804 184.497117,256.329763 184.497117,254.989468" id="Fill-40" fill="#FFFFFF"></path>
                        <path d="M199.646697,254.989468 C199.646697,253.611682 200.5773,252.643411 201.879856,252.643411 C203.182412,252.643411 204.076252,253.611682 204.076252,254.989468 C204.076252,256.329763 203.219895,257.334804 201.843093,257.334804 C200.539817,257.334804 199.646697,256.329763 199.646697,254.989468" id="Fill-41" fill="#FFFFFF"></path>
                        <path d="M214.796278,254.989468 C214.796278,253.611682 215.726881,252.643411 217.030157,252.643411 C218.331992,252.643411 219.226553,253.611682 219.226553,254.989468 C219.226553,256.329763 218.369476,257.334804 216.992674,257.334804 C215.689397,257.334804 214.796278,256.329763 214.796278,254.989468" id="Fill-42" fill="#FFFFFF"></path>
                        <path d="M229.946579,254.989468 C229.946579,253.611682 230.877182,252.643411 232.180459,252.643411 C233.482294,252.643411 234.376855,253.611682 234.376855,254.989468 C234.376855,256.329763 233.519777,257.334804 232.142975,257.334804 C230.839699,257.334804 229.946579,256.329763 229.946579,254.989468" id="Fill-43" fill="#FFFFFF"></path>
                        <path d="M245.09616,254.989468 C245.09616,253.611682 246.026763,252.643411 247.330039,252.643411 C248.631874,252.643411 249.526435,253.611682 249.526435,254.989468 C249.526435,256.329763 248.670079,257.334804 247.292556,257.334804 C245.989279,257.334804 245.09616,256.329763 245.09616,254.989468" id="Fill-44" fill="#FFFFFF"></path>
                        <path d="M260.246461,254.989468 C260.246461,253.611682 261.176343,252.643411 262.47962,252.643411 C263.781455,252.643411 264.676016,253.611682 264.676016,254.989468 C264.676016,256.329763 263.819659,257.334804 262.442136,257.334804 C261.13886,257.334804 260.246461,256.329763 260.246461,254.989468" id="Fill-45" fill="#FFFFFF"></path>
                        <path d="M275.396042,254.989468 C275.396042,253.611682 276.326645,252.643411 277.629201,252.643411 C278.931756,252.643411 279.825596,253.611682 279.825596,254.989468 C279.825596,256.329763 278.96924,257.334804 277.592438,257.334804 C276.28844,257.334804 275.396042,256.329763 275.396042,254.989468" id="Fill-46" fill="#FFFFFF"></path>
                        <path d="M290.545623,254.989468 C290.545623,253.611682 291.476225,252.643411 292.778781,252.643411 C294.081337,252.643411 294.975177,253.611682 294.975177,254.989468 C294.975177,256.329763 294.11882,257.334804 292.742018,257.334804 C291.438021,257.334804 290.545623,256.329763 290.545623,254.989468" id="Fill-47" fill="#FFFFFF"></path>
                        <path d="M305.695852,254.989468 C305.695852,253.611682 306.626455,252.643411 307.92901,252.643411 C309.231566,252.643411 310.125406,253.611682 310.125406,254.989468 C310.125406,256.329763 309.26905,257.334804 307.892248,257.334804 C306.58825,257.334804 305.695852,256.329763 305.695852,254.989468" id="Fill-48" fill="#FFFFFF"></path>
                    </g>
                    <g id="Group-52" transform="translate(326.440367, 194.791412)">
                        <mask id="mask-2" fill="white">
                            <use xlink:href="#path-1"></use>
                        </mask>
                        <g id="Clip-51"></g>
                        <polygon id="Fill-50" fill="#F2F3F5" mask="url(#mask-2)" points="-1.94266055 90.0621906 116.718218 90.0621906 116.718218 -1.66617612 -1.94266055 -1.66617612"></polygon>
                    </g>
                    <g id="Group-55" transform="translate(326.440367, 194.791412)">
                        <mask id="mask-4" fill="white">
                            <use xlink:href="#path-3"></use>
                        </mask>
                        <g id="Clip-54"></g>
                        <polygon id="Fill-53" fill="#04518C" mask="url(#mask-4)" points="-1.94266055 20.0582803 116.718218 20.0582803 116.718218 -1.6668971 -1.94266055 -1.6668971"></polygon>
                    </g>
                    <g id="Group-58" transform="translate(332.927916, 199.117269)">
                        <mask id="mask-6" fill="white">
                            <use xlink:href="#path-5"></use>
                        </mask>
                        <g id="Clip-57"></g>
                        <polygon id="Fill-56" fill="#FFFFFF" mask="url(#mask-6)" points="-1.99528178 12.1116801 12.0834207 12.1116801 12.0834207 -1.96898615 -1.99528178 -1.96898615"></polygon>
                    </g>
                    <g id="Group-61" transform="translate(346.623853, 199.117269)">
                        <mask id="mask-8" fill="white">
                            <use xlink:href="#path-7"></use>
                        </mask>
                        <g id="Clip-60"></g>
                        <polygon id="Fill-59" fill="#FFFFFF" mask="url(#mask-8)" points="-1.61179554 12.1116801 12.4661861 12.1116801 12.4661861 -1.96898615 -1.61179554 -1.96898615"></polygon>
                    </g>
                    <g id="Group-64" transform="translate(361.761468, 199.117269)">
                        <mask id="mask-10" fill="white">
                            <use xlink:href="#path-9"></use>
                        </mask>
                        <g id="Clip-63"></g>
                        <polygon id="Fill-62" fill="#FFFFFF" mask="url(#mask-10)" points="-1.86697248 12.1116801 12.2110092 12.1116801 12.2110092 -1.96898615 -1.86697248 -1.96898615"></polygon>
                    </g>
                    <g id="Group-67" transform="translate(376.178244, 221.467533)">
                        <mask id="mask-12" fill="white">
                            <use xlink:href="#path-11"></use>
                        </mask>
                        <g id="Clip-66"></g>
                        <polygon id="Fill-65" fill="#00DDBE" mask="url(#mask-12)" points="-1.40058978 11.4865937 12.2758847 11.4865937 12.2758847 -1.79018404 -1.40058978 -1.79018404"></polygon>
                    </g>
                    <g id="Group-70" transform="translate(366.086501, 222.188509)">
                        <mask id="mask-14" fill="white">
                            <use xlink:href="#path-13"></use>
                        </mask>
                        <g id="Clip-69"></g>
                        <polygon id="Fill-68" fill="#4BC6F0" mask="url(#mask-14)" points="-1.76749672 20.8232361 21.1609436 20.8232361 21.1609436 -1.70655079 -1.76749672 -1.70655079"></polygon>
                    </g>
                    <g id="Group-73" transform="translate(412.220183, 221.467533)">
                        <mask id="mask-16" fill="white">
                            <use xlink:href="#path-15"></use>
                        </mask>
                        <g id="Clip-72"></g>
                        <polygon id="Fill-71" fill="#F2D021" mask="url(#mask-16)" points="-1.64351245 11.4865937 12.032962 11.4865937 12.032962 -1.79018404 -1.64351245 -1.79018404"></polygon>
                    </g>
                    <g id="Group-76" transform="translate(402.128440, 222.188509)">
                        <mask id="mask-18" fill="white">
                            <use xlink:href="#path-17"></use>
                        </mask>
                        <g id="Clip-75"></g>
                        <polygon id="Fill-74" fill="#00DDBE" mask="url(#mask-18)" points="-1.60747051 20.8232361 21.3209699 20.8232361 21.3209699 -1.70655079 -1.60747051 -1.70655079"></polygon>
                    </g>
                    <g id="Group-79" transform="translate(355.273919, 248.143654)">
                        <mask id="mask-20" fill="white">
                            <use xlink:href="#path-19"></use>
                        </mask>
                        <g id="Clip-78"></g>
                        <polygon id="Fill-77" fill="#04518C" mask="url(#mask-20)" points="-1.41284404 7.34025923 80.6438401 7.34025923 80.6438401 -1.51044525 -1.41284404 -1.51044525"></polygon>
                    </g>
                    <g id="Group-82" transform="translate(355.273919, 258.237322)">
                        <mask id="mask-22" fill="white">
                            <use xlink:href="#path-21"></use>
                        </mask>
                        <g id="Clip-81"></g>
                        <polygon id="Fill-80" fill="#04518C" mask="url(#mask-22)" points="-1.41284404 7.30421042 80.6438401 7.30421042 80.6438401 -1.54649406 -1.41284404 -1.54649406"></polygon>
                    </g>
                    <g id="Group-85" transform="translate(355.273919, 268.330989)">
                        <mask id="mask-24" fill="white">
                            <use xlink:href="#path-23"></use>
                        </mask>
                        <g id="Clip-84"></g>
                        <polygon id="Fill-83" fill="#04518C" mask="url(#mask-24)" points="-1.41284404 7.26888259 80.6438401 7.26888259 80.6438401 -1.5818219 -1.41284404 -1.5818219"></polygon>
                    </g>
                    <g id="Group-88" transform="translate(333.648755, 222.188509)">
                        <mask id="mask-26" fill="white">
                            <use xlink:href="#path-25"></use>
                        </mask>
                        <g id="Clip-87"></g>
                        <polygon id="Fill-86" fill="#F2D021" mask="url(#mask-26)" points="-1.5087156 53.4113628 19.0049148 53.4113628 19.0049148 -1.30424604 -1.5087156 -1.30424604"></polygon>
                    </g>
                    <g id="Group-127" transform="translate(25.000000, 26.331649)">
                        <path d="M373.34308,256.541431 L367.466081,250.663312 C367.781809,248.26174 367.97211,245.986339 367.97211,244.216342 L367.97211,244.153617 C367.97211,240.550899 366.644325,237.075073 364.243211,234.356992 L360.135872,229.616573 C360.135872,229.553127 360.072438,229.553127 360.009725,229.489681 C359.946291,229.426956 359.882857,229.426956 359.819423,229.426956 C359.75671,229.426956 359.693277,229.426956 359.630564,229.489681 C359.56713,229.489681 359.56713,229.553127 359.504417,229.616573 L355.459069,234.356992 C353.121389,237.075073 351.794325,240.550899 351.731612,244.153617 L351.731612,244.216342 C351.731612,245.986339 351.920472,248.26174 352.23692,250.663312 L346.359921,256.541431 C345.538886,257.363344 346.107628,258.689941 347.244391,258.689941 C349.519358,259.385683 351.857038,259.891087 354.19616,260.270321 C354.511887,261.345296 354.827615,262.419551 355.143342,263.43108 C355.397077,264.188827 356.091245,264.631506 356.849567,264.631506 L362.663853,264.631506 C363.421455,264.631506 364.117064,264.126102 364.370079,263.43108 C364.748519,262.419551 365.064967,261.408021 365.317261,260.270321 C367.655662,259.891087 369.930629,259.385683 372.26903,258.689941 C373.532661,258.689941 374.101402,257.299898 373.34308,256.541431" id="Fill-89" fill="#009FDA"></path>
                        <path d="M366.328958,274.112416 C366.265524,274.238587 366.265524,274.428203 366.265524,274.554374 C365.822929,276.956667 364.432431,279.168622 363.800976,281.507469 C363.232235,280.749002 362.916507,279.800918 362.916507,278.852835 C362.916507,278.473601 362.979941,277.967476 362.663493,277.715134 C361.146848,276.260925 359.314476,282.392107 359.757071,283.529808 C359.757071,283.592533 359.757071,283.592533 359.819784,283.592533 C358.114279,282.707895 357.482104,280.62211 357.797831,278.789389 C357.923978,277.904751 357.861265,277.019392 357.734397,276.071308 L357.734397,276.008583 C357.734397,275.945137 357.734397,275.818967 357.670963,275.755521 C357.670963,275.692075 357.607529,275.692075 357.607529,275.62935 L357.670963,275.62935 C357.607529,275.439733 357.607529,275.250116 357.544817,275.123224 L357.482104,275.0605 C357.41867,274.934329 357.355236,274.870883 357.292523,274.743991 L357.229089,274.681266 C357.229089,274.61782 357.165655,274.61782 357.165655,274.61782 C357.102221,274.491649 357.039509,274.428203 356.976075,274.365478 L356.912641,274.302033 C356.155039,274.04897 356.53348,275.692075 356.596913,276.071308 C356.660347,276.577434 356.723781,277.082838 356.786494,277.651688 C356.786494,277.904751 356.849928,278.220538 356.786494,278.473601 C356.723781,279.358239 355.902025,280.558664 355.902025,280.306323 C355.838591,278.979005 354.890688,277.777859 354.38538,276.640159 C353.753925,275.313562 353.185183,273.669736 353.310609,272.152802 C353.437477,270.509697 354.38538,268.550084 355.711723,267.602 C356.155039,267.286213 356.596913,267.03315 357.102221,266.843533 C357.165655,266.843533 357.165655,266.780808 357.165655,266.780808 L357.229089,266.780808 C356.723781,267.222767 356.786494,268.297742 356.786494,268.866593 C356.849928,270.004293 357.165655,271.141273 357.861265,272.089356 C358.303139,272.658207 358.998028,273.164332 359.566769,273.669736 C359.757071,273.796628 359.883218,273.986245 360.009364,274.112416 L360.072077,274.175141 C360.515393,274.681266 360.893834,275.250116 361.084135,276.008583 C361.146848,276.260925 361.779024,274.807437 361.652877,273.796628 C361.526009,272.911269 361.209561,272.089356 360.893834,271.268164 C360.767687,270.952377 360.009364,269.18238 360.831121,269.308551 C360.957267,269.371997 361.146848,269.435443 361.209561,269.561614 C361.526009,269.877401 361.71559,270.193189 361.841737,270.635868 C361.967883,271.015102 362.473912,271.078548 362.726927,270.825485 C362.78964,270.76276 362.853073,270.699314 362.853073,270.635868 C363.168801,270.256635 363.295668,269.814676 363.421815,269.371997 C363.548683,268.803147 363.548683,268.297742 363.421815,267.728892 C363.358381,267.475829 363.295668,267.222767 363.168801,266.970425 C363.295668,267.03315 363.485249,267.096596 363.610675,267.160042 C363.737543,267.222767 363.800976,267.286213 363.927123,267.349659 C366.328958,269.056209 366.770832,271.647398 366.328958,274.112416" id="Fill-91" fill="#009FDA"></path>
                        <polygon id="Fill-93" fill="#06C1A1" points="0.364941022 294.831038 7.39672346 294.831038 7.39672346 0.0815263852 0.364941022 0.0815263852"></polygon>
                        <polygon id="Fill-95" fill="#06C1A1" points="440.15806 294.831038 447.189122 294.831038 447.189122 0.0815263852 440.15806 0.0815263852"></polygon>
                        <polygon id="Fill-96" fill="#009FDA" points="315.735806 100.738751 311.062608 113.468308 324.390197 111.187139 329.063394 98.4575826"></polygon>
                        <polygon id="Fill-97" fill="#FFFFFF" points="302.800858 103.257987 311.485524 113.623462 316.158722 100.894627 307.474056 90.5284299"></polygon>
                        <polygon id="Fill-98" fill="#4BC6F0" points="307.510891 90.4285747 316.014626 100.632552 329.100013 98.3578716 320.600603 88.142359"></polygon>
                        <polygon id="Fill-99" fill="#009FDA" points="290.72962 58.0064889 287.607667 73.8852699 302.888008 68.6978458 306.00924 52.8183438"></polygon>
                        <polygon id="Fill-100" fill="#FFFFFF" points="275.957326 63.4011216 288.135898 73.9893789 291.257851 58.1105979 279.079279 47.5223406"></polygon>
                        <polygon id="Fill-101" fill="#4BC6F0" points="279.103283 47.3974675 291.038932 57.828552 306.03382 52.6937591 294.101776 42.2482551"></polygon>
                        <polygon id="Fill-102" fill="#009FDA" points="371.326966 77.3933241 375.564777 91.2620233 385.451081 80.7076519 381.21327 66.8389527"></polygon>
                        <polygon id="Fill-103" fill="#FFFFFF" points="361.929318 87.8967224 376.026042 91.1209282 371.788231 77.252229 357.692228 74.0280232"></polygon>
                        <polygon id="Fill-104" fill="#4BC6F0" points="357.658493 73.9190116 371.495714 77.1215881 381.180183 66.7294364 367.338637 63.5138823"></polygon>
                        <polygon id="Fill-105" fill="#009FDA" points="362.638912 35.4002785 370.635898 51.8169078 380.85595 36.7448992 372.859685 20.3289909"></polygon>
                        <polygon id="Fill-106" fill="#FFFFFF" points="353.015282 50.3123024 371.18114 51.5502187 363.184155 35.1343104 345.018296 33.8963941"></polygon>
                        <polygon id="Fill-107" fill="#4BC6F0" points="344.955151 33.7675557 362.795911 35.0299851 372.796828 20.1995036 354.94886 18.9226546"></polygon>
                        <path d="M334.103139,61.2927708 L312.075747,61.2927708 C311.448617,61.2927708 310.911592,60.527815 310.911592,59.6366883 C310.911592,58.7441197 311.448617,57.9798849 312.075747,57.9798849 L334.103139,57.9798849 C334.729548,57.9798849 335.266573,58.7441197 335.266573,59.6366883 C335.266573,60.527815 334.729548,61.2927708 334.103139,61.2927708" id="Fill-108" fill="#04518C"></path>
                        <path d="M411.809417,75.6841778 L389.720033,75.6841778 C389.091461,75.6841778 388.552274,74.9199429 388.552274,74.0280953 C388.552274,73.1362477 389.091461,72.3712919 389.720033,72.3712919 L411.809417,72.3712919 C412.437988,72.3712919 412.976455,73.1362477 412.976455,74.0280953 C412.976455,74.9199429 412.437988,75.6841778 411.809417,75.6841778" id="Fill-109" fill="#04518C"></path>
                        <path d="M357.578263,101.902623 L332.333047,101.902623 C331.61365,101.902623 330.998775,101.138389 330.998775,100.246541 C330.998775,99.3546933 331.61365,98.5904585 332.333047,98.5904585 L357.578263,98.5904585 C358.29694,98.5904585 358.912536,99.3546933 358.912536,100.246541 C358.912536,101.138389 358.29694,101.902623 357.578263,101.902623" id="Fill-110" fill="#04518C"></path>
                        <path d="M125.90673,193.608135 C125.202471,192.424292 125.507385,191.116441 126.626848,190.450259 C127.746311,189.784077 129.009941,190.158985 129.71348,191.342828 C130.398277,192.494948 130.176979,193.79631 128.993362,194.500704 C127.873899,195.166886 126.592248,194.760255 125.90673,193.608135" id="Fill-111" fill="#FFFFFF"></path>
                        <path d="M138.92616,185.859731 C138.22118,184.675888 138.526094,183.368758 139.646278,182.702576 C140.76574,182.035673 142.02865,182.410581 142.732189,183.594424 C143.417706,184.746544 143.196409,186.047906 142.012071,186.7523 C140.893329,187.419203 139.610957,187.011851 138.92616,185.859731" id="Fill-112" fill="#FFFFFF"></path>
                        <path d="M151.944869,178.111688 C151.240609,176.927845 151.545524,175.619994 152.665708,174.954533 C153.78445,174.28763 155.04808,174.662538 155.752339,175.846381 C156.436415,176.998501 156.215118,178.299863 155.032221,179.004257 C153.912038,179.67116 152.631107,179.263808 151.944869,178.111688" id="Fill-113" fill="#FFFFFF"></path>
                        <path d="M164.96502,170.363356 C164.26076,169.179513 164.565675,167.871662 165.685138,167.20548 C166.8046,166.539298 168.068231,166.914206 168.771769,168.098049 C169.456566,169.250169 169.235269,170.551531 168.051651,171.255925 C166.932189,171.922107 165.650537,171.515476 164.96502,170.363356" id="Fill-114" fill="#FFFFFF"></path>
                        <path d="M177.983801,162.615313 C177.279541,161.43147 177.584456,160.123619 178.70464,159.457437 C179.824102,158.791255 181.087012,159.166162 181.791271,160.349284 C182.475347,161.502125 182.254771,162.803488 181.071153,163.50716 C179.95097,164.174063 178.670039,163.767433 177.983801,162.615313" id="Fill-115" fill="#FFFFFF"></path>
                        <path d="M191.003952,154.866909 C190.298971,153.683066 190.603886,152.375215 191.724069,151.709754 C192.843532,151.042851 194.106442,151.417758 194.80998,152.60088 C195.495498,153.753722 195.274201,155.055084 194.090583,155.759477 C192.9704,156.42638 191.688748,156.019029 191.003952,154.866909" id="Fill-116" fill="#FFFFFF"></path>
                        <path d="M204.023381,147.118505 C203.318401,145.934662 203.623316,144.626811 204.743499,143.96135 C205.862962,143.295168 207.125872,143.669355 207.82941,144.853198 C208.514928,146.005318 208.29363,147.30668 207.110013,148.011074 C205.98983,148.677977 204.708178,148.270625 204.023381,147.118505" id="Fill-117" fill="#FFFFFF"></path>
                        <path d="M217.042811,139.370534 C216.337831,138.186691 216.642746,136.87884 217.762208,136.212658 C218.882392,135.546476 220.144581,135.921383 220.84884,137.105226 C221.533637,138.257346 221.31306,139.558708 220.128722,140.263102 C219.00926,140.929284 217.727608,140.522654 217.042811,139.370534" id="Fill-118" fill="#FFFFFF"></path>
                        <path d="M230.062313,131.621769 C229.357333,130.437926 229.662248,129.130796 230.782431,128.464614 C231.901894,127.798432 233.164803,128.172619 233.869063,129.356462 C234.55386,130.508582 234.332562,131.810665 233.148945,132.514338 C232.028761,133.181241 230.747831,132.773889 230.062313,131.621769" id="Fill-119" fill="#FFFFFF"></path>
                        <path d="M243.081743,123.873726 C242.377484,122.689883 242.681678,121.382032 243.80114,120.71585 C244.921324,120.050389 246.184233,120.424575 246.887772,121.608418 C247.57329,122.760539 247.351992,124.061901 246.168375,124.766294 C245.048191,125.433197 243.76654,125.025846 243.081743,123.873726" id="Fill-120" fill="#FFFFFF"></path>
                        <path d="M256.101173,116.125682 C255.396913,114.941839 255.701107,113.633989 256.82057,112.967806 C257.940754,112.301624 259.202942,112.676532 259.906481,113.860375 C260.59272,115.012495 260.371422,116.313857 259.187084,117.018251 C258.067621,117.684433 256.78597,117.277803 256.101173,116.125682" id="Fill-121" fill="#FFFFFF"></path>
                        <path d="M269.119954,108.377351 C268.415695,107.193508 268.720609,105.886378 269.840072,105.220196 C270.960256,104.553293 272.222444,104.9282 272.926704,106.112043 C273.611501,107.264163 273.390203,108.565525 272.206586,109.269919 C271.087123,109.936822 269.805472,109.529471 269.119954,108.377351" id="Fill-122" fill="#FFFFFF"></path>
                        <path d="M282.139384,100.629307 C281.435125,99.4454642 281.740039,98.1376133 282.859502,97.4721522 C283.978965,96.8052492 285.241874,97.1801569 285.945413,98.3639999 C286.630931,99.5161199 286.409633,100.817482 285.226016,101.521876 C284.106553,102.188779 282.824181,101.781427 282.139384,100.629307" id="Fill-123" fill="#FFFFFF"></path>
                        <path d="M347.376664,109.480949 L332.157595,109.480949 C331.724371,109.480949 331.353139,108.715993 331.353139,107.824867 C331.353139,106.933019 331.724371,106.168063 332.157595,106.168063 L347.376664,106.168063 C347.809889,106.168063 348.181121,106.933019 348.181121,107.824867 C348.181121,108.715993 347.809889,109.480949 347.376664,109.480949" id="Fill-124" fill="#04518C"></path>
                        <path d="M412.030426,29.1745044 L386.78521,29.1745044 C386.065813,29.1745044 385.450937,28.4095485 385.450937,27.5184219 C385.450937,26.6265743 386.065813,25.8616185 386.78521,25.8616185 L412.030426,25.8616185 C412.748381,25.8616185 413.364699,26.6265743 413.364699,27.5184219 C413.364699,28.4095485 412.748381,29.1745044 412.030426,29.1745044" id="Fill-125" fill="#04518C"></path>
                        <path d="M401.828899,36.7524695 L386.60983,36.7524695 C386.176606,36.7524695 385.805374,35.9882346 385.805374,35.096387 C385.805374,34.2045394 386.176606,33.4395836 386.60983,33.4395836 L401.828899,33.4395836 C402.262123,33.4395836 402.633355,34.2045394 402.633355,35.096387 C402.633355,35.9882346 402.262123,36.7524695 401.828899,36.7524695" id="Fill-126" fill="#04518C"></path>
                    </g>
                </g>
                <g id="Page-1" transform="translate(82.000000, 329.000000)">
                    <g id="Group-6" transform="translate(143.000000, 79.000000)">
                        <path d="M6.32221642,54.14312 C5.6500183,56.06416 3.80881358,57.0309733 2.21099094,56.30488 C0.610077736,55.5772133 -0.138611887,53.43276 0.533586226,51.5109333 L17.2759551,3.65406667 C17.9481532,1.73224 19.7885853,0.76464 21.3879532,1.49152 C22.9865485,2.2184 23.737556,4.36521333 23.0653579,6.28625333 L6.32221642,54.14312 Z" id="Fill-1" fill="#133055"></path>
                        <g id="Group-5" transform="translate(27.815094, 0.000000)">
                            <mask id="mask-28" fill="white">
                                <use xlink:href="#path-27"></use>
                            </mask>
                            <g id="Clip-4"></g>
                            <path d="M12.9862494,54.7561693 C13.2427664,56.8046493 12.069124,58.688716 10.3646768,58.9656227 C8.66022962,59.243316 7.07322396,57.808436 6.81670698,55.7607427 L0.425416415,4.75642267 C0.168899434,2.709516 1.34176925,0.824662667 3.04698906,0.546969333 C4.74989094,0.270062667 6.33844189,1.704156 6.59573151,3.75184933 L12.9862494,54.7561693 Z" id="Fill-3" fill="#133055" mask="url(#mask-28)"></path>
                        </g>
                    </g>
                    <g id="Group-9" transform="translate(99.000000, 42.000000)">
                        <mask id="mask-30" fill="white">
                            <use xlink:href="#path-29"></use>
                        </mask>
                        <g id="Clip-8"></g>
                        <polygon id="Fill-7" fill="#003055" mask="url(#mask-30)" points="69.5091316 3.11326452 27.0267632 47.9723613 -8.80981579 15.3354581 33.6709737 -29.5236387"></polygon>
                    </g>
                    <g id="Group-12" transform="translate(152.000000, 33.000000)">
                        <mask id="mask-32" fill="white">
                            <use xlink:href="#path-31"></use>
                        </mask>
                        <g id="Clip-11"></g>
                        <polygon id="Fill-10" fill="#009FDA" mask="url(#mask-32)" points="-5.63579545 55.4625 40.4695455 55.4625 40.4695455 -5.58046875 -5.63579545 -5.58046875"></polygon>
                    </g>
                    <g id="Group-15" transform="translate(160.000000, 2.000000)">
                        <mask id="mask-34" fill="white">
                            <use xlink:href="#path-33"></use>
                        </mask>
                        <g id="Clip-14"></g>
                        <polygon id="Fill-13" fill="#009FDA" mask="url(#mask-34)" points="-5.60922727 30.7789063 22.304 30.7789063 22.304 -5.6390625 -5.60922727 -5.6390625"></polygon>
                    </g>
                    <g id="Group-18" transform="translate(164.000000, 42.000000)">
                        <mask id="mask-36" fill="white">
                            <use xlink:href="#path-35"></use>
                        </mask>
                        <g id="Clip-17"></g>
                        <polygon id="Fill-16" fill="#003055" mask="url(#mask-36)" points="-1.33904423 56.2951742 -5.80962115 -4.39772903 43.3722442 -7.88856774 47.8420327 52.8020129"></polygon>
                    </g>
                    <g id="Group-23" transform="translate(20.000000, 76.000000)" fill="#133055">
                        <path d="M24.967961,55.588856 C25.1904,57.616096 26.7794732,58.9880427 28.5176195,58.6552827 C30.2557659,58.3225227 31.4826927,56.410136 31.2602537,54.382896 L25.7203512,3.888336 C25.4979122,1.861096 23.9096195,0.488362667 22.1706927,0.821909333 C20.4333268,1.15466933 19.204839,3.067056 19.427278,5.094296 L24.967961,55.588856 Z" id="Fill-19"></path>
                        <path d="M0.679102439,54.7384693 C0.419980488,56.7869493 1.60554146,58.671016 3.32729756,58.9479227 C5.04905366,59.225616 6.65217561,57.790736 6.91129756,55.742256 L13.3674927,4.737936 C13.6266146,2.691816 12.4418341,0.806962667 10.7192976,0.529269333 C8.99910244,0.251576 7.39441951,1.686456 7.13451707,3.73414933 L0.679102439,54.7384693 Z" id="Fill-21"></path>
                    </g>
                    <g id="Group-26" transform="translate(47.000000, 35.000000)">
                        <mask id="mask-38" fill="white">
                            <use xlink:href="#path-37"></use>
                        </mask>
                        <g id="Clip-25"></g>
                        <polygon id="Fill-24" fill="#003055" mask="url(#mask-38)" points="-8.65428873 0.517714286 21.4485282 52.9885714 63.2431056 29.7931429 33.1402887 -22.6777143"></polygon>
                    </g>
                    <g id="Group-29" transform="translate(20.000000, 30.000000)">
                        <mask id="mask-40" fill="white">
                            <use xlink:href="#path-39"></use>
                        </mask>
                        <g id="Clip-28"></g>
                        <polygon id="Fill-27" fill="#009FDA" mask="url(#mask-40)" points="-5.72568182 55.4445312 40.3796591 55.4445312 40.3796591 -5.5984375 -5.72568182 -5.5984375"></polygon>
                    </g>
                    <g id="Group-32" transform="translate(29.000000, 0.000000)">
                        <mask id="mask-42" fill="white">
                            <use xlink:href="#path-41"></use>
                        </mask>
                        <g id="Clip-31"></g>
                        <polygon id="Fill-30" fill="#009FDA" mask="url(#mask-42)" points="-5.55281818 30.7609375 22.3604091 30.7609375 22.3604091 -5.65625 -5.55281818 -5.65625"></polygon>
                    </g>
                    <g id="Group-35" transform="translate(0.000000, 39.000000)">
                        <mask id="mask-44" fill="white">
                            <use xlink:href="#path-43"></use>
                        </mask>
                        <g id="Clip-34"></g>
                        <polygon id="Fill-33" fill="#003055" mask="url(#mask-44)" points="42.8733846 56.2770581 47.3439615 -4.41584516 -1.83790385 -7.90668387 -6.30769231 52.7838968"></polygon>
                    </g>
                </g>
            </g>
        </g>
    </g>
</svg>