<?xml version="1.0" encoding="UTF-8"?>
<svg width="445px" height="667px" viewBox="0 0 445 667" version="1.1" xmlns="http://www.w3.org/2000/svg" xmlns:xlink="http://www.w3.org/1999/xlink">
    <!-- Generator: Sketch 50 (54983) - http://www.bohemiancoding.com/sketch -->
    <title>Artboard 2</title>
    <desc>Created with Sketch.</desc>
    <defs>
        <polygon id="path-1" points="0.31533285 0.360579176 9.52971661 0.360579176 9.52971661 41.484375 0.31533285 41.484375"></polygon>
        <path d="M31.9768615,1.616625 C30.8259692,8.4020625 27.1401231,14.3263125 21.5950154,18.2975625 C16.0526769,22.269375 9.31901538,23.8100625 2.63021538,22.6434375 C1.59950769,22.4865 0.6408,23.15925 0.464123077,24.1936875 C0.446953846,24.292125 0.438092308,24.3894375 0.436984615,24.485625 L0.436984615,24.54975 C0.451384615,25.4458125 1.09052308,26.235 1.99329231,26.3925 C2.45464615,26.4718125 2.91655385,26.5415625 3.37790769,26.5995 C4.58030769,26.7519375 5.78215385,26.8273125 6.97735385,26.8284375 L7.05267692,26.8284375 C13.0032,26.818875 18.7975385,24.9598125 23.7577846,21.4059375 C30.1203692,16.846875 34.3517538,10.0490625 35.6721231,2.2618125 C35.6898462,2.163375 35.6981538,2.0649375 35.7003692,1.9670625 L35.7003692,1.9040625 C35.6854154,1.0096875 35.0446154,0.2221875 34.1424,0.0658125 C34.0493538,0.0534375 33.9574154,0.0466875 33.8671385,0.0466875 C32.9532923,0.0466875 32.1391385,0.676125 31.9768615,1.616625 Z" id="path-3"></path>
        <path d="M14.6083636,0.15203125 L8.70818182,0.288203125 C4.73127273,0.380078125 1.17436364,3.18445312 0.556909091,7.11921875 C0.452181818,7.78039062 0.404727273,8.45960937 0.420545455,9.1525 L1.01836364,34.7167187 L23.8909091,34.7167187 L23.2914545,8.62585937 C23.2750909,7.93460937 23.1976364,7.25757812 23.0634545,6.60242187 C22.2807273,2.765 18.7090909,0.150390625 14.8107273,0.150390625 C14.7430909,0.150390625 14.6765455,0.1509375 14.6083636,0.15203125 Z" id="path-5"></path>
        <path d="M23.98275,0.2808 C22.9584375,0.414830769 22.2654375,1.44609231 22.4578125,2.46350769 C23.72175,9.13015385 22.2676875,15.8798769 18.3695625,21.4698462 C14.46975,27.0592615 8.55675,30.8381538 1.8163125,32.0627077 C0.779625,32.2620923 0.1006875,33.2291077 0.29475,34.2470769 C0.484875,35.2639385 1.4810625,35.9352 2.514375,35.7457846 C2.6364375,35.7225231 2.7579375,35.7003692 2.8828125,35.676 C10.501875,34.1850462 17.10675,29.9027077 21.5105625,23.5877538 C25.984125,17.1731077 27.65025,9.42701538 26.202375,1.77895385 C26.0319375,0.878953846 25.2315,0.248676923 24.332625,0.248676923 C24.2173125,0.248676923 24.100875,0.259753846 23.98275,0.2808 Z" id="path-7"></path>
        <path d="M5.49763636,0.113625 C2.64,0.113625 0.322363636,2.500875 0.322363636,5.4444375 L0.322363636,12.6061875 C0.322363636,15.550875 2.64,17.937 5.49763636,17.937 L6.70909091,17.937 C9.56781818,17.937 11.8832727,15.550875 11.8832727,12.6061875 L11.8832727,5.4444375 C11.8832727,2.500875 9.56781818,0.113625 6.70909091,0.113625 L5.49763636,0.113625 Z" id="path-9"></path>
        <polygon id="path-11" points="0.372225455 0.274765957 51.9160436 0.274765957 51.9160436 12.5366298 0.372225455 12.5366298"></polygon>
        <polygon id="path-13" points="0.0688664609 0.480304957 12.0380113 0.480304957 12.0380113 55.2756496 0.0688664609 55.2756496"></polygon>
        <path d="M2.33409231,0.232604167 C1.00652308,0.48125 0.129430769,1.771875 0.376723077,3.110625 C0.407092308,3.2703125 0.436015385,3.4278125 0.467107692,3.58822917 C2.41435385,13.4647917 8.00518462,22.0273958 16.2497077,27.7345833 C24.6243846,33.534375 34.7366154,35.6948958 44.7208615,33.8172917 C46.0484308,33.569375 46.9248,32.2794792 46.6782308,30.9407292 C46.5032462,29.6129167 45.1561538,28.7153125 43.8264154,28.9632292 C35.1263538,30.6016667 26.3127692,28.7175 19.0140308,23.664375 C11.7181846,18.6090625 6.78390769,10.9447917 5.18373846,2.2071875 C4.95307692,1.0171875 3.93787692,0.191041667 2.78529231,0.191041667 C2.63706154,0.191041667 2.48593846,0.204166667 2.33409231,0.232604167 Z" id="path-15"></path>
        <path d="M19.86825,0.48175 L11.75475,0.664609375 C6.288,0.78725 1.395,4.55385938 0.5475,9.8376875 C0.4035,10.7255469 0.339,11.6369063 0.36075,12.5680938 L1.18425,46.8971875 L32.63025,46.8971875 L31.80825,11.8608906 C31.7865,10.9326406 31.6785,10.0234844 31.49475,9.14296875 C30.41625,3.98985938 25.50525,0.479546875 20.145,0.479546875 C20.05275,0.479546875 19.9605,0.48028125 19.86825,0.48175 Z" id="path-17"></path>
        <path d="M7.11854545,0.439393939 C3.30763636,0.439393939 0.219636364,3.65454545 0.219636364,7.61893939 L0.219636364,17.2643939 C0.219636364,21.230303 3.30763636,24.4431818 7.11854545,24.4431818 L8.73527273,24.4431818 C12.5447273,24.4431818 15.6341818,21.230303 15.6341818,17.2643939 L15.6341818,7.61893939 C15.6341818,3.65454545 12.5447273,0.439393939 8.73527273,0.439393939 L7.11854545,0.439393939 Z" id="path-19"></path>
        <path d="M16.0052639,0.269230769 C11.2728056,0.269230769 6.53372222,1.12717949 1.99044444,2.84810256 C0.709611111,3.33128205 0.0743472222,4.73846154 0.573430556,5.9905641 C1.11447222,7.21825641 2.51381944,7.86010256 3.79686111,7.37692308 C12.1944167,4.19569231 21.3641528,4.39887179 29.6144861,7.94625641 C37.8626111,11.4950769 44.2005278,17.9645128 47.4732778,26.1649231 C48.0003333,27.412 49.4136667,28.0366154 50.6952361,27.552 C50.8189028,27.5038974 50.9366806,27.4478974 51.0485694,27.3854359 L51.1045139,27.3516923 C52.1048889,26.7478974 52.5539167,25.5166154 52.1129861,24.4059487 C51.8855278,23.842359 51.6485,23.2830769 51.39675,22.7309744 C50.7563333,21.321641 50.0334722,19.9611282 49.2340556,18.6537436 L49.1059722,18.4448205 C45.0235,11.8648205 38.9829722,6.66758974 31.621125,3.5014359 C26.6163056,1.34902564 21.3170417,0.269230769 16.0104167,0.269230769 L16.0052639,0.269230769 Z" id="path-21"></path>
    </defs>
    <g id="Artboard-2" stroke="none" stroke-width="1" fill="none" fill-rule="evenodd">
        <g id="Group-2-Copy">
            <path d="M129.302095,74.6886564 C127.038962,64.5652259 118.123999,57 107.449931,57 C95.0660396,57 85.0269181,67.1736815 85.0269181,79.7235609 C85.0269181,80.3759046 85.070155,81.0172176 85.1233696,81.6554665 C78.9368664,81.6505639 74,86.6536019 74,92.825282 C74,98.996962 78.9368664,104 85.0269181,104 L131.450031,104 C139.485743,104 146,97.3987353 146,89.2550101 C146,81.1118978 139.485743,74.5103266 131.450031,74.5103266 C130.71833,74.5103266 130.004771,74.5829454 129.302095,74.6886564 Z" id="Fill-26" fill="#FFFFFF"></path>
            <path d="M422.272297,56.086681 C419.19192,42.3015842 407.057666,32 392.529072,32 C375.673221,32 362.008861,45.8535237 362.008861,62.9427212 C362.008861,63.831019 362.067711,64.7042962 362.140142,65.5734011 C353.719624,65.5667253 347,72.3793728 347,80.7833627 C347,89.1873525 353.719624,96 362.008861,96 L425.195876,96 C436.133373,96 445,87.0110437 445,75.9217159 C445,64.8332225 436.133373,55.843849 425.195876,55.843849 C424.19995,55.843849 423.228715,55.9427342 422.272297,56.086681 Z" id="Fill-26" fill="#FFFFFF"></path>
            <g id="Page-1" transform="translate(408.500000, 488.500000) scale(-1, 1) translate(-408.500000, -488.500000) translate(372.000000, 410.000000)">
                <g id="Group-6" transform="translate(1.000000, 112.000000)">
                    <path d="M26.4664473,41.1678769 C26.95512,42.6541237 28.3089745,43.4705362 29.4897927,42.9937425 C30.6723018,42.5163956 31.2325564,40.9261612 30.7444473,39.4410206 L18.5834291,2.43751125 C18.0947564,0.9518175 16.7420291,0.13429875 15.55952,0.611645625 C14.3787018,1.08843937 13.8167564,2.67922687 14.3054291,4.16492062 L26.4664473,41.1678769 Z" id="Fill-1" fill="#133055"></path>
                    <g id="Group-5" transform="translate(0.000000, 2.765625)">
                        <mask id="mask-2" fill="white">
                            <use xlink:href="#path-1"></use>
                        </mask>
                        <g id="Clip-4"></g>
                        <path d="M0.341,38.5005975 C0.153872727,39.9403819 1.01003636,41.2656694 2.25341818,41.4603694 C3.4968,41.6556225 4.65450909,40.6467225 4.84163636,39.206385 L9.50403636,3.3439725 C9.69116364,1.90474125 8.83556364,0.57945375 7.59161818,0.38475375 C6.34936364,0.189500625 5.19052727,1.19840062 5.00283636,2.63763187 L0.341,38.5005975 Z" id="Fill-3" fill="#133055" mask="url(#mask-2)"></path>
                    </g>
                </g>
                <g id="Group-9" transform="translate(18.000000, 65.000000)">
                    <mask id="mask-4" fill="white">
                        <use xlink:href="#path-3"></use>
                    </mask>
                    <g id="Clip-8"></g>
                    <polygon id="Fill-7" fill="#003055" mask="url(#mask-4)" points="-3.69747692 31.0269375 39.8353846 31.0269375 39.8353846 -4.152375 -3.69747692 -4.152375"></polygon>
                </g>
                <g id="Group-12" transform="translate(0.000000, 82.000000)">
                    <mask id="mask-6" fill="white">
                        <use xlink:href="#path-5"></use>
                    </mask>
                    <g id="Clip-11"></g>
                    <polygon id="Fill-10" fill="#009FDA" mask="url(#mask-6)" points="-3.65290909 38.7985938 27.9605455 38.7985938 27.9605455 -3.93148438 -3.65290909 -3.93148438"></polygon>
                </g>
                <g id="Group-15" transform="translate(0.000000, 56.000000)">
                    <mask id="mask-8" fill="white">
                        <use xlink:href="#path-7"></use>
                    </mask>
                    <g id="Clip-14"></g>
                    <polygon id="Fill-13" fill="#003055" mask="url(#mask-8)" points="-3.9375 39.9118154 30.9088125 39.9118154 30.9088125 -3.88467692 -3.9375 -3.88467692"></polygon>
                </g>
                <g id="Group-18" transform="translate(6.000000, 60.000000)">
                    <mask id="mask-10" fill="white">
                        <use xlink:href="#path-9"></use>
                    </mask>
                    <g id="Clip-17"></g>
                    <polygon id="Fill-16" fill="#009FDA" mask="url(#mask-10)" points="-3.74836364 22.1355 15.9556364 22.1355 15.9556364 -4.084875 -3.74836364 -4.084875"></polygon>
                </g>
                <g id="Group-26" transform="translate(21.000000, 0.000000)">
                    <path d="M10.1085001,72.7789518 C10.1085001,72.7789518 31.4652225,80.5892967 43.5740052,71.8858909 L50.4,12.1276596 L2.4,12.2579672 L10.1085001,72.7789518 Z" id="Fill-19" fill="#FFFFFF"></path>
                    <path d="M8.61943708,60.6382979 C8.61943708,60.6382979 27.8184706,68.3398681 44.9285714,60.6382979 L44.4048262,65.4377605 C44.4048262,65.4377605 31.8876106,72.8304589 9.20523507,65.4377605 L8.61943708,60.6382979 Z" id="Fill-21" fill="#F2D021"></path>
                    <g id="Group-25">
                        <mask id="mask-12" fill="white">
                            <use xlink:href="#path-11"></use>
                        </mask>
                        <g id="Clip-24"></g>
                        <path d="M3.29320727,7.33058723 C3.29320727,7.33058723 3.00578909,4.28335319 5.28244364,1.81233191 C5.28244364,1.81233191 25.1067345,-1.64354043 47.2748073,1.80671489 C47.2748073,1.80671489 49.11608,2.1994383 49.0428073,7.33058723 L51.5213164,8.25271489 L51.9160436,12.5366298 C51.9160436,12.5366298 0.69888,12.4285021 0.372225455,12.5366298 L0.965970909,8.18250213 L3.29320727,7.33058723 Z" id="Fill-23" fill="#F2D021" mask="url(#mask-12)"></path>
                    </g>
                </g>
            </g>
            <g id="Group-12" transform="translate(0.000000, 57.000000)">
                <path d="M34.2218373,73.8736392 L28.7626179,75.5043515 C7.02740167,81.9961644 -9.44175187,56.1698705 6.1411791,40.0287063 L12.0724612,33.8847614 C14.5110098,31.3587307 16.290085,28.2977504 17.2594048,24.9600274 L19.9423828,15.7210483 C25.9854925,-5.08939334 56.1563983,-5.29371733 62.4956522,15.432667 L65.4955488,25.2415117 C66.4613325,28.3990502 68.1542165,31.2992439 70.4455769,33.7205263 L77.0111381,40.6584897 C92.3483135,56.8664688 75.8619218,82.4345558 54.2385331,75.9759347 L47.1995833,73.8736392 C42.9704673,72.6106238 38.4509533,72.6106238 34.2218373,73.8736392" id="Fill-18" fill="#F2D021"></path>
                <path d="M27.6542986,29 L6.34570144,29 C4.49813522,29 3,27.6088744 3,25.8932772 L3,6.10672277 C3,4.39071117 4.49813522,3 6.34570144,3 L27.6542986,3 C29.5023111,3 31,4.39071117 31,6.10672277 L31,25.8932772 C31,27.6088744 29.5023111,29 27.6542986,29" id="Fill-20" fill="#133055"></path>
                <path d="M69,54.5 C69,49.8053539 65.1942115,46 60.5,46 C55.8053539,46 52,49.8053539 52,54.5 C52,59.1946461 55.8053539,63 60.5,63 C65.1942115,63 69,59.1946461 69,54.5" id="Fill-22" fill="#133055"></path>
                <path d="M49.0730064,46 C48.6110593,46 48.1478278,45.8429047 47.779212,45.5250513 L34.6323429,34.1877379 C33.8441644,33.508077 33.784655,32.3498046 34.4996241,31.6005497 C35.2154495,30.8508878 36.4338938,30.7963521 37.220788,31.4747921 L50.3676571,42.8121055 C51.1558356,43.4917664 51.215345,44.6500388 50.5003759,45.3988867 C50.1197726,45.7977297 49.5974598,46 49.0730064,46" id="Fill-24" fill="#133055"></path>
            </g>
            <g id="Page-1" transform="translate(235.000000, 288.500000) scale(-1, 1) translate(-235.000000, -288.500000) translate(110.000000, 0.000000)">
                <polygon id="Fill-1" fill="#FFFFFF" points="34 387.544999 107 429 107 344.53756 34 304"></polygon>
                <polygon id="Fill-2" fill="#4BC6F0" points="34 304.672359 107.026633 346 177 305.23821 105.217303 266"></polygon>
                <polygon id="Fill-3" fill="#009FDA" points="179.151855 386.965332 178.61984 577 250 535.788469 250 346"></polygon>
                <polygon id="Fill-4" fill="#FFFFFF" points="107 535.787837 178.234608 577 179.105469 386.841309 107 346"></polygon>
                <polygon id="Fill-5" fill="#4BC6F0" points="107.79248 346.019043 179.193718 386 250 345.308526 177.213379 305.526367"></polygon>
                <polygon id="Fill-6" fill="#009FDA" points="91 247.885111 91 319 152.999233 283.67367 153 212"></polygon>
                <polygon id="Fill-7" fill="#FFFFFF" points="31 283.673161 91 319 91 247.885616 31 212"></polygon>
                <polygon id="Fill-8" fill="#4BC6F0" points="31.4189453 211.604004 90.942627 247.136475 153.133789 211.068237 91.9992311 175"></polygon>
                <polyline id="Fill-9" fill="#F2D021" points="67.362483 116 0 144.835568 0 236.854731 30.9313965 250.103027 30.9313965 225.099609 21.4987961 221.164432 21.4987961 159.677271 75 135.38988"></polyline>
                <polygon id="Fill-10" fill="#F2D021" points="111.824105 114 184 144.259937 184 236.782779 153.021973 250.030518 153.021973 224.913086 162.501754 221.006597 162.501754 159.182878 109 134.762547"></polygon>
                <polygon id="Fill-11" fill="#009FDA" points="78 80 104 80 104 0 78 0"></polygon>
                <polygon id="Fill-12" fill="#D1B534" points="83 177 101 177 101 134 83 134"></polygon>
                <polygon id="Fill-13" fill="#F2D021" points="79 228 105 228 105 175 79 175"></polygon>
                <path d="M110.477836,137 L72.5213968,137 C69.4842067,137 67,134.562785 67,131.583966 L67,85.4152821 C67,82.4364632 69.4842067,80 72.5213968,80 L110.477836,80 C113.515026,80 116,82.4364632 116,85.4152821 L116,131.583966 C116,134.562785 113.515026,137 110.477836,137" id="Fill-14" fill="#4BC6F0"></path>
            </g>
            <g id="Page-1" transform="translate(171.500000, 291.000000) scale(-1, 1) translate(-171.500000, -291.000000) translate(110.000000, 227.000000)">
                <g id="Group-6" transform="translate(45.000000, 69.000000)">
                    <path d="M34.7707089,54.8545228 C35.4047446,56.8341281 37.1633518,57.9219529 38.6979232,57.2866514 C40.2339589,56.6513499 40.9617089,54.53245 40.3276732,52.5528448 L24.5309589,3.24770237 C23.8961911,1.2680971 22.1383161,0.17953531 20.6030125,0.815573784 C19.0684411,1.45013824 18.3392268,3.56977515 18.9732625,5.54938041 L34.7707089,54.8545228 Z" id="Fill-1" fill="#133055"></path>
                    <g id="Group-5" transform="translate(0.000000, 2.948035)">
                        <mask id="mask-14" fill="white">
                            <use xlink:href="#path-13"></use>
                        </mask>
                        <g id="Clip-4"></g>
                        <path d="M0.102207143,51.2997826 C-0.140864286,53.2189532 0.971260714,54.9840889 2.58636786,55.243516 C4.201475,55.50368 5.70529643,54.1593762 5.94836786,52.2409427 L12.0046536,4.45551216 C12.247725,2.53855263 11.1363321,0.77267988 9.52049286,0.512515823 C7.90685,0.252351765 6.40156429,1.59665556 6.15776071,3.51508911 L0.102207143,51.2997826 Z" id="Fill-3" fill="#133055" mask="url(#mask-14)"></path>
                    </g>
                </g>
                <g id="Group-9" transform="translate(0.000000, 5.000000)">
                    <mask id="mask-16" fill="white">
                        <use xlink:href="#path-15"></use>
                    </mask>
                    <g id="Clip-8"></g>
                    <polygon id="Fill-7" fill="#003055" mask="url(#mask-16)" points="-5.06153846 39.9204167 52.1157692 39.9204167 52.1157692 -5.25072917 -5.06153846 -5.25072917"></polygon>
                </g>
                <g id="Group-12" transform="translate(45.000000, 28.000000)">
                    <mask id="mask-18" fill="white">
                        <use xlink:href="#path-17"></use>
                    </mask>
                    <g id="Clip-11"></g>
                    <polygon id="Fill-10" fill="#009FDA" mask="url(#mask-18)" points="-5.24175 52.3785625 38.22825 52.3785625 38.22825 -5.00182812 -5.24175 -5.00182812"></polygon>
                </g>
                <g id="Group-15" transform="translate(52.000000, 0.000000)">
                    <mask id="mask-20" fill="white">
                        <use xlink:href="#path-19"></use>
                    </mask>
                    <g id="Clip-14"></g>
                    <polygon id="Fill-13" fill="#009FDA" mask="url(#mask-20)" points="-5.20945455 30.0977273 21.0618182 30.0977273 21.0618182 -5.21590909 -5.20945455 -5.21590909"></polygon>
                </g>
                <g id="Group-18" transform="translate(70.000000, 29.000000)">
                    <mask id="mask-22" fill="white">
                        <use xlink:href="#path-21"></use>
                    </mask>
                    <g id="Clip-17"></g>
                    <polygon id="Fill-16" fill="#003055" mask="url(#mask-22)" points="21.7464889 50.8088 -8.05349722 2.43915897 31.4079472 -20.6859692 61.205725 27.6829538"></polygon>
                </g>
            </g>
        </g>
    </g>
</svg>