<?xml version="1.0" encoding="UTF-8"?>
<svg width="516px" height="542px" viewBox="0 0 516 542" version="1.1" xmlns="http://www.w3.org/2000/svg" xmlns:xlink="http://www.w3.org/1999/xlink">
    <!-- Generator: Sketch 50 (54983) - http://www.bohemiancoding.com/sketch -->
    <title>Artboard</title>
    <desc>Created with Sketch.</desc>
    <defs>
        <polygon id="path-1" points="91.2009794 0.517378641 0 0.517378641 0 13.6590324 0 26.8006861 91.2009794 26.8006861 91.2009794 0.517378641"></polygon>
    </defs>
    <g id="Artboard" stroke="none" stroke-width="1" fill="none" fill-rule="evenodd">
        <g id="Page-1-Copy">
            <polygon id="Fill-1" fill="#009FDA" points="343 206.388213 343 490 389 463.61297 389 180"></polygon>
            <polygon id="Fill-2" fill="#4BC6F0" points="295 463.61297 341 490 341 206.388213 295 180"></polygon>
            <polygon id="Fill-3" fill="#4BC6F0" points="386 179.524327 340.5 153 295 179.524327 340.5 206"></polygon>
            <polygon id="Fill-4" fill="#F5BACC" points="389 233.449078 343 260 343 206.550922 389 180"></polygon>
            <polygon id="Fill-5" fill="#4BC6F0" points="295 233.449078 341 260 341 206.550922 295 180"></polygon>
            <polygon id="Fill-6" fill="#4BC6F0" points="386 179.524392 340.5 153 295 179.524392 340.5 206"></polygon>
            <polygon id="Fill-7" fill="#FDDB07" points="183 106.449078 137 133 137 79.5509218 183 53"></polygon>
            <polygon id="Fill-8" fill="#4BC6F0" points="91 106.449078 137 133 137 79.5509218 91 53"></polygon>
            <polygon id="Fill-9" fill="#4BC6F0" points="182 53.5243922 136.5 27 91 53.5243922 136.5 80"></polygon>
            <polygon id="Fill-10" fill="#FFFFFF" points="92 1 46 27.551719 46 81 92 54.4494742"></polygon>
            <polygon id="Fill-11" fill="#4BC6F0" points="0 1 0 54.4494742 46 81 46 27.551719"></polygon>
            <polygon id="Fill-12" fill="#4BC6F0" points="183 351.449078 137 378 137 324.550922 183 298"></polygon>
            <polygon id="Fill-13" fill="#4BC6F0" points="182 298.524392 136.5 272 91 298.524392 136.5 325"></polygon>
            <polygon id="Fill-14" fill="#4BC6F0" points="138 377.449078 92 404 92 350.550922 138 324"></polygon>
            <polygon id="Fill-15" fill="#FFFFFF" points="47 377.449078 93 404 93 350.550922 47 324"></polygon>
            <polygon id="Fill-16" fill="#4BC6F0" points="138 324.524392 92.5 298 47 324.524392 92.5 351"></polygon>
            <polygon id="Fill-17" fill="#009FDA" points="228 200.838446 182 227 182 106.162726 228 80"></polygon>
            <polygon id="Fill-18" fill="#4BC6F0" points="137 200.838446 183 227 183 106.162726 137 80"></polygon>
            <polygon id="Fill-19" fill="#4BC6F0" points="228 79.5243266 182.5 53 137 79.5243266 182.5 106"></polygon>
            <polygon id="Fill-20" fill="#FFFFFF" points="433 260.449078 387 287 387 233.550922 433 207"></polygon>
            <polygon id="Fill-21" fill="#4BC6F0" points="343 260.449078 389 287 389 233.550922 343 207"></polygon>
            <polygon id="Fill-22" fill="#4BC6F0" points="434 205.524392 388.5 179 343 205.524392 388.5 232"></polygon>
            <polygon id="Fill-23" fill="#4BC6F0" points="446 325.449078 492 352 492 298.550922 446 272"></polygon>
            <g id="Group-45">
                <path d="M196.280168,291.568024 C196.04311,291.568024 195.816719,291.521956 195.604552,291.43927 C195.3912,291.344772 195.189701,291.213655 195.022575,291.049464 C194.691879,290.717539 194.502232,290.268672 194.502232,289.79618 C194.502232,289.3355 194.691879,288.876002 195.022575,288.544076 C195.438612,288.131827 196.054963,287.94283 196.635755,288.059772 C196.742431,288.084578 196.859775,288.118833 196.967636,288.166083 C197.074312,288.201519 197.169136,288.260581 197.275812,288.319642 C197.370635,288.391697 197.45242,288.46139 197.536576,288.544076 C197.619546,288.627943 197.689478,288.722442 197.761781,288.81694 C197.821045,288.910257 197.88031,289.017749 197.927721,289.12406 C197.96328,289.230371 197.997653,289.3355 198.022545,289.454804 C198.045065,289.572927 198.058103,289.678057 198.058103,289.79618 C198.058103,290.268672 197.88031,290.717539 197.536576,291.049464 C197.203509,291.380209 196.753099,291.568024 196.280168,291.568024" id="Fill-24" fill="#FEFEFE"></path>
                <path d="M292.857031,234.030322 C292.35921,233.179837 292.655532,232.093105 293.508941,231.596989 C294.350497,231.112684 295.44215,231.397361 295.926933,232.246665 C296.424755,233.09715 296.128433,234.185063 295.286877,234.668186 C295.003592,234.834739 294.694231,234.904432 294.397909,234.904432 C293.781558,234.904432 293.188913,234.597312 292.857031,234.030322 M273.228624,245.359497 C272.742655,244.50783 273.028309,243.432911 273.880533,242.936794 C274.733942,242.440678 275.812556,242.735985 276.310378,243.587652 C276.796347,244.426325 276.511878,245.513057 275.670322,245.997361 C275.385852,246.162733 275.077676,246.245419 274.769501,246.245419 C274.165003,246.245419 273.560505,245.925306 273.228624,245.359497 M253.613254,256.68749 C253.114247,255.848817 253.410569,254.762086 254.263978,254.265969 C255.105534,253.781665 256.196001,254.063979 256.693823,254.915646 C257.179792,255.754319 256.895323,256.84105 256.041914,257.335985 C255.757444,257.501358 255.449269,257.573413 255.152946,257.573413 C254.536595,257.573413 253.94395,257.253299 253.613254,256.68749 M233.995514,268.026115 C233.497692,267.176811 233.782161,266.090079 234.63557,265.604594 C235.490165,265.109659 236.567594,265.404966 237.066601,266.243639 C237.551385,267.092943 237.2681,268.179675 236.426544,268.663979 C236.140889,268.829351 235.833899,268.901406 235.524538,268.901406 C234.92004,268.901406 234.315542,268.594286 233.995514,268.026115 M214.367106,279.354108 C213.869284,278.515435 214.165606,277.428704 215.019015,276.932587 C215.860571,276.448283 216.951039,276.731778 217.44886,277.582264 C217.93483,278.420937 217.65036,279.507668 216.796951,280.004966 C216.512481,280.158526 216.204306,280.240031 215.907983,280.240031 C215.292817,280.240031 214.700172,279.92228 214.367106,279.354108" id="Fill-26" fill="#FEFEFE"></path>
                <path d="M314.015175,223.576911 C313.778117,223.576911 313.551727,223.529662 313.33956,223.446976 C313.126207,223.352477 312.924708,223.222542 312.757582,223.05717 C312.592827,222.891798 312.461259,222.702801 312.378289,222.49018 C312.284651,222.277558 312.23724,222.041312 312.23724,221.805066 C312.23724,221.686943 312.249093,221.56882 312.271613,221.46251 C312.296504,221.344387 312.332063,221.239257 312.378289,221.131765 C312.425701,221.025455 312.473112,220.919144 312.545415,220.824646 C312.60468,220.730147 312.674612,220.635649 312.757582,220.552963 C312.841738,220.470277 312.936561,220.399403 313.031384,220.328529 C313.126207,220.269468 313.232883,220.210406 313.33956,220.174969 C313.446236,220.12772 313.551727,220.092283 313.671441,220.068659 C313.895461,220.021409 314.133704,220.021409 314.358909,220.068659 C314.477438,220.092283 314.594782,220.12772 314.689605,220.174969 C314.80932,220.210406 314.904143,220.269468 314.998966,220.328529 C315.105642,220.399403 315.187427,220.470277 315.271583,220.552963 C315.354553,220.635649 315.424485,220.730147 315.496788,220.824646 C315.556053,220.919144 315.615317,221.025455 315.662729,221.131765 C315.698287,221.239257 315.732661,221.344387 315.757552,221.46251 C315.780072,221.56882 315.793111,221.686943 315.793111,221.805066 C315.793111,222.041312 315.745699,222.277558 315.662729,222.49018 C315.567905,222.702801 315.436338,222.891798 315.271583,223.05717 C315.105642,223.222542 314.915996,223.352477 314.702643,223.446976 C314.477438,223.529662 314.251048,223.576911 314.015175,223.576911" id="Fill-28" fill="#FEFEFE"></path>
                <path d="M294.243703,171.082587 C294.006645,171.082587 293.770772,171.036519 293.556234,170.953833 C293.342882,170.859335 293.141383,170.728218 292.976627,170.564028 C292.809501,170.398655 292.680305,170.209659 292.596149,169.984044 C292.501326,169.772604 292.453914,169.546989 292.453914,169.310743 C292.453914,168.850063 292.643561,168.390565 292.976627,168.058639 C293.058412,167.975953 293.153236,167.906261 293.248059,167.834206 C293.342882,167.775144 293.449558,167.716083 293.556234,167.668833 C293.664096,167.633396 293.770772,167.599141 293.888116,167.574335 C294.468908,167.457393 295.085259,167.64639 295.488257,168.058639 C295.820139,168.390565 296.009785,168.850063 296.009785,169.310743 C296.009785,169.783235 295.831992,170.232102 295.488257,170.564028 C295.157561,170.894772 294.707151,171.082587 294.243703,171.082587" id="Fill-30" fill="#FEFEFE"></path>
                <path d="M230.108354,134.323662 C229.266798,133.839358 228.970475,132.752626 229.468297,131.90096 C229.954266,131.062286 231.044733,130.766979 231.898142,131.263095 C232.739698,131.7474 233.036021,132.834131 232.538199,133.685798 C232.216985,134.251607 231.613673,134.57172 230.997322,134.57172 C230.700999,134.57172 230.391638,134.489034 230.108354,134.323662 M251.181631,146.502141 C250.340075,146.006024 250.05679,144.919293 250.541574,144.08062 C251.039396,143.230134 252.11801,142.946639 252.972604,143.430943 C253.826013,143.92706 254.110483,145.013791 253.612661,145.852464 C253.292633,146.418273 252.688135,146.738387 252.083637,146.738387 C251.774276,146.738387 251.467286,146.666332 251.181631,146.502141 M272.267946,158.667626 C271.415722,158.183322 271.130067,157.096591 271.627889,156.247286 C272.113858,155.408613 273.204325,155.113306 274.045881,155.609422 C274.900476,156.093727 275.18376,157.180458 274.698976,158.029762 C274.367095,158.597934 273.77445,158.915684 273.156913,158.915684 C272.849923,158.915684 272.541748,158.83418 272.267946,158.667626" id="Fill-32" fill="#FEFEFE"></path>
                <path d="M209.922504,122.392532 C209.448388,122.392532 209.008645,122.216529 208.664911,121.873972 C208.334215,121.542047 208.144568,121.09318 208.144568,120.620688 C208.144568,120.502565 208.156421,120.397435 208.180127,120.278131 C208.203833,120.160008 208.239392,120.054879 208.286803,119.948568 C208.334215,119.841076 208.381626,119.734765 208.452744,119.640267 C208.512008,119.545769 208.583126,119.45127 208.664911,119.368584 C209.080948,118.955154 209.697299,118.767338 210.278091,118.88428 C210.384767,118.907905 210.503296,118.943341 210.609972,118.990591 C210.716648,119.026028 210.823325,119.085089 210.918148,119.155963 C211.012971,119.216206 211.107794,119.285898 211.178912,119.368584 C211.510793,119.699328 211.712292,120.149377 211.712292,120.620688 C211.712292,121.09318 211.522646,121.542047 211.178912,121.873972 C210.84703,122.216529 210.408473,122.392532 209.922504,122.392532" id="Fill-34" fill="#FEFEFE"></path>
                <polygon id="Fill-36" fill="#4BC6F0" points="515.949533 283.767773 491.467361 297.904731 515.949533 312.016883"></polygon>
                <polygon id="Fill-38" fill="#4BC6F0" points="515.949533 312.016293 491.467361 297.905322 491.467361 350.816147 515.949533 364.927118"></polygon>
                <polygon id="Fill-40" fill="#4BC6F0" points="515.949533 259.402547 491.467361 245.265589 445.866872 271.597563 491.467361 297.881107 515.949533 283.768955"></polygon>
                <g id="Group-44">
                    <mask id="mask-2" fill="white">
                        <use xlink:href="#path-1"></use>
                    </mask>
                    <g id="Clip-43"></g>
                    <polygon id="Fill-42" fill="#4BC6F0" mask="url(#mask-2)" points="45.6004897 26.8006861 91.2009794 0.517142395 0 0.517142395"></polygon>
                </g>
            </g>
        </g>
    </g>
</svg>