<svg width="180" height="80" viewBox="0 0 180 80" fill="none" xmlns="http://www.w3.org/2000/svg">
<path fill-rule="evenodd" clip-rule="evenodd" d="M0 10C0 4.47716 4.47715 0 10 0H170C175.523 0 180 4.47715 180 10V69.7459C180 75.2687 175.523 79.7459 170 79.7459H10C4.47716 79.7459 0 75.2687 0 69.7459V10Z" fill="#F2F3F5"/>
<path d="M40 29.0967H43.1998L47.6057 42.9713H47.6549L52.1593 29.0967H55.2852L49.2794 46.6303H45.8581L40 29.0967Z" fill="#06377B"/>
<path d="M56.9613 29.0967H59.7673V31.7488H56.9613V29.0967ZM56.9613 33.9344H59.7673V46.6303H56.9613V33.9344Z" fill="#06377B"/>
<path d="M62.8246 33.9344H65.4583V36.3901H65.5075C65.5896 36.0463 65.7455 35.7107 65.9752 35.3832C66.2213 35.0558 66.5085 34.7611 66.8367 34.4992C67.1813 34.2209 67.5587 33.9999 67.9689 33.8362C68.3791 33.6724 68.7976 33.5906 69.2242 33.5906C69.5524 33.5906 69.7739 33.5988 69.8888 33.6151C70.0201 33.6315 70.1513 33.6479 70.2826 33.6643V36.3655C70.0857 36.3328 69.8806 36.3082 69.6673 36.2919C69.4704 36.2591 69.2734 36.2427 69.0765 36.2427C68.6007 36.2427 68.1494 36.341 67.7228 36.5374C67.3125 36.7175 66.9515 36.9958 66.6398 37.3724C66.328 37.7325 66.0818 38.1827 65.9013 38.723C65.7208 39.2632 65.6306 39.8854 65.6306 40.5893V46.6303H62.8246V33.9344Z" fill="#06377B"/>
<path d="M82.6526 46.6303H79.8959V44.8622H79.8467C79.5021 45.5007 78.9852 46.0164 78.296 46.4093C77.6232 46.7859 76.934 46.9741 76.2284 46.9741C74.5547 46.9741 73.3404 46.5648 72.5856 45.7463C71.8471 44.9113 71.4779 43.6589 71.4779 41.9891V33.9344H74.2839V41.7189C74.2839 42.8322 74.4972 43.618 74.9239 44.0764C75.3505 44.5348 75.9495 44.764 76.7207 44.764C77.3114 44.764 77.8037 44.674 78.1975 44.4939C78.5914 44.3138 78.9113 44.0764 79.1575 43.7817C79.4036 43.4707 79.5759 43.1023 79.6744 42.6767C79.7892 42.251 79.8467 41.7926 79.8467 41.3015V33.9344H82.6526V46.6303Z" fill="#06377B"/>
<path d="M87.7285 42.5539C87.8105 43.3724 88.1223 43.9454 88.6638 44.2729C89.2053 44.6003 89.8535 44.764 90.6083 44.764C90.8709 44.764 91.1662 44.7476 91.4944 44.7149C91.839 44.6658 92.159 44.5839 92.4544 44.4693C92.7497 44.3547 92.9877 44.191 93.1682 43.9782C93.3651 43.749 93.4553 43.4543 93.4389 43.0941C93.4225 42.734 93.2912 42.4393 93.0451 42.2101C92.799 41.9809 92.479 41.8008 92.0852 41.6698C91.7078 41.5225 91.2729 41.3997 90.7806 41.3015C90.2883 41.2032 89.7879 41.0968 89.2792 40.9822C88.7541 40.8676 88.2454 40.7285 87.7531 40.5648C87.2772 40.4011 86.8424 40.18 86.4486 39.9017C86.0712 39.6234 85.7676 39.2714 85.5379 38.8458C85.3081 38.4038 85.1933 37.8635 85.1933 37.225C85.1933 36.5374 85.3574 35.9644 85.6855 35.506C86.0301 35.0313 86.4568 34.6547 86.9655 34.3764C87.4906 34.0817 88.0649 33.8771 88.6884 33.7625C89.3284 33.6479 89.9356 33.5906 90.5099 33.5906C91.1662 33.5906 91.7898 33.6643 92.3805 33.8116C92.9877 33.9426 93.5292 34.1636 94.0051 34.4746C94.4973 34.7857 94.8994 35.195 95.2111 35.7025C95.5393 36.1936 95.7444 36.7912 95.8265 37.4951H92.8974C92.7661 36.8239 92.4544 36.3737 91.9621 36.1445C91.4862 35.9153 90.9365 35.8007 90.313 35.8007C90.116 35.8007 89.8781 35.8171 89.5992 35.8498C89.3366 35.8826 89.0823 35.9481 88.8361 36.0463C88.6064 36.1281 88.4095 36.2591 88.2454 36.4392C88.0813 36.6029 87.9993 36.8239 87.9993 37.1022C87.9993 37.446 88.1141 37.7243 88.3438 37.9372C88.59 38.15 88.9018 38.3301 89.2792 38.4774C89.673 38.6084 90.1161 38.723 90.6083 38.8212C91.1006 38.9194 91.6093 39.0259 92.1344 39.1405C92.6431 39.2551 93.1436 39.3942 93.6358 39.5579C94.1281 39.7216 94.563 39.9427 94.9404 40.221C95.3342 40.4993 95.646 40.8513 95.8757 41.2769C96.1218 41.7026 96.2449 42.2265 96.2449 42.8486C96.2449 43.6016 96.0726 44.2401 95.728 44.764C95.3834 45.2879 94.9322 45.7135 94.3743 46.041C93.8328 46.3684 93.2256 46.6058 92.5528 46.7531C91.88 46.9005 91.2155 46.9741 90.5591 46.9741C89.755 46.9741 89.0084 46.8841 88.3192 46.704C87.6465 46.5239 87.0557 46.2538 86.547 45.8936C86.0548 45.5171 85.6609 45.0587 85.3656 44.5184C85.0866 43.9618 84.9389 43.307 84.9225 42.5539H87.7285Z" fill="#06377B"/>
<path d="M100.788 40.7858C100.788 41.457 100.902 42.03 101.132 42.5048C101.362 42.9795 101.682 43.3724 102.092 43.6835C102.502 43.9782 102.97 44.1992 103.495 44.3465C104.037 44.4775 104.619 44.543 105.243 44.543C105.915 44.543 106.49 44.4693 106.966 44.322C107.441 44.1583 107.827 43.9536 108.122 43.7081C108.418 43.4625 108.631 43.1842 108.762 42.8731C108.894 42.5457 108.959 42.2183 108.959 41.8908C108.959 41.2196 108.803 40.7285 108.492 40.4174C108.196 40.09 107.868 39.8608 107.507 39.7298C106.884 39.5006 106.153 39.2878 105.316 39.0913C104.496 38.8785 103.479 38.6084 102.264 38.281C101.51 38.0845 100.878 37.8308 100.369 37.5197C99.8768 37.1923 99.483 36.8321 99.1876 36.4392C98.8923 36.0463 98.6789 35.6288 98.5477 35.1868C98.4328 34.7448 98.3754 34.2946 98.3754 33.8362C98.3754 32.9521 98.5559 32.1908 98.9169 31.5524C99.2943 30.8975 99.7866 30.3573 100.394 29.9316C101.001 29.5059 101.69 29.1949 102.461 28.9984C103.233 28.7856 104.012 28.6792 104.8 28.6792C105.719 28.6792 106.58 28.802 107.384 29.0476C108.205 29.2768 108.918 29.6287 109.525 30.1035C110.149 30.5783 110.641 31.1676 111.002 31.8716C111.363 32.5592 111.544 33.3614 111.544 34.2782H108.467C108.385 33.1486 107.999 32.3546 107.31 31.8962C106.621 31.4214 105.743 31.184 104.677 31.184C104.316 31.184 103.946 31.2249 103.569 31.3068C103.191 31.3723 102.847 31.4951 102.535 31.6751C102.223 31.8389 101.961 32.0681 101.747 32.3627C101.551 32.6574 101.452 33.0258 101.452 33.4678C101.452 34.0899 101.641 34.5811 102.018 34.9412C102.412 35.285 102.921 35.547 103.544 35.727C103.61 35.7434 103.864 35.8171 104.307 35.9481C104.767 36.0627 105.275 36.1936 105.833 36.341C106.391 36.4883 106.933 36.6357 107.458 36.783C107.999 36.914 108.385 37.0122 108.615 37.0777C109.189 37.2578 109.69 37.5033 110.116 37.8144C110.543 38.1254 110.896 38.4856 111.175 38.8949C111.47 39.2878 111.683 39.7135 111.815 40.1719C111.962 40.6302 112.036 41.0886 112.036 41.547C112.036 42.5293 111.831 43.3724 111.421 44.0764C111.027 44.764 110.502 45.3288 109.845 45.7708C109.189 46.2129 108.442 46.5321 107.606 46.7286C106.769 46.9414 105.915 47.0478 105.046 47.0478C104.045 47.0478 103.101 46.925 102.215 46.6794C101.329 46.4339 100.558 46.0573 99.9014 45.5498C99.2451 45.0423 98.72 44.3956 98.3261 43.6098C97.9323 42.8076 97.7272 41.8663 97.7108 40.7858H100.788Z" fill="#06377B"/>
<path d="M123.074 39.165C123.041 38.723 122.943 38.2973 122.779 37.8881C122.631 37.4788 122.418 37.1268 122.139 36.8321C121.876 36.5211 121.548 36.2755 121.154 36.0954C120.777 35.8989 120.35 35.8007 119.874 35.8007C119.382 35.8007 118.931 35.8908 118.52 36.0708C118.126 36.2346 117.782 36.4719 117.487 36.783C117.208 37.0777 116.978 37.4297 116.797 37.8389C116.633 38.2482 116.543 38.6903 116.527 39.165H123.074ZM116.527 41.0068C116.527 41.4979 116.592 41.9727 116.724 42.4311C116.871 42.8895 117.085 43.2906 117.363 43.6344C117.642 43.9782 117.995 44.2565 118.422 44.4693C118.849 44.6658 119.357 44.764 119.948 44.764C120.768 44.764 121.425 44.5921 121.917 44.2483C122.426 43.8881 122.803 43.3561 123.049 42.6521H125.708C125.56 43.3397 125.306 43.9536 124.945 44.4939C124.584 45.0341 124.149 45.4925 123.64 45.8691C123.131 46.2292 122.557 46.4994 121.917 46.6794C121.293 46.8759 120.637 46.9741 119.948 46.9741C118.947 46.9741 118.061 46.8104 117.29 46.483C116.518 46.1556 115.862 45.6972 115.321 45.1078C114.795 44.5184 114.393 43.8145 114.114 42.9959C113.852 42.1773 113.721 41.2769 113.721 40.2946C113.721 39.3942 113.86 38.5429 114.139 37.7407C114.434 36.9222 114.845 36.21 115.37 35.6043C115.911 34.9822 116.559 34.491 117.314 34.1308C118.069 33.7707 118.922 33.5906 119.874 33.5906C120.875 33.5906 121.769 33.8034 122.557 34.2291C123.361 34.6384 124.026 35.1868 124.551 35.8744C125.076 36.562 125.453 37.356 125.683 38.2564C125.929 39.1405 125.995 40.0573 125.88 41.0068H116.527Z" fill="#06377B"/>
<path d="M140 51.3207H137.194V44.985H137.145C136.915 45.3288 136.644 45.6317 136.333 45.8936C136.021 46.1392 135.676 46.3438 135.299 46.5075C134.921 46.6713 134.528 46.7859 134.117 46.8513C133.707 46.9332 133.297 46.9741 132.887 46.9741C131.951 46.9741 131.139 46.794 130.45 46.4339C129.761 46.0573 129.186 45.5662 128.727 44.9605C128.284 44.3383 127.947 43.6262 127.718 42.824C127.504 42.0218 127.398 41.1951 127.398 40.3438C127.398 39.4106 127.521 38.5347 127.767 37.7162C128.013 36.8976 128.382 36.1854 128.875 35.5797C129.367 34.9576 129.982 34.4746 130.721 34.1308C131.475 33.7707 132.353 33.5906 133.354 33.5906C134.175 33.5906 134.938 33.7543 135.643 34.0817C136.349 34.3928 136.899 34.9167 137.292 35.6534H137.342V33.9344H140V51.3207ZM130.204 40.2946C130.204 40.8513 130.261 41.3997 130.376 41.94C130.507 42.4638 130.712 42.9386 130.991 43.3643C131.287 43.7735 131.656 44.1092 132.099 44.3711C132.542 44.633 133.083 44.764 133.723 44.764C134.938 44.764 135.832 44.3547 136.406 43.5362C136.997 42.7012 137.292 41.6207 137.292 40.2946C137.292 38.9031 136.989 37.8062 136.382 37.004C135.791 36.2018 134.905 35.8007 133.723 35.8007C133.149 35.8007 132.64 35.9317 132.197 36.1936C131.754 36.4392 131.385 36.7748 131.09 37.2005C130.794 37.6097 130.573 38.0845 130.425 38.6248C130.278 39.165 130.204 39.7216 130.204 40.2946Z" fill="#06377B"/>
</svg>
