<svg width="100" height="24" viewBox="0 0 100 24" fill="none" xmlns="http://www.w3.org/2000/svg">
<path d="M0 1.09667H3.19981L7.6057 14.9713H7.65493L12.1593 1.09667H15.2852L9.27945 18.6303H5.85811L0 1.09667Z" fill="#06377B"/>
<path d="M16.9613 1.09667H19.7673V3.74882H16.9613V1.09667ZM16.9613 5.93439H19.7673V18.6303H16.9613V5.93439Z" fill="#06377B"/>
<path d="M22.8246 5.93439H25.4583V8.39008H25.5075C25.5896 8.04628 25.7455 7.71067 25.9752 7.38325C26.2213 7.05582 26.5085 6.76114 26.8367 6.4992C27.1813 6.22088 27.5587 5.99987 27.9689 5.83616C28.3791 5.67245 28.7976 5.59059 29.2242 5.59059C29.5524 5.59059 29.7739 5.59878 29.8888 5.61515C30.0201 5.63152 30.1513 5.64789 30.2826 5.66426V8.36553C30.0857 8.33278 29.8806 8.30823 29.6673 8.29185C29.4704 8.25911 29.2734 8.24274 29.0765 8.24274C28.6007 8.24274 28.1494 8.34097 27.7228 8.53742C27.3125 8.71751 26.9515 8.99582 26.6398 9.37236C26.328 9.73253 26.0818 10.1827 25.9013 10.723C25.7208 11.2632 25.6306 11.8854 25.6306 12.5893V18.6303H22.8246V5.93439Z" fill="#06377B"/>
<path d="M42.6526 18.6303H39.8959V16.8622H39.8467C39.5021 17.5007 38.9852 18.0164 38.296 18.4093C37.6232 18.7859 36.934 18.9741 36.2284 18.9741C34.5547 18.9741 33.3404 18.5648 32.5856 17.7463C31.8471 16.9113 31.4779 15.6589 31.4779 13.9891V5.93439H34.2839V13.7189C34.2839 14.8322 34.4972 15.618 34.9239 16.0764C35.3505 16.5348 35.9495 16.764 36.7207 16.764C37.3114 16.764 37.8037 16.674 38.1975 16.4939C38.5914 16.3138 38.9113 16.0764 39.1575 15.7817C39.4036 15.4707 39.5759 15.1023 39.6744 14.6767C39.7892 14.251 39.8467 13.7926 39.8467 13.3015V5.93439H42.6526V18.6303Z" fill="#06377B"/>
<path d="M47.7285 14.5539C47.8105 15.3724 48.1223 15.9454 48.6638 16.2729C49.2053 16.6003 49.8535 16.764 50.6083 16.764C50.8709 16.764 51.1662 16.7476 51.4944 16.7149C51.839 16.6658 52.159 16.5839 52.4544 16.4693C52.7497 16.3547 52.9877 16.191 53.1682 15.9782C53.3651 15.749 53.4553 15.4543 53.4389 15.0941C53.4225 14.734 53.2912 14.4393 53.0451 14.2101C52.799 13.9809 52.479 13.8008 52.0852 13.6698C51.7078 13.5225 51.2729 13.3997 50.7806 13.3015C50.2883 13.2032 49.7879 13.0968 49.2792 12.9822C48.7541 12.8676 48.2454 12.7285 47.7531 12.5648C47.2772 12.4011 46.8424 12.18 46.4486 11.9017C46.0712 11.6234 45.7676 11.2714 45.5379 10.8458C45.3081 10.4038 45.1933 9.8635 45.1933 9.22502C45.1933 8.53742 45.3574 7.96443 45.6855 7.50603C46.0301 7.03126 46.4568 6.65472 46.9655 6.37641C47.4906 6.08173 48.0649 5.87709 48.6884 5.76249C49.3284 5.64789 49.9356 5.59059 50.5099 5.59059C51.1662 5.59059 51.7898 5.66426 52.3805 5.8116C52.9877 5.94257 53.5292 6.16359 54.0051 6.47464C54.4973 6.78569 54.8994 7.19498 55.2111 7.70249C55.5393 8.19363 55.7444 8.79118 55.8265 9.49515H52.8974C52.7661 8.82392 52.4544 8.37371 51.9621 8.14451C51.4862 7.91531 50.9365 7.80072 50.313 7.80072C50.116 7.80072 49.8781 7.81709 49.5992 7.84983C49.3366 7.88257 49.0823 7.94806 48.8361 8.04629C48.6064 8.12814 48.4095 8.25911 48.2454 8.4392C48.0813 8.60291 47.9993 8.82392 47.9993 9.10223C47.9993 9.44603 48.1141 9.72434 48.3438 9.93717C48.59 10.15 48.9018 10.3301 49.2792 10.4774C49.673 10.6084 50.1161 10.723 50.6083 10.8212C51.1006 10.9194 51.6093 11.0259 52.1344 11.1405C52.6431 11.2551 53.1436 11.3942 53.6358 11.5579C54.1281 11.7216 54.563 11.9427 54.9404 12.221C55.3342 12.4993 55.646 12.8513 55.8757 13.2769C56.1218 13.7026 56.2449 14.2265 56.2449 14.8486C56.2449 15.6016 56.0726 16.2401 55.728 16.764C55.3834 17.2879 54.9322 17.7135 54.3743 18.041C53.8328 18.3684 53.2256 18.6058 52.5528 18.7531C51.88 18.9005 51.2155 18.9741 50.5591 18.9741C49.755 18.9741 49.0084 18.8841 48.3192 18.704C47.6465 18.5239 47.0557 18.2538 46.547 17.8936C46.0548 17.5171 45.6609 17.0587 45.3656 16.5184C45.0866 15.9618 44.9389 15.307 44.9225 14.5539H47.7285Z" fill="#06377B"/>
<path d="M60.7875 12.7858C60.7875 13.457 60.9024 14.03 61.1321 14.5048C61.3619 14.9795 61.6818 15.3724 62.0921 15.6835C62.5023 15.9782 62.97 16.1992 63.4951 16.3465C64.0366 16.4775 64.6191 16.543 65.2426 16.543C65.9154 16.543 66.4898 16.4693 66.9656 16.322C67.4415 16.1583 67.8271 15.9536 68.1225 15.7081C68.4178 15.4625 68.6312 15.1842 68.7624 14.8731C68.8937 14.5457 68.9594 14.2183 68.9594 13.8908C68.9594 13.2196 68.8035 12.7285 68.4917 12.4174C68.1963 12.09 67.8681 11.8608 67.5071 11.7298C66.8836 11.5006 66.1534 11.2878 65.3165 11.0913C64.496 10.8785 63.4787 10.6084 62.2644 10.281C61.5095 10.0845 60.8778 9.83076 60.3691 9.5197C59.8768 9.19228 59.483 8.83211 59.1876 8.4392C58.8923 8.04629 58.6789 7.62882 58.5477 7.18679C58.4328 6.74477 58.3754 6.29456 58.3754 5.83616C58.3754 4.95211 58.5559 4.19084 58.9169 3.55236C59.2943 2.89751 59.7866 2.35726 60.3937 1.9316C61.0009 1.50595 61.69 1.19489 62.4613 0.998438C63.2325 0.785612 64.012 0.679199 64.7996 0.679199C65.7185 0.679199 66.58 0.801984 67.3841 1.04755C68.2045 1.27675 68.9183 1.62873 69.5255 2.1035C70.149 2.57827 70.6413 3.16764 71.0023 3.8716C71.3633 4.5592 71.5438 5.36139 71.5438 6.27818H68.4671C68.385 5.14856 67.9994 4.35456 67.3102 3.89616C66.621 3.42139 65.7431 3.18401 64.6765 3.18401C64.3155 3.18401 63.9463 3.22494 63.5689 3.30679C63.1915 3.37228 62.8469 3.49506 62.5351 3.67515C62.2233 3.83886 61.9608 4.06806 61.7475 4.36274C61.5506 4.65743 61.4521 5.02578 61.4521 5.4678C61.4521 6.08991 61.6408 6.58105 62.0182 6.94122C62.412 7.28502 62.9207 7.54696 63.5443 7.72704C63.6099 7.74342 63.8643 7.81709 64.3073 7.94806C64.7668 8.06266 65.2755 8.19363 65.8334 8.34097C66.3913 8.48831 66.9328 8.63565 67.4579 8.78299C67.9994 8.91396 68.385 9.01219 68.6148 9.07768C69.1891 9.25776 69.6896 9.50333 70.1162 9.81439C70.5428 10.1254 70.8956 10.4856 71.1746 10.8949C71.47 11.2878 71.6833 11.7135 71.8146 12.1719C71.9622 12.6302 72.0361 13.0886 72.0361 13.547C72.0361 14.5293 71.831 15.3724 71.4207 16.0764C71.0269 16.764 70.5018 17.3288 69.8455 17.7708C69.1891 18.2129 68.4425 18.5321 67.6056 18.7286C66.7687 18.9414 65.9154 19.0478 65.0457 19.0478C64.0448 19.0478 63.1012 18.925 62.2151 18.6794C61.329 18.4339 60.5578 18.0573 59.9014 17.5498C59.2451 17.0423 58.72 16.3956 58.3261 15.6098C57.9323 14.8076 57.7272 13.8663 57.7108 12.7858H60.7875Z" fill="#06377B"/>
<path d="M83.0739 11.165C83.0411 10.723 82.9426 10.2973 82.7785 9.88806C82.6308 9.47877 82.4175 9.12679 82.1386 8.83211C81.876 8.52105 81.5478 8.27548 81.154 8.0954C80.7766 7.89894 80.35 7.80072 79.8741 7.80072C79.3818 7.80072 78.9306 7.89076 78.5203 8.07084C78.1265 8.23456 77.7819 8.47194 77.4865 8.78299C77.2076 9.07768 76.9778 9.42966 76.7973 9.83894C76.6333 10.2482 76.543 10.6903 76.5266 11.165H83.0739ZM76.5266 13.0068C76.5266 13.4979 76.5922 13.9727 76.7235 14.4311C76.8712 14.8895 77.0845 15.2906 77.3635 15.6344C77.6424 15.9782 77.9952 16.2565 78.4219 16.4693C78.8485 16.6658 79.3572 16.764 79.9479 16.764C80.7684 16.764 81.4248 16.5921 81.917 16.2483C82.4257 15.8881 82.8031 15.3561 83.0493 14.6521H85.7076C85.5599 15.3397 85.3056 15.9536 84.9445 16.4939C84.5835 17.0341 84.1487 17.4925 83.64 17.8691C83.1313 18.2292 82.557 18.4994 81.917 18.6794C81.2935 18.8759 80.6371 18.9741 79.9479 18.9741C78.947 18.9741 78.0609 18.8104 77.2896 18.483C76.5184 18.1556 75.862 17.6972 75.3205 17.1078C74.7954 16.5184 74.3934 15.8145 74.1144 14.9959C73.8519 14.1773 73.7206 13.2769 73.7206 12.2946C73.7206 11.3942 73.8601 10.5429 74.139 9.74072C74.4344 8.92215 74.8446 8.21 75.3697 7.60426C75.9112 6.98215 76.5594 6.49101 77.3142 6.13084C78.0691 5.77067 78.9223 5.59059 79.8741 5.59059C80.8751 5.59059 81.7694 5.80342 82.557 6.22907C83.3611 6.63835 84.0256 7.18679 84.5507 7.87439C85.0758 8.56198 85.4532 9.35599 85.683 10.2564C85.9291 11.1405 85.9947 12.0573 85.8799 13.0068H76.5266Z" fill="#06377B"/>
<path d="M100 23.3207H97.194V16.985H97.1448C96.9151 17.3288 96.6443 17.6317 96.3325 17.8936C96.0207 18.1392 95.6762 18.3438 95.2987 18.5075C94.9213 18.6713 94.5275 18.7859 94.1173 18.8513C93.707 18.9332 93.2968 18.9741 92.8866 18.9741C91.9512 18.9741 91.139 18.794 90.4498 18.4339C89.7606 18.0573 89.1863 17.5662 88.7268 16.9605C88.2838 16.3383 87.9474 15.6262 87.7177 14.824C87.5043 14.0218 87.3977 13.1951 87.3977 12.3438C87.3977 11.4106 87.5207 10.5347 87.7669 9.71616C88.013 8.89759 88.3822 8.18544 88.8745 7.5797C89.3668 6.95759 89.9821 6.47464 90.7206 6.13084C91.4754 5.77067 92.3533 5.59059 93.3542 5.59059C94.1747 5.59059 94.9377 5.7543 95.6433 6.08173C96.3489 6.39278 96.8986 6.91667 97.2925 7.65337H97.3417V5.93439H100V23.3207ZM90.2037 12.2946C90.2037 12.8513 90.2611 13.3997 90.376 13.94C90.5072 14.4638 90.7123 14.9386 90.9913 15.3643C91.2867 15.7735 91.6559 16.1092 92.0989 16.3711C92.542 16.633 93.0835 16.764 93.7235 16.764C94.9377 16.764 95.832 16.3547 96.4064 15.5362C96.9971 14.7012 97.2925 13.6207 97.2925 12.2946C97.2925 10.9031 96.9889 9.8062 96.3818 9.00401C95.791 8.20181 94.9049 7.80072 93.7235 7.80072C93.1491 7.80072 92.6404 7.93169 92.1974 8.19363C91.7543 8.4392 91.3851 8.77481 91.0898 9.20046C90.7944 9.60974 90.5729 10.0845 90.4252 10.6248C90.2775 11.165 90.2037 11.7216 90.2037 12.2946Z" fill="#06377B"/>
</svg>
