<?xml version="1.0" encoding="UTF-8"?>
<svg width="224px" height="187px" viewBox="0 0 224 187" version="1.1" xmlns="http://www.w3.org/2000/svg" xmlns:xlink="http://www.w3.org/1999/xlink">
    <!-- Generator: Sketch 49.3 (51167) - http://www.bohemiancoding.com/sketch -->
    <title>Group</title>
    <desc>Created with Sketch.</desc>
    <defs>
        <polygon id="path-1" points="43.1448837 0.188999372 43.1448837 32.085378 0.491641362 32.085378 0.491641362 0.188999372 43.1448837 0.188999372"></polygon>
        <polygon id="path-3" points="43.1448837 0.188999372 43.1448837 32.085378 0.491641362 32.085378 0.491641362 0.188999372 43.1448837 0.188999372"></polygon>
    </defs>
    <g id="final" stroke="none" stroke-width="1" fill="none" fill-rule="evenodd">
        <g id="Homepage-NEW" transform="translate(-449.000000, -1682.000000)">
            <g id="Group-7" transform="translate(1.000000, 1285.000000)">
                <g id="Group-4" transform="translate(101.000000, 84.000000)">
                    <g id="Group" transform="translate(347.000000, 313.000000)">
                        <g id="Page-1" transform="translate(0.000000, 113.000000)">
                            <g id="Group-3" transform="translate(21.162791, 10.284037)">
                                <mask id="mask-2" fill="white">
                                    <use xlink:href="#path-1"></use>
                                </mask>
                                <g id="Clip-2"></g>
                                <path d="M2.3749186,31.5652286 C1.1399186,31.3538 0.31305814,30.1803714 0.524686047,28.9480449 C0.737825581,27.7157184 1.89875581,26.9138 3.14433721,27.1010653 C11.2360814,28.4904531 19.3807326,26.6555551 26.0848023,21.9255959 C32.7903837,17.1956367 37.249686,10.1399633 38.6418953,2.05886122 C38.8565465,0.826534694 40.0265465,0.0427387755 41.2615465,0.211881633 C42.4965465,0.423310204 43.3249186,1.59522857 43.1117791,2.8275551 C41.5139884,12.1017184 36.3956163,20.1979224 28.6999186,25.6271061 C21.4698023,30.7270653 12.7749186,32.8972286 4.04980233,31.812902 C3.4905,31.7434327 2.9327093,31.6603714 2.3749186,31.5652286 Z" id="Fill-1" fill="#003055" mask="url(#mask-2)"></path>
                            </g>
                            <path d="M29.0302093,73.7126082 L28.2955581,41.7521592 C28.275907,40.9049347 28.1806744,40.0758327 28.015907,39.2724041 C27.0363721,34.491098 22.515093,31.2592612 17.6310233,31.3725265 L10.3842791,31.538649 C5.5002093,31.6504041 1.13160465,35.0861184 0.372767442,39.9066898 C0.24427907,40.7161592 0.186837209,41.5482816 0.206488372,42.3970163 L0.941139535,73.7126082" id="Fill-4" fill="#009FDA"></path>
                            <path d="M3.12166279,42.8515878 C2.97503488,42.8802816 2.8299186,42.9074653 2.6832907,42.9361592 C1.45282558,43.1642 0.267709302,42.3532204 0.0394534884,41.1224041 C-0.190313953,39.8915878 0.618406977,38.7226898 1.85340698,38.4810571 C9.88015116,36.9995469 16.9228256,32.4281592 21.5665465,25.6684857 C26.2087558,18.907302 27.9395698,10.7416286 26.4355,2.68015918 C26.2072442,1.44934286 27.032593,0.200404082 28.2509651,0.0388122449 C29.4814302,-0.189228571 30.6665465,0.62175102 30.8948023,1.85105714 C32.6195698,11.1025673 30.6348023,20.4703633 25.306314,28.2297918 C20.0624767,35.8684041 12.1959651,41.0484041 3.12166279,42.8515878" id="Fill-6" fill="#003055"></path>
                            <path d="M15.299186,26.4208694 L13.8102326,26.4208694 C10.3002326,26.4208694 7.45534884,23.5786653 7.45534884,20.0719714 L7.45534884,11.5423388 C7.45534884,8.0371551 10.3002326,5.19344082 13.8102326,5.19344082 L15.299186,5.19344082 C18.809186,5.19344082 21.6540698,8.0371551 21.6540698,11.5423388 L21.6540698,20.0719714 C21.6540698,23.5786653 18.809186,26.4208694 15.299186,26.4208694" id="Fill-8" fill="#009FDA"></path>
                        </g>
                        <g id="Page-1-Copy" transform="translate(113.000000, 118.000000)">
                            <path d="M8.85804184,41.1143433 C8.71141393,41.1430371 8.56629766,41.1702208 8.41966975,41.1989147 C7.18920463,41.4269555 6.00408835,40.6159759 5.77583254,39.3851596 C5.5460651,38.1543433 6.35478603,36.9854453 7.58978603,36.7438127 C15.6165302,35.2623024 22.6592046,30.6909147 27.3029256,23.9312412 C31.9451349,17.1700575 33.6759488,9.00438408 32.1718791,0.942914691 C31.9436232,-0.287901636 32.7689721,-1.53684041 33.9873442,-1.69843225 C35.2178093,-1.92647306 36.4029256,-1.11549347 36.6311814,0.11381265 C38.3559488,9.36532285 36.3711814,18.7331188 31.042693,26.4925473 C25.7988558,34.1311596 17.9323442,39.3111596 8.85804184,41.1143433" id="Fill-6" fill="#003055" transform="translate(21.487073, 19.750240) rotate(-270.000000) translate(-21.487073, -19.750240) "></path>
                            <path d="M69.0302093,68.7126082 L68.2955581,36.7521592 C68.275907,35.9049347 68.1806744,35.0758327 68.015907,34.2724041 C67.0363721,29.491098 62.515093,26.2592612 57.6310233,26.3725265 L50.3842791,26.538649 C45.5002093,26.6504041 41.1316047,30.0861184 40.3727674,34.9066898 C40.2442791,35.7161592 40.1868372,36.5482816 40.2064884,37.3970163 L40.9411395,68.7126082" id="Fill-4" fill="#009FDA"></path>
                            <path d="M53.8102326,21.4208694 C50.3002326,21.4208694 47.4553488,18.5786653 47.4553488,15.0719714 L47.4553488,6.54233878 C47.4553488,3.0371551 50.3002326,0.193440816 53.8102326,0.193440816 L55.299186,0.193440816 C58.809186,0.193440816 61.6540698,3.0371551 61.6540698,6.54233878 L61.6540698,15.0719714 C61.6540698,18.5786653 58.809186,21.4208694 55.299186,21.4208694 L53.8102326,21.4208694 Z" id="Fill-8" fill="#009FDA"></path>
                            <g id="Group-3" transform="translate(87.735477, 40.312944) rotate(-121.000000) translate(-87.735477, -40.312944) translate(65.735477, 23.812944)">
                                <mask id="mask-4" fill="white">
                                    <use xlink:href="#path-3"></use>
                                </mask>
                                <g id="Clip-2"></g>
                                <path d="M2.3749186,31.5652286 C1.1399186,31.3538 0.31305814,30.1803714 0.524686047,28.9480449 C0.737825581,27.7157184 1.89875581,26.9138 3.14433721,27.1010653 C11.2360814,28.4904531 19.3807326,26.6555551 26.0848023,21.9255959 C32.7903837,17.1956367 37.249686,10.1399633 38.6418953,2.05886122 C38.8565465,0.826534694 40.0265465,0.0427387755 41.2615465,0.211881633 C42.4965465,0.423310204 43.3249186,1.59522857 43.1117791,2.8275551 C41.5139884,12.1017184 36.3956163,20.1979224 28.6999186,25.6271061 C21.4698023,30.7270653 12.7749186,32.8972286 4.04980233,31.812902 C3.4905,31.7434327 2.9327093,31.6603714 2.3749186,31.5652286 Z" id="Fill-1" fill="#003055" mask="url(#mask-4)"></path>
                            </g>
                        </g>
                        <g id="Page-1" transform="translate(32.000000, 0.000000)">
                            <polygon id="Fill-1" fill="#FEFEFE" points="0 114.458185 50 143 50 85.5418152 0 57"></polygon>
                            <polygon id="Fill-2" fill="#4BC6F0" points="97.6084211 0 49.4506367 27.7936171 0 56.26625 49.3928628 84.7197017 49.3928628 142 97.6084211 114.224285 147 85.7861787 147 28.5058804"></polygon>
                            <path d="" id="Path-3" stroke="#979797"></path>
                        </g>
                    </g>
                </g>
            </g>
        </g>
    </g>
</svg>