<svg width="679" height="484" viewBox="0 0 679 484" fill="none" xmlns="http://www.w3.org/2000/svg">
<path fill-rule="evenodd" clip-rule="evenodd" d="M633.798 307.738L528.137 308.159L528.328 356.145C527.327 360.732 529.215 365.863 533.98 368.389L575.395 390.352C578.651 392.078 582.55 392.08 585.808 390.357L627.948 368.062C631.778 366.035 633.748 362.334 633.864 358.583L634.001 358.583L633.798 307.738Z" fill="#4BC6F0"/>
<path d="M533.777 317.545C525.93 313.384 525.885 302.157 533.699 297.934L574.938 275.642C578.18 273.89 582.079 273.857 585.35 275.554L627.667 297.513C635.63 301.646 635.676 313.021 627.745 317.217L585.605 339.512C582.348 341.235 578.448 341.234 575.193 339.507L533.777 317.545Z" fill="#4BC6F0"/>
<path fill-rule="evenodd" clip-rule="evenodd" d="M580.438 307.951L633.799 307.739L634.002 358.583L633.865 358.584C633.749 362.335 631.779 366.036 627.949 368.062L585.809 390.357C584.13 391.245 582.282 391.675 580.438 391.647V307.951Z" fill="#4BC6F0"/>
<path d="M533.785 317.545C525.938 313.384 525.893 302.157 533.706 297.934L574.946 275.642C578.188 273.89 582.087 273.857 585.358 275.554L627.675 297.513C635.638 301.646 635.683 313.021 627.753 317.217L585.613 339.512C582.355 341.235 578.456 341.234 575.2 339.507L533.785 317.545Z" fill="#4BC6F0"/>
<path fill-rule="evenodd" clip-rule="evenodd" d="M674.158 329.554L568.496 329.975L568.688 377.961C567.687 382.548 569.575 387.679 574.339 390.206L615.755 412.168C619.01 413.895 622.91 413.896 626.167 412.173L668.308 389.878C672.138 387.851 674.107 384.15 674.223 380.399L674.36 380.399L674.158 329.554Z" fill="#4BC6F0"/>
<path d="M574.136 339.361C566.289 335.2 566.245 323.973 574.058 319.75L615.298 297.458C618.539 295.706 622.438 295.673 625.709 297.37L668.026 319.329C675.99 323.462 676.035 334.837 668.105 339.033L625.964 361.328C622.707 363.051 618.808 363.05 615.552 361.323L574.136 339.361Z" fill="#4BC6F0"/>
<path fill-rule="evenodd" clip-rule="evenodd" d="M620.798 329.767L674.159 329.555L674.361 380.399L674.224 380.4C674.108 384.151 672.138 387.852 668.309 389.878L626.168 412.173C624.49 413.061 622.641 413.491 620.798 413.463V329.767Z" fill="#4BC6F0"/>
<path d="M574.144 339.361C566.297 335.2 566.253 323.973 574.066 319.75L615.305 297.458C618.547 295.706 622.446 295.673 625.717 297.37L668.034 319.329C675.997 323.462 676.043 334.837 668.113 339.033L625.972 361.328C622.715 363.051 618.815 363.05 615.56 361.323L574.144 339.361Z" fill="#4BC6F0"/>
<path fill-rule="evenodd" clip-rule="evenodd" d="M224.748 371.005L119.086 371.425L119.277 419.411C118.277 423.998 120.164 429.129 124.929 431.656L166.345 453.618C169.6 455.345 173.5 455.347 176.757 453.623L218.897 431.328C222.727 429.302 224.697 425.601 224.813 421.85L224.95 421.849L224.748 371.005Z" fill="white"/>
<path d="M124.726 380.811C116.879 376.65 116.835 365.424 124.648 361.2L165.887 338.908C169.129 337.156 173.028 337.123 176.299 338.82L218.616 360.779C226.579 364.912 226.625 376.287 218.695 380.483L176.554 402.778C173.297 404.502 169.397 404.5 166.142 402.773L124.726 380.811Z" fill="#4BC6F0"/>
<path fill-rule="evenodd" clip-rule="evenodd" d="M171.388 371.217L224.749 371.005L224.951 421.849L224.814 421.85C224.698 425.601 222.728 429.302 218.898 431.328L176.758 453.623C175.08 454.511 173.231 454.941 171.388 454.913V371.217Z" fill="#4BC6F0"/>
<path d="M124.734 380.811C116.887 376.65 116.842 365.424 124.656 361.2L165.895 338.908C169.137 337.156 173.036 337.123 176.307 338.82L218.624 360.779C226.587 364.912 226.633 376.287 218.702 380.483L176.562 402.778C173.305 404.502 169.405 404.5 166.15 402.773L124.734 380.811Z" fill="#4BC6F0"/>
<path fill-rule="evenodd" clip-rule="evenodd" d="M178.933 395.002L73.2718 395.423L73.463 443.409C72.4621 447.996 74.35 453.127 79.1144 455.653L120.53 477.616C123.786 479.342 127.685 479.344 130.942 477.621L173.083 455.325C176.913 453.299 178.883 449.598 178.999 445.847L179.136 445.847L178.933 395.002Z" fill="white"/>
<path d="M78.9115 404.808C71.0649 400.647 71.0202 389.421 78.8334 385.198L120.073 362.906C123.315 361.154 127.214 361.121 130.485 362.818L172.802 384.777C180.765 388.909 180.81 400.285 172.88 404.481L130.74 426.776C127.482 428.499 123.583 428.497 120.327 426.771L78.9115 404.808Z" fill="#4BC6F0"/>
<path fill-rule="evenodd" clip-rule="evenodd" d="M125.573 395.215L178.934 395.002L179.137 445.847L178.999 445.847C178.884 449.598 176.914 453.299 173.084 455.326L130.943 477.621C129.265 478.509 127.416 478.939 125.573 478.911V395.215Z" fill="#4BC6F0"/>
<path d="M78.9193 404.808C71.0727 400.647 71.028 389.421 78.8412 385.198L120.081 362.906C123.322 361.154 127.222 361.121 130.493 362.818L172.809 384.777C180.773 388.909 180.818 400.285 172.888 404.481L130.747 426.776C127.49 428.499 123.591 428.497 120.335 426.771L78.9193 404.808Z" fill="#4BC6F0"/>
<rect width="64.8527" height="68.598" rx="10" transform="matrix(-0.87462 -0.48481 0 1 129.236 415.402)" fill="white"/>
<mask id="mask0_1159_12594" style="mask-type:alpha" maskUnits="userSpaceOnUse" x="0" y="0" width="138" height="105">
<rect width="137.441" height="104.717" transform="matrix(-1 0 0 1 137.965 0)" fill="#D9D9D9"/>
</mask>
<g mask="url(#mask0_1159_12594)">
<path fill-rule="evenodd" clip-rule="evenodd" d="M133.028 14.4436L25.1408 14.8734L25.336 63.87C24.314 68.5535 26.2417 73.7929 31.1064 76.3726L73.3948 98.7978C76.719 100.561 80.7005 100.563 84.0263 98.8029L127.055 76.0378C130.965 73.9688 132.977 70.1899 133.095 66.3599L133.235 66.3594L133.028 14.4436Z" fill="#4BC6F0"/>
<path d="M30.9011 24.4566C22.8892 20.2079 22.8435 8.7452 30.8213 4.43284L72.9297 -18.3286C76.2398 -20.1178 80.2211 -20.1514 83.5609 -18.4184L126.769 4.00319C134.9 8.22259 134.947 19.8378 126.849 24.1218L83.821 46.8869C80.4952 48.6465 76.5137 48.6446 73.1895 46.8818L30.9011 24.4566Z" fill="#4BC6F0"/>
<path fill-rule="evenodd" clip-rule="evenodd" d="M78.5423 14.661L133.028 14.444L133.234 66.3597L133.094 66.3602C132.976 70.1902 130.965 73.9691 127.054 76.0381L84.0257 98.8032C82.3121 99.7099 80.4244 100.149 78.5423 100.12V14.661Z" fill="white"/>
<path d="M30.9011 24.4566C22.8892 20.2079 22.8435 8.7452 30.8213 4.43284L72.9297 -18.3286C76.2398 -20.1178 80.2211 -20.1514 83.5609 -18.4184L126.769 4.00319C134.9 8.22259 134.947 19.8378 126.849 24.1218L83.821 46.8869C80.4952 48.6465 76.5137 48.6446 73.1895 46.8818L30.9011 24.4566Z" fill="#4BC6F0"/>
</g>
<rect width="68.5942" height="69.2957" rx="10" transform="matrix(0.87462 -0.48481 0 1 73.6074 35.4208)" fill="white"/>
<path fill-rule="evenodd" clip-rule="evenodd" d="M465.722 367.862L357.834 368.292L358.029 417.288C357.007 421.972 358.935 427.211 363.8 429.791L406.088 452.216C409.412 453.979 413.394 453.981 416.72 452.221L458.659 428.138C462.569 426.069 464.54 422.696 464.658 418.866L464.658 418.321L465.722 367.862Z" fill="#4BC6F0"/>
<path d="M363.594 377.875C355.583 373.626 355.537 362.164 363.515 357.851L405.623 335.09C408.933 333.301 412.914 333.267 416.254 335L459.463 357.422C467.594 361.641 467.64 373.256 459.543 377.54L416.514 400.305C413.189 402.065 409.207 402.063 405.883 400.3L363.594 377.875Z" fill="#4BC6F0"/>
<path d="M407.393 399.341C407.393 393.818 411.308 387.171 416.139 384.493L457.549 361.539C462.38 358.861 466.296 361.168 466.296 366.691V416.845C466.296 422.492 462.21 429.283 457.274 431.841L415.863 453.303C411.142 455.75 407.393 453.404 407.393 448.004V399.341Z" fill="#009FDA"/>
<path fill-rule="evenodd" clip-rule="evenodd" d="M465.722 312.231L357.834 312.661L358.029 361.658C357.007 366.341 358.935 371.581 363.8 374.16L406.088 396.586C409.412 398.348 413.394 398.35 416.72 396.591L458.659 372.507C462.569 370.438 464.54 367.066 464.658 363.236L464.658 362.69L465.722 312.231Z" fill="#4BC6F0"/>
<path d="M363.594 322.244C355.583 317.996 355.537 306.533 363.515 302.221L405.623 279.459C408.933 277.67 412.914 277.636 416.254 279.369L459.463 301.791C467.594 306.01 467.64 317.626 459.543 321.91L416.514 344.675C413.189 346.434 409.207 346.432 405.883 344.67L363.594 322.244Z" fill="#4BC6F0"/>
<path d="M407.393 343.711C407.393 338.188 411.308 331.54 416.139 328.863L457.549 305.908C462.38 303.231 466.296 305.537 466.296 311.06V361.215C466.296 366.861 462.21 373.652 457.274 376.211L415.863 397.673C411.142 400.119 407.393 397.773 407.393 392.373V343.711Z" fill="#009FDA"/>
<path fill-rule="evenodd" clip-rule="evenodd" d="M465.722 260.964L357.834 261.394L358.029 310.39C357.007 315.074 358.935 320.313 363.8 322.893L406.088 345.318C409.412 347.081 413.394 347.083 416.72 345.323L458.659 321.24C462.569 319.171 464.54 315.798 464.658 311.968L464.658 311.423L465.722 260.964Z" fill="#4BC6F0"/>
<path d="M363.594 270.977C355.583 266.728 355.537 255.266 363.515 250.953L405.623 228.192C408.933 226.403 412.914 226.369 416.254 228.102L459.463 250.524C467.594 254.743 467.64 266.358 459.543 270.642L416.514 293.407C413.189 295.167 409.207 295.165 405.883 293.402L363.594 270.977Z" fill="#4BC6F0"/>
<path d="M407.393 292.443C407.393 286.92 411.308 280.273 416.139 277.595L457.549 254.641C462.38 251.963 466.296 254.27 466.296 259.793V309.947C466.296 315.593 462.21 322.385 457.274 324.943L415.863 346.405C411.142 348.852 407.393 346.506 407.393 341.106V292.443Z" fill="#009FDA"/>
<path fill-rule="evenodd" clip-rule="evenodd" d="M465.722 205.333L357.834 205.763L358.029 254.76C357.007 259.443 358.935 264.683 363.8 267.262L406.088 289.688C409.412 291.45 413.394 291.452 416.72 289.693L458.659 265.609C462.569 263.54 464.54 260.168 464.658 256.338L464.658 255.792L465.722 205.333Z" fill="#4BC6F0"/>
<path d="M363.594 215.346C355.583 211.098 355.537 199.635 363.515 195.323L405.623 172.561C408.933 170.772 412.914 170.738 416.254 172.471L459.463 194.893C467.594 199.112 467.64 210.728 459.543 215.012L416.514 237.777C413.189 239.536 409.207 239.534 405.883 237.772L363.594 215.346Z" fill="#4BC6F0"/>
<path d="M407.393 236.813C407.393 231.29 411.308 224.642 416.139 221.965L457.549 199.01C462.38 196.333 466.296 198.639 466.296 204.162V254.317C466.296 259.963 462.21 266.754 457.274 269.312L415.863 290.775C411.142 293.221 407.393 290.875 407.393 285.475V236.813Z" fill="#009FDA"/>
<path fill-rule="evenodd" clip-rule="evenodd" d="M465.722 148.612L357.834 149.042L358.029 198.038C357.007 202.722 358.935 207.961 363.8 210.541L406.088 232.966C409.412 234.729 413.394 234.731 416.72 232.971L458.659 208.888C462.569 206.819 464.54 203.446 464.658 199.616L464.658 199.071L465.722 148.612Z" fill="#4BC6F0"/>
<path d="M363.594 158.625C355.583 154.376 355.537 142.913 363.515 138.601L405.623 115.84C408.933 114.05 412.914 114.017 416.254 115.75L459.463 138.171C467.594 142.391 467.64 154.006 459.543 158.29L416.514 181.055C413.189 182.815 409.207 182.813 405.883 181.05L363.594 158.625Z" fill="#4BC6F0"/>
<path d="M407.393 180.091C407.393 174.568 411.308 167.92 416.139 165.243L457.549 142.289C462.38 139.611 466.296 141.918 466.296 147.441V197.595C466.296 203.241 462.21 210.033 457.274 212.591L415.863 234.053C411.142 236.5 407.393 234.154 407.393 228.754V180.091Z" fill="#009FDA"/>
<rect width="15.2712" height="219.25" transform="matrix(-1 0 0 1 422.662 195.253)" fill="#009FDA"/>
<rect width="15.2712" height="219.25" transform="matrix(-1 0 0 1 466.295 187.617)" fill="#009FDA"/>
<path fill-rule="evenodd" clip-rule="evenodd" d="M547.53 190.062L439.643 190.492L439.838 239.488C438.816 244.172 440.744 249.411 445.608 251.991L487.897 274.416C491.221 276.179 495.202 276.181 498.528 274.421L541.557 251.656C545.467 249.587 547.478 245.808 547.597 241.978L547.737 241.978L547.53 190.062Z" fill="#4BC6F0"/>
<path d="M445.403 200.075C437.391 195.826 437.345 184.364 445.323 180.051L487.432 157.29C490.742 155.501 494.723 155.467 498.063 157.2L541.271 179.622C549.402 183.841 549.449 195.456 541.351 199.74L498.323 222.505C494.997 224.265 491.016 224.263 487.691 222.5L445.403 200.075Z" fill="#4BC6F0"/>
<path fill-rule="evenodd" clip-rule="evenodd" d="M493.044 190.28L547.53 190.062L547.736 241.978L547.596 241.979C547.478 245.809 545.467 249.588 541.556 251.657L498.528 274.422C496.814 275.328 494.926 275.767 493.044 275.739V190.28Z" fill="white"/>
<path d="M445.403 200.075C437.391 195.826 437.345 184.364 445.323 180.051L487.432 157.29C490.742 155.501 494.723 155.467 498.063 157.2L541.271 179.622C549.402 183.841 549.449 195.456 541.351 199.74L498.323 222.505C494.997 224.265 491.016 224.263 487.691 222.5L445.403 200.075Z" fill="#4BC6F0"/>
<rect width="68.5942" height="69.2957" rx="10" transform="matrix(0.87462 -0.48481 0 1 488.109 211.039)" fill="white"/>
<path fill-rule="evenodd" clip-rule="evenodd" d="M222.472 67.8926L114.584 68.3224L114.779 117.319C113.757 122.002 115.685 127.242 120.55 129.822L162.838 152.247C166.162 154.01 170.144 154.012 173.47 152.252L216.498 129.487C220.409 127.418 222.42 123.639 222.538 119.809L222.678 119.808L222.472 67.8926Z" fill="#4BC6F0"/>
<path d="M120.344 77.9056C112.333 73.6569 112.287 62.1942 120.265 57.8818L162.373 35.1204C165.683 33.3312 169.664 33.2975 173.004 35.0306L216.213 57.4522C224.344 61.6716 224.39 73.2867 216.293 77.5708L173.264 100.336C169.939 102.095 165.957 102.094 162.633 100.331L120.344 77.9056Z" fill="#4BC6F0"/>
<path fill-rule="evenodd" clip-rule="evenodd" d="M167.986 68.1101L222.471 67.8931L222.678 119.809L222.538 119.809C222.419 123.639 220.408 127.418 216.497 129.487L173.469 152.252C171.755 153.159 169.868 153.598 167.986 153.569V68.1101Z" fill="white"/>
<path d="M120.344 77.9057C112.333 73.657 112.287 62.1943 120.265 57.8819L162.373 35.1205C165.683 33.3313 169.664 33.2977 173.004 35.0307L216.213 57.4523C224.344 61.6717 224.39 73.2868 216.293 77.5709L173.264 100.336C169.939 102.096 165.957 102.094 162.633 100.331L120.344 77.9057Z" fill="#4BC6F0"/>
<rect width="68.5942" height="69.2957" rx="10" transform="matrix(0.87462 -0.48481 0 1 163.051 88.8699)" fill="white"/>
<path fill-rule="evenodd" clip-rule="evenodd" d="M269.376 148.612L161.488 149.042L161.684 198.038C160.662 202.722 162.589 207.961 167.454 210.541L209.742 232.966C213.067 234.729 217.048 234.731 220.374 232.971L262.313 208.888C266.224 206.819 268.194 203.446 268.312 199.616L268.312 199.071L269.376 148.612Z" fill="#4BC6F0"/>
<path d="M167.249 158.625C159.237 154.376 159.191 142.913 167.169 138.601L209.277 115.84C212.587 114.05 216.569 114.017 219.909 115.75L263.117 138.171C271.248 142.391 271.294 154.006 263.197 158.29L220.169 181.055C216.843 182.815 212.861 182.813 209.537 181.05L167.249 158.625Z" fill="#4BC6F0"/>
<path d="M211.045 180.091C211.045 174.568 214.961 167.92 219.791 165.243L261.202 142.289C266.032 139.611 269.948 141.918 269.948 147.441V197.595C269.948 203.241 265.862 210.033 260.926 212.591L219.516 234.053C214.795 236.5 211.045 234.154 211.045 228.754V180.091Z" fill="#009FDA"/>
<path fill-rule="evenodd" clip-rule="evenodd" d="M269.376 92.9812L161.488 93.411L161.684 142.408C160.662 147.091 162.589 152.33 167.454 154.91L209.742 177.335C213.067 179.098 217.048 179.1 220.374 177.341L262.313 153.257C266.224 151.188 268.194 147.815 268.312 143.985L268.312 143.44L269.376 92.9812Z" fill="#4BC6F0"/>
<path d="M167.249 102.994C159.237 98.7455 159.191 87.2828 167.169 82.9704L209.277 60.209C212.587 58.4198 216.569 58.3862 219.909 60.1192L263.117 82.5408C271.248 86.7602 271.294 98.3753 263.197 102.659L220.169 125.424C216.843 127.184 212.861 127.182 209.537 125.419L167.249 102.994Z" fill="#4BC6F0"/>
<path d="M211.045 124.46C211.045 118.938 214.961 112.29 219.791 109.612L261.202 86.658C266.032 83.9805 269.948 86.2871 269.948 91.8099V141.964C269.948 147.611 265.862 154.402 260.926 156.96L219.516 178.423C214.795 180.869 211.045 178.523 211.045 173.123V124.46Z" fill="#009FDA"/>
<rect width="15.2712" height="81.8098" transform="matrix(-1 0 0 1 226.318 135.259)" fill="#009FDA"/>
<rect width="15.2712" height="81.8098" transform="matrix(-1 0 0 1 269.949 119.988)" fill="#009FDA"/>
<path fill-rule="evenodd" clip-rule="evenodd" d="M229.789 359.911C229.506 359.911 229.235 359.856 228.982 359.757C228.727 359.645 228.487 359.488 228.287 359.292C227.892 358.896 227.666 358.36 227.666 357.797C227.666 357.247 227.892 356.698 228.287 356.302C228.784 355.81 229.52 355.585 230.213 355.724C230.341 355.754 230.481 355.795 230.61 355.851C230.737 355.894 230.85 355.964 230.978 356.035C231.091 356.121 231.188 356.204 231.289 356.302C231.388 356.402 231.472 356.515 231.558 356.628C231.629 356.739 231.699 356.868 231.756 356.994C231.798 357.121 231.839 357.247 231.869 357.389C231.896 357.53 231.912 357.656 231.912 357.797C231.912 358.36 231.699 358.896 231.289 359.292C230.891 359.687 230.354 359.911 229.789 359.911Z" fill="#04518C"/>
<path fill-rule="evenodd" clip-rule="evenodd" d="M345.101 291.25C344.507 290.235 344.861 288.938 345.88 288.346C346.885 287.768 348.188 288.108 348.767 289.121C349.361 290.136 349.007 291.434 348.003 292.011C347.664 292.21 347.295 292.293 346.941 292.293C346.205 292.293 345.498 291.926 345.101 291.25ZM321.663 304.769C321.083 303.753 321.424 302.47 322.441 301.878C323.46 301.286 324.748 301.638 325.343 302.655C325.923 303.655 325.583 304.952 324.578 305.53C324.239 305.728 323.871 305.826 323.503 305.826C322.781 305.826 322.059 305.444 321.663 304.769ZM298.245 318.287C297.649 317.286 298.003 315.989 299.022 315.397C300.027 314.82 301.329 315.156 301.923 316.173C302.503 317.174 302.164 318.47 301.145 319.061C300.805 319.258 300.437 319.344 300.083 319.344C299.347 319.344 298.64 318.962 298.245 318.287ZM274.82 331.818C274.225 330.804 274.565 329.508 275.584 328.928C276.604 328.338 277.891 328.69 278.487 329.691C279.065 330.704 278.727 332.001 277.722 332.579C277.381 332.777 277.015 332.862 276.645 332.862C275.924 332.862 275.202 332.496 274.82 331.818ZM251.385 345.336C250.79 344.335 251.144 343.038 252.163 342.446C253.168 341.868 254.47 342.207 255.064 343.221C255.644 344.222 255.305 345.519 254.286 346.113C253.946 346.296 253.578 346.393 253.224 346.393C252.49 346.393 251.782 346.014 251.385 345.336Z" fill="#04518C"/>
<path fill-rule="evenodd" clip-rule="evenodd" d="M370.363 278.775C370.08 278.775 369.81 278.719 369.556 278.62C369.302 278.508 369.061 278.353 368.862 278.155C368.665 277.958 368.508 277.732 368.409 277.479C368.297 277.225 368.24 276.943 368.24 276.661C368.24 276.52 368.254 276.379 368.281 276.252C368.311 276.111 368.353 275.986 368.409 275.858C368.465 275.731 368.522 275.604 368.608 275.491C368.679 275.378 368.762 275.266 368.862 275.167C368.962 275.068 369.075 274.984 369.188 274.899C369.302 274.829 369.429 274.758 369.556 274.716C369.684 274.659 369.81 274.617 369.953 274.589C370.22 274.533 370.505 274.533 370.773 274.589C370.915 274.617 371.055 274.659 371.168 274.716C371.311 274.758 371.424 274.829 371.538 274.899C371.665 274.984 371.763 275.068 371.863 275.167C371.962 275.266 372.046 275.378 372.132 275.491C372.203 275.604 372.274 275.731 372.33 275.858C372.373 275.986 372.414 276.111 372.443 276.252C372.47 276.379 372.486 276.52 372.486 276.661C372.486 276.943 372.429 277.225 372.33 277.479C372.217 277.732 372.06 277.958 371.863 278.155C371.665 278.353 371.439 278.508 371.184 278.62C370.915 278.719 370.645 278.775 370.363 278.775Z" fill="#04518C"/>
<path fill-rule="evenodd" clip-rule="evenodd" d="M346.756 216.133C346.473 216.133 346.191 216.078 345.935 215.979C345.681 215.866 345.44 215.71 345.243 215.514C345.044 215.316 344.889 215.091 344.789 214.822C344.676 214.569 344.619 214.3 344.619 214.018C344.619 213.468 344.846 212.92 345.243 212.524C345.341 212.425 345.454 212.342 345.567 212.256C345.681 212.186 345.808 212.115 345.935 212.059C346.064 212.017 346.191 211.976 346.332 211.946C347.025 211.807 347.761 212.032 348.242 212.524C348.638 212.92 348.865 213.468 348.865 214.018C348.865 214.582 348.652 215.118 348.242 215.514C347.847 215.908 347.309 216.133 346.756 216.133Z" fill="#04518C"/>
<path fill-rule="evenodd" clip-rule="evenodd" d="M270.181 172.267C269.176 171.689 268.822 170.393 269.416 169.376C269.997 168.375 271.299 168.023 272.317 168.615C273.322 169.193 273.676 170.49 273.082 171.506C272.698 172.181 271.978 172.563 271.242 172.563C270.888 172.563 270.519 172.465 270.181 172.267ZM295.342 186.8C294.337 186.208 293.999 184.911 294.577 183.911C295.172 182.896 296.46 182.557 297.48 183.135C298.499 183.727 298.839 185.024 298.244 186.025C297.862 186.7 297.14 187.082 296.419 187.082C296.049 187.082 295.683 186.996 295.342 186.8ZM320.517 201.318C319.5 200.74 319.159 199.443 319.753 198.429C320.333 197.428 321.635 197.076 322.64 197.668C323.66 198.246 323.999 199.543 323.42 200.556C323.024 201.234 322.316 201.614 321.579 201.614C321.212 201.614 320.844 201.516 320.517 201.318Z" fill="#04518C"/>
<path fill-rule="evenodd" clip-rule="evenodd" d="M246.08 158.03C245.514 158.03 244.989 157.82 244.578 157.411C244.183 157.015 243.957 156.479 243.957 155.915C243.957 155.774 243.971 155.649 243.999 155.507C244.028 155.366 244.07 155.24 244.127 155.113C244.183 154.985 244.24 154.858 244.325 154.745C244.396 154.633 244.481 154.52 244.578 154.421C245.075 153.928 245.811 153.704 246.504 153.843C246.632 153.872 246.773 153.914 246.901 153.97C247.028 154.012 247.155 154.083 247.269 154.168C247.382 154.239 247.495 154.323 247.58 154.421C247.976 154.816 248.217 155.353 248.217 155.915C248.217 156.479 247.99 157.015 247.58 157.411C247.184 157.82 246.66 158.03 246.08 158.03Z" fill="#04518C"/>
</svg>
