<svg width="479" height="480" viewBox="0 0 479 480" fill="none" xmlns="http://www.w3.org/2000/svg">
<circle cx="239.5" cy="239.558" r="239.5" fill="#DFECF2"/>
<g filter="url(#filter0_d_1167_5133)">
<rect x="49" y="52.9927" width="293.222" height="384.963" rx="10" fill="white"/>
</g>
<path fill-rule="evenodd" clip-rule="evenodd" d="M268.254 384.537C265.492 384.537 263.254 386.776 263.254 389.537V450.955C263.254 452.747 265.441 452.675 266.327 451.118L279.224 428.451C279.608 427.777 280.579 427.777 280.962 428.451L293.859 451.118C294.745 452.674 296.931 452.746 296.931 450.955V389.537C296.931 386.776 294.692 384.537 291.931 384.537H268.254Z" fill="#F2D021"/>
<circle cx="280.094" cy="384.537" r="32.5157" fill="#F2D021"/>
<g opacity="0.1">
<path fill-rule="evenodd" clip-rule="evenodd" d="M167.514 176.902L238.878 177.186L238.749 209.596C239.425 212.694 238.15 216.16 234.932 217.866L206.96 232.7C204.761 233.866 202.127 233.867 199.927 232.703L171.465 217.645C168.879 216.276 167.548 213.776 167.47 211.243L167.377 211.243L167.514 176.902Z" fill="#009FDA"/>
<path d="M235.07 183.525C240.37 180.715 240.4 173.133 235.123 170.28L207.27 155.224C205.08 154.041 202.447 154.019 200.238 155.165L171.657 169.996C166.278 172.787 166.248 180.47 171.604 183.304L200.066 198.362C202.266 199.526 204.899 199.525 207.098 198.359L235.07 183.525Z" fill="#4BC6F0"/>
<path fill-rule="evenodd" clip-rule="evenodd" d="M203.554 177.046L167.512 176.902L167.375 211.243L167.468 211.243C167.546 213.777 168.876 216.276 171.463 217.645L199.925 232.703C201.059 233.303 202.309 233.594 203.554 233.574V177.046Z" fill="#F2D021"/>
<path d="M235.067 183.525C240.366 180.715 240.396 173.133 235.119 170.28L207.266 155.224C205.076 154.041 202.443 154.019 200.234 155.165L171.653 169.996C166.274 172.787 166.244 180.47 171.6 183.304L200.062 198.362C202.262 199.526 204.895 199.525 207.094 198.359L235.067 183.525Z" fill="#4BC6F0"/>
<path fill-rule="evenodd" clip-rule="evenodd" d="M181.928 213.471V222.884L192.107 228.723V207.397L181.928 213.471Z" fill="#D1B534"/>
<path fill-rule="evenodd" clip-rule="evenodd" d="M226.29 212.53V221.943L216.111 227.781V206.456L226.29 212.53Z" fill="#178DBC"/>
<path fill-rule="evenodd" clip-rule="evenodd" d="M183.161 196.852C186.903 194.65 191.723 195.893 193.929 199.629C196.135 203.364 194.89 208.178 191.148 210.38L157.66 230.09C153.918 232.292 149.097 231.049 146.891 227.314C144.686 223.578 145.931 218.765 149.673 216.563L183.161 196.852Z" fill="#E2E2E2"/>
<path fill-rule="evenodd" clip-rule="evenodd" d="M261.674 217.69C265.453 219.828 266.779 224.619 264.638 228.392C262.496 232.165 257.698 233.49 253.919 231.351L220.099 212.213C216.321 210.075 214.993 205.283 217.135 201.51C219.277 197.738 224.076 196.413 227.854 198.551L261.674 217.69Z" fill="#E2E2E2"/>
<path fill-rule="evenodd" clip-rule="evenodd" d="M230.926 224.068L302.29 224.352L302.161 256.762C302.837 259.86 301.562 263.325 298.344 265.032L270.372 279.865C268.173 281.031 265.539 281.033 263.339 279.869L234.878 264.81C232.291 263.442 230.96 260.942 230.882 258.409L230.79 258.408L230.926 224.068Z" fill="#009FDA"/>
<path d="M298.483 230.691C303.782 227.881 303.812 220.299 298.535 217.446L270.682 202.39C268.492 201.207 265.859 201.184 263.65 202.331L235.069 217.162C229.69 219.953 229.66 227.636 235.016 230.47L263.478 245.528C265.678 246.692 268.311 246.691 270.51 245.525L298.483 230.691Z" fill="#4BC6F0"/>
<path fill-rule="evenodd" clip-rule="evenodd" d="M266.964 224.211L230.924 224.068L230.787 258.408L230.88 258.409C230.958 260.942 232.288 263.442 234.875 264.81L263.337 279.869C264.471 280.469 265.719 280.759 266.964 280.74V224.211Z" fill="#F2D021"/>
<path d="M298.479 230.691C303.778 227.881 303.808 220.298 298.531 217.446L270.678 202.39C268.489 201.207 265.855 201.184 263.646 202.331L235.065 217.162C229.686 219.953 229.656 227.636 235.012 230.47L263.474 245.528C265.674 246.692 268.307 246.691 270.506 245.525L298.479 230.691Z" fill="#4BC6F0"/>
<path d="M233.949 243.626H243.382V269.305L234.473 264.589L233.949 243.626Z" fill="#D1B534"/>
<path fill-rule="evenodd" clip-rule="evenodd" d="M89.4302 221.448L160.794 221.732L160.665 254.142C161.341 257.24 160.066 260.705 156.848 262.412L128.876 277.245C126.677 278.411 124.043 278.413 121.843 277.249L93.3815 262.19C90.7947 260.822 89.4644 258.322 89.3861 255.789L89.2934 255.788L89.4302 221.448Z" fill="#009FDA"/>
<path d="M156.985 228.071C162.284 225.261 162.314 217.678 157.037 214.826L129.184 199.77C126.994 198.586 124.361 198.564 122.152 199.711L93.5708 214.542C88.1923 217.333 88.1617 225.016 93.5178 227.85L121.98 242.908C124.18 244.072 126.813 244.071 129.012 242.905L156.985 228.071Z" fill="#4BC6F0"/>
<path fill-rule="evenodd" clip-rule="evenodd" d="M125.47 221.591L89.4317 221.448L89.2949 255.788L89.3876 255.789C89.4659 258.322 90.7962 260.822 93.383 262.19L121.845 277.249C122.978 277.848 124.226 278.139 125.47 278.12V221.591Z" fill="#F2D021"/>
<path d="M156.983 228.071C162.282 225.261 162.312 217.678 157.035 214.826L129.182 199.77C126.992 198.586 124.359 198.564 122.15 199.711L93.5688 214.542C88.1903 217.333 88.1597 225.016 93.5158 227.85L121.978 242.908C124.178 244.072 126.811 244.071 129.01 242.905L156.983 228.071Z" fill="#4BC6F0"/>
<path fill-rule="evenodd" clip-rule="evenodd" d="M148.841 256.775V266.188L138.662 272.027V250.702L148.841 256.775Z" fill="#178DBC"/>
<path fill-rule="evenodd" clip-rule="evenodd" d="M184.061 261.056C187.873 263.133 189.278 267.902 187.198 271.709C185.118 275.516 180.342 276.918 176.529 274.842L142.402 256.254C138.59 254.177 137.185 249.408 139.265 245.601C141.345 241.794 146.121 240.392 149.934 242.468L184.061 261.056Z" fill="#E2E2E2"/>
<path fill-rule="evenodd" clip-rule="evenodd" d="M231.651 236.857C235.447 234.749 240.234 236.114 242.344 239.904C244.455 243.694 243.088 248.474 239.292 250.581L205.316 269.44C201.52 271.547 196.731 270.183 194.621 266.392C192.511 262.602 193.877 257.822 197.673 255.715L231.651 236.857Z" fill="#E2E2E2"/>
<path fill-rule="evenodd" clip-rule="evenodd" d="M155.985 272.282L227.349 272.566L227.22 304.976C227.896 308.074 226.621 311.539 223.403 313.246L195.43 328.079C193.232 329.245 190.598 329.247 188.398 328.083L159.936 313.024C157.349 311.656 156.019 309.156 155.941 306.623L155.848 306.622L155.985 272.282Z" fill="#009FDA"/>
<path d="M223.539 278.905C228.839 276.095 228.869 268.512 223.592 265.66L195.739 250.604C193.549 249.42 190.916 249.398 188.706 250.545L160.125 265.376C154.747 268.167 154.716 275.85 160.072 278.684L188.534 293.742C190.734 294.906 193.368 294.905 195.567 293.739L223.539 278.905Z" fill="#4BC6F0"/>
<path fill-rule="evenodd" clip-rule="evenodd" d="M192.027 272.425L155.984 272.282L155.848 306.622L155.94 306.623C156.019 309.156 157.349 311.656 159.936 313.024L188.398 328.083C189.532 328.683 190.781 328.973 192.027 328.954V272.425Z" fill="#F2D021"/>
<path d="M223.537 278.905C228.837 276.095 228.867 268.512 223.59 265.66L195.737 250.604C193.547 249.42 190.914 249.398 188.704 250.544L160.124 265.376C154.745 268.167 154.714 275.85 160.07 278.683L188.532 293.742C190.732 294.906 193.366 294.905 195.565 293.738L223.537 278.905Z" fill="#4BC6F0"/>
</g>
<rect x="122.742" y="142.992" width="191.611" height="2.90319" rx="1.45159" fill="#D9D9D9"/>
<rect x="122.742" y="150.54" width="191.611" height="2.90319" rx="1.45159" fill="#D9D9D9"/>
<rect x="72.2246" y="158.088" width="242.126" height="2.90319" rx="1.45159" fill="#D9D9D9"/>
<rect x="72.2246" y="165.636" width="242.126" height="2.90319" rx="1.45159" fill="#D9D9D9"/>
<rect x="72.2246" y="173.185" width="146.901" height="2.90319" rx="1.45159" fill="#D9D9D9"/>
<rect x="72.2246" y="192.346" width="242.126" height="2.90319" rx="1.45159" fill="#D9D9D9"/>
<rect x="72.2246" y="199.894" width="242.126" height="2.90319" rx="1.45159" fill="#D9D9D9"/>
<rect x="72.2246" y="207.442" width="242.126" height="2.90319" rx="1.45159" fill="#D9D9D9"/>
<rect x="72.2246" y="214.991" width="242.126" height="2.90319" rx="1.45159" fill="#D9D9D9"/>
<rect x="72.2246" y="222.539" width="83.6119" height="2.90319" rx="1.45159" fill="#D9D9D9"/>
<rect x="72.2246" y="241.7" width="242.126" height="2.90319" rx="1.45159" fill="#D9D9D9"/>
<rect x="72.2246" y="249.248" width="242.126" height="2.90319" rx="1.45159" fill="#D9D9D9"/>
<rect x="72.2246" y="256.797" width="242.126" height="2.90319" rx="1.45159" fill="#D9D9D9"/>
<rect x="72.2246" y="264.345" width="242.126" height="2.90319" rx="1.45159" fill="#D9D9D9"/>
<rect x="72.2246" y="271.893" width="242.126" height="2.90319" rx="1.45159" fill="#D9D9D9"/>
<rect x="72.2246" y="279.442" width="242.126" height="2.90319" rx="1.45159" fill="#D9D9D9"/>
<rect x="72.2246" y="286.99" width="146.901" height="2.90319" rx="1.45159" fill="#D9D9D9"/>
<rect x="72.2246" y="306.151" width="242.126" height="2.90319" rx="1.45159" fill="#D9D9D9"/>
<rect x="72.2246" y="313.699" width="242.126" height="2.90319" rx="1.45159" fill="#D9D9D9"/>
<rect x="72.2246" y="321.247" width="242.126" height="2.90319" rx="1.45159" fill="#D9D9D9"/>
<rect x="72.2246" y="328.796" width="242.126" height="2.90319" rx="1.45159" fill="#D9D9D9"/>
<rect x="72.2246" y="336.344" width="83.6119" height="2.90319" rx="1.45159" fill="#D9D9D9"/>
<path d="M99.4586 152.83H96.2346C95.8729 152.83 95.5733 152.743 95.3356 152.567C95.1083 152.381 94.9429 152.154 94.8396 151.885L93.1656 147.312H83.8811L82.2071 151.885C82.1244 152.123 81.9591 152.34 81.7111 152.536C81.4734 152.732 81.1789 152.83 80.8276 152.83H77.5881L86.3921 130.417H90.6546L99.4586 152.83ZM84.9506 144.367H92.0961L89.3681 136.912C89.2441 136.581 89.1046 136.194 88.9496 135.749C88.8049 135.295 88.6603 134.804 88.5156 134.277C88.3709 134.804 88.2263 135.295 88.0816 135.749C87.9473 136.204 87.8129 136.602 87.6786 136.943L84.9506 144.367ZM114.012 152.83H112.291C111.93 152.83 111.646 152.779 111.439 152.675C111.232 152.562 111.077 152.34 110.974 152.009L110.633 150.877C110.23 151.239 109.832 151.559 109.439 151.838C109.057 152.107 108.659 152.334 108.246 152.52C107.833 152.706 107.393 152.846 106.928 152.939C106.463 153.032 105.947 153.078 105.378 153.078C104.707 153.078 104.087 152.991 103.518 152.815C102.95 152.629 102.459 152.355 102.046 151.993C101.643 151.632 101.328 151.182 101.1 150.645C100.873 150.108 100.759 149.482 100.759 148.769C100.759 148.17 100.914 147.581 101.224 147.002C101.545 146.413 102.072 145.886 102.805 145.421C103.539 144.946 104.516 144.553 105.735 144.243C106.954 143.933 108.468 143.758 110.276 143.716V142.786C110.276 141.722 110.049 140.937 109.594 140.43C109.15 139.914 108.499 139.655 107.641 139.655C107.021 139.655 106.505 139.728 106.091 139.872C105.678 140.017 105.316 140.182 105.006 140.368C104.707 140.544 104.428 140.704 104.169 140.849C103.911 140.994 103.627 141.066 103.317 141.066C103.059 141.066 102.836 140.999 102.65 140.864C102.464 140.73 102.315 140.565 102.201 140.368L101.503 139.144C103.332 137.47 105.539 136.633 108.122 136.633C109.052 136.633 109.879 136.788 110.602 137.098C111.336 137.398 111.956 137.821 112.462 138.369C112.968 138.906 113.351 139.552 113.609 140.306C113.878 141.061 114.012 141.887 114.012 142.786V152.83ZM106.572 150.443C106.965 150.443 107.326 150.407 107.657 150.335C107.988 150.263 108.298 150.154 108.587 150.009C108.887 149.865 109.171 149.689 109.439 149.482C109.718 149.265 109.997 149.012 110.276 148.723V146.041C109.16 146.093 108.225 146.191 107.471 146.336C106.727 146.47 106.128 146.646 105.673 146.863C105.218 147.08 104.893 147.333 104.696 147.622C104.51 147.912 104.417 148.227 104.417 148.568C104.417 149.24 104.614 149.72 105.006 150.009C105.409 150.299 105.931 150.443 106.572 150.443Z" fill="black"/>
<g filter="url(#filter1_d_1167_5133)">
<path d="M185 40.565C185 32.5528 191.495 26.0576 199.507 26.0576L415.967 26.0576C423.979 26.0576 430.474 32.5528 430.474 40.565V146.479C430.474 154.491 423.979 160.986 415.967 160.986H199.507C191.495 160.986 185 154.491 185 146.479V40.565Z" fill="white"/>
<path d="M185 35.2068C185 30.1538 189.096 26.0576 194.149 26.0576L421.325 26.0576C426.378 26.0576 430.474 30.1538 430.474 35.2068L185 35.2068Z" fill="#04518C"/>
<path fill-rule="evenodd" clip-rule="evenodd" d="M272.377 65.6339H292.018C291.003 55.3134 282.726 47.1351 272.377 46.2864V65.6339Z" fill="#00DDBE"/>
<path fill-rule="evenodd" clip-rule="evenodd" d="M268.01 69.6952V67.7704V65.8456V48.5109C258.326 49.6251 250.807 57.8201 250.807 67.7704C250.807 78.4813 259.518 87.164 270.265 87.164C280.359 87.164 288.658 79.5021 289.628 69.6952H268.01Z" fill="#4BC6F0"/>
<path fill-rule="evenodd" clip-rule="evenodd" d="M333.107 65.6342H352.749C351.733 55.3137 343.457 47.1354 333.107 46.2867V65.6342Z" fill="#9E005D"/>
<path fill-rule="evenodd" clip-rule="evenodd" d="M328.739 69.695V67.7702V65.8454V48.5107C319.055 49.6249 311.535 57.8199 311.535 67.7702C311.535 78.4811 320.246 87.1638 330.993 87.1638C341.088 87.1638 349.387 79.5019 350.356 69.695H328.739Z" fill="#04518C"/>
<path fill-rule="evenodd" clip-rule="evenodd" d="M393.836 65.6339H413.477C412.462 55.3134 404.185 47.1351 393.836 46.2864V65.6339Z" fill="#F2D021"/>
<path fill-rule="evenodd" clip-rule="evenodd" d="M389.467 69.6952V67.7704V65.8456V48.5109C379.783 49.6251 372.264 57.8201 372.264 67.7704C372.264 78.4813 380.975 87.164 391.722 87.164C401.817 87.164 410.115 79.5021 411.085 69.6952H389.467Z" fill="#00DDBE"/>
<path fill-rule="evenodd" clip-rule="evenodd" d="M250.807 106.511L413.477 106.511V96.271L250.807 96.271V106.511Z" fill="#04518C"/>
<path fill-rule="evenodd" clip-rule="evenodd" d="M250.807 127.579L413.477 127.579V117.129L250.807 117.129V127.579Z" fill="#04518C"/>
<path fill-rule="evenodd" clip-rule="evenodd" d="M250.807 146.004H413.477V135.554H250.807V146.004Z" fill="#04518C"/>
<path fill-rule="evenodd" clip-rule="evenodd" d="M196.75 150.746H231.29V44.356H196.75V150.746Z" fill="#F2D021"/>
<path fill-rule="evenodd" clip-rule="evenodd" d="M195.996 30.6325C195.996 31.7912 195.056 32.7308 193.897 32.7308C192.738 32.7308 191.799 31.7912 191.799 30.6325C191.799 29.4734 192.738 28.534 193.897 28.534C195.056 28.534 195.996 29.4734 195.996 30.6325Z" fill="white"/>
<path fill-rule="evenodd" clip-rule="evenodd" d="M203.132 30.6325C203.132 31.7912 202.193 32.7308 201.034 32.7308C199.875 32.7308 198.936 31.7912 198.936 30.6325C198.936 29.4734 199.875 28.534 201.034 28.534C202.193 28.534 203.132 29.4734 203.132 30.6325Z" fill="white"/>
<path fill-rule="evenodd" clip-rule="evenodd" d="M210.81 30.6325C210.81 31.7912 209.871 32.7308 208.712 32.7308C207.553 32.7308 206.613 31.7912 206.613 30.6325C206.613 29.4734 207.553 28.534 208.712 28.534C209.871 28.534 210.81 29.4734 210.81 30.6325Z" fill="white"/>
</g>
<defs>
<filter id="filter0_d_1167_5133" x="45" y="52.9927" width="301.223" height="392.963" filterUnits="userSpaceOnUse" color-interpolation-filters="sRGB">
<feFlood flood-opacity="0" result="BackgroundImageFix"/>
<feColorMatrix in="SourceAlpha" type="matrix" values="0 0 0 0 0 0 0 0 0 0 0 0 0 0 0 0 0 0 127 0" result="hardAlpha"/>
<feOffset dy="4"/>
<feGaussianBlur stdDeviation="2"/>
<feComposite in2="hardAlpha" operator="out"/>
<feColorMatrix type="matrix" values="0 0 0 0 0 0 0 0 0 0 0 0 0 0 0 0 0 0 0.25 0"/>
<feBlend mode="normal" in2="BackgroundImageFix" result="effect1_dropShadow_1167_5133"/>
<feBlend mode="normal" in="SourceGraphic" in2="effect1_dropShadow_1167_5133" result="shape"/>
</filter>
<filter id="filter1_d_1167_5133" x="181" y="26.0576" width="253.475" height="142.929" filterUnits="userSpaceOnUse" color-interpolation-filters="sRGB">
<feFlood flood-opacity="0" result="BackgroundImageFix"/>
<feColorMatrix in="SourceAlpha" type="matrix" values="0 0 0 0 0 0 0 0 0 0 0 0 0 0 0 0 0 0 127 0" result="hardAlpha"/>
<feOffset dy="4"/>
<feGaussianBlur stdDeviation="2"/>
<feComposite in2="hardAlpha" operator="out"/>
<feColorMatrix type="matrix" values="0 0 0 0 0 0 0 0 0 0 0 0 0 0 0 0 0 0 0.25 0"/>
<feBlend mode="normal" in2="BackgroundImageFix" result="effect1_dropShadow_1167_5133"/>
<feBlend mode="normal" in="SourceGraphic" in2="effect1_dropShadow_1167_5133" result="shape"/>
</filter>
</defs>
</svg>
