<svg width="576" height="411" viewBox="0 0 576 411" fill="none" xmlns="http://www.w3.org/2000/svg">
<path fill-rule="evenodd" clip-rule="evenodd" d="M49.6587 15.6008C47.6515 6.67229 39.7445 0 30.2773 0C19.2936 0 10.3895 8.97287 10.3895 20.0415C10.3895 20.6168 10.4279 21.1824 10.4751 21.7453C4.98805 21.741 0.609375 26.1535 0.609375 31.5968C0.609375 37.04 4.98805 41.4525 10.3895 41.4525H51.5638C58.691 41.4525 64.4687 35.6304 64.4687 28.4479C64.4687 21.2659 58.691 15.4436 51.5638 15.4436C50.9148 15.4436 50.282 15.5076 49.6587 15.6008Z" fill="#E6EAEB"/>
<path fill-rule="evenodd" clip-rule="evenodd" d="M555.26 60.1398C552.548 48.0742 541.867 39.0576 529.078 39.0576C514.24 39.0576 502.212 51.1831 502.212 66.1407C502.212 66.9182 502.264 67.6825 502.327 68.4432C494.915 68.4374 489 74.4002 489 81.756C489 89.1117 494.915 95.0745 502.212 95.0745H557.833C567.461 95.0745 575.266 87.2068 575.266 77.5007C575.266 67.7954 567.461 59.9273 557.833 59.9273C556.956 59.9273 556.102 60.0138 555.26 60.1398Z" fill="#E6EAEB"/>
<path fill-rule="evenodd" clip-rule="evenodd" d="M220.756 84.7866L373.317 85.3943L373.041 154.68C374.487 161.302 371.761 168.711 364.881 172.359L305.082 204.07C300.381 206.563 294.751 206.566 290.048 204.078L229.203 171.886C223.673 168.96 220.829 163.616 220.661 158.201L220.463 158.2L220.756 84.7866Z" fill="#009FDA"/>
<path d="M365.176 98.9457C376.505 92.9378 376.57 76.7285 365.288 70.6305L305.744 38.4439C301.063 35.9138 295.433 35.8663 290.71 38.317L229.61 70.0229C218.112 75.9895 218.046 92.4143 229.497 98.4723L290.342 130.664C295.045 133.152 300.676 133.15 305.376 130.657L365.176 98.9457Z" fill="#4BC6F0"/>
<path fill-rule="evenodd" clip-rule="evenodd" d="M297.803 85.0934L220.757 84.7865L220.465 158.2L220.663 158.2C220.83 163.616 223.674 168.96 229.204 171.886L290.05 204.078C292.473 205.359 295.142 205.98 297.803 205.94V85.0934Z" fill="#F2D021"/>
<path d="M365.176 98.9459C376.505 92.9379 376.57 76.7286 365.288 70.6306L305.744 38.444C301.063 35.9139 295.433 35.8664 290.71 38.3171L229.61 70.0231C218.112 75.9896 218.046 92.4144 229.497 98.4724L290.342 130.664C295.045 133.152 300.676 133.15 305.376 130.657L365.176 98.9459Z" fill="#4BC6F0"/>
<path fill-rule="evenodd" clip-rule="evenodd" d="M251.574 162.963V183.087L273.334 195.568V149.979L251.574 162.963Z" fill="#D1B534"/>
<path fill-rule="evenodd" clip-rule="evenodd" d="M346.416 160.951V181.074L324.656 193.555V147.967L346.416 160.951Z" fill="#178DBC"/>
<path fill-rule="evenodd" clip-rule="evenodd" d="M254.211 127.435C262.209 122.728 272.514 125.385 277.23 133.371C281.945 141.357 279.284 151.647 271.285 156.354L199.693 198.492C191.696 203.199 181.389 200.542 176.673 192.555C171.959 184.57 174.62 174.28 182.619 169.572L254.211 127.435Z" fill="#E2E2E2"/>
<path fill-rule="evenodd" clip-rule="evenodd" d="M422.06 171.982C430.138 176.553 432.974 186.795 428.396 194.86C423.817 202.926 413.559 205.759 405.482 201.187L333.182 160.274C325.104 155.703 322.266 145.459 326.845 137.394C331.424 129.329 341.682 126.497 349.76 131.067L422.06 171.982Z" fill="#E2E2E2"/>
<path fill-rule="evenodd" clip-rule="evenodd" d="M356.316 185.617L508.878 186.225L508.602 255.51C510.047 262.133 507.321 269.542 500.442 273.19L440.643 304.901C435.942 307.394 430.312 307.396 425.609 304.908L364.763 272.716C359.233 269.791 356.389 264.447 356.222 259.031L356.024 259.03L356.316 185.617Z" fill="#009FDA"/>
<path d="M500.736 199.776C512.066 193.768 512.13 177.559 500.849 171.461L441.304 139.274C436.623 136.744 430.993 136.697 426.271 139.147L365.17 170.853C353.672 176.82 353.607 193.245 365.057 199.303L425.903 231.495C430.606 233.983 436.236 233.98 440.937 231.487L500.736 199.776Z" fill="#4BC6F0"/>
<path fill-rule="evenodd" clip-rule="evenodd" d="M433.361 185.924L356.316 185.617L356.023 259.03L356.222 259.031C356.389 264.447 359.233 269.791 364.763 272.716L425.609 304.908C428.031 306.19 430.7 306.811 433.361 306.771V185.924Z" fill="#F2D021"/>
<path d="M500.736 199.776C512.066 193.768 512.13 177.559 500.849 171.461L441.304 139.274C436.623 136.744 430.993 136.697 426.271 139.148L365.17 170.853C353.672 176.82 353.607 193.245 365.057 199.303L425.903 231.495C430.606 233.983 436.236 233.98 440.937 231.487L500.736 199.776Z" fill="#4BC6F0"/>
<path d="M362.781 227.429H382.947V282.325L363.902 272.242L362.781 227.429Z" fill="#D1B534"/>
<path fill-rule="evenodd" clip-rule="evenodd" d="M53.8259 180.015L206.388 180.623L206.112 249.908C207.557 256.531 204.831 263.94 197.952 267.588L138.152 299.299C133.452 301.792 127.822 301.795 123.119 299.306L62.2729 267.115C56.7429 264.189 53.8989 258.845 53.7316 253.429L53.5334 253.429L53.8259 180.015Z" fill="#009FDA"/>
<path d="M198.246 194.174C209.575 188.167 209.64 171.957 198.359 165.859L138.814 133.673C134.133 131.143 128.503 131.095 123.781 133.546L62.6803 165.252C51.1821 171.218 51.1167 187.643 62.5669 193.701L123.413 225.893C128.116 228.381 133.746 228.378 138.447 225.886L198.246 194.174Z" fill="#4BC6F0"/>
<path fill-rule="evenodd" clip-rule="evenodd" d="M130.872 180.322L53.8256 180.015L53.5332 253.429L53.7314 253.429C53.8987 258.845 56.7427 264.189 62.2726 267.115L123.118 299.306C125.541 300.588 128.211 301.209 130.872 301.169V180.322Z" fill="#F2D021"/>
<path d="M198.244 194.175C209.573 188.167 209.638 171.957 198.357 165.859L138.812 133.673C134.131 131.143 128.501 131.095 123.779 133.546L62.6783 165.252C51.1802 171.218 51.1147 187.643 62.565 193.701L123.411 225.893C128.114 228.381 133.744 228.379 138.445 225.886L198.244 194.175Z" fill="#4BC6F0"/>
<path fill-rule="evenodd" clip-rule="evenodd" d="M180.84 255.539V275.662L159.08 288.143V242.554L180.84 255.539Z" fill="#178DBC"/>
<path fill-rule="evenodd" clip-rule="evenodd" d="M256.136 264.69C264.286 269.13 267.289 279.326 262.842 287.464C258.396 295.602 248.185 298.6 240.034 294.161L167.078 254.424C158.928 249.984 155.924 239.788 160.371 231.65C164.818 223.512 175.029 220.514 183.18 224.953L256.136 264.69Z" fill="#E2E2E2"/>
<path fill-rule="evenodd" clip-rule="evenodd" d="M357.873 212.957C365.988 208.451 376.222 211.368 380.733 219.471C385.245 227.573 382.324 237.792 374.209 242.296L301.574 282.613C293.459 287.117 283.221 284.201 278.711 276.098C274.199 267.995 277.121 257.776 285.236 253.271L357.873 212.957Z" fill="#E2E2E2"/>
<path fill-rule="evenodd" clip-rule="evenodd" d="M196.107 288.688L348.669 289.296L348.393 358.581C349.838 365.204 347.112 372.613 340.233 376.261L280.434 407.972C275.733 410.465 270.103 410.467 265.4 407.979L204.554 375.788C199.024 372.862 196.18 367.518 196.013 362.102L195.815 362.101L196.107 288.688Z" fill="#009FDA"/>
<path d="M340.527 302.847C351.857 296.839 351.921 280.63 340.64 274.532L281.095 242.346C276.414 239.815 270.785 239.768 266.062 242.219L204.962 273.925C193.463 279.891 193.398 296.316 204.848 302.374L265.694 334.566C270.397 337.054 276.027 337.051 280.728 334.559L340.527 302.847Z" fill="#4BC6F0"/>
<path fill-rule="evenodd" clip-rule="evenodd" d="M273.154 288.995L196.109 288.688L195.816 362.101L196.015 362.102C196.182 367.518 199.026 372.862 204.556 375.787L265.402 407.979C267.824 409.261 270.493 409.882 273.154 409.842V288.995Z" fill="#F2D021"/>
<path d="M340.527 302.847C351.857 296.84 351.921 280.63 340.64 274.532L281.095 242.346C276.414 239.816 270.785 239.768 266.062 242.219L204.962 273.925C193.463 279.891 193.398 296.316 204.848 302.374L265.694 334.566C270.397 337.054 276.027 337.051 280.728 334.559L340.527 302.847Z" fill="#4BC6F0"/>
</svg>
