<svg width="440" height="611" viewBox="0 0 440 611" fill="none" xmlns="http://www.w3.org/2000/svg">
<path fill-rule="evenodd" clip-rule="evenodd" d="M158.008 353.101L319.509 353.744L319.217 427.089C320.747 434.1 317.861 441.943 310.579 445.805L247.276 479.374C242.3 482.013 236.34 482.015 231.361 479.381L166.95 445.303C161.096 442.206 158.086 436.549 157.909 430.816L157.699 430.815L158.008 353.101Z" fill="white"/>
<path d="M310.889 368.089C322.883 361.73 322.951 344.57 311.009 338.115L247.975 304.043C243.02 301.364 237.06 301.314 232.061 303.908L167.38 337.472C155.208 343.788 155.139 361.175 167.26 367.588L231.671 401.666C236.65 404.3 242.61 404.298 247.586 401.659L310.889 368.089Z" fill="#4BC6F0"/>
<path fill-rule="evenodd" clip-rule="evenodd" d="M239.569 353.425L158.007 353.101L157.697 430.815L157.907 430.816C158.084 436.549 161.095 442.206 166.949 445.303L231.36 479.381C233.925 480.739 236.751 481.396 239.569 481.353V353.425Z" fill="white"/>
<path d="M310.887 368.089C322.881 361.73 322.949 344.57 311.007 338.115L247.973 304.043C243.018 301.364 237.058 301.314 232.059 303.908L167.378 337.472C155.207 343.788 155.137 361.175 167.258 367.588L231.669 401.666C236.648 404.3 242.608 404.298 247.584 401.659L310.887 368.089Z" fill="#4BC6F0"/>
<path fill-rule="evenodd" clip-rule="evenodd" d="M259.301 137.632L339.191 171.83V280.964L302.507 296.676V267.022L313.694 262.355V189.432L250.243 160.628" fill="#F2D021"/>
<path fill-rule="evenodd" clip-rule="evenodd" d="M206.571 135.26L120.971 171.148V280.878L157.711 296.59V266.801L146.468 262.168V188.846L209.92 159.884L206.571 135.26Z" fill="#F2D021"/>
<path fill-rule="evenodd" clip-rule="evenodd" d="M246.686 94.9363H215.85V0.0576172H246.686V94.9363Z" fill="#009FDA"/>
<path fill-rule="evenodd" clip-rule="evenodd" d="M208.166 162.537H253.182C256.784 162.537 259.73 159.647 259.73 156.114V101.359C259.73 97.8259 256.784 94.9363 253.182 94.9363H208.166C204.564 94.9363 201.617 97.8259 201.617 101.359V156.114C201.617 159.647 204.564 162.537 208.166 162.537" fill="#4BC6F0"/>
<path fill-rule="evenodd" clip-rule="evenodd" d="M65.5874 88.6372C62.9034 76.6309 52.3304 67.6587 39.6711 67.6587C24.984 67.6587 13.0777 79.7245 13.0777 94.6085C13.0777 95.3821 13.129 96.1427 13.1921 96.8997C5.85504 96.8939 0 102.827 0 110.147C0 117.466 5.85504 123.4 13.0777 123.4H68.1348C77.665 123.4 85.3908 115.571 85.3908 105.913C85.3908 96.255 77.665 88.4257 68.1348 88.4257C67.267 88.4257 66.4208 88.5118 65.5874 88.6372Z" fill="white"/>
<path fill-rule="evenodd" clip-rule="evenodd" d="M413.045 66.5754C409.392 50.2265 395.001 38.009 377.77 38.009C357.779 38.009 341.574 54.4391 341.574 74.7066C341.574 75.7601 341.643 76.7958 341.729 77.8265C331.743 77.8186 323.773 85.8983 323.773 95.8653C323.773 105.832 331.743 113.912 341.574 113.912H416.512C429.484 113.912 440 103.251 440 90.0995C440 76.9487 429.484 66.2875 416.512 66.2875C415.331 66.2875 414.179 66.4047 413.045 66.5754Z" fill="white"/>
<g filter="url(#filter0_d_1964_2934)">
<path fill-rule="evenodd" clip-rule="evenodd" d="M148.518 258.222L310.019 258.865L309.727 332.21C311.257 339.221 308.371 347.064 301.089 350.926L237.786 384.495C232.81 387.134 226.85 387.137 221.871 384.503L157.46 350.425C151.606 347.328 148.595 341.671 148.418 335.938L148.209 335.937L148.518 258.222Z" fill="white"/>
<path d="M301.399 273.211C313.392 266.851 313.461 249.692 301.518 243.236L238.485 209.164C233.53 206.486 227.57 206.435 222.57 209.03L157.89 242.593C145.718 248.91 145.649 266.297 157.77 272.71L222.181 306.788C227.16 309.422 233.12 309.419 238.096 306.78L301.399 273.211Z" fill="#4BC6F0"/>
<path fill-rule="evenodd" clip-rule="evenodd" d="M230.081 258.547L148.519 258.222L148.209 335.937L148.419 335.937C148.596 341.671 151.607 347.328 157.461 350.425L221.871 384.503C224.437 385.86 227.263 386.517 230.081 386.474V258.547Z" fill="#009FDA"/>
<path d="M301.399 273.211C313.392 266.851 313.461 249.692 301.518 243.236L238.485 209.164C233.53 206.486 227.57 206.435 222.57 209.03L157.89 242.593C145.718 248.91 145.649 266.297 157.77 272.71L222.181 306.788C227.16 309.422 233.12 309.419 238.096 306.78L301.399 273.211Z" fill="#4BC6F0"/>
</g>
<path fill-rule="evenodd" clip-rule="evenodd" d="M240.754 209.977H219.406V158.979H240.754V209.977Z" fill="#D1B534"/>
<path fill-rule="evenodd" clip-rule="evenodd" d="M245.498 270.462H214.662V207.605H245.498V270.462Z" fill="#F2D021"/>
<path fill-rule="evenodd" clip-rule="evenodd" d="M69.2976 481.567L230.855 482.211L230.563 555.556C232.093 562.566 229.206 570.409 221.922 574.271L158.596 607.84C153.619 610.479 147.656 610.482 142.676 607.848L78.2427 573.77C72.3866 570.673 69.375 565.016 69.1978 559.283L68.9879 559.282L69.2976 481.567Z" fill="white"/>
<path fill-rule="evenodd" clip-rule="evenodd" d="M150.885 481.892L69.296 481.567L68.9863 559.282L69.1962 559.283C69.3734 565.016 72.3851 570.673 78.2411 573.77L142.674 607.848C145.24 609.205 148.067 609.862 150.885 609.819V481.892Z" fill="#009FDA"/>
<path fill-rule="evenodd" clip-rule="evenodd" d="M69.0591 410.028L230.56 410.671L230.268 484.016C231.798 491.027 228.912 498.87 221.63 502.732L158.327 536.301C153.351 538.94 147.391 538.943 142.412 536.309L78.0011 502.231C72.1471 499.134 69.1365 493.477 68.9594 487.743L68.7495 487.743L69.0591 410.028Z" fill="white"/>
<path d="M221.94 425.017C233.933 418.657 234.002 401.498 222.059 395.042L159.026 360.97C154.071 358.292 148.111 358.241 143.112 360.835L78.4311 394.399C66.2593 400.715 66.19 418.103 78.3111 424.516L142.722 458.594C147.701 461.228 153.661 461.225 158.637 458.586L221.94 425.017Z" fill="#4BC6F0"/>
<path fill-rule="evenodd" clip-rule="evenodd" d="M150.622 410.353L69.0596 410.028L68.75 487.743L68.9598 487.743C69.1369 493.477 72.1475 499.133 78.0015 502.231L142.412 536.309C144.978 537.666 147.804 538.323 150.622 538.28V410.353Z" fill="#009FDA"/>
<path d="M221.94 425.017C233.933 418.657 234.002 401.498 222.059 395.042L159.026 360.97C154.071 358.292 148.111 358.241 143.112 360.835L78.4311 394.399C66.2593 400.715 66.19 418.103 78.3111 424.516L142.722 458.594C147.701 461.228 153.661 461.225 158.637 458.586L221.94 425.017Z" fill="#4BC6F0"/>
<rect x="69" y="461" width="82" height="93" fill="#009FDA"/>
<defs>
<filter id="filter0_d_1964_2934" x="139.209" y="202.119" width="180.227" height="197.357" filterUnits="userSpaceOnUse" color-interpolation-filters="sRGB">
<feFlood flood-opacity="0" result="BackgroundImageFix"/>
<feColorMatrix in="SourceAlpha" type="matrix" values="0 0 0 0 0 0 0 0 0 0 0 0 0 0 0 0 0 0 127 0" result="hardAlpha"/>
<feOffset dy="4"/>
<feGaussianBlur stdDeviation="4.5"/>
<feComposite in2="hardAlpha" operator="out"/>
<feColorMatrix type="matrix" values="0 0 0 0 0 0 0 0 0 0 0 0 0 0 0 0 0 0 0.1 0"/>
<feBlend mode="normal" in2="BackgroundImageFix" result="effect1_dropShadow_1964_2934"/>
<feBlend mode="normal" in="SourceGraphic" in2="effect1_dropShadow_1964_2934" result="shape"/>
</filter>
</defs>
</svg>
