<?xml version="1.0" encoding="UTF-8"?>
<svg width="538px" height="448px" viewBox="0 0 538 448" version="1.1" xmlns="http://www.w3.org/2000/svg" xmlns:xlink="http://www.w3.org/1999/xlink">
    <!-- Generator: Sketch 50 (54983) - http://www.bohemiancoding.com/sketch -->
    <title>Group 3</title>
    <desc>Created with Sketch.</desc>
    <defs>
        <polygon id="path-1" points="0.026217271 0.00831086587 66.808175 0.00831086587 66.808175 117.986423 0.026217271 117.986423"></polygon>
        <polygon id="path-3" points="0.408038131 0.514651783 133.62541 0.514651783 133.62541 78.5859081 0.408038131 78.5859081"></polygon>
        <path d="M1.749,0.378333333 C0.405565217,0.822222222 -0.313391304,2.23388889 0.147478261,3.52833333 C3.60227174,13.275 10.7889565,21.1361111 20.3836848,25.6666667 C29.8274783,30.1277778 40.4925761,30.8344444 50.4675217,27.6727778 C50.6294022,27.6205556 50.78725,27.5688889 50.9479783,27.5161111 C52.2919891,27.0727778 53.0109457,25.6616667 52.5500761,24.3655556 C52.4976522,24.2166667 52.4314022,24.0766667 52.3547826,23.9461111 C51.7596848,22.9277778 50.4848043,22.4405556 49.2842391,22.825 C40.5231087,25.7294444 31.0124891,25.1594444 22.6517391,21.2138889 C14.2915652,17.2655556 8.02604348,10.4127778 5.01771739,1.92055556 C4.65478261,0.900555556 3.64317391,0.221111111 2.597,0.221111111 C2.31241304,0.221111111 2.02552174,0.271111111 1.749,0.378333333 Z" id="path-5"></path>
        <path d="M1.26481034,9.31312941 C1.07989655,10.2070588 0.972931034,11.1292235 0.950741379,12.0711529 L0.128586207,47.6289882 L31.6128621,47.6289882 L32.4367241,12.7888941 C32.4589138,11.8441412 32.3946207,10.9197176 32.2506724,10.0184471 C31.4017759,4.65487059 26.5029828,0.832941176 21.0295345,0.708705882 L12.9058448,0.523482353 C12.8136724,0.521788235 12.720931,0.519529412 12.6287586,0.519529412 C7.26227586,0.521223529 2.34413793,4.08338824 1.26481034,9.31312941 Z" id="path-7"></path>
        <path d="M7.78248276,0.197023256 C3.73003448,0.197023256 0.443172414,3.32316279 0.443172414,7.17767442 L0.443172414,16.5572093 C0.443172414,20.4128372 3.73003448,23.5373023 7.78248276,23.5373023 L9.50182759,23.5373023 C13.5566207,23.5373023 16.8417241,20.4128372 16.8417241,16.5572093 L16.8417241,7.17767442 C16.8417241,3.32316279 13.5566207,0.197023256 9.50182759,0.197023256 L7.78248276,0.197023256 Z" id="path-9"></path>
        <path d="M35.2517059,0.186271605 C30.3921765,0.673530864 25.7584118,2.05523457 21.5275588,4.2325679 C21.527,4.2331358 21.5258824,4.2337037 21.5225294,4.23540741 C16.7797941,6.67681481 12.5455882,10.1205679 9.07194118,14.4280988 C3.96094118,20.7641728 0.975147059,28.3831358 0.379441176,36.3905432 L0.362676471,36.6432593 C0.254264706,38.2288395 0.240294118,39.8286173 0.322441176,41.4357778 C0.353735294,42.0655802 0.401794118,42.6948148 0.459352941,43.3246173 C0.580617647,44.5620741 1.55408824,45.5030864 2.72761765,45.6036049 L2.79411765,45.6098519 C2.92376471,45.6172346 3.05452941,45.614963 3.18752941,45.6024691 C4.55776471,45.4644691 5.53011765,44.2321235 5.42282353,42.8271358 C4.54155882,33.6850617 7.20323529,24.7440247 12.9278235,17.6446914 C18.6552059,10.5442222 26.7570294,6.13560494 35.7401176,5.23491358 C37.1109118,5.09520988 38.0642647,3.85264198 37.9770882,2.46014815 C37.8507941,1.1505679 36.7677941,0.173777778 35.5026176,0.173777778 C35.4193529,0.173777778 35.3360882,0.177753086 35.2517059,0.186271605 Z" id="path-11"></path>
        <path d="M16.0402564,5.29550943 C8.30415385,9.90322642 2.84251282,17.1193019 0.625025641,25.6447547 C0.589487179,25.7826415 0.555641026,25.9188868 0.521230769,26.0578679 C0.236358974,27.2134906 0.971384615,28.3778679 2.16333333,28.6541887 C2.29984615,28.6864717 2.43635897,28.7050755 2.57117949,28.7110943 C3.61589744,28.7625283 4.57374359,28.0884151 4.83717949,27.0597358 C6.6885641,19.5131698 11.5127692,13.05 18.3592821,8.96866038 C25.2074872,4.88950943 33.2843077,3.64250943 41.096,5.45966038 C42.2907692,5.7365283 43.5537949,5.01316981 43.7732308,3.86411321 C44.0569744,2.7079434 43.3225128,1.54356604 42.1305641,1.26779245 C39.4414872,0.642377358 36.7253333,0.333226415 34.028359,0.333226415 C27.7329744,0.333226415 21.5413846,2.01741509 16.0402564,5.29550943 Z" id="path-13"></path>
        <path d="M0.437307692,6.50115789 L0.238269231,14.6856316 C0.156346154,18.0517105 2.94,20.8425 6.45692308,20.9204211 L7.94826923,20.9535789 C11.4634615,21.0326053 14.3809615,18.3689211 14.4634615,15.0033947 L14.6619231,6.81836842 C14.7438462,3.45505263 11.9590385,0.662605263 8.44384615,0.584684211 L6.95192308,0.550421053 C6.90173077,0.549315789 6.85153846,0.548763158 6.80134615,0.548763158 C3.35192308,0.548763158 0.518076923,3.18536842 0.437307692,6.50115789 Z" id="path-15"></path>
        <path d="M21.4222222,0.414285714 C13.025,3.96685714 6.47666667,10.6748571 2.98777778,19.3 C-0.45,27.7891429 -0.519444444,37.1377143 2.77888889,45.6708571 C2.83222222,45.8085714 2.88611111,45.944 2.94111111,46.0822857 C3.40055556,47.2297143 4.68,47.7788571 5.79611111,47.3057143 C5.925,47.252 6.04444444,47.1862857 6.155,47.1125714 C7.02,46.536 7.38444444,45.3965714 6.98333333,44.3702857 C3.97388889,36.8822857 3.98333333,28.5497143 7.02277778,21.0337143 C10.065,13.5177143 15.7711111,7.67085714 23.0888889,4.576 C24.2066667,4.10171429 24.7855556,2.74057143 24.2772222,1.63771429 C23.9288889,0.769714286 23.1127778,0.244 22.2533333,0.244 C21.9761111,0.244 21.6944444,0.298857143 21.4222222,0.414285714 Z" id="path-17"></path>
        <path d="M0.983612903,0.93347191 C0.243870968,1.93685393 0.380903226,3.33219101 1.37264516,4.10177528 C7.88458065,9.13186517 12.0187742,16.3687079 13.0169032,24.4765618 C14.0132903,32.5832697 11.7522581,40.5868315 6.65187097,47.0260112 C5.88948387,48.0282472 6.04683871,49.4258764 7.03916129,50.1937416 C7.13670968,50.2670899 7.23716129,50.3324157 7.34051613,50.3897191 L7.39335484,50.4177978 C8.35083871,50.9106067 9.55741935,50.6745169 10.2495484,49.8046517 C10.5985161,49.3599775 10.9393548,48.9107191 11.2691613,48.4522921 C12.1087742,47.2861685 12.8705806,46.0764944 13.5528387,44.8347303 L13.6625806,44.6358876 C17.0715484,38.334236 18.4447742,31.1650112 17.5540645,23.9298876 C16.9484516,19.0121124 15.3377419,14.3728315 12.8496774,10.2412584 C12.8496774,10.2389663 12.8479355,10.2383933 12.8473548,10.2366742 C10.6287097,6.55092135 7.71270968,3.26801124 4.19051613,0.546674157 C3.7736129,0.22405618 3.27774194,0.0670449438 2.78535484,0.0670449438 C2.10658065,0.0670449438 1.43477419,0.364449438 0.983612903,0.93347191 Z" id="path-19"></path>
        <path d="M1.02251613,1.20566292 C0.282774194,2.20847191 0.419806452,3.60380899 1.41154839,4.37339326 C7.92348387,9.40348315 12.0576774,16.6408989 13.0563871,24.7487528 C14.0527742,32.8554607 11.7911613,40.8590225 6.69077419,47.2982022 C5.9283871,48.3004382 6.08574194,49.6974944 7.07806452,50.4653596 C7.1756129,50.5387079 7.27606452,50.6040337 7.38,50.6613371 L7.43341935,50.6894157 C8.38974194,51.1822247 9.59632258,50.9467079 10.2884516,50.0762697 C10.6374194,49.6321685 10.9782581,49.1829101 11.3074839,48.7244831 C12.1470968,47.5577865 12.9094839,46.3481124 13.5923226,45.1069213 L13.7014839,44.9075056 C17.1110323,38.6058539 18.4836774,31.4372022 17.5929677,24.2020787 C16.9879355,19.2837303 15.3766452,14.6450225 12.8891613,10.5134494 C12.888,10.5105843 12.8868387,10.5100112 12.8868387,10.5088652 C10.6676129,6.82311236 7.7516129,3.54020225 4.22941935,0.818292135 C3.81251613,0.495674157 3.31664516,0.339235955 2.82483871,0.339235955 C2.14606452,0.339235955 1.47425806,0.636640449 1.02251613,1.20566292 Z" id="path-21"></path>
        <path d="M0.73528,8.2488 C0.59192,9.03392 0.51688,9.84088 0.51688,10.66744 L0.52304,41.13536 L27.83592,41.77208 L27.846,10.67584 C27.84656,9.85152 27.77208,9.04344 27.62984,8.25832 C26.79992,3.66632 22.60608,0.45248 17.9508,0.34328 C17.87072,0.3416 17.79064,0.34104 17.71056,0.34104 L10.65904,0.33824 C5.908,0.33656 1.58088,3.57896 0.73528,8.2488 Z" id="path-23"></path>
        <polygon id="path-25" points="0 0.238565147 0 79.9998698 79.7612175 79.9998698 79.7612175 0.238565147"></polygon>
    </defs>
    <g id="final" stroke="none" stroke-width="1" fill="none" fill-rule="evenodd">
        <g id="Services" transform="translate(-715.000000, -1906.000000)">
            <g id="Group-3" transform="translate(715.000000, 1906.000000)">
                <g id="Page-1" transform="translate(0.000000, 115.000000)">
                    <g id="Group-45" transform="translate(19.000000, 0.000000)">
                        <path d="M348.888457,160.082598 C356.131899,156.061157 365.267174,158.664663 369.293761,165.896812 C373.320915,173.128961 370.713345,182.249995 363.469903,186.270871 L298.6368,222.256921 C291.393359,226.276666 282.255819,223.674291 278.229798,216.441576 C274.202644,209.209427 276.810781,200.087827 284.053656,196.066951 L348.888457,160.082598 Z" id="Fill-1" fill="#E2E2E2"></path>
                        <polygon id="Fill-3" fill="#009FDA" points="295.717567 78.475662 295.717567 156.886703 362.499694 117.935879 362.499694 38.9085907"></polygon>
                        <polygon id="Fill-5" fill="#F2D021" points="229.282436 117.935823 295.498316 156.887212 295.498316 78.4761708 229.282436 38.9085341"></polygon>
                        <polygon id="Fill-7" fill="#4BC6F0" points="229.282436 38.9084211 295.498316 78.4760577 362.500147 38.9084211 295.890725 0.404801358"></polygon>
                        <polygon id="Fill-9" fill="#D1B534" points="254.006568 115.459072 254.006568 133.420719 273.429432 144.561236 273.429432 103.869089"></polygon>
                        <polygon id="Fill-11" fill="#178DBC" points="338.661457 113.66302 338.661457 131.624667 319.238592 142.764619 319.238592 102.073037"></polygon>
                        <path d="M406.179027,123.508852 C413.389626,127.589091 415.921319,136.731044 411.834709,143.929837 C407.748099,151.129195 398.591873,153.657507 391.381841,149.576703 L326.847717,113.058645 C319.637684,108.978405 317.104858,99.8347569 321.192034,92.635964 C325.278644,85.4371711 334.435436,82.9094241 341.645469,86.9890981 L406.179027,123.508852 Z" id="Fill-13" fill="#E2E2E2"></path>
                        <path d="M256.360573,83.7467297 C263.499825,79.5449368 272.697953,81.9172085 276.906873,89.0453307 C281.115793,96.173453 278.740383,105.357808 271.601132,109.559601 L207.69894,147.171074 C200.560255,151.372867 191.360427,149.001161 187.151508,141.872473 C182.943154,134.744351 185.31913,125.559996 192.458382,121.357638 L256.360573,83.7467297 Z" id="Fill-15" fill="#E2E2E2"></path>
                        <g id="Group-19" transform="translate(447.335726, 124.380306)">
                            <mask id="mask-2" fill="white">
                                <use xlink:href="#path-1"></use>
                            </mask>
                            <g id="Clip-18"></g>
                            <polygon id="Fill-17" fill="#009FDA" mask="url(#mask-2)" points="0.026217271 39.5753822 0.026217271 117.986423 66.8083449 79.0355995 66.8083449 0.00831086587"></polygon>
                        </g>
                        <polygon id="Fill-20" fill="#F2D021" points="380.926529 203.415849 447.142975 242.367237 447.142975 163.956197 380.926529 124.38856"></polygon>
                        <g id="Group-24" transform="translate(380.518491, 85.370119)">
                            <mask id="mask-4" fill="white">
                                <use xlink:href="#path-3"></use>
                            </mask>
                            <g id="Clip-23"></g>
                            <polygon id="Fill-22" fill="#4BC6F0" mask="url(#mask-4)" points="0.408038131 39.0182715 66.6244842 78.5859081 133.62575 39.0182715 67.0163277 0.514651783"></polygon>
                        </g>
                        <polygon id="Fill-25" fill="#009FDA" points="143.138938 165.260324 143.138938 243.671365 211.054128 204.720541 210.48788 125.74357"></polygon>
                        <polygon id="Fill-27" fill="#F2D021" points="96.5091527 201.657408 143.139108 243.671421 144.444876 164.125693 77.8371524 125.693309"></polygon>
                        <polygon id="Fill-29" fill="#4BC6F0" points="77.8371524 125.693027 144.444876 164.125976 211.054864 125.693027 144.444876 87.189407"></polygon>
                        <polygon id="Fill-31" fill="#178DBC" points="190.870793 198.090675 190.870793 216.052322 171.447929 227.19284 171.447929 186.500692"></polygon>
                        <path d="M258.078682,206.259239 C265.353267,210.221882 268.03445,219.322563 264.065053,226.586373 C260.096223,233.850748 250.981899,236.526621 243.706182,232.563977 L178.587124,197.095237 C171.311973,193.132594 168.631356,184.031913 172.600186,176.768103 C176.569583,169.503728 185.683907,166.827855 192.959624,170.790499 L258.078682,206.259239 Z" id="Fill-33" fill="#E2E2E2"></path>
                        <polygon id="Fill-35" fill="#009FDA" points="295.717567 254.587998 295.717567 332.999039 362.499694 294.048215 362.499694 215.020927"></polygon>
                        <polygon id="Fill-37" fill="#F2D021" points="229.282436 294.048159 295.498316 332.999548 295.498316 254.588507 229.282436 215.02087"></polygon>
                        <polygon id="Fill-39" fill="#4BC6F0" points="229.282436 215.020701 295.498316 254.588337 362.500147 215.020701 295.890725 176.516516"></polygon>
                        <path d="M23.8359727,244.610719 C24.0488819,246.533525 25.5709558,247.834996 27.2345917,247.520087 C28.8993601,247.203483 30.0731917,245.389792 29.8602826,243.466985 L24.5556736,195.572087 C24.3433307,193.64815 22.821823,192.347245 21.1576208,192.662719 C19.4939849,192.978193 18.3178883,194.793014 18.5307975,196.715821 L23.8359727,244.610719 Z" id="Fill-41" fill="#133055"></path>
                        <path d="M0.57864858,243.804113 C0.330632063,245.746707 1.46595881,247.534391 3.11430602,247.79672 C4.76321948,248.06018 6.29831714,246.699347 6.54689991,244.757318 L12.7280604,196.377902 C12.9766432,194.436439 11.8424489,192.64932 10.1929692,192.385294 C8.54575448,192.122399 7.00839183,193.482668 6.76037531,195.425262 L0.57864858,243.804113 Z" id="Fill-43" fill="#133055"></path>
                    </g>
                    <g id="Group-48" transform="translate(44.000000, 152.000000)">
                        <mask id="mask-6" fill="white">
                            <use xlink:href="#path-5"></use>
                        </mask>
                        <g id="Clip-47"></g>
                        <polygon id="Fill-46" fill="#003055" mask="url(#mask-6)" points="-9.21635435 0.0139444444 20.3305696 50.5100556 61.3519935 28.1872778 31.8056457 -22.3088333"></polygon>
                    </g>
                    <g id="Group-51" transform="translate(19.000000, 148.000000)">
                        <mask id="mask-8" fill="white">
                            <use xlink:href="#path-7"></use>
                        </mask>
                        <g id="Clip-50"></g>
                        <polygon id="Fill-49" fill="#009FDA" mask="url(#mask-8)" points="-5.47743103 53.1919059 38.0467241 53.1919059 38.0467241 -5.04225882 -5.47743103 -5.04225882"></polygon>
                    </g>
                    <g id="Group-54" transform="translate(27.000000, 119.000000)">
                        <mask id="mask-10" fill="white">
                            <use xlink:href="#path-9"></use>
                        </mask>
                        <g id="Clip-53"></g>
                        <polygon id="Fill-52" fill="#009FDA" mask="url(#mask-10)" points="-5.33037931 29.036093 22.6170345 29.036093 22.6170345 -5.30176744 -5.33037931 -5.30176744"></polygon>
                    </g>
                    <g id="Group-57" transform="translate(0.000000, 157.000000)">
                        <mask id="mask-12" fill="white">
                            <use xlink:href="#path-11"></use>
                        </mask>
                        <g id="Clip-56"></g>
                        <polygon id="Fill-55" fill="#003055" mask="url(#mask-12)" points="39.8575853 53.9426667 44.0392618 -4.81580247 -1.96588529 -8.19595062 -6.14700294 50.5608148"></polygon>
                    </g>
                    <g id="Group-60" transform="translate(400.000000, 116.000000)">
                        <mask id="mask-14" fill="white">
                            <use xlink:href="#path-13"></use>
                        </mask>
                        <g id="Clip-59"></g>
                        <polygon id="Fill-58" fill="#003055" mask="url(#mask-14)" points="49.1146051 -3.7229434 -2.72247179 -6.28698113 -4.79272821 33.1048679 47.0437846 35.6678113"></polygon>
                    </g>
                    <g id="Group-63" transform="translate(437.000000, 83.000000)">
                        <mask id="mask-16" fill="white">
                            <use xlink:href="#path-15"></use>
                        </mask>
                        <g id="Clip-62"></g>
                        <polygon id="Fill-61" fill="#009FDA" mask="url(#mask-16)" points="-5.03630769 25.4650974 19.2065769 26.0061237 19.9352308 -3.96087632 -4.30765385 -4.50190263"></polygon>
                    </g>
                    <g id="Group-66" transform="translate(419.000000, 145.000000)">
                        <mask id="mask-18" fill="white">
                            <use xlink:href="#path-17"></use>
                        </mask>
                        <g id="Clip-65"></g>
                        <polygon id="Fill-64" fill="#003055" mask="url(#mask-18)" points="24.0304444 -7.95331429 -18.8778889 20.6238286 2.88877778 55.1998286 45.7965556 26.6221143"></polygon>
                    </g>
                    <g id="Group-69" transform="translate(440.000000, 144.000000)">
                        <mask id="mask-20" fill="white">
                            <use xlink:href="#path-19"></use>
                        </mask>
                        <g id="Clip-68"></g>
                        <polygon id="Fill-67" fill="#003055" mask="url(#mask-20)" points="-25.3482968 38.684073 -0.18836129 -7.4680618 37.0222839 12.2895674 11.8611871 58.4411292"></polygon>
                    </g>
                    <g id="Group-72" transform="translate(451.000000, 114.000000)">
                        <mask id="mask-22" fill="white">
                            <use xlink:href="#path-21"></use>
                        </mask>
                        <g id="Clip-71"></g>
                        <polygon id="Fill-70" fill="#003055" mask="url(#mask-22)" points="-25.3091613 38.9566079 -0.149225806 -7.1961 37.0614194 12.5615292 11.9003226 58.713091"></polygon>
                    </g>
                    <g id="Group-75" transform="translate(428.000000, 109.000000)">
                        <mask id="mask-24" fill="white">
                            <use xlink:href="#path-23"></use>
                        </mask>
                        <g id="Clip-74"></g>
                        <polygon id="Fill-73" fill="#009FDA" mask="url(#mask-24)" points="-5.17216 45.868424 32.58584 46.747624 33.77136 -4.151896 -3.98664 -5.031656"></polygon>
                    </g>
                </g>
                <path d="M92.7808256,98.9251125 C90.9891782,90.9556034 83.9314996,85 75.4811951,85 C65.6772813,85 57.7296435,93.0090684 57.7296435,102.888761 C57.7296435,103.402308 57.7638727,103.907171 57.8060009,104.409623 C52.9083526,104.405763 49,108.344325 49,113.202882 C49,118.061438 52.9083526,122 57.7296435,122 L94.4812749,122 C100.84288,122 106,116.80326 106,110.392242 C106,103.981707 100.84288,98.7847252 94.4812749,98.7847252 C93.9020115,98.7847252 93.33711,98.8418932 92.7808256,98.9251125 Z" id="Fill-26" fill="#E6EAEB"></path>
                <path d="M272.142519,37.8177195 C269.722223,27.0481127 260.188166,19 248.772843,19 C235.528959,19 224.792676,29.8230654 224.792676,43.1740009 C224.792676,43.8679836 224.838916,44.5502314 224.895826,45.2292196 C218.279704,45.2240042 213,50.546385 213,57.1120021 C213,63.6776191 218.279704,69 224.792676,69 L274.439617,69 C283.033364,69 290,61.9773779 290,53.3138405 C290,44.6509551 283.033364,37.628007 274.439617,37.628007 C273.657103,37.628007 272.893991,37.7052611 272.142519,37.8177195 Z" id="Fill-26" fill="#E6EAEB"></path>
                <g id="Group-8" transform="translate(405.000000, 0.000000)">
                    <path d="M120,45 C120,20.1470389 100.076817,0 75.5,0 C50.9231829,0 31,20.1470389 31,45 C31,69.8529611 50.9231829,90 75.5,90 C100.076817,90 120,69.8529611 120,45" id="Fill-1" fill="#F2D021"></path>
                    <g id="Group-5" transform="translate(0.000000, 23.000000)">
                        <mask id="mask-26" fill="white">
                            <use xlink:href="#path-25"></use>
                        </mask>
                        <g id="Clip-4"></g>
                        <path d="M32.4207826,58.129 C42.3673043,62.249 53.7703478,57.5255217 57.8903478,47.579 C62.0103478,37.632913 57.2868696,26.2298696 47.3403478,22.1098696 C37.3938261,17.9898696 25.9907826,22.7133478 21.8707826,32.6594348 C17.7512174,42.6059565 22.4742609,54.009 32.4207826,58.129 Z M19.8929565,70.1642174 C18.0990435,71.8876957 15.222087,71.8616087 13.4625217,70.1011739 L9.89947826,66.5363913 C8.14252174,64.7781304 8.10426087,61.9094348 9.83817391,60.105087 L9.98773913,59.949 C11.7107826,58.155087 12.3407826,54.849 11.382087,52.5342174 L10.9503478,51.4924783 C9.99730435,49.1911739 7.2233913,47.2855217 4.72165217,47.235087 L4.50556522,47.2307391 C2.0186087,47.1811739 0.00208695652,45.1285652 0.0012173913,42.6394348 L-8.69565217e-05,37.5994348 C-0.00052173913,35.1133478 1.99991304,33.0581304 4.50208696,33.0081304 L4.7186087,33.0037826 C7.20556522,32.9537826 9.98947826,31.0607391 10.9481739,28.7455217 L11.379913,27.7033478 C12.3333913,25.4016087 11.7194783,22.0924783 9.98556522,20.2876957 L9.836,20.1316087 C8.11252174,18.3376957 8.13817391,15.4611739 9.8986087,13.7016087 L13.4638261,10.1385652 C15.222087,8.38117391 18.0903478,8.34334783 19.8951304,10.0768261 L20.0507826,10.2263913 C21.8446957,11.9498696 25.1512174,12.5794348 27.4655652,11.6207391 L28.5077391,11.189 C30.8090435,10.2359565 32.7146957,7.46204348 32.7646957,4.96030435 L32.7690435,4.74421739 C32.8190435,2.25726087 34.8712174,0.24073913 37.3603478,0.239869565 L42.4007826,0.238565217 C44.8864348,0.238130435 46.9416522,2.239 46.992087,4.74117391 L46.9964348,4.95726087 C47.0464348,7.44421739 48.9394783,10.2281304 51.2542609,11.1868261 L52.2964348,11.6185652 C54.5981739,12.5720435 57.9077391,11.9581304 59.7125217,10.2242174 L59.8681739,10.0746522 C61.6625217,8.35117391 64.5390435,8.37726087 66.2986087,10.1376957 L69.8616522,13.7024783 C71.6190435,15.4607391 71.6568696,18.3294348 69.9233913,20.1337826 L69.7733913,20.2898696 C68.0503478,22.0833478 67.4207826,25.3898696 68.3794783,27.7046522 L68.8107826,28.7463913 C69.7642609,31.0476957 72.5377391,32.9533478 75.039913,33.0037826 L75.256,33.0081304 C77.7425217,33.0576957 79.7594783,35.1103043 79.759913,37.5994348 L79.7612174,42.6394348 C79.7616522,45.125087 77.7612174,47.1807391 75.2590435,47.2307391 L75.0429565,47.235087 C72.5555652,47.285087 69.772087,49.1781304 68.8129565,51.4933478 L68.3812174,52.535087 C67.4281739,54.8368261 68.0416522,58.1463913 69.7755652,59.9511739 L69.9255652,60.1072609 C71.6486087,61.9011739 71.6229565,64.7776957 69.8625217,66.5372609 L66.2977391,70.1003043 C64.5394783,71.8576957 61.6707826,71.8955217 59.866,70.1620435 L59.7103478,70.0124783 C57.9164348,68.289 54.609913,67.6594348 52.2955652,68.6181304 L51.2533913,69.0494348 C48.9525217,70.002913 47.0464348,72.7768261 46.9964348,75.2785652 L46.992087,75.4946522 C46.942087,77.9816087 44.889913,79.9981304 42.4007826,79.9985652 L37.3603478,79.9998696 C34.8746957,80.0007391 32.8194783,77.9998696 32.7690435,75.4976957 L32.7646957,75.2816087 C32.7151304,72.7942174 30.8216522,70.0107391 28.5068696,69.0516087 L27.4646957,68.6203043 C25.1629565,67.6668261 21.8533913,68.2807391 20.0486087,70.0142174 L19.8929565,70.1642174 Z" id="Fill-3" fill="#133055" mask="url(#mask-26)"></path>
                    </g>
                    <path d="M49,63 C49,58.0293121 44.9707841,54 40.0002148,54 C35.0296455,54 31,58.0293121 31,63 C31,67.9706879 35.0296455,72 40.0002148,72 C44.9707841,72 49,67.9706879 49,63" id="Fill-6" fill="#133055"></path>
                    <path d="M120.5,37.4255371 C118.253607,37.4255371 116.425826,39.2533498 116.425826,41.5002178 C116.425826,43.7466502 118.253607,45.5744629 120.5,45.5744629 C122.746393,45.5744629 124.574174,43.7466502 124.574174,41.5002178 C124.574174,39.2533498 122.746393,37.4255371 120.5,37.4255371 M120.5,54 C113.607489,54 108,48.3924134 108,41.5002178 C108,34.6075866 113.607489,29 120.5,29 C127.392511,29 133,34.6075866 133,41.5002178 C133,48.3924134 127.392511,54 120.5,54" id="Fill-8" fill="#133055"></path>
                </g>
            </g>
        </g>
    </g>
</svg>