<svg width="575" height="411" viewBox="0 0 575 411" fill="none" xmlns="http://www.w3.org/2000/svg">
<path fill-rule="evenodd" clip-rule="evenodd" d="M49.0494 15.6008C47.0421 6.67229 39.1351 0 29.6679 0C18.6842 0 9.78016 8.97287 9.78016 20.0415C9.78016 20.6168 9.81851 21.1824 9.8657 21.7453C4.37868 21.741 0 26.1535 0 31.5968C0 37.04 4.37868 41.4525 9.78016 41.4525H50.9544C58.0816 41.4525 63.8593 35.6304 63.8593 28.4479C63.8593 21.2659 58.0816 15.4436 50.9544 15.4436C50.3055 15.4436 49.6726 15.5076 49.0494 15.6008Z" fill="white"/>
<path fill-rule="evenodd" clip-rule="evenodd" d="M554.65 60.1398C551.939 48.0742 541.257 39.0576 528.468 39.0576C513.631 39.0576 501.602 51.1831 501.602 66.1407C501.602 66.9182 501.654 67.6825 501.718 68.4432C494.306 68.4374 488.391 74.4002 488.391 81.756C488.391 89.1117 494.306 95.0745 501.602 95.0745H557.224C566.852 95.0745 574.657 87.2068 574.657 77.5007C574.657 67.7954 566.852 59.9273 557.224 59.9273C556.347 59.9273 555.492 60.0138 554.65 60.1398Z" fill="white"/>
<path fill-rule="evenodd" clip-rule="evenodd" d="M220.144 84.7866L372.706 85.3943L372.43 154.68C373.875 161.302 371.149 168.711 364.27 172.359L304.471 204.07C299.77 206.563 294.14 206.566 289.437 204.078L228.591 171.886C223.061 168.96 220.217 163.616 220.05 158.201L219.852 158.2L220.144 84.7866Z" fill="#009FDA"/>
<path d="M364.564 98.9457C375.894 92.9378 375.958 76.7285 364.677 70.6305L305.132 38.4439C300.452 35.9138 294.822 35.8663 290.099 38.317L228.999 70.0229C217.5 75.9895 217.435 92.4143 228.885 98.4723L289.731 130.664C294.434 133.152 300.064 133.15 304.765 130.657L364.564 98.9457Z" fill="#4BC6F0"/>
<path fill-rule="evenodd" clip-rule="evenodd" d="M297.192 85.0934L220.146 84.7865L219.854 158.2L220.052 158.2C220.219 163.616 223.063 168.96 228.593 171.886L289.439 204.078C291.862 205.36 294.531 205.98 297.192 205.94V85.0934Z" fill="#F2D021"/>
<path d="M364.564 98.9459C375.894 92.9379 375.958 76.7286 364.677 70.6306L305.132 38.444C300.452 35.9139 294.822 35.8664 290.099 38.3171L228.999 70.0231C217.5 75.9896 217.435 92.4144 228.885 98.4724L289.731 130.664C294.434 133.152 300.064 133.15 304.765 130.657L364.564 98.9459Z" fill="#4BC6F0"/>
<path fill-rule="evenodd" clip-rule="evenodd" d="M250.965 162.963V183.087L272.725 195.568V149.979L250.965 162.963Z" fill="#D1B534"/>
<path fill-rule="evenodd" clip-rule="evenodd" d="M345.807 160.951V181.074L324.047 193.555V147.967L345.807 160.951Z" fill="#178DBC"/>
<path fill-rule="evenodd" clip-rule="evenodd" d="M253.6 127.435C261.598 122.728 271.903 125.385 276.618 133.371C281.334 141.357 278.673 151.647 270.674 156.354L199.082 198.492C191.084 203.199 180.777 200.542 176.062 192.555C171.347 184.57 174.009 174.28 182.007 169.572L253.6 127.435Z" fill="white"/>
<path fill-rule="evenodd" clip-rule="evenodd" d="M421.45 171.982C429.529 176.553 432.365 186.795 427.786 194.86C423.208 202.926 412.95 205.759 404.872 201.187L332.572 160.274C324.495 155.703 321.657 145.459 326.236 137.394C330.814 129.329 341.073 126.497 349.151 131.067L421.45 171.982Z" fill="white"/>
<path fill-rule="evenodd" clip-rule="evenodd" d="M355.707 185.617L508.269 186.225L507.993 255.51C509.438 262.133 506.712 269.542 499.833 273.19L440.033 304.901C435.333 307.394 429.703 307.396 424.999 304.908L364.154 272.716C358.624 269.791 355.78 264.447 355.612 259.031L355.414 259.03L355.707 185.617Z" fill="#009FDA"/>
<path d="M500.127 199.776C511.456 193.768 511.521 177.559 500.24 171.461L440.695 139.274C436.014 136.744 430.384 136.697 425.661 139.147L364.561 170.853C353.063 176.82 352.998 193.245 364.448 199.303L425.294 231.495C429.997 233.983 435.627 233.98 440.327 231.487L500.127 199.776Z" fill="#4BC6F0"/>
<path fill-rule="evenodd" clip-rule="evenodd" d="M432.753 185.924L355.707 185.617L355.414 259.03L355.612 259.031C355.78 264.447 358.624 269.791 364.154 272.716L424.999 304.908C427.422 306.19 430.091 306.811 432.753 306.771V185.924Z" fill="#F2D021"/>
<path d="M500.127 199.776C511.456 193.768 511.521 177.559 500.24 171.461L440.695 139.274C436.014 136.744 430.384 136.697 425.661 139.148L364.561 170.853C353.063 176.82 352.998 193.245 364.448 199.303L425.294 231.495C429.997 233.983 435.627 233.98 440.327 231.487L500.127 199.776Z" fill="#4BC6F0"/>
<path d="M362.172 227.429H382.338V282.325L363.292 272.242L362.172 227.429Z" fill="#D1B534"/>
<path fill-rule="evenodd" clip-rule="evenodd" d="M53.2145 180.015L205.776 180.623L205.5 249.908C206.946 256.531 204.22 263.94 197.34 267.588L137.541 299.299C132.84 301.792 127.21 301.795 122.507 299.306L61.6615 267.115C56.1316 264.189 53.2876 258.845 53.1203 253.429L52.9221 253.429L53.2145 180.015Z" fill="#009FDA"/>
<path d="M197.635 194.174C208.964 188.167 209.029 171.957 197.747 165.859L138.203 133.673C133.522 131.143 127.892 131.095 123.169 133.546L62.0689 165.252C50.5708 171.218 50.5053 187.643 61.9556 193.701L122.801 225.893C127.504 228.381 133.135 228.378 137.835 225.886L197.635 194.174Z" fill="#4BC6F0"/>
<path fill-rule="evenodd" clip-rule="evenodd" d="M130.263 180.322L53.2163 180.015L52.9238 253.429L53.122 253.429C53.2893 258.845 56.1333 264.189 61.6633 267.115L122.509 299.306C124.932 300.588 127.601 301.209 130.263 301.169V180.322Z" fill="#F2D021"/>
<path d="M197.635 194.175C208.964 188.167 209.029 171.957 197.747 165.859L138.203 133.673C133.522 131.143 127.892 131.095 123.169 133.546L62.0689 165.252C50.5708 171.218 50.5053 187.643 61.9556 193.701L122.801 225.893C127.504 228.381 133.135 228.379 137.835 225.886L197.635 194.175Z" fill="#4BC6F0"/>
<path fill-rule="evenodd" clip-rule="evenodd" d="M180.231 255.539V275.662L158.471 288.143V242.554L180.231 255.539Z" fill="#178DBC"/>
<path fill-rule="evenodd" clip-rule="evenodd" d="M255.526 264.69C263.676 269.13 266.68 279.326 262.233 287.464C257.787 295.602 247.575 298.6 239.424 294.161L166.469 254.424C158.318 249.984 155.315 239.788 159.761 231.65C164.208 223.512 174.42 220.514 182.571 224.953L255.526 264.69Z" fill="white"/>
<path fill-rule="evenodd" clip-rule="evenodd" d="M357.263 212.957C365.378 208.451 375.613 211.368 380.124 219.471C384.636 227.573 381.714 237.792 373.599 242.296L300.964 282.613C292.849 287.117 282.612 284.201 278.102 276.098C273.59 267.995 276.512 257.776 284.626 253.271L357.263 212.957Z" fill="white"/>
<path fill-rule="evenodd" clip-rule="evenodd" d="M195.498 288.688L348.06 289.296L347.784 358.581C349.229 365.204 346.503 372.613 339.624 376.261L279.824 407.972C275.124 410.465 269.494 410.467 264.79 407.979L203.945 375.788C198.415 372.862 195.571 367.518 195.403 362.102L195.205 362.101L195.498 288.688Z" fill="#009FDA"/>
<path d="M339.918 302.847C351.247 296.839 351.312 280.63 340.031 274.532L280.486 242.346C275.805 239.815 270.175 239.768 265.452 242.219L204.352 273.925C192.854 279.891 192.789 296.316 204.239 302.374L265.085 334.566C269.788 337.054 275.418 337.051 280.118 334.559L339.918 302.847Z" fill="#4BC6F0"/>
<path fill-rule="evenodd" clip-rule="evenodd" d="M272.546 288.995L195.499 288.688L195.207 362.101L195.405 362.102C195.573 367.518 198.417 372.862 203.946 375.787L264.792 407.979C267.215 409.261 269.884 409.882 272.546 409.842V288.995Z" fill="#F2D021"/>
<path d="M339.918 302.847C351.247 296.84 351.312 280.63 340.031 274.532L280.486 242.346C275.805 239.816 270.175 239.768 265.452 242.219L204.352 273.925C192.854 279.891 192.789 296.316 204.239 302.374L265.085 334.566C269.788 337.054 275.418 337.051 280.118 334.559L339.918 302.847Z" fill="#4BC6F0"/>
</svg>
