<?xml version="1.0" encoding="UTF-8"?>
<svg width="117px" height="203px" viewBox="0 0 117 203" version="1.1" xmlns="http://www.w3.org/2000/svg" xmlns:xlink="http://www.w3.org/1999/xlink">
    <!-- Generator: Sketch 54.1 (76490) - https://sketchapp.com -->
    <title>phase2</title>
    <desc>Created with Sketch.</desc>
    <g id="final" stroke="none" stroke-width="1" fill="none" fill-rule="evenodd">
        <g id="Overture/Song-accessible" transform="translate(-26.000000, -118.000000)">
            <g id="progress-bar" transform="translate(27.000000, 115.000000)">
                <g id="phase2">
                    <rect id="Path" fill="#04518C" x="13" y="14" width="3" height="60" rx="1.5"></rect>
                    <rect id="Path" fill="#04518C" x="13" y="74" width="3" height="60" rx="1.5"></rect>
                    <rect id="Path" fill="#04518C" x="13" y="134" width="3" height="54" rx="1.5"></rect>
                    <circle id="active" stroke="#FFFFFF" stroke-width="2" fill="#FFFFFF" cx="14" cy="74" r="14"></circle>
                    <circle id="Oval" stroke="#FFFFFF" fill="#40E6CF" cx="14" cy="14" r="10"></circle>
                    <circle id="Oval" stroke="#FFFFFF" fill="#40E6CF" cx="14" cy="74" r="10"></circle>
                    <circle id="Oval" stroke="#FFFFFF" fill="#40E6CF" cx="14" cy="134" r="10"></circle>
                    <circle id="Oval" stroke="#FFFFFF" fill="#40E6CF" cx="14" cy="194" r="10"></circle>
                    <polygon id="Page-1" fill="#003055" points="16.0806509 12 15.6208918 12.4597591 13.1681054 14.9125455 12.3220028 14.2372255 11.81343 13.8305755 11 14.8474607 11.5084426 15.2542408 12.8101389 16.2955979 13.2657326 16.6575996 13.676548 16.2467843 16.5404101 13.3830523 16.9999089 12.9234234"></polygon>
                    <polygon id="Page-1" fill="#003055" points="16.0806509 72 15.6208918 72.4597591 13.1681054 74.9125455 12.3220028 74.2372255 11.81343 73.8305755 11 74.8474607 11.5084426 75.2542408 12.8101389 76.2955979 13.2657326 76.6575996 13.676548 76.2467843 16.5404101 73.3830523 16.9999089 72.9234234"></polygon>
                    <polygon id="Page-1" fill="#003055" points="16.0806509 132 15.6208918 132.459759 13.1681054 134.912546 12.3220028 134.237225 11.81343 133.830576 11 134.847461 11.5084426 135.254241 12.8101389 136.295598 13.2657326 136.6576 13.676548 136.246784 16.5404101 133.383052 16.9999089 132.923423"></polygon>
                    <polygon id="Page-1" fill="#003055" points="16.0806509 192 15.6208918 192.459759 13.1681054 194.912546 12.3220028 194.237225 11.81343 193.830576 11 194.847461 11.5084426 195.254241 12.8101389 196.295598 13.2657326 196.6576 13.676548 196.246784 16.5404101 193.383052 16.9999089 192.923423"></polygon>
                    <path d="M38.455,189.911 C38.7886683,189.911 39.0792488,189.88075 39.32675,189.82025 C39.5742512,189.75975 39.8098322,189.676334 40.0335,189.57 L40.0335,188.1235 L39.038,188.1235 C38.9426662,188.1235 38.8675003,188.096917 38.8125,188.04375 C38.7574997,187.990583 38.73,187.9255 38.73,187.8485 L38.73,187.0125 L41.3755,187.0125 L41.3755,190.23 C41.1738323,190.376667 40.9639178,190.504083 40.74575,190.61225 C40.5275822,190.720417 40.2947512,190.809333 40.04725,190.879 C39.7997488,190.948667 39.5348347,191.000916 39.2525,191.03575 C38.9701653,191.070584 38.665835,191.088 38.3395,191.088 C37.7601638,191.088 37.2266691,190.987168 36.739,190.7855 C36.2513309,190.583832 35.8296684,190.303335 35.474,189.944 C35.1183316,189.584665 34.8405843,189.155669 34.64075,188.657 C34.4409157,188.158331 34.341,187.613836 34.341,187.0235 C34.341,186.42583 34.4381657,185.877669 34.6325,185.379 C34.8268343,184.880331 35.1027482,184.451335 35.46025,184.092 C35.8177518,183.732665 36.2513308,183.454001 36.761,183.256 C37.2706692,183.057999 37.8426635,182.959 38.477,182.959 C39.1260032,182.959 39.6879143,183.055249 40.16275,183.24775 C40.6375857,183.440251 41.0399983,183.690498 41.37,183.9985 L40.941,184.6695 C40.8566662,184.805167 40.744834,184.873 40.6055,184.873 C40.5174996,184.873 40.4276671,184.843667 40.336,184.785 C40.2186661,184.715333 40.0985839,184.645667 39.97575,184.576 C39.8529161,184.506333 39.7172507,184.445834 39.56875,184.3945 C39.4202493,184.343166 39.2534176,184.301 39.06825,184.268 C38.8830824,184.235 38.6695012,184.2185 38.4275,184.2185 C38.0351647,184.2185 37.6804183,184.284499 37.36325,184.4165 C37.0460817,184.548501 36.7756678,184.737332 36.552,184.983 C36.3283322,185.228668 36.1560006,185.523832 36.035,185.8685 C35.9139994,186.213168 35.8535,186.598165 35.8535,187.0235 C35.8535,187.481836 35.917666,187.889748 36.046,188.24725 C36.174334,188.604752 36.3539988,188.906332 36.585,189.152 C36.8160012,189.397668 37.0909984,189.585583 37.41,189.71575 C37.7290016,189.845917 38.0773314,189.911 38.455,189.911 Z M47.772,183.047 L47.772,184.224 L44.2465,184.224 L44.2465,186.4295 L47.024,186.4295 L47.024,187.568 L44.2465,187.568 L44.2465,189.8175 L47.772,189.8175 L47.772,191 L42.756,191 L42.756,183.047 L47.772,183.047 Z M49.829,183.047 C49.8950003,183.047 49.9499998,183.04975 49.994,183.05525 C50.0380002,183.06075 50.0774165,183.07175 50.11225,183.08825 C50.1470835,183.10475 50.1809998,183.128583 50.214,183.15975 C50.2470002,183.190917 50.2836665,183.232166 50.324,183.2835 L54.4985,188.602 C54.4838333,188.473666 54.47375,188.348084 54.46825,188.22525 C54.46275,188.102416 54.46,187.987834 54.46,187.8815 L54.46,183.047 L55.7635,183.047 L55.7635,191 L54.999,191 C54.8816661,191 54.7845004,190.981667 54.7075,190.945 C54.6304996,190.908333 54.5553337,190.842334 54.482,190.747 L50.324,185.4505 C50.3350001,185.567834 50.34325,185.684249 50.34875,185.79975 C50.35425,185.915251 50.357,186.020666 50.357,186.116 L50.357,191 L49.0535,191 L49.0535,183.047 L49.829,183.047 Z M62.3855,183.047 L62.3855,184.224 L58.86,184.224 L58.86,186.4295 L61.6375,186.4295 L61.6375,187.568 L58.86,187.568 L58.86,189.8175 L62.3855,189.8175 L62.3855,191 L57.3695,191 L57.3695,183.047 L62.3855,183.047 Z M65.196,187.8925 L65.196,191 L63.7165,191 L63.7165,183.047 L66.142,183.047 C66.6846694,183.047 67.1494147,183.102916 67.53625,183.21475 C67.9230853,183.326584 68.2402488,183.483332 68.48775,183.685 C68.7352512,183.886668 68.9167494,184.127749 69.03225,184.40825 C69.1477506,184.688751 69.2055,184.997665 69.2055,185.335 C69.2055,185.602668 69.1660837,185.855665 69.08725,186.094 C69.0084163,186.332335 68.8947507,186.548666 68.74625,186.743 C68.5977493,186.937334 68.4144178,187.107833 68.19625,187.2545 C67.9780822,187.401167 67.7296681,187.5185 67.451,187.6065 C67.6380009,187.712834 67.7993327,187.864999 67.935,188.063 L69.926,191 L68.595,191 C68.466666,191 68.3575838,190.974334 68.26775,190.923 C68.1779162,190.871666 68.1018336,190.798334 68.0395,190.703 L66.3675,188.1565 C66.3051664,188.061166 66.236417,187.993334 66.16125,187.953 C66.086083,187.912666 65.9751674,187.8925 65.8285,187.8925 L65.196,187.8925 Z M65.196,186.831 L66.12,186.831 C66.3986681,186.831 66.6415823,186.796167 66.84875,186.7265 C67.0559177,186.656833 67.226416,186.560584 67.36025,186.43775 C67.494084,186.314916 67.5939997,186.169168 67.66,186.0005 C67.7260003,185.831832 67.759,185.646668 67.759,185.445 C67.759,185.041665 67.6260847,184.731834 67.36025,184.5155 C67.0944153,184.299166 66.6883361,184.191 66.142,184.191 L65.196,184.191 L65.196,186.831 Z M77.8625,191 L76.7185,191 C76.590166,191 76.4847504,190.967917 76.40225,190.90375 C76.3197496,190.839583 76.2601668,190.759834 76.2235,190.6645 L75.6295,189.042 L72.335,189.042 L71.741,190.6645 C71.7116665,190.748834 71.6539171,190.825833 71.56775,190.8955 C71.4815829,190.965167 71.3761673,191 71.2515,191 L70.102,191 L73.226,183.047 L74.7385,183.047 L77.8625,191 Z M72.7145,187.997 L75.25,187.997 L74.282,185.3515 C74.2379998,185.234166 74.1894169,185.095751 74.13625,184.93625 C74.0830831,184.776749 74.0308336,184.603501 73.9795,184.4165 C73.9281664,184.603501 73.8777502,184.777666 73.82825,184.939 C73.7787498,185.100334 73.7301669,185.241499 73.6825,185.3625 L72.7145,187.997 Z M80.1615,189.779 L83.346,189.779 L83.346,191 L78.682,191 L78.682,183.047 L80.1615,183.047 L80.1615,189.779 Z M41.7935,206 L40.6495,206 C40.521166,206 40.4157504,205.967917 40.33325,205.90375 C40.2507496,205.839583 40.1911669,205.759834 40.1545,205.6645 L39.5605,204.042 L36.266,204.042 L35.672,205.6645 C35.6426665,205.748834 35.5849171,205.825833 35.49875,205.8955 C35.4125829,205.965167 35.3071673,206 35.1825,206 L34.033,206 L37.157,198.047 L38.6695,198.047 L41.7935,206 Z M36.6455,202.997 L39.181,202.997 L38.213,200.3515 C38.1689998,200.234166 38.1204169,200.095751 38.06725,199.93625 C38.0140831,199.776749 37.9618336,199.603501 37.9105,199.4165 C37.8591664,199.603501 37.8087502,199.777666 37.75925,199.939 C37.7097498,200.100334 37.6611669,200.241499 37.6135,200.3625 L36.6455,202.997 Z M41.832,198.047 L43.0255,198.047 C43.153834,198.047 43.2583329,198.078166 43.339,198.1405 C43.4196671,198.202834 43.4801665,198.2835 43.5205,198.3825 L45.3905,203.2335 C45.4528336,203.391167 45.5124164,203.564416 45.56925,203.75325 C45.6260836,203.942084 45.6801664,204.140999 45.7315,204.35 C45.8158338,203.928331 45.9203327,203.556168 46.045,203.2335 L47.9095,198.3825 C47.9425002,198.298166 48.0011662,198.221167 48.0855,198.1515 C48.1698338,198.081833 48.2743327,198.047 48.399,198.047 L49.5925,198.047 L46.3805,206 L45.044,206 L41.832,198.047 Z M57.4135,206 L56.2695,206 C56.141166,206 56.0357504,205.967917 55.95325,205.90375 C55.8707496,205.839583 55.8111668,205.759834 55.7745,205.6645 L55.1805,204.042 L51.886,204.042 L51.292,205.6645 C51.2626665,205.748834 51.2049171,205.825833 51.11875,205.8955 C51.0325829,205.965167 50.9271673,206 50.8025,206 L49.653,206 L52.777,198.047 L54.2895,198.047 L57.4135,206 Z M52.2655,202.997 L54.801,202.997 L53.833,200.3515 C53.7889998,200.234166 53.7404169,200.095751 53.68725,199.93625 C53.6340831,199.776749 53.5818336,199.603501 53.5305,199.4165 C53.4791664,199.603501 53.4287502,199.777666 53.37925,199.939 C53.3297498,200.100334 53.2811669,200.241499 53.2335,200.3625 L52.2655,202.997 Z M59.8995,206 L58.4145,206 L58.4145,198.047 L59.8995,198.047 L59.8995,206 Z M63.1665,204.779 L66.351,204.779 L66.351,206 L61.687,206 L61.687,198.047 L63.1665,198.047 L63.1665,204.779 Z M74.3645,206 L73.2205,206 C73.092166,206 72.9867504,205.967917 72.90425,205.90375 C72.8217496,205.839583 72.7621668,205.759834 72.7255,205.6645 L72.1315,204.042 L68.837,204.042 L68.243,205.6645 C68.2136665,205.748834 68.1559171,205.825833 68.06975,205.8955 C67.9835829,205.965167 67.8781673,206 67.7535,206 L66.604,206 L69.728,198.047 L71.2405,198.047 L74.3645,206 Z M69.2165,202.997 L71.752,202.997 L70.784,200.3515 C70.7399998,200.234166 70.6914169,200.095751 70.63825,199.93625 C70.5850831,199.776749 70.5328336,199.603501 70.4815,199.4165 C70.4301664,199.603501 70.3797502,199.777666 70.33025,199.939 C70.2807498,200.100334 70.2321669,200.241499 70.1845,200.3625 L69.2165,202.997 Z M75.184,206 L75.184,198.047 L77.9285,198.047 C78.4491693,198.047 78.8937482,198.0965 79.26225,198.1955 C79.6307518,198.2945 79.9332488,198.435666 80.16975,198.619 C80.4062512,198.802334 80.5794995,199.024165 80.6895,199.2845 C80.7995006,199.544835 80.8545,199.838165 80.8545,200.1645 C80.8545,200.351501 80.8270003,200.530249 80.772,200.70075 C80.7169997,200.871251 80.6317506,201.030749 80.51625,201.17925 C80.4007494,201.327751 80.2540842,201.462499 80.07625,201.5835 C79.8984158,201.704501 79.6866679,201.807166 79.441,201.8915 C80.5336721,202.137168 81.08,202.727495 81.08,203.6625 C81.08,203.999835 81.015834,204.311499 80.8875,204.5975 C80.759166,204.883501 80.5721679,205.130082 80.3265,205.33725 C80.0808321,205.544418 79.7783351,205.706666 79.419,205.824 C79.0596649,205.941334 78.6490023,206 78.187,206 L75.184,206 Z M76.6635,202.513 L76.6635,204.845 L78.165,204.845 C78.4400014,204.845 78.6700824,204.812 78.85525,204.746 C79.0404176,204.68 79.1889161,204.592001 79.30075,204.482 C79.4125839,204.371999 79.4932498,204.243667 79.54275,204.097 C79.5922502,203.950333 79.617,203.794501 79.617,203.6295 C79.617,203.457166 79.5895003,203.302251 79.5345,203.16475 C79.4794997,203.027249 79.3933339,202.909917 79.276,202.81275 C79.1586661,202.715583 79.0083343,202.641334 78.825,202.59 C78.6416658,202.538666 78.4198346,202.513 78.1595,202.513 L76.6635,202.513 Z M76.6635,201.49 L77.846,201.49 C78.3483358,201.49 78.7296654,201.398334 78.99,201.215 C79.2503346,201.031666 79.3805,200.740169 79.3805,200.3405 C79.3805,199.926165 79.2631678,199.631001 79.0285,199.455 C78.7938322,199.278999 78.4271692,199.191 77.9285,199.191 L76.6635,199.191 L76.6635,201.49 Z M84.017,206 L82.532,206 L82.532,198.047 L84.017,198.047 L84.017,206 Z M87.284,204.779 L90.4685,204.779 L90.4685,206 L85.8045,206 L85.8045,198.047 L87.284,198.047 L87.284,204.779 Z M93.158,206 L91.673,206 L91.673,198.047 L93.158,198.047 L93.158,206 Z M100.55,198.047 L100.55,199.2625 L98.1575,199.2625 L98.1575,206 L96.678,206 L96.678,199.2625 L94.2745,199.2625 L94.2745,198.047 L100.55,198.047 Z M105.027,202.909 L105.027,206 L103.5475,206 L103.5475,202.909 L100.649,198.047 L101.9525,198.047 C102.080834,198.047 102.182583,198.078166 102.25775,198.1405 C102.332917,198.202834 102.396166,198.281666 102.4475,198.377 L103.905,201.0335 C103.989334,201.191167 104.062666,201.340583 104.125,201.48175 C104.187334,201.622917 104.244166,201.761333 104.2955,201.897 C104.343167,201.757666 104.39725,201.617417 104.45775,201.47625 C104.51825,201.335083 104.590666,201.187501 104.675,201.0335 L106.1215,198.377 C106.161834,198.296333 106.222333,198.221167 106.303,198.1515 C106.383667,198.081833 106.486333,198.047 106.611,198.047 L107.92,198.047 L105.027,202.909 Z" id="GENERALAVAILABILITY" fill="#003055" fill-rule="nonzero"></path>
                    <path d="M36.332,130.8925 L36.332,134 L34.8525,134 L34.8525,126.047 L37.278,126.047 C37.8206694,126.047 38.2854147,126.102916 38.67225,126.21475 C39.0590853,126.326584 39.3762488,126.483332 39.62375,126.685 C39.8712512,126.886668 40.0527494,127.127749 40.16825,127.40825 C40.2837506,127.688751 40.3415,127.997665 40.3415,128.335 C40.3415,128.602668 40.3020837,128.855665 40.22325,129.094 C40.1444163,129.332335 40.0307507,129.548666 39.88225,129.743 C39.7337493,129.937334 39.5504178,130.107833 39.33225,130.2545 C39.1140822,130.401167 38.8656681,130.5185 38.587,130.6065 C38.7740009,130.712834 38.9353327,130.864999 39.071,131.063 L41.062,134 L39.731,134 C39.602666,134 39.4935838,133.974334 39.40375,133.923 C39.3139162,133.871666 39.2378336,133.798334 39.1755,133.703 L37.5035,131.1565 C37.4411664,131.061166 37.372417,130.993334 37.29725,130.953 C37.222083,130.912666 37.1111674,130.8925 36.9645,130.8925 L36.332,130.8925 Z M36.332,129.831 L37.256,129.831 C37.5346681,129.831 37.7775823,129.796167 37.98475,129.7265 C38.1919177,129.656833 38.362416,129.560584 38.49625,129.43775 C38.630084,129.314916 38.7299997,129.169168 38.796,129.0005 C38.8620003,128.831832 38.895,128.646668 38.895,128.445 C38.895,128.041665 38.7620847,127.731834 38.49625,127.5155 C38.2304153,127.299166 37.8243361,127.191 37.278,127.191 L36.332,127.191 L36.332,129.831 Z M47.024,126.047 L47.024,127.224 L43.4985,127.224 L43.4985,129.4295 L46.276,129.4295 L46.276,130.568 L43.4985,130.568 L43.4985,132.8175 L47.024,132.8175 L47.024,134 L42.008,134 L42.008,126.047 L47.024,126.047 Z M49.785,132.779 L52.9695,132.779 L52.9695,134 L48.3055,134 L48.3055,126.047 L49.785,126.047 L49.785,132.779 Z M59.0085,126.047 L59.0085,127.224 L55.483,127.224 L55.483,129.4295 L58.2605,129.4295 L58.2605,130.568 L55.483,130.568 L55.483,132.8175 L59.0085,132.8175 L59.0085,134 L53.9925,134 L53.9925,126.047 L59.0085,126.047 Z M67.2805,134 L66.1365,134 C66.008166,134 65.9027504,133.967917 65.82025,133.90375 C65.7377496,133.839583 65.6781668,133.759834 65.6415,133.6645 L65.0475,132.042 L61.753,132.042 L61.159,133.6645 C61.1296665,133.748834 61.0719171,133.825833 60.98575,133.8955 C60.8995829,133.965167 60.7941673,134 60.6695,134 L59.52,134 L62.644,126.047 L64.1565,126.047 L67.2805,134 Z M62.1325,130.997 L64.668,130.997 L63.7,128.3515 C63.6559998,128.234166 63.6074169,128.095751 63.55425,127.93625 C63.5010831,127.776749 63.4488336,127.603501 63.3975,127.4165 C63.3461664,127.603501 63.2957502,127.777666 63.24625,127.939 C63.1967498,128.100334 63.1481669,128.241499 63.1005,128.3625 L62.1325,130.997 Z M72.3625,127.4935 C72.3221665,127.574167 72.2754169,127.631 72.22225,127.664 C72.1690831,127.697 72.1058337,127.7135 72.0325,127.7135 C71.9591663,127.7135 71.8766671,127.685084 71.785,127.62825 C71.6933329,127.571416 71.5851673,127.508167 71.4605,127.4385 C71.3358327,127.368833 71.1900842,127.305584 71.02325,127.24875 C70.8564158,127.191916 70.6593345,127.1635 70.432,127.1635 C70.2266656,127.1635 70.0479174,127.18825 69.89575,127.23775 C69.7435826,127.28725 69.6152505,127.356 69.51075,127.444 C69.4062495,127.532 69.3283336,127.637416 69.277,127.76025 C69.2256664,127.883084 69.2,128.017833 69.2,128.1645 C69.2,128.351501 69.2522495,128.507333 69.35675,128.632 C69.4612505,128.756667 69.5996658,128.863 69.772,128.951 C69.9443342,129.039 70.1404989,129.117833 70.3605,129.1875 C70.5805011,129.257167 70.8050822,129.331416 71.03425,129.41025 C71.2634178,129.489084 71.4879989,129.580749 71.708,129.68525 C71.9280011,129.789751 72.1241658,129.921749 72.2965,130.08125 C72.4688342,130.240751 72.6072495,130.435999 72.71175,130.667 C72.8162505,130.898001 72.8685,131.178498 72.8685,131.5085 C72.8685,131.867835 72.8070839,132.204248 72.68425,132.51775 C72.5614161,132.831252 72.3817512,133.104416 72.14525,133.33725 C71.9087488,133.570084 71.6200017,133.753416 71.279,133.88725 C70.9379983,134.021084 70.5475022,134.088 70.1075,134.088 C69.8544987,134.088 69.6051679,134.06325 69.3595,134.01375 C69.1138321,133.96425 68.8782511,133.893667 68.65275,133.802 C68.4272489,133.710333 68.2164176,133.600334 68.02025,133.472 C67.8240824,133.343666 67.6490008,133.200667 67.495,133.043 L67.924,132.3335 C67.9643335,132.282166 68.0129164,132.239084 68.06975,132.20425 C68.1265836,132.169416 68.189833,132.152 68.2595,132.152 C68.3511671,132.152 68.4501661,132.189583 68.5565,132.26475 C68.6628339,132.339917 68.7884159,132.423333 68.93325,132.515 C69.0780841,132.606667 69.2485824,132.690083 69.44475,132.76525 C69.6409176,132.840417 69.8764986,132.878 70.1515,132.878 C70.5731688,132.878 70.8994988,132.778084 71.1305,132.57825 C71.3615012,132.378416 71.477,132.091502 71.477,131.7175 C71.477,131.508499 71.4247505,131.338001 71.32025,131.206 C71.2157495,131.073999 71.0773342,130.963084 70.905,130.87325 C70.7326658,130.783416 70.5365011,130.707334 70.3165,130.645 C70.0964989,130.582666 69.8728345,130.514834 69.6455,130.4415 C69.4181655,130.368166 69.1945011,130.280167 68.9745,130.1775 C68.7544989,130.074833 68.5583342,129.941001 68.386,129.776 C68.2136658,129.610999 68.0752505,129.404751 67.97075,129.15725 C67.8662495,128.909749 67.814,128.604502 67.814,128.2415 C67.814,127.951832 67.8717494,127.669501 67.98725,127.3945 C68.1027506,127.119499 68.2714156,126.875668 68.49325,126.663 C68.7150844,126.450332 68.9873317,126.279834 69.31,126.1515 C69.6326683,126.023166 70.0011646,125.959 70.4155,125.959 C70.8848357,125.959 71.317498,126.032333 71.7135,126.179 C72.109502,126.325667 72.4468319,126.530999 72.7255,126.795 L72.3625,127.4935 Z M79.0175,126.047 L79.0175,127.224 L75.492,127.224 L75.492,129.4295 L78.2695,129.4295 L78.2695,130.568 L75.492,130.568 L75.492,132.8175 L79.0175,132.8175 L79.0175,134 L74.0015,134 L74.0015,126.047 L79.0175,126.047 Z M40.27,145.1245 C40.3506671,145.1245 40.420333,145.155666 40.479,145.218 L41.062,145.8505 C40.7393317,146.250169 40.342419,146.556332 39.87125,146.769 C39.400081,146.981668 38.8345033,147.088 38.1745,147.088 C37.5841637,147.088 37.053419,146.987168 36.58225,146.7855 C36.111081,146.583832 35.7086683,146.303335 35.375,145.944 C35.0413317,145.584665 34.7855842,145.155669 34.60775,144.657 C34.4299158,144.158331 34.341,143.613836 34.341,143.0235 C34.341,142.42583 34.439999,141.878586 34.638,141.38175 C34.836001,140.884914 35.1146649,140.456835 35.474,140.0975 C35.8333351,139.738165 36.2632475,139.458584 36.76375,139.25875 C37.2642525,139.058916 37.816997,138.959 38.422,138.959 C39.0123363,138.959 39.5284145,139.053416 39.97025,139.24225 C40.4120855,139.431084 40.7906651,139.681332 41.106,139.993 L40.611,140.6805 C40.5816665,140.7245 40.5440836,140.763 40.49825,140.796 C40.4524164,140.829 40.3891671,140.8455 40.3085,140.8455 C40.2241662,140.8455 40.1380004,140.8125 40.05,140.7465 C39.9619996,140.6805 39.8501673,140.609 39.7145,140.532 C39.5788327,140.455 39.4074177,140.3835 39.20025,140.3175 C38.9930823,140.2515 38.7300016,140.2185 38.411,140.2185 C38.0369981,140.2185 37.6932516,140.283583 37.37975,140.41375 C37.0662484,140.543917 36.7967511,140.729999 36.57125,140.972 C36.3457489,141.214001 36.1697506,141.508248 36.04325,141.85475 C35.9167494,142.201252 35.8535,142.590831 35.8535,143.0235 C35.8535,143.470836 35.9167494,143.868665 36.04325,144.217 C36.1697506,144.565335 36.3411656,144.858665 36.5575,145.097 C36.7738344,145.335335 37.0286652,145.517749 37.322,145.64425 C37.6153348,145.770751 37.930665,145.834 38.268,145.834 C38.4696677,145.834 38.6520825,145.823 38.81525,145.801 C38.9784175,145.779 39.1287493,145.744167 39.26625,145.6965 C39.4037507,145.648833 39.5339161,145.587417 39.65675,145.51225 C39.7795839,145.437083 39.9014994,145.344501 40.0225,145.2345 C40.0591668,145.2015 40.0976665,145.174917 40.138,145.15475 C40.1783335,145.134583 40.2223331,145.1245 40.27,145.1245 Z M49.169,147 L48.025,147 C47.896666,147 47.7912504,146.967917 47.70875,146.90375 C47.6262496,146.839583 47.5666668,146.759834 47.53,146.6645 L46.936,145.042 L43.6415,145.042 L43.0475,146.6645 C43.0181665,146.748834 42.9604171,146.825833 42.87425,146.8955 C42.7880829,146.965167 42.6826673,147 42.558,147 L41.4085,147 L44.5325,139.047 L46.045,139.047 L49.169,147 Z M44.021,143.997 L46.5565,143.997 L45.5885,141.3515 C45.5444998,141.234166 45.4959169,141.095751 45.44275,140.93625 C45.3895831,140.776749 45.3373336,140.603501 45.286,140.4165 C45.2346664,140.603501 45.1842502,140.777666 45.13475,140.939 C45.0852498,141.100334 45.0366669,141.241499 44.989,141.3625 L44.021,143.997 Z M50.764,139.047 C50.8300003,139.047 50.8849998,139.04975 50.929,139.05525 C50.9730002,139.06075 51.0124165,139.07175 51.04725,139.08825 C51.0820835,139.10475 51.1159998,139.128583 51.149,139.15975 C51.1820002,139.190917 51.2186665,139.232166 51.259,139.2835 L55.4335,144.602 C55.4188333,144.473666 55.40875,144.348084 55.40325,144.22525 C55.39775,144.102416 55.395,143.987834 55.395,143.8815 L55.395,139.047 L56.6985,139.047 L56.6985,147 L55.934,147 C55.8166661,147 55.7195004,146.981667 55.6425,146.945 C55.5654996,146.908333 55.4903337,146.842334 55.417,146.747 L51.259,141.4505 C51.2700001,141.567834 51.27825,141.684249 51.28375,141.79975 C51.28925,141.915251 51.292,142.020666 51.292,142.116 L51.292,147 L49.9885,147 L49.9885,139.047 L50.764,139.047 Z M65.3665,143.0235 C65.3665,143.606503 65.2693343,144.141831 65.075,144.6295 C64.8806657,145.117169 64.6075018,145.536998 64.2555,145.889 C63.9034982,146.241002 63.4800025,146.514166 62.985,146.7085 C62.4899975,146.902834 61.9418363,147 61.3405,147 L58.3045,147 L58.3045,139.047 L61.3405,139.047 C61.9418363,139.047 62.4899975,139.145082 62.985,139.34125 C63.4800025,139.537418 63.9034982,139.810582 64.2555,140.16075 C64.6075018,140.510918 64.8806657,140.929831 65.075,141.4175 C65.2693343,141.905169 65.3665,142.440497 65.3665,143.0235 Z M63.854,143.0235 C63.854,142.587164 63.7953339,142.195752 63.678,141.84925 C63.5606661,141.502748 63.3938344,141.209418 63.1775,140.96925 C62.9611656,140.729082 62.6980849,140.544834 62.38825,140.4165 C62.0784151,140.288166 61.7291686,140.224 61.3405,140.224 L59.795,140.224 L59.795,145.823 L61.3405,145.823 C61.7291686,145.823 62.0784151,145.758834 62.38825,145.6305 C62.6980849,145.502166 62.9611656,145.317918 63.1775,145.07775 C63.3938344,144.837582 63.5606661,144.544252 63.678,144.19775 C63.7953339,143.851248 63.854,143.459836 63.854,143.0235 Z M68.1935,147 L66.7085,147 L66.7085,139.047 L68.1935,139.047 L68.1935,147 Z M77.043,143.0235 C77.043,143.606503 76.9458343,144.141831 76.7515,144.6295 C76.5571657,145.117169 76.2840018,145.536998 75.932,145.889 C75.5799982,146.241002 75.1565025,146.514166 74.6615,146.7085 C74.1664975,146.902834 73.6183363,147 73.017,147 L69.981,147 L69.981,139.047 L73.017,139.047 C73.6183363,139.047 74.1664975,139.145082 74.6615,139.34125 C75.1565025,139.537418 75.5799982,139.810582 75.932,140.16075 C76.2840018,140.510918 76.5571657,140.929831 76.7515,141.4175 C76.9458343,141.905169 77.043,142.440497 77.043,143.0235 Z M75.5305,143.0235 C75.5305,142.587164 75.4718339,142.195752 75.3545,141.84925 C75.2371661,141.502748 75.0703344,141.209418 74.854,140.96925 C74.6376656,140.729082 74.3745849,140.544834 74.06475,140.4165 C73.7549151,140.288166 73.4056686,140.224 73.017,140.224 L71.4715,140.224 L71.4715,145.823 L73.017,145.823 C73.4056686,145.823 73.7549151,145.758834 74.06475,145.6305 C74.3745849,145.502166 74.6376656,145.317918 74.854,145.07775 C75.0703344,144.837582 75.2371661,144.544252 75.3545,144.19775 C75.4718339,143.851248 75.5305,143.459836 75.5305,143.0235 Z M85.194,147 L84.05,147 C83.921666,147 83.8162504,146.967917 83.73375,146.90375 C83.6512496,146.839583 83.5916668,146.759834 83.555,146.6645 L82.961,145.042 L79.6665,145.042 L79.0725,146.6645 C79.0431665,146.748834 78.9854171,146.825833 78.89925,146.8955 C78.8130829,146.965167 78.7076673,147 78.583,147 L77.4335,147 L80.5575,139.047 L82.07,139.047 L85.194,147 Z M80.046,143.997 L82.5815,143.997 L81.6135,141.3515 C81.5694998,141.234166 81.5209169,141.095751 81.46775,140.93625 C81.4145831,140.776749 81.3623336,140.603501 81.311,140.4165 C81.2596664,140.603501 81.2092502,140.777666 81.15975,140.939 C81.1102498,141.100334 81.0616669,141.241499 81.014,141.3625 L80.046,143.997 Z M91.618,139.047 L91.618,140.2625 L89.2255,140.2625 L89.2255,147 L87.746,147 L87.746,140.2625 L85.3425,140.2625 L85.3425,139.047 L91.618,139.047 Z M97.5745,139.047 L97.5745,140.224 L94.049,140.224 L94.049,142.4295 L96.8265,142.4295 L96.8265,143.568 L94.049,143.568 L94.049,145.8175 L97.5745,145.8175 L97.5745,147 L92.5585,147 L92.5585,139.047 L97.5745,139.047 Z" id="RELEASECANDIDATE" fill="#003055" fill-rule="nonzero"></path>
                    <path d="M38.004,10.8065 C38.2900014,10.8065 38.5457489,10.7588338 38.77125,10.6635 C38.9967511,10.5681662 39.1874159,10.4343342 39.34325,10.262 C39.4990841,10.0896658 39.6182496,9.8806679 39.70075,9.635 C39.7832504,9.38933211 39.8245,9.11433486 39.8245,8.81 L39.8245,4.047 L41.304,4.047 L41.304,8.81 C41.304,9.28300237 41.2279174,9.72024799 41.07575,10.12175 C40.9235826,10.523252 40.7045014,10.8697485 40.4185,11.16125 C40.1324986,11.4527515 39.786002,11.6800825 39.379,11.84325 C38.971998,12.0064175 38.5136692,12.088 38.004,12.088 C37.4943308,12.088 37.036002,12.0064175 36.629,11.84325 C36.221998,11.6800825 35.8764181,11.4527515 35.59225,11.16125 C35.3080819,10.8697485 35.0899174,10.523252 34.93775,10.12175 C34.7855826,9.72024799 34.7095,9.28300237 34.7095,8.81 L34.7095,4.047 L36.189,4.047 L36.189,8.8045 C36.189,9.10883485 36.2302496,9.38383211 36.31275,9.6295 C36.3952504,9.87516789 36.5134992,10.0850825 36.6675,10.25925 C36.8215008,10.4334175 37.0112489,10.5681662 37.23675,10.6635 C37.4622511,10.7588338 37.7179986,10.8065 38.004,10.8065 Z M43.5865,4.047 C43.6525003,4.047 43.7074998,4.04974997 43.7515,4.05525 C43.7955002,4.06075003 43.8349165,4.07174992 43.86975,4.08825 C43.9045835,4.10475008 43.9384998,4.12858318 43.9715,4.15975 C44.0045002,4.19091682 44.0411665,4.23216641 44.0815,4.2835 L48.256,9.602 C48.2413333,9.47366602 48.23125,9.34808395 48.22575,9.22525 C48.22025,9.10241605 48.2175,8.98783386 48.2175,8.8815 L48.2175,4.047 L49.521,4.047 L49.521,12 L48.7565,12 C48.6391661,12 48.5420004,11.9816668 48.465,11.945 C48.3879996,11.9083332 48.3128337,11.8423338 48.2395,11.747 L44.0815,6.4505 C44.0925001,6.56783392 44.10075,6.68424942 44.10625,6.79975 C44.11175,6.91525058 44.1145,7.02066619 44.1145,7.116 L44.1145,12 L42.811,12 L42.811,4.047 L43.5865,4.047 Z M58.189,8.0235 C58.189,8.60650292 58.0918343,9.1418309 57.8975,9.6295 C57.7031657,10.1171691 57.4300018,10.5369982 57.078,10.889 C56.7259982,11.2410018 56.3025025,11.5141657 55.8075,11.7085 C55.3124975,11.9028343 54.7643363,12 54.163,12 L51.127,12 L51.127,4.047 L54.163,4.047 C54.7643363,4.047 55.3124975,4.14508235 55.8075,4.34125 C56.3025025,4.53741765 56.7259982,4.81058158 57.078,5.16075 C57.4300018,5.51091842 57.7031657,5.9298309 57.8975,6.4175 C58.0918343,6.9051691 58.189,7.44049708 58.189,8.0235 Z M56.6765,8.0235 C56.6765,7.58716449 56.6178339,7.19575173 56.5005,6.84925 C56.3831661,6.50274827 56.2163344,6.20941787 56,5.96925 C55.7836656,5.72908213 55.5205849,5.54483398 55.21075,5.4165 C54.9009151,5.28816603 54.5516686,5.224 54.163,5.224 L52.6175,5.224 L52.6175,10.823 L54.163,10.823 C54.5516686,10.823 54.9009151,10.758834 55.21075,10.6305 C55.5205849,10.502166 55.7836656,10.3179179 56,10.07775 C56.2163344,9.83758213 56.3831661,9.54425173 56.5005,9.19775 C56.6178339,8.85124827 56.6765,8.45983551 56.6765,8.0235 Z M64.3655,4.047 L64.3655,5.224 L60.84,5.224 L60.84,7.4295 L63.6175,7.4295 L63.6175,8.568 L60.84,8.568 L60.84,10.8175 L64.3655,10.8175 L64.3655,12 L59.3495,12 L59.3495,4.047 L64.3655,4.047 Z M67.176,8.8925 L67.176,12 L65.6965,12 L65.6965,4.047 L68.122,4.047 C68.6646694,4.047 69.1294147,4.10291611 69.51625,4.21475 C69.9030853,4.32658389 70.2202488,4.48333232 70.46775,4.685 C70.7152512,4.88666767 70.8967494,5.1277486 71.01225,5.40825 C71.1277506,5.6887514 71.1855,5.99766498 71.1855,6.335 C71.1855,6.602668 71.1460837,6.85566548 71.06725,7.094 C70.9884163,7.33233453 70.8747507,7.5486657 70.72625,7.743 C70.5777493,7.93733431 70.3944178,8.1078326 70.17625,8.2545 C69.9580822,8.4011674 69.7096681,8.51849956 69.431,8.6065 C69.6180009,8.71283386 69.7793327,8.86499901 69.915,9.063 L71.906,12 L70.575,12 C70.446666,12 70.3375838,11.9743336 70.24775,11.923 C70.1579162,11.8716664 70.0818336,11.7983338 70.0195,11.703 L68.3475,9.1565 C68.2851664,9.06116619 68.216417,8.99333354 68.14125,8.953 C68.066083,8.91266647 67.9551674,8.8925 67.8085,8.8925 L67.176,8.8925 Z M67.176,7.831 L68.1,7.831 C68.3786681,7.831 68.6215823,7.79616702 68.82875,7.7265 C69.0359177,7.65683299 69.206416,7.56058395 69.34025,7.43775 C69.474084,7.31491605 69.5739997,7.16916751 69.64,7.0005 C69.7060003,6.83183249 69.739,6.64666768 69.739,6.445 C69.739,6.04166465 69.6060847,5.73183442 69.34025,5.5155 C69.0744153,5.29916559 68.6683361,5.191 68.122,5.191 L67.176,5.191 L67.176,7.831 Z M41.865,23.0235 C41.865,23.6065029 41.7678343,24.1418309 41.5735,24.6295 C41.3791657,25.1171691 41.1060018,25.5369982 40.754,25.889 C40.4019982,26.2410018 39.9785025,26.5141657 39.4835,26.7085 C38.9884975,26.9028343 38.4403363,27 37.839,27 L34.803,27 L34.803,19.047 L37.839,19.047 C38.4403363,19.047 38.9884975,19.1450824 39.4835,19.34125 C39.9785025,19.5374176 40.4019982,19.8105816 40.754,20.16075 C41.1060018,20.5109184 41.3791657,20.9298309 41.5735,21.4175 C41.7678343,21.9051691 41.865,22.4404971 41.865,23.0235 Z M40.3525,23.0235 C40.3525,22.5871645 40.2938339,22.1957517 40.1765,21.84925 C40.0591661,21.5027483 39.8923344,21.2094179 39.676,20.96925 C39.4596656,20.7290821 39.1965849,20.544834 38.88675,20.4165 C38.5769151,20.288166 38.2276686,20.224 37.839,20.224 L36.2935,20.224 L36.2935,25.823 L37.839,25.823 C38.2276686,25.823 38.5769151,25.758834 38.88675,25.6305 C39.1965849,25.502166 39.4596656,25.3179179 39.676,25.07775 C39.8923344,24.8375821 40.0591661,24.5442517 40.1765,24.19775 C40.2938339,23.8512483 40.3525,23.4598355 40.3525,23.0235 Z M48.0415,19.047 L48.0415,20.224 L44.516,20.224 L44.516,22.4295 L47.2935,22.4295 L47.2935,23.568 L44.516,23.568 L44.516,25.8175 L48.0415,25.8175 L48.0415,27 L43.0255,27 L43.0255,19.047 L48.0415,19.047 Z M48.542,19.047 L49.7355,19.047 C49.863834,19.047 49.9683329,19.0781664 50.049,19.1405 C50.1296671,19.2028336 50.1901665,19.2834995 50.2305,19.3825 L52.1005,24.2335 C52.1628336,24.3911675 52.2224164,24.5644157 52.27925,24.75325 C52.3360836,24.9420843 52.3901664,25.140999 52.4415,25.35 C52.5258338,24.9283312 52.6303327,24.5561683 52.755,24.2335 L54.6195,19.3825 C54.6525002,19.2981662 54.7111662,19.221167 54.7955,19.1515 C54.8798338,19.081833 54.9843327,19.047 55.109,19.047 L56.3025,19.047 L53.0905,27 L51.754,27 L48.542,19.047 Z M62.149,19.047 L62.149,20.224 L58.6235,20.224 L58.6235,22.4295 L61.401,22.4295 L61.401,23.568 L58.6235,23.568 L58.6235,25.8175 L62.149,25.8175 L62.149,27 L57.133,27 L57.133,19.047 L62.149,19.047 Z M64.91,25.779 L68.0945,25.779 L68.0945,27 L63.4305,27 L63.4305,19.047 L64.91,19.047 L64.91,25.779 Z M76.746,23.0235 C76.746,23.6065029 76.6488343,24.1464142 76.4545,24.64325 C76.2601657,25.1400858 75.9870018,25.5699982 75.635,25.933 C75.2829982,26.2960018 74.8595025,26.579249 74.3645,26.78275 C73.8694975,26.986251 73.3213363,27.088 72.72,27.088 C72.1186637,27.088 71.5695858,26.986251 71.07275,26.78275 C70.5759142,26.579249 70.1505851,26.2960018 69.79675,25.933 C69.4429149,25.5699982 69.1688343,25.1400858 68.9745,24.64325 C68.7801657,24.1464142 68.683,23.6065029 68.683,23.0235 C68.683,22.4404971 68.7801657,21.9005858 68.9745,21.40375 C69.1688343,20.9069142 69.4429149,20.4770018 69.79675,20.114 C70.1505851,19.7509982 70.5759142,19.467751 71.07275,19.26425 C71.5695858,19.060749 72.1186637,18.959 72.72,18.959 C73.3213363,18.959 73.8694975,19.0616656 74.3645,19.267 C74.8595025,19.4723344 75.2829982,19.7555815 75.635,20.11675 C75.9870018,20.4779185 76.2601657,20.9069142 76.4545,21.40375 C76.6488343,21.9005858 76.746,22.4404971 76.746,23.0235 Z M75.228,23.0235 C75.228,22.5871645 75.1702506,22.1957517 75.05475,21.84925 C74.9392494,21.5027483 74.7733344,21.2085012 74.557,20.9665 C74.3406656,20.7244988 74.0775849,20.539334 73.76775,20.411 C73.4579151,20.282666 73.1086686,20.2185 72.72,20.2185 C72.3313314,20.2185 71.9811682,20.282666 71.6695,20.411 C71.3578318,20.539334 71.0929178,20.7244988 70.87475,20.9665 C70.6565822,21.2085012 70.4888339,21.5027483 70.3715,21.84925 C70.2541661,22.1957517 70.1955,22.5871645 70.1955,23.0235 C70.1955,23.4598355 70.2541661,23.8512483 70.3715,24.19775 C70.4888339,24.5442517 70.6565822,24.8375821 70.87475,25.07775 C71.0929178,25.3179179 71.3578318,25.502166 71.6695,25.6305 C71.9811682,25.758834 72.3313314,25.823 72.72,25.823 C73.1086686,25.823 73.4579151,25.758834 73.76775,25.6305 C74.0775849,25.502166 74.3406656,25.3179179 74.557,25.07775 C74.7733344,24.8375821 74.9392494,24.5442517 75.05475,24.19775 C75.1702506,23.8512483 75.228,23.4598355 75.228,23.0235 Z M79.441,24.2005 L79.441,27 L77.9615,27 L77.9615,19.047 L80.552,19.047 C81.0836693,19.047 81.5438314,19.1093327 81.9325,19.234 C82.3211686,19.3586673 82.6419987,19.5328322 82.895,19.7565 C83.1480013,19.9801678 83.3349994,20.2478318 83.456,20.5595 C83.5770006,20.8711682 83.6375,21.2121648 83.6375,21.5825 C83.6375,21.9675019 83.573334,22.3204151 83.445,22.64125 C83.316666,22.9620849 83.1241679,23.2379988 82.8675,23.469 C82.610832,23.7000012 82.2900019,23.879666 81.905,24.008 C81.5199981,24.136334 81.0690026,24.2005 80.552,24.2005 L79.441,24.2005 Z M79.441,23.0455 L80.552,23.0455 C80.8233347,23.0455 81.0598323,23.0115837 81.2615,22.94375 C81.4631677,22.8759163 81.6299993,22.7787506 81.762,22.65225 C81.8940007,22.5257494 81.9929997,22.3717509 82.059,22.19025 C82.1250003,22.0087491 82.158,21.8061678 82.158,21.5825 C82.158,21.3698323 82.1250003,21.1773342 82.059,21.005 C81.9929997,20.8326658 81.8940007,20.6860006 81.762,20.565 C81.6299993,20.4439994 81.4631677,20.351417 81.2615,20.28725 C81.0598323,20.223083 80.8233347,20.191 80.552,20.191 L79.441,20.191 L79.441,23.0455 Z M88.78,23.7 C88.8423336,23.8173339 88.9000831,23.9392494 88.95325,24.06575 C89.0064169,24.1922506 89.0586664,24.319666 89.11,24.448 C89.1613336,24.3159993 89.2144997,24.185834 89.2695,24.0575 C89.3245003,23.929166 89.3831664,23.8063339 89.4455,23.689 L91.7995,19.2835 C91.8288335,19.2284997 91.8590832,19.1845002 91.89025,19.1515 C91.9214168,19.1184998 91.9562498,19.0946667 91.99475,19.08 C92.0332502,19.0653333 92.0763331,19.0561667 92.124,19.0525 C92.1716669,19.0488333 92.2284997,19.047 92.2945,19.047 L93.411,19.047 L93.411,27 L92.1075,27 L92.1075,21.863 C92.1075,21.7676662 92.11025,21.6631672 92.11575,21.5495 C92.12125,21.4358328 92.1294999,21.3203339 92.1405,21.203 L89.737,25.713 C89.6819997,25.8156672 89.6105004,25.8954164 89.5225,25.95225 C89.4344996,26.0090836 89.3318339,26.0375 89.2145,26.0375 L89.011,26.0375 C88.8936661,26.0375 88.7910004,26.0090836 88.703,25.95225 C88.6149996,25.8954164 88.5435003,25.8156672 88.4885,25.713 L86.052,21.1865 C86.0666667,21.3075006 86.07675,21.4257494 86.08225,21.54125 C86.08775,21.6567506 86.0905,21.7639995 86.0905,21.863 L86.0905,27 L84.787,27 L84.787,19.047 L85.9035,19.047 C85.9695003,19.047 86.0263331,19.0488333 86.074,19.0525 C86.1216669,19.0561667 86.1647498,19.0653333 86.20325,19.08 C86.2417502,19.0946667 86.2774998,19.1184998 86.3105,19.1515 C86.3435002,19.1845002 86.3746665,19.2284997 86.404,19.2835 L88.78,23.7 Z M100.033,19.047 L100.033,20.224 L96.5075,20.224 L96.5075,22.4295 L99.285,22.4295 L99.285,23.568 L96.5075,23.568 L96.5075,25.8175 L100.033,25.8175 L100.033,27 L95.017,27 L95.017,19.047 L100.033,19.047 Z M102.09,19.047 C102.156,19.047 102.211,19.04975 102.255,19.05525 C102.299,19.06075 102.338416,19.0717499 102.37325,19.08825 C102.408084,19.1047501 102.442,19.1285832 102.475,19.15975 C102.508,19.1909168 102.544666,19.2321664 102.585,19.2835 L106.7595,24.602 C106.744833,24.473666 106.73475,24.3480839 106.72925,24.22525 C106.72375,24.1024161 106.721,23.9878339 106.721,23.8815 L106.721,19.047 L108.0245,19.047 L108.0245,27 L107.26,27 C107.142666,27 107.0455,26.9816668 106.9685,26.945 C106.8915,26.9083331 106.816334,26.8423338 106.743,26.747 L102.585,21.4505 C102.596,21.5678339 102.60425,21.6842494 102.60975,21.79975 C102.61525,21.9152506 102.618,22.0206662 102.618,22.116 L102.618,27 L101.3145,27 L101.3145,19.047 L102.09,19.047 Z M115.235,19.047 L115.235,20.2625 L112.8425,20.2625 L112.8425,27 L111.363,27 L111.363,20.2625 L108.9595,20.2625 L108.9595,19.047 L115.235,19.047 Z" id="UNDERDEVELOPMENT" fill="#003055" fill-rule="nonzero"></path>
                    <path d="M34.66,79 L34.66,70.9865 L37.608,70.9865 C38.1616694,70.9865 38.6328314,71.0378328 39.0215,71.1405 C39.4101686,71.2431672 39.7273321,71.3879991 39.973,71.575 C40.2186679,71.7620009 40.3974161,71.989332 40.50925,72.257 C40.6210839,72.524668 40.677,72.8234983 40.677,73.1535 C40.677,73.3331676 40.6513336,73.5064158 40.6,73.67325 C40.5486664,73.8400842 40.4680005,73.9968326 40.358,74.1435 C40.2479995,74.2901674 40.1068342,74.4230827 39.9345,74.54225 C39.7621658,74.6614173 39.5550012,74.7649996 39.313,74.853 C39.8410026,74.981334 40.2314987,75.1894152 40.4845,75.47725 C40.7375013,75.7650848 40.864,76.1344977 40.864,76.5855 C40.864,76.9265017 40.7980007,77.2436652 40.666,77.537 C40.5339993,77.8303348 40.3405846,78.0860822 40.08575,78.30425 C39.8309154,78.5224178 39.5165019,78.6929161 39.1425,78.81575 C38.7684981,78.9385839 38.3413357,79 37.861,79 L34.66,79 Z M36.519,75.601 L36.519,77.5975 L37.828,77.5975 C38.0736679,77.5975 38.2744159,77.5663336 38.43025,77.504 C38.5860841,77.4416664 38.7079996,77.3610005 38.796,77.262 C38.8840004,77.1629995 38.9444998,77.0511673 38.9775,76.9265 C39.0105002,76.8018327 39.027,76.675334 39.027,76.547 C39.027,76.4003326 39.0077502,76.2683339 38.96925,76.151 C38.9307498,76.0336661 38.8647505,75.9346671 38.77125,75.854 C38.6777495,75.7733329 38.5540008,75.7110002 38.4,75.667 C38.2459992,75.6229998 38.0516678,75.601 37.817,75.601 L36.519,75.601 Z M36.519,74.358 L37.487,74.358 C37.6923344,74.358 37.8774992,74.3433335 38.0425,74.314 C38.2075008,74.2846665 38.3477494,74.2333337 38.46325,74.16 C38.5787506,74.0866663 38.6667497,73.985834 38.72725,73.8575 C38.7877503,73.729166 38.818,73.5678343 38.818,73.3735 C38.818,73.1828324 38.7941669,73.0242506 38.7465,72.89775 C38.6988331,72.7712494 38.6255005,72.6695004 38.5265,72.5925 C38.4274995,72.5154996 38.3019174,72.4605002 38.14975,72.4275 C37.9975826,72.3944998 37.817001,72.378 37.608,72.378 L36.519,72.378 L36.519,74.358 Z M47.035,70.9865 L47.035,72.4165 L43.746,72.4165 L43.746,74.2865 L46.265,74.2865 L46.265,75.6615 L43.746,75.6615 L43.746,77.57 L47.035,77.57 L47.035,79 L41.876,79 L41.876,70.9865 L47.035,70.9865 Z M53.91,70.9865 L53.91,72.4605 L51.655,72.4605 L51.655,79 L49.796,79 L49.796,72.4605 L47.541,72.4605 L47.541,70.9865 L53.91,70.9865 Z M62.138,79 L60.697,79 C60.5356659,79 60.4027505,78.962417 60.29825,78.88725 C60.1937495,78.812083 60.1213335,78.7158339 60.081,78.5985 L59.608,77.2015 L56.561,77.2015 L56.088,78.5985 C56.0513332,78.7011672 55.9798339,78.7937496 55.8735,78.87625 C55.7671661,78.9587504 55.6370008,79 55.483,79 L54.031,79 L57.133,70.9865 L59.036,70.9865 L62.138,79 Z M56.99,75.9365 L59.179,75.9365 L58.442,73.742 C58.3943331,73.602666 58.338417,73.4385843 58.27425,73.24975 C58.210083,73.0609157 58.1468336,72.8565011 58.0845,72.6365 C58.025833,72.8601678 57.9653336,73.0673324 57.903,73.258 C57.8406664,73.4486676 57.7820003,73.613666 57.727,73.753 L56.99,75.9365 Z" id="BETA" fill="#003055" fill-rule="nonzero"></path>
                </g>
            </g>
        </g>
    </g>
</svg>