<?xml version="1.0" encoding="UTF-8"?>
<svg width="327px" height="62px" viewBox="0 0 327 62" version="1.1" xmlns="http://www.w3.org/2000/svg" xmlns:xlink="http://www.w3.org/1999/xlink">
    <!-- Generator: Sketch 54.1 (76490) - https://sketchapp.com -->
    <title>phase2</title>
    <desc>Created with Sketch.</desc>
    <g id="final" stroke="none" stroke-width="1" fill="none" fill-rule="evenodd">
        <g id="Overture/Song-accessible" transform="translate(-32.000000, -114.000000)">
            <g id="progress-bar-horizontal" transform="translate(21.000000, 115.000000)">
                <g id="phases">
                    <g id="phase2">
                        <rect id="Path-Copy" fill="#04518C" x="51" y="13" width="252" height="3" rx="1.5"></rect>
                        <g id="1" transform="translate(0.000000, 4.000000)">
                            <circle id="Oval" stroke="#FFFFFF" fill="#40E6CF" cx="51" cy="10" r="10"></circle>
                            <polygon id="Page-1" fill="#003055" points="53.0806509 8 52.6208918 8.45975914 50.1681054 10.9125455 49.3220028 10.2372255 48.81343 9.83057555 48 10.8474607 48.5084426 11.2542408 49.8101389 12.2955979 50.2657326 12.6575996 50.676548 12.2467843 53.5404101 9.38305235 53.9999089 8.92342337"></polygon>
                            <path d="M35.9795,39.8065 C36.2655014,39.8065 36.5212489,39.7588338 36.74675,39.6635 C36.9722511,39.5681662 37.1629159,39.4343342 37.31875,39.262 C37.4745841,39.0896658 37.5937496,38.8806679 37.67625,38.635 C37.7587504,38.3893321 37.8,38.1143349 37.8,37.81 L37.8,33.047 L39.2795,33.047 L39.2795,37.81 C39.2795,38.2830024 39.2034174,38.720248 39.05125,39.12175 C38.8990826,39.523252 38.6800014,39.8697485 38.394,40.16125 C38.1079986,40.4527515 37.761502,40.6800825 37.3545,40.84325 C36.947498,41.0064175 36.4891692,41.088 35.9795,41.088 C35.4698308,41.088 35.011502,41.0064175 34.6045,40.84325 C34.197498,40.6800825 33.8519181,40.4527515 33.56775,40.16125 C33.2835819,39.8697485 33.0654174,39.523252 32.91325,39.12175 C32.7610826,38.720248 32.685,38.2830024 32.685,37.81 L32.685,33.047 L34.1645,33.047 L34.1645,37.8045 C34.1645,38.1088349 34.2057496,38.3838321 34.28825,38.6295 C34.3707504,38.8751679 34.4889992,39.0850825 34.643,39.25925 C34.7970008,39.4334175 34.9867489,39.5681662 35.21225,39.6635 C35.4377511,39.7588338 35.6934986,39.8065 35.9795,39.8065 Z M41.562,33.047 C41.6280003,33.047 41.6829998,33.04975 41.727,33.05525 C41.7710002,33.06075 41.8104165,33.0717499 41.84525,33.08825 C41.8800835,33.1047501 41.9139998,33.1285832 41.947,33.15975 C41.9800002,33.1909168 42.0166665,33.2321664 42.057,33.2835 L46.2315,38.602 C46.2168333,38.473666 46.20675,38.3480839 46.20125,38.22525 C46.19575,38.1024161 46.193,37.9878339 46.193,37.8815 L46.193,33.047 L47.4965,33.047 L47.4965,41 L46.732,41 C46.6146661,41 46.5175004,40.9816668 46.4405,40.945 C46.3634996,40.9083332 46.2883337,40.8423338 46.215,40.747 L42.057,35.4505 C42.0680001,35.5678339 42.07625,35.6842494 42.08175,35.79975 C42.08725,35.9152506 42.09,36.0206662 42.09,36.116 L42.09,41 L40.7865,41 L40.7865,33.047 L41.562,33.047 Z M56.1645,37.0235 C56.1645,37.6065029 56.0673343,38.1418309 55.873,38.6295 C55.6786657,39.1171691 55.4055018,39.5369982 55.0535,39.889 C54.7014982,40.2410018 54.2780025,40.5141657 53.783,40.7085 C53.2879975,40.9028343 52.7398363,41 52.1385,41 L49.1025,41 L49.1025,33.047 L52.1385,33.047 C52.7398363,33.047 53.2879975,33.1450824 53.783,33.34125 C54.2780025,33.5374176 54.7014982,33.8105816 55.0535,34.16075 C55.4055018,34.5109184 55.6786657,34.9298309 55.873,35.4175 C56.0673343,35.9051691 56.1645,36.4404971 56.1645,37.0235 Z M54.652,37.0235 C54.652,36.5871645 54.5933339,36.1957517 54.476,35.84925 C54.3586661,35.5027483 54.1918344,35.2094179 53.9755,34.96925 C53.7591656,34.7290821 53.4960849,34.544834 53.18625,34.4165 C52.8764151,34.288166 52.5271686,34.224 52.1385,34.224 L50.593,34.224 L50.593,39.823 L52.1385,39.823 C52.5271686,39.823 52.8764151,39.758834 53.18625,39.6305 C53.4960849,39.502166 53.7591656,39.3179179 53.9755,39.07775 C54.1918344,38.8375821 54.3586661,38.5442517 54.476,38.19775 C54.5933339,37.8512483 54.652,37.4598355 54.652,37.0235 Z M62.341,33.047 L62.341,34.224 L58.8155,34.224 L58.8155,36.4295 L61.593,36.4295 L61.593,37.568 L58.8155,37.568 L58.8155,39.8175 L62.341,39.8175 L62.341,41 L57.325,41 L57.325,33.047 L62.341,33.047 Z M65.1515,37.8925 L65.1515,41 L63.672,41 L63.672,33.047 L66.0975,33.047 C66.6401694,33.047 67.1049147,33.1029161 67.49175,33.21475 C67.8785853,33.3265839 68.1957488,33.4833323 68.44325,33.685 C68.6907512,33.8866677 68.8722494,34.1277486 68.98775,34.40825 C69.1032506,34.6887514 69.161,34.997665 69.161,35.335 C69.161,35.602668 69.1215837,35.8556655 69.04275,36.094 C68.9639163,36.3323345 68.8502507,36.5486657 68.70175,36.743 C68.5532493,36.9373343 68.3699178,37.1078326 68.15175,37.2545 C67.9335822,37.4011674 67.6851681,37.5184996 67.4065,37.6065 C67.5935009,37.7128339 67.7548327,37.864999 67.8905,38.063 L69.8815,41 L68.5505,41 C68.422166,41 68.3130838,40.9743336 68.22325,40.923 C68.1334162,40.8716664 68.0573336,40.7983338 67.995,40.703 L66.323,38.1565 C66.2606664,38.0611662 66.191917,37.9933335 66.11675,37.953 C66.041583,37.9126665 65.9306674,37.8925 65.784,37.8925 L65.1515,37.8925 Z M65.1515,36.831 L66.0755,36.831 C66.3541681,36.831 66.5970823,36.796167 66.80425,36.7265 C67.0114177,36.656833 67.181916,36.5605839 67.31575,36.43775 C67.449584,36.3149161 67.5494997,36.1691675 67.6155,36.0005 C67.6815003,35.8318325 67.7145,35.6466677 67.7145,35.445 C67.7145,35.0416647 67.5815847,34.7318344 67.31575,34.5155 C67.0499153,34.2991656 66.6438361,34.191 66.0975,34.191 L65.1515,34.191 L65.1515,36.831 Z M18.17875,52.0235 C18.17875,52.6065029 18.0815843,53.1418309 17.88725,53.6295 C17.6929157,54.1171691 17.4197518,54.5369982 17.06775,54.889 C16.7157482,55.2410018 16.2922525,55.5141657 15.79725,55.7085 C15.3022475,55.9028343 14.7540863,56 14.15275,56 L11.11675,56 L11.11675,48.047 L14.15275,48.047 C14.7540863,48.047 15.3022475,48.1450824 15.79725,48.34125 C16.2922525,48.5374176 16.7157482,48.8105816 17.06775,49.16075 C17.4197518,49.5109184 17.6929157,49.9298309 17.88725,50.4175 C18.0815843,50.9051691 18.17875,51.4404971 18.17875,52.0235 Z M16.66625,52.0235 C16.66625,51.5871645 16.6075839,51.1957517 16.49025,50.84925 C16.3729161,50.5027483 16.2060844,50.2094179 15.98975,49.96925 C15.7734156,49.7290821 15.5103349,49.544834 15.2005,49.4165 C14.8906651,49.288166 14.5414186,49.224 14.15275,49.224 L12.60725,49.224 L12.60725,54.823 L14.15275,54.823 C14.5414186,54.823 14.8906651,54.758834 15.2005,54.6305 C15.5103349,54.502166 15.7734156,54.3179179 15.98975,54.07775 C16.2060844,53.8375821 16.3729161,53.5442517 16.49025,53.19775 C16.6075839,52.8512483 16.66625,52.4598355 16.66625,52.0235 Z M24.35525,48.047 L24.35525,49.224 L20.82975,49.224 L20.82975,51.4295 L23.60725,51.4295 L23.60725,52.568 L20.82975,52.568 L20.82975,54.8175 L24.35525,54.8175 L24.35525,56 L19.33925,56 L19.33925,48.047 L24.35525,48.047 Z M24.85575,48.047 L26.04925,48.047 C26.177584,48.047 26.2820829,48.0781664 26.36275,48.1405 C26.4434171,48.2028336 26.5039165,48.2834995 26.54425,48.3825 L28.41425,53.2335 C28.4765836,53.3911675 28.5361664,53.5644157 28.593,53.75325 C28.6498336,53.9420843 28.7039164,54.140999 28.75525,54.35 C28.8395838,53.9283312 28.9440827,53.5561683 29.06875,53.2335 L30.93325,48.3825 C30.9662502,48.2981662 31.0249162,48.221167 31.10925,48.1515 C31.1935838,48.081833 31.2980827,48.047 31.42275,48.047 L32.61625,48.047 L29.40425,56 L28.06775,56 L24.85575,48.047 Z M38.46275,48.047 L38.46275,49.224 L34.93725,49.224 L34.93725,51.4295 L37.71475,51.4295 L37.71475,52.568 L34.93725,52.568 L34.93725,54.8175 L38.46275,54.8175 L38.46275,56 L33.44675,56 L33.44675,48.047 L38.46275,48.047 Z M41.22375,54.779 L44.40825,54.779 L44.40825,56 L39.74425,56 L39.74425,48.047 L41.22375,48.047 L41.22375,54.779 Z M53.05975,52.0235 C53.05975,52.6065029 52.9625843,53.1464142 52.76825,53.64325 C52.5739157,54.1400858 52.3007518,54.5699982 51.94875,54.933 C51.5967482,55.2960018 51.1732525,55.579249 50.67825,55.78275 C50.1832475,55.986251 49.6350863,56.088 49.03375,56.088 C48.4324137,56.088 47.8833358,55.986251 47.3865,55.78275 C46.8896642,55.579249 46.4643351,55.2960018 46.1105,54.933 C45.7566649,54.5699982 45.4825843,54.1400858 45.28825,53.64325 C45.0939157,53.1464142 44.99675,52.6065029 44.99675,52.0235 C44.99675,51.4404971 45.0939157,50.9005858 45.28825,50.40375 C45.4825843,49.9069142 45.7566649,49.4770018 46.1105,49.114 C46.4643351,48.7509982 46.8896642,48.467751 47.3865,48.26425 C47.8833358,48.060749 48.4324137,47.959 49.03375,47.959 C49.6350863,47.959 50.1832475,48.0616656 50.67825,48.267 C51.1732525,48.4723344 51.5967482,48.7555815 51.94875,49.11675 C52.3007518,49.4779185 52.5739157,49.9069142 52.76825,50.40375 C52.9625843,50.9005858 53.05975,51.4404971 53.05975,52.0235 Z M51.54175,52.0235 C51.54175,51.5871645 51.4840006,51.1957517 51.3685,50.84925 C51.2529994,50.5027483 51.0870844,50.2085012 50.87075,49.9665 C50.6544156,49.7244988 50.3913349,49.539334 50.0815,49.411 C49.7716651,49.282666 49.4224186,49.2185 49.03375,49.2185 C48.6450814,49.2185 48.2949182,49.282666 47.98325,49.411 C47.6715818,49.539334 47.4066678,49.7244988 47.1885,49.9665 C46.9703322,50.2085012 46.8025839,50.5027483 46.68525,50.84925 C46.5679161,51.1957517 46.50925,51.5871645 46.50925,52.0235 C46.50925,52.4598355 46.5679161,52.8512483 46.68525,53.19775 C46.8025839,53.5442517 46.9703322,53.8375821 47.1885,54.07775 C47.4066678,54.3179179 47.6715818,54.502166 47.98325,54.6305 C48.2949182,54.758834 48.6450814,54.823 49.03375,54.823 C49.4224186,54.823 49.7716651,54.758834 50.0815,54.6305 C50.3913349,54.502166 50.6544156,54.3179179 50.87075,54.07775 C51.0870844,53.8375821 51.2529994,53.5442517 51.3685,53.19775 C51.4840006,52.8512483 51.54175,52.4598355 51.54175,52.0235 Z M55.75475,53.2005 L55.75475,56 L54.27525,56 L54.27525,48.047 L56.86575,48.047 C57.3974193,48.047 57.8575814,48.1093327 58.24625,48.234 C58.6349186,48.3586673 58.9557487,48.5328322 59.20875,48.7565 C59.4617513,48.9801678 59.6487494,49.2478318 59.76975,49.5595 C59.8907506,49.8711682 59.95125,50.2121648 59.95125,50.5825 C59.95125,50.9675019 59.887084,51.3204151 59.75875,51.64125 C59.630416,51.9620849 59.4379179,52.2379988 59.18125,52.469 C58.924582,52.7000012 58.6037519,52.879666 58.21875,53.008 C57.8337481,53.136334 57.3827526,53.2005 56.86575,53.2005 L55.75475,53.2005 Z M55.75475,52.0455 L56.86575,52.0455 C57.1370847,52.0455 57.3735823,52.0115837 57.57525,51.94375 C57.7769177,51.8759163 57.9437493,51.7787506 58.07575,51.65225 C58.2077507,51.5257494 58.3067497,51.3717509 58.37275,51.19025 C58.4387503,51.0087491 58.47175,50.8061678 58.47175,50.5825 C58.47175,50.3698323 58.4387503,50.1773342 58.37275,50.005 C58.3067497,49.8326658 58.2077507,49.6860006 58.07575,49.565 C57.9437493,49.4439994 57.7769177,49.351417 57.57525,49.28725 C57.3735823,49.223083 57.1370847,49.191 56.86575,49.191 L55.75475,49.191 L55.75475,52.0455 Z M65.09375,52.7 C65.1560836,52.8173339 65.2138331,52.9392494 65.267,53.06575 C65.3201669,53.1922506 65.3724164,53.319666 65.42375,53.448 C65.4750836,53.3159993 65.5282497,53.185834 65.58325,53.0575 C65.6382503,52.929166 65.6969164,52.8063339 65.75925,52.689 L68.11325,48.2835 C68.1425835,48.2284997 68.1728332,48.1845002 68.204,48.1515 C68.2351668,48.1184998 68.2699998,48.0946667 68.3085,48.08 C68.3470002,48.0653333 68.3900831,48.0561667 68.43775,48.0525 C68.4854169,48.0488333 68.5422497,48.047 68.60825,48.047 L69.72475,48.047 L69.72475,56 L68.42125,56 L68.42125,50.863 C68.42125,50.7676662 68.424,50.6631672 68.4295,50.5495 C68.435,50.4358328 68.4432499,50.3203339 68.45425,50.203 L66.05075,54.713 C65.9957497,54.8156672 65.9242504,54.8954164 65.83625,54.95225 C65.7482496,55.0090836 65.6455839,55.0375 65.52825,55.0375 L65.32475,55.0375 C65.2074161,55.0375 65.1047504,55.0090836 65.01675,54.95225 C64.9287496,54.8954164 64.8572503,54.8156672 64.80225,54.713 L62.36575,50.1865 C62.3804167,50.3075006 62.3905,50.4257494 62.396,50.54125 C62.4015,50.6567506 62.40425,50.7639995 62.40425,50.863 L62.40425,56 L61.10075,56 L61.10075,48.047 L62.21725,48.047 C62.2832503,48.047 62.3400831,48.0488333 62.38775,48.0525 C62.4354169,48.0561667 62.4784998,48.0653333 62.517,48.08 C62.5555002,48.0946667 62.5912498,48.1184998 62.62425,48.1515 C62.6572502,48.1845002 62.6884165,48.2284997 62.71775,48.2835 L65.09375,52.7 Z M76.34675,48.047 L76.34675,49.224 L72.82125,49.224 L72.82125,51.4295 L75.59875,51.4295 L75.59875,52.568 L72.82125,52.568 L72.82125,54.8175 L76.34675,54.8175 L76.34675,56 L71.33075,56 L71.33075,48.047 L76.34675,48.047 Z M78.40375,48.047 C78.4697503,48.047 78.5247498,48.04975 78.56875,48.05525 C78.6127502,48.06075 78.6521665,48.0717499 78.687,48.08825 C78.7218335,48.1047501 78.7557498,48.1285832 78.78875,48.15975 C78.8217502,48.1909168 78.8584165,48.2321664 78.89875,48.2835 L83.07325,53.602 C83.0585833,53.473666 83.0485,53.3480839 83.043,53.22525 C83.0375,53.1024161 83.03475,52.9878339 83.03475,52.8815 L83.03475,48.047 L84.33825,48.047 L84.33825,56 L83.57375,56 C83.4564161,56 83.3592504,55.9816668 83.28225,55.945 C83.2052496,55.9083332 83.1300837,55.8423338 83.05675,55.747 L78.89875,50.4505 C78.9097501,50.5678339 78.918,50.6842494 78.9235,50.79975 C78.929,50.9152506 78.93175,51.0206662 78.93175,51.116 L78.93175,56 L77.62825,56 L77.62825,48.047 L78.40375,48.047 Z M91.54875,48.047 L91.54875,49.2625 L89.15625,49.2625 L89.15625,56 L87.67675,56 L87.67675,49.2625 L85.27325,49.2625 L85.27325,48.047 L91.54875,48.047 Z" id="UNDERDEVELOPMENT" fill="#003055" fill-rule="nonzero"></path>
                        </g>
                        <g id="2" transform="translate(37.000000, 0.000000)">
                            <circle id="active" stroke="#FFFFFF" stroke-width="2" fill="#FFFFFF" cx="100" cy="14" r="14"></circle>
                            <circle id="Oval" stroke="#FFFFFF" fill="#40E6CF" cx="100" cy="14" r="10"></circle>
                            <polygon id="Page-1" fill="#003055" points="102.080651 12 101.620892 12.4597591 99.1681054 14.9125455 98.3220028 14.2372255 97.81343 13.8305755 97 14.8474607 97.5084426 15.2542408 98.8101389 16.2955979 99.2657326 16.6575996 99.676548 16.2467843 102.54041 13.3830523 102.999909 12.9234234"></polygon>
                            <path d="M86.5965,44 L86.5965,35.9865 L89.5445,35.9865 C90.0981694,35.9865 90.5693314,36.0378328 90.958,36.1405 C91.3466686,36.2431672 91.6638321,36.3879991 91.9095,36.575 C92.1551679,36.7620009 92.3339161,36.989332 92.44575,37.257 C92.5575839,37.524668 92.6135,37.8234984 92.6135,38.1535 C92.6135,38.3331676 92.5878336,38.5064158 92.5365,38.67325 C92.4851664,38.8400842 92.4045005,38.9968326 92.2945,39.1435 C92.1844995,39.2901674 92.0433342,39.4230827 91.871,39.54225 C91.6986658,39.6614173 91.4915012,39.7649996 91.2495,39.853 C91.7775026,39.981334 92.1679987,40.1894152 92.421,40.47725 C92.6740013,40.7650848 92.8005,41.1344977 92.8005,41.5855 C92.8005,41.9265017 92.7345007,42.2436652 92.6025,42.537 C92.4704993,42.8303348 92.2770846,43.0860822 92.02225,43.30425 C91.7674154,43.5224178 91.4530019,43.6929161 91.079,43.81575 C90.7049981,43.9385839 90.2778357,44 89.7975,44 L86.5965,44 Z M88.4555,40.601 L88.4555,42.5975 L89.7645,42.5975 C90.0101679,42.5975 90.2109159,42.5663336 90.36675,42.504 C90.5225841,42.4416664 90.6444996,42.3610005 90.7325,42.262 C90.8205004,42.1629995 90.8809998,42.0511673 90.914,41.9265 C90.9470002,41.8018327 90.9635,41.675334 90.9635,41.547 C90.9635,41.4003326 90.9442502,41.2683339 90.90575,41.151 C90.8672498,41.0336661 90.8012505,40.9346671 90.70775,40.854 C90.6142495,40.7733329 90.4905008,40.7110002 90.3365,40.667 C90.1824992,40.6229998 89.9881678,40.601 89.7535,40.601 L88.4555,40.601 Z M88.4555,39.358 L89.4235,39.358 C89.6288344,39.358 89.8139992,39.3433335 89.979,39.314 C90.1440008,39.2846665 90.2842494,39.2333337 90.39975,39.16 C90.5152506,39.0866663 90.6032497,38.985834 90.66375,38.8575 C90.7242503,38.729166 90.7545,38.5678343 90.7545,38.3735 C90.7545,38.1828324 90.7306669,38.0242506 90.683,37.89775 C90.6353331,37.7712494 90.5620005,37.6695004 90.463,37.5925 C90.3639995,37.5154996 90.2384174,37.4605002 90.08625,37.4275 C89.9340826,37.3944998 89.753501,37.378 89.5445,37.378 L88.4555,37.378 L88.4555,39.358 Z M98.9715,35.9865 L98.9715,37.4165 L95.6825,37.4165 L95.6825,39.2865 L98.2015,39.2865 L98.2015,40.6615 L95.6825,40.6615 L95.6825,42.57 L98.9715,42.57 L98.9715,44 L93.8125,44 L93.8125,35.9865 L98.9715,35.9865 Z M105.8465,35.9865 L105.8465,37.4605 L103.5915,37.4605 L103.5915,44 L101.7325,44 L101.7325,37.4605 L99.4775,37.4605 L99.4775,35.9865 L105.8465,35.9865 Z M114.0745,44 L112.6335,44 C112.472166,44 112.339251,43.962417 112.23475,43.88725 C112.130249,43.812083 112.057834,43.7158339 112.0175,43.5985 L111.5445,42.2015 L108.4975,42.2015 L108.0245,43.5985 C107.987833,43.7011672 107.916334,43.7937496 107.81,43.87625 C107.703666,43.9587504 107.573501,44 107.4195,44 L105.9675,44 L109.0695,35.9865 L110.9725,35.9865 L114.0745,44 Z M108.9265,40.9365 L111.1155,40.9365 L110.3785,38.742 C110.330833,38.602666 110.274917,38.4385843 110.21075,38.24975 C110.146583,38.0609157 110.083334,37.8565011 110.021,37.6365 C109.962333,37.8601678 109.901834,38.0673324 109.8395,38.258 C109.777166,38.4486676 109.7185,38.613666 109.6635,38.753 L108.9265,40.9365 Z" id="BETA" fill="#003055" fill-rule="nonzero"></path>
                        </g>
                        <g id="3" transform="translate(174.000000, 4.000000)">
                            <circle id="Oval" stroke="#FFFFFF" fill="#40E6CF" cx="41" cy="10" r="10"></circle>
                            <polygon id="Page-1" fill="#003055" points="43.0806509 8 42.6208918 8.45975914 40.1681054 10.9125455 39.3220028 10.2372255 38.81343 9.83057555 38 10.8474607 38.5084426 11.2542408 39.8101389 12.2955979 40.2657326 12.6575996 40.676548 12.2467843 43.5404101 9.38305235 43.9999089 8.92342337"></polygon>
                            <path d="M20.584,37.8925 L20.584,41 L19.1045,41 L19.1045,33.047 L21.53,33.047 C22.0726694,33.047 22.5374147,33.1029161 22.92425,33.21475 C23.3110853,33.3265839 23.6282488,33.4833323 23.87575,33.685 C24.1232512,33.8866677 24.3047494,34.1277486 24.42025,34.40825 C24.5357506,34.6887514 24.5935,34.997665 24.5935,35.335 C24.5935,35.602668 24.5540837,35.8556655 24.47525,36.094 C24.3964163,36.3323345 24.2827507,36.5486657 24.13425,36.743 C23.9857493,36.9373343 23.8024178,37.1078326 23.58425,37.2545 C23.3660822,37.4011674 23.1176681,37.5184996 22.839,37.6065 C23.0260009,37.7128339 23.1873327,37.864999 23.323,38.063 L25.314,41 L23.983,41 C23.854666,41 23.7455838,40.9743336 23.65575,40.923 C23.5659162,40.8716664 23.4898336,40.7983338 23.4275,40.703 L21.7555,38.1565 C21.6931664,38.0611662 21.624417,37.9933335 21.54925,37.953 C21.474083,37.9126665 21.3631674,37.8925 21.2165,37.8925 L20.584,37.8925 Z M20.584,36.831 L21.508,36.831 C21.7866681,36.831 22.0295823,36.796167 22.23675,36.7265 C22.4439177,36.656833 22.614416,36.5605839 22.74825,36.43775 C22.882084,36.3149161 22.9819997,36.1691675 23.048,36.0005 C23.1140003,35.8318325 23.147,35.6466677 23.147,35.445 C23.147,35.0416647 23.0140847,34.7318344 22.74825,34.5155 C22.4824153,34.2991656 22.0763361,34.191 21.53,34.191 L20.584,34.191 L20.584,36.831 Z M31.276,33.047 L31.276,34.224 L27.7505,34.224 L27.7505,36.4295 L30.528,36.4295 L30.528,37.568 L27.7505,37.568 L27.7505,39.8175 L31.276,39.8175 L31.276,41 L26.26,41 L26.26,33.047 L31.276,33.047 Z M34.037,39.779 L37.2215,39.779 L37.2215,41 L32.5575,41 L32.5575,33.047 L34.037,33.047 L34.037,39.779 Z M43.2605,33.047 L43.2605,34.224 L39.735,34.224 L39.735,36.4295 L42.5125,36.4295 L42.5125,37.568 L39.735,37.568 L39.735,39.8175 L43.2605,39.8175 L43.2605,41 L38.2445,41 L38.2445,33.047 L43.2605,33.047 Z M51.5325,41 L50.3885,41 C50.260166,41 50.1547504,40.967917 50.07225,40.90375 C49.9897496,40.839583 49.9301668,40.7598338 49.8935,40.6645 L49.2995,39.042 L46.005,39.042 L45.411,40.6645 C45.3816665,40.7488338 45.3239171,40.825833 45.23775,40.8955 C45.1515829,40.965167 45.0461673,41 44.9215,41 L43.772,41 L46.896,33.047 L48.4085,33.047 L51.5325,41 Z M46.3845,37.997 L48.92,37.997 L47.952,35.3515 C47.9079998,35.2341661 47.8594169,35.0957508 47.80625,34.93625 C47.7530831,34.7767492 47.7008336,34.6035009 47.6495,34.4165 C47.5981664,34.6035009 47.5477502,34.7776659 47.49825,34.939 C47.4487498,35.1003341 47.4001669,35.2414994 47.3525,35.3625 L46.3845,37.997 Z M56.6145,34.4935 C56.5741665,34.5741671 56.5274169,34.6309998 56.47425,34.664 C56.4210831,34.6970002 56.3578337,34.7135 56.2845,34.7135 C56.2111663,34.7135 56.1286671,34.6850836 56.037,34.62825 C55.9453329,34.5714164 55.8371673,34.508167 55.7125,34.4385 C55.5878327,34.368833 55.4420842,34.3055836 55.27525,34.24875 C55.1084158,34.1919164 54.9113345,34.1635 54.684,34.1635 C54.4786656,34.1635 54.2999174,34.1882498 54.14775,34.23775 C53.9955826,34.2872502 53.8672505,34.3559996 53.76275,34.444 C53.6582495,34.5320004 53.5803336,34.6374161 53.529,34.76025 C53.4776664,34.8830839 53.452,35.0178326 53.452,35.1645 C53.452,35.3515009 53.5042495,35.5073327 53.60875,35.632 C53.7132505,35.7566673 53.8516658,35.8629996 54.024,35.951 C54.1963342,36.0390004 54.3924989,36.117833 54.6125,36.1875 C54.8325011,36.257167 55.0570822,36.3314163 55.28625,36.41025 C55.5154178,36.4890837 55.7399989,36.5807495 55.96,36.68525 C56.1800011,36.7897505 56.3761658,36.9217492 56.5485,37.08125 C56.7208342,37.2407508 56.8592495,37.4359988 56.96375,37.667 C57.0682505,37.8980012 57.1205,38.1784983 57.1205,38.5085 C57.1205,38.8678351 57.0590839,39.2042484 56.93625,39.51775 C56.8134161,39.8312516 56.6337512,40.1044155 56.39725,40.33725 C56.1607488,40.5700845 55.8720017,40.753416 55.531,40.88725 C55.1899983,41.021084 54.7995022,41.088 54.3595,41.088 C54.1064987,41.088 53.8571679,41.0632502 53.6115,41.01375 C53.3658321,40.9642498 53.1302511,40.8936671 52.90475,40.802 C52.6792489,40.7103329 52.4684176,40.600334 52.27225,40.472 C52.0760824,40.343666 51.9010008,40.2006675 51.747,40.043 L52.176,39.3335 C52.2163335,39.2821664 52.2649164,39.2390835 52.32175,39.20425 C52.3785836,39.1694165 52.441833,39.152 52.5115,39.152 C52.6031671,39.152 52.7021661,39.189583 52.8085,39.26475 C52.9148339,39.339917 53.0404159,39.4233329 53.18525,39.515 C53.3300841,39.6066671 53.5005824,39.690083 53.69675,39.76525 C53.8929176,39.840417 54.1284986,39.878 54.4035,39.878 C54.8251688,39.878 55.1514988,39.7780843 55.3825,39.57825 C55.6135012,39.3784157 55.729,39.0915019 55.729,38.7175 C55.729,38.508499 55.6767505,38.3380007 55.57225,38.206 C55.4677495,38.0739993 55.3293342,37.9630838 55.157,37.87325 C54.9846658,37.7834162 54.7885011,37.7073336 54.5685,37.645 C54.3484989,37.5826664 54.1248345,37.5148337 53.8975,37.4415 C53.6701655,37.3681663 53.4465011,37.2801672 53.2265,37.1775 C53.0064989,37.0748328 52.8103342,36.9410008 52.638,36.776 C52.4656658,36.6109992 52.3272505,36.4047512 52.22275,36.15725 C52.1182495,35.9097488 52.066,35.6045018 52.066,35.2415 C52.066,34.9518319 52.1237494,34.6695014 52.23925,34.3945 C52.3547506,34.1194986 52.5234156,33.8756677 52.74525,33.663 C52.9670844,33.4503323 53.2393317,33.279834 53.562,33.1515 C53.8846683,33.023166 54.2531646,32.959 54.6675,32.959 C55.1368357,32.959 55.569498,33.0323326 55.9655,33.179 C56.361502,33.3256674 56.6988319,33.5309987 56.9775,33.795 L56.6145,34.4935 Z M63.2695,33.047 L63.2695,34.224 L59.744,34.224 L59.744,36.4295 L62.5215,36.4295 L62.5215,37.568 L59.744,37.568 L59.744,39.8175 L63.2695,39.8175 L63.2695,41 L58.2535,41 L58.2535,33.047 L63.2695,33.047 Z M15.2435,54.1245 C15.3241671,54.1245 15.393833,54.1556664 15.4525,54.218 L16.0355,54.8505 C15.7128317,55.2501687 15.315919,55.5563323 14.84475,55.769 C14.373581,55.9816677 13.8080033,56.088 13.148,56.088 C12.5576637,56.088 12.026919,55.9871677 11.55575,55.7855 C11.084581,55.5838323 10.6821683,55.3033351 10.3485,54.944 C10.0148317,54.5846649 9.75908422,54.1556692 9.58125,53.657 C9.40341578,53.1583308 9.3145,52.6138363 9.3145,52.0235 C9.3145,51.4258303 9.41349901,50.8785858 9.6115,50.38175 C9.80950099,49.8849142 10.0881649,49.4568351 10.4475,49.0975 C10.8068351,48.7381649 11.2367475,48.4585843 11.73725,48.25875 C12.2377525,48.0589157 12.790497,47.959 13.3955,47.959 C13.9858363,47.959 14.5019145,48.0534157 14.94375,48.24225 C15.3855855,48.4310843 15.7641651,48.6813318 16.0795,48.993 L15.5845,49.6805 C15.5551665,49.7245002 15.5175836,49.7629998 15.47175,49.796 C15.4259164,49.8290002 15.3626671,49.8455 15.282,49.8455 C15.1976662,49.8455 15.1115004,49.8125003 15.0235,49.7465 C14.9354996,49.6804997 14.8236673,49.6090004 14.688,49.532 C14.5523327,49.4549996 14.3809177,49.3835003 14.17375,49.3175 C13.9665823,49.2514997 13.7035016,49.2185 13.3845,49.2185 C13.0104981,49.2185 12.6667516,49.2835827 12.35325,49.41375 C12.0397484,49.5439173 11.7702511,49.7299988 11.54475,49.972 C11.3192489,50.2140012 11.1432506,50.5082483 11.01675,50.85475 C10.8902494,51.2012517 10.827,51.5908312 10.827,52.0235 C10.827,52.4708356 10.8902494,52.8686649 11.01675,53.217 C11.1432506,53.5653351 11.3146656,53.8586655 11.531,54.097 C11.7473344,54.3353345 12.0021652,54.5177494 12.2955,54.64425 C12.5888348,54.7707506 12.904165,54.834 13.2415,54.834 C13.4431677,54.834 13.6255825,54.8230001 13.78875,54.801 C13.9519175,54.7789999 14.1022493,54.7441669 14.23975,54.6965 C14.3772507,54.6488331 14.5074161,54.587417 14.63025,54.51225 C14.7530839,54.437083 14.8749994,54.3445005 14.996,54.2345 C15.0326669,54.2014998 15.0711665,54.1749168 15.1115,54.15475 C15.1518335,54.1345832 15.1958331,54.1245 15.2435,54.1245 Z M24.1425,56 L22.9985,56 C22.870166,56 22.7647504,55.967917 22.68225,55.90375 C22.5997496,55.839583 22.5401668,55.7598338 22.5035,55.6645 L21.9095,54.042 L18.615,54.042 L18.021,55.6645 C17.9916665,55.7488338 17.9339171,55.825833 17.84775,55.8955 C17.7615829,55.965167 17.6561673,56 17.5315,56 L16.382,56 L19.506,48.047 L21.0185,48.047 L24.1425,56 Z M18.9945,52.997 L21.53,52.997 L20.562,50.3515 C20.5179998,50.2341661 20.4694169,50.0957508 20.41625,49.93625 C20.3630831,49.7767492 20.3108336,49.6035009 20.2595,49.4165 C20.2081664,49.6035009 20.1577502,49.7776659 20.10825,49.939 C20.0587498,50.1003341 20.0101669,50.2414994 19.9625,50.3625 L18.9945,52.997 Z M25.7375,48.047 C25.8035003,48.047 25.8584998,48.04975 25.9025,48.05525 C25.9465002,48.06075 25.9859165,48.0717499 26.02075,48.08825 C26.0555835,48.1047501 26.0894998,48.1285832 26.1225,48.15975 C26.1555002,48.1909168 26.1921665,48.2321664 26.2325,48.2835 L30.407,53.602 C30.3923333,53.473666 30.38225,53.3480839 30.37675,53.22525 C30.37125,53.1024161 30.3685,52.9878339 30.3685,52.8815 L30.3685,48.047 L31.672,48.047 L31.672,56 L30.9075,56 C30.7901661,56 30.6930004,55.9816668 30.616,55.945 C30.5389996,55.9083332 30.4638337,55.8423338 30.3905,55.747 L26.2325,50.4505 C26.2435001,50.5678339 26.25175,50.6842494 26.25725,50.79975 C26.26275,50.9152506 26.2655,51.0206662 26.2655,51.116 L26.2655,56 L24.962,56 L24.962,48.047 L25.7375,48.047 Z M40.34,52.0235 C40.34,52.6065029 40.2428343,53.1418309 40.0485,53.6295 C39.8541657,54.1171691 39.5810018,54.5369982 39.229,54.889 C38.8769982,55.2410018 38.4535025,55.5141657 37.9585,55.7085 C37.4634975,55.9028343 36.9153363,56 36.314,56 L33.278,56 L33.278,48.047 L36.314,48.047 C36.9153363,48.047 37.4634975,48.1450824 37.9585,48.34125 C38.4535025,48.5374176 38.8769982,48.8105816 39.229,49.16075 C39.5810018,49.5109184 39.8541657,49.9298309 40.0485,50.4175 C40.2428343,50.9051691 40.34,51.4404971 40.34,52.0235 Z M38.8275,52.0235 C38.8275,51.5871645 38.7688339,51.1957517 38.6515,50.84925 C38.5341661,50.5027483 38.3673344,50.2094179 38.151,49.96925 C37.9346656,49.7290821 37.6715849,49.544834 37.36175,49.4165 C37.0519151,49.288166 36.7026686,49.224 36.314,49.224 L34.7685,49.224 L34.7685,54.823 L36.314,54.823 C36.7026686,54.823 37.0519151,54.758834 37.36175,54.6305 C37.6715849,54.502166 37.9346656,54.3179179 38.151,54.07775 C38.3673344,53.8375821 38.5341661,53.5442517 38.6515,53.19775 C38.7688339,52.8512483 38.8275,52.4598355 38.8275,52.0235 Z M43.167,56 L41.682,56 L41.682,48.047 L43.167,48.047 L43.167,56 Z M52.0165,52.0235 C52.0165,52.6065029 51.9193343,53.1418309 51.725,53.6295 C51.5306657,54.1171691 51.2575018,54.5369982 50.9055,54.889 C50.5534982,55.2410018 50.1300025,55.5141657 49.635,55.7085 C49.1399975,55.9028343 48.5918363,56 47.9905,56 L44.9545,56 L44.9545,48.047 L47.9905,48.047 C48.5918363,48.047 49.1399975,48.1450824 49.635,48.34125 C50.1300025,48.5374176 50.5534982,48.8105816 50.9055,49.16075 C51.2575018,49.5109184 51.5306657,49.9298309 51.725,50.4175 C51.9193343,50.9051691 52.0165,51.4404971 52.0165,52.0235 Z M50.504,52.0235 C50.504,51.5871645 50.4453339,51.1957517 50.328,50.84925 C50.2106661,50.5027483 50.0438344,50.2094179 49.8275,49.96925 C49.6111656,49.7290821 49.3480849,49.544834 49.03825,49.4165 C48.7284151,49.288166 48.3791686,49.224 47.9905,49.224 L46.445,49.224 L46.445,54.823 L47.9905,54.823 C48.3791686,54.823 48.7284151,54.758834 49.03825,54.6305 C49.3480849,54.502166 49.6111656,54.3179179 49.8275,54.07775 C50.0438344,53.8375821 50.2106661,53.5442517 50.328,53.19775 C50.4453339,52.8512483 50.504,52.4598355 50.504,52.0235 Z M60.1675,56 L59.0235,56 C58.895166,56 58.7897504,55.967917 58.70725,55.90375 C58.6247496,55.839583 58.5651668,55.7598338 58.5285,55.6645 L57.9345,54.042 L54.64,54.042 L54.046,55.6645 C54.0166665,55.7488338 53.9589171,55.825833 53.87275,55.8955 C53.7865829,55.965167 53.6811673,56 53.5565,56 L52.407,56 L55.531,48.047 L57.0435,48.047 L60.1675,56 Z M55.0195,52.997 L57.555,52.997 L56.587,50.3515 C56.5429998,50.2341661 56.4944169,50.0957508 56.44125,49.93625 C56.3880831,49.7767492 56.3358336,49.6035009 56.2845,49.4165 C56.2331664,49.6035009 56.1827502,49.7776659 56.13325,49.939 C56.0837498,50.1003341 56.0351669,50.2414994 55.9875,50.3625 L55.0195,52.997 Z M66.5915,48.047 L66.5915,49.2625 L64.199,49.2625 L64.199,56 L62.7195,56 L62.7195,49.2625 L60.316,49.2625 L60.316,48.047 L66.5915,48.047 Z M72.548,48.047 L72.548,49.224 L69.0225,49.224 L69.0225,51.4295 L71.8,51.4295 L71.8,52.568 L69.0225,52.568 L69.0225,54.8175 L72.548,54.8175 L72.548,56 L67.532,56 L67.532,48.047 L72.548,48.047 Z" id="RELEASECANDIDATE" fill="#003055" fill-rule="nonzero"></path>
                        </g>
                        <g id="4" transform="translate(260.000000, 4.000000)">
                            <circle id="Oval" stroke="#FFFFFF" fill="#40E6CF" cx="41" cy="10" r="10"></circle>
                            <polygon id="Page-1" fill="#003055" points="43.0806509 8 42.6208918 8.45975914 40.1681054 10.9125455 39.3220028 10.2372255 38.81343 9.83057555 38 10.8474607 38.5084426 11.2542408 39.8101389 12.2955979 40.2657326 12.6575996 40.676548 12.2467843 43.5404101 9.38305235 43.9999089 8.92342337"></polygon>
                            <path d="M20.672,39.911 C21.0056683,39.911 21.2962488,39.8807503 21.54375,39.82025 C21.7912512,39.7597497 22.0268322,39.6763339 22.2505,39.57 L22.2505,38.1235 L21.255,38.1235 C21.1596662,38.1235 21.0845003,38.0969169 21.0295,38.04375 C20.9744997,37.9905831 20.947,37.9255004 20.947,37.8485 L20.947,37.0125 L23.5925,37.0125 L23.5925,40.23 C23.3908323,40.3766674 23.1809178,40.5040828 22.96275,40.61225 C22.7445822,40.7204172 22.5117512,40.809333 22.26425,40.879 C22.0167488,40.948667 21.7518347,41.0009165 21.4695,41.03575 C21.1871653,41.0705835 20.882835,41.088 20.5565,41.088 C19.9771638,41.088 19.4436691,40.9871677 18.956,40.7855 C18.4683309,40.5838323 18.0466684,40.3033351 17.691,39.944 C17.3353316,39.5846649 17.0575843,39.1556692 16.85775,38.657 C16.6579157,38.1583308 16.558,37.6138363 16.558,37.0235 C16.558,36.4258303 16.6551657,35.8776692 16.8495,35.379 C17.0438343,34.8803308 17.3197482,34.4513351 17.67725,34.092 C18.0347518,33.7326649 18.4683308,33.454001 18.978,33.256 C19.4876692,33.057999 20.0596635,32.959 20.694,32.959 C21.3430032,32.959 21.9049143,33.055249 22.37975,33.24775 C22.8545857,33.440251 23.2569984,33.6904985 23.587,33.9985 L23.158,34.6695 C23.0736662,34.8051673 22.961834,34.873 22.8225,34.873 C22.7344996,34.873 22.6446671,34.843667 22.553,34.785 C22.4356661,34.715333 22.3155839,34.645667 22.19275,34.576 C22.0699161,34.506333 21.9342507,34.4458336 21.78575,34.3945 C21.6372493,34.3431664 21.4704176,34.3010002 21.28525,34.268 C21.1000824,34.2349998 20.8865012,34.2185 20.6445,34.2185 C20.2521647,34.2185 19.8974183,34.2844993 19.58025,34.4165 C19.2630817,34.5485007 18.9926678,34.7373321 18.769,34.983 C18.5453322,35.2286679 18.3730006,35.5238316 18.252,35.8685 C18.1309994,36.2131684 18.0705,36.5981645 18.0705,37.0235 C18.0705,37.4818356 18.134666,37.8897482 18.263,38.24725 C18.391334,38.6047518 18.5709988,38.9063321 18.802,39.152 C19.0330012,39.3976679 19.3079984,39.5855827 19.627,39.71575 C19.9460016,39.8459173 20.2943314,39.911 20.672,39.911 Z M29.989,33.047 L29.989,34.224 L26.4635,34.224 L26.4635,36.4295 L29.241,36.4295 L29.241,37.568 L26.4635,37.568 L26.4635,39.8175 L29.989,39.8175 L29.989,41 L24.973,41 L24.973,33.047 L29.989,33.047 Z M32.046,33.047 C32.1120003,33.047 32.1669998,33.04975 32.211,33.05525 C32.2550002,33.06075 32.2944165,33.0717499 32.32925,33.08825 C32.3640835,33.1047501 32.3979998,33.1285832 32.431,33.15975 C32.4640002,33.1909168 32.5006665,33.2321664 32.541,33.2835 L36.7155,38.602 C36.7008333,38.473666 36.69075,38.3480839 36.68525,38.22525 C36.67975,38.1024161 36.677,37.9878339 36.677,37.8815 L36.677,33.047 L37.9805,33.047 L37.9805,41 L37.216,41 C37.0986661,41 37.0015004,40.9816668 36.9245,40.945 C36.8474996,40.9083332 36.7723337,40.8423338 36.699,40.747 L32.541,35.4505 C32.5520001,35.5678339 32.56025,35.6842494 32.56575,35.79975 C32.57125,35.9152506 32.574,36.0206662 32.574,36.116 L32.574,41 L31.2705,41 L31.2705,33.047 L32.046,33.047 Z M44.6025,33.047 L44.6025,34.224 L41.077,34.224 L41.077,36.4295 L43.8545,36.4295 L43.8545,37.568 L41.077,37.568 L41.077,39.8175 L44.6025,39.8175 L44.6025,41 L39.5865,41 L39.5865,33.047 L44.6025,33.047 Z M47.413,37.8925 L47.413,41 L45.9335,41 L45.9335,33.047 L48.359,33.047 C48.9016694,33.047 49.3664147,33.1029161 49.75325,33.21475 C50.1400853,33.3265839 50.4572488,33.4833323 50.70475,33.685 C50.9522512,33.8866677 51.1337494,34.1277486 51.24925,34.40825 C51.3647506,34.6887514 51.4225,34.997665 51.4225,35.335 C51.4225,35.602668 51.3830837,35.8556655 51.30425,36.094 C51.2254163,36.3323345 51.1117507,36.5486657 50.96325,36.743 C50.8147493,36.9373343 50.6314178,37.1078326 50.41325,37.2545 C50.1950822,37.4011674 49.9466681,37.5184996 49.668,37.6065 C49.8550009,37.7128339 50.0163327,37.864999 50.152,38.063 L52.143,41 L50.812,41 C50.683666,41 50.5745838,40.9743336 50.48475,40.923 C50.3949162,40.8716664 50.3188336,40.7983338 50.2565,40.703 L48.5845,38.1565 C48.5221664,38.0611662 48.453417,37.9933335 48.37825,37.953 C48.303083,37.9126665 48.1921674,37.8925 48.0455,37.8925 L47.413,37.8925 Z M47.413,36.831 L48.337,36.831 C48.6156681,36.831 48.8585823,36.796167 49.06575,36.7265 C49.2729177,36.656833 49.443416,36.5605839 49.57725,36.43775 C49.711084,36.3149161 49.8109997,36.1691675 49.877,36.0005 C49.9430003,35.8318325 49.976,35.6466677 49.976,35.445 C49.976,35.0416647 49.8430847,34.7318344 49.57725,34.5155 C49.3114153,34.2991656 48.9053361,34.191 48.359,34.191 L47.413,34.191 L47.413,36.831 Z M60.0795,41 L58.9355,41 C58.807166,41 58.7017504,40.967917 58.61925,40.90375 C58.5367496,40.839583 58.4771668,40.7598338 58.4405,40.6645 L57.8465,39.042 L54.552,39.042 L53.958,40.6645 C53.9286665,40.7488338 53.8709171,40.825833 53.78475,40.8955 C53.6985829,40.965167 53.5931673,41 53.4685,41 L52.319,41 L55.443,33.047 L56.9555,33.047 L60.0795,41 Z M54.9315,37.997 L57.467,37.997 L56.499,35.3515 C56.4549998,35.2341661 56.4064169,35.0957508 56.35325,34.93625 C56.3000831,34.7767492 56.2478336,34.6035009 56.1965,34.4165 C56.1451664,34.6035009 56.0947502,34.7776659 56.04525,34.939 C55.9957498,35.1003341 55.9471669,35.2414994 55.8995,35.3625 L54.9315,37.997 Z M62.3785,39.779 L65.563,39.779 L65.563,41 L60.899,41 L60.899,33.047 L62.3785,33.047 L62.3785,39.779 Z M11.85,56 L10.706,56 C10.577666,56 10.4722504,55.967917 10.38975,55.90375 C10.3072496,55.839583 10.2476669,55.7598338 10.211,55.6645 L9.617,54.042 L6.3225,54.042 L5.7285,55.6645 C5.69916652,55.7488338 5.6414171,55.825833 5.55525,55.8955 C5.4690829,55.965167 5.36366729,56 5.239,56 L4.0895,56 L7.2135,48.047 L8.726,48.047 L11.85,56 Z M6.702,52.997 L9.2375,52.997 L8.2695,50.3515 C8.22549978,50.2341661 8.17691693,50.0957508 8.12375,49.93625 C8.07058307,49.7767492 8.01833359,49.6035009 7.967,49.4165 C7.91566641,49.6035009 7.86525025,49.7776659 7.81575,49.939 C7.76624975,50.1003341 7.71766691,50.2414994 7.67,50.3625 L6.702,52.997 Z M11.8885,48.047 L13.082,48.047 C13.210334,48.047 13.3148329,48.0781664 13.3955,48.1405 C13.4761671,48.2028336 13.5366665,48.2834995 13.577,48.3825 L15.447,53.2335 C15.5093336,53.3911675 15.5689164,53.5644157 15.62575,53.75325 C15.6825836,53.9420843 15.7366664,54.140999 15.788,54.35 C15.8723338,53.9283312 15.9768327,53.5561683 16.1015,53.2335 L17.966,48.3825 C17.9990002,48.2981662 18.0576662,48.221167 18.142,48.1515 C18.2263338,48.081833 18.3308327,48.047 18.4555,48.047 L19.649,48.047 L16.437,56 L15.1005,56 L11.8885,48.047 Z M27.47,56 L26.326,56 C26.197666,56 26.0922504,55.967917 26.00975,55.90375 C25.9272496,55.839583 25.8676668,55.7598338 25.831,55.6645 L25.237,54.042 L21.9425,54.042 L21.3485,55.6645 C21.3191665,55.7488338 21.2614171,55.825833 21.17525,55.8955 C21.0890829,55.965167 20.9836673,56 20.859,56 L19.7095,56 L22.8335,48.047 L24.346,48.047 L27.47,56 Z M22.322,52.997 L24.8575,52.997 L23.8895,50.3515 C23.8454998,50.2341661 23.7969169,50.0957508 23.74375,49.93625 C23.6905831,49.7767492 23.6383336,49.6035009 23.587,49.4165 C23.5356664,49.6035009 23.4852502,49.7776659 23.43575,49.939 C23.3862498,50.1003341 23.3376669,50.2414994 23.29,50.3625 L22.322,52.997 Z M29.956,56 L28.471,56 L28.471,48.047 L29.956,48.047 L29.956,56 Z M33.223,54.779 L36.4075,54.779 L36.4075,56 L31.7435,56 L31.7435,48.047 L33.223,48.047 L33.223,54.779 Z M44.421,56 L43.277,56 C43.148666,56 43.0432504,55.967917 42.96075,55.90375 C42.8782496,55.839583 42.8186668,55.7598338 42.782,55.6645 L42.188,54.042 L38.8935,54.042 L38.2995,55.6645 C38.2701665,55.7488338 38.2124171,55.825833 38.12625,55.8955 C38.0400829,55.965167 37.9346673,56 37.81,56 L36.6605,56 L39.7845,48.047 L41.297,48.047 L44.421,56 Z M39.273,52.997 L41.8085,52.997 L40.8405,50.3515 C40.7964998,50.2341661 40.7479169,50.0957508 40.69475,49.93625 C40.6415831,49.7767492 40.5893336,49.6035009 40.538,49.4165 C40.4866664,49.6035009 40.4362502,49.7776659 40.38675,49.939 C40.3372498,50.1003341 40.2886669,50.2414994 40.241,50.3625 L39.273,52.997 Z M45.2405,56 L45.2405,48.047 L47.985,48.047 C48.5056693,48.047 48.9502482,48.0964995 49.31875,48.1955 C49.6872518,48.2945005 49.9897488,48.4356657 50.22625,48.619 C50.4627512,48.8023343 50.6359995,49.0241654 50.746,49.2845 C50.8560006,49.5448346 50.911,49.838165 50.911,50.1645 C50.911,50.3515009 50.8835003,50.5302491 50.8285,50.70075 C50.7734997,50.8712509 50.6882506,51.0307493 50.57275,51.17925 C50.4572494,51.3277507 50.3105842,51.4624994 50.13275,51.5835 C49.9549158,51.7045006 49.7431679,51.8071662 49.4975,51.8915 C50.5901721,52.1371679 51.1365,52.7274953 51.1365,53.6625 C51.1365,53.999835 51.072334,54.3114986 50.944,54.5975 C50.815666,54.8835014 50.6286679,55.1300823 50.383,55.33725 C50.1373321,55.5444177 49.8348351,55.7066661 49.4755,55.824 C49.1161649,55.9413339 48.7055023,56 48.2435,56 L45.2405,56 Z M46.72,52.513 L46.72,54.845 L48.2215,54.845 C48.4965014,54.845 48.7265824,54.8120003 48.91175,54.746 C49.0969176,54.6799997 49.2454161,54.5920005 49.35725,54.482 C49.4690839,54.3719995 49.5497498,54.2436674 49.59925,54.097 C49.6487502,53.9503326 49.6735,53.7945008 49.6735,53.6295 C49.6735,53.4571658 49.6460003,53.3022507 49.591,53.16475 C49.5359997,53.0272493 49.4498339,52.9099172 49.3325,52.81275 C49.2151661,52.7155828 49.0648343,52.6413336 48.8815,52.59 C48.6981658,52.5386664 48.4763346,52.513 48.216,52.513 L46.72,52.513 Z M46.72,51.49 L47.9025,51.49 C48.4048358,51.49 48.7861654,51.3983343 49.0465,51.215 C49.3068346,51.0316658 49.437,50.7401687 49.437,50.3405 C49.437,49.9261646 49.3196678,49.6310009 49.085,49.455 C48.8503322,49.2789991 48.4836692,49.191 47.985,49.191 L46.72,49.191 L46.72,51.49 Z M54.0735,56 L52.5885,56 L52.5885,48.047 L54.0735,48.047 L54.0735,56 Z M57.3405,54.779 L60.525,54.779 L60.525,56 L55.861,56 L55.861,48.047 L57.3405,48.047 L57.3405,54.779 Z M63.2145,56 L61.7295,56 L61.7295,48.047 L63.2145,48.047 L63.2145,56 Z M70.6065,48.047 L70.6065,49.2625 L68.214,49.2625 L68.214,56 L66.7345,56 L66.7345,49.2625 L64.331,49.2625 L64.331,48.047 L70.6065,48.047 Z M75.0835,52.909 L75.0835,56 L73.604,56 L73.604,52.909 L70.7055,48.047 L72.009,48.047 C72.137334,48.047 72.239083,48.0781664 72.31425,48.1405 C72.389417,48.2028336 72.4526664,48.2816662 72.504,48.377 L73.9615,51.0335 C74.0458338,51.1911675 74.1191664,51.3405826 74.1815,51.48175 C74.2438336,51.6229174 74.3006664,51.7613327 74.352,51.897 C74.3996669,51.757666 74.4537497,51.6174174 74.51425,51.47625 C74.5747503,51.3350826 74.6471662,51.1875008 74.7315,51.0335 L76.178,48.377 C76.2183335,48.2963329 76.2788329,48.221167 76.3595,48.1515 C76.4401671,48.081833 76.5428327,48.047 76.6675,48.047 L77.9765,48.047 L75.0835,52.909 Z" id="GENERALAVAILABILITY" fill="#003055" fill-rule="nonzero"></path>
                        </g>
                    </g>
                </g>
            </g>
        </g>
    </g>
</svg>