<?xml version="1.0" encoding="UTF-8"?>
<svg width="328px" height="62px" viewBox="0 0 328 62" version="1.1" xmlns="http://www.w3.org/2000/svg" xmlns:xlink="http://www.w3.org/1999/xlink">
    <!-- Generator: Sketch 54.1 (76490) - https://sketchapp.com -->
    <title>phase4</title>
    <desc>Created with Sketch.</desc>
    <g id="final" stroke="none" stroke-width="1" fill="none" fill-rule="evenodd">
        <g id="Overture/Song-accessible" transform="translate(-32.000000, -114.000000)">
            <g id="progress-bar-horizontal" transform="translate(21.000000, 115.000000)">
                <g id="phases">
                    <g id="phase4">
                        <rect id="Path-Copy-3" fill="#04518C" x="51" y="13" width="252" height="3" rx="1.5"></rect>
                        <g id="1" transform="translate(0.000000, 4.000000)">
                            <circle id="Oval" stroke="#FFFFFF" fill="#40E6CF" cx="51" cy="10" r="10"></circle>
                            <polygon id="Page-1" fill="#003055" points="53.0806509 8 52.6208918 8.45975914 50.1681054 10.9125455 49.3220028 10.2372255 48.81343 9.83057555 48 10.8474607 48.5084426 11.2542408 49.8101389 12.2955979 50.2657326 12.6575996 50.676548 12.2467843 53.5404101 9.38305235 53.9999089 8.92342337"></polygon>
                            <path d="M35.9795,39.8065 C36.2655014,39.8065 36.5212489,39.7588338 36.74675,39.6635 C36.9722511,39.5681662 37.1629159,39.4343342 37.31875,39.262 C37.4745841,39.0896658 37.5937496,38.8806679 37.67625,38.635 C37.7587504,38.3893321 37.8,38.1143349 37.8,37.81 L37.8,33.047 L39.2795,33.047 L39.2795,37.81 C39.2795,38.2830024 39.2034174,38.720248 39.05125,39.12175 C38.8990826,39.523252 38.6800014,39.8697485 38.394,40.16125 C38.1079986,40.4527515 37.761502,40.6800825 37.3545,40.84325 C36.947498,41.0064175 36.4891692,41.088 35.9795,41.088 C35.4698308,41.088 35.011502,41.0064175 34.6045,40.84325 C34.197498,40.6800825 33.8519181,40.4527515 33.56775,40.16125 C33.2835819,39.8697485 33.0654174,39.523252 32.91325,39.12175 C32.7610826,38.720248 32.685,38.2830024 32.685,37.81 L32.685,33.047 L34.1645,33.047 L34.1645,37.8045 C34.1645,38.1088349 34.2057496,38.3838321 34.28825,38.6295 C34.3707504,38.8751679 34.4889992,39.0850825 34.643,39.25925 C34.7970008,39.4334175 34.9867489,39.5681662 35.21225,39.6635 C35.4377511,39.7588338 35.6934986,39.8065 35.9795,39.8065 Z M41.562,33.047 C41.6280003,33.047 41.6829998,33.04975 41.727,33.05525 C41.7710002,33.06075 41.8104165,33.0717499 41.84525,33.08825 C41.8800835,33.1047501 41.9139998,33.1285832 41.947,33.15975 C41.9800002,33.1909168 42.0166665,33.2321664 42.057,33.2835 L46.2315,38.602 C46.2168333,38.473666 46.20675,38.3480839 46.20125,38.22525 C46.19575,38.1024161 46.193,37.9878339 46.193,37.8815 L46.193,33.047 L47.4965,33.047 L47.4965,41 L46.732,41 C46.6146661,41 46.5175004,40.9816668 46.4405,40.945 C46.3634996,40.9083332 46.2883337,40.8423338 46.215,40.747 L42.057,35.4505 C42.0680001,35.5678339 42.07625,35.6842494 42.08175,35.79975 C42.08725,35.9152506 42.09,36.0206662 42.09,36.116 L42.09,41 L40.7865,41 L40.7865,33.047 L41.562,33.047 Z M56.1645,37.0235 C56.1645,37.6065029 56.0673343,38.1418309 55.873,38.6295 C55.6786657,39.1171691 55.4055018,39.5369982 55.0535,39.889 C54.7014982,40.2410018 54.2780025,40.5141657 53.783,40.7085 C53.2879975,40.9028343 52.7398363,41 52.1385,41 L49.1025,41 L49.1025,33.047 L52.1385,33.047 C52.7398363,33.047 53.2879975,33.1450824 53.783,33.34125 C54.2780025,33.5374176 54.7014982,33.8105816 55.0535,34.16075 C55.4055018,34.5109184 55.6786657,34.9298309 55.873,35.4175 C56.0673343,35.9051691 56.1645,36.4404971 56.1645,37.0235 Z M54.652,37.0235 C54.652,36.5871645 54.5933339,36.1957517 54.476,35.84925 C54.3586661,35.5027483 54.1918344,35.2094179 53.9755,34.96925 C53.7591656,34.7290821 53.4960849,34.544834 53.18625,34.4165 C52.8764151,34.288166 52.5271686,34.224 52.1385,34.224 L50.593,34.224 L50.593,39.823 L52.1385,39.823 C52.5271686,39.823 52.8764151,39.758834 53.18625,39.6305 C53.4960849,39.502166 53.7591656,39.3179179 53.9755,39.07775 C54.1918344,38.8375821 54.3586661,38.5442517 54.476,38.19775 C54.5933339,37.8512483 54.652,37.4598355 54.652,37.0235 Z M62.341,33.047 L62.341,34.224 L58.8155,34.224 L58.8155,36.4295 L61.593,36.4295 L61.593,37.568 L58.8155,37.568 L58.8155,39.8175 L62.341,39.8175 L62.341,41 L57.325,41 L57.325,33.047 L62.341,33.047 Z M65.1515,37.8925 L65.1515,41 L63.672,41 L63.672,33.047 L66.0975,33.047 C66.6401694,33.047 67.1049147,33.1029161 67.49175,33.21475 C67.8785853,33.3265839 68.1957488,33.4833323 68.44325,33.685 C68.6907512,33.8866677 68.8722494,34.1277486 68.98775,34.40825 C69.1032506,34.6887514 69.161,34.997665 69.161,35.335 C69.161,35.602668 69.1215837,35.8556655 69.04275,36.094 C68.9639163,36.3323345 68.8502507,36.5486657 68.70175,36.743 C68.5532493,36.9373343 68.3699178,37.1078326 68.15175,37.2545 C67.9335822,37.4011674 67.6851681,37.5184996 67.4065,37.6065 C67.5935009,37.7128339 67.7548327,37.864999 67.8905,38.063 L69.8815,41 L68.5505,41 C68.422166,41 68.3130838,40.9743336 68.22325,40.923 C68.1334162,40.8716664 68.0573336,40.7983338 67.995,40.703 L66.323,38.1565 C66.2606664,38.0611662 66.191917,37.9933335 66.11675,37.953 C66.041583,37.9126665 65.9306674,37.8925 65.784,37.8925 L65.1515,37.8925 Z M65.1515,36.831 L66.0755,36.831 C66.3541681,36.831 66.5970823,36.796167 66.80425,36.7265 C67.0114177,36.656833 67.181916,36.5605839 67.31575,36.43775 C67.449584,36.3149161 67.5494997,36.1691675 67.6155,36.0005 C67.6815003,35.8318325 67.7145,35.6466677 67.7145,35.445 C67.7145,35.0416647 67.5815847,34.7318344 67.31575,34.5155 C67.0499153,34.2991656 66.6438361,34.191 66.0975,34.191 L65.1515,34.191 L65.1515,36.831 Z M18.17875,52.0235 C18.17875,52.6065029 18.0815843,53.1418309 17.88725,53.6295 C17.6929157,54.1171691 17.4197518,54.5369982 17.06775,54.889 C16.7157482,55.2410018 16.2922525,55.5141657 15.79725,55.7085 C15.3022475,55.9028343 14.7540863,56 14.15275,56 L11.11675,56 L11.11675,48.047 L14.15275,48.047 C14.7540863,48.047 15.3022475,48.1450824 15.79725,48.34125 C16.2922525,48.5374176 16.7157482,48.8105816 17.06775,49.16075 C17.4197518,49.5109184 17.6929157,49.9298309 17.88725,50.4175 C18.0815843,50.9051691 18.17875,51.4404971 18.17875,52.0235 Z M16.66625,52.0235 C16.66625,51.5871645 16.6075839,51.1957517 16.49025,50.84925 C16.3729161,50.5027483 16.2060844,50.2094179 15.98975,49.96925 C15.7734156,49.7290821 15.5103349,49.544834 15.2005,49.4165 C14.8906651,49.288166 14.5414186,49.224 14.15275,49.224 L12.60725,49.224 L12.60725,54.823 L14.15275,54.823 C14.5414186,54.823 14.8906651,54.758834 15.2005,54.6305 C15.5103349,54.502166 15.7734156,54.3179179 15.98975,54.07775 C16.2060844,53.8375821 16.3729161,53.5442517 16.49025,53.19775 C16.6075839,52.8512483 16.66625,52.4598355 16.66625,52.0235 Z M24.35525,48.047 L24.35525,49.224 L20.82975,49.224 L20.82975,51.4295 L23.60725,51.4295 L23.60725,52.568 L20.82975,52.568 L20.82975,54.8175 L24.35525,54.8175 L24.35525,56 L19.33925,56 L19.33925,48.047 L24.35525,48.047 Z M24.85575,48.047 L26.04925,48.047 C26.177584,48.047 26.2820829,48.0781664 26.36275,48.1405 C26.4434171,48.2028336 26.5039165,48.2834995 26.54425,48.3825 L28.41425,53.2335 C28.4765836,53.3911675 28.5361664,53.5644157 28.593,53.75325 C28.6498336,53.9420843 28.7039164,54.140999 28.75525,54.35 C28.8395838,53.9283312 28.9440827,53.5561683 29.06875,53.2335 L30.93325,48.3825 C30.9662502,48.2981662 31.0249162,48.221167 31.10925,48.1515 C31.1935838,48.081833 31.2980827,48.047 31.42275,48.047 L32.61625,48.047 L29.40425,56 L28.06775,56 L24.85575,48.047 Z M38.46275,48.047 L38.46275,49.224 L34.93725,49.224 L34.93725,51.4295 L37.71475,51.4295 L37.71475,52.568 L34.93725,52.568 L34.93725,54.8175 L38.46275,54.8175 L38.46275,56 L33.44675,56 L33.44675,48.047 L38.46275,48.047 Z M41.22375,54.779 L44.40825,54.779 L44.40825,56 L39.74425,56 L39.74425,48.047 L41.22375,48.047 L41.22375,54.779 Z M53.05975,52.0235 C53.05975,52.6065029 52.9625843,53.1464142 52.76825,53.64325 C52.5739157,54.1400858 52.3007518,54.5699982 51.94875,54.933 C51.5967482,55.2960018 51.1732525,55.579249 50.67825,55.78275 C50.1832475,55.986251 49.6350863,56.088 49.03375,56.088 C48.4324137,56.088 47.8833358,55.986251 47.3865,55.78275 C46.8896642,55.579249 46.4643351,55.2960018 46.1105,54.933 C45.7566649,54.5699982 45.4825843,54.1400858 45.28825,53.64325 C45.0939157,53.1464142 44.99675,52.6065029 44.99675,52.0235 C44.99675,51.4404971 45.0939157,50.9005858 45.28825,50.40375 C45.4825843,49.9069142 45.7566649,49.4770018 46.1105,49.114 C46.4643351,48.7509982 46.8896642,48.467751 47.3865,48.26425 C47.8833358,48.060749 48.4324137,47.959 49.03375,47.959 C49.6350863,47.959 50.1832475,48.0616656 50.67825,48.267 C51.1732525,48.4723344 51.5967482,48.7555815 51.94875,49.11675 C52.3007518,49.4779185 52.5739157,49.9069142 52.76825,50.40375 C52.9625843,50.9005858 53.05975,51.4404971 53.05975,52.0235 Z M51.54175,52.0235 C51.54175,51.5871645 51.4840006,51.1957517 51.3685,50.84925 C51.2529994,50.5027483 51.0870844,50.2085012 50.87075,49.9665 C50.6544156,49.7244988 50.3913349,49.539334 50.0815,49.411 C49.7716651,49.282666 49.4224186,49.2185 49.03375,49.2185 C48.6450814,49.2185 48.2949182,49.282666 47.98325,49.411 C47.6715818,49.539334 47.4066678,49.7244988 47.1885,49.9665 C46.9703322,50.2085012 46.8025839,50.5027483 46.68525,50.84925 C46.5679161,51.1957517 46.50925,51.5871645 46.50925,52.0235 C46.50925,52.4598355 46.5679161,52.8512483 46.68525,53.19775 C46.8025839,53.5442517 46.9703322,53.8375821 47.1885,54.07775 C47.4066678,54.3179179 47.6715818,54.502166 47.98325,54.6305 C48.2949182,54.758834 48.6450814,54.823 49.03375,54.823 C49.4224186,54.823 49.7716651,54.758834 50.0815,54.6305 C50.3913349,54.502166 50.6544156,54.3179179 50.87075,54.07775 C51.0870844,53.8375821 51.2529994,53.5442517 51.3685,53.19775 C51.4840006,52.8512483 51.54175,52.4598355 51.54175,52.0235 Z M55.75475,53.2005 L55.75475,56 L54.27525,56 L54.27525,48.047 L56.86575,48.047 C57.3974193,48.047 57.8575814,48.1093327 58.24625,48.234 C58.6349186,48.3586673 58.9557487,48.5328322 59.20875,48.7565 C59.4617513,48.9801678 59.6487494,49.2478318 59.76975,49.5595 C59.8907506,49.8711682 59.95125,50.2121648 59.95125,50.5825 C59.95125,50.9675019 59.887084,51.3204151 59.75875,51.64125 C59.630416,51.9620849 59.4379179,52.2379988 59.18125,52.469 C58.924582,52.7000012 58.6037519,52.879666 58.21875,53.008 C57.8337481,53.136334 57.3827526,53.2005 56.86575,53.2005 L55.75475,53.2005 Z M55.75475,52.0455 L56.86575,52.0455 C57.1370847,52.0455 57.3735823,52.0115837 57.57525,51.94375 C57.7769177,51.8759163 57.9437493,51.7787506 58.07575,51.65225 C58.2077507,51.5257494 58.3067497,51.3717509 58.37275,51.19025 C58.4387503,51.0087491 58.47175,50.8061678 58.47175,50.5825 C58.47175,50.3698323 58.4387503,50.1773342 58.37275,50.005 C58.3067497,49.8326658 58.2077507,49.6860006 58.07575,49.565 C57.9437493,49.4439994 57.7769177,49.351417 57.57525,49.28725 C57.3735823,49.223083 57.1370847,49.191 56.86575,49.191 L55.75475,49.191 L55.75475,52.0455 Z M65.09375,52.7 C65.1560836,52.8173339 65.2138331,52.9392494 65.267,53.06575 C65.3201669,53.1922506 65.3724164,53.319666 65.42375,53.448 C65.4750836,53.3159993 65.5282497,53.185834 65.58325,53.0575 C65.6382503,52.929166 65.6969164,52.8063339 65.75925,52.689 L68.11325,48.2835 C68.1425835,48.2284997 68.1728332,48.1845002 68.204,48.1515 C68.2351668,48.1184998 68.2699998,48.0946667 68.3085,48.08 C68.3470002,48.0653333 68.3900831,48.0561667 68.43775,48.0525 C68.4854169,48.0488333 68.5422497,48.047 68.60825,48.047 L69.72475,48.047 L69.72475,56 L68.42125,56 L68.42125,50.863 C68.42125,50.7676662 68.424,50.6631672 68.4295,50.5495 C68.435,50.4358328 68.4432499,50.3203339 68.45425,50.203 L66.05075,54.713 C65.9957497,54.8156672 65.9242504,54.8954164 65.83625,54.95225 C65.7482496,55.0090836 65.6455839,55.0375 65.52825,55.0375 L65.32475,55.0375 C65.2074161,55.0375 65.1047504,55.0090836 65.01675,54.95225 C64.9287496,54.8954164 64.8572503,54.8156672 64.80225,54.713 L62.36575,50.1865 C62.3804167,50.3075006 62.3905,50.4257494 62.396,50.54125 C62.4015,50.6567506 62.40425,50.7639995 62.40425,50.863 L62.40425,56 L61.10075,56 L61.10075,48.047 L62.21725,48.047 C62.2832503,48.047 62.3400831,48.0488333 62.38775,48.0525 C62.4354169,48.0561667 62.4784998,48.0653333 62.517,48.08 C62.5555002,48.0946667 62.5912498,48.1184998 62.62425,48.1515 C62.6572502,48.1845002 62.6884165,48.2284997 62.71775,48.2835 L65.09375,52.7 Z M76.34675,48.047 L76.34675,49.224 L72.82125,49.224 L72.82125,51.4295 L75.59875,51.4295 L75.59875,52.568 L72.82125,52.568 L72.82125,54.8175 L76.34675,54.8175 L76.34675,56 L71.33075,56 L71.33075,48.047 L76.34675,48.047 Z M78.40375,48.047 C78.4697503,48.047 78.5247498,48.04975 78.56875,48.05525 C78.6127502,48.06075 78.6521665,48.0717499 78.687,48.08825 C78.7218335,48.1047501 78.7557498,48.1285832 78.78875,48.15975 C78.8217502,48.1909168 78.8584165,48.2321664 78.89875,48.2835 L83.07325,53.602 C83.0585833,53.473666 83.0485,53.3480839 83.043,53.22525 C83.0375,53.1024161 83.03475,52.9878339 83.03475,52.8815 L83.03475,48.047 L84.33825,48.047 L84.33825,56 L83.57375,56 C83.4564161,56 83.3592504,55.9816668 83.28225,55.945 C83.2052496,55.9083332 83.1300837,55.8423338 83.05675,55.747 L78.89875,50.4505 C78.9097501,50.5678339 78.918,50.6842494 78.9235,50.79975 C78.929,50.9152506 78.93175,51.0206662 78.93175,51.116 L78.93175,56 L77.62825,56 L77.62825,48.047 L78.40375,48.047 Z M91.54875,48.047 L91.54875,49.2625 L89.15625,49.2625 L89.15625,56 L87.67675,56 L87.67675,49.2625 L85.27325,49.2625 L85.27325,48.047 L91.54875,48.047 Z" id="UNDERDEVELOPMENT" fill="#003055" fill-rule="nonzero"></path>
                        </g>
                        <g id="2" transform="translate(86.000000, 4.000000)">
                            <circle id="Oval" stroke="#FFFFFF" fill="#40E6CF" cx="51" cy="10" r="10"></circle>
                            <polygon id="Page-1" fill="#003055" points="53.0806509 8 52.6208918 8.45975914 50.1681054 10.9125455 49.3220028 10.2372255 48.81343 9.83057555 48 10.8474607 48.5084426 11.2542408 49.8101389 12.2955979 50.2657326 12.6575996 50.676548 12.2467843 53.5404101 9.38305235 53.9999089 8.92342337"></polygon>
                            <path d="M37.8935,40 L37.8935,32.047 L40.638,32.047 C41.1586693,32.047 41.6032482,32.0964995 41.97175,32.1955 C42.3402518,32.2945005 42.6427488,32.4356657 42.87925,32.619 C43.1157512,32.8023343 43.2889994,33.0241654 43.399,33.2845 C43.5090005,33.5448346 43.564,33.838165 43.564,34.1645 C43.564,34.3515009 43.5365003,34.5302491 43.4815,34.70075 C43.4264997,34.8712509 43.3412506,35.0307493 43.22575,35.17925 C43.1102494,35.3277507 42.9635842,35.4624994 42.78575,35.5835 C42.6079158,35.7045006 42.3961679,35.8071662 42.1505,35.8915 C43.2431721,36.1371679 43.7895,36.7274953 43.7895,37.6625 C43.7895,37.999835 43.725334,38.3114986 43.597,38.5975 C43.468666,38.8835014 43.2816679,39.1300823 43.036,39.33725 C42.7903321,39.5444177 42.4878351,39.7066661 42.1285,39.824 C41.7691649,39.9413339 41.3585023,40 40.8965,40 L37.8935,40 Z M39.373,36.513 L39.373,38.845 L40.8745,38.845 C41.1495014,38.845 41.3795824,38.8120003 41.56475,38.746 C41.7499176,38.6799997 41.8984161,38.5920005 42.01025,38.482 C42.1220839,38.3719995 42.2027498,38.2436674 42.25225,38.097 C42.3017502,37.9503326 42.3265,37.7945008 42.3265,37.6295 C42.3265,37.4571658 42.2990003,37.3022507 42.244,37.16475 C42.1889997,37.0272493 42.1028339,36.9099172 41.9855,36.81275 C41.8681661,36.7155828 41.7178343,36.6413336 41.5345,36.59 C41.3511657,36.5386664 41.1293346,36.513 40.869,36.513 L39.373,36.513 Z M39.373,35.49 L40.5555,35.49 C41.0578358,35.49 41.4391654,35.3983343 41.6995,35.215 C41.9598346,35.0316658 42.09,34.7401687 42.09,34.3405 C42.09,33.9261646 41.9726678,33.6310009 41.738,33.455 C41.5033322,33.2789991 41.1366692,33.191 40.638,33.191 L39.373,33.191 L39.373,35.49 Z M50.076,32.047 L50.076,33.224 L46.5505,33.224 L46.5505,35.4295 L49.328,35.4295 L49.328,36.568 L46.5505,36.568 L46.5505,38.8175 L50.076,38.8175 L50.076,40 L45.06,40 L45.06,32.047 L50.076,32.047 Z M56.962,32.047 L56.962,33.2625 L54.5695,33.2625 L54.5695,40 L53.09,40 L53.09,33.2625 L50.6865,33.2625 L50.6865,32.047 L56.962,32.047 Z M64.893,40 L63.749,40 C63.620666,40 63.5152504,39.967917 63.43275,39.90375 C63.3502496,39.839583 63.2906668,39.7598338 63.254,39.6645 L62.66,38.042 L59.3655,38.042 L58.7715,39.6645 C58.7421665,39.7488338 58.6844171,39.825833 58.59825,39.8955 C58.5120829,39.965167 58.4066673,40 58.282,40 L57.1325,40 L60.2565,32.047 L61.769,32.047 L64.893,40 Z M59.745,36.997 L62.2805,36.997 L61.3125,34.3515 C61.2684998,34.2341661 61.2199169,34.0957508 61.16675,33.93625 C61.1135831,33.7767492 61.0613336,33.6035009 61.01,33.4165 C60.9586664,33.6035009 60.9082502,33.7776659 60.85875,33.939 C60.8092498,34.1003341 60.7606669,34.2414994 60.713,34.3625 L59.745,36.997 Z" id="BETA" fill="#003055" fill-rule="nonzero"></path>
                        </g>
                        <g id="3" transform="translate(174.000000, 4.000000)">
                            <circle id="Oval" stroke="#FFFFFF" fill="#40E6CF" cx="41" cy="10" r="10"></circle>
                            <polygon id="Page-1" fill="#003055" points="43.0806509 8 42.6208918 8.45975914 40.1681054 10.9125455 39.3220028 10.2372255 38.81343 9.83057555 38 10.8474607 38.5084426 11.2542408 39.8101389 12.2955979 40.2657326 12.6575996 40.676548 12.2467843 43.5404101 9.38305235 43.9999089 8.92342337"></polygon>
                            <path d="M20.584,37.8925 L20.584,41 L19.1045,41 L19.1045,33.047 L21.53,33.047 C22.0726694,33.047 22.5374147,33.1029161 22.92425,33.21475 C23.3110853,33.3265839 23.6282488,33.4833323 23.87575,33.685 C24.1232512,33.8866677 24.3047494,34.1277486 24.42025,34.40825 C24.5357506,34.6887514 24.5935,34.997665 24.5935,35.335 C24.5935,35.602668 24.5540837,35.8556655 24.47525,36.094 C24.3964163,36.3323345 24.2827507,36.5486657 24.13425,36.743 C23.9857493,36.9373343 23.8024178,37.1078326 23.58425,37.2545 C23.3660822,37.4011674 23.1176681,37.5184996 22.839,37.6065 C23.0260009,37.7128339 23.1873327,37.864999 23.323,38.063 L25.314,41 L23.983,41 C23.854666,41 23.7455838,40.9743336 23.65575,40.923 C23.5659162,40.8716664 23.4898336,40.7983338 23.4275,40.703 L21.7555,38.1565 C21.6931664,38.0611662 21.624417,37.9933335 21.54925,37.953 C21.474083,37.9126665 21.3631674,37.8925 21.2165,37.8925 L20.584,37.8925 Z M20.584,36.831 L21.508,36.831 C21.7866681,36.831 22.0295823,36.796167 22.23675,36.7265 C22.4439177,36.656833 22.614416,36.5605839 22.74825,36.43775 C22.882084,36.3149161 22.9819997,36.1691675 23.048,36.0005 C23.1140003,35.8318325 23.147,35.6466677 23.147,35.445 C23.147,35.0416647 23.0140847,34.7318344 22.74825,34.5155 C22.4824153,34.2991656 22.0763361,34.191 21.53,34.191 L20.584,34.191 L20.584,36.831 Z M31.276,33.047 L31.276,34.224 L27.7505,34.224 L27.7505,36.4295 L30.528,36.4295 L30.528,37.568 L27.7505,37.568 L27.7505,39.8175 L31.276,39.8175 L31.276,41 L26.26,41 L26.26,33.047 L31.276,33.047 Z M34.037,39.779 L37.2215,39.779 L37.2215,41 L32.5575,41 L32.5575,33.047 L34.037,33.047 L34.037,39.779 Z M43.2605,33.047 L43.2605,34.224 L39.735,34.224 L39.735,36.4295 L42.5125,36.4295 L42.5125,37.568 L39.735,37.568 L39.735,39.8175 L43.2605,39.8175 L43.2605,41 L38.2445,41 L38.2445,33.047 L43.2605,33.047 Z M51.5325,41 L50.3885,41 C50.260166,41 50.1547504,40.967917 50.07225,40.90375 C49.9897496,40.839583 49.9301668,40.7598338 49.8935,40.6645 L49.2995,39.042 L46.005,39.042 L45.411,40.6645 C45.3816665,40.7488338 45.3239171,40.825833 45.23775,40.8955 C45.1515829,40.965167 45.0461673,41 44.9215,41 L43.772,41 L46.896,33.047 L48.4085,33.047 L51.5325,41 Z M46.3845,37.997 L48.92,37.997 L47.952,35.3515 C47.9079998,35.2341661 47.8594169,35.0957508 47.80625,34.93625 C47.7530831,34.7767492 47.7008336,34.6035009 47.6495,34.4165 C47.5981664,34.6035009 47.5477502,34.7776659 47.49825,34.939 C47.4487498,35.1003341 47.4001669,35.2414994 47.3525,35.3625 L46.3845,37.997 Z M56.6145,34.4935 C56.5741665,34.5741671 56.5274169,34.6309998 56.47425,34.664 C56.4210831,34.6970002 56.3578337,34.7135 56.2845,34.7135 C56.2111663,34.7135 56.1286671,34.6850836 56.037,34.62825 C55.9453329,34.5714164 55.8371673,34.508167 55.7125,34.4385 C55.5878327,34.368833 55.4420842,34.3055836 55.27525,34.24875 C55.1084158,34.1919164 54.9113345,34.1635 54.684,34.1635 C54.4786656,34.1635 54.2999174,34.1882498 54.14775,34.23775 C53.9955826,34.2872502 53.8672505,34.3559996 53.76275,34.444 C53.6582495,34.5320004 53.5803336,34.6374161 53.529,34.76025 C53.4776664,34.8830839 53.452,35.0178326 53.452,35.1645 C53.452,35.3515009 53.5042495,35.5073327 53.60875,35.632 C53.7132505,35.7566673 53.8516658,35.8629996 54.024,35.951 C54.1963342,36.0390004 54.3924989,36.117833 54.6125,36.1875 C54.8325011,36.257167 55.0570822,36.3314163 55.28625,36.41025 C55.5154178,36.4890837 55.7399989,36.5807495 55.96,36.68525 C56.1800011,36.7897505 56.3761658,36.9217492 56.5485,37.08125 C56.7208342,37.2407508 56.8592495,37.4359988 56.96375,37.667 C57.0682505,37.8980012 57.1205,38.1784983 57.1205,38.5085 C57.1205,38.8678351 57.0590839,39.2042484 56.93625,39.51775 C56.8134161,39.8312516 56.6337512,40.1044155 56.39725,40.33725 C56.1607488,40.5700845 55.8720017,40.753416 55.531,40.88725 C55.1899983,41.021084 54.7995022,41.088 54.3595,41.088 C54.1064987,41.088 53.8571679,41.0632502 53.6115,41.01375 C53.3658321,40.9642498 53.1302511,40.8936671 52.90475,40.802 C52.6792489,40.7103329 52.4684176,40.600334 52.27225,40.472 C52.0760824,40.343666 51.9010008,40.2006675 51.747,40.043 L52.176,39.3335 C52.2163335,39.2821664 52.2649164,39.2390835 52.32175,39.20425 C52.3785836,39.1694165 52.441833,39.152 52.5115,39.152 C52.6031671,39.152 52.7021661,39.189583 52.8085,39.26475 C52.9148339,39.339917 53.0404159,39.4233329 53.18525,39.515 C53.3300841,39.6066671 53.5005824,39.690083 53.69675,39.76525 C53.8929176,39.840417 54.1284986,39.878 54.4035,39.878 C54.8251688,39.878 55.1514988,39.7780843 55.3825,39.57825 C55.6135012,39.3784157 55.729,39.0915019 55.729,38.7175 C55.729,38.508499 55.6767505,38.3380007 55.57225,38.206 C55.4677495,38.0739993 55.3293342,37.9630838 55.157,37.87325 C54.9846658,37.7834162 54.7885011,37.7073336 54.5685,37.645 C54.3484989,37.5826664 54.1248345,37.5148337 53.8975,37.4415 C53.6701655,37.3681663 53.4465011,37.2801672 53.2265,37.1775 C53.0064989,37.0748328 52.8103342,36.9410008 52.638,36.776 C52.4656658,36.6109992 52.3272505,36.4047512 52.22275,36.15725 C52.1182495,35.9097488 52.066,35.6045018 52.066,35.2415 C52.066,34.9518319 52.1237494,34.6695014 52.23925,34.3945 C52.3547506,34.1194986 52.5234156,33.8756677 52.74525,33.663 C52.9670844,33.4503323 53.2393317,33.279834 53.562,33.1515 C53.8846683,33.023166 54.2531646,32.959 54.6675,32.959 C55.1368357,32.959 55.569498,33.0323326 55.9655,33.179 C56.361502,33.3256674 56.6988319,33.5309987 56.9775,33.795 L56.6145,34.4935 Z M63.2695,33.047 L63.2695,34.224 L59.744,34.224 L59.744,36.4295 L62.5215,36.4295 L62.5215,37.568 L59.744,37.568 L59.744,39.8175 L63.2695,39.8175 L63.2695,41 L58.2535,41 L58.2535,33.047 L63.2695,33.047 Z M15.2435,54.1245 C15.3241671,54.1245 15.393833,54.1556664 15.4525,54.218 L16.0355,54.8505 C15.7128317,55.2501687 15.315919,55.5563323 14.84475,55.769 C14.373581,55.9816677 13.8080033,56.088 13.148,56.088 C12.5576637,56.088 12.026919,55.9871677 11.55575,55.7855 C11.084581,55.5838323 10.6821683,55.3033351 10.3485,54.944 C10.0148317,54.5846649 9.75908422,54.1556692 9.58125,53.657 C9.40341578,53.1583308 9.3145,52.6138363 9.3145,52.0235 C9.3145,51.4258303 9.41349901,50.8785858 9.6115,50.38175 C9.80950099,49.8849142 10.0881649,49.4568351 10.4475,49.0975 C10.8068351,48.7381649 11.2367475,48.4585843 11.73725,48.25875 C12.2377525,48.0589157 12.790497,47.959 13.3955,47.959 C13.9858363,47.959 14.5019145,48.0534157 14.94375,48.24225 C15.3855855,48.4310843 15.7641651,48.6813318 16.0795,48.993 L15.5845,49.6805 C15.5551665,49.7245002 15.5175836,49.7629998 15.47175,49.796 C15.4259164,49.8290002 15.3626671,49.8455 15.282,49.8455 C15.1976662,49.8455 15.1115004,49.8125003 15.0235,49.7465 C14.9354996,49.6804997 14.8236673,49.6090004 14.688,49.532 C14.5523327,49.4549996 14.3809177,49.3835003 14.17375,49.3175 C13.9665823,49.2514997 13.7035016,49.2185 13.3845,49.2185 C13.0104981,49.2185 12.6667516,49.2835827 12.35325,49.41375 C12.0397484,49.5439173 11.7702511,49.7299988 11.54475,49.972 C11.3192489,50.2140012 11.1432506,50.5082483 11.01675,50.85475 C10.8902494,51.2012517 10.827,51.5908312 10.827,52.0235 C10.827,52.4708356 10.8902494,52.8686649 11.01675,53.217 C11.1432506,53.5653351 11.3146656,53.8586655 11.531,54.097 C11.7473344,54.3353345 12.0021652,54.5177494 12.2955,54.64425 C12.5888348,54.7707506 12.904165,54.834 13.2415,54.834 C13.4431677,54.834 13.6255825,54.8230001 13.78875,54.801 C13.9519175,54.7789999 14.1022493,54.7441669 14.23975,54.6965 C14.3772507,54.6488331 14.5074161,54.587417 14.63025,54.51225 C14.7530839,54.437083 14.8749994,54.3445005 14.996,54.2345 C15.0326669,54.2014998 15.0711665,54.1749168 15.1115,54.15475 C15.1518335,54.1345832 15.1958331,54.1245 15.2435,54.1245 Z M24.1425,56 L22.9985,56 C22.870166,56 22.7647504,55.967917 22.68225,55.90375 C22.5997496,55.839583 22.5401668,55.7598338 22.5035,55.6645 L21.9095,54.042 L18.615,54.042 L18.021,55.6645 C17.9916665,55.7488338 17.9339171,55.825833 17.84775,55.8955 C17.7615829,55.965167 17.6561673,56 17.5315,56 L16.382,56 L19.506,48.047 L21.0185,48.047 L24.1425,56 Z M18.9945,52.997 L21.53,52.997 L20.562,50.3515 C20.5179998,50.2341661 20.4694169,50.0957508 20.41625,49.93625 C20.3630831,49.7767492 20.3108336,49.6035009 20.2595,49.4165 C20.2081664,49.6035009 20.1577502,49.7776659 20.10825,49.939 C20.0587498,50.1003341 20.0101669,50.2414994 19.9625,50.3625 L18.9945,52.997 Z M25.7375,48.047 C25.8035003,48.047 25.8584998,48.04975 25.9025,48.05525 C25.9465002,48.06075 25.9859165,48.0717499 26.02075,48.08825 C26.0555835,48.1047501 26.0894998,48.1285832 26.1225,48.15975 C26.1555002,48.1909168 26.1921665,48.2321664 26.2325,48.2835 L30.407,53.602 C30.3923333,53.473666 30.38225,53.3480839 30.37675,53.22525 C30.37125,53.1024161 30.3685,52.9878339 30.3685,52.8815 L30.3685,48.047 L31.672,48.047 L31.672,56 L30.9075,56 C30.7901661,56 30.6930004,55.9816668 30.616,55.945 C30.5389996,55.9083332 30.4638337,55.8423338 30.3905,55.747 L26.2325,50.4505 C26.2435001,50.5678339 26.25175,50.6842494 26.25725,50.79975 C26.26275,50.9152506 26.2655,51.0206662 26.2655,51.116 L26.2655,56 L24.962,56 L24.962,48.047 L25.7375,48.047 Z M40.34,52.0235 C40.34,52.6065029 40.2428343,53.1418309 40.0485,53.6295 C39.8541657,54.1171691 39.5810018,54.5369982 39.229,54.889 C38.8769982,55.2410018 38.4535025,55.5141657 37.9585,55.7085 C37.4634975,55.9028343 36.9153363,56 36.314,56 L33.278,56 L33.278,48.047 L36.314,48.047 C36.9153363,48.047 37.4634975,48.1450824 37.9585,48.34125 C38.4535025,48.5374176 38.8769982,48.8105816 39.229,49.16075 C39.5810018,49.5109184 39.8541657,49.9298309 40.0485,50.4175 C40.2428343,50.9051691 40.34,51.4404971 40.34,52.0235 Z M38.8275,52.0235 C38.8275,51.5871645 38.7688339,51.1957517 38.6515,50.84925 C38.5341661,50.5027483 38.3673344,50.2094179 38.151,49.96925 C37.9346656,49.7290821 37.6715849,49.544834 37.36175,49.4165 C37.0519151,49.288166 36.7026686,49.224 36.314,49.224 L34.7685,49.224 L34.7685,54.823 L36.314,54.823 C36.7026686,54.823 37.0519151,54.758834 37.36175,54.6305 C37.6715849,54.502166 37.9346656,54.3179179 38.151,54.07775 C38.3673344,53.8375821 38.5341661,53.5442517 38.6515,53.19775 C38.7688339,52.8512483 38.8275,52.4598355 38.8275,52.0235 Z M43.167,56 L41.682,56 L41.682,48.047 L43.167,48.047 L43.167,56 Z M52.0165,52.0235 C52.0165,52.6065029 51.9193343,53.1418309 51.725,53.6295 C51.5306657,54.1171691 51.2575018,54.5369982 50.9055,54.889 C50.5534982,55.2410018 50.1300025,55.5141657 49.635,55.7085 C49.1399975,55.9028343 48.5918363,56 47.9905,56 L44.9545,56 L44.9545,48.047 L47.9905,48.047 C48.5918363,48.047 49.1399975,48.1450824 49.635,48.34125 C50.1300025,48.5374176 50.5534982,48.8105816 50.9055,49.16075 C51.2575018,49.5109184 51.5306657,49.9298309 51.725,50.4175 C51.9193343,50.9051691 52.0165,51.4404971 52.0165,52.0235 Z M50.504,52.0235 C50.504,51.5871645 50.4453339,51.1957517 50.328,50.84925 C50.2106661,50.5027483 50.0438344,50.2094179 49.8275,49.96925 C49.6111656,49.7290821 49.3480849,49.544834 49.03825,49.4165 C48.7284151,49.288166 48.3791686,49.224 47.9905,49.224 L46.445,49.224 L46.445,54.823 L47.9905,54.823 C48.3791686,54.823 48.7284151,54.758834 49.03825,54.6305 C49.3480849,54.502166 49.6111656,54.3179179 49.8275,54.07775 C50.0438344,53.8375821 50.2106661,53.5442517 50.328,53.19775 C50.4453339,52.8512483 50.504,52.4598355 50.504,52.0235 Z M60.1675,56 L59.0235,56 C58.895166,56 58.7897504,55.967917 58.70725,55.90375 C58.6247496,55.839583 58.5651668,55.7598338 58.5285,55.6645 L57.9345,54.042 L54.64,54.042 L54.046,55.6645 C54.0166665,55.7488338 53.9589171,55.825833 53.87275,55.8955 C53.7865829,55.965167 53.6811673,56 53.5565,56 L52.407,56 L55.531,48.047 L57.0435,48.047 L60.1675,56 Z M55.0195,52.997 L57.555,52.997 L56.587,50.3515 C56.5429998,50.2341661 56.4944169,50.0957508 56.44125,49.93625 C56.3880831,49.7767492 56.3358336,49.6035009 56.2845,49.4165 C56.2331664,49.6035009 56.1827502,49.7776659 56.13325,49.939 C56.0837498,50.1003341 56.0351669,50.2414994 55.9875,50.3625 L55.0195,52.997 Z M66.5915,48.047 L66.5915,49.2625 L64.199,49.2625 L64.199,56 L62.7195,56 L62.7195,49.2625 L60.316,49.2625 L60.316,48.047 L66.5915,48.047 Z M72.548,48.047 L72.548,49.224 L69.0225,49.224 L69.0225,51.4295 L71.8,51.4295 L71.8,52.568 L69.0225,52.568 L69.0225,54.8175 L72.548,54.8175 L72.548,56 L67.532,56 L67.532,48.047 L72.548,48.047 Z" id="RELEASECANDIDATE" fill="#003055" fill-rule="nonzero"></path>
                        </g>
                        <g id="4" transform="translate(201.000000, 0.000000)">
                            <circle id="active" stroke="#FFFFFF" stroke-width="2" fill="#FFFFFF" cx="100" cy="14" r="14"></circle>
                            <circle id="Oval" stroke="#FFFFFF" fill="#40E6CF" cx="100" cy="14" r="10"></circle>
                            <polygon id="Page-1" fill="#003055" points="102.080651 12 101.620892 12.4597591 99.1681054 14.9125455 98.3220028 14.2372255 97.81343 13.8305755 97 14.8474607 97.5084426 15.2542408 98.8101389 16.2955979 99.2657326 16.6575996 99.676548 16.2467843 102.54041 13.3830523 102.999909 12.9234234"></polygon>
                            <path d="M79.5785,43.658 C79.8351679,43.658 80.062499,43.6360002 80.2605,43.592 C80.458501,43.5479998 80.6454991,43.4893337 80.8215,43.416 L80.8215,42.2005 L80.0295,42.2005 C79.9121661,42.2005 79.8205003,42.1693336 79.7545,42.107 C79.6884997,42.0446664 79.6555,41.9658338 79.6555,41.8705 L79.6555,40.8475 L82.5045,40.8475 L82.5045,44.23 C82.2991656,44.3803341 82.0855844,44.5095828 81.86375,44.61775 C81.6419156,44.7259172 81.4054179,44.814833 81.15425,44.8845 C80.9030821,44.954167 80.6354181,45.0054998 80.35125,45.0385 C80.0670819,45.0715002 79.761835,45.088 79.4355,45.088 C78.8488304,45.088 78.3061692,44.9844177 77.8075,44.77725 C77.3088308,44.5700823 76.8770852,44.2840852 76.51225,43.91925 C76.1474148,43.5544148 75.8614177,43.1217525 75.65425,42.62125 C75.4470823,42.1207475 75.3435,41.5771696 75.3435,40.9905 C75.3435,40.3928303 75.442499,39.8437525 75.6405,39.34325 C75.838501,38.8427475 76.1217482,38.4110018 76.49025,38.048 C76.8587518,37.6849982 77.3042474,37.4026677 77.82675,37.201 C78.3492526,36.9993323 78.9331634,36.8985 79.5785,36.8985 C79.9121683,36.8985 80.2256652,36.9259997 80.519,36.981 C80.8123348,37.0360003 81.0827488,37.1111662 81.33025,37.2065 C81.5777512,37.3018338 81.8041656,37.4154993 82.0095,37.5475 C82.2148344,37.6795007 82.3981659,37.8224992 82.5595,37.9765 L82.0205,38.796 C81.9691664,38.8730004 81.9077504,38.9334998 81.83625,38.9775 C81.7647496,39.0215002 81.6868338,39.0435 81.6025,39.0435 C81.4924994,39.0435 81.3788339,39.0068337 81.2615,38.9335 C81.1148326,38.8454996 80.9764173,38.769417 80.84625,38.70525 C80.7160827,38.641083 80.5831673,38.5888335 80.4475,38.5485 C80.3118327,38.5081665 80.1688341,38.4788334 80.0185,38.4605 C79.8681659,38.4421666 79.6995009,38.433 79.5125,38.433 C79.1641649,38.433 78.8506681,38.4944161 78.572,38.61725 C78.2933319,38.7400839 78.0559176,38.9133322 77.85975,39.137 C77.6635824,39.3606678 77.5123339,39.6292484 77.406,39.94275 C77.2996661,40.2562516 77.2465,40.6054981 77.2465,40.9905 C77.2465,41.4158355 77.3051661,41.7934984 77.4225,42.1235 C77.5398339,42.4535016 77.7020823,42.7321655 77.90925,42.9595 C78.1164177,43.1868345 78.3620819,43.3600827 78.64625,43.47925 C78.9304181,43.5984173 79.241165,43.658 79.5785,43.658 Z M88.7965,36.9865 L88.7965,38.4165 L85.5075,38.4165 L85.5075,40.2865 L88.0265,40.2865 L88.0265,41.6615 L85.5075,41.6615 L85.5075,43.57 L88.7965,43.57 L88.7965,45 L83.6375,45 L83.6375,36.9865 L88.7965,36.9865 Z M90.8315,36.9865 C90.9121671,36.9865 90.9799997,36.9901666 91.035,36.9975 C91.0900003,37.0048334 91.1394998,37.0185832 91.1835,37.03875 C91.2275002,37.0589168 91.2696665,37.0873332 91.31,37.124 C91.3503335,37.1606668 91.3961664,37.2101664 91.4475,37.2725 L95.2535,42.085 C95.2388333,41.9309992 95.2278334,41.7815841 95.2205,41.63675 C95.2131666,41.4919159 95.2095,41.355334 95.2095,41.227 L95.2095,36.9865 L96.8485,36.9865 L96.8485,45 L95.8805,45 C95.7374993,45 95.6165005,44.9780002 95.5175,44.934 C95.4184995,44.8899998 95.3231671,44.8093339 95.2315,44.692 L91.453,39.918 C91.4640001,40.057334 91.4731666,40.193916 91.4805,40.32775 C91.4878334,40.461584 91.4915,40.5871661 91.4915,40.7045 L91.4915,45 L89.8525,45 L89.8525,36.9865 L90.8315,36.9865 Z M103.3275,36.9865 L103.3275,38.4165 L100.0385,38.4165 L100.0385,40.2865 L102.5575,40.2865 L102.5575,41.6615 L100.0385,41.6615 L100.0385,43.57 L103.3275,43.57 L103.3275,45 L98.1685,45 L98.1685,36.9865 L103.3275,36.9865 Z M106.2425,42.0355 L106.2425,45 L104.3835,45 L104.3835,36.9865 L106.9905,36.9865 C107.569836,36.9865 108.063915,37.0460827 108.47275,37.16525 C108.881585,37.2844173 109.215249,37.4503323 109.47375,37.663 C109.732251,37.8756677 109.920166,38.1268319 110.0375,38.4165 C110.154834,38.7061681 110.2135,39.0214983 110.2135,39.3625 C110.2135,39.6228346 110.178667,39.8684988 110.109,40.0995 C110.039333,40.3305012 109.935751,40.5440824 109.79825,40.74025 C109.660749,40.9364176 109.492084,41.1114992 109.29225,41.2655 C109.092416,41.4195008 108.862335,41.5459995 108.602,41.645 C108.726667,41.7073336 108.843083,41.7843329 108.95125,41.876 C109.059417,41.9676671 109.153833,42.0794993 109.2345,42.2115 L110.9395,45 L109.2565,45 C108.944832,45 108.721167,44.8826678 108.5855,44.648 L107.2545,42.3215 C107.195833,42.2188328 107.127084,42.1455002 107.04825,42.1015 C106.969416,42.0574998 106.858501,42.0355 106.7155,42.0355 L106.2425,42.0355 Z M106.2425,40.754 L106.9905,40.754 C107.243501,40.754 107.458916,40.721917 107.63675,40.65775 C107.814584,40.593583 107.960333,40.5046672 108.074,40.391 C108.187667,40.2773328 108.270166,40.1444174 108.3215,39.99225 C108.372834,39.8400826 108.3985,39.6760009 108.3985,39.5 C108.3985,39.1479982 108.283918,38.873001 108.05475,38.675 C107.825582,38.476999 107.470836,38.378 106.9905,38.378 L106.2425,38.378 L106.2425,40.754 Z M119.1565,45 L117.7155,45 C117.554166,45 117.421251,44.962417 117.31675,44.88725 C117.212249,44.812083 117.139834,44.7158339 117.0995,44.5985 L116.6265,43.2015 L113.5795,43.2015 L113.1065,44.5985 C113.069833,44.7011672 112.998334,44.7937496 112.892,44.87625 C112.785666,44.9587504 112.655501,45 112.5015,45 L111.0495,45 L114.1515,36.9865 L116.0545,36.9865 L119.1565,45 Z M114.0085,41.9365 L116.1975,41.9365 L115.4605,39.742 C115.412833,39.602666 115.356917,39.4385843 115.29275,39.24975 C115.228583,39.0609157 115.165334,38.8565011 115.103,38.6365 C115.044333,38.8601678 114.983834,39.0673324 114.9215,39.258 C114.859166,39.4486676 114.8005,39.613666 114.7455,39.753 L114.0085,41.9365 Z M121.6645,43.515 L124.6345,43.515 L124.6345,45 L119.8055,45 L119.8055,36.9865 L121.6645,36.9865 L121.6645,43.515 Z M70.289,60 L68.848,60 C68.6866659,60 68.5537505,59.962417 68.44925,59.88725 C68.3447495,59.812083 68.2723335,59.7158339 68.232,59.5985 L67.759,58.2015 L64.712,58.2015 L64.239,59.5985 C64.2023332,59.7011672 64.1308339,59.7937496 64.0245,59.87625 C63.9181661,59.9587504 63.7880008,60 63.634,60 L62.182,60 L65.284,51.9865 L67.187,51.9865 L70.289,60 Z M65.141,56.9365 L67.33,56.9365 L66.593,54.742 C66.5453331,54.602666 66.489417,54.4385843 66.42525,54.24975 C66.361083,54.0609157 66.2978336,53.8565011 66.2355,53.6365 C66.176833,53.8601678 66.1163336,54.0673324 66.054,54.258 C65.9916664,54.4486676 65.9330003,54.613666 65.878,54.753 L65.141,56.9365 Z M70.278,51.9865 L71.774,51.9865 C71.9353341,51.9865 72.0673328,52.0231663 72.17,52.0965 C72.2726672,52.1698337 72.3459998,52.2669994 72.39,52.388 L73.941,56.678 C74.010667,56.8650009 74.0812496,57.0684989 74.15275,57.2885 C74.2242504,57.5085011 74.2911664,57.7394988 74.3535,57.9815 C74.4048336,57.7394988 74.4644163,57.5085011 74.53225,57.2885 C74.6000837,57.0684989 74.6669997,56.8650009 74.733,56.678 L76.273,52.388 C76.3096668,52.2853328 76.3811661,52.1927504 76.4875,52.11025 C76.5938339,52.0277496 76.7239992,51.9865 76.878,51.9865 L78.385,51.9865 L75.173,60 L73.49,60 L70.278,51.9865 Z M86.503,60 L85.062,60 C84.9006659,60 84.7677505,59.962417 84.66325,59.88725 C84.5587495,59.812083 84.4863335,59.7158339 84.446,59.5985 L83.973,58.2015 L80.926,58.2015 L80.453,59.5985 C80.4163331,59.7011672 80.3448339,59.7937496 80.2385,59.87625 C80.1321661,59.9587504 80.0020008,60 79.848,60 L78.396,60 L81.498,51.9865 L83.401,51.9865 L86.503,60 Z M81.355,56.9365 L83.544,56.9365 L82.807,54.742 C82.7593331,54.602666 82.703417,54.4385843 82.63925,54.24975 C82.575083,54.0609157 82.5118336,53.8565011 82.4495,53.6365 C82.390833,53.8601678 82.3303336,54.0673324 82.268,54.258 C82.2056664,54.4486676 82.1470003,54.613666 82.092,54.753 L81.355,56.9365 Z M89.187,60 L87.317,60 L87.317,51.9865 L89.187,51.9865 L89.187,60 Z M92.531,58.515 L95.501,58.515 L95.501,60 L90.672,60 L90.672,51.9865 L92.531,51.9865 L92.531,58.515 Z M103.839,60 L102.398,60 C102.236666,60 102.103751,59.962417 101.99925,59.88725 C101.894749,59.812083 101.822334,59.7158339 101.782,59.5985 L101.309,58.2015 L98.262,58.2015 L97.789,59.5985 C97.7523331,59.7011672 97.6808339,59.7937496 97.5745,59.87625 C97.4681661,59.9587504 97.3380008,60 97.184,60 L95.732,60 L98.834,51.9865 L100.737,51.9865 L103.839,60 Z M98.691,56.9365 L100.88,56.9365 L100.143,54.742 C100.095333,54.602666 100.039417,54.4385843 99.97525,54.24975 C99.911083,54.0609157 99.8478336,53.8565011 99.7855,53.6365 C99.726833,53.8601678 99.6663336,54.0673324 99.604,54.258 C99.5416664,54.4486676 99.4830003,54.613666 99.428,54.753 L98.691,56.9365 Z M104.488,60 L104.488,51.9865 L107.436,51.9865 C107.989669,51.9865 108.460831,52.0378328 108.8495,52.1405 C109.238169,52.2431672 109.555332,52.3879991 109.801,52.575 C110.046668,52.7620009 110.225416,52.989332 110.33725,53.257 C110.449084,53.524668 110.505,53.8234984 110.505,54.1535 C110.505,54.3331676 110.479334,54.5064158 110.428,54.67325 C110.376666,54.8400842 110.296001,54.9968326 110.186,55.1435 C110.075999,55.2901674 109.934834,55.4230827 109.7625,55.54225 C109.590166,55.6614173 109.383001,55.7649996 109.141,55.853 C109.669003,55.981334 110.059499,56.1894152 110.3125,56.47725 C110.565501,56.7650848 110.692,57.1344977 110.692,57.5855 C110.692,57.9265017 110.626001,58.2436652 110.494,58.537 C110.361999,58.8303348 110.168585,59.0860822 109.91375,59.30425 C109.658915,59.5224178 109.344502,59.6929161 108.9705,59.81575 C108.596498,59.9385839 108.169336,60 107.689,60 L104.488,60 Z M106.347,56.601 L106.347,58.5975 L107.656,58.5975 C107.901668,58.5975 108.102416,58.5663336 108.25825,58.504 C108.414084,58.4416664 108.536,58.3610005 108.624,58.262 C108.712,58.1629995 108.7725,58.0511673 108.8055,57.9265 C108.8385,57.8018327 108.855,57.675334 108.855,57.547 C108.855,57.4003326 108.83575,57.2683339 108.79725,57.151 C108.75875,57.0336661 108.69275,56.9346671 108.59925,56.854 C108.50575,56.7733329 108.382001,56.7110002 108.228,56.667 C108.073999,56.6229998 107.879668,56.601 107.645,56.601 L106.347,56.601 Z M106.347,55.358 L107.315,55.358 C107.520334,55.358 107.705499,55.3433335 107.8705,55.314 C108.035501,55.2846665 108.175749,55.2333337 108.29125,55.16 C108.406751,55.0866663 108.49475,54.985834 108.55525,54.8575 C108.61575,54.729166 108.646,54.5678343 108.646,54.3735 C108.646,54.1828324 108.622167,54.0242506 108.5745,53.89775 C108.526833,53.7712494 108.4535,53.6695004 108.3545,53.5925 C108.2555,53.5154996 108.129917,53.4605002 107.97775,53.4275 C107.825583,53.3944998 107.645001,53.378 107.436,53.378 L106.347,53.378 L106.347,55.358 Z M113.739,60 L111.869,60 L111.869,51.9865 L113.739,51.9865 L113.739,60 Z M117.083,58.515 L120.053,58.515 L120.053,60 L115.224,60 L115.224,51.9865 L117.083,51.9865 L117.083,58.515 Z M122.968,60 L121.098,60 L121.098,51.9865 L122.968,51.9865 L122.968,60 Z M130.272,51.9865 L130.272,53.4605 L128.017,53.4605 L128.017,60 L126.158,60 L126.158,53.4605 L123.903,53.4605 L123.903,51.9865 L130.272,51.9865 Z M135.035,56.953 L135.035,60 L133.176,60 L133.176,56.953 L130.272,51.9865 L131.911,51.9865 C132.072334,51.9865 132.200666,52.024083 132.296,52.09925 C132.391334,52.174417 132.468333,52.2706661 132.527,52.388 L133.66,54.72 C133.751667,54.9070009 133.836,55.0793325 133.913,55.237 C133.99,55.3946675 134.057833,55.5504992 134.1165,55.7045 C134.1715,55.5468325 134.2375,55.3891675 134.3145,55.2315 C134.3915,55.0738325 134.474,54.9033343 134.562,54.72 L135.684,52.388 C135.706,52.3403331 135.73625,52.2926669 135.77475,52.245 C135.81325,52.1973331 135.85725,52.1542502 135.90675,52.11575 C135.95625,52.0772498 136.013083,52.0460835 136.07725,52.02225 C136.141417,51.9984165 136.212,51.9865 136.289,51.9865 L137.939,51.9865 L135.035,56.953 Z" id="GENERALAVAILABILITY" fill="#003055" fill-rule="nonzero"></path>
                        </g>
                    </g>
                </g>
            </g>
        </g>
    </g>
</svg>