<?xml version="1.0" encoding="UTF-8"?>
<svg width="117px" height="206px" viewBox="0 0 117 206" version="1.1" xmlns="http://www.w3.org/2000/svg" xmlns:xlink="http://www.w3.org/1999/xlink">
    <!-- Generator: Sketch 54.1 (76490) - https://sketchapp.com -->
    <title>phase4</title>
    <desc>Created with Sketch.</desc>
    <g id="final" stroke="none" stroke-width="1" fill="none" fill-rule="evenodd">
        <g id="Overture/Song-accessible" transform="translate(-26.000000, -118.000000)">
            <g id="progress-bar" transform="translate(27.000000, 115.000000)">
                <g id="phase4">
                    <rect id="Path" fill="#04518C" x="13" y="14" width="3" height="60" rx="1.5"></rect>
                    <rect id="Path" fill="#04518C" x="13" y="74" width="3" height="60" rx="1.5"></rect>
                    <rect id="Path" fill="#04518C" x="13" y="134" width="3" height="47" rx="1.5"></rect>
                    <circle id="Oval" stroke="#FFFFFF" fill="#40E6CF" cx="14" cy="14" r="10"></circle>
                    <circle id="Oval" stroke="#FFFFFF" fill="#40E6CF" cx="14" cy="74" r="10"></circle>
                    <circle id="Oval" stroke="#FFFFFF" fill="#40E6CF" cx="14" cy="134" r="10"></circle>
                    <circle id="Oval" stroke="#FFFFFF" stroke-width="2" fill="#FFFFFF" cx="14" cy="194" r="14"></circle>
                    <circle id="Oval" stroke="#FFFFFF" fill="#40E6CF" cx="14" cy="194" r="10"></circle>
                    <polygon id="Page-1" fill="#003055" points="16.0806509 12 15.6208918 12.4597591 13.1681054 14.9125455 12.3220028 14.2372255 11.81343 13.8305755 11 14.8474607 11.5084426 15.2542408 12.8101389 16.2955979 13.2657326 16.6575996 13.676548 16.2467843 16.5404101 13.3830523 16.9999089 12.9234234"></polygon>
                    <polygon id="Page-1" fill="#003055" points="16.0806509 72 15.6208918 72.4597591 13.1681054 74.9125455 12.3220028 74.2372255 11.81343 73.8305755 11 74.8474607 11.5084426 75.2542408 12.8101389 76.2955979 13.2657326 76.6575996 13.676548 76.2467843 16.5404101 73.3830523 16.9999089 72.9234234"></polygon>
                    <polygon id="Page-1" fill="#003055" points="16.0806509 132 15.6208918 132.459759 13.1681054 134.912546 12.3220028 134.237225 11.81343 133.830576 11 134.847461 11.5084426 135.254241 12.8101389 136.295598 13.2657326 136.6576 13.676548 136.246784 16.5404101 133.383052 16.9999089 132.923423"></polygon>
                    <polygon id="Page-1" fill="#003055" points="16.0806509 192 15.6208918 192.459759 13.1681054 194.912546 12.3220028 194.237225 11.81343 193.830576 11 194.847461 11.5084426 195.254241 12.8101389 196.295598 13.2657326 196.6576 13.676548 196.246784 16.5404101 193.383052 16.9999089 192.923423"></polygon>
                    <path d="M38.433,189.658 C38.689668,189.658 38.916999,189.636 39.115,189.592 C39.313001,189.548 39.4999991,189.489334 39.676,189.416 L39.676,188.2005 L38.884,188.2005 C38.7666661,188.2005 38.6750003,188.169334 38.609,188.107 C38.5429997,188.044666 38.51,187.965834 38.51,187.8705 L38.51,186.8475 L41.359,186.8475 L41.359,190.23 C41.1536656,190.380334 40.9400844,190.509583 40.71825,190.61775 C40.4964156,190.725917 40.2599179,190.814833 40.00875,190.8845 C39.7575821,190.954167 39.4899181,191.0055 39.20575,191.0385 C38.9215819,191.0715 38.616335,191.088 38.29,191.088 C37.7033304,191.088 37.1606692,190.984418 36.662,190.77725 C36.1633308,190.570082 35.7315852,190.284085 35.36675,189.91925 C35.0019148,189.554415 34.7159177,189.121753 34.50875,188.62125 C34.3015823,188.120747 34.198,187.57717 34.198,186.9905 C34.198,186.39283 34.296999,185.843753 34.495,185.34325 C34.693001,184.842747 34.9762482,184.411002 35.34475,184.048 C35.7132518,183.684998 36.1587474,183.402668 36.68125,183.201 C37.2037526,182.999332 37.7876634,182.8985 38.433,182.8985 C38.7666683,182.8985 39.0801652,182.926 39.3735,182.981 C39.6668348,183.036 39.9372488,183.111166 40.18475,183.2065 C40.4322512,183.301834 40.6586656,183.415499 40.864,183.5475 C41.0693344,183.679501 41.2526659,183.822499 41.414,183.9765 L40.875,184.796 C40.8236664,184.873 40.7622504,184.9335 40.69075,184.9775 C40.6192496,185.0215 40.5413338,185.0435 40.457,185.0435 C40.3469994,185.0435 40.2333339,185.006834 40.116,184.9335 C39.9693326,184.8455 39.8309173,184.769417 39.70075,184.70525 C39.5705827,184.641083 39.4376673,184.588834 39.302,184.5485 C39.1663327,184.508166 39.0233341,184.478833 38.873,184.4605 C38.7226659,184.442167 38.5540009,184.433 38.367,184.433 C38.0186649,184.433 37.7051681,184.494416 37.4265,184.61725 C37.1478319,184.740084 36.9104176,184.913332 36.71425,185.137 C36.5180824,185.360668 36.3668339,185.629248 36.2605,185.94275 C36.1541661,186.256252 36.101,186.605498 36.101,186.9905 C36.101,187.415835 36.1596661,187.793498 36.277,188.1235 C36.3943339,188.453502 36.5565823,188.732166 36.76375,188.9595 C36.9709177,189.186834 37.2165819,189.360083 37.50075,189.47925 C37.7849181,189.598417 38.095665,189.658 38.433,189.658 Z M47.651,182.9865 L47.651,184.4165 L44.362,184.4165 L44.362,186.2865 L46.881,186.2865 L46.881,187.6615 L44.362,187.6615 L44.362,189.57 L47.651,189.57 L47.651,191 L42.492,191 L42.492,182.9865 L47.651,182.9865 Z M49.686,182.9865 C49.7666671,182.9865 49.8344997,182.990167 49.8895,182.9975 C49.9445003,183.004833 49.9939998,183.018583 50.038,183.03875 C50.0820002,183.058917 50.1241665,183.087333 50.1645,183.124 C50.2048335,183.160667 50.2506664,183.210166 50.302,183.2725 L54.108,188.085 C54.0933333,187.930999 54.0823334,187.781584 54.075,187.63675 C54.0676666,187.491916 54.064,187.355334 54.064,187.227 L54.064,182.9865 L55.703,182.9865 L55.703,191 L54.735,191 C54.5919993,191 54.4710005,190.978 54.372,190.934 C54.2729995,190.89 54.1776671,190.809334 54.086,190.692 L50.3075,185.918 C50.3185001,186.057334 50.3276666,186.193916 50.335,186.32775 C50.3423334,186.461584 50.346,186.587166 50.346,186.7045 L50.346,191 L48.707,191 L48.707,182.9865 L49.686,182.9865 Z M62.182,182.9865 L62.182,184.4165 L58.893,184.4165 L58.893,186.2865 L61.412,186.2865 L61.412,187.6615 L58.893,187.6615 L58.893,189.57 L62.182,189.57 L62.182,191 L57.023,191 L57.023,182.9865 L62.182,182.9865 Z M65.097,188.0355 L65.097,191 L63.238,191 L63.238,182.9865 L65.845,182.9865 C66.4243362,182.9865 66.9184146,183.046083 67.32725,183.16525 C67.7360854,183.284417 68.0697487,183.450332 68.32825,183.663 C68.5867513,183.875668 68.7746661,184.126832 68.892,184.4165 C69.0093339,184.706168 69.068,185.021498 69.068,185.3625 C69.068,185.622835 69.033167,185.868499 68.9635,186.0995 C68.893833,186.330501 68.7902507,186.544082 68.65275,186.74025 C68.5152493,186.936418 68.3465843,187.111499 68.14675,187.2655 C67.9469157,187.419501 67.7168346,187.546 67.4565,187.645 C67.5811673,187.707334 67.6975828,187.784333 67.80575,187.876 C67.9139172,187.967667 68.0083329,188.079499 68.089,188.2115 L69.794,191 L68.111,191 C67.7993318,191 67.5756673,190.882668 67.44,190.648 L66.109,188.3215 C66.050333,188.218833 65.9815837,188.1455 65.90275,188.1015 C65.8239163,188.0575 65.7130007,188.0355 65.57,188.0355 L65.097,188.0355 Z M65.097,186.754 L65.845,186.754 C66.0980013,186.754 66.3134158,186.721917 66.49125,186.65775 C66.6690842,186.593583 66.8148328,186.504667 66.9285,186.391 C67.0421672,186.277333 67.1246664,186.144417 67.176,185.99225 C67.2273336,185.840083 67.253,185.676001 67.253,185.5 C67.253,185.147998 67.1384178,184.873001 66.90925,184.675 C66.6800822,184.476999 66.3253357,184.378 65.845,184.378 L65.097,184.378 L65.097,186.754 Z M78.011,191 L76.57,191 C76.4086659,191 76.2757505,190.962417 76.17125,190.88725 C76.0667495,190.812083 75.9943335,190.715834 75.954,190.5985 L75.481,189.2015 L72.434,189.2015 L71.961,190.5985 C71.9243331,190.701167 71.8528339,190.79375 71.7465,190.87625 C71.6401661,190.95875 71.5100008,191 71.356,191 L69.904,191 L73.006,182.9865 L74.909,182.9865 L78.011,191 Z M72.863,187.9365 L75.052,187.9365 L74.315,185.742 C74.2673331,185.602666 74.211417,185.438584 74.14725,185.24975 C74.083083,185.060916 74.0198336,184.856501 73.9575,184.6365 C73.898833,184.860168 73.8383336,185.067332 73.776,185.258 C73.7136664,185.448668 73.6550003,185.613666 73.6,185.753 L72.863,187.9365 Z M80.519,189.515 L83.489,189.515 L83.489,191 L78.66,191 L78.66,182.9865 L80.519,182.9865 L80.519,189.515 Z M42.118,206 L40.677,206 C40.5156659,206 40.3827505,205.962417 40.27825,205.88725 C40.1737495,205.812083 40.1013335,205.715834 40.061,205.5985 L39.588,204.2015 L36.541,204.2015 L36.068,205.5985 C36.0313332,205.701167 35.9598339,205.79375 35.8535,205.87625 C35.7471661,205.95875 35.6170008,206 35.463,206 L34.011,206 L37.113,197.9865 L39.016,197.9865 L42.118,206 Z M36.97,202.9365 L39.159,202.9365 L38.422,200.742 C38.3743331,200.602666 38.318417,200.438584 38.25425,200.24975 C38.190083,200.060916 38.1268336,199.856501 38.0645,199.6365 C38.005833,199.860168 37.9453336,200.067332 37.883,200.258 C37.8206664,200.448668 37.7620003,200.613666 37.707,200.753 L36.97,202.9365 Z M42.107,197.9865 L43.603,197.9865 C43.7643341,197.9865 43.8963328,198.023166 43.999,198.0965 C44.1016672,198.169834 44.1749998,198.266999 44.219,198.388 L45.77,202.678 C45.839667,202.865001 45.9102496,203.068499 45.98175,203.2885 C46.0532504,203.508501 46.1201664,203.739499 46.1825,203.9815 C46.2338336,203.739499 46.2934163,203.508501 46.36125,203.2885 C46.4290837,203.068499 46.4959997,202.865001 46.562,202.678 L48.102,198.388 C48.1386668,198.285333 48.2101661,198.19275 48.3165,198.11025 C48.4228339,198.02775 48.5529992,197.9865 48.707,197.9865 L50.214,197.9865 L47.002,206 L45.319,206 L42.107,197.9865 Z M58.332,206 L56.891,206 C56.7296659,206 56.5967505,205.962417 56.49225,205.88725 C56.3877495,205.812083 56.3153335,205.715834 56.275,205.5985 L55.802,204.2015 L52.755,204.2015 L52.282,205.5985 C52.2453332,205.701167 52.1738339,205.79375 52.0675,205.87625 C51.9611661,205.95875 51.8310008,206 51.677,206 L50.225,206 L53.327,197.9865 L55.23,197.9865 L58.332,206 Z M53.184,202.9365 L55.373,202.9365 L54.636,200.742 C54.5883331,200.602666 54.532417,200.438584 54.46825,200.24975 C54.404083,200.060916 54.3408336,199.856501 54.2785,199.6365 C54.219833,199.860168 54.1593336,200.067332 54.097,200.258 C54.0346664,200.448668 53.9760003,200.613666 53.921,200.753 L53.184,202.9365 Z M61.016,206 L59.146,206 L59.146,197.9865 L61.016,197.9865 L61.016,206 Z M64.36,204.515 L67.33,204.515 L67.33,206 L62.501,206 L62.501,197.9865 L64.36,197.9865 L64.36,204.515 Z M75.668,206 L74.227,206 C74.0656659,206 73.9327505,205.962417 73.82825,205.88725 C73.7237495,205.812083 73.6513335,205.715834 73.611,205.5985 L73.138,204.2015 L70.091,204.2015 L69.618,205.5985 C69.5813331,205.701167 69.5098339,205.79375 69.4035,205.87625 C69.2971661,205.95875 69.1670008,206 69.013,206 L67.561,206 L70.663,197.9865 L72.566,197.9865 L75.668,206 Z M70.52,202.9365 L72.709,202.9365 L71.972,200.742 C71.9243331,200.602666 71.868417,200.438584 71.80425,200.24975 C71.740083,200.060916 71.6768336,199.856501 71.6145,199.6365 C71.555833,199.860168 71.4953336,200.067332 71.433,200.258 C71.3706664,200.448668 71.3120003,200.613666 71.257,200.753 L70.52,202.9365 Z M76.317,206 L76.317,197.9865 L79.265,197.9865 C79.8186694,197.9865 80.2898314,198.037833 80.6785,198.1405 C81.0671686,198.243167 81.3843321,198.387999 81.63,198.575 C81.8756679,198.762001 82.0544161,198.989332 82.16625,199.257 C82.2780839,199.524668 82.334,199.823498 82.334,200.1535 C82.334,200.333168 82.3083336,200.506416 82.257,200.67325 C82.2056664,200.840084 82.1250005,200.996833 82.015,201.1435 C81.9049994,201.290167 81.7638342,201.423083 81.5915,201.54225 C81.4191658,201.661417 81.2120012,201.765 80.97,201.853 C81.4980026,201.981334 81.8884987,202.189415 82.1415,202.47725 C82.3945013,202.765085 82.521,203.134498 82.521,203.5855 C82.521,203.926502 82.4550007,204.243665 82.323,204.537 C82.1909993,204.830335 81.9975846,205.086082 81.74275,205.30425 C81.4879154,205.522418 81.1735019,205.692916 80.7995,205.81575 C80.4254981,205.938584 79.9983357,206 79.518,206 L76.317,206 Z M78.176,202.601 L78.176,204.5975 L79.485,204.5975 C79.7306679,204.5975 79.9314159,204.566334 80.08725,204.504 C80.2430841,204.441666 80.3649996,204.361 80.453,204.262 C80.5410004,204.163 80.6014998,204.051167 80.6345,203.9265 C80.6675002,203.801833 80.684,203.675334 80.684,203.547 C80.684,203.400333 80.6647502,203.268334 80.62625,203.151 C80.5877498,203.033666 80.5217505,202.934667 80.42825,202.854 C80.3347495,202.773333 80.2110008,202.711 80.057,202.667 C79.9029992,202.623 79.7086678,202.601 79.474,202.601 L78.176,202.601 Z M78.176,201.358 L79.144,201.358 C79.3493344,201.358 79.5344992,201.343333 79.6995,201.314 C79.8645008,201.284667 80.0047494,201.233334 80.12025,201.16 C80.2357506,201.086666 80.3237497,200.985834 80.38425,200.8575 C80.4447503,200.729166 80.475,200.567834 80.475,200.3735 C80.475,200.182832 80.4511669,200.024251 80.4035,199.89775 C80.3558331,199.771249 80.2825005,199.6695 80.1835,199.5925 C80.0844995,199.5155 79.9589174,199.4605 79.80675,199.4275 C79.6545826,199.3945 79.474001,199.378 79.265,199.378 L78.176,199.378 L78.176,201.358 Z M85.568,206 L83.698,206 L83.698,197.9865 L85.568,197.9865 L85.568,206 Z M88.912,204.515 L91.882,204.515 L91.882,206 L87.053,206 L87.053,197.9865 L88.912,197.9865 L88.912,204.515 Z M94.797,206 L92.927,206 L92.927,197.9865 L94.797,197.9865 L94.797,206 Z M102.101,197.9865 L102.101,199.4605 L99.846,199.4605 L99.846,206 L97.987,206 L97.987,199.4605 L95.732,199.4605 L95.732,197.9865 L102.101,197.9865 Z M106.864,202.953 L106.864,206 L105.005,206 L105.005,202.953 L102.101,197.9865 L103.74,197.9865 C103.901334,197.9865 104.029666,198.024083 104.125,198.09925 C104.220334,198.174417 104.297333,198.270666 104.356,198.388 L105.489,200.72 C105.580667,200.907001 105.665,201.079333 105.742,201.237 C105.819,201.394667 105.886833,201.550499 105.9455,201.7045 C106.0005,201.546833 106.0665,201.389167 106.1435,201.2315 C106.2205,201.073833 106.303,200.903334 106.391,200.72 L107.513,198.388 C107.535,198.340333 107.56525,198.292667 107.60375,198.245 C107.64225,198.197333 107.68625,198.15425 107.73575,198.11575 C107.78525,198.07725 107.842083,198.046083 107.90625,198.02225 C107.970417,197.998417 108.041,197.9865 108.118,197.9865 L109.768,197.9865 L106.864,202.953 Z" id="GENERALAVAILABILITY" fill="#003055" fill-rule="nonzero"></path>
                    <path d="M36.332,130.8925 L36.332,134 L34.8525,134 L34.8525,126.047 L37.278,126.047 C37.8206694,126.047 38.2854147,126.102916 38.67225,126.21475 C39.0590853,126.326584 39.3762488,126.483332 39.62375,126.685 C39.8712512,126.886668 40.0527494,127.127749 40.16825,127.40825 C40.2837506,127.688751 40.3415,127.997665 40.3415,128.335 C40.3415,128.602668 40.3020837,128.855665 40.22325,129.094 C40.1444163,129.332335 40.0307507,129.548666 39.88225,129.743 C39.7337493,129.937334 39.5504178,130.107833 39.33225,130.2545 C39.1140822,130.401167 38.8656681,130.5185 38.587,130.6065 C38.7740009,130.712834 38.9353327,130.864999 39.071,131.063 L41.062,134 L39.731,134 C39.602666,134 39.4935838,133.974334 39.40375,133.923 C39.3139162,133.871666 39.2378336,133.798334 39.1755,133.703 L37.5035,131.1565 C37.4411664,131.061166 37.372417,130.993334 37.29725,130.953 C37.222083,130.912666 37.1111674,130.8925 36.9645,130.8925 L36.332,130.8925 Z M36.332,129.831 L37.256,129.831 C37.5346681,129.831 37.7775823,129.796167 37.98475,129.7265 C38.1919177,129.656833 38.362416,129.560584 38.49625,129.43775 C38.630084,129.314916 38.7299997,129.169168 38.796,129.0005 C38.8620003,128.831832 38.895,128.646668 38.895,128.445 C38.895,128.041665 38.7620847,127.731834 38.49625,127.5155 C38.2304153,127.299166 37.8243361,127.191 37.278,127.191 L36.332,127.191 L36.332,129.831 Z M47.024,126.047 L47.024,127.224 L43.4985,127.224 L43.4985,129.4295 L46.276,129.4295 L46.276,130.568 L43.4985,130.568 L43.4985,132.8175 L47.024,132.8175 L47.024,134 L42.008,134 L42.008,126.047 L47.024,126.047 Z M49.785,132.779 L52.9695,132.779 L52.9695,134 L48.3055,134 L48.3055,126.047 L49.785,126.047 L49.785,132.779 Z M59.0085,126.047 L59.0085,127.224 L55.483,127.224 L55.483,129.4295 L58.2605,129.4295 L58.2605,130.568 L55.483,130.568 L55.483,132.8175 L59.0085,132.8175 L59.0085,134 L53.9925,134 L53.9925,126.047 L59.0085,126.047 Z M67.2805,134 L66.1365,134 C66.008166,134 65.9027504,133.967917 65.82025,133.90375 C65.7377496,133.839583 65.6781668,133.759834 65.6415,133.6645 L65.0475,132.042 L61.753,132.042 L61.159,133.6645 C61.1296665,133.748834 61.0719171,133.825833 60.98575,133.8955 C60.8995829,133.965167 60.7941673,134 60.6695,134 L59.52,134 L62.644,126.047 L64.1565,126.047 L67.2805,134 Z M62.1325,130.997 L64.668,130.997 L63.7,128.3515 C63.6559998,128.234166 63.6074169,128.095751 63.55425,127.93625 C63.5010831,127.776749 63.4488336,127.603501 63.3975,127.4165 C63.3461664,127.603501 63.2957502,127.777666 63.24625,127.939 C63.1967498,128.100334 63.1481669,128.241499 63.1005,128.3625 L62.1325,130.997 Z M72.3625,127.4935 C72.3221665,127.574167 72.2754169,127.631 72.22225,127.664 C72.1690831,127.697 72.1058337,127.7135 72.0325,127.7135 C71.9591663,127.7135 71.8766671,127.685084 71.785,127.62825 C71.6933329,127.571416 71.5851673,127.508167 71.4605,127.4385 C71.3358327,127.368833 71.1900842,127.305584 71.02325,127.24875 C70.8564158,127.191916 70.6593345,127.1635 70.432,127.1635 C70.2266656,127.1635 70.0479174,127.18825 69.89575,127.23775 C69.7435826,127.28725 69.6152505,127.356 69.51075,127.444 C69.4062495,127.532 69.3283336,127.637416 69.277,127.76025 C69.2256664,127.883084 69.2,128.017833 69.2,128.1645 C69.2,128.351501 69.2522495,128.507333 69.35675,128.632 C69.4612505,128.756667 69.5996658,128.863 69.772,128.951 C69.9443342,129.039 70.1404989,129.117833 70.3605,129.1875 C70.5805011,129.257167 70.8050822,129.331416 71.03425,129.41025 C71.2634178,129.489084 71.4879989,129.580749 71.708,129.68525 C71.9280011,129.789751 72.1241658,129.921749 72.2965,130.08125 C72.4688342,130.240751 72.6072495,130.435999 72.71175,130.667 C72.8162505,130.898001 72.8685,131.178498 72.8685,131.5085 C72.8685,131.867835 72.8070839,132.204248 72.68425,132.51775 C72.5614161,132.831252 72.3817512,133.104416 72.14525,133.33725 C71.9087488,133.570084 71.6200017,133.753416 71.279,133.88725 C70.9379983,134.021084 70.5475022,134.088 70.1075,134.088 C69.8544987,134.088 69.6051679,134.06325 69.3595,134.01375 C69.1138321,133.96425 68.8782511,133.893667 68.65275,133.802 C68.4272489,133.710333 68.2164176,133.600334 68.02025,133.472 C67.8240824,133.343666 67.6490008,133.200667 67.495,133.043 L67.924,132.3335 C67.9643335,132.282166 68.0129164,132.239084 68.06975,132.20425 C68.1265836,132.169416 68.189833,132.152 68.2595,132.152 C68.3511671,132.152 68.4501661,132.189583 68.5565,132.26475 C68.6628339,132.339917 68.7884159,132.423333 68.93325,132.515 C69.0780841,132.606667 69.2485824,132.690083 69.44475,132.76525 C69.6409176,132.840417 69.8764986,132.878 70.1515,132.878 C70.5731688,132.878 70.8994988,132.778084 71.1305,132.57825 C71.3615012,132.378416 71.477,132.091502 71.477,131.7175 C71.477,131.508499 71.4247505,131.338001 71.32025,131.206 C71.2157495,131.073999 71.0773342,130.963084 70.905,130.87325 C70.7326658,130.783416 70.5365011,130.707334 70.3165,130.645 C70.0964989,130.582666 69.8728345,130.514834 69.6455,130.4415 C69.4181655,130.368166 69.1945011,130.280167 68.9745,130.1775 C68.7544989,130.074833 68.5583342,129.941001 68.386,129.776 C68.2136658,129.610999 68.0752505,129.404751 67.97075,129.15725 C67.8662495,128.909749 67.814,128.604502 67.814,128.2415 C67.814,127.951832 67.8717494,127.669501 67.98725,127.3945 C68.1027506,127.119499 68.2714156,126.875668 68.49325,126.663 C68.7150844,126.450332 68.9873317,126.279834 69.31,126.1515 C69.6326683,126.023166 70.0011646,125.959 70.4155,125.959 C70.8848357,125.959 71.317498,126.032333 71.7135,126.179 C72.109502,126.325667 72.4468319,126.530999 72.7255,126.795 L72.3625,127.4935 Z M79.0175,126.047 L79.0175,127.224 L75.492,127.224 L75.492,129.4295 L78.2695,129.4295 L78.2695,130.568 L75.492,130.568 L75.492,132.8175 L79.0175,132.8175 L79.0175,134 L74.0015,134 L74.0015,126.047 L79.0175,126.047 Z M40.27,145.1245 C40.3506671,145.1245 40.420333,145.155666 40.479,145.218 L41.062,145.8505 C40.7393317,146.250169 40.342419,146.556332 39.87125,146.769 C39.400081,146.981668 38.8345033,147.088 38.1745,147.088 C37.5841637,147.088 37.053419,146.987168 36.58225,146.7855 C36.111081,146.583832 35.7086683,146.303335 35.375,145.944 C35.0413317,145.584665 34.7855842,145.155669 34.60775,144.657 C34.4299158,144.158331 34.341,143.613836 34.341,143.0235 C34.341,142.42583 34.439999,141.878586 34.638,141.38175 C34.836001,140.884914 35.1146649,140.456835 35.474,140.0975 C35.8333351,139.738165 36.2632475,139.458584 36.76375,139.25875 C37.2642525,139.058916 37.816997,138.959 38.422,138.959 C39.0123363,138.959 39.5284145,139.053416 39.97025,139.24225 C40.4120855,139.431084 40.7906651,139.681332 41.106,139.993 L40.611,140.6805 C40.5816665,140.7245 40.5440836,140.763 40.49825,140.796 C40.4524164,140.829 40.3891671,140.8455 40.3085,140.8455 C40.2241662,140.8455 40.1380004,140.8125 40.05,140.7465 C39.9619996,140.6805 39.8501673,140.609 39.7145,140.532 C39.5788327,140.455 39.4074177,140.3835 39.20025,140.3175 C38.9930823,140.2515 38.7300016,140.2185 38.411,140.2185 C38.0369981,140.2185 37.6932516,140.283583 37.37975,140.41375 C37.0662484,140.543917 36.7967511,140.729999 36.57125,140.972 C36.3457489,141.214001 36.1697506,141.508248 36.04325,141.85475 C35.9167494,142.201252 35.8535,142.590831 35.8535,143.0235 C35.8535,143.470836 35.9167494,143.868665 36.04325,144.217 C36.1697506,144.565335 36.3411656,144.858665 36.5575,145.097 C36.7738344,145.335335 37.0286652,145.517749 37.322,145.64425 C37.6153348,145.770751 37.930665,145.834 38.268,145.834 C38.4696677,145.834 38.6520825,145.823 38.81525,145.801 C38.9784175,145.779 39.1287493,145.744167 39.26625,145.6965 C39.4037507,145.648833 39.5339161,145.587417 39.65675,145.51225 C39.7795839,145.437083 39.9014994,145.344501 40.0225,145.2345 C40.0591668,145.2015 40.0976665,145.174917 40.138,145.15475 C40.1783335,145.134583 40.2223331,145.1245 40.27,145.1245 Z M49.169,147 L48.025,147 C47.896666,147 47.7912504,146.967917 47.70875,146.90375 C47.6262496,146.839583 47.5666668,146.759834 47.53,146.6645 L46.936,145.042 L43.6415,145.042 L43.0475,146.6645 C43.0181665,146.748834 42.9604171,146.825833 42.87425,146.8955 C42.7880829,146.965167 42.6826673,147 42.558,147 L41.4085,147 L44.5325,139.047 L46.045,139.047 L49.169,147 Z M44.021,143.997 L46.5565,143.997 L45.5885,141.3515 C45.5444998,141.234166 45.4959169,141.095751 45.44275,140.93625 C45.3895831,140.776749 45.3373336,140.603501 45.286,140.4165 C45.2346664,140.603501 45.1842502,140.777666 45.13475,140.939 C45.0852498,141.100334 45.0366669,141.241499 44.989,141.3625 L44.021,143.997 Z M50.764,139.047 C50.8300003,139.047 50.8849998,139.04975 50.929,139.05525 C50.9730002,139.06075 51.0124165,139.07175 51.04725,139.08825 C51.0820835,139.10475 51.1159998,139.128583 51.149,139.15975 C51.1820002,139.190917 51.2186665,139.232166 51.259,139.2835 L55.4335,144.602 C55.4188333,144.473666 55.40875,144.348084 55.40325,144.22525 C55.39775,144.102416 55.395,143.987834 55.395,143.8815 L55.395,139.047 L56.6985,139.047 L56.6985,147 L55.934,147 C55.8166661,147 55.7195004,146.981667 55.6425,146.945 C55.5654996,146.908333 55.4903337,146.842334 55.417,146.747 L51.259,141.4505 C51.2700001,141.567834 51.27825,141.684249 51.28375,141.79975 C51.28925,141.915251 51.292,142.020666 51.292,142.116 L51.292,147 L49.9885,147 L49.9885,139.047 L50.764,139.047 Z M65.3665,143.0235 C65.3665,143.606503 65.2693343,144.141831 65.075,144.6295 C64.8806657,145.117169 64.6075018,145.536998 64.2555,145.889 C63.9034982,146.241002 63.4800025,146.514166 62.985,146.7085 C62.4899975,146.902834 61.9418363,147 61.3405,147 L58.3045,147 L58.3045,139.047 L61.3405,139.047 C61.9418363,139.047 62.4899975,139.145082 62.985,139.34125 C63.4800025,139.537418 63.9034982,139.810582 64.2555,140.16075 C64.6075018,140.510918 64.8806657,140.929831 65.075,141.4175 C65.2693343,141.905169 65.3665,142.440497 65.3665,143.0235 Z M63.854,143.0235 C63.854,142.587164 63.7953339,142.195752 63.678,141.84925 C63.5606661,141.502748 63.3938344,141.209418 63.1775,140.96925 C62.9611656,140.729082 62.6980849,140.544834 62.38825,140.4165 C62.0784151,140.288166 61.7291686,140.224 61.3405,140.224 L59.795,140.224 L59.795,145.823 L61.3405,145.823 C61.7291686,145.823 62.0784151,145.758834 62.38825,145.6305 C62.6980849,145.502166 62.9611656,145.317918 63.1775,145.07775 C63.3938344,144.837582 63.5606661,144.544252 63.678,144.19775 C63.7953339,143.851248 63.854,143.459836 63.854,143.0235 Z M68.1935,147 L66.7085,147 L66.7085,139.047 L68.1935,139.047 L68.1935,147 Z M77.043,143.0235 C77.043,143.606503 76.9458343,144.141831 76.7515,144.6295 C76.5571657,145.117169 76.2840018,145.536998 75.932,145.889 C75.5799982,146.241002 75.1565025,146.514166 74.6615,146.7085 C74.1664975,146.902834 73.6183363,147 73.017,147 L69.981,147 L69.981,139.047 L73.017,139.047 C73.6183363,139.047 74.1664975,139.145082 74.6615,139.34125 C75.1565025,139.537418 75.5799982,139.810582 75.932,140.16075 C76.2840018,140.510918 76.5571657,140.929831 76.7515,141.4175 C76.9458343,141.905169 77.043,142.440497 77.043,143.0235 Z M75.5305,143.0235 C75.5305,142.587164 75.4718339,142.195752 75.3545,141.84925 C75.2371661,141.502748 75.0703344,141.209418 74.854,140.96925 C74.6376656,140.729082 74.3745849,140.544834 74.06475,140.4165 C73.7549151,140.288166 73.4056686,140.224 73.017,140.224 L71.4715,140.224 L71.4715,145.823 L73.017,145.823 C73.4056686,145.823 73.7549151,145.758834 74.06475,145.6305 C74.3745849,145.502166 74.6376656,145.317918 74.854,145.07775 C75.0703344,144.837582 75.2371661,144.544252 75.3545,144.19775 C75.4718339,143.851248 75.5305,143.459836 75.5305,143.0235 Z M85.194,147 L84.05,147 C83.921666,147 83.8162504,146.967917 83.73375,146.90375 C83.6512496,146.839583 83.5916668,146.759834 83.555,146.6645 L82.961,145.042 L79.6665,145.042 L79.0725,146.6645 C79.0431665,146.748834 78.9854171,146.825833 78.89925,146.8955 C78.8130829,146.965167 78.7076673,147 78.583,147 L77.4335,147 L80.5575,139.047 L82.07,139.047 L85.194,147 Z M80.046,143.997 L82.5815,143.997 L81.6135,141.3515 C81.5694998,141.234166 81.5209169,141.095751 81.46775,140.93625 C81.4145831,140.776749 81.3623336,140.603501 81.311,140.4165 C81.2596664,140.603501 81.2092502,140.777666 81.15975,140.939 C81.1102498,141.100334 81.0616669,141.241499 81.014,141.3625 L80.046,143.997 Z M91.618,139.047 L91.618,140.2625 L89.2255,140.2625 L89.2255,147 L87.746,147 L87.746,140.2625 L85.3425,140.2625 L85.3425,139.047 L91.618,139.047 Z M97.5745,139.047 L97.5745,140.224 L94.049,140.224 L94.049,142.4295 L96.8265,142.4295 L96.8265,143.568 L94.049,143.568 L94.049,145.8175 L97.5745,145.8175 L97.5745,147 L92.5585,147 L92.5585,139.047 L97.5745,139.047 Z" id="RELEASECANDIDATE" fill="#003055" fill-rule="nonzero"></path>
                    <path d="M38.004,10.8065 C38.2900014,10.8065 38.5457489,10.7588338 38.77125,10.6635 C38.9967511,10.5681662 39.1874159,10.4343342 39.34325,10.262 C39.4990841,10.0896658 39.6182496,9.8806679 39.70075,9.635 C39.7832504,9.38933211 39.8245,9.11433486 39.8245,8.81 L39.8245,4.047 L41.304,4.047 L41.304,8.81 C41.304,9.28300237 41.2279174,9.72024799 41.07575,10.12175 C40.9235826,10.523252 40.7045014,10.8697485 40.4185,11.16125 C40.1324986,11.4527515 39.786002,11.6800825 39.379,11.84325 C38.971998,12.0064175 38.5136692,12.088 38.004,12.088 C37.4943308,12.088 37.036002,12.0064175 36.629,11.84325 C36.221998,11.6800825 35.8764181,11.4527515 35.59225,11.16125 C35.3080819,10.8697485 35.0899174,10.523252 34.93775,10.12175 C34.7855826,9.72024799 34.7095,9.28300237 34.7095,8.81 L34.7095,4.047 L36.189,4.047 L36.189,8.8045 C36.189,9.10883485 36.2302496,9.38383211 36.31275,9.6295 C36.3952504,9.87516789 36.5134992,10.0850825 36.6675,10.25925 C36.8215008,10.4334175 37.0112489,10.5681662 37.23675,10.6635 C37.4622511,10.7588338 37.7179986,10.8065 38.004,10.8065 Z M43.5865,4.047 C43.6525003,4.047 43.7074998,4.04974997 43.7515,4.05525 C43.7955002,4.06075003 43.8349165,4.07174992 43.86975,4.08825 C43.9045835,4.10475008 43.9384998,4.12858318 43.9715,4.15975 C44.0045002,4.19091682 44.0411665,4.23216641 44.0815,4.2835 L48.256,9.602 C48.2413333,9.47366602 48.23125,9.34808395 48.22575,9.22525 C48.22025,9.10241605 48.2175,8.98783386 48.2175,8.8815 L48.2175,4.047 L49.521,4.047 L49.521,12 L48.7565,12 C48.6391661,12 48.5420004,11.9816668 48.465,11.945 C48.3879996,11.9083332 48.3128337,11.8423338 48.2395,11.747 L44.0815,6.4505 C44.0925001,6.56783392 44.10075,6.68424942 44.10625,6.79975 C44.11175,6.91525058 44.1145,7.02066619 44.1145,7.116 L44.1145,12 L42.811,12 L42.811,4.047 L43.5865,4.047 Z M58.189,8.0235 C58.189,8.60650292 58.0918343,9.1418309 57.8975,9.6295 C57.7031657,10.1171691 57.4300018,10.5369982 57.078,10.889 C56.7259982,11.2410018 56.3025025,11.5141657 55.8075,11.7085 C55.3124975,11.9028343 54.7643363,12 54.163,12 L51.127,12 L51.127,4.047 L54.163,4.047 C54.7643363,4.047 55.3124975,4.14508235 55.8075,4.34125 C56.3025025,4.53741765 56.7259982,4.81058158 57.078,5.16075 C57.4300018,5.51091842 57.7031657,5.9298309 57.8975,6.4175 C58.0918343,6.9051691 58.189,7.44049708 58.189,8.0235 Z M56.6765,8.0235 C56.6765,7.58716449 56.6178339,7.19575173 56.5005,6.84925 C56.3831661,6.50274827 56.2163344,6.20941787 56,5.96925 C55.7836656,5.72908213 55.5205849,5.54483398 55.21075,5.4165 C54.9009151,5.28816603 54.5516686,5.224 54.163,5.224 L52.6175,5.224 L52.6175,10.823 L54.163,10.823 C54.5516686,10.823 54.9009151,10.758834 55.21075,10.6305 C55.5205849,10.502166 55.7836656,10.3179179 56,10.07775 C56.2163344,9.83758213 56.3831661,9.54425173 56.5005,9.19775 C56.6178339,8.85124827 56.6765,8.45983551 56.6765,8.0235 Z M64.3655,4.047 L64.3655,5.224 L60.84,5.224 L60.84,7.4295 L63.6175,7.4295 L63.6175,8.568 L60.84,8.568 L60.84,10.8175 L64.3655,10.8175 L64.3655,12 L59.3495,12 L59.3495,4.047 L64.3655,4.047 Z M67.176,8.8925 L67.176,12 L65.6965,12 L65.6965,4.047 L68.122,4.047 C68.6646694,4.047 69.1294147,4.10291611 69.51625,4.21475 C69.9030853,4.32658389 70.2202488,4.48333232 70.46775,4.685 C70.7152512,4.88666767 70.8967494,5.1277486 71.01225,5.40825 C71.1277506,5.6887514 71.1855,5.99766498 71.1855,6.335 C71.1855,6.602668 71.1460837,6.85566548 71.06725,7.094 C70.9884163,7.33233453 70.8747507,7.5486657 70.72625,7.743 C70.5777493,7.93733431 70.3944178,8.1078326 70.17625,8.2545 C69.9580822,8.4011674 69.7096681,8.51849956 69.431,8.6065 C69.6180009,8.71283386 69.7793327,8.86499901 69.915,9.063 L71.906,12 L70.575,12 C70.446666,12 70.3375838,11.9743336 70.24775,11.923 C70.1579162,11.8716664 70.0818336,11.7983338 70.0195,11.703 L68.3475,9.1565 C68.2851664,9.06116619 68.216417,8.99333354 68.14125,8.953 C68.066083,8.91266647 67.9551674,8.8925 67.8085,8.8925 L67.176,8.8925 Z M67.176,7.831 L68.1,7.831 C68.3786681,7.831 68.6215823,7.79616702 68.82875,7.7265 C69.0359177,7.65683299 69.206416,7.56058395 69.34025,7.43775 C69.474084,7.31491605 69.5739997,7.16916751 69.64,7.0005 C69.7060003,6.83183249 69.739,6.64666768 69.739,6.445 C69.739,6.04166465 69.6060847,5.73183442 69.34025,5.5155 C69.0744153,5.29916559 68.6683361,5.191 68.122,5.191 L67.176,5.191 L67.176,7.831 Z M41.865,23.0235 C41.865,23.6065029 41.7678343,24.1418309 41.5735,24.6295 C41.3791657,25.1171691 41.1060018,25.5369982 40.754,25.889 C40.4019982,26.2410018 39.9785025,26.5141657 39.4835,26.7085 C38.9884975,26.9028343 38.4403363,27 37.839,27 L34.803,27 L34.803,19.047 L37.839,19.047 C38.4403363,19.047 38.9884975,19.1450824 39.4835,19.34125 C39.9785025,19.5374176 40.4019982,19.8105816 40.754,20.16075 C41.1060018,20.5109184 41.3791657,20.9298309 41.5735,21.4175 C41.7678343,21.9051691 41.865,22.4404971 41.865,23.0235 Z M40.3525,23.0235 C40.3525,22.5871645 40.2938339,22.1957517 40.1765,21.84925 C40.0591661,21.5027483 39.8923344,21.2094179 39.676,20.96925 C39.4596656,20.7290821 39.1965849,20.544834 38.88675,20.4165 C38.5769151,20.288166 38.2276686,20.224 37.839,20.224 L36.2935,20.224 L36.2935,25.823 L37.839,25.823 C38.2276686,25.823 38.5769151,25.758834 38.88675,25.6305 C39.1965849,25.502166 39.4596656,25.3179179 39.676,25.07775 C39.8923344,24.8375821 40.0591661,24.5442517 40.1765,24.19775 C40.2938339,23.8512483 40.3525,23.4598355 40.3525,23.0235 Z M48.0415,19.047 L48.0415,20.224 L44.516,20.224 L44.516,22.4295 L47.2935,22.4295 L47.2935,23.568 L44.516,23.568 L44.516,25.8175 L48.0415,25.8175 L48.0415,27 L43.0255,27 L43.0255,19.047 L48.0415,19.047 Z M48.542,19.047 L49.7355,19.047 C49.863834,19.047 49.9683329,19.0781664 50.049,19.1405 C50.1296671,19.2028336 50.1901665,19.2834995 50.2305,19.3825 L52.1005,24.2335 C52.1628336,24.3911675 52.2224164,24.5644157 52.27925,24.75325 C52.3360836,24.9420843 52.3901664,25.140999 52.4415,25.35 C52.5258338,24.9283312 52.6303327,24.5561683 52.755,24.2335 L54.6195,19.3825 C54.6525002,19.2981662 54.7111662,19.221167 54.7955,19.1515 C54.8798338,19.081833 54.9843327,19.047 55.109,19.047 L56.3025,19.047 L53.0905,27 L51.754,27 L48.542,19.047 Z M62.149,19.047 L62.149,20.224 L58.6235,20.224 L58.6235,22.4295 L61.401,22.4295 L61.401,23.568 L58.6235,23.568 L58.6235,25.8175 L62.149,25.8175 L62.149,27 L57.133,27 L57.133,19.047 L62.149,19.047 Z M64.91,25.779 L68.0945,25.779 L68.0945,27 L63.4305,27 L63.4305,19.047 L64.91,19.047 L64.91,25.779 Z M76.746,23.0235 C76.746,23.6065029 76.6488343,24.1464142 76.4545,24.64325 C76.2601657,25.1400858 75.9870018,25.5699982 75.635,25.933 C75.2829982,26.2960018 74.8595025,26.579249 74.3645,26.78275 C73.8694975,26.986251 73.3213363,27.088 72.72,27.088 C72.1186637,27.088 71.5695858,26.986251 71.07275,26.78275 C70.5759142,26.579249 70.1505851,26.2960018 69.79675,25.933 C69.4429149,25.5699982 69.1688343,25.1400858 68.9745,24.64325 C68.7801657,24.1464142 68.683,23.6065029 68.683,23.0235 C68.683,22.4404971 68.7801657,21.9005858 68.9745,21.40375 C69.1688343,20.9069142 69.4429149,20.4770018 69.79675,20.114 C70.1505851,19.7509982 70.5759142,19.467751 71.07275,19.26425 C71.5695858,19.060749 72.1186637,18.959 72.72,18.959 C73.3213363,18.959 73.8694975,19.0616656 74.3645,19.267 C74.8595025,19.4723344 75.2829982,19.7555815 75.635,20.11675 C75.9870018,20.4779185 76.2601657,20.9069142 76.4545,21.40375 C76.6488343,21.9005858 76.746,22.4404971 76.746,23.0235 Z M75.228,23.0235 C75.228,22.5871645 75.1702506,22.1957517 75.05475,21.84925 C74.9392494,21.5027483 74.7733344,21.2085012 74.557,20.9665 C74.3406656,20.7244988 74.0775849,20.539334 73.76775,20.411 C73.4579151,20.282666 73.1086686,20.2185 72.72,20.2185 C72.3313314,20.2185 71.9811682,20.282666 71.6695,20.411 C71.3578318,20.539334 71.0929178,20.7244988 70.87475,20.9665 C70.6565822,21.2085012 70.4888339,21.5027483 70.3715,21.84925 C70.2541661,22.1957517 70.1955,22.5871645 70.1955,23.0235 C70.1955,23.4598355 70.2541661,23.8512483 70.3715,24.19775 C70.4888339,24.5442517 70.6565822,24.8375821 70.87475,25.07775 C71.0929178,25.3179179 71.3578318,25.502166 71.6695,25.6305 C71.9811682,25.758834 72.3313314,25.823 72.72,25.823 C73.1086686,25.823 73.4579151,25.758834 73.76775,25.6305 C74.0775849,25.502166 74.3406656,25.3179179 74.557,25.07775 C74.7733344,24.8375821 74.9392494,24.5442517 75.05475,24.19775 C75.1702506,23.8512483 75.228,23.4598355 75.228,23.0235 Z M79.441,24.2005 L79.441,27 L77.9615,27 L77.9615,19.047 L80.552,19.047 C81.0836693,19.047 81.5438314,19.1093327 81.9325,19.234 C82.3211686,19.3586673 82.6419987,19.5328322 82.895,19.7565 C83.1480013,19.9801678 83.3349994,20.2478318 83.456,20.5595 C83.5770006,20.8711682 83.6375,21.2121648 83.6375,21.5825 C83.6375,21.9675019 83.573334,22.3204151 83.445,22.64125 C83.316666,22.9620849 83.1241679,23.2379988 82.8675,23.469 C82.610832,23.7000012 82.2900019,23.879666 81.905,24.008 C81.5199981,24.136334 81.0690026,24.2005 80.552,24.2005 L79.441,24.2005 Z M79.441,23.0455 L80.552,23.0455 C80.8233347,23.0455 81.0598323,23.0115837 81.2615,22.94375 C81.4631677,22.8759163 81.6299993,22.7787506 81.762,22.65225 C81.8940007,22.5257494 81.9929997,22.3717509 82.059,22.19025 C82.1250003,22.0087491 82.158,21.8061678 82.158,21.5825 C82.158,21.3698323 82.1250003,21.1773342 82.059,21.005 C81.9929997,20.8326658 81.8940007,20.6860006 81.762,20.565 C81.6299993,20.4439994 81.4631677,20.351417 81.2615,20.28725 C81.0598323,20.223083 80.8233347,20.191 80.552,20.191 L79.441,20.191 L79.441,23.0455 Z M88.78,23.7 C88.8423336,23.8173339 88.9000831,23.9392494 88.95325,24.06575 C89.0064169,24.1922506 89.0586664,24.319666 89.11,24.448 C89.1613336,24.3159993 89.2144997,24.185834 89.2695,24.0575 C89.3245003,23.929166 89.3831664,23.8063339 89.4455,23.689 L91.7995,19.2835 C91.8288335,19.2284997 91.8590832,19.1845002 91.89025,19.1515 C91.9214168,19.1184998 91.9562498,19.0946667 91.99475,19.08 C92.0332502,19.0653333 92.0763331,19.0561667 92.124,19.0525 C92.1716669,19.0488333 92.2284997,19.047 92.2945,19.047 L93.411,19.047 L93.411,27 L92.1075,27 L92.1075,21.863 C92.1075,21.7676662 92.11025,21.6631672 92.11575,21.5495 C92.12125,21.4358328 92.1294999,21.3203339 92.1405,21.203 L89.737,25.713 C89.6819997,25.8156672 89.6105004,25.8954164 89.5225,25.95225 C89.4344996,26.0090836 89.3318339,26.0375 89.2145,26.0375 L89.011,26.0375 C88.8936661,26.0375 88.7910004,26.0090836 88.703,25.95225 C88.6149996,25.8954164 88.5435003,25.8156672 88.4885,25.713 L86.052,21.1865 C86.0666667,21.3075006 86.07675,21.4257494 86.08225,21.54125 C86.08775,21.6567506 86.0905,21.7639995 86.0905,21.863 L86.0905,27 L84.787,27 L84.787,19.047 L85.9035,19.047 C85.9695003,19.047 86.0263331,19.0488333 86.074,19.0525 C86.1216669,19.0561667 86.1647498,19.0653333 86.20325,19.08 C86.2417502,19.0946667 86.2774998,19.1184998 86.3105,19.1515 C86.3435002,19.1845002 86.3746665,19.2284997 86.404,19.2835 L88.78,23.7 Z M100.033,19.047 L100.033,20.224 L96.5075,20.224 L96.5075,22.4295 L99.285,22.4295 L99.285,23.568 L96.5075,23.568 L96.5075,25.8175 L100.033,25.8175 L100.033,27 L95.017,27 L95.017,19.047 L100.033,19.047 Z M102.09,19.047 C102.156,19.047 102.211,19.04975 102.255,19.05525 C102.299,19.06075 102.338416,19.0717499 102.37325,19.08825 C102.408084,19.1047501 102.442,19.1285832 102.475,19.15975 C102.508,19.1909168 102.544666,19.2321664 102.585,19.2835 L106.7595,24.602 C106.744833,24.473666 106.73475,24.3480839 106.72925,24.22525 C106.72375,24.1024161 106.721,23.9878339 106.721,23.8815 L106.721,19.047 L108.0245,19.047 L108.0245,27 L107.26,27 C107.142666,27 107.0455,26.9816668 106.9685,26.945 C106.8915,26.9083331 106.816334,26.8423338 106.743,26.747 L102.585,21.4505 C102.596,21.5678339 102.60425,21.6842494 102.60975,21.79975 C102.61525,21.9152506 102.618,22.0206662 102.618,22.116 L102.618,27 L101.3145,27 L101.3145,19.047 L102.09,19.047 Z M115.235,19.047 L115.235,20.2625 L112.8425,20.2625 L112.8425,27 L111.363,27 L111.363,20.2625 L108.9595,20.2625 L108.9595,19.047 L115.235,19.047 Z" id="UNDERDEVELOPMENT" fill="#003055" fill-rule="nonzero"></path>
                    <path d="M34.803,79 L34.803,71.047 L37.5475,71.047 C38.0681693,71.047 38.5127482,71.0964995 38.88125,71.1955 C39.2497518,71.2945005 39.5522488,71.4356657 39.78875,71.619 C40.0252512,71.8023343 40.1984994,72.0241654 40.3085,72.2845 C40.4185005,72.5448346 40.4735,72.838165 40.4735,73.1645 C40.4735,73.3515009 40.4460003,73.5302491 40.391,73.70075 C40.3359997,73.8712509 40.2507506,74.0307493 40.13525,74.17925 C40.0197494,74.3277507 39.8730842,74.4624994 39.69525,74.5835 C39.5174158,74.7045006 39.3056679,74.8071662 39.06,74.8915 C40.1526721,75.1371679 40.699,75.7274953 40.699,76.6625 C40.699,76.999835 40.634834,77.3114986 40.5065,77.5975 C40.378166,77.8835014 40.1911679,78.1300823 39.9455,78.33725 C39.6998321,78.5444177 39.3973351,78.7066661 39.038,78.824 C38.6786649,78.9413339 38.2680023,79 37.806,79 L34.803,79 Z M36.2825,75.513 L36.2825,77.845 L37.784,77.845 C38.0590014,77.845 38.2890824,77.8120003 38.47425,77.746 C38.6594176,77.6799997 38.8079161,77.5920005 38.91975,77.482 C39.0315839,77.3719995 39.1122498,77.2436674 39.16175,77.097 C39.2112502,76.9503326 39.236,76.7945008 39.236,76.6295 C39.236,76.4571658 39.2085003,76.3022507 39.1535,76.16475 C39.0984997,76.0272493 39.0123339,75.9099172 38.895,75.81275 C38.7776661,75.7155828 38.6273342,75.6413336 38.444,75.59 C38.2606658,75.5386664 38.0388346,75.513 37.7785,75.513 L36.2825,75.513 Z M36.2825,74.49 L37.465,74.49 C37.9673358,74.49 38.3486654,74.3983343 38.609,74.215 C38.8693346,74.0316658 38.9995,73.7401687 38.9995,73.3405 C38.9995,72.9261646 38.8821678,72.6310009 38.6475,72.455 C38.4128322,72.2789991 38.0461692,72.191 37.5475,72.191 L36.2825,72.191 L36.2825,74.49 Z M46.9855,71.047 L46.9855,72.224 L43.46,72.224 L43.46,74.4295 L46.2375,74.4295 L46.2375,75.568 L43.46,75.568 L43.46,77.8175 L46.9855,77.8175 L46.9855,79 L41.9695,79 L41.9695,71.047 L46.9855,71.047 Z M53.8715,71.047 L53.8715,72.2625 L51.479,72.2625 L51.479,79 L49.9995,79 L49.9995,72.2625 L47.596,72.2625 L47.596,71.047 L53.8715,71.047 Z M61.8025,79 L60.6585,79 C60.530166,79 60.4247504,78.967917 60.34225,78.90375 C60.2597496,78.839583 60.2001669,78.7598338 60.1635,78.6645 L59.5695,77.042 L56.275,77.042 L55.681,78.6645 C55.6516665,78.7488338 55.5939171,78.825833 55.50775,78.8955 C55.4215829,78.965167 55.3161673,79 55.1915,79 L54.042,79 L57.166,71.047 L58.6785,71.047 L61.8025,79 Z M56.6545,75.997 L59.19,75.997 L58.222,73.3515 C58.1779998,73.2341661 58.1294169,73.0957508 58.07625,72.93625 C58.0230831,72.7767492 57.9708336,72.6035009 57.9195,72.4165 C57.8681664,72.6035009 57.8177502,72.7776659 57.76825,72.939 C57.7187498,73.1003341 57.6701669,73.2414994 57.6225,73.3625 L56.6545,75.997 Z" id="BETA" fill="#003055" fill-rule="nonzero"></path>
                </g>
            </g>
        </g>
    </g>
</svg>