<svg id="Vert_-_GA" data-name="Vert - GA" xmlns="http://www.w3.org/2000/svg" xmlns:xlink="http://www.w3.org/1999/xlink" viewBox="0 0 124.79 214"><defs><style>.cls-1,.cls-2{fill:none;}.cls-1{clip-rule:evenodd;}.cls-3{clip-path:url(#clip-path);}.cls-4{clip-path:url(#clip-path-2);}.cls-5{fill:#bbdefb;}.cls-6{clip-path:url(#clip-path-3);}.cls-7{clip-path:url(#clip-path-5);}.cls-8{clip-path:url(#clip-path-7);}.cls-9{clip-path:url(#clip-path-8);}.cls-10{fill:#47d9bf;}.cls-11{clip-path:url(#clip-path-9);}.cls-12{clip-path:url(#clip-path-11);}.cls-13{clip-path:url(#clip-path-13);}.cls-14{clip-path:url(#clip-path-14);}.cls-15,.cls-16{fill:#fff;}.cls-15{opacity:0;}.cls-17{clip-path:url(#clip-path-15);}.cls-18{clip-path:url(#clip-path-16);}.cls-19{clip-path:url(#clip-path-17);}.cls-20{clip-path:url(#clip-path-19);}.cls-21{clip-path:url(#clip-path-21);}.cls-22{clip-path:url(#clip-path-23);}.cls-23{clip-path:url(#clip-path-24);}</style><clipPath id="clip-path" transform="translate(2.63 -1)"><path class="cls-1" d="M16.5,16h0A1.5,1.5,0,0,1,18,17.5v57a1.5,1.5,0,0,1-3,0v-57A1.5,1.5,0,0,1,16.5,16Z"/></clipPath><clipPath id="clip-path-2" transform="translate(2.63 -1)"><rect class="cls-2" x="-25" y="-113" width="1366" height="3407"/></clipPath><clipPath id="clip-path-3" transform="translate(2.63 -1)"><path class="cls-1" d="M16.5,76h0A1.5,1.5,0,0,1,18,77.5v57a1.5,1.5,0,0,1-3,0v-57A1.5,1.5,0,0,1,16.5,76Z"/></clipPath><clipPath id="clip-path-5" transform="translate(2.63 -1)"><path class="cls-1" d="M16.5,136h0a1.5,1.5,0,0,1,1.5,1.5v44a1.5,1.5,0,0,1-3,0v-44A1.5,1.5,0,0,1,16.5,136Z"/></clipPath><clipPath id="clip-path-7" transform="translate(2.63 -1)"><circle class="cls-2" cx="16.5" cy="16" r="10"/></clipPath><clipPath id="clip-path-8" transform="translate(2.63 -1)"><rect class="cls-2" x="-24.5" y="-113" width="1366" height="3407"/></clipPath><clipPath id="clip-path-9" transform="translate(2.63 -1)"><circle class="cls-2" cx="16.5" cy="76" r="10"/></clipPath><clipPath id="clip-path-11" transform="translate(2.63 -1)"><circle class="cls-2" cx="16.5" cy="136" r="10"/></clipPath><clipPath id="clip-path-13" transform="translate(2.63 -1)"><circle class="cls-2" cx="16.37" cy="196" r="14"/></clipPath><clipPath id="clip-path-14" transform="translate(2.63 -1)"><rect class="cls-2" x="-24.63" y="-113" width="1366" height="3407"/></clipPath><clipPath id="clip-path-15" transform="translate(2.63 -1)"><circle class="cls-2" cx="16.5" cy="196" r="10"/></clipPath><clipPath id="clip-path-16" transform="translate(2.63 -1)"><rect class="cls-2" x="-25.17" y="-114.67" width="1366" height="3407"/></clipPath><clipPath id="clip-path-17" transform="translate(2.63 -1)"><polygon class="cls-1" points="18.58 14 18.12 14.46 15.67 16.91 14.82 16.24 14.31 15.83 13.5 16.85 14.01 17.25 15.31 18.3 15.76 18.66 16.18 18.25 19.04 15.38 19.5 14.92 18.58 14"/></clipPath><clipPath id="clip-path-19" transform="translate(2.63 -1)"><polygon class="cls-1" points="18.58 74 18.12 74.46 15.67 76.91 14.82 76.24 14.31 75.83 13.5 76.85 14.01 77.25 15.31 78.3 15.76 78.66 16.18 78.25 19.04 75.38 19.5 74.92 18.58 74"/></clipPath><clipPath id="clip-path-21" transform="translate(2.63 -1)"><polygon class="cls-1" points="18.58 134 18.12 134.46 15.67 136.91 14.82 136.24 14.31 135.83 13.5 136.85 14.01 137.25 15.31 138.3 15.76 138.66 16.18 138.25 19.04 135.38 19.5 134.92 18.58 134"/></clipPath><clipPath id="clip-path-23" transform="translate(2.63 -1)"><polygon class="cls-1" points="18.63 194.05 18.16 194.5 15.65 196.89 14.82 196.2 14.32 195.78 13.49 196.78 13.99 197.2 15.26 198.27 15.71 198.64 16.13 198.24 19.06 195.44 19.53 194.99 18.63 194.05"/></clipPath><clipPath id="clip-path-24" transform="translate(2.63 -1)"><rect class="cls-2" x="-1077.12" y="921.85" width="3407" height="1366" transform="translate(-992.41 2194.28) rotate(-88.69)"/></clipPath></defs><title>progress-vertical-GA</title><g class="cls-3"><g class="cls-4"><rect class="cls-5" x="12.62" y="10" width="13" height="70"/></g></g><g class="cls-6"><g class="cls-4"><rect class="cls-5" x="12.62" y="70" width="13" height="70"/></g></g><g class="cls-7"><g class="cls-4"><rect class="cls-5" x="12.62" y="130" width="13" height="57"/></g></g><g class="cls-8"><g class="cls-9"><rect class="cls-10" x="4.12" width="30" height="30"/></g></g><g class="cls-11"><g class="cls-9"><rect class="cls-10" x="4.12" y="60" width="30" height="30"/></g></g><g class="cls-12"><g class="cls-9"><rect class="cls-10" x="4.12" y="120" width="30" height="30"/></g></g><g class="cls-13"><g class="cls-14"><rect class="cls-15" y="176" width="38" height="38"/></g></g><path class="cls-16" d="M16.5,211a15,15,0,1,1,15-15A15,15,0,0,1,16.5,211Zm0-28a13,13,0,1,0,13,13A13,13,0,0,0,16.5,183Z" transform="translate(2.63 -1)"/><g class="cls-17"><g class="cls-18"><rect class="cls-10" x="3.46" y="178.33" width="30" height="30"/></g></g><g class="cls-19"><g class="cls-9"><rect class="cls-16" x="11.13" y="8" width="16" height="14.66"/></g></g><g class="cls-20"><g class="cls-9"><rect class="cls-16" x="11.13" y="68" width="16" height="14.66"/></g></g><g class="cls-21"><g class="cls-9"><rect class="cls-16" x="11.13" y="128" width="16" height="14.66"/></g></g><g class="cls-22"><g class="cls-23"><rect class="cls-16" x="9.17" y="188.33" width="14.66" height="16" transform="translate(-177.53 207.32) rotate(-88.69)"/></g></g><path class="cls-5" d="M39.88,11.31a1.84,1.84,0,0,0,.76-.15,1.59,1.59,0,0,0,.58-.4,1.75,1.75,0,0,0,.35-.63,2.35,2.35,0,0,0,.13-.82V4.55h1.48V9.31A3.72,3.72,0,0,1,43,10.62a2.92,2.92,0,0,1-1.7,1.72,3.49,3.49,0,0,1-1.37.25,3.57,3.57,0,0,1-1.38-.25,2.94,2.94,0,0,1-1-.68,2.89,2.89,0,0,1-.66-1,3.72,3.72,0,0,1-.23-1.31V4.55h1.48V9.3a2.41,2.41,0,0,0,.13.83,1.84,1.84,0,0,0,.35.63,1.47,1.47,0,0,0,.57.4A1.89,1.89,0,0,0,39.88,11.31Z" transform="translate(2.63 -1)"/><path class="cls-5" d="M46.17,4.56a.21.21,0,0,1,.12,0,.23.23,0,0,1,.1.07.65.65,0,0,1,.11.12l4.18,5.32a2.4,2.4,0,0,1,0-.37c0-.13,0-.24,0-.35V4.55h1.3v8h-.76a.62.62,0,0,1-.29-.06.64.64,0,0,1-.23-.19L46.5,7c0,.12,0,.23,0,.35s0,.22,0,.32V12.5H45.23V4.55h.94Z" transform="translate(2.63 -1)"/><path class="cls-5" d="M61.16,8.52a4.39,4.39,0,0,1-.29,1.61,3.62,3.62,0,0,1-.82,1.26,3.71,3.71,0,0,1-1.27.82,4.52,4.52,0,0,1-1.64.29h-3V4.55h3a4.52,4.52,0,0,1,1.64.29,3.71,3.71,0,0,1,1.27.82,3.62,3.62,0,0,1,.82,1.26A4.38,4.38,0,0,1,61.16,8.52Zm-1.51,0a3.59,3.59,0,0,0-.18-1.17,2.3,2.3,0,0,0-.5-.88,2,2,0,0,0-.79-.55,2.68,2.68,0,0,0-1-.2H55.59v5.6h1.55a2.68,2.68,0,0,0,1-.19,2.12,2.12,0,0,0,.79-.55,2.38,2.38,0,0,0,.5-.88A3.61,3.61,0,0,0,59.65,8.52Z" transform="translate(2.63 -1)"/><path class="cls-5" d="M67.89,4.55V5.72H64.36V7.93h2.78V9.07H64.36v2.25h3.53V12.5h-5V4.55Z" transform="translate(2.63 -1)"/><path class="cls-5" d="M71.25,9.39V12.5H69.77V4.55h2.42a5.19,5.19,0,0,1,1.4.16,2.65,2.65,0,0,1,1,.48,1.83,1.83,0,0,1,.55.72,2.51,2.51,0,0,1,.17.92,2.33,2.33,0,0,1-.12.76,2.12,2.12,0,0,1-.34.65,2.06,2.06,0,0,1-.55.51,2.89,2.89,0,0,1-.75.36,1.49,1.49,0,0,1,.49.45l2,2.94H74.65a.67.67,0,0,1-.33-.08.6.6,0,0,1-.23-.22L72.42,9.66a.53.53,0,0,0-.21-.21.69.69,0,0,0-.33-.06Zm0-1.06h.92a2.3,2.3,0,0,0,.73-.1,1.39,1.39,0,0,0,.51-.29,1.08,1.08,0,0,0,.3-.44,1.43,1.43,0,0,0,.1-.56,1.1,1.1,0,0,0-.4-.92,1.87,1.87,0,0,0-1.22-.33h-.94Z" transform="translate(2.63 -1)"/><path class="cls-5" d="M43.74,23.72a4.39,4.39,0,0,1-.29,1.61,3.76,3.76,0,0,1-.82,1.26,3.91,3.91,0,0,1-1.27.82,4.61,4.61,0,0,1-1.65.29h-3V19.75h3a4.61,4.61,0,0,1,1.65.29,3.91,3.91,0,0,1,1.27.82,3.76,3.76,0,0,1,.82,1.26A4.38,4.38,0,0,1,43.74,23.72Zm-1.51,0a3.59,3.59,0,0,0-.18-1.17,2.44,2.44,0,0,0-.5-.88,2.21,2.21,0,0,0-.79-.55,2.69,2.69,0,0,0-1-.2H38.17v5.6h1.54a2.69,2.69,0,0,0,1-.19,2.21,2.21,0,0,0,.79-.55,2.53,2.53,0,0,0,.5-.88A3.61,3.61,0,0,0,42.23,23.72Z" transform="translate(2.63 -1)"/><path class="cls-5" d="M50.46,19.75v1.17H46.94v2.21h2.78v1.14H46.94v2.25h3.52V27.7h-5V19.75Z" transform="translate(2.63 -1)"/><path class="cls-5" d="M51.52,19.75h1.19a.5.5,0,0,1,.31.09.55.55,0,0,1,.18.24l1.87,4.85a3.52,3.52,0,0,1,.18.52c.06.19.11.39.16.6a7.15,7.15,0,0,1,.32-1.12l1.86-4.85a.63.63,0,0,1,.18-.23.46.46,0,0,1,.31-.1h1.2l-3.22,8H54.73Z" transform="translate(2.63 -1)"/><path class="cls-5" d="M65.67,19.75v1.17H62.15v2.21h2.77v1.14H62.15v2.25h3.52V27.7h-5V19.75Z" transform="translate(2.63 -1)"/><path class="cls-5" d="M69,26.48h3.19V27.7H67.5V19.75H69Z" transform="translate(2.63 -1)"/><path class="cls-5" d="M80.93,23.72a4.45,4.45,0,0,1-.29,1.62,3.9,3.9,0,0,1-.82,1.29,3.59,3.59,0,0,1-1.27.85,4.22,4.22,0,0,1-1.65.31,4.13,4.13,0,0,1-1.64-.31A3.55,3.55,0,0,1,74,26.63a3.74,3.74,0,0,1-.82-1.29,4.25,4.25,0,0,1-.29-1.62,4.32,4.32,0,0,1,.29-1.62A3.94,3.94,0,0,1,74,20.81,3.82,3.82,0,0,1,75.26,20a4.32,4.32,0,0,1,1.64-.3,4.22,4.22,0,0,1,1.65.31,3.73,3.73,0,0,1,1.27.85,4,4,0,0,1,.82,1.28A4.52,4.52,0,0,1,80.93,23.72Zm-1.52,0a3.89,3.89,0,0,0-.17-1.17,2.44,2.44,0,0,0-.5-.88,2.11,2.11,0,0,0-.79-.56,3,3,0,0,0-2.1,0,2.11,2.11,0,0,0-.79.56,2.46,2.46,0,0,0-.51.88,4.15,4.15,0,0,0,0,2.35,2.55,2.55,0,0,0,.51.88,2.21,2.21,0,0,0,.79.55,3,3,0,0,0,2.1,0,2.21,2.21,0,0,0,.79-.55,2.53,2.53,0,0,0,.5-.88A3.91,3.91,0,0,0,79.41,23.72Z" transform="translate(2.63 -1)"/><path class="cls-5" d="M84.17,24.9v2.8H82.69V19.75h2.59a4.74,4.74,0,0,1,1.39.18,2.69,2.69,0,0,1,1,.53,2,2,0,0,1,.56.8,3,3,0,0,1,0,2.08,2.19,2.19,0,0,1-.58.83,2.79,2.79,0,0,1-1,.54,4.3,4.3,0,0,1-1.36.19Zm0-1.15h1.11a2.12,2.12,0,0,0,.71-.11,1.12,1.12,0,0,0,.5-.29,1,1,0,0,0,.3-.46,1.66,1.66,0,0,0,.1-.61,1.48,1.48,0,0,0-.1-.57,1,1,0,0,0-.3-.44A1.11,1.11,0,0,0,86,21a2.13,2.13,0,0,0-.71-.1H84.17Z" transform="translate(2.63 -1)"/><path class="cls-5" d="M94.24,24.77l.15.38c.06-.13.11-.26.16-.39l.18-.37L97.08,20a.73.73,0,0,1,.09-.13.34.34,0,0,1,.11-.07l.13,0h1.28v8h-1.3V22.56c0-.09,0-.2,0-.31s0-.23,0-.35L95,26.41a.57.57,0,0,1-.22.24.49.49,0,0,1-.3.09h-.21a.51.51,0,0,1-.3-.09.57.57,0,0,1-.22-.24l-2.43-4.52,0,.35V27.7h-1.3V19.75h1.29l.13,0a.23.23,0,0,1,.1.07.45.45,0,0,1,.1.13l2.37,4.42Z" transform="translate(2.63 -1)"/><path class="cls-5" d="M105.87,19.75v1.17h-3.53v2.21h2.78v1.14h-2.78v2.25h3.53V27.7h-5V19.75Z" transform="translate(2.63 -1)"/><path class="cls-5" d="M108.64,19.76a.27.27,0,0,1,.12,0l.1.07L109,20l4.17,5.32,0-.37c0-.13,0-.24,0-.35V19.75h1.31v8h-.77a.84.84,0,0,1-.29-.05.68.68,0,0,1-.22-.2L109,22.15c0,.12,0,.23,0,.35s0,.22,0,.32V27.7h-1.3V19.75h.94Z" transform="translate(2.63 -1)"/><path class="cls-5" d="M122.17,19.75V21h-2.4V27.7h-1.48V21h-2.4V19.75Z" transform="translate(2.63 -1)"/><path class="cls-5" d="M36.68,80.57V72.62h2.74a5.08,5.08,0,0,1,1.33.15,2.56,2.56,0,0,1,.91.42,1.61,1.61,0,0,1,.52.67,2.23,2.23,0,0,1,.17.88,1.6,1.6,0,0,1-.09.53,1.57,1.57,0,0,1-.25.48,2.18,2.18,0,0,1-.44.41,2.53,2.53,0,0,1-.64.3c1.1.25,1.64.84,1.64,1.77a2.26,2.26,0,0,1-.19.94,2.14,2.14,0,0,1-.56.74,2.73,2.73,0,0,1-.91.49,4.2,4.2,0,0,1-1.23.17Zm1.48-4.51h1.18a2,2,0,0,0,1.14-.27,1.23,1.23,0,0,0,0-1.76,1.8,1.8,0,0,0-1.1-.27H38.16Zm0,1v2.33h1.5a2.29,2.29,0,0,0,.69-.1,1.27,1.27,0,0,0,.44-.27.85.85,0,0,0,.24-.38,1.45,1.45,0,0,0,.08-.47,1.3,1.3,0,0,0-.08-.46.83.83,0,0,0-.26-.35,1.2,1.2,0,0,0-.45-.23,2.65,2.65,0,0,0-.67-.07Z" transform="translate(2.63 -1)"/><path class="cls-5" d="M49.41,72.62V73.8H45.88V76h2.78v1.14H45.88v2.25h3.53v1.18h-5V72.62Z" transform="translate(2.63 -1)"/><path class="cls-5" d="M56.84,72.62v1.21H54.45v6.74H53V73.83h-2.4V72.62Z" transform="translate(2.63 -1)"/><path class="cls-5" d="M64.52,80.57H63.37a.5.5,0,0,1-.31-.09.51.51,0,0,1-.18-.24l-.6-1.63H59l-.59,1.63a.54.54,0,0,1-.18.23.46.46,0,0,1-.31.1H56.76l3.12-7.95h1.51Zm-5.15-3H61.9l-1-2.65a3.68,3.68,0,0,1-.15-.41L60.63,74c-.05.19-.1.36-.15.52l-.14.42Z" transform="translate(2.63 -1)"/><path class="cls-5" d="M38.21,131v3.11H36.73v-7.95h2.42a5.21,5.21,0,0,1,1.4.17,2.73,2.73,0,0,1,1,.47,1.8,1.8,0,0,1,.54.72,2.33,2.33,0,0,1,.17.93,2.41,2.41,0,0,1-.11.76,2.18,2.18,0,0,1-.89,1.16,3.24,3.24,0,0,1-.75.35,1.4,1.4,0,0,1,.48.46l2,2.93H41.6a.66.66,0,0,1-.32-.07.8.8,0,0,1-.23-.22l-1.67-2.55a.56.56,0,0,0-.21-.2.6.6,0,0,0-.33-.07Zm0-1.06h.92a2.3,2.3,0,0,0,.73-.1,1.48,1.48,0,0,0,.51-.29,1.23,1.23,0,0,0,.3-.44,1.63,1.63,0,0,0,.1-.55,1.1,1.1,0,0,0-.4-.93,1.89,1.89,0,0,0-1.22-.33h-.94Z" transform="translate(2.63 -1)"/><path class="cls-5" d="M49.45,126.12v1.18H45.92v2.2H48.7v1.14H45.92v2.25h3.53v1.18h-5v-7.95Z" transform="translate(2.63 -1)"/><path class="cls-5" d="M52.76,132.85h3.18v1.22H51.28v-7.95h1.48Z" transform="translate(2.63 -1)"/><path class="cls-5" d="M62.53,126.12v1.18H59v2.2h2.77v1.14H59v2.25h3.52v1.18h-5v-7.95Z" transform="translate(2.63 -1)"/><path class="cls-5" d="M71.35,134.07H70.21a.55.55,0,0,1-.32-.09.69.69,0,0,1-.18-.24l-.59-1.63H65.83l-.6,1.63a.51.51,0,0,1-.17.23.49.49,0,0,1-.32.1H63.59l3.13-7.95h1.51Zm-5.14-3h2.53l-1-2.65c0-.11-.09-.25-.14-.41a5.36,5.36,0,0,1-.16-.52c0,.19-.1.36-.15.52s-.1.3-.15.42Z" transform="translate(2.63 -1)"/><path class="cls-5" d="M77,127.57a.63.63,0,0,1-.14.17.41.41,0,0,1-.19.05.45.45,0,0,1-.25-.09l-.33-.19a2.91,2.91,0,0,0-.43-.19,1.82,1.82,0,0,0-.6-.08,1.7,1.7,0,0,0-.53.07,1.22,1.22,0,0,0-.39.21.79.79,0,0,0-.23.31,1.11,1.11,0,0,0-.08.41.71.71,0,0,0,.16.46,1.07,1.07,0,0,0,.42.32,3.49,3.49,0,0,0,.58.24l.68.22a5.58,5.58,0,0,1,.67.28,2.16,2.16,0,0,1,.59.39,1.78,1.78,0,0,1,.41.59,1.94,1.94,0,0,1,.16.84,2.79,2.79,0,0,1-.18,1,2.54,2.54,0,0,1-.54.82,2.58,2.58,0,0,1-.87.55,3.26,3.26,0,0,1-1.17.2,3.81,3.81,0,0,1-.75-.07,3.35,3.35,0,0,1-.7-.22,3.51,3.51,0,0,1-.64-.33,3.08,3.08,0,0,1-.52-.42l.43-.71a.43.43,0,0,1,.14-.13.33.33,0,0,1,.19-.06.53.53,0,0,1,.3.12l.38.25a3,3,0,0,0,.51.25,2.06,2.06,0,0,0,.7.11,1.44,1.44,0,0,0,1-.3,1.09,1.09,0,0,0,.35-.86.76.76,0,0,0-.16-.51,1.24,1.24,0,0,0-.41-.33,2.9,2.9,0,0,0-.59-.23l-.67-.21a5.46,5.46,0,0,1-.67-.26,2.19,2.19,0,0,1-.59-.4,2,2,0,0,1-.42-.62,2.46,2.46,0,0,1-.15-.92,2.15,2.15,0,0,1,.68-1.57,2.4,2.4,0,0,1,.81-.52A3.19,3.19,0,0,1,75,126a3.66,3.66,0,0,1,1.3.22,3,3,0,0,1,1,.62Z" transform="translate(2.63 -1)"/><path class="cls-5" d="M84.19,126.12v1.18H80.66v2.2h2.78v1.14H80.66v2.25h3.53v1.18h-5v-7.95Z" transform="translate(2.63 -1)"/><path class="cls-5" d="M42.14,145.4a.29.29,0,0,1,.21.09l.59.63a3.19,3.19,0,0,1-1.2.92,4.11,4.11,0,0,1-1.69.32,4,4,0,0,1-1.59-.3,3.37,3.37,0,0,1-1.21-.84,3.64,3.64,0,0,1-.77-1.29,4.76,4.76,0,0,1-.27-1.63,4.4,4.4,0,0,1,.3-1.65,3.85,3.85,0,0,1,.84-1.28,3.79,3.79,0,0,1,1.29-.84,4.4,4.4,0,0,1,1.65-.3,4,4,0,0,1,1.55.28,3.5,3.5,0,0,1,1.14.76l-.5.68a.32.32,0,0,1-.11.12.33.33,0,0,1-.19.05.5.5,0,0,1-.26-.1,3.76,3.76,0,0,0-.33-.22,4,4,0,0,0-.52-.21,2.49,2.49,0,0,0-.79-.1,2.7,2.7,0,0,0-1,.2,2.38,2.38,0,0,0-.81.55,2.61,2.61,0,0,0-.52.89,3.26,3.26,0,0,0-.19,1.17,3.42,3.42,0,0,0,.19,1.19,2.46,2.46,0,0,0,.51.88,2.28,2.28,0,0,0,.76.55,2.52,2.52,0,0,0,1,.19,3.16,3.16,0,0,0,.55,0,2.11,2.11,0,0,0,.45-.1,1.76,1.76,0,0,0,.39-.19,2.65,2.65,0,0,0,.37-.27.28.28,0,0,1,.11-.08A.31.31,0,0,1,42.14,145.4Z" transform="translate(2.63 -1)"/><path class="cls-5" d="M51.59,147.27H50.45a.53.53,0,0,1-.32-.09.69.69,0,0,1-.18-.24l-.59-1.63h-3.3l-.59,1.63a.6.6,0,0,1-.17.23.49.49,0,0,1-.32.1H43.83l3.13-8h1.51Zm-5.15-3H49l-1-2.65c0-.11-.09-.25-.14-.41a5.36,5.36,0,0,1-.16-.52c-.05.19-.1.36-.15.52s-.1.3-.15.42Z" transform="translate(2.63 -1)"/><path class="cls-5" d="M53.9,139.33a.24.24,0,0,1,.12,0l.1.07a.81.81,0,0,1,.11.13l4.18,5.31a2.31,2.31,0,0,1,0-.37c0-.12,0-.24,0-.35v-4.83h1.3v8h-.76a.76.76,0,0,1-.29-.05.7.7,0,0,1-.23-.2l-4.16-5.3,0,.35v5.2H53v-8h.94Z" transform="translate(2.63 -1)"/><path class="cls-5" d="M68.89,143.3a4.38,4.38,0,0,1-.29,1.6,3.76,3.76,0,0,1-.82,1.26,3.66,3.66,0,0,1-1.27.82,4.4,4.4,0,0,1-1.65.29h-3v-8h3a4.61,4.61,0,0,1,1.65.29,3.81,3.81,0,0,1,1.27.82,3.76,3.76,0,0,1,.82,1.26A4.39,4.39,0,0,1,68.89,143.3Zm-1.51,0a3.61,3.61,0,0,0-.18-1.18,2.53,2.53,0,0,0-.5-.88,2.21,2.21,0,0,0-.79-.55,2.69,2.69,0,0,0-1-.19H63.32v5.6h1.54a2.69,2.69,0,0,0,1-.2,2.21,2.21,0,0,0,.79-.55,2.44,2.44,0,0,0,.5-.88A3.59,3.59,0,0,0,67.38,143.3Z" transform="translate(2.63 -1)"/><path class="cls-5" d="M72.27,147.27H70.78v-8h1.49Z" transform="translate(2.63 -1)"/><path class="cls-5" d="M81.67,143.3a4.18,4.18,0,0,1-.3,1.6,3.48,3.48,0,0,1-.82,1.26,3.57,3.57,0,0,1-1.27.82,4.31,4.31,0,0,1-1.64.29h-3v-8h3a4.52,4.52,0,0,1,1.64.29,3.71,3.71,0,0,1,1.27.82,3.48,3.48,0,0,1,.82,1.26A4.2,4.2,0,0,1,81.67,143.3Zm-1.52,0a3.91,3.91,0,0,0-.17-1.18,2.7,2.7,0,0,0-.5-.88,2.21,2.21,0,0,0-.79-.55,2.69,2.69,0,0,0-1-.19H76.09v5.6h1.55a2.69,2.69,0,0,0,1-.2,2.21,2.21,0,0,0,.79-.55,2.6,2.6,0,0,0,.5-.88A3.89,3.89,0,0,0,80.15,143.3Z" transform="translate(2.63 -1)"/><path class="cls-5" d="M90.09,147.27H88.94a.5.5,0,0,1-.31-.09.51.51,0,0,1-.18-.24l-.6-1.63H84.56l-.6,1.63a.45.45,0,0,1-.17.23.46.46,0,0,1-.31.1H82.33l3.12-8H87Zm-5.15-3h2.53l-1-2.65a3.68,3.68,0,0,1-.15-.41c0-.16-.11-.33-.16-.52,0,.19-.1.36-.15.52s-.1.3-.14.42Z" transform="translate(2.63 -1)"/><path class="cls-5" d="M96.25,139.32v1.22H93.86v6.73H92.38v-6.73H90v-1.22Z" transform="translate(2.63 -1)"/><path class="cls-5" d="M102.76,139.32v1.18H99.23v2.2H102v1.14H99.23v2.25h3.53v1.18h-5v-8Z" transform="translate(2.63 -1)"/><path class="cls-16" d="M40.31,192.4a2.84,2.84,0,0,0,.68-.07,3.31,3.31,0,0,0,.56-.17v-1.22h-.79a.41.41,0,0,1-.28-.09.33.33,0,0,1-.1-.24v-1h2.85V193a4.21,4.21,0,0,1-.64.39,4,4,0,0,1-.71.27,4.93,4.93,0,0,1-.8.15,8.81,8.81,0,0,1-.92.05,4.1,4.1,0,0,1-1.62-.31,3.88,3.88,0,0,1-1.3-.86,4,4,0,0,1-.86-1.3,4.15,4.15,0,0,1-.31-1.63,4.39,4.39,0,0,1,.3-1.64,3.71,3.71,0,0,1,.85-1.3,4,4,0,0,1,1.33-.85,4.92,4.92,0,0,1,1.76-.3,5.67,5.67,0,0,1,.94.08,4.79,4.79,0,0,1,.81.23,3.6,3.6,0,0,1,.68.34,4,4,0,0,1,.55.43l-.54.82a.47.47,0,0,1-.19.18.48.48,0,0,1-.23.07.68.68,0,0,1-.34-.11,4.57,4.57,0,0,0-.42-.23,2,2,0,0,0-.4-.16,2.59,2.59,0,0,0-.42-.09l-.51,0a2.35,2.35,0,0,0-.94.18,2,2,0,0,0-.71.52,2.29,2.29,0,0,0-.46.81,3.39,3.39,0,0,0-.16,1,3.33,3.33,0,0,0,.18,1.14,2.34,2.34,0,0,0,.49.83,2,2,0,0,0,.73.52A2.42,2.42,0,0,0,40.31,192.4Z" transform="translate(2.63 -1)"/><path class="cls-16" d="M50.07,185.73v1.43H46.78V189H49.3v1.37H46.78v1.91h3.29v1.43H44.92v-8Z" transform="translate(2.63 -1)"/><path class="cls-16" d="M52.86,185.74l.15,0a.38.38,0,0,1,.13.09.69.69,0,0,1,.13.15l3.81,4.81q0-.24,0-.45c0-.14,0-.28,0-.41v-4.24h1.64v8h-1a.71.71,0,0,1-.65-.3l-3.78-4.78,0,.41c0,.13,0,.26,0,.38v4.29H51.68v-8h1.18Z" transform="translate(2.63 -1)"/><path class="cls-16" d="M65.7,185.73v1.43H62.42V189h2.51v1.37H62.42v1.91H65.7v1.43H60.55v-8Z" transform="translate(2.63 -1)"/><path class="cls-16" d="M69.17,190.78v3H67.31v-8h2.61a5.3,5.3,0,0,1,1.48.18,2.68,2.68,0,0,1,1,.5,1.77,1.77,0,0,1,.56.75,2.44,2.44,0,0,1,.18,1,2.48,2.48,0,0,1-.1.73,2.37,2.37,0,0,1-.31.64,2.55,2.55,0,0,1-.51.53,2.85,2.85,0,0,1-.69.38,1.92,1.92,0,0,1,.35.23,1.29,1.29,0,0,1,.28.33l1.71,2.79H72.18a.71.71,0,0,1-.67-.35l-1.33-2.33a.72.72,0,0,0-.2-.22.77.77,0,0,0-.34-.06Zm0-1.28h.75a1.72,1.72,0,0,0,.64-.1,1,1,0,0,0,.44-.27,1,1,0,0,0,.25-.39,1.64,1.64,0,0,0,.08-.5,1,1,0,0,0-.35-.82,1.58,1.58,0,0,0-1.06-.3h-.75Z" transform="translate(2.63 -1)"/><path class="cls-16" d="M82.63,193.74H81.19a.65.65,0,0,1-.4-.11.56.56,0,0,1-.21-.29l-.48-1.4h-3l-.48,1.4a.55.55,0,0,1-.21.28.65.65,0,0,1-.39.12H74.53l3.1-8h1.9Zm-5.14-3.06h2.18l-.73-2.19c0-.14-.11-.31-.17-.5s-.13-.39-.19-.61c-.06.22-.12.43-.18.62s-.12.36-.18.5Z" transform="translate(2.63 -1)"/><path class="cls-16" d="M85.69,192.26h3v1.48H83.83v-8h1.86Z" transform="translate(2.63 -1)"/><path class="cls-16" d="M44,206.94H42.55a.65.65,0,0,1-.4-.11.58.58,0,0,1-.22-.29l-.47-1.39H38.41l-.47,1.39a.69.69,0,0,1-.21.28.65.65,0,0,1-.39.12H35.88l3.11-8h1.9Zm-5.15-3.06H41l-.74-2.19c0-.14-.1-.31-.16-.5s-.13-.39-.19-.61c-.06.22-.12.43-.18.62s-.12.36-.18.5Z" transform="translate(2.63 -1)"/><path class="cls-16" d="M43.43,198.93h1.5a.67.67,0,0,1,.39.11.58.58,0,0,1,.22.29l1.55,4.29c.07.19.14.39.21.61s.14.45.21.69c.05-.24.11-.47.17-.69s.14-.42.21-.61l1.54-4.29a.59.59,0,0,1,.21-.28.65.65,0,0,1,.39-.12h1.51l-3.21,8H46.64Z" transform="translate(2.63 -1)"/><path class="cls-16" d="M59.11,206.94H57.66a.6.6,0,0,1-.39-.11.53.53,0,0,1-.22-.29l-.47-1.39h-3l-.47,1.39a.64.64,0,0,1-.22.28.65.65,0,0,1-.39.12H51l3.1-8H56ZM54,203.88h2.19l-.74-2.19c0-.14-.1-.31-.17-.5s-.13-.39-.19-.61c-.06.22-.12.43-.18.62s-.12.36-.18.5Z" transform="translate(2.63 -1)"/><path class="cls-16" d="M62.34,206.94H60.47v-8h1.87Z" transform="translate(2.63 -1)"/><path class="cls-16" d="M66.23,205.46h3v1.48H64.37v-8h1.86Z" transform="translate(2.63 -1)"/><path class="cls-16" d="M78.09,206.94H76.65a.65.65,0,0,1-.4-.11.58.58,0,0,1-.22-.29l-.47-1.39h-3L72,206.54a.69.69,0,0,1-.21.28.65.65,0,0,1-.39.12H70l3.11-8H75Zm-5.15-3.06h2.19l-.73-2.19c-.05-.14-.11-.31-.17-.5s-.13-.39-.19-.61c-.06.22-.12.43-.18.62s-.12.36-.18.5Z" transform="translate(2.63 -1)"/><path class="cls-16" d="M79.29,206.94v-8h2.95a5.75,5.75,0,0,1,1.41.15,2.7,2.7,0,0,1,.95.44,1.61,1.61,0,0,1,.54.68,2.37,2.37,0,0,1,.17.9,1.82,1.82,0,0,1-.08.52,1.61,1.61,0,0,1-.24.47,1.85,1.85,0,0,1-.43.4,3,3,0,0,1-.62.31,2.11,2.11,0,0,1,1.17.62,1.59,1.59,0,0,1,.38,1.11,2.3,2.3,0,0,1-.19.95,2.41,2.41,0,0,1-.58.77,2.7,2.7,0,0,1-1,.51,4.17,4.17,0,0,1-1.28.18Zm1.86-4.64h1a3.09,3.09,0,0,0,.55,0,1,1,0,0,0,.42-.16.66.66,0,0,0,.27-.3,1.14,1.14,0,0,0,.09-.48,1.62,1.62,0,0,0-.07-.48.62.62,0,0,0-.22-.3.89.89,0,0,0-.38-.17,2.76,2.76,0,0,0-.54-.05H81.15Zm0,1.24v2h1.31a1.72,1.72,0,0,0,.6-.09,1,1,0,0,0,.37-.24,1.11,1.11,0,0,0,.18-.34,1.58,1.58,0,0,0,0-.38,1.25,1.25,0,0,0-.06-.4.72.72,0,0,0-.2-.29.92.92,0,0,0-.37-.19,2.3,2.3,0,0,0-.58-.07Z" transform="translate(2.63 -1)"/><path class="cls-16" d="M89.09,206.94H87.22v-8h1.87Z" transform="translate(2.63 -1)"/><path class="cls-16" d="M93,205.46h3v1.48H91.13v-8H93Z" transform="translate(2.63 -1)"/><path class="cls-16" d="M99.42,206.94H97.55v-8h1.87Z" transform="translate(2.63 -1)"/><path class="cls-16" d="M107.27,198.93v1.47H105v6.54h-1.86V200.4h-2.25v-1.47Z" transform="translate(2.63 -1)"/><path class="cls-16" d="M112.59,203.9v3h-1.86v-3l-2.91-5h1.64a.67.67,0,0,1,.39.11,1,1,0,0,1,.23.29l1.13,2.33c.09.19.18.36.25.52a4.84,4.84,0,0,1,.21.47,3.26,3.26,0,0,1,.2-.48c.07-.15.16-.32.24-.51l1.13-2.33a.55.55,0,0,1,.09-.14.8.8,0,0,1,.13-.13.68.68,0,0,1,.38-.13h1.65Z" transform="translate(2.63 -1)"/></svg>