<?xml version="1.0" encoding="UTF-8"?>
<svg width="327px" height="62px" viewBox="0 0 327 62" version="1.1" xmlns="http://www.w3.org/2000/svg" xmlns:xlink="http://www.w3.org/1999/xlink">
    <!-- Generator: Sketch 54.1 (76490) - https://sketchapp.com -->
    <title>phase3</title>
    <desc>Created with Sketch.</desc>
    <g id="final" stroke="none" stroke-width="1" fill="none" fill-rule="evenodd">
        <g id="Overture/Song-accessible" transform="translate(-32.000000, -114.000000)">
            <g id="progress-bar-horizontal" transform="translate(21.000000, 115.000000)">
                <g id="phases">
                    <g id="phase3">
                        <rect id="Path-Copy-2" fill="#04518C" x="51" y="13" width="252" height="3" rx="1.5"></rect>
                        <g id="1" transform="translate(0.000000, 4.000000)">
                            <circle id="Oval" stroke="#FFFFFF" fill="#40E6CF" cx="51" cy="10" r="10"></circle>
                            <polygon id="Page-1" fill="#003055" points="53.0806509 8 52.6208918 8.45975914 50.1681054 10.9125455 49.3220028 10.2372255 48.81343 9.83057555 48 10.8474607 48.5084426 11.2542408 49.8101389 12.2955979 50.2657326 12.6575996 50.676548 12.2467843 53.5404101 9.38305235 53.9999089 8.92342337"></polygon>
                            <path d="M35.9795,39.8065 C36.2655014,39.8065 36.5212489,39.7588338 36.74675,39.6635 C36.9722511,39.5681662 37.1629159,39.4343342 37.31875,39.262 C37.4745841,39.0896658 37.5937496,38.8806679 37.67625,38.635 C37.7587504,38.3893321 37.8,38.1143349 37.8,37.81 L37.8,33.047 L39.2795,33.047 L39.2795,37.81 C39.2795,38.2830024 39.2034174,38.720248 39.05125,39.12175 C38.8990826,39.523252 38.6800014,39.8697485 38.394,40.16125 C38.1079986,40.4527515 37.761502,40.6800825 37.3545,40.84325 C36.947498,41.0064175 36.4891692,41.088 35.9795,41.088 C35.4698308,41.088 35.011502,41.0064175 34.6045,40.84325 C34.197498,40.6800825 33.8519181,40.4527515 33.56775,40.16125 C33.2835819,39.8697485 33.0654174,39.523252 32.91325,39.12175 C32.7610826,38.720248 32.685,38.2830024 32.685,37.81 L32.685,33.047 L34.1645,33.047 L34.1645,37.8045 C34.1645,38.1088349 34.2057496,38.3838321 34.28825,38.6295 C34.3707504,38.8751679 34.4889992,39.0850825 34.643,39.25925 C34.7970008,39.4334175 34.9867489,39.5681662 35.21225,39.6635 C35.4377511,39.7588338 35.6934986,39.8065 35.9795,39.8065 Z M41.562,33.047 C41.6280003,33.047 41.6829998,33.04975 41.727,33.05525 C41.7710002,33.06075 41.8104165,33.0717499 41.84525,33.08825 C41.8800835,33.1047501 41.9139998,33.1285832 41.947,33.15975 C41.9800002,33.1909168 42.0166665,33.2321664 42.057,33.2835 L46.2315,38.602 C46.2168333,38.473666 46.20675,38.3480839 46.20125,38.22525 C46.19575,38.1024161 46.193,37.9878339 46.193,37.8815 L46.193,33.047 L47.4965,33.047 L47.4965,41 L46.732,41 C46.6146661,41 46.5175004,40.9816668 46.4405,40.945 C46.3634996,40.9083332 46.2883337,40.8423338 46.215,40.747 L42.057,35.4505 C42.0680001,35.5678339 42.07625,35.6842494 42.08175,35.79975 C42.08725,35.9152506 42.09,36.0206662 42.09,36.116 L42.09,41 L40.7865,41 L40.7865,33.047 L41.562,33.047 Z M56.1645,37.0235 C56.1645,37.6065029 56.0673343,38.1418309 55.873,38.6295 C55.6786657,39.1171691 55.4055018,39.5369982 55.0535,39.889 C54.7014982,40.2410018 54.2780025,40.5141657 53.783,40.7085 C53.2879975,40.9028343 52.7398363,41 52.1385,41 L49.1025,41 L49.1025,33.047 L52.1385,33.047 C52.7398363,33.047 53.2879975,33.1450824 53.783,33.34125 C54.2780025,33.5374176 54.7014982,33.8105816 55.0535,34.16075 C55.4055018,34.5109184 55.6786657,34.9298309 55.873,35.4175 C56.0673343,35.9051691 56.1645,36.4404971 56.1645,37.0235 Z M54.652,37.0235 C54.652,36.5871645 54.5933339,36.1957517 54.476,35.84925 C54.3586661,35.5027483 54.1918344,35.2094179 53.9755,34.96925 C53.7591656,34.7290821 53.4960849,34.544834 53.18625,34.4165 C52.8764151,34.288166 52.5271686,34.224 52.1385,34.224 L50.593,34.224 L50.593,39.823 L52.1385,39.823 C52.5271686,39.823 52.8764151,39.758834 53.18625,39.6305 C53.4960849,39.502166 53.7591656,39.3179179 53.9755,39.07775 C54.1918344,38.8375821 54.3586661,38.5442517 54.476,38.19775 C54.5933339,37.8512483 54.652,37.4598355 54.652,37.0235 Z M62.341,33.047 L62.341,34.224 L58.8155,34.224 L58.8155,36.4295 L61.593,36.4295 L61.593,37.568 L58.8155,37.568 L58.8155,39.8175 L62.341,39.8175 L62.341,41 L57.325,41 L57.325,33.047 L62.341,33.047 Z M65.1515,37.8925 L65.1515,41 L63.672,41 L63.672,33.047 L66.0975,33.047 C66.6401694,33.047 67.1049147,33.1029161 67.49175,33.21475 C67.8785853,33.3265839 68.1957488,33.4833323 68.44325,33.685 C68.6907512,33.8866677 68.8722494,34.1277486 68.98775,34.40825 C69.1032506,34.6887514 69.161,34.997665 69.161,35.335 C69.161,35.602668 69.1215837,35.8556655 69.04275,36.094 C68.9639163,36.3323345 68.8502507,36.5486657 68.70175,36.743 C68.5532493,36.9373343 68.3699178,37.1078326 68.15175,37.2545 C67.9335822,37.4011674 67.6851681,37.5184996 67.4065,37.6065 C67.5935009,37.7128339 67.7548327,37.864999 67.8905,38.063 L69.8815,41 L68.5505,41 C68.422166,41 68.3130838,40.9743336 68.22325,40.923 C68.1334162,40.8716664 68.0573336,40.7983338 67.995,40.703 L66.323,38.1565 C66.2606664,38.0611662 66.191917,37.9933335 66.11675,37.953 C66.041583,37.9126665 65.9306674,37.8925 65.784,37.8925 L65.1515,37.8925 Z M65.1515,36.831 L66.0755,36.831 C66.3541681,36.831 66.5970823,36.796167 66.80425,36.7265 C67.0114177,36.656833 67.181916,36.5605839 67.31575,36.43775 C67.449584,36.3149161 67.5494997,36.1691675 67.6155,36.0005 C67.6815003,35.8318325 67.7145,35.6466677 67.7145,35.445 C67.7145,35.0416647 67.5815847,34.7318344 67.31575,34.5155 C67.0499153,34.2991656 66.6438361,34.191 66.0975,34.191 L65.1515,34.191 L65.1515,36.831 Z M18.17875,52.0235 C18.17875,52.6065029 18.0815843,53.1418309 17.88725,53.6295 C17.6929157,54.1171691 17.4197518,54.5369982 17.06775,54.889 C16.7157482,55.2410018 16.2922525,55.5141657 15.79725,55.7085 C15.3022475,55.9028343 14.7540863,56 14.15275,56 L11.11675,56 L11.11675,48.047 L14.15275,48.047 C14.7540863,48.047 15.3022475,48.1450824 15.79725,48.34125 C16.2922525,48.5374176 16.7157482,48.8105816 17.06775,49.16075 C17.4197518,49.5109184 17.6929157,49.9298309 17.88725,50.4175 C18.0815843,50.9051691 18.17875,51.4404971 18.17875,52.0235 Z M16.66625,52.0235 C16.66625,51.5871645 16.6075839,51.1957517 16.49025,50.84925 C16.3729161,50.5027483 16.2060844,50.2094179 15.98975,49.96925 C15.7734156,49.7290821 15.5103349,49.544834 15.2005,49.4165 C14.8906651,49.288166 14.5414186,49.224 14.15275,49.224 L12.60725,49.224 L12.60725,54.823 L14.15275,54.823 C14.5414186,54.823 14.8906651,54.758834 15.2005,54.6305 C15.5103349,54.502166 15.7734156,54.3179179 15.98975,54.07775 C16.2060844,53.8375821 16.3729161,53.5442517 16.49025,53.19775 C16.6075839,52.8512483 16.66625,52.4598355 16.66625,52.0235 Z M24.35525,48.047 L24.35525,49.224 L20.82975,49.224 L20.82975,51.4295 L23.60725,51.4295 L23.60725,52.568 L20.82975,52.568 L20.82975,54.8175 L24.35525,54.8175 L24.35525,56 L19.33925,56 L19.33925,48.047 L24.35525,48.047 Z M24.85575,48.047 L26.04925,48.047 C26.177584,48.047 26.2820829,48.0781664 26.36275,48.1405 C26.4434171,48.2028336 26.5039165,48.2834995 26.54425,48.3825 L28.41425,53.2335 C28.4765836,53.3911675 28.5361664,53.5644157 28.593,53.75325 C28.6498336,53.9420843 28.7039164,54.140999 28.75525,54.35 C28.8395838,53.9283312 28.9440827,53.5561683 29.06875,53.2335 L30.93325,48.3825 C30.9662502,48.2981662 31.0249162,48.221167 31.10925,48.1515 C31.1935838,48.081833 31.2980827,48.047 31.42275,48.047 L32.61625,48.047 L29.40425,56 L28.06775,56 L24.85575,48.047 Z M38.46275,48.047 L38.46275,49.224 L34.93725,49.224 L34.93725,51.4295 L37.71475,51.4295 L37.71475,52.568 L34.93725,52.568 L34.93725,54.8175 L38.46275,54.8175 L38.46275,56 L33.44675,56 L33.44675,48.047 L38.46275,48.047 Z M41.22375,54.779 L44.40825,54.779 L44.40825,56 L39.74425,56 L39.74425,48.047 L41.22375,48.047 L41.22375,54.779 Z M53.05975,52.0235 C53.05975,52.6065029 52.9625843,53.1464142 52.76825,53.64325 C52.5739157,54.1400858 52.3007518,54.5699982 51.94875,54.933 C51.5967482,55.2960018 51.1732525,55.579249 50.67825,55.78275 C50.1832475,55.986251 49.6350863,56.088 49.03375,56.088 C48.4324137,56.088 47.8833358,55.986251 47.3865,55.78275 C46.8896642,55.579249 46.4643351,55.2960018 46.1105,54.933 C45.7566649,54.5699982 45.4825843,54.1400858 45.28825,53.64325 C45.0939157,53.1464142 44.99675,52.6065029 44.99675,52.0235 C44.99675,51.4404971 45.0939157,50.9005858 45.28825,50.40375 C45.4825843,49.9069142 45.7566649,49.4770018 46.1105,49.114 C46.4643351,48.7509982 46.8896642,48.467751 47.3865,48.26425 C47.8833358,48.060749 48.4324137,47.959 49.03375,47.959 C49.6350863,47.959 50.1832475,48.0616656 50.67825,48.267 C51.1732525,48.4723344 51.5967482,48.7555815 51.94875,49.11675 C52.3007518,49.4779185 52.5739157,49.9069142 52.76825,50.40375 C52.9625843,50.9005858 53.05975,51.4404971 53.05975,52.0235 Z M51.54175,52.0235 C51.54175,51.5871645 51.4840006,51.1957517 51.3685,50.84925 C51.2529994,50.5027483 51.0870844,50.2085012 50.87075,49.9665 C50.6544156,49.7244988 50.3913349,49.539334 50.0815,49.411 C49.7716651,49.282666 49.4224186,49.2185 49.03375,49.2185 C48.6450814,49.2185 48.2949182,49.282666 47.98325,49.411 C47.6715818,49.539334 47.4066678,49.7244988 47.1885,49.9665 C46.9703322,50.2085012 46.8025839,50.5027483 46.68525,50.84925 C46.5679161,51.1957517 46.50925,51.5871645 46.50925,52.0235 C46.50925,52.4598355 46.5679161,52.8512483 46.68525,53.19775 C46.8025839,53.5442517 46.9703322,53.8375821 47.1885,54.07775 C47.4066678,54.3179179 47.6715818,54.502166 47.98325,54.6305 C48.2949182,54.758834 48.6450814,54.823 49.03375,54.823 C49.4224186,54.823 49.7716651,54.758834 50.0815,54.6305 C50.3913349,54.502166 50.6544156,54.3179179 50.87075,54.07775 C51.0870844,53.8375821 51.2529994,53.5442517 51.3685,53.19775 C51.4840006,52.8512483 51.54175,52.4598355 51.54175,52.0235 Z M55.75475,53.2005 L55.75475,56 L54.27525,56 L54.27525,48.047 L56.86575,48.047 C57.3974193,48.047 57.8575814,48.1093327 58.24625,48.234 C58.6349186,48.3586673 58.9557487,48.5328322 59.20875,48.7565 C59.4617513,48.9801678 59.6487494,49.2478318 59.76975,49.5595 C59.8907506,49.8711682 59.95125,50.2121648 59.95125,50.5825 C59.95125,50.9675019 59.887084,51.3204151 59.75875,51.64125 C59.630416,51.9620849 59.4379179,52.2379988 59.18125,52.469 C58.924582,52.7000012 58.6037519,52.879666 58.21875,53.008 C57.8337481,53.136334 57.3827526,53.2005 56.86575,53.2005 L55.75475,53.2005 Z M55.75475,52.0455 L56.86575,52.0455 C57.1370847,52.0455 57.3735823,52.0115837 57.57525,51.94375 C57.7769177,51.8759163 57.9437493,51.7787506 58.07575,51.65225 C58.2077507,51.5257494 58.3067497,51.3717509 58.37275,51.19025 C58.4387503,51.0087491 58.47175,50.8061678 58.47175,50.5825 C58.47175,50.3698323 58.4387503,50.1773342 58.37275,50.005 C58.3067497,49.8326658 58.2077507,49.6860006 58.07575,49.565 C57.9437493,49.4439994 57.7769177,49.351417 57.57525,49.28725 C57.3735823,49.223083 57.1370847,49.191 56.86575,49.191 L55.75475,49.191 L55.75475,52.0455 Z M65.09375,52.7 C65.1560836,52.8173339 65.2138331,52.9392494 65.267,53.06575 C65.3201669,53.1922506 65.3724164,53.319666 65.42375,53.448 C65.4750836,53.3159993 65.5282497,53.185834 65.58325,53.0575 C65.6382503,52.929166 65.6969164,52.8063339 65.75925,52.689 L68.11325,48.2835 C68.1425835,48.2284997 68.1728332,48.1845002 68.204,48.1515 C68.2351668,48.1184998 68.2699998,48.0946667 68.3085,48.08 C68.3470002,48.0653333 68.3900831,48.0561667 68.43775,48.0525 C68.4854169,48.0488333 68.5422497,48.047 68.60825,48.047 L69.72475,48.047 L69.72475,56 L68.42125,56 L68.42125,50.863 C68.42125,50.7676662 68.424,50.6631672 68.4295,50.5495 C68.435,50.4358328 68.4432499,50.3203339 68.45425,50.203 L66.05075,54.713 C65.9957497,54.8156672 65.9242504,54.8954164 65.83625,54.95225 C65.7482496,55.0090836 65.6455839,55.0375 65.52825,55.0375 L65.32475,55.0375 C65.2074161,55.0375 65.1047504,55.0090836 65.01675,54.95225 C64.9287496,54.8954164 64.8572503,54.8156672 64.80225,54.713 L62.36575,50.1865 C62.3804167,50.3075006 62.3905,50.4257494 62.396,50.54125 C62.4015,50.6567506 62.40425,50.7639995 62.40425,50.863 L62.40425,56 L61.10075,56 L61.10075,48.047 L62.21725,48.047 C62.2832503,48.047 62.3400831,48.0488333 62.38775,48.0525 C62.4354169,48.0561667 62.4784998,48.0653333 62.517,48.08 C62.5555002,48.0946667 62.5912498,48.1184998 62.62425,48.1515 C62.6572502,48.1845002 62.6884165,48.2284997 62.71775,48.2835 L65.09375,52.7 Z M76.34675,48.047 L76.34675,49.224 L72.82125,49.224 L72.82125,51.4295 L75.59875,51.4295 L75.59875,52.568 L72.82125,52.568 L72.82125,54.8175 L76.34675,54.8175 L76.34675,56 L71.33075,56 L71.33075,48.047 L76.34675,48.047 Z M78.40375,48.047 C78.4697503,48.047 78.5247498,48.04975 78.56875,48.05525 C78.6127502,48.06075 78.6521665,48.0717499 78.687,48.08825 C78.7218335,48.1047501 78.7557498,48.1285832 78.78875,48.15975 C78.8217502,48.1909168 78.8584165,48.2321664 78.89875,48.2835 L83.07325,53.602 C83.0585833,53.473666 83.0485,53.3480839 83.043,53.22525 C83.0375,53.1024161 83.03475,52.9878339 83.03475,52.8815 L83.03475,48.047 L84.33825,48.047 L84.33825,56 L83.57375,56 C83.4564161,56 83.3592504,55.9816668 83.28225,55.945 C83.2052496,55.9083332 83.1300837,55.8423338 83.05675,55.747 L78.89875,50.4505 C78.9097501,50.5678339 78.918,50.6842494 78.9235,50.79975 C78.929,50.9152506 78.93175,51.0206662 78.93175,51.116 L78.93175,56 L77.62825,56 L77.62825,48.047 L78.40375,48.047 Z M91.54875,48.047 L91.54875,49.2625 L89.15625,49.2625 L89.15625,56 L87.67675,56 L87.67675,49.2625 L85.27325,49.2625 L85.27325,48.047 L91.54875,48.047 Z" id="UNDERDEVELOPMENT" fill="#003055" fill-rule="nonzero"></path>
                        </g>
                        <g id="2" transform="translate(86.000000, 4.000000)">
                            <circle id="Oval" stroke="#FFFFFF" fill="#40E6CF" cx="51" cy="10" r="10"></circle>
                            <polygon id="Page-1" fill="#003055" points="53.0806509 8 52.6208918 8.45975914 50.1681054 10.9125455 49.3220028 10.2372255 48.81343 9.83057555 48 10.8474607 48.5084426 11.2542408 49.8101389 12.2955979 50.2657326 12.6575996 50.676548 12.2467843 53.5404101 9.38305235 53.9999089 8.92342337"></polygon>
                            <path d="M37.8935,40 L37.8935,32.047 L40.638,32.047 C41.1586693,32.047 41.6032482,32.0964995 41.97175,32.1955 C42.3402518,32.2945005 42.6427488,32.4356657 42.87925,32.619 C43.1157512,32.8023343 43.2889994,33.0241654 43.399,33.2845 C43.5090005,33.5448346 43.564,33.838165 43.564,34.1645 C43.564,34.3515009 43.5365003,34.5302491 43.4815,34.70075 C43.4264997,34.8712509 43.3412506,35.0307493 43.22575,35.17925 C43.1102494,35.3277507 42.9635842,35.4624994 42.78575,35.5835 C42.6079158,35.7045006 42.3961679,35.8071662 42.1505,35.8915 C43.2431721,36.1371679 43.7895,36.7274953 43.7895,37.6625 C43.7895,37.999835 43.725334,38.3114986 43.597,38.5975 C43.468666,38.8835014 43.2816679,39.1300823 43.036,39.33725 C42.7903321,39.5444177 42.4878351,39.7066661 42.1285,39.824 C41.7691649,39.9413339 41.3585023,40 40.8965,40 L37.8935,40 Z M39.373,36.513 L39.373,38.845 L40.8745,38.845 C41.1495014,38.845 41.3795824,38.8120003 41.56475,38.746 C41.7499176,38.6799997 41.8984161,38.5920005 42.01025,38.482 C42.1220839,38.3719995 42.2027498,38.2436674 42.25225,38.097 C42.3017502,37.9503326 42.3265,37.7945008 42.3265,37.6295 C42.3265,37.4571658 42.2990003,37.3022507 42.244,37.16475 C42.1889997,37.0272493 42.1028339,36.9099172 41.9855,36.81275 C41.8681661,36.7155828 41.7178343,36.6413336 41.5345,36.59 C41.3511657,36.5386664 41.1293346,36.513 40.869,36.513 L39.373,36.513 Z M39.373,35.49 L40.5555,35.49 C41.0578358,35.49 41.4391654,35.3983343 41.6995,35.215 C41.9598346,35.0316658 42.09,34.7401687 42.09,34.3405 C42.09,33.9261646 41.9726678,33.6310009 41.738,33.455 C41.5033322,33.2789991 41.1366692,33.191 40.638,33.191 L39.373,33.191 L39.373,35.49 Z M50.076,32.047 L50.076,33.224 L46.5505,33.224 L46.5505,35.4295 L49.328,35.4295 L49.328,36.568 L46.5505,36.568 L46.5505,38.8175 L50.076,38.8175 L50.076,40 L45.06,40 L45.06,32.047 L50.076,32.047 Z M56.962,32.047 L56.962,33.2625 L54.5695,33.2625 L54.5695,40 L53.09,40 L53.09,33.2625 L50.6865,33.2625 L50.6865,32.047 L56.962,32.047 Z M64.893,40 L63.749,40 C63.620666,40 63.5152504,39.967917 63.43275,39.90375 C63.3502496,39.839583 63.2906668,39.7598338 63.254,39.6645 L62.66,38.042 L59.3655,38.042 L58.7715,39.6645 C58.7421665,39.7488338 58.6844171,39.825833 58.59825,39.8955 C58.5120829,39.965167 58.4066673,40 58.282,40 L57.1325,40 L60.2565,32.047 L61.769,32.047 L64.893,40 Z M59.745,36.997 L62.2805,36.997 L61.3125,34.3515 C61.2684998,34.2341661 61.2199169,34.0957508 61.16675,33.93625 C61.1135831,33.7767492 61.0613336,33.6035009 61.01,33.4165 C60.9586664,33.6035009 60.9082502,33.7776659 60.85875,33.939 C60.8092498,34.1003341 60.7606669,34.2414994 60.713,34.3625 L59.745,36.997 Z" id="BETA" fill="#003055" fill-rule="nonzero"></path>
                        </g>
                        <g id="3" transform="translate(123.000000, 0.000000)">
                            <circle id="active" stroke="#FFFFFF" stroke-width="2" fill="#FFFFFF" cx="92" cy="14" r="14"></circle>
                            <circle id="Oval" stroke="#FFFFFF" fill="#40E6CF" cx="92" cy="14" r="10"></circle>
                            <polygon id="Page-1" fill="#003055" points="94.0806509 12 93.6208918 12.4597591 91.1681054 14.9125455 90.3220028 14.2372255 89.81343 13.8305755 89 14.8474607 89.5084426 15.2542408 90.8101389 16.2955979 91.2657326 16.6575996 91.676548 16.2467843 94.5404101 13.3830523 94.9999089 12.9234234"></polygon>
                            <path d="M71.65,42.0355 L71.65,45 L69.791,45 L69.791,36.9865 L72.398,36.9865 C72.9773362,36.9865 73.4714146,37.0460827 73.88025,37.16525 C74.2890854,37.2844173 74.6227487,37.4503323 74.88125,37.663 C75.1397513,37.8756677 75.3276661,38.1268319 75.445,38.4165 C75.5623339,38.7061681 75.621,39.0214983 75.621,39.3625 C75.621,39.6228346 75.586167,39.8684988 75.5165,40.0995 C75.446833,40.3305012 75.3432507,40.5440824 75.20575,40.74025 C75.0682493,40.9364176 74.8995843,41.1114992 74.69975,41.2655 C74.4999157,41.4195008 74.2698346,41.5459995 74.0095,41.645 C74.1341673,41.7073336 74.2505828,41.7843329 74.35875,41.876 C74.4669172,41.9676671 74.5613329,42.0794993 74.642,42.2115 L76.347,45 L74.664,45 C74.3523318,45 74.1286673,44.8826678 73.993,44.648 L72.662,42.3215 C72.603333,42.2188328 72.5345837,42.1455002 72.45575,42.1015 C72.3769163,42.0574998 72.2660007,42.0355 72.123,42.0355 L71.65,42.0355 Z M71.65,40.754 L72.398,40.754 C72.6510013,40.754 72.8664158,40.721917 73.04425,40.65775 C73.2220842,40.593583 73.3678328,40.5046672 73.4815,40.391 C73.5951672,40.2773328 73.6776664,40.1444174 73.729,39.99225 C73.7803336,39.8400826 73.806,39.6760009 73.806,39.5 C73.806,39.1479982 73.6914178,38.873001 73.46225,38.675 C73.2330822,38.476999 72.8783357,38.378 72.398,38.378 L71.65,38.378 L71.65,40.754 Z M82.265,36.9865 L82.265,38.4165 L78.976,38.4165 L78.976,40.2865 L81.495,40.2865 L81.495,41.6615 L78.976,41.6615 L78.976,43.57 L82.265,43.57 L82.265,45 L77.106,45 L77.106,36.9865 L82.265,36.9865 Z M85.18,43.515 L88.15,43.515 L88.15,45 L83.321,45 L83.321,36.9865 L85.18,36.9865 L85.18,43.515 Z M94.189,36.9865 L94.189,38.4165 L90.9,38.4165 L90.9,40.2865 L93.419,40.2865 L93.419,41.6615 L90.9,41.6615 L90.9,43.57 L94.189,43.57 L94.189,45 L89.03,45 L89.03,36.9865 L94.189,36.9865 Z M102.703,45 L101.262,45 C101.100666,45 100.967751,44.962417 100.86325,44.88725 C100.758749,44.812083 100.686334,44.7158339 100.646,44.5985 L100.173,43.2015 L97.126,43.2015 L96.653,44.5985 C96.6163331,44.7011672 96.5448339,44.7937496 96.4385,44.87625 C96.3321661,44.9587504 96.2020008,45 96.048,45 L94.596,45 L97.698,36.9865 L99.601,36.9865 L102.703,45 Z M97.555,41.9365 L99.744,41.9365 L99.007,39.742 C98.9593331,39.602666 98.903417,39.4385843 98.83925,39.24975 C98.775083,39.0609157 98.7118336,38.8565011 98.6495,38.6365 C98.590833,38.8601678 98.5303336,39.0673324 98.468,39.258 C98.4056664,39.4486676 98.3470003,39.613666 98.292,39.753 L97.555,41.9365 Z M107.818,38.6145 C107.763,38.7025004 107.70525,38.7684998 107.64475,38.8125 C107.58425,38.8565002 107.506334,38.8785 107.411,38.8785 C107.326666,38.8785 107.235917,38.8519169 107.13875,38.79875 C107.041583,38.7455831 106.931584,38.6860003 106.80875,38.62 C106.685916,38.5539997 106.545667,38.4944169 106.388,38.44125 C106.230333,38.3880831 106.050668,38.3615 105.849,38.3615 C105.500665,38.3615 105.241251,38.4357493 105.07075,38.58425 C104.900249,38.7327507 104.815,38.9334987 104.815,39.1865 C104.815,39.3478341 104.866333,39.4816661 104.969,39.588 C105.071667,39.6943339 105.206416,39.7859996 105.37325,39.863 C105.540084,39.9400004 105.730749,40.010583 105.94525,40.07475 C106.159751,40.138917 106.378832,40.2104163 106.6025,40.28925 C106.826168,40.3680837 107.045249,40.4606661 107.25975,40.567 C107.474251,40.6733339 107.664916,40.8089992 107.83175,40.974 C107.998584,41.1390008 108.133333,41.3397488 108.236,41.57625 C108.338667,41.8127512 108.39,42.0978317 108.39,42.4315 C108.39,42.8018352 108.325834,43.1483317 108.1975,43.471 C108.069166,43.7936683 107.883085,44.0750821 107.63925,44.31525 C107.395415,44.5554179 107.094752,44.7442493 106.73725,44.88175 C106.379748,45.0192507 105.973669,45.088 105.519,45.088 C105.269665,45.088 105.015751,45.0623336 104.75725,45.011 C104.498749,44.9596664 104.248501,44.8872505 104.0065,44.79375 C103.764499,44.7002495 103.537168,44.589334 103.3245,44.461 C103.111832,44.332666 102.926667,44.1896675 102.769,44.032 L103.319,43.163 C103.359334,43.0969997 103.416166,43.0438335 103.4895,43.0035 C103.562834,42.9631665 103.641666,42.943 103.726,42.943 C103.836001,42.943 103.946916,42.977833 104.05875,43.0475 C104.170584,43.117167 104.297083,43.1941662 104.43825,43.2785 C104.579417,43.3628338 104.741666,43.439833 104.925,43.5095 C105.108334,43.579167 105.324665,43.614 105.574,43.614 C105.911335,43.614 106.173499,43.5397507 106.3605,43.39125 C106.547501,43.2427493 106.641,43.0071683 106.641,42.6845 C106.641,42.4974991 106.589667,42.3453339 106.487,42.228 C106.384333,42.1106661 106.249584,42.0135004 106.08275,41.9365 C105.915916,41.8594996 105.726168,41.791667 105.5135,41.733 C105.300832,41.674333 105.082668,41.6092504 104.859,41.53775 C104.635332,41.4662496 104.417168,41.3782505 104.2045,41.27375 C103.991832,41.1692495 103.802084,41.0317509 103.63525,40.86125 C103.468416,40.6907491 103.333667,40.4780846 103.231,40.22325 C103.128333,39.9684154 103.077,39.6540019 103.077,39.28 C103.077,38.9793318 103.137499,38.6860014 103.2585,38.4 C103.379501,38.1139986 103.557332,37.8591678 103.792,37.6355 C104.026668,37.4118322 104.314498,37.233084 104.6555,37.09925 C104.996502,36.965416 105.386998,36.8985 105.827,36.8985 C106.072668,36.8985 106.311916,36.9177498 106.54475,36.95625 C106.777584,36.9947502 106.998499,37.051583 107.2075,37.12675 C107.416501,37.201917 107.611749,37.2917495 107.79325,37.39625 C107.974751,37.5007505 108.136999,37.6189993 108.28,37.751 L107.818,38.6145 Z M114.473,36.9865 L114.473,38.4165 L111.184,38.4165 L111.184,40.2865 L113.703,40.2865 L113.703,41.6615 L111.184,41.6615 L111.184,43.57 L114.473,43.57 L114.473,45 L109.314,45 L109.314,36.9865 L114.473,36.9865 Z M65.842,57.9265 C65.8860002,57.9265 65.9299998,57.9347499 65.974,57.95125 C66.0180002,57.9677501 66.0601665,57.9961665 66.1005,58.0365 L66.8375,58.812 C66.5148317,59.2336688 66.1105858,59.5517489 65.62475,59.76625 C65.1389142,59.9807511 64.56417,60.088 63.9005,60.088 C63.2918303,60.088 62.7464191,59.9844177 62.26425,59.77725 C61.7820809,59.5700823 61.3732517,59.2840852 61.03775,58.91925 C60.7022483,58.5544148 60.4446676,58.1217525 60.265,57.62125 C60.0853324,57.1207475 59.9955,56.5771696 59.9955,55.9905 C59.9955,55.3928303 60.0981656,54.8437525 60.3035,54.34325 C60.5088344,53.8427475 60.7957482,53.4110018 61.16425,53.048 C61.5327518,52.6849982 61.9736641,52.4026677 62.487,52.201 C63.0003359,51.9993323 63.5668302,51.8985 64.1865,51.8985 C64.4871682,51.8985 64.7704153,51.9250831 65.03625,51.97825 C65.3020847,52.0314169 65.5504988,52.1047495 65.7815,52.19825 C66.0125012,52.2917505 66.2251657,52.4035827 66.4195,52.53375 C66.6138343,52.6639173 66.7861659,52.8078325 66.9365,52.9655 L66.3095,53.807 C66.2691665,53.8583336 66.2215003,53.9050831 66.1665,53.94725 C66.1114997,53.9894169 66.0345005,54.0105 65.9355,54.0105 C65.8694997,54.0105 65.807167,53.9958335 65.7485,53.9665 C65.689833,53.9371665 65.6275003,53.9014169 65.5615,53.85925 C65.4954997,53.8170831 65.4230837,53.7712502 65.34425,53.72175 C65.2654163,53.6722498 65.1719172,53.6264169 65.06375,53.58425 C64.9555828,53.5420831 64.8290841,53.5063335 64.68425,53.477 C64.5394159,53.4476665 64.3698343,53.433 64.1755,53.433 C63.838165,53.433 63.5301681,53.4925827 63.2515,53.61175 C62.9728319,53.7309173 62.7335843,53.9014156 62.53375,54.12325 C62.3339157,54.3450844 62.1780839,54.6136651 62.06625,54.929 C61.9544161,55.2443349 61.8985,55.5981647 61.8985,55.9905 C61.8985,56.4011687 61.9544161,56.7659984 62.06625,57.085 C62.1780839,57.4040016 62.330249,57.6725822 62.52275,57.89075 C62.715251,58.1089178 62.939832,58.2748328 63.1965,58.3885 C63.453168,58.5021672 63.7281652,58.559 64.0215,58.559 C64.1901675,58.559 64.344166,58.5507501 64.4835,58.53425 C64.622834,58.5177499 64.7520827,58.4893335 64.87125,58.449 C64.9904173,58.4086665 65.1040828,58.356417 65.21225,58.29225 C65.3204172,58.228083 65.4294994,58.1483338 65.5395,58.053 C65.5835002,58.0163332 65.6311664,57.9860835 65.6825,57.96225 C65.7338336,57.9384165 65.7869997,57.9265 65.842,57.9265 Z M75.1425,60 L73.7015,60 C73.5401659,60 73.4072505,59.962417 73.30275,59.88725 C73.1982495,59.812083 73.1258335,59.7158339 73.0855,59.5985 L72.6125,58.2015 L69.5655,58.2015 L69.0925,59.5985 C69.0558331,59.7011672 68.9843339,59.7937496 68.878,59.87625 C68.7716661,59.9587504 68.6415008,60 68.4875,60 L67.0355,60 L70.1375,51.9865 L72.0405,51.9865 L75.1425,60 Z M69.9945,56.9365 L72.1835,56.9365 L71.4465,54.742 C71.3988331,54.602666 71.342917,54.4385843 71.27875,54.24975 C71.214583,54.0609157 71.1513336,53.8565011 71.089,53.6365 C71.030333,53.8601678 70.9698336,54.0673324 70.9075,54.258 C70.8451664,54.4486676 70.7865003,54.613666 70.7315,54.753 L69.9945,56.9365 Z M76.7705,51.9865 C76.8511671,51.9865 76.9189997,51.9901666 76.974,51.9975 C77.0290003,52.0048334 77.0784998,52.0185832 77.1225,52.03875 C77.1665002,52.0589168 77.2086665,52.0873332 77.249,52.124 C77.2893335,52.1606669 77.3351664,52.2101664 77.3865,52.2725 L81.1925,57.085 C81.1778333,56.9309992 81.1668334,56.7815841 81.1595,56.63675 C81.1521666,56.4919159 81.1485,56.355334 81.1485,56.227 L81.1485,51.9865 L82.7875,51.9865 L82.7875,60 L81.8195,60 C81.6764993,60 81.5555005,59.9780002 81.4565,59.934 C81.3574995,59.8899998 81.2621671,59.8093339 81.1705,59.692 L77.392,54.918 C77.4030001,55.057334 77.4121666,55.193916 77.4195,55.32775 C77.4268334,55.461584 77.4305,55.5871661 77.4305,55.7045 L77.4305,60 L75.7915,60 L75.7915,51.9865 L76.7705,51.9865 Z M91.3785,55.9905 C91.3785,56.5698362 91.2785843,57.1042476 91.07875,57.59375 C90.8789157,58.0832524 90.5975018,58.5067482 90.2345,58.86425 C89.8714982,59.2217518 89.4342526,59.5004157 88.92275,59.70025 C88.4112474,59.9000843 87.8438364,60 87.2205,60 L84.1075,60 L84.1075,51.9865 L87.2205,51.9865 C87.8438364,51.9865 88.4112474,52.0873323 88.92275,52.289 C89.4342526,52.4906677 89.8714982,52.7693316 90.2345,53.125 C90.5975018,53.4806684 90.8789157,53.9032476 91.07875,54.39275 C91.2785843,54.8822524 91.3785,55.4148305 91.3785,55.9905 Z M89.4755,55.9905 C89.4755,55.594498 89.4241672,55.2370016 89.3215,54.918 C89.2188328,54.5989984 89.071251,54.3285844 88.87875,54.10675 C88.686249,53.8849156 88.4506681,53.7144173 88.172,53.59525 C87.8933319,53.4760827 87.5761684,53.4165 87.2205,53.4165 L85.9775,53.4165 L85.9775,58.57 L87.2205,58.57 C87.5761684,58.57 87.8933319,58.5104173 88.172,58.39125 C88.4506681,58.2720827 88.686249,58.1015844 88.87875,57.87975 C89.071251,57.6579156 89.2188328,57.3875016 89.3215,57.0685 C89.4241672,56.7494984 89.4755,56.3901687 89.4755,55.9905 Z M94.3045,60 L92.4345,60 L92.4345,51.9865 L94.3045,51.9865 L94.3045,60 Z M103.0605,55.9905 C103.0605,56.5698362 102.960584,57.1042476 102.76075,57.59375 C102.560916,58.0832524 102.279502,58.5067482 101.9165,58.86425 C101.553498,59.2217518 101.116253,59.5004157 100.60475,59.70025 C100.093247,59.9000843 99.5258364,60 98.9025,60 L95.7895,60 L95.7895,51.9865 L98.9025,51.9865 C99.5258364,51.9865 100.093247,52.0873323 100.60475,52.289 C101.116253,52.4906677 101.553498,52.7693316 101.9165,53.125 C102.279502,53.4806684 102.560916,53.9032476 102.76075,54.39275 C102.960584,54.8822524 103.0605,55.4148305 103.0605,55.9905 Z M101.1575,55.9905 C101.1575,55.594498 101.106167,55.2370016 101.0035,54.918 C100.900833,54.5989984 100.753251,54.3285844 100.56075,54.10675 C100.368249,53.8849156 100.132668,53.7144173 99.854,53.59525 C99.5753319,53.4760827 99.2581684,53.4165 98.9025,53.4165 L97.6595,53.4165 L97.6595,58.57 L98.9025,58.57 C99.2581684,58.57 99.5753319,58.5104173 99.854,58.39125 C100.132668,58.2720827 100.368249,58.1015844 100.56075,57.87975 C100.753251,57.6579156 100.900833,57.3875016 101.0035,57.0685 C101.106167,56.7494984 101.1575,56.3901687 101.1575,55.9905 Z M111.4095,60 L109.9685,60 C109.807166,60 109.674251,59.962417 109.56975,59.88725 C109.465249,59.812083 109.392834,59.7158339 109.3525,59.5985 L108.8795,58.2015 L105.8325,58.2015 L105.3595,59.5985 C105.322833,59.7011672 105.251334,59.7937496 105.145,59.87625 C105.038666,59.9587504 104.908501,60 104.7545,60 L103.3025,60 L106.4045,51.9865 L108.3075,51.9865 L111.4095,60 Z M106.2615,56.9365 L108.4505,56.9365 L107.7135,54.742 C107.665833,54.602666 107.609917,54.4385843 107.54575,54.24975 C107.481583,54.0609157 107.418334,53.8565011 107.356,53.6365 C107.297333,53.8601678 107.236834,54.0673324 107.1745,54.258 C107.112166,54.4486676 107.0535,54.613666 106.9985,54.753 L106.2615,56.9365 Z M117.8775,51.9865 L117.8775,53.4605 L115.6225,53.4605 L115.6225,60 L113.7635,60 L113.7635,53.4605 L111.5085,53.4605 L111.5085,51.9865 L117.8775,51.9865 Z M123.8065,51.9865 L123.8065,53.4165 L120.5175,53.4165 L120.5175,55.2865 L123.0365,55.2865 L123.0365,56.6615 L120.5175,56.6615 L120.5175,58.57 L123.8065,58.57 L123.8065,60 L118.6475,60 L118.6475,51.9865 L123.8065,51.9865 Z" id="RELEASECANDIDATE" fill="#003055" fill-rule="nonzero"></path>
                        </g>
                        <g id="4" transform="translate(260.000000, 4.000000)">
                            <circle id="Oval" stroke="#FFFFFF" fill="#40E6CF" cx="41" cy="10" r="10"></circle>
                            <polygon id="Page-1" fill="#003055" points="43.0806509 8 42.6208918 8.45975914 40.1681054 10.9125455 39.3220028 10.2372255 38.81343 9.83057555 38 10.8474607 38.5084426 11.2542408 39.8101389 12.2955979 40.2657326 12.6575996 40.676548 12.2467843 43.5404101 9.38305235 43.9999089 8.92342337"></polygon>
                            <path d="M20.672,39.911 C21.0056683,39.911 21.2962488,39.8807503 21.54375,39.82025 C21.7912512,39.7597497 22.0268322,39.6763339 22.2505,39.57 L22.2505,38.1235 L21.255,38.1235 C21.1596662,38.1235 21.0845003,38.0969169 21.0295,38.04375 C20.9744997,37.9905831 20.947,37.9255004 20.947,37.8485 L20.947,37.0125 L23.5925,37.0125 L23.5925,40.23 C23.3908323,40.3766674 23.1809178,40.5040828 22.96275,40.61225 C22.7445822,40.7204172 22.5117512,40.809333 22.26425,40.879 C22.0167488,40.948667 21.7518347,41.0009165 21.4695,41.03575 C21.1871653,41.0705835 20.882835,41.088 20.5565,41.088 C19.9771638,41.088 19.4436691,40.9871677 18.956,40.7855 C18.4683309,40.5838323 18.0466684,40.3033351 17.691,39.944 C17.3353316,39.5846649 17.0575843,39.1556692 16.85775,38.657 C16.6579157,38.1583308 16.558,37.6138363 16.558,37.0235 C16.558,36.4258303 16.6551657,35.8776692 16.8495,35.379 C17.0438343,34.8803308 17.3197482,34.4513351 17.67725,34.092 C18.0347518,33.7326649 18.4683308,33.454001 18.978,33.256 C19.4876692,33.057999 20.0596635,32.959 20.694,32.959 C21.3430032,32.959 21.9049143,33.055249 22.37975,33.24775 C22.8545857,33.440251 23.2569984,33.6904985 23.587,33.9985 L23.158,34.6695 C23.0736662,34.8051673 22.961834,34.873 22.8225,34.873 C22.7344996,34.873 22.6446671,34.843667 22.553,34.785 C22.4356661,34.715333 22.3155839,34.645667 22.19275,34.576 C22.0699161,34.506333 21.9342507,34.4458336 21.78575,34.3945 C21.6372493,34.3431664 21.4704176,34.3010002 21.28525,34.268 C21.1000824,34.2349998 20.8865012,34.2185 20.6445,34.2185 C20.2521647,34.2185 19.8974183,34.2844993 19.58025,34.4165 C19.2630817,34.5485007 18.9926678,34.7373321 18.769,34.983 C18.5453322,35.2286679 18.3730006,35.5238316 18.252,35.8685 C18.1309994,36.2131684 18.0705,36.5981645 18.0705,37.0235 C18.0705,37.4818356 18.134666,37.8897482 18.263,38.24725 C18.391334,38.6047518 18.5709988,38.9063321 18.802,39.152 C19.0330012,39.3976679 19.3079984,39.5855827 19.627,39.71575 C19.9460016,39.8459173 20.2943314,39.911 20.672,39.911 Z M29.989,33.047 L29.989,34.224 L26.4635,34.224 L26.4635,36.4295 L29.241,36.4295 L29.241,37.568 L26.4635,37.568 L26.4635,39.8175 L29.989,39.8175 L29.989,41 L24.973,41 L24.973,33.047 L29.989,33.047 Z M32.046,33.047 C32.1120003,33.047 32.1669998,33.04975 32.211,33.05525 C32.2550002,33.06075 32.2944165,33.0717499 32.32925,33.08825 C32.3640835,33.1047501 32.3979998,33.1285832 32.431,33.15975 C32.4640002,33.1909168 32.5006665,33.2321664 32.541,33.2835 L36.7155,38.602 C36.7008333,38.473666 36.69075,38.3480839 36.68525,38.22525 C36.67975,38.1024161 36.677,37.9878339 36.677,37.8815 L36.677,33.047 L37.9805,33.047 L37.9805,41 L37.216,41 C37.0986661,41 37.0015004,40.9816668 36.9245,40.945 C36.8474996,40.9083332 36.7723337,40.8423338 36.699,40.747 L32.541,35.4505 C32.5520001,35.5678339 32.56025,35.6842494 32.56575,35.79975 C32.57125,35.9152506 32.574,36.0206662 32.574,36.116 L32.574,41 L31.2705,41 L31.2705,33.047 L32.046,33.047 Z M44.6025,33.047 L44.6025,34.224 L41.077,34.224 L41.077,36.4295 L43.8545,36.4295 L43.8545,37.568 L41.077,37.568 L41.077,39.8175 L44.6025,39.8175 L44.6025,41 L39.5865,41 L39.5865,33.047 L44.6025,33.047 Z M47.413,37.8925 L47.413,41 L45.9335,41 L45.9335,33.047 L48.359,33.047 C48.9016694,33.047 49.3664147,33.1029161 49.75325,33.21475 C50.1400853,33.3265839 50.4572488,33.4833323 50.70475,33.685 C50.9522512,33.8866677 51.1337494,34.1277486 51.24925,34.40825 C51.3647506,34.6887514 51.4225,34.997665 51.4225,35.335 C51.4225,35.602668 51.3830837,35.8556655 51.30425,36.094 C51.2254163,36.3323345 51.1117507,36.5486657 50.96325,36.743 C50.8147493,36.9373343 50.6314178,37.1078326 50.41325,37.2545 C50.1950822,37.4011674 49.9466681,37.5184996 49.668,37.6065 C49.8550009,37.7128339 50.0163327,37.864999 50.152,38.063 L52.143,41 L50.812,41 C50.683666,41 50.5745838,40.9743336 50.48475,40.923 C50.3949162,40.8716664 50.3188336,40.7983338 50.2565,40.703 L48.5845,38.1565 C48.5221664,38.0611662 48.453417,37.9933335 48.37825,37.953 C48.303083,37.9126665 48.1921674,37.8925 48.0455,37.8925 L47.413,37.8925 Z M47.413,36.831 L48.337,36.831 C48.6156681,36.831 48.8585823,36.796167 49.06575,36.7265 C49.2729177,36.656833 49.443416,36.5605839 49.57725,36.43775 C49.711084,36.3149161 49.8109997,36.1691675 49.877,36.0005 C49.9430003,35.8318325 49.976,35.6466677 49.976,35.445 C49.976,35.0416647 49.8430847,34.7318344 49.57725,34.5155 C49.3114153,34.2991656 48.9053361,34.191 48.359,34.191 L47.413,34.191 L47.413,36.831 Z M60.0795,41 L58.9355,41 C58.807166,41 58.7017504,40.967917 58.61925,40.90375 C58.5367496,40.839583 58.4771668,40.7598338 58.4405,40.6645 L57.8465,39.042 L54.552,39.042 L53.958,40.6645 C53.9286665,40.7488338 53.8709171,40.825833 53.78475,40.8955 C53.6985829,40.965167 53.5931673,41 53.4685,41 L52.319,41 L55.443,33.047 L56.9555,33.047 L60.0795,41 Z M54.9315,37.997 L57.467,37.997 L56.499,35.3515 C56.4549998,35.2341661 56.4064169,35.0957508 56.35325,34.93625 C56.3000831,34.7767492 56.2478336,34.6035009 56.1965,34.4165 C56.1451664,34.6035009 56.0947502,34.7776659 56.04525,34.939 C55.9957498,35.1003341 55.9471669,35.2414994 55.8995,35.3625 L54.9315,37.997 Z M62.3785,39.779 L65.563,39.779 L65.563,41 L60.899,41 L60.899,33.047 L62.3785,33.047 L62.3785,39.779 Z M11.85,56 L10.706,56 C10.577666,56 10.4722504,55.967917 10.38975,55.90375 C10.3072496,55.839583 10.2476669,55.7598338 10.211,55.6645 L9.617,54.042 L6.3225,54.042 L5.7285,55.6645 C5.69916652,55.7488338 5.6414171,55.825833 5.55525,55.8955 C5.4690829,55.965167 5.36366729,56 5.239,56 L4.0895,56 L7.2135,48.047 L8.726,48.047 L11.85,56 Z M6.702,52.997 L9.2375,52.997 L8.2695,50.3515 C8.22549978,50.2341661 8.17691693,50.0957508 8.12375,49.93625 C8.07058307,49.7767492 8.01833359,49.6035009 7.967,49.4165 C7.91566641,49.6035009 7.86525025,49.7776659 7.81575,49.939 C7.76624975,50.1003341 7.71766691,50.2414994 7.67,50.3625 L6.702,52.997 Z M11.8885,48.047 L13.082,48.047 C13.210334,48.047 13.3148329,48.0781664 13.3955,48.1405 C13.4761671,48.2028336 13.5366665,48.2834995 13.577,48.3825 L15.447,53.2335 C15.5093336,53.3911675 15.5689164,53.5644157 15.62575,53.75325 C15.6825836,53.9420843 15.7366664,54.140999 15.788,54.35 C15.8723338,53.9283312 15.9768327,53.5561683 16.1015,53.2335 L17.966,48.3825 C17.9990002,48.2981662 18.0576662,48.221167 18.142,48.1515 C18.2263338,48.081833 18.3308327,48.047 18.4555,48.047 L19.649,48.047 L16.437,56 L15.1005,56 L11.8885,48.047 Z M27.47,56 L26.326,56 C26.197666,56 26.0922504,55.967917 26.00975,55.90375 C25.9272496,55.839583 25.8676668,55.7598338 25.831,55.6645 L25.237,54.042 L21.9425,54.042 L21.3485,55.6645 C21.3191665,55.7488338 21.2614171,55.825833 21.17525,55.8955 C21.0890829,55.965167 20.9836673,56 20.859,56 L19.7095,56 L22.8335,48.047 L24.346,48.047 L27.47,56 Z M22.322,52.997 L24.8575,52.997 L23.8895,50.3515 C23.8454998,50.2341661 23.7969169,50.0957508 23.74375,49.93625 C23.6905831,49.7767492 23.6383336,49.6035009 23.587,49.4165 C23.5356664,49.6035009 23.4852502,49.7776659 23.43575,49.939 C23.3862498,50.1003341 23.3376669,50.2414994 23.29,50.3625 L22.322,52.997 Z M29.956,56 L28.471,56 L28.471,48.047 L29.956,48.047 L29.956,56 Z M33.223,54.779 L36.4075,54.779 L36.4075,56 L31.7435,56 L31.7435,48.047 L33.223,48.047 L33.223,54.779 Z M44.421,56 L43.277,56 C43.148666,56 43.0432504,55.967917 42.96075,55.90375 C42.8782496,55.839583 42.8186668,55.7598338 42.782,55.6645 L42.188,54.042 L38.8935,54.042 L38.2995,55.6645 C38.2701665,55.7488338 38.2124171,55.825833 38.12625,55.8955 C38.0400829,55.965167 37.9346673,56 37.81,56 L36.6605,56 L39.7845,48.047 L41.297,48.047 L44.421,56 Z M39.273,52.997 L41.8085,52.997 L40.8405,50.3515 C40.7964998,50.2341661 40.7479169,50.0957508 40.69475,49.93625 C40.6415831,49.7767492 40.5893336,49.6035009 40.538,49.4165 C40.4866664,49.6035009 40.4362502,49.7776659 40.38675,49.939 C40.3372498,50.1003341 40.2886669,50.2414994 40.241,50.3625 L39.273,52.997 Z M45.2405,56 L45.2405,48.047 L47.985,48.047 C48.5056693,48.047 48.9502482,48.0964995 49.31875,48.1955 C49.6872518,48.2945005 49.9897488,48.4356657 50.22625,48.619 C50.4627512,48.8023343 50.6359995,49.0241654 50.746,49.2845 C50.8560006,49.5448346 50.911,49.838165 50.911,50.1645 C50.911,50.3515009 50.8835003,50.5302491 50.8285,50.70075 C50.7734997,50.8712509 50.6882506,51.0307493 50.57275,51.17925 C50.4572494,51.3277507 50.3105842,51.4624994 50.13275,51.5835 C49.9549158,51.7045006 49.7431679,51.8071662 49.4975,51.8915 C50.5901721,52.1371679 51.1365,52.7274953 51.1365,53.6625 C51.1365,53.999835 51.072334,54.3114986 50.944,54.5975 C50.815666,54.8835014 50.6286679,55.1300823 50.383,55.33725 C50.1373321,55.5444177 49.8348351,55.7066661 49.4755,55.824 C49.1161649,55.9413339 48.7055023,56 48.2435,56 L45.2405,56 Z M46.72,52.513 L46.72,54.845 L48.2215,54.845 C48.4965014,54.845 48.7265824,54.8120003 48.91175,54.746 C49.0969176,54.6799997 49.2454161,54.5920005 49.35725,54.482 C49.4690839,54.3719995 49.5497498,54.2436674 49.59925,54.097 C49.6487502,53.9503326 49.6735,53.7945008 49.6735,53.6295 C49.6735,53.4571658 49.6460003,53.3022507 49.591,53.16475 C49.5359997,53.0272493 49.4498339,52.9099172 49.3325,52.81275 C49.2151661,52.7155828 49.0648343,52.6413336 48.8815,52.59 C48.6981658,52.5386664 48.4763346,52.513 48.216,52.513 L46.72,52.513 Z M46.72,51.49 L47.9025,51.49 C48.4048358,51.49 48.7861654,51.3983343 49.0465,51.215 C49.3068346,51.0316658 49.437,50.7401687 49.437,50.3405 C49.437,49.9261646 49.3196678,49.6310009 49.085,49.455 C48.8503322,49.2789991 48.4836692,49.191 47.985,49.191 L46.72,49.191 L46.72,51.49 Z M54.0735,56 L52.5885,56 L52.5885,48.047 L54.0735,48.047 L54.0735,56 Z M57.3405,54.779 L60.525,54.779 L60.525,56 L55.861,56 L55.861,48.047 L57.3405,48.047 L57.3405,54.779 Z M63.2145,56 L61.7295,56 L61.7295,48.047 L63.2145,48.047 L63.2145,56 Z M70.6065,48.047 L70.6065,49.2625 L68.214,49.2625 L68.214,56 L66.7345,56 L66.7345,49.2625 L64.331,49.2625 L64.331,48.047 L70.6065,48.047 Z M75.0835,52.909 L75.0835,56 L73.604,56 L73.604,52.909 L70.7055,48.047 L72.009,48.047 C72.137334,48.047 72.239083,48.0781664 72.31425,48.1405 C72.389417,48.2028336 72.4526664,48.2816662 72.504,48.377 L73.9615,51.0335 C74.0458338,51.1911675 74.1191664,51.3405826 74.1815,51.48175 C74.2438336,51.6229174 74.3006664,51.7613327 74.352,51.897 C74.3996669,51.757666 74.4537497,51.6174174 74.51425,51.47625 C74.5747503,51.3350826 74.6471662,51.1875008 74.7315,51.0335 L76.178,48.377 C76.2183335,48.2963329 76.2788329,48.221167 76.3595,48.1515 C76.4401671,48.081833 76.5428327,48.047 76.6675,48.047 L77.9765,48.047 L75.0835,52.909 Z" id="GENERALAVAILABILITY" fill="#003055" fill-rule="nonzero"></path>
                        </g>
                    </g>
                </g>
            </g>
        </g>
    </g>
</svg>