<svg id="Hor_-_RC" data-name="Hor - RC" xmlns="http://www.w3.org/2000/svg" xmlns:xlink="http://www.w3.org/1999/xlink" viewBox="0 0 279.97 58.2"><defs><style>.cls-1,.cls-2{fill:none;}.cls-1{clip-rule:evenodd;}.cls-3{clip-path:url(#clip-path);}.cls-4{clip-path:url(#clip-path-2);}.cls-5{fill:#d1d1d1;}.cls-6{clip-path:url(#clip-path-3);}.cls-7{clip-path:url(#clip-path-4);}.cls-8{fill:#3ab0e3;}.cls-9{clip-path:url(#clip-path-5);}.cls-10{clip-path:url(#clip-path-6);}.cls-11{fill:#47d9bf;}.cls-12{clip-path:url(#clip-path-7);}.cls-13{clip-path:url(#clip-path-8);}.cls-14,.cls-19{fill:#fff;}.cls-15{clip-path:url(#clip-path-9);}.cls-16{clip-path:url(#clip-path-10);}.cls-17{clip-path:url(#clip-path-11);}.cls-18{clip-path:url(#clip-path-12);}.cls-19{opacity:0;}.cls-20{clip-path:url(#clip-path-13);}.cls-21{clip-path:url(#clip-path-14);}.cls-22{clip-path:url(#clip-path-15);}.cls-23{clip-path:url(#clip-path-16);}.cls-24{clip-path:url(#clip-path-17);}.cls-25{clip-path:url(#clip-path-18);}.cls-26{clip-path:url(#clip-path-19);}.cls-27{clip-path:url(#clip-path-20);}.cls-28{fill:#9b9b9b;}.cls-29{fill:#24bca1;}</style><clipPath id="clip-path" transform="translate(-1.42 2.67)"><path class="cls-1" d="M188.38,15h55.49c.21,0,.38.67.38,1.5s-.17,1.5-.38,1.5H188.38c-.21,0-.38-.67-.38-1.5S188.17,15,188.38,15Z"/></clipPath><clipPath id="clip-path-2" transform="translate(-1.42 2.67)"><rect class="cls-2" x="160.77" y="-257.98" width="270.05" height="1088"/></clipPath><clipPath id="clip-path-3" transform="translate(-1.42 2.67)"><path class="cls-1" d="M29.43,15H165.07c.51,0,.93.67.93,1.5s-.42,1.5-.93,1.5H29.43c-.51,0-.93-.67-.93-1.5S28.92,15,29.43,15Z"/></clipPath><clipPath id="clip-path-4" transform="translate(-1.42 2.67)"><rect class="cls-2" x="-75.96" y="-257.98" width="1035.8" height="1088"/></clipPath><clipPath id="clip-path-5" transform="translate(-1.42 2.67)"><circle class="cls-2" cx="34.5" cy="16.52" r="10"/></clipPath><clipPath id="clip-path-6" transform="translate(-1.42 2.67)"><rect class="cls-2" x="-79.5" y="-257.48" width="1061" height="1088"/></clipPath><clipPath id="clip-path-7" transform="translate(-1.42 2.67)"><circle class="cls-2" cx="104" cy="16.52" r="10"/></clipPath><clipPath id="clip-path-8" transform="translate(-1.42 2.67)"><rect class="cls-2" x="-84" y="-257.48" width="1061" height="1088"/></clipPath><clipPath id="clip-path-9" transform="translate(-1.42 2.67)"><circle class="cls-2" cx="174" cy="16.33" r="10"/></clipPath><clipPath id="clip-path-10" transform="translate(-1.42 2.67)"><rect class="cls-2" x="-88" y="-257.67" width="1061" height="1088"/></clipPath><clipPath id="clip-path-11" transform="translate(-1.42 2.67)"><circle class="cls-2" cx="249" cy="16.33" r="14"/></clipPath><clipPath id="clip-path-12" transform="translate(-1.42 2.67)"><rect class="cls-2" x="-92" y="-257.67" width="1061" height="1088"/></clipPath><clipPath id="clip-path-13" transform="translate(-1.42 2.67)"><circle class="cls-2" cx="249" cy="16.52" r="10"/></clipPath><clipPath id="clip-path-14" transform="translate(-1.42 2.67)"><rect class="cls-2" x="-92" y="-257.48" width="1061" height="1088"/></clipPath><clipPath id="clip-path-15" transform="translate(-1.42 2.67)"><polygon class="cls-1" points="176.08 14.19 175.62 14.65 173.17 17.1 172.32 16.43 171.81 16.02 171 17.04 171.51 17.45 172.81 18.49 173.27 18.85 173.68 18.44 176.54 15.57 177 15.11 176.08 14.19"/></clipPath><clipPath id="clip-path-16" transform="translate(-1.42 2.67)"><rect class="cls-2" x="-88" y="-257.81" width="1061" height="1088"/></clipPath><clipPath id="clip-path-17" transform="translate(-1.42 2.67)"><polygon class="cls-1" points="106.08 14.33 105.62 14.79 103.17 17.25 102.32 16.57 101.81 16.16 101 17.18 101.51 17.59 102.81 18.63 103.27 18.99 103.68 18.58 106.54 15.72 107 15.26 106.08 14.33"/></clipPath><clipPath id="clip-path-18" transform="translate(-1.42 2.67)"><rect class="cls-2" x="-84" y="-257.67" width="1061" height="1088"/></clipPath><clipPath id="clip-path-19" transform="translate(-1.42 2.67)"><polygon class="cls-1" points="36.58 14.19 36.12 14.65 33.67 17.1 32.82 16.43 32.31 16.02 31.5 17.04 32.01 17.45 33.31 18.49 33.77 18.85 34.18 18.44 37.04 15.57 37.5 15.11 36.58 14.19"/></clipPath><clipPath id="clip-path-20" transform="translate(-1.42 2.67)"><rect class="cls-2" x="-80.5" y="-257.81" width="1061" height="1088"/></clipPath></defs><title>progress-horizontal-RC</title><g class="cls-3"><g class="cls-4"><rect class="cls-5" x="185.3" y="12.69" width="58.8" height="13"/></g></g><g class="cls-6"><g class="cls-7"><rect class="cls-8" x="22.19" y="12.69" width="225.51" height="13"/></g></g><g class="cls-9"><g class="cls-10"><rect class="cls-11" x="18.08" y="4.19" width="30" height="30"/></g></g><g class="cls-12"><g class="cls-13"><rect class="cls-11" x="87.58" y="4.19" width="30" height="30"/></g></g><circle class="cls-14" cx="172.58" cy="19.19" r="14"/><path class="cls-11" d="M174,31.52a15,15,0,1,1,15-15A15,15,0,0,1,174,31.52Zm0-28a13,13,0,1,0,13,13A13,13,0,0,0,174,3.52Z" transform="translate(-1.42 2.67)"/><g class="cls-15"><g class="cls-16"><rect class="cls-11" x="157.58" y="4" width="30" height="30"/></g></g><g class="cls-17"><g class="cls-18"><rect class="cls-19" x="228.58" width="38" height="38"/></g></g><g class="cls-20"><g class="cls-21"><rect class="cls-5" x="232.58" y="4.19" width="30" height="30"/></g></g><g class="cls-22"><g class="cls-23"><rect class="cls-14" x="164.58" y="11.86" width="16" height="14.66"/></g></g><g class="cls-24"><g class="cls-25"><rect class="cls-14" x="94.58" y="12" width="16" height="14.66"/></g></g><g class="cls-26"><g class="cls-27"><rect class="cls-14" x="25.08" y="11.86" width="16" height="14.66"/></g></g><path class="cls-28" d="M233.36,43.79a3,3,0,0,0,.71-.07,2.66,2.66,0,0,0,.58-.21V42.33h-.81a.29.29,0,0,1-.19-.06.26.26,0,0,1-.07-.16v-.69h2.17v2.64a4,4,0,0,1-.52.31,2.94,2.94,0,0,1-.57.22,4.17,4.17,0,0,1-.65.12,5.78,5.78,0,0,1-.75,0,3.42,3.42,0,0,1-1.3-.25,3.1,3.1,0,0,1-1-.69,3,3,0,0,1-.68-1,3.67,3.67,0,0,1-.25-1.34,3.59,3.59,0,0,1,.24-1.34,3.16,3.16,0,0,1,.68-1.06,3.07,3.07,0,0,1,1.06-.68,3.93,3.93,0,0,1,1.41-.24,3.63,3.63,0,0,1,1.38.23,3,3,0,0,1,1,.62l-.35.55a.31.31,0,0,1-.27.16.38.38,0,0,1-.22-.07l-.3-.17a1.66,1.66,0,0,0-.33-.15,2.24,2.24,0,0,0-.41-.1,2.68,2.68,0,0,0-.52,0,2.21,2.21,0,0,0-.87.16,2,2,0,0,0-.67.46,2.09,2.09,0,0,0-.42.73,2.77,2.77,0,0,0-.15.94,2.8,2.8,0,0,0,.16,1,2,2,0,0,0,.44.74,1.83,1.83,0,0,0,.67.46A2.23,2.23,0,0,0,233.36,43.79Z" transform="translate(-1.42 2.67)"/><path class="cls-28" d="M241.21,38.18v1h-2.89V41h2.28v.93h-2.28v1.84h2.89v1H237.1v-6.5Z" transform="translate(-1.42 2.67)"/><path class="cls-28" d="M243.25,38.18l.1,0a.21.21,0,0,1,.08.06l.09.1,3.42,4.35c0-.1,0-.21,0-.31s0-.19,0-.28v-4H248v6.5h-.62a.55.55,0,0,1-.24,0,.47.47,0,0,1-.19-.16l-3.4-4.34c0,.1,0,.2,0,.29s0,.18,0,.26v4h-1.07v-6.5h.77Z" transform="translate(-1.42 2.67)"/><path class="cls-28" d="M253.61,38.18v1h-2.88V41H253v.93h-2.27v1.84h2.88v1h-4.1v-6.5Z" transform="translate(-1.42 2.67)"/><path class="cls-28" d="M256.14,42.14v2.54h-1.21v-6.5h2a3.78,3.78,0,0,1,1.14.14,2,2,0,0,1,.78.38,1.61,1.61,0,0,1,.45.59,2.06,2.06,0,0,1,.14.76,1.79,1.79,0,0,1-.1.62,1.68,1.68,0,0,1-.28.53,1.81,1.81,0,0,1-.45.42,2.29,2.29,0,0,1-.61.29,1.18,1.18,0,0,1,.4.37l1.63,2.4h-1.09a.54.54,0,0,1-.27-.06.64.64,0,0,1-.19-.18l-1.36-2.08a.46.46,0,0,0-.17-.17.62.62,0,0,0-.27,0Zm0-.87h.75a1.82,1.82,0,0,0,.6-.08,1.22,1.22,0,0,0,.42-.24.88.88,0,0,0,.24-.36,1.06,1.06,0,0,0,.09-.45.92.92,0,0,0-.33-.76,1.55,1.55,0,0,0-1-.27h-.77Z" transform="translate(-1.42 2.67)"/><path class="cls-28" d="M266.73,44.68h-.94a.44.44,0,0,1-.26-.07.46.46,0,0,1-.14-.2l-.49-1.33h-2.7l-.48,1.33a.49.49,0,0,1-.14.19.38.38,0,0,1-.26.08h-.94l2.55-6.5h1.24Zm-4.22-2.45h2.08l-.79-2.17a3.24,3.24,0,0,1-.12-.34,4.17,4.17,0,0,1-.13-.42l-.12.43c0,.13-.08.24-.12.34Z" transform="translate(-1.42 2.67)"/><path class="cls-28" d="M268.83,43.69h2.61v1h-3.82v-6.5h1.21Z" transform="translate(-1.42 2.67)"/><path class="cls-28" d="M226.34,55.48h-.94a.39.39,0,0,1-.25-.07.48.48,0,0,1-.15-.2l-.49-1.33h-2.69l-.49,1.33a.41.41,0,0,1-.14.19.38.38,0,0,1-.26.08H220l2.56-6.5h1.23ZM222.13,53h2.07l-.79-2.17a3.24,3.24,0,0,1-.12-.34c0-.13-.08-.27-.13-.42l-.12.43c0,.13-.08.24-.12.34Z" transform="translate(-1.42 2.67)"/><path class="cls-28" d="M225.84,49h1a.42.42,0,0,1,.26.07.59.59,0,0,1,.15.2l1.53,4a3.62,3.62,0,0,1,.14.43c.05.15.09.31.14.48a6.25,6.25,0,0,1,.25-.91l1.53-4a.49.49,0,0,1,.14-.19.45.45,0,0,1,.26-.08h1l-2.63,6.5h-1.1Z" transform="translate(-1.42 2.67)"/><path class="cls-28" d="M238.05,55.48h-.94a.44.44,0,0,1-.26-.07.56.56,0,0,1-.14-.2l-.49-1.33h-2.69L233,55.21a.41.41,0,0,1-.14.19.38.38,0,0,1-.26.08h-.94l2.56-6.5h1.23ZM233.84,53h2.07l-.79-2.17a3.24,3.24,0,0,1-.12-.34c0-.13-.09-.27-.13-.42l-.12.43c0,.13-.08.24-.12.34Z" transform="translate(-1.42 2.67)"/><path class="cls-28" d="M240.31,55.48h-1.22V49h1.22Z" transform="translate(-1.42 2.67)"/><path class="cls-28" d="M243.21,54.49h2.6v1H242V49h1.21Z" transform="translate(-1.42 2.67)"/><path class="cls-28" d="M252.59,55.48h-.93a.42.42,0,0,1-.26-.07.48.48,0,0,1-.15-.2l-.48-1.33h-2.7l-.49,1.33a.41.41,0,0,1-.14.19.37.37,0,0,1-.26.08h-.94L248.8,49H250ZM248.38,53h2.08l-.8-2.17c0-.09-.07-.21-.12-.34l-.12-.42c0,.15-.09.29-.13.43s-.08.24-.12.34Z" transform="translate(-1.42 2.67)"/><path class="cls-28" d="M253.49,55.48V49h2.24a4.4,4.4,0,0,1,1.1.12,2,2,0,0,1,.74.35A1.37,1.37,0,0,1,258,50a1.81,1.81,0,0,1,.14.72,1.31,1.31,0,0,1-.07.44,1.06,1.06,0,0,1-.21.39,1.45,1.45,0,0,1-.36.33,2.1,2.1,0,0,1-.52.25c.9.2,1.34.69,1.34,1.45a2,2,0,0,1-.15.77,1.79,1.79,0,0,1-.46.6,2.23,2.23,0,0,1-.75.4,3.1,3.1,0,0,1-1,.14Zm1.21-3.69h1a1.6,1.6,0,0,0,.93-.22.8.8,0,0,0,.32-.72.82.82,0,0,0-.29-.72,1.52,1.52,0,0,0-.9-.22h-1Zm0,.84v1.91h1.23a1.79,1.79,0,0,0,.56-.08,1.1,1.1,0,0,0,.37-.22.77.77,0,0,0,.19-.31,1,1,0,0,0,.07-.38,1.18,1.18,0,0,0-.07-.39.83.83,0,0,0-.21-.28,1.17,1.17,0,0,0-.37-.19,2.15,2.15,0,0,0-.55-.06Z" transform="translate(-1.42 2.67)"/><path class="cls-28" d="M260.94,55.48h-1.21V49h1.21Z" transform="translate(-1.42 2.67)"/><path class="cls-28" d="M263.84,54.49h2.6v1h-3.81V49h1.21Z" transform="translate(-1.42 2.67)"/><path class="cls-28" d="M268.87,55.48h-1.22V49h1.22Z" transform="translate(-1.42 2.67)"/><path class="cls-28" d="M275.14,49v1h-1.95v5.51H272V50h-2V49Z" transform="translate(-1.42 2.67)"/><path class="cls-28" d="M279,53v2.52h-1.21V53l-2.37-4h1.07a.36.36,0,0,1,.24.07.62.62,0,0,1,.16.2l1.19,2.17c.07.13.13.25.18.37s.1.23.14.34c0-.12.09-.23.14-.35a2.84,2.84,0,0,1,.17-.36l1.19-2.17a.53.53,0,0,1,.15-.19.37.37,0,0,1,.25-.08h1.07Z" transform="translate(-1.42 2.67)"/><path class="cls-29" d="M156.34,42.23v2.43h-1.52V38.1H157a4.33,4.33,0,0,1,1.22.15,2.2,2.2,0,0,1,.81.41,1.52,1.52,0,0,1,.47.61,2.21,2.21,0,0,1,.14.78,2,2,0,0,1-.09.6,1.88,1.88,0,0,1-.66,1,2.24,2.24,0,0,1-.57.31,2.9,2.9,0,0,1,.29.19,1.27,1.27,0,0,1,.23.28l1.39,2.28h-1.37a.58.58,0,0,1-.55-.29l-1.09-1.9a.43.43,0,0,0-.17-.18.49.49,0,0,0-.27-.06Zm0-1H157a1.6,1.6,0,0,0,.53-.08.92.92,0,0,0,.36-.22.79.79,0,0,0,.2-.33,1.29,1.29,0,0,0,.07-.4.83.83,0,0,0-.29-.67,1.24,1.24,0,0,0-.87-.25h-.61Z" transform="translate(-1.42 2.67)"/><path class="cls-29" d="M165.25,38.1v1.17h-2.69V40.8h2.06v1.13h-2.06v1.56h2.69v1.17H161V38.1Z" transform="translate(-1.42 2.67)"/><path class="cls-29" d="M167.86,43.45h2.43v1.21h-3.95V38.1h1.52Z" transform="translate(-1.42 2.67)"/><path class="cls-29" d="M175.46,38.1v1.17h-2.69V40.8h2.06v1.13h-2.06v1.56h2.69v1.17h-4.22V38.1Z" transform="translate(-1.42 2.67)"/><path class="cls-29" d="M182.65,44.66h-1.18a.58.58,0,0,1-.33-.09.55.55,0,0,1-.18-.24l-.38-1.14h-2.5l-.38,1.14a.49.49,0,0,1-.18.23.47.47,0,0,1-.32.1H176l2.54-6.56h1.56Zm-4.21-2.51h1.79l-.61-1.79-.13-.4c-.06-.16-.11-.33-.16-.51q-.08.28-.15.51c-.05.16-.1.29-.14.41Z" transform="translate(-1.42 2.67)"/><path class="cls-29" d="M187.06,39.44a.76.76,0,0,1-.14.16.39.39,0,0,1-.2,0,.52.52,0,0,1-.22-.06l-.27-.15-.34-.15a1.51,1.51,0,0,0-.44-.06,1,1,0,0,0-.64.18.62.62,0,0,0-.21.49.43.43,0,0,0,.13.33,1.07,1.07,0,0,0,.33.23,3.14,3.14,0,0,0,.47.17l.53.18a4.35,4.35,0,0,1,.54.22,1.77,1.77,0,0,1,.47.34,1.41,1.41,0,0,1,.33.49,1.82,1.82,0,0,1,.13.7,2.42,2.42,0,0,1-.16.85,2.14,2.14,0,0,1-.46.69,2,2,0,0,1-.74.46,2.57,2.57,0,0,1-1,.17,3.44,3.44,0,0,1-.63-.06,3.28,3.28,0,0,1-.61-.18,4.83,4.83,0,0,1-.56-.27,2.69,2.69,0,0,1-.45-.35l.45-.71a.29.29,0,0,1,.14-.13.32.32,0,0,1,.19-.05.56.56,0,0,1,.27.08l.31.19a3,3,0,0,0,.4.19,1.44,1.44,0,0,0,.53.09,1,1,0,0,0,.65-.19.68.68,0,0,0,.22-.57.58.58,0,0,0-.12-.38,1.4,1.4,0,0,0-.33-.24,2.58,2.58,0,0,0-.47-.16l-.53-.16a3.6,3.6,0,0,1-.54-.22,1.53,1.53,0,0,1-.46-.34,1.62,1.62,0,0,1-.34-.52,2.15,2.15,0,0,1-.12-.77,1.79,1.79,0,0,1,.15-.72,2,2,0,0,1,.43-.63,2.28,2.28,0,0,1,.71-.43,2.61,2.61,0,0,1,1-.17,3.81,3.81,0,0,1,.59,0,3.05,3.05,0,0,1,.54.14,2.62,2.62,0,0,1,.48.22,2,2,0,0,1,.4.29Z" transform="translate(-1.42 2.67)"/><path class="cls-29" d="M192.73,38.1v1.17H190V40.8h2.06v1.13H190v1.56h2.69v1.17h-4.22V38.1Z" transform="translate(-1.42 2.67)"/><path class="cls-29" d="M151.86,53.76l.11,0,.1.07.6.64a2.53,2.53,0,0,1-1,.78,3.58,3.58,0,0,1-1.41.26,3.37,3.37,0,0,1-1.34-.25,3,3,0,0,1-1-.7,3,3,0,0,1-.63-1.07,3.83,3.83,0,0,1-.22-1.33,3.49,3.49,0,0,1,.25-1.35,3.21,3.21,0,0,1,.7-1.06,3,3,0,0,1,1.08-.69,3.7,3.7,0,0,1,1.39-.25,3.14,3.14,0,0,1,.7.07,2.89,2.89,0,0,1,.61.18,2.33,2.33,0,0,1,.52.27,3,3,0,0,1,.42.35l-.51.69-.12.12a.3.3,0,0,1-.18.05.29.29,0,0,1-.16,0l-.15-.08-.18-.12a1,1,0,0,0-.23-.11l-.31-.09a2.54,2.54,0,0,0-.41,0,2.06,2.06,0,0,0-.76.14,1.77,1.77,0,0,0-.59.42,1.94,1.94,0,0,0-.38.66,2.65,2.65,0,0,0-.14.87,2.79,2.79,0,0,0,.14.9,1.94,1.94,0,0,0,.37.65,1.56,1.56,0,0,0,.55.41,1.72,1.72,0,0,0,.68.14l.38,0a1.41,1.41,0,0,0,.31-.07.9.9,0,0,0,.28-.13,2.22,2.22,0,0,0,.27-.19l.12-.08A.28.28,0,0,1,151.86,53.76Z" transform="translate(-1.42 2.67)"/><path class="cls-29" d="M159.69,55.46h-1.18a.53.53,0,0,1-.32-.09.43.43,0,0,1-.18-.24L157.62,54h-2.49l-.39,1.14a.46.46,0,0,1-.17.23.49.49,0,0,1-.32.1h-1.19l2.54-6.56h1.56ZM155.48,53h1.79l-.6-1.79-.14-.4q-.08-.24-.15-.51-.07.28-.15.51c0,.16-.1.29-.15.41Z" transform="translate(-1.42 2.67)"/><path class="cls-29" d="M161.42,48.91l.12,0a.3.3,0,0,1,.1.07.65.65,0,0,1,.11.12l3.12,3.94,0-.37c0-.12,0-.23,0-.34V48.9h1.34v6.56h-.79a.9.9,0,0,1-.3-.05.82.82,0,0,1-.23-.2l-3.09-3.91c0,.12,0,.23,0,.34s0,.21,0,.31v3.51h-1.34V48.9h1Z" transform="translate(-1.42 2.67)"/><path class="cls-29" d="M173.43,52.18a3.32,3.32,0,0,1-.25,1.31,3,3,0,0,1-.69,1,3.11,3.11,0,0,1-1.07.68,3.66,3.66,0,0,1-1.39.25h-2.55V48.9H170a3.86,3.86,0,0,1,1.39.25,3.26,3.26,0,0,1,1.07.68,3.05,3.05,0,0,1,.69,1A3.32,3.32,0,0,1,173.43,52.18Zm-1.56,0a2.71,2.71,0,0,0-.13-.88,1.75,1.75,0,0,0-.36-.66,1.63,1.63,0,0,0-.58-.42,1.86,1.86,0,0,0-.77-.15h-1v4.22h1a1.86,1.86,0,0,0,.77-.15,1.42,1.42,0,0,0,.58-.42,1.75,1.75,0,0,0,.36-.66A2.67,2.67,0,0,0,171.87,52.18Z" transform="translate(-1.42 2.67)"/><path class="cls-29" d="M176.05,55.46h-1.53V48.9h1.53Z" transform="translate(-1.42 2.67)"/><path class="cls-29" d="M183.44,52.18a3.51,3.51,0,0,1-.25,1.31,3,3,0,0,1-.69,1,3.21,3.21,0,0,1-1.07.68,3.71,3.71,0,0,1-1.4.25h-2.54V48.9H180a3.92,3.92,0,0,1,1.4.25,3.37,3.37,0,0,1,1.07.68,3.05,3.05,0,0,1,.69,1A3.51,3.51,0,0,1,183.44,52.18Zm-1.56,0a2.71,2.71,0,0,0-.13-.88,1.75,1.75,0,0,0-.36-.66,1.63,1.63,0,0,0-.58-.42,1.94,1.94,0,0,0-.78-.15h-1v4.22h1a1.94,1.94,0,0,0,.78-.15,1.42,1.42,0,0,0,.58-.42,1.75,1.75,0,0,0,.36-.66A2.67,2.67,0,0,0,181.88,52.18Z" transform="translate(-1.42 2.67)"/><path class="cls-29" d="M190.22,55.46H189a.53.53,0,0,1-.32-.09.43.43,0,0,1-.18-.24L188.15,54h-2.49l-.39,1.14a.53.53,0,0,1-.17.23.51.51,0,0,1-.32.1h-1.19l2.54-6.56h1.55ZM186,53h1.79l-.6-1.79-.14-.4c-.05-.16-.1-.33-.16-.51a4.6,4.6,0,0,1-.14.51c0,.16-.1.29-.15.41Z" transform="translate(-1.42 2.67)"/><path class="cls-29" d="M195,48.9v1.21h-1.85v5.35h-1.52V50.11h-1.84V48.9Z" transform="translate(-1.42 2.67)"/><path class="cls-29" d="M200.09,48.9v1.17H197.4V51.6h2.06v1.13H197.4v1.56h2.69v1.17h-4.22V48.9Z" transform="translate(-1.42 2.67)"/><path class="cls-11" d="M93.94,44.66V38.15h2.24a4.26,4.26,0,0,1,1.09.12,2.37,2.37,0,0,1,.75.35,1.33,1.33,0,0,1,.42.55,1.81,1.81,0,0,1,.14.72,1.55,1.55,0,0,1-.07.43,1.71,1.71,0,0,1-.21.4,1.91,1.91,0,0,1-.36.33,2.28,2.28,0,0,1-.52.25c.89.2,1.34.68,1.34,1.45a1.76,1.76,0,0,1-.16.76,1.62,1.62,0,0,1-.46.61,2.28,2.28,0,0,1-.74.4,3.42,3.42,0,0,1-1,.14ZM95.15,41h1a1.63,1.63,0,0,0,.94-.23.8.8,0,0,0,.32-.71.84.84,0,0,0-.29-.72,1.45,1.45,0,0,0-.9-.22h-1Zm0,.84v1.91h1.23a1.53,1.53,0,0,0,.56-.09.9.9,0,0,0,.36-.21.72.72,0,0,0,.2-.32,1.16,1.16,0,0,0,.06-.38,1.12,1.12,0,0,0-.06-.38.77.77,0,0,0-.22-.29.94.94,0,0,0-.36-.18,2.26,2.26,0,0,0-.55-.06Z" transform="translate(-1.42 2.67)"/><path class="cls-11" d="M104.13,38.15v1h-2.89v1.8h2.28v.93h-2.28v1.84h2.89v1H100V38.15Z" transform="translate(-1.42 2.67)"/><path class="cls-11" d="M110,38.15v1h-2v5.51h-1.21V39.15h-2v-1Z" transform="translate(-1.42 2.67)"/><path class="cls-11" d="M116,44.66h-.94a.45.45,0,0,1-.26-.08.52.52,0,0,1-.14-.19l-.49-1.33h-2.69L111,44.39a.39.39,0,0,1-.14.18.39.39,0,0,1-.26.09h-.94l2.56-6.51h1.23Zm-4.21-2.46h2.07L113.11,40c0-.1-.08-.21-.12-.34s-.09-.27-.13-.43c0,.16-.08.3-.12.43s-.08.25-.12.35Z" transform="translate(-1.42 2.67)"/><path class="cls-11" d="M22.26,43.68a1.81,1.81,0,0,0,.63-.11,1.43,1.43,0,0,0,.47-.33,1.53,1.53,0,0,0,.29-.52,2,2,0,0,0,.1-.67v-3.9H25v3.9a2.87,2.87,0,0,1-.19,1.07,2.31,2.31,0,0,1-.53.85,2.47,2.47,0,0,1-.85.56,2.92,2.92,0,0,1-1.13.2,2.83,2.83,0,0,1-1.12-.2,2.29,2.29,0,0,1-.85-.56,2.33,2.33,0,0,1-.54-.85,3.08,3.08,0,0,1-.19-1.07v-3.9h1.22v3.9a2,2,0,0,0,.1.67,1.4,1.4,0,0,0,.29.52,1.29,1.29,0,0,0,.46.33A1.81,1.81,0,0,0,22.26,43.68Z" transform="translate(-1.42 2.67)"/><path class="cls-11" d="M27.19,38.16a.14.14,0,0,1,.09,0l.09.06.09.1,3.41,4.35c0-.11,0-.21,0-.31a2.72,2.72,0,0,1,0-.28v-4h1.07v6.51h-.63a.86.86,0,0,1-.24,0,.7.7,0,0,1-.18-.17l-3.4-4.33c0,.1,0,.19,0,.29v4.25H26.42V38.15h.77Z" transform="translate(-1.42 2.67)"/><path class="cls-11" d="M39.23,41.41A3.51,3.51,0,0,1,39,42.72a3.16,3.16,0,0,1-.67,1,3.05,3.05,0,0,1-1,.67,3.68,3.68,0,0,1-1.35.24H33.45V38.15h2.48a3.68,3.68,0,0,1,1.35.24,3.21,3.21,0,0,1,1,.67,3.16,3.16,0,0,1,.67,1A3.52,3.52,0,0,1,39.23,41.41Zm-1.24,0a2.85,2.85,0,0,0-.15-1,1.81,1.81,0,0,0-.41-.72,1.75,1.75,0,0,0-.64-.46,2.31,2.31,0,0,0-.86-.15H34.67V43.7h1.26a2.31,2.31,0,0,0,.86-.16,1.85,1.85,0,0,0,.64-.45,2,2,0,0,0,.41-.72A2.93,2.93,0,0,0,38,41.41Z" transform="translate(-1.42 2.67)"/><path class="cls-11" d="M44.5,38.15v1H41.62v1.8h2.27v.93H41.62v1.84H44.5v1H40.4V38.15Z" transform="translate(-1.42 2.67)"/><path class="cls-11" d="M47,42.12v2.54H45.82V38.15h2a4.12,4.12,0,0,1,1.14.14,2,2,0,0,1,.78.39,1.53,1.53,0,0,1,.45.59,2.06,2.06,0,0,1,.14.76,1.87,1.87,0,0,1-.1.62,1.83,1.83,0,0,1-.73,1,2.28,2.28,0,0,1-.61.28,1.21,1.21,0,0,1,.4.38l1.63,2.4H49.81a.54.54,0,0,1-.27-.06.8.8,0,0,1-.19-.18L48,42.33a.51.51,0,0,0-.17-.16.5.5,0,0,0-.27-.05Zm0-.87h.75a1.8,1.8,0,0,0,.6-.09,1.06,1.06,0,0,0,.42-.23.88.88,0,0,0,.24-.36,1.12,1.12,0,0,0,.08-.45.92.92,0,0,0-.32-.77,1.62,1.62,0,0,0-1-.26H47Z" transform="translate(-1.42 2.67)"/><path class="cls-11" d="M7.2,52.21A3.51,3.51,0,0,1,7,53.52a3,3,0,0,1-.67,1,3,3,0,0,1-1,.67,3.59,3.59,0,0,1-1.34.24H1.42V49H3.91a3.59,3.59,0,0,1,1.34.24,3.11,3.11,0,0,1,1,.67,3,3,0,0,1,.67,1A3.52,3.52,0,0,1,7.2,52.21ZM6,52.21a2.85,2.85,0,0,0-.14-1,1.94,1.94,0,0,0-.41-.72,1.79,1.79,0,0,0-.65-.46,2.26,2.26,0,0,0-.85-.15H2.64V54.5H3.91a2.26,2.26,0,0,0,.85-.16,1.89,1.89,0,0,0,.65-.45,2.12,2.12,0,0,0,.41-.72A2.93,2.93,0,0,0,6,52.21Z" transform="translate(-1.42 2.67)"/><path class="cls-11" d="M12.48,49v1H9.6v1.8h2.27v.93H9.6v1.84h2.88v1H8.38V49Z" transform="translate(-1.42 2.67)"/><path class="cls-11" d="M13.11,49h1a.42.42,0,0,1,.26.08.62.62,0,0,1,.15.2l1.53,4a4.13,4.13,0,0,1,.14.42c0,.16.09.32.14.49a4.75,4.75,0,0,1,.25-.91l1.53-4a.41.41,0,0,1,.14-.19.39.39,0,0,1,.26-.09h1l-2.62,6.51h-1.1Z" transform="translate(-1.42 2.67)"/><path class="cls-11" d="M24.47,49v1H21.59v1.8h2.27v.93H21.59v1.84h2.88v1h-4.1V49Z" transform="translate(-1.42 2.67)"/><path class="cls-11" d="M27,54.46h2.6v1H25.75V49H27Z" transform="translate(-1.42 2.67)"/><path class="cls-11" d="M36.51,52.21a3.6,3.6,0,0,1-.24,1.32,3.3,3.3,0,0,1-.67,1.06,3.1,3.1,0,0,1-1,.69,3.77,3.77,0,0,1-2.7,0,3.1,3.1,0,0,1-1-.69,3.14,3.14,0,0,1-.67-1.06,3.78,3.78,0,0,1,0-2.65,3,3,0,0,1,.67-1.05,3.13,3.13,0,0,1,1-.7,3.77,3.77,0,0,1,2.7,0,3.07,3.07,0,0,1,1.71,1.75A3.61,3.61,0,0,1,36.51,52.21Zm-1.25,0a2.85,2.85,0,0,0-.14-1,1.93,1.93,0,0,0-.41-.73,1.73,1.73,0,0,0-.64-.45,2.39,2.39,0,0,0-1.72,0,1.85,1.85,0,0,0-.65.45,2.07,2.07,0,0,0-.41.73,2.85,2.85,0,0,0-.14,1,2.93,2.93,0,0,0,.14,1,2.12,2.12,0,0,0,.41.72,2,2,0,0,0,.65.45,2.39,2.39,0,0,0,1.72,0,1.85,1.85,0,0,0,.64-.45,2,2,0,0,0,.41-.72A2.93,2.93,0,0,0,35.26,52.21Z" transform="translate(-1.42 2.67)"/><path class="cls-11" d="M38.94,53.17v2.29H37.72V49h2.12a3.42,3.42,0,0,1,1.13.16,2.2,2.2,0,0,1,.79.42,1.76,1.76,0,0,1,.46.66,2.28,2.28,0,0,1,.15.84,2.2,2.2,0,0,1-.16.86,1.7,1.7,0,0,1-.47.68A2.08,2.08,0,0,1,41,53a3.34,3.34,0,0,1-1.11.16Zm0-1h.9a1.66,1.66,0,0,0,.58-.08.88.88,0,0,0,.41-.24,1,1,0,0,0,.25-.38,1.48,1.48,0,0,0,.08-.49,1.36,1.36,0,0,0-.08-.47,1,1,0,0,0-.25-.37,1.06,1.06,0,0,0-.41-.22,1.66,1.66,0,0,0-.58-.08h-.9Z" transform="translate(-1.42 2.67)"/><path class="cls-11" d="M46.94,53.06c.05.1.09.21.13.31,0-.11.09-.21.13-.32s.09-.2.15-.3l1.92-3.6a.52.52,0,0,1,.08-.11.16.16,0,0,1,.08-.06l.11,0h1.05v6.51H49.52v-4.2c0-.08,0-.17,0-.26s0-.19,0-.28l-2,3.69a.45.45,0,0,1-.17.19.43.43,0,0,1-.25.07H47a.41.41,0,0,1-.25-.07.55.55,0,0,1-.18-.19l-2-3.71c0,.1,0,.2,0,.29a2.62,2.62,0,0,1,0,.27v4.2H43.53V49h1.06l.1,0,.09.06a.52.52,0,0,1,.08.11l1.94,3.61C46.85,52.86,46.9,53,46.94,53.06Z" transform="translate(-1.42 2.67)"/><path class="cls-11" d="M56.23,49v1H53.35v1.8h2.27v.93H53.35v1.84h2.88v1h-4.1V49Z" transform="translate(-1.42 2.67)"/><path class="cls-11" d="M58.28,49a.16.16,0,0,1,.09,0l.09.06.09.1L62,53.5c0-.11,0-.21,0-.31a2.72,2.72,0,0,1,0-.28V49H63v6.51h-.63a.57.57,0,0,1-.24-.05.52.52,0,0,1-.18-.16l-3.4-4.33c0,.1,0,.19,0,.28v4.26H57.51V49h.77Z" transform="translate(-1.42 2.67)"/><path class="cls-11" d="M69.12,49v1h-2v5.51H66V50H64V49Z" transform="translate(-1.42 2.67)"/></svg>