<?xml version="1.0" encoding="UTF-8"?>
<svg width="117px" height="203px" viewBox="0 0 117 203" version="1.1" xmlns="http://www.w3.org/2000/svg" xmlns:xlink="http://www.w3.org/1999/xlink">
    <!-- Generator: Sketch 54.1 (76490) - https://sketchapp.com -->
    <title>phase3</title>
    <desc>Created with Sketch.</desc>
    <g id="final" stroke="none" stroke-width="1" fill="none" fill-rule="evenodd">
        <g id="Overture/Song-accessible" transform="translate(-26.000000, -118.000000)">
            <g id="progress-bar" transform="translate(27.000000, 115.000000)">
                <g id="phase3">
                    <rect id="Path" fill="#04518C" x="13" y="14" width="3" height="60" rx="1.5"></rect>
                    <rect id="Path" fill="#04518C" x="13" y="74" width="3" height="60" rx="1.5"></rect>
                    <rect id="Path" fill="#04518C" x="13" y="134" width="3" height="54" rx="1.5"></rect>
                    <circle id="active" stroke="#FFFFFF" stroke-width="2" fill="#FFFFFF" cx="14" cy="134" r="14"></circle>
                    <circle id="Oval" stroke="#FFFFFF" fill="#40E6CF" cx="14" cy="14" r="10"></circle>
                    <circle id="Oval" stroke="#FFFFFF" fill="#40E6CF" cx="14" cy="74" r="10"></circle>
                    <circle id="Oval" stroke="#FFFFFF" fill="#40E6CF" cx="14" cy="134" r="10"></circle>
                    <circle id="Oval" stroke="#FFFFFF" fill="#40E6CF" cx="14" cy="194" r="10"></circle>
                    <polygon id="Page-1" fill="#003055" points="16.0806509 12 15.6208918 12.4597591 13.1681054 14.9125455 12.3220028 14.2372255 11.81343 13.8305755 11 14.8474607 11.5084426 15.2542408 12.8101389 16.2955979 13.2657326 16.6575996 13.676548 16.2467843 16.5404101 13.3830523 16.9999089 12.9234234"></polygon>
                    <polygon id="Page-1" fill="#003055" points="16.0806509 72 15.6208918 72.4597591 13.1681054 74.9125455 12.3220028 74.2372255 11.81343 73.8305755 11 74.8474607 11.5084426 75.2542408 12.8101389 76.2955979 13.2657326 76.6575996 13.676548 76.2467843 16.5404101 73.3830523 16.9999089 72.9234234"></polygon>
                    <polygon id="Page-1" fill="#003055" points="16.0806509 132 15.6208918 132.459759 13.1681054 134.912546 12.3220028 134.237225 11.81343 133.830576 11 134.847461 11.5084426 135.254241 12.8101389 136.295598 13.2657326 136.6576 13.676548 136.246784 16.5404101 133.383052 16.9999089 132.923423"></polygon>
                    <polygon id="Page-1" fill="#003055" points="16.0806509 192 15.6208918 192.459759 13.1681054 194.912546 12.3220028 194.237225 11.81343 193.830576 11 194.847461 11.5084426 195.254241 12.8101389 196.295598 13.2657326 196.6576 13.676548 196.246784 16.5404101 193.383052 16.9999089 192.923423"></polygon>
                    <path d="M38.455,189.911 C38.7886683,189.911 39.0792488,189.88075 39.32675,189.82025 C39.5742512,189.75975 39.8098322,189.676334 40.0335,189.57 L40.0335,188.1235 L39.038,188.1235 C38.9426662,188.1235 38.8675003,188.096917 38.8125,188.04375 C38.7574997,187.990583 38.73,187.9255 38.73,187.8485 L38.73,187.0125 L41.3755,187.0125 L41.3755,190.23 C41.1738323,190.376667 40.9639178,190.504083 40.74575,190.61225 C40.5275822,190.720417 40.2947512,190.809333 40.04725,190.879 C39.7997488,190.948667 39.5348347,191.000916 39.2525,191.03575 C38.9701653,191.070584 38.665835,191.088 38.3395,191.088 C37.7601638,191.088 37.2266691,190.987168 36.739,190.7855 C36.2513309,190.583832 35.8296684,190.303335 35.474,189.944 C35.1183316,189.584665 34.8405843,189.155669 34.64075,188.657 C34.4409157,188.158331 34.341,187.613836 34.341,187.0235 C34.341,186.42583 34.4381657,185.877669 34.6325,185.379 C34.8268343,184.880331 35.1027482,184.451335 35.46025,184.092 C35.8177518,183.732665 36.2513308,183.454001 36.761,183.256 C37.2706692,183.057999 37.8426635,182.959 38.477,182.959 C39.1260032,182.959 39.6879143,183.055249 40.16275,183.24775 C40.6375857,183.440251 41.0399983,183.690498 41.37,183.9985 L40.941,184.6695 C40.8566662,184.805167 40.744834,184.873 40.6055,184.873 C40.5174996,184.873 40.4276671,184.843667 40.336,184.785 C40.2186661,184.715333 40.0985839,184.645667 39.97575,184.576 C39.8529161,184.506333 39.7172507,184.445834 39.56875,184.3945 C39.4202493,184.343166 39.2534176,184.301 39.06825,184.268 C38.8830824,184.235 38.6695012,184.2185 38.4275,184.2185 C38.0351647,184.2185 37.6804183,184.284499 37.36325,184.4165 C37.0460817,184.548501 36.7756678,184.737332 36.552,184.983 C36.3283322,185.228668 36.1560006,185.523832 36.035,185.8685 C35.9139994,186.213168 35.8535,186.598165 35.8535,187.0235 C35.8535,187.481836 35.917666,187.889748 36.046,188.24725 C36.174334,188.604752 36.3539988,188.906332 36.585,189.152 C36.8160012,189.397668 37.0909984,189.585583 37.41,189.71575 C37.7290016,189.845917 38.0773314,189.911 38.455,189.911 Z M47.772,183.047 L47.772,184.224 L44.2465,184.224 L44.2465,186.4295 L47.024,186.4295 L47.024,187.568 L44.2465,187.568 L44.2465,189.8175 L47.772,189.8175 L47.772,191 L42.756,191 L42.756,183.047 L47.772,183.047 Z M49.829,183.047 C49.8950003,183.047 49.9499998,183.04975 49.994,183.05525 C50.0380002,183.06075 50.0774165,183.07175 50.11225,183.08825 C50.1470835,183.10475 50.1809998,183.128583 50.214,183.15975 C50.2470002,183.190917 50.2836665,183.232166 50.324,183.2835 L54.4985,188.602 C54.4838333,188.473666 54.47375,188.348084 54.46825,188.22525 C54.46275,188.102416 54.46,187.987834 54.46,187.8815 L54.46,183.047 L55.7635,183.047 L55.7635,191 L54.999,191 C54.8816661,191 54.7845004,190.981667 54.7075,190.945 C54.6304996,190.908333 54.5553337,190.842334 54.482,190.747 L50.324,185.4505 C50.3350001,185.567834 50.34325,185.684249 50.34875,185.79975 C50.35425,185.915251 50.357,186.020666 50.357,186.116 L50.357,191 L49.0535,191 L49.0535,183.047 L49.829,183.047 Z M62.3855,183.047 L62.3855,184.224 L58.86,184.224 L58.86,186.4295 L61.6375,186.4295 L61.6375,187.568 L58.86,187.568 L58.86,189.8175 L62.3855,189.8175 L62.3855,191 L57.3695,191 L57.3695,183.047 L62.3855,183.047 Z M65.196,187.8925 L65.196,191 L63.7165,191 L63.7165,183.047 L66.142,183.047 C66.6846694,183.047 67.1494147,183.102916 67.53625,183.21475 C67.9230853,183.326584 68.2402488,183.483332 68.48775,183.685 C68.7352512,183.886668 68.9167494,184.127749 69.03225,184.40825 C69.1477506,184.688751 69.2055,184.997665 69.2055,185.335 C69.2055,185.602668 69.1660837,185.855665 69.08725,186.094 C69.0084163,186.332335 68.8947507,186.548666 68.74625,186.743 C68.5977493,186.937334 68.4144178,187.107833 68.19625,187.2545 C67.9780822,187.401167 67.7296681,187.5185 67.451,187.6065 C67.6380009,187.712834 67.7993327,187.864999 67.935,188.063 L69.926,191 L68.595,191 C68.466666,191 68.3575838,190.974334 68.26775,190.923 C68.1779162,190.871666 68.1018336,190.798334 68.0395,190.703 L66.3675,188.1565 C66.3051664,188.061166 66.236417,187.993334 66.16125,187.953 C66.086083,187.912666 65.9751674,187.8925 65.8285,187.8925 L65.196,187.8925 Z M65.196,186.831 L66.12,186.831 C66.3986681,186.831 66.6415823,186.796167 66.84875,186.7265 C67.0559177,186.656833 67.226416,186.560584 67.36025,186.43775 C67.494084,186.314916 67.5939997,186.169168 67.66,186.0005 C67.7260003,185.831832 67.759,185.646668 67.759,185.445 C67.759,185.041665 67.6260847,184.731834 67.36025,184.5155 C67.0944153,184.299166 66.6883361,184.191 66.142,184.191 L65.196,184.191 L65.196,186.831 Z M77.8625,191 L76.7185,191 C76.590166,191 76.4847504,190.967917 76.40225,190.90375 C76.3197496,190.839583 76.2601668,190.759834 76.2235,190.6645 L75.6295,189.042 L72.335,189.042 L71.741,190.6645 C71.7116665,190.748834 71.6539171,190.825833 71.56775,190.8955 C71.4815829,190.965167 71.3761673,191 71.2515,191 L70.102,191 L73.226,183.047 L74.7385,183.047 L77.8625,191 Z M72.7145,187.997 L75.25,187.997 L74.282,185.3515 C74.2379998,185.234166 74.1894169,185.095751 74.13625,184.93625 C74.0830831,184.776749 74.0308336,184.603501 73.9795,184.4165 C73.9281664,184.603501 73.8777502,184.777666 73.82825,184.939 C73.7787498,185.100334 73.7301669,185.241499 73.6825,185.3625 L72.7145,187.997 Z M80.1615,189.779 L83.346,189.779 L83.346,191 L78.682,191 L78.682,183.047 L80.1615,183.047 L80.1615,189.779 Z M41.7935,206 L40.6495,206 C40.521166,206 40.4157504,205.967917 40.33325,205.90375 C40.2507496,205.839583 40.1911669,205.759834 40.1545,205.6645 L39.5605,204.042 L36.266,204.042 L35.672,205.6645 C35.6426665,205.748834 35.5849171,205.825833 35.49875,205.8955 C35.4125829,205.965167 35.3071673,206 35.1825,206 L34.033,206 L37.157,198.047 L38.6695,198.047 L41.7935,206 Z M36.6455,202.997 L39.181,202.997 L38.213,200.3515 C38.1689998,200.234166 38.1204169,200.095751 38.06725,199.93625 C38.0140831,199.776749 37.9618336,199.603501 37.9105,199.4165 C37.8591664,199.603501 37.8087502,199.777666 37.75925,199.939 C37.7097498,200.100334 37.6611669,200.241499 37.6135,200.3625 L36.6455,202.997 Z M41.832,198.047 L43.0255,198.047 C43.153834,198.047 43.2583329,198.078166 43.339,198.1405 C43.4196671,198.202834 43.4801665,198.2835 43.5205,198.3825 L45.3905,203.2335 C45.4528336,203.391167 45.5124164,203.564416 45.56925,203.75325 C45.6260836,203.942084 45.6801664,204.140999 45.7315,204.35 C45.8158338,203.928331 45.9203327,203.556168 46.045,203.2335 L47.9095,198.3825 C47.9425002,198.298166 48.0011662,198.221167 48.0855,198.1515 C48.1698338,198.081833 48.2743327,198.047 48.399,198.047 L49.5925,198.047 L46.3805,206 L45.044,206 L41.832,198.047 Z M57.4135,206 L56.2695,206 C56.141166,206 56.0357504,205.967917 55.95325,205.90375 C55.8707496,205.839583 55.8111668,205.759834 55.7745,205.6645 L55.1805,204.042 L51.886,204.042 L51.292,205.6645 C51.2626665,205.748834 51.2049171,205.825833 51.11875,205.8955 C51.0325829,205.965167 50.9271673,206 50.8025,206 L49.653,206 L52.777,198.047 L54.2895,198.047 L57.4135,206 Z M52.2655,202.997 L54.801,202.997 L53.833,200.3515 C53.7889998,200.234166 53.7404169,200.095751 53.68725,199.93625 C53.6340831,199.776749 53.5818336,199.603501 53.5305,199.4165 C53.4791664,199.603501 53.4287502,199.777666 53.37925,199.939 C53.3297498,200.100334 53.2811669,200.241499 53.2335,200.3625 L52.2655,202.997 Z M59.8995,206 L58.4145,206 L58.4145,198.047 L59.8995,198.047 L59.8995,206 Z M63.1665,204.779 L66.351,204.779 L66.351,206 L61.687,206 L61.687,198.047 L63.1665,198.047 L63.1665,204.779 Z M74.3645,206 L73.2205,206 C73.092166,206 72.9867504,205.967917 72.90425,205.90375 C72.8217496,205.839583 72.7621668,205.759834 72.7255,205.6645 L72.1315,204.042 L68.837,204.042 L68.243,205.6645 C68.2136665,205.748834 68.1559171,205.825833 68.06975,205.8955 C67.9835829,205.965167 67.8781673,206 67.7535,206 L66.604,206 L69.728,198.047 L71.2405,198.047 L74.3645,206 Z M69.2165,202.997 L71.752,202.997 L70.784,200.3515 C70.7399998,200.234166 70.6914169,200.095751 70.63825,199.93625 C70.5850831,199.776749 70.5328336,199.603501 70.4815,199.4165 C70.4301664,199.603501 70.3797502,199.777666 70.33025,199.939 C70.2807498,200.100334 70.2321669,200.241499 70.1845,200.3625 L69.2165,202.997 Z M75.184,206 L75.184,198.047 L77.9285,198.047 C78.4491693,198.047 78.8937482,198.0965 79.26225,198.1955 C79.6307518,198.2945 79.9332488,198.435666 80.16975,198.619 C80.4062512,198.802334 80.5794995,199.024165 80.6895,199.2845 C80.7995006,199.544835 80.8545,199.838165 80.8545,200.1645 C80.8545,200.351501 80.8270003,200.530249 80.772,200.70075 C80.7169997,200.871251 80.6317506,201.030749 80.51625,201.17925 C80.4007494,201.327751 80.2540842,201.462499 80.07625,201.5835 C79.8984158,201.704501 79.6866679,201.807166 79.441,201.8915 C80.5336721,202.137168 81.08,202.727495 81.08,203.6625 C81.08,203.999835 81.015834,204.311499 80.8875,204.5975 C80.759166,204.883501 80.5721679,205.130082 80.3265,205.33725 C80.0808321,205.544418 79.7783351,205.706666 79.419,205.824 C79.0596649,205.941334 78.6490023,206 78.187,206 L75.184,206 Z M76.6635,202.513 L76.6635,204.845 L78.165,204.845 C78.4400014,204.845 78.6700824,204.812 78.85525,204.746 C79.0404176,204.68 79.1889161,204.592001 79.30075,204.482 C79.4125839,204.371999 79.4932498,204.243667 79.54275,204.097 C79.5922502,203.950333 79.617,203.794501 79.617,203.6295 C79.617,203.457166 79.5895003,203.302251 79.5345,203.16475 C79.4794997,203.027249 79.3933339,202.909917 79.276,202.81275 C79.1586661,202.715583 79.0083343,202.641334 78.825,202.59 C78.6416658,202.538666 78.4198346,202.513 78.1595,202.513 L76.6635,202.513 Z M76.6635,201.49 L77.846,201.49 C78.3483358,201.49 78.7296654,201.398334 78.99,201.215 C79.2503346,201.031666 79.3805,200.740169 79.3805,200.3405 C79.3805,199.926165 79.2631678,199.631001 79.0285,199.455 C78.7938322,199.278999 78.4271692,199.191 77.9285,199.191 L76.6635,199.191 L76.6635,201.49 Z M84.017,206 L82.532,206 L82.532,198.047 L84.017,198.047 L84.017,206 Z M87.284,204.779 L90.4685,204.779 L90.4685,206 L85.8045,206 L85.8045,198.047 L87.284,198.047 L87.284,204.779 Z M93.158,206 L91.673,206 L91.673,198.047 L93.158,198.047 L93.158,206 Z M100.55,198.047 L100.55,199.2625 L98.1575,199.2625 L98.1575,206 L96.678,206 L96.678,199.2625 L94.2745,199.2625 L94.2745,198.047 L100.55,198.047 Z M105.027,202.909 L105.027,206 L103.5475,206 L103.5475,202.909 L100.649,198.047 L101.9525,198.047 C102.080834,198.047 102.182583,198.078166 102.25775,198.1405 C102.332917,198.202834 102.396166,198.281666 102.4475,198.377 L103.905,201.0335 C103.989334,201.191167 104.062666,201.340583 104.125,201.48175 C104.187334,201.622917 104.244166,201.761333 104.2955,201.897 C104.343167,201.757666 104.39725,201.617417 104.45775,201.47625 C104.51825,201.335083 104.590666,201.187501 104.675,201.0335 L106.1215,198.377 C106.161834,198.296333 106.222333,198.221167 106.303,198.1515 C106.383667,198.081833 106.486333,198.047 106.611,198.047 L107.92,198.047 L105.027,202.909 Z" id="GENERALAVAILABILITY" fill="#003055" fill-rule="nonzero"></path>
                    <path d="M36.519,131.0355 L36.519,134 L34.66,134 L34.66,125.9865 L37.267,125.9865 C37.8463362,125.9865 38.3404146,126.046083 38.74925,126.16525 C39.1580854,126.284417 39.4917487,126.450332 39.75025,126.663 C40.0087513,126.875668 40.1966661,127.126832 40.314,127.4165 C40.4313339,127.706168 40.49,128.021498 40.49,128.3625 C40.49,128.622835 40.455167,128.868499 40.3855,129.0995 C40.315833,129.330501 40.2122507,129.544082 40.07475,129.74025 C39.9372493,129.936418 39.7685843,130.111499 39.56875,130.2655 C39.3689157,130.419501 39.1388346,130.546 38.8785,130.645 C39.0031673,130.707334 39.1195828,130.784333 39.22775,130.876 C39.3359172,130.967667 39.4303329,131.079499 39.511,131.2115 L41.216,134 L39.533,134 C39.2213318,134 38.9976673,133.882668 38.862,133.648 L37.531,131.3215 C37.472333,131.218833 37.4035837,131.1455 37.32475,131.1015 C37.2459163,131.0575 37.1350007,131.0355 36.992,131.0355 L36.519,131.0355 Z M36.519,129.754 L37.267,129.754 C37.5200013,129.754 37.7354158,129.721917 37.91325,129.65775 C38.0910842,129.593583 38.2368328,129.504667 38.3505,129.391 C38.4641672,129.277333 38.5466664,129.144417 38.598,128.99225 C38.6493336,128.840083 38.675,128.676001 38.675,128.5 C38.675,128.147998 38.5604178,127.873001 38.33125,127.675 C38.1020822,127.476999 37.7473357,127.378 37.267,127.378 L36.519,127.378 L36.519,129.754 Z M47.134,125.9865 L47.134,127.4165 L43.845,127.4165 L43.845,129.2865 L46.364,129.2865 L46.364,130.6615 L43.845,130.6615 L43.845,132.57 L47.134,132.57 L47.134,134 L41.975,134 L41.975,125.9865 L47.134,125.9865 Z M50.049,132.515 L53.019,132.515 L53.019,134 L48.19,134 L48.19,125.9865 L50.049,125.9865 L50.049,132.515 Z M59.058,125.9865 L59.058,127.4165 L55.769,127.4165 L55.769,129.2865 L58.288,129.2865 L58.288,130.6615 L55.769,130.6615 L55.769,132.57 L59.058,132.57 L59.058,134 L53.899,134 L53.899,125.9865 L59.058,125.9865 Z M67.572,134 L66.131,134 C65.9696659,134 65.8367505,133.962417 65.73225,133.88725 C65.6277495,133.812083 65.5553335,133.715834 65.515,133.5985 L65.042,132.2015 L61.995,132.2015 L61.522,133.5985 C61.4853331,133.701167 61.4138339,133.79375 61.3075,133.87625 C61.2011661,133.95875 61.0710008,134 60.917,134 L59.465,134 L62.567,125.9865 L64.47,125.9865 L67.572,134 Z M62.424,130.9365 L64.613,130.9365 L63.876,128.742 C63.8283331,128.602666 63.772417,128.438584 63.70825,128.24975 C63.644083,128.060916 63.5808336,127.856501 63.5185,127.6365 C63.459833,127.860168 63.3993336,128.067332 63.337,128.258 C63.2746664,128.448668 63.2160003,128.613666 63.161,128.753 L62.424,130.9365 Z M72.687,127.6145 C72.6319997,127.7025 72.5742503,127.7685 72.51375,127.8125 C72.4532497,127.8565 72.3753338,127.8785 72.28,127.8785 C72.1956662,127.8785 72.1049172,127.851917 72.00775,127.79875 C71.9105828,127.745583 71.8005839,127.686 71.67775,127.62 C71.5549161,127.554 71.4146675,127.494417 71.257,127.44125 C71.0993325,127.388083 70.9196677,127.3615 70.718,127.3615 C70.3696649,127.3615 70.1102509,127.435749 69.93975,127.58425 C69.7692491,127.732751 69.684,127.933499 69.684,128.1865 C69.684,128.347834 69.7353328,128.481666 69.838,128.588 C69.9406672,128.694334 70.0754158,128.786 70.24225,128.863 C70.4090842,128.94 70.5997489,129.010583 70.81425,129.07475 C71.0287511,129.138917 71.2478322,129.210416 71.4715,129.28925 C71.6951678,129.368084 71.9142489,129.460666 72.12875,129.567 C72.3432511,129.673334 72.5339158,129.808999 72.70075,129.974 C72.8675842,130.139001 73.0023328,130.339749 73.105,130.57625 C73.2076672,130.812751 73.259,131.097832 73.259,131.4315 C73.259,131.801835 73.194834,132.148332 73.0665,132.471 C72.938166,132.793668 72.7520846,133.075082 72.50825,133.31525 C72.2644154,133.555418 71.9637518,133.744249 71.60625,133.88175 C71.2487482,134.019251 70.8426689,134.088 70.388,134.088 C70.1386654,134.088 69.8847513,134.062334 69.62625,134.011 C69.3677487,133.959666 69.1175012,133.88725 68.8755,133.79375 C68.6334988,133.70025 68.4061677,133.589334 68.1935,133.461 C67.9808323,133.332666 67.7956675,133.189667 67.638,133.032 L68.188,132.163 C68.2283335,132.097 68.2851663,132.043834 68.3585,132.0035 C68.4318337,131.963166 68.5106662,131.943 68.595,131.943 C68.7050005,131.943 68.8159161,131.977833 68.92775,132.0475 C69.0395839,132.117167 69.1660826,132.194166 69.30725,132.2785 C69.4484174,132.362834 69.6106657,132.439833 69.794,132.5095 C69.9773342,132.579167 70.1936654,132.614 70.443,132.614 C70.780335,132.614 71.0424991,132.539751 71.2295,132.39125 C71.4165009,132.242749 71.51,132.007168 71.51,131.6845 C71.51,131.497499 71.4586672,131.345334 71.356,131.228 C71.2533328,131.110666 71.1185842,131.0135 70.95175,130.9365 C70.7849158,130.8595 70.5951677,130.791667 70.3825,130.733 C70.1698323,130.674333 69.9516678,130.60925 69.728,130.53775 C69.5043322,130.46625 69.2861677,130.378251 69.0735,130.27375 C68.8608323,130.169249 68.6710842,130.031751 68.50425,129.86125 C68.3374158,129.690749 68.2026672,129.478085 68.1,129.22325 C67.9973328,128.968415 67.946,128.654002 67.946,128.28 C67.946,127.979332 68.0064994,127.686001 68.1275,127.4 C68.2485006,127.113999 68.4263322,126.859168 68.661,126.6355 C68.8956678,126.411832 69.1834983,126.233084 69.5245,126.09925 C69.8655017,125.965416 70.2559978,125.8985 70.696,125.8985 C70.9416679,125.8985 71.1809155,125.91775 71.41375,125.95625 C71.6465845,125.99475 71.867499,126.051583 72.0765,126.12675 C72.285501,126.201917 72.4807491,126.291749 72.66225,126.39625 C72.8437509,126.500751 73.0059993,126.618999 73.149,126.751 L72.687,127.6145 Z M79.342,125.9865 L79.342,127.4165 L76.053,127.4165 L76.053,129.2865 L78.572,129.2865 L78.572,130.6615 L76.053,130.6615 L76.053,132.57 L79.342,132.57 L79.342,134 L74.183,134 L74.183,125.9865 L79.342,125.9865 Z M40.0445,144.9265 C40.0885002,144.9265 40.1324998,144.93475 40.1765,144.95125 C40.2205002,144.96775 40.2626665,144.996166 40.303,145.0365 L41.04,145.812 C40.7173317,146.233669 40.3130858,146.551749 39.82725,146.76625 C39.3414142,146.980751 38.76667,147.088 38.103,147.088 C37.4943303,147.088 36.9489191,146.984418 36.46675,146.77725 C35.9845809,146.570082 35.5757517,146.284085 35.24025,145.91925 C34.9047483,145.554415 34.6471676,145.121753 34.4675,144.62125 C34.2878324,144.120747 34.198,143.57717 34.198,142.9905 C34.198,142.39283 34.3006656,141.843753 34.506,141.34325 C34.7113344,140.842747 34.9982482,140.411002 35.36675,140.048 C35.7352518,139.684998 36.1761641,139.402668 36.6895,139.201 C37.2028359,138.999332 37.7693302,138.8985 38.389,138.8985 C38.6896682,138.8985 38.9729153,138.925083 39.23875,138.97825 C39.5045847,139.031417 39.7529988,139.10475 39.984,139.19825 C40.2150012,139.29175 40.4276657,139.403583 40.622,139.53375 C40.8163343,139.663917 40.9886659,139.807833 41.139,139.9655 L40.512,140.807 C40.4716665,140.858334 40.4240003,140.905083 40.369,140.94725 C40.3139997,140.989417 40.2370005,141.0105 40.138,141.0105 C40.0719997,141.0105 40.009667,140.995833 39.951,140.9665 C39.892333,140.937167 39.8300003,140.901417 39.764,140.85925 C39.6979997,140.817083 39.6255837,140.77125 39.54675,140.72175 C39.4679163,140.67225 39.3744172,140.626417 39.26625,140.58425 C39.1580828,140.542083 39.0315841,140.506333 38.88675,140.477 C38.7419159,140.447667 38.5723343,140.433 38.378,140.433 C38.040665,140.433 37.7326681,140.492583 37.454,140.61175 C37.1753319,140.730917 36.9360843,140.901416 36.73625,141.12325 C36.5364157,141.345084 36.3805839,141.613665 36.26875,141.929 C36.1569161,142.244335 36.101,142.598165 36.101,142.9905 C36.101,143.401169 36.1569161,143.765998 36.26875,144.085 C36.3805839,144.404002 36.532749,144.672582 36.72525,144.89075 C36.917751,145.108918 37.1423321,145.274833 37.399,145.3885 C37.655668,145.502167 37.9306652,145.559 38.224,145.559 C38.3926675,145.559 38.546666,145.55075 38.686,145.53425 C38.825334,145.51775 38.9545827,145.489334 39.07375,145.449 C39.1929173,145.408666 39.3065828,145.356417 39.41475,145.29225 C39.5229172,145.228083 39.6319995,145.148334 39.742,145.053 C39.7860002,145.016333 39.8336664,144.986083 39.885,144.96225 C39.9363336,144.938417 39.9894997,144.9265 40.0445,144.9265 Z M49.345,147 L47.904,147 C47.7426659,147 47.6097505,146.962417 47.50525,146.88725 C47.4007495,146.812083 47.3283335,146.715834 47.288,146.5985 L46.815,145.2015 L43.768,145.2015 L43.295,146.5985 C43.2583331,146.701167 43.1868339,146.79375 43.0805,146.87625 C42.9741661,146.95875 42.8440008,147 42.69,147 L41.238,147 L44.34,138.9865 L46.243,138.9865 L49.345,147 Z M44.197,143.9365 L46.386,143.9365 L45.649,141.742 C45.6013331,141.602666 45.545417,141.438584 45.48125,141.24975 C45.417083,141.060916 45.3538336,140.856501 45.2915,140.6365 C45.232833,140.860168 45.1723336,141.067332 45.11,141.258 C45.0476664,141.448668 44.9890003,141.613666 44.934,141.753 L44.197,143.9365 Z M50.973,138.9865 C51.0536671,138.9865 51.1214997,138.990167 51.1765,138.9975 C51.2315003,139.004833 51.2809998,139.018583 51.325,139.03875 C51.3690002,139.058917 51.4111665,139.087333 51.4515,139.124 C51.4918335,139.160667 51.5376664,139.210166 51.589,139.2725 L55.395,144.085 C55.3803333,143.930999 55.3693334,143.781584 55.362,143.63675 C55.3546666,143.491916 55.351,143.355334 55.351,143.227 L55.351,138.9865 L56.99,138.9865 L56.99,147 L56.022,147 C55.8789993,147 55.7580005,146.978 55.659,146.934 C55.5599995,146.89 55.4646671,146.809334 55.373,146.692 L51.5945,141.918 C51.6055001,142.057334 51.6146666,142.193916 51.622,142.32775 C51.6293334,142.461584 51.633,142.587166 51.633,142.7045 L51.633,147 L49.994,147 L49.994,138.9865 L50.973,138.9865 Z M65.581,142.9905 C65.581,143.569836 65.4810843,144.104248 65.28125,144.59375 C65.0814157,145.083252 64.8000018,145.506748 64.437,145.86425 C64.0739982,146.221752 63.6367526,146.500416 63.12525,146.70025 C62.6137474,146.900084 62.0463364,147 61.423,147 L58.31,147 L58.31,138.9865 L61.423,138.9865 C62.0463364,138.9865 62.6137474,139.087332 63.12525,139.289 C63.6367526,139.490668 64.0739982,139.769332 64.437,140.125 C64.8000018,140.480668 65.0814157,140.903248 65.28125,141.39275 C65.4810843,141.882252 65.581,142.41483 65.581,142.9905 Z M63.678,142.9905 C63.678,142.594498 63.6266672,142.237002 63.524,141.918 C63.4213328,141.598998 63.273751,141.328584 63.08125,141.10675 C62.888749,140.884916 62.6531681,140.714417 62.3745,140.59525 C62.0958319,140.476083 61.7786684,140.4165 61.423,140.4165 L60.18,140.4165 L60.18,145.57 L61.423,145.57 C61.7786684,145.57 62.0958319,145.510417 62.3745,145.39125 C62.6531681,145.272083 62.888749,145.101584 63.08125,144.87975 C63.273751,144.657916 63.4213328,144.387502 63.524,144.0685 C63.6266672,143.749498 63.678,143.390169 63.678,142.9905 Z M68.507,147 L66.637,147 L66.637,138.9865 L68.507,138.9865 L68.507,147 Z M77.263,142.9905 C77.263,143.569836 77.1630843,144.104248 76.96325,144.59375 C76.7634157,145.083252 76.4820018,145.506748 76.119,145.86425 C75.7559982,146.221752 75.3187526,146.500416 74.80725,146.70025 C74.2957474,146.900084 73.7283364,147 73.105,147 L69.992,147 L69.992,138.9865 L73.105,138.9865 C73.7283364,138.9865 74.2957474,139.087332 74.80725,139.289 C75.3187526,139.490668 75.7559982,139.769332 76.119,140.125 C76.4820018,140.480668 76.7634157,140.903248 76.96325,141.39275 C77.1630843,141.882252 77.263,142.41483 77.263,142.9905 Z M75.36,142.9905 C75.36,142.594498 75.3086672,142.237002 75.206,141.918 C75.1033328,141.598998 74.955751,141.328584 74.76325,141.10675 C74.570749,140.884916 74.3351681,140.714417 74.0565,140.59525 C73.7778319,140.476083 73.4606684,140.4165 73.105,140.4165 L71.862,140.4165 L71.862,145.57 L73.105,145.57 C73.4606684,145.57 73.7778319,145.510417 74.0565,145.39125 C74.3351681,145.272083 74.570749,145.101584 74.76325,144.87975 C74.955751,144.657916 75.1033328,144.387502 75.206,144.0685 C75.3086672,143.749498 75.36,143.390169 75.36,142.9905 Z M85.612,147 L84.171,147 C84.0096659,147 83.8767505,146.962417 83.77225,146.88725 C83.6677495,146.812083 83.5953335,146.715834 83.555,146.5985 L83.082,145.2015 L80.035,145.2015 L79.562,146.5985 C79.5253331,146.701167 79.4538339,146.79375 79.3475,146.87625 C79.2411661,146.95875 79.1110008,147 78.957,147 L77.505,147 L80.607,138.9865 L82.51,138.9865 L85.612,147 Z M80.464,143.9365 L82.653,143.9365 L81.916,141.742 C81.8683331,141.602666 81.812417,141.438584 81.74825,141.24975 C81.684083,141.060916 81.6208336,140.856501 81.5585,140.6365 C81.499833,140.860168 81.4393336,141.067332 81.377,141.258 C81.3146664,141.448668 81.2560003,141.613666 81.201,141.753 L80.464,143.9365 Z M92.08,138.9865 L92.08,140.4605 L89.825,140.4605 L89.825,147 L87.966,147 L87.966,140.4605 L85.711,140.4605 L85.711,138.9865 L92.08,138.9865 Z M98.009,138.9865 L98.009,140.4165 L94.72,140.4165 L94.72,142.2865 L97.239,142.2865 L97.239,143.6615 L94.72,143.6615 L94.72,145.57 L98.009,145.57 L98.009,147 L92.85,147 L92.85,138.9865 L98.009,138.9865 Z" id="RELEASECANDIDATE" fill="#003055" fill-rule="nonzero"></path>
                    <path d="M38.004,10.8065 C38.2900014,10.8065 38.5457489,10.7588338 38.77125,10.6635 C38.9967511,10.5681662 39.1874159,10.4343342 39.34325,10.262 C39.4990841,10.0896658 39.6182496,9.8806679 39.70075,9.635 C39.7832504,9.38933211 39.8245,9.11433486 39.8245,8.81 L39.8245,4.047 L41.304,4.047 L41.304,8.81 C41.304,9.28300237 41.2279174,9.72024799 41.07575,10.12175 C40.9235826,10.523252 40.7045014,10.8697485 40.4185,11.16125 C40.1324986,11.4527515 39.786002,11.6800825 39.379,11.84325 C38.971998,12.0064175 38.5136692,12.088 38.004,12.088 C37.4943308,12.088 37.036002,12.0064175 36.629,11.84325 C36.221998,11.6800825 35.8764181,11.4527515 35.59225,11.16125 C35.3080819,10.8697485 35.0899174,10.523252 34.93775,10.12175 C34.7855826,9.72024799 34.7095,9.28300237 34.7095,8.81 L34.7095,4.047 L36.189,4.047 L36.189,8.8045 C36.189,9.10883485 36.2302496,9.38383211 36.31275,9.6295 C36.3952504,9.87516789 36.5134992,10.0850825 36.6675,10.25925 C36.8215008,10.4334175 37.0112489,10.5681662 37.23675,10.6635 C37.4622511,10.7588338 37.7179986,10.8065 38.004,10.8065 Z M43.5865,4.047 C43.6525003,4.047 43.7074998,4.04974997 43.7515,4.05525 C43.7955002,4.06075003 43.8349165,4.07174992 43.86975,4.08825 C43.9045835,4.10475008 43.9384998,4.12858318 43.9715,4.15975 C44.0045002,4.19091682 44.0411665,4.23216641 44.0815,4.2835 L48.256,9.602 C48.2413333,9.47366602 48.23125,9.34808395 48.22575,9.22525 C48.22025,9.10241605 48.2175,8.98783386 48.2175,8.8815 L48.2175,4.047 L49.521,4.047 L49.521,12 L48.7565,12 C48.6391661,12 48.5420004,11.9816668 48.465,11.945 C48.3879996,11.9083332 48.3128337,11.8423338 48.2395,11.747 L44.0815,6.4505 C44.0925001,6.56783392 44.10075,6.68424942 44.10625,6.79975 C44.11175,6.91525058 44.1145,7.02066619 44.1145,7.116 L44.1145,12 L42.811,12 L42.811,4.047 L43.5865,4.047 Z M58.189,8.0235 C58.189,8.60650292 58.0918343,9.1418309 57.8975,9.6295 C57.7031657,10.1171691 57.4300018,10.5369982 57.078,10.889 C56.7259982,11.2410018 56.3025025,11.5141657 55.8075,11.7085 C55.3124975,11.9028343 54.7643363,12 54.163,12 L51.127,12 L51.127,4.047 L54.163,4.047 C54.7643363,4.047 55.3124975,4.14508235 55.8075,4.34125 C56.3025025,4.53741765 56.7259982,4.81058158 57.078,5.16075 C57.4300018,5.51091842 57.7031657,5.9298309 57.8975,6.4175 C58.0918343,6.9051691 58.189,7.44049708 58.189,8.0235 Z M56.6765,8.0235 C56.6765,7.58716449 56.6178339,7.19575173 56.5005,6.84925 C56.3831661,6.50274827 56.2163344,6.20941787 56,5.96925 C55.7836656,5.72908213 55.5205849,5.54483398 55.21075,5.4165 C54.9009151,5.28816603 54.5516686,5.224 54.163,5.224 L52.6175,5.224 L52.6175,10.823 L54.163,10.823 C54.5516686,10.823 54.9009151,10.758834 55.21075,10.6305 C55.5205849,10.502166 55.7836656,10.3179179 56,10.07775 C56.2163344,9.83758213 56.3831661,9.54425173 56.5005,9.19775 C56.6178339,8.85124827 56.6765,8.45983551 56.6765,8.0235 Z M64.3655,4.047 L64.3655,5.224 L60.84,5.224 L60.84,7.4295 L63.6175,7.4295 L63.6175,8.568 L60.84,8.568 L60.84,10.8175 L64.3655,10.8175 L64.3655,12 L59.3495,12 L59.3495,4.047 L64.3655,4.047 Z M67.176,8.8925 L67.176,12 L65.6965,12 L65.6965,4.047 L68.122,4.047 C68.6646694,4.047 69.1294147,4.10291611 69.51625,4.21475 C69.9030853,4.32658389 70.2202488,4.48333232 70.46775,4.685 C70.7152512,4.88666767 70.8967494,5.1277486 71.01225,5.40825 C71.1277506,5.6887514 71.1855,5.99766498 71.1855,6.335 C71.1855,6.602668 71.1460837,6.85566548 71.06725,7.094 C70.9884163,7.33233453 70.8747507,7.5486657 70.72625,7.743 C70.5777493,7.93733431 70.3944178,8.1078326 70.17625,8.2545 C69.9580822,8.4011674 69.7096681,8.51849956 69.431,8.6065 C69.6180009,8.71283386 69.7793327,8.86499901 69.915,9.063 L71.906,12 L70.575,12 C70.446666,12 70.3375838,11.9743336 70.24775,11.923 C70.1579162,11.8716664 70.0818336,11.7983338 70.0195,11.703 L68.3475,9.1565 C68.2851664,9.06116619 68.216417,8.99333354 68.14125,8.953 C68.066083,8.91266647 67.9551674,8.8925 67.8085,8.8925 L67.176,8.8925 Z M67.176,7.831 L68.1,7.831 C68.3786681,7.831 68.6215823,7.79616702 68.82875,7.7265 C69.0359177,7.65683299 69.206416,7.56058395 69.34025,7.43775 C69.474084,7.31491605 69.5739997,7.16916751 69.64,7.0005 C69.7060003,6.83183249 69.739,6.64666768 69.739,6.445 C69.739,6.04166465 69.6060847,5.73183442 69.34025,5.5155 C69.0744153,5.29916559 68.6683361,5.191 68.122,5.191 L67.176,5.191 L67.176,7.831 Z M41.865,23.0235 C41.865,23.6065029 41.7678343,24.1418309 41.5735,24.6295 C41.3791657,25.1171691 41.1060018,25.5369982 40.754,25.889 C40.4019982,26.2410018 39.9785025,26.5141657 39.4835,26.7085 C38.9884975,26.9028343 38.4403363,27 37.839,27 L34.803,27 L34.803,19.047 L37.839,19.047 C38.4403363,19.047 38.9884975,19.1450824 39.4835,19.34125 C39.9785025,19.5374176 40.4019982,19.8105816 40.754,20.16075 C41.1060018,20.5109184 41.3791657,20.9298309 41.5735,21.4175 C41.7678343,21.9051691 41.865,22.4404971 41.865,23.0235 Z M40.3525,23.0235 C40.3525,22.5871645 40.2938339,22.1957517 40.1765,21.84925 C40.0591661,21.5027483 39.8923344,21.2094179 39.676,20.96925 C39.4596656,20.7290821 39.1965849,20.544834 38.88675,20.4165 C38.5769151,20.288166 38.2276686,20.224 37.839,20.224 L36.2935,20.224 L36.2935,25.823 L37.839,25.823 C38.2276686,25.823 38.5769151,25.758834 38.88675,25.6305 C39.1965849,25.502166 39.4596656,25.3179179 39.676,25.07775 C39.8923344,24.8375821 40.0591661,24.5442517 40.1765,24.19775 C40.2938339,23.8512483 40.3525,23.4598355 40.3525,23.0235 Z M48.0415,19.047 L48.0415,20.224 L44.516,20.224 L44.516,22.4295 L47.2935,22.4295 L47.2935,23.568 L44.516,23.568 L44.516,25.8175 L48.0415,25.8175 L48.0415,27 L43.0255,27 L43.0255,19.047 L48.0415,19.047 Z M48.542,19.047 L49.7355,19.047 C49.863834,19.047 49.9683329,19.0781664 50.049,19.1405 C50.1296671,19.2028336 50.1901665,19.2834995 50.2305,19.3825 L52.1005,24.2335 C52.1628336,24.3911675 52.2224164,24.5644157 52.27925,24.75325 C52.3360836,24.9420843 52.3901664,25.140999 52.4415,25.35 C52.5258338,24.9283312 52.6303327,24.5561683 52.755,24.2335 L54.6195,19.3825 C54.6525002,19.2981662 54.7111662,19.221167 54.7955,19.1515 C54.8798338,19.081833 54.9843327,19.047 55.109,19.047 L56.3025,19.047 L53.0905,27 L51.754,27 L48.542,19.047 Z M62.149,19.047 L62.149,20.224 L58.6235,20.224 L58.6235,22.4295 L61.401,22.4295 L61.401,23.568 L58.6235,23.568 L58.6235,25.8175 L62.149,25.8175 L62.149,27 L57.133,27 L57.133,19.047 L62.149,19.047 Z M64.91,25.779 L68.0945,25.779 L68.0945,27 L63.4305,27 L63.4305,19.047 L64.91,19.047 L64.91,25.779 Z M76.746,23.0235 C76.746,23.6065029 76.6488343,24.1464142 76.4545,24.64325 C76.2601657,25.1400858 75.9870018,25.5699982 75.635,25.933 C75.2829982,26.2960018 74.8595025,26.579249 74.3645,26.78275 C73.8694975,26.986251 73.3213363,27.088 72.72,27.088 C72.1186637,27.088 71.5695858,26.986251 71.07275,26.78275 C70.5759142,26.579249 70.1505851,26.2960018 69.79675,25.933 C69.4429149,25.5699982 69.1688343,25.1400858 68.9745,24.64325 C68.7801657,24.1464142 68.683,23.6065029 68.683,23.0235 C68.683,22.4404971 68.7801657,21.9005858 68.9745,21.40375 C69.1688343,20.9069142 69.4429149,20.4770018 69.79675,20.114 C70.1505851,19.7509982 70.5759142,19.467751 71.07275,19.26425 C71.5695858,19.060749 72.1186637,18.959 72.72,18.959 C73.3213363,18.959 73.8694975,19.0616656 74.3645,19.267 C74.8595025,19.4723344 75.2829982,19.7555815 75.635,20.11675 C75.9870018,20.4779185 76.2601657,20.9069142 76.4545,21.40375 C76.6488343,21.9005858 76.746,22.4404971 76.746,23.0235 Z M75.228,23.0235 C75.228,22.5871645 75.1702506,22.1957517 75.05475,21.84925 C74.9392494,21.5027483 74.7733344,21.2085012 74.557,20.9665 C74.3406656,20.7244988 74.0775849,20.539334 73.76775,20.411 C73.4579151,20.282666 73.1086686,20.2185 72.72,20.2185 C72.3313314,20.2185 71.9811682,20.282666 71.6695,20.411 C71.3578318,20.539334 71.0929178,20.7244988 70.87475,20.9665 C70.6565822,21.2085012 70.4888339,21.5027483 70.3715,21.84925 C70.2541661,22.1957517 70.1955,22.5871645 70.1955,23.0235 C70.1955,23.4598355 70.2541661,23.8512483 70.3715,24.19775 C70.4888339,24.5442517 70.6565822,24.8375821 70.87475,25.07775 C71.0929178,25.3179179 71.3578318,25.502166 71.6695,25.6305 C71.9811682,25.758834 72.3313314,25.823 72.72,25.823 C73.1086686,25.823 73.4579151,25.758834 73.76775,25.6305 C74.0775849,25.502166 74.3406656,25.3179179 74.557,25.07775 C74.7733344,24.8375821 74.9392494,24.5442517 75.05475,24.19775 C75.1702506,23.8512483 75.228,23.4598355 75.228,23.0235 Z M79.441,24.2005 L79.441,27 L77.9615,27 L77.9615,19.047 L80.552,19.047 C81.0836693,19.047 81.5438314,19.1093327 81.9325,19.234 C82.3211686,19.3586673 82.6419987,19.5328322 82.895,19.7565 C83.1480013,19.9801678 83.3349994,20.2478318 83.456,20.5595 C83.5770006,20.8711682 83.6375,21.2121648 83.6375,21.5825 C83.6375,21.9675019 83.573334,22.3204151 83.445,22.64125 C83.316666,22.9620849 83.1241679,23.2379988 82.8675,23.469 C82.610832,23.7000012 82.2900019,23.879666 81.905,24.008 C81.5199981,24.136334 81.0690026,24.2005 80.552,24.2005 L79.441,24.2005 Z M79.441,23.0455 L80.552,23.0455 C80.8233347,23.0455 81.0598323,23.0115837 81.2615,22.94375 C81.4631677,22.8759163 81.6299993,22.7787506 81.762,22.65225 C81.8940007,22.5257494 81.9929997,22.3717509 82.059,22.19025 C82.1250003,22.0087491 82.158,21.8061678 82.158,21.5825 C82.158,21.3698323 82.1250003,21.1773342 82.059,21.005 C81.9929997,20.8326658 81.8940007,20.6860006 81.762,20.565 C81.6299993,20.4439994 81.4631677,20.351417 81.2615,20.28725 C81.0598323,20.223083 80.8233347,20.191 80.552,20.191 L79.441,20.191 L79.441,23.0455 Z M88.78,23.7 C88.8423336,23.8173339 88.9000831,23.9392494 88.95325,24.06575 C89.0064169,24.1922506 89.0586664,24.319666 89.11,24.448 C89.1613336,24.3159993 89.2144997,24.185834 89.2695,24.0575 C89.3245003,23.929166 89.3831664,23.8063339 89.4455,23.689 L91.7995,19.2835 C91.8288335,19.2284997 91.8590832,19.1845002 91.89025,19.1515 C91.9214168,19.1184998 91.9562498,19.0946667 91.99475,19.08 C92.0332502,19.0653333 92.0763331,19.0561667 92.124,19.0525 C92.1716669,19.0488333 92.2284997,19.047 92.2945,19.047 L93.411,19.047 L93.411,27 L92.1075,27 L92.1075,21.863 C92.1075,21.7676662 92.11025,21.6631672 92.11575,21.5495 C92.12125,21.4358328 92.1294999,21.3203339 92.1405,21.203 L89.737,25.713 C89.6819997,25.8156672 89.6105004,25.8954164 89.5225,25.95225 C89.4344996,26.0090836 89.3318339,26.0375 89.2145,26.0375 L89.011,26.0375 C88.8936661,26.0375 88.7910004,26.0090836 88.703,25.95225 C88.6149996,25.8954164 88.5435003,25.8156672 88.4885,25.713 L86.052,21.1865 C86.0666667,21.3075006 86.07675,21.4257494 86.08225,21.54125 C86.08775,21.6567506 86.0905,21.7639995 86.0905,21.863 L86.0905,27 L84.787,27 L84.787,19.047 L85.9035,19.047 C85.9695003,19.047 86.0263331,19.0488333 86.074,19.0525 C86.1216669,19.0561667 86.1647498,19.0653333 86.20325,19.08 C86.2417502,19.0946667 86.2774998,19.1184998 86.3105,19.1515 C86.3435002,19.1845002 86.3746665,19.2284997 86.404,19.2835 L88.78,23.7 Z M100.033,19.047 L100.033,20.224 L96.5075,20.224 L96.5075,22.4295 L99.285,22.4295 L99.285,23.568 L96.5075,23.568 L96.5075,25.8175 L100.033,25.8175 L100.033,27 L95.017,27 L95.017,19.047 L100.033,19.047 Z M102.09,19.047 C102.156,19.047 102.211,19.04975 102.255,19.05525 C102.299,19.06075 102.338416,19.0717499 102.37325,19.08825 C102.408084,19.1047501 102.442,19.1285832 102.475,19.15975 C102.508,19.1909168 102.544666,19.2321664 102.585,19.2835 L106.7595,24.602 C106.744833,24.473666 106.73475,24.3480839 106.72925,24.22525 C106.72375,24.1024161 106.721,23.9878339 106.721,23.8815 L106.721,19.047 L108.0245,19.047 L108.0245,27 L107.26,27 C107.142666,27 107.0455,26.9816668 106.9685,26.945 C106.8915,26.9083331 106.816334,26.8423338 106.743,26.747 L102.585,21.4505 C102.596,21.5678339 102.60425,21.6842494 102.60975,21.79975 C102.61525,21.9152506 102.618,22.0206662 102.618,22.116 L102.618,27 L101.3145,27 L101.3145,19.047 L102.09,19.047 Z M115.235,19.047 L115.235,20.2625 L112.8425,20.2625 L112.8425,27 L111.363,27 L111.363,20.2625 L108.9595,20.2625 L108.9595,19.047 L115.235,19.047 Z" id="UNDERDEVELOPMENT" fill="#003055" fill-rule="nonzero"></path>
                    <path d="M34.803,79 L34.803,71.047 L37.5475,71.047 C38.0681693,71.047 38.5127482,71.0964995 38.88125,71.1955 C39.2497518,71.2945005 39.5522488,71.4356657 39.78875,71.619 C40.0252512,71.8023343 40.1984994,72.0241654 40.3085,72.2845 C40.4185005,72.5448346 40.4735,72.838165 40.4735,73.1645 C40.4735,73.3515009 40.4460003,73.5302491 40.391,73.70075 C40.3359997,73.8712509 40.2507506,74.0307493 40.13525,74.17925 C40.0197494,74.3277507 39.8730842,74.4624994 39.69525,74.5835 C39.5174158,74.7045006 39.3056679,74.8071662 39.06,74.8915 C40.1526721,75.1371679 40.699,75.7274953 40.699,76.6625 C40.699,76.999835 40.634834,77.3114986 40.5065,77.5975 C40.378166,77.8835014 40.1911679,78.1300823 39.9455,78.33725 C39.6998321,78.5444177 39.3973351,78.7066661 39.038,78.824 C38.6786649,78.9413339 38.2680023,79 37.806,79 L34.803,79 Z M36.2825,75.513 L36.2825,77.845 L37.784,77.845 C38.0590014,77.845 38.2890824,77.8120003 38.47425,77.746 C38.6594176,77.6799997 38.8079161,77.5920005 38.91975,77.482 C39.0315839,77.3719995 39.1122498,77.2436674 39.16175,77.097 C39.2112502,76.9503326 39.236,76.7945008 39.236,76.6295 C39.236,76.4571658 39.2085003,76.3022507 39.1535,76.16475 C39.0984997,76.0272493 39.0123339,75.9099172 38.895,75.81275 C38.7776661,75.7155828 38.6273342,75.6413336 38.444,75.59 C38.2606658,75.5386664 38.0388346,75.513 37.7785,75.513 L36.2825,75.513 Z M36.2825,74.49 L37.465,74.49 C37.9673358,74.49 38.3486654,74.3983343 38.609,74.215 C38.8693346,74.0316658 38.9995,73.7401687 38.9995,73.3405 C38.9995,72.9261646 38.8821678,72.6310009 38.6475,72.455 C38.4128322,72.2789991 38.0461692,72.191 37.5475,72.191 L36.2825,72.191 L36.2825,74.49 Z M46.9855,71.047 L46.9855,72.224 L43.46,72.224 L43.46,74.4295 L46.2375,74.4295 L46.2375,75.568 L43.46,75.568 L43.46,77.8175 L46.9855,77.8175 L46.9855,79 L41.9695,79 L41.9695,71.047 L46.9855,71.047 Z M53.8715,71.047 L53.8715,72.2625 L51.479,72.2625 L51.479,79 L49.9995,79 L49.9995,72.2625 L47.596,72.2625 L47.596,71.047 L53.8715,71.047 Z M61.8025,79 L60.6585,79 C60.530166,79 60.4247504,78.967917 60.34225,78.90375 C60.2597496,78.839583 60.2001669,78.7598338 60.1635,78.6645 L59.5695,77.042 L56.275,77.042 L55.681,78.6645 C55.6516665,78.7488338 55.5939171,78.825833 55.50775,78.8955 C55.4215829,78.965167 55.3161673,79 55.1915,79 L54.042,79 L57.166,71.047 L58.6785,71.047 L61.8025,79 Z M56.6545,75.997 L59.19,75.997 L58.222,73.3515 C58.1779998,73.2341661 58.1294169,73.0957508 58.07625,72.93625 C58.0230831,72.7767492 57.9708336,72.6035009 57.9195,72.4165 C57.8681664,72.6035009 57.8177502,72.7776659 57.76825,72.939 C57.7187498,73.1003341 57.6701669,73.2414994 57.6225,73.3625 L56.6545,75.997 Z" id="BETA" fill="#003055" fill-rule="nonzero"></path>
                </g>
            </g>
        </g>
    </g>
</svg>