<?xml version="1.0" encoding="UTF-8"?>
<svg width="328px" height="62px" viewBox="0 0 328 62" version="1.1" xmlns="http://www.w3.org/2000/svg" xmlns:xlink="http://www.w3.org/1999/xlink">
    <!-- Generator: Sketch 54.1 (76490) - https://sketchapp.com -->
    <title>phase1</title>
    <desc>Created with Sketch.</desc>
    <g id="final" stroke="none" stroke-width="1" fill="none" fill-rule="evenodd">
        <g id="Overture/Song-accessible" transform="translate(-31.000000, -114.000000)">
            <g id="progress-bar-horizontal" transform="translate(21.000000, 115.000000)">
                <g id="phases">
                    <g id="phase1">
                        <rect id="Path" fill="#04518C" x="51" y="13" width="252" height="3" rx="1.5"></rect>
                        <g id="1">
                            <circle id="active" stroke="#FFFFFF" stroke-width="2" fill="#FFFFFF" cx="51" cy="14" r="14"></circle>
                            <circle id="Oval" stroke="#FFFFFF" fill="#40E6CF" cx="51" cy="14" r="10"></circle>
                            <polygon id="Page-1" fill="#003055" points="53.0806509 12 52.6208918 12.4597591 50.1681054 14.9125455 49.3220028 14.2372255 48.81343 13.8305755 48 14.8474607 48.5084426 15.2542408 49.8101389 16.2955979 50.2657326 16.6575996 50.676548 16.2467843 53.5404101 13.3830523 53.9999089 12.9234234"></polygon>
                            <path d="M35.996,43.5315 C36.2453346,43.5315 36.4680824,43.4902504 36.66425,43.40775 C36.8604176,43.3252496 37.0263327,43.2070008 37.162,43.053 C37.2976673,42.8989992 37.4012496,42.7110844 37.47275,42.48925 C37.5442504,42.2674156 37.58,42.0153347 37.58,41.733 L37.58,36.9865 L39.439,36.9865 L39.439,41.733 C39.439,42.2243358 39.3592508,42.6753313 39.19975,43.086 C39.0402492,43.4966687 38.8120015,43.8504985 38.515,44.1475 C38.2179985,44.4445015 37.8568355,44.6754992 37.4315,44.8405 C37.0061645,45.0055008 36.5276693,45.088 35.996,45.088 C35.460664,45.088 34.9803355,45.0055008 34.555,44.8405 C34.1296645,44.6754992 33.7685015,44.4445015 33.4715,44.1475 C33.1744985,43.8504985 32.9471675,43.4966687 32.7895,43.086 C32.6318325,42.6753313 32.553,42.2243358 32.553,41.733 L32.553,36.9865 L34.412,36.9865 L34.412,41.7275 C34.412,42.0098347 34.4477496,42.2619156 34.51925,42.48375 C34.5907504,42.7055844 34.6943327,42.8944159 34.83,43.05025 C34.9656673,43.2060841 35.1315824,43.3252496 35.32775,43.40775 C35.5239176,43.4902504 35.7466654,43.5315 35.996,43.5315 Z M41.628,36.9865 C41.7086671,36.9865 41.7764997,36.9901666 41.8315,36.9975 C41.8865003,37.0048334 41.9359998,37.0185832 41.98,37.03875 C42.0240002,37.0589168 42.0661665,37.0873332 42.1065,37.124 C42.1468335,37.1606668 42.1926664,37.2101664 42.244,37.2725 L46.05,42.085 C46.0353333,41.9309992 46.0243334,41.7815841 46.017,41.63675 C46.0096666,41.4919159 46.006,41.355334 46.006,41.227 L46.006,36.9865 L47.645,36.9865 L47.645,45 L46.677,45 C46.5339993,45 46.4130005,44.9780002 46.314,44.934 C46.2149995,44.8899998 46.1196671,44.8093339 46.028,44.692 L42.2495,39.918 C42.2605001,40.057334 42.2696666,40.193916 42.277,40.32775 C42.2843334,40.461584 42.288,40.5871661 42.288,40.7045 L42.288,45 L40.649,45 L40.649,36.9865 L41.628,36.9865 Z M56.236,40.9905 C56.236,41.5698362 56.1360843,42.1042476 55.93625,42.59375 C55.7364157,43.0832524 55.4550018,43.5067482 55.092,43.86425 C54.7289982,44.2217518 54.2917526,44.5004157 53.78025,44.70025 C53.2687474,44.9000843 52.7013364,45 52.078,45 L48.965,45 L48.965,36.9865 L52.078,36.9865 C52.7013364,36.9865 53.2687474,37.0873323 53.78025,37.289 C54.2917526,37.4906677 54.7289982,37.7693316 55.092,38.125 C55.4550018,38.4806684 55.7364157,38.9032476 55.93625,39.39275 C56.1360843,39.8822524 56.236,40.4148305 56.236,40.9905 Z M54.333,40.9905 C54.333,40.594498 54.2816672,40.2370016 54.179,39.918 C54.0763328,39.5989984 53.928751,39.3285844 53.73625,39.10675 C53.543749,38.8849156 53.3081681,38.7144173 53.0295,38.59525 C52.7508319,38.4760827 52.4336684,38.4165 52.078,38.4165 L50.835,38.4165 L50.835,43.57 L52.078,43.57 C52.4336684,43.57 52.7508319,43.5104173 53.0295,43.39125 C53.3081681,43.2720827 53.543749,43.1015844 53.73625,42.87975 C53.928751,42.6579156 54.0763328,42.3875016 54.179,42.0685 C54.2816672,41.7494984 54.333,41.3901687 54.333,40.9905 Z M62.286,36.9865 L62.286,38.4165 L58.997,38.4165 L58.997,40.2865 L61.516,40.2865 L61.516,41.6615 L58.997,41.6615 L58.997,43.57 L62.286,43.57 L62.286,45 L57.127,45 L57.127,36.9865 L62.286,36.9865 Z M65.201,42.0355 L65.201,45 L63.342,45 L63.342,36.9865 L65.949,36.9865 C66.5283362,36.9865 67.0224146,37.0460827 67.43125,37.16525 C67.8400854,37.2844173 68.1737487,37.4503323 68.43225,37.663 C68.6907513,37.8756677 68.8786661,38.1268319 68.996,38.4165 C69.1133339,38.7061681 69.172,39.0214983 69.172,39.3625 C69.172,39.6228346 69.137167,39.8684988 69.0675,40.0995 C68.997833,40.3305012 68.8942507,40.5440824 68.75675,40.74025 C68.6192493,40.9364176 68.4505843,41.1114992 68.25075,41.2655 C68.0509157,41.4195008 67.8208346,41.5459995 67.5605,41.645 C67.6851673,41.7073336 67.8015828,41.7843329 67.90975,41.876 C68.0179172,41.9676671 68.1123329,42.0794993 68.193,42.2115 L69.898,45 L68.215,45 C67.9033318,45 67.6796673,44.8826678 67.544,44.648 L66.213,42.3215 C66.154333,42.2188328 66.0855837,42.1455002 66.00675,42.1015 C65.9279163,42.0574998 65.8170007,42.0355 65.674,42.0355 L65.201,42.0355 Z M65.201,40.754 L65.949,40.754 C66.2020013,40.754 66.4174158,40.721917 66.59525,40.65775 C66.7730842,40.593583 66.9188328,40.5046672 67.0325,40.391 C67.1461672,40.2773328 67.2286664,40.1444174 67.28,39.99225 C67.3313336,39.8400826 67.357,39.6760009 67.357,39.5 C67.357,39.1479982 67.2424178,38.873001 67.01325,38.675 C66.7840822,38.476999 66.4293357,38.378 65.949,38.378 L65.201,38.378 L65.201,40.754 Z M18.0935,55.9905 C18.0935,56.5698362 17.9935843,57.1042476 17.79375,57.59375 C17.5939157,58.0832524 17.3125018,58.5067482 16.9495,58.86425 C16.5864982,59.2217518 16.1492526,59.5004157 15.63775,59.70025 C15.1262474,59.9000843 14.5588364,60 13.9355,60 L10.8225,60 L10.8225,51.9865 L13.9355,51.9865 C14.5588364,51.9865 15.1262474,52.0873323 15.63775,52.289 C16.1492526,52.4906677 16.5864982,52.7693316 16.9495,53.125 C17.3125018,53.4806684 17.5939157,53.9032476 17.79375,54.39275 C17.9935843,54.8822524 18.0935,55.4148305 18.0935,55.9905 Z M16.1905,55.9905 C16.1905,55.594498 16.1391672,55.2370016 16.0365,54.918 C15.9338328,54.5989984 15.786251,54.3285844 15.59375,54.10675 C15.401249,53.8849156 15.1656681,53.7144173 14.887,53.59525 C14.6083319,53.4760827 14.2911684,53.4165 13.9355,53.4165 L12.6925,53.4165 L12.6925,58.57 L13.9355,58.57 C14.2911684,58.57 14.6083319,58.5104173 14.887,58.39125 C15.1656681,58.2720827 15.401249,58.1015844 15.59375,57.87975 C15.786251,57.6579156 15.9338328,57.3875016 16.0365,57.0685 C16.1391672,56.7494984 16.1905,56.3901687 16.1905,55.9905 Z M24.1435,51.9865 L24.1435,53.4165 L20.8545,53.4165 L20.8545,55.2865 L23.3735,55.2865 L23.3735,56.6615 L20.8545,56.6615 L20.8545,58.57 L24.1435,58.57 L24.1435,60 L18.9845,60 L18.9845,51.9865 L24.1435,51.9865 Z M24.5395,51.9865 L26.0355,51.9865 C26.1968341,51.9865 26.3288328,52.0231663 26.4315,52.0965 C26.5341672,52.1698337 26.6074998,52.2669994 26.6515,52.388 L28.2025,56.678 C28.272167,56.8650009 28.3427496,57.0684989 28.41425,57.2885 C28.4857504,57.5085011 28.5526664,57.7394988 28.615,57.9815 C28.6663336,57.7394988 28.7259163,57.5085011 28.79375,57.2885 C28.8615837,57.0684989 28.9284997,56.8650009 28.9945,56.678 L30.5345,52.388 C30.5711669,52.2853328 30.6426661,52.1927504 30.749,52.11025 C30.8553339,52.0277496 30.9854992,51.9865 31.1395,51.9865 L32.6465,51.9865 L29.4345,60 L27.7515,60 L24.5395,51.9865 Z M38.4655,51.9865 L38.4655,53.4165 L35.1765,53.4165 L35.1765,55.2865 L37.6955,55.2865 L37.6955,56.6615 L35.1765,56.6615 L35.1765,58.57 L38.4655,58.57 L38.4655,60 L33.3065,60 L33.3065,51.9865 L38.4655,51.9865 Z M41.3805,58.515 L44.3505,58.515 L44.3505,60 L39.5215,60 L39.5215,51.9865 L41.3805,51.9865 L41.3805,58.515 Z M53.1395,55.9905 C53.1395,56.5698362 53.0395843,57.1088308 52.83975,57.6075 C52.6399157,58.1061692 52.3585018,58.5397482 51.9955,58.90825 C51.6324982,59.2767518 51.1952526,59.565499 50.68375,59.7745 C50.1722474,59.983501 49.6048365,60.088 48.9815,60.088 C48.3581636,60.088 47.7898359,59.983501 47.2765,59.7745 C46.7631641,59.565499 46.3240852,59.2767518 45.95925,58.90825 C45.5944148,58.5397482 45.3120843,58.1061692 45.11225,57.6075 C44.9124157,57.1088308 44.8125,56.5698362 44.8125,55.9905 C44.8125,55.4111638 44.9124157,54.8721692 45.11225,54.3735 C45.3120843,53.8748308 45.5944148,53.4421685 45.95925,53.0755 C46.3240852,52.7088315 46.7631641,52.421001 47.2765,52.212 C47.7898359,52.002999 48.3581636,51.8985 48.9815,51.8985 C49.6048365,51.8985 50.1722474,52.0039156 50.68375,52.21475 C51.1952526,52.4255844 51.6324982,52.7143315 51.9955,53.081 C52.3585018,53.4476685 52.6399157,53.8803308 52.83975,54.379 C53.0395843,54.8776692 53.1395,55.4148305 53.1395,55.9905 Z M51.2365,55.9905 C51.2365,55.594498 51.1851672,55.2379183 51.0825,54.92075 C50.9798328,54.6035817 50.832251,54.3350011 50.63975,54.115 C50.447249,53.8949989 50.2116681,53.7263339 49.933,53.609 C49.6543319,53.4916661 49.3371684,53.433 48.9815,53.433 C48.6221649,53.433 48.3022514,53.4916661 48.02175,53.609 C47.7412486,53.7263339 47.504751,53.8949989 47.31225,54.115 C47.119749,54.3350011 46.9721672,54.6035817 46.8695,54.92075 C46.7668328,55.2379183 46.7155,55.594498 46.7155,55.9905 C46.7155,56.3901687 46.7668328,56.7485817 46.8695,57.06575 C46.9721672,57.3829183 47.119749,57.6514989 47.31225,57.8715 C47.504751,58.0915011 47.7412486,58.2592494 48.02175,58.37475 C48.3022514,58.4902506 48.6221649,58.548 48.9815,58.548 C49.3371684,58.548 49.6543319,58.4902506 49.933,58.37475 C50.2116681,58.2592494 50.447249,58.0915011 50.63975,57.8715 C50.832251,57.6514989 50.9798328,57.3829183 51.0825,57.06575 C51.1851672,56.7485817 51.2365,56.3901687 51.2365,55.9905 Z M55.8895,57.3215 L55.8895,60 L54.0305,60 L54.0305,51.9865 L56.8575,51.9865 C57.4221695,51.9865 57.9070813,52.053416 58.31225,52.18725 C58.7174187,52.321084 59.051082,52.5053322 59.31325,52.74 C59.575418,52.9746678 59.7688327,53.2514984 59.8935,53.5705 C60.0181673,53.8895016 60.0805,54.2341648 60.0805,54.6045 C60.0805,55.0041687 60.016334,55.3708317 59.888,55.7045 C59.759666,56.0381683 59.5635013,56.3241655 59.2995,56.5625 C59.0354987,56.8008345 58.7009187,56.986916 58.29575,57.12075 C57.8905813,57.254584 57.4111694,57.3215 56.8575,57.3215 L55.8895,57.3215 Z M55.8895,55.919 L56.8575,55.919 C57.3415024,55.919 57.6898323,55.8035012 57.9025,55.5725 C58.1151677,55.3414988 58.2215,55.0188354 58.2215,54.6045 C58.2215,54.4211658 58.1940003,54.2543341 58.139,54.104 C58.0839997,53.9536659 58.0005839,53.8244172 57.88875,53.71625 C57.7769161,53.6080828 57.6357509,53.524667 57.46525,53.466 C57.2947491,53.407333 57.0921678,53.378 56.8575,53.378 L55.8895,53.378 L55.8895,55.919 Z M65.146,56.337 C65.2193337,56.476334 65.2899163,56.6211659 65.35775,56.7715 C65.4255837,56.9218341 65.4906664,57.0758325 65.553,57.2335 C65.6153336,57.0721659 65.681333,56.9154174 65.751,56.76325 C65.820667,56.6110826 65.8921663,56.4635007 65.9655,56.3205 L68.0225,52.2725 C68.0591668,52.202833 68.0967498,52.1487502 68.13525,52.11025 C68.1737502,52.0717498 68.2168331,52.0433334 68.2645,52.025 C68.3121669,52.0066666 68.3662497,51.9956667 68.42675,51.992 C68.4872503,51.9883333 68.5578329,51.9865 68.6385,51.9865 L70.0575,51.9865 L70.0575,60 L68.4185,60 L68.4185,55.391 C68.4185,55.1673322 68.4294999,54.9253346 68.4515,54.665 L66.3285,58.7845 C66.2624997,58.912834 66.1735839,59.0099997 66.06175,59.076 C65.9499161,59.1420003 65.8225007,59.175 65.6795,59.175 L65.4265,59.175 C65.2834993,59.175 65.1560839,59.1420003 65.04425,59.076 C64.9324161,59.0099997 64.8435003,58.912834 64.7775,58.7845 L62.6435,54.6595 C62.6581667,54.787834 62.6691666,54.9152494 62.6765,55.04175 C62.6838334,55.1682506 62.6875,55.2846661 62.6875,55.391 L62.6875,60 L61.0485,60 L61.0485,51.9865 L62.4675,51.9865 C62.5481671,51.9865 62.6187497,51.9883333 62.67925,51.992 C62.7397503,51.9956667 62.7938331,52.0066666 62.8415,52.025 C62.8891669,52.0433334 62.9322498,52.0717498 62.97075,52.11025 C63.0092502,52.1487502 63.0468332,52.202833 63.0835,52.2725 L65.146,56.337 Z M76.5365,51.9865 L76.5365,53.4165 L73.2475,53.4165 L73.2475,55.2865 L75.7665,55.2865 L75.7665,56.6615 L73.2475,56.6615 L73.2475,58.57 L76.5365,58.57 L76.5365,60 L71.3775,60 L71.3775,51.9865 L76.5365,51.9865 Z M78.5715,51.9865 C78.6521671,51.9865 78.7199997,51.9901666 78.775,51.9975 C78.8300003,52.0048334 78.8794998,52.0185832 78.9235,52.03875 C78.9675002,52.0589168 79.0096665,52.0873332 79.05,52.124 C79.0903335,52.1606669 79.1361664,52.2101664 79.1875,52.2725 L82.9935,57.085 C82.9788333,56.9309992 82.9678334,56.7815841 82.9605,56.63675 C82.9531666,56.4919159 82.9495,56.355334 82.9495,56.227 L82.9495,51.9865 L84.5885,51.9865 L84.5885,60 L83.6205,60 C83.4774993,60 83.3565005,59.9780002 83.2575,59.934 C83.1584995,59.8899998 83.0631671,59.8093339 82.9715,59.692 L79.193,54.918 C79.2040001,55.057334 79.2131666,55.193916 79.2205,55.32775 C79.2278334,55.461584 79.2315,55.5871661 79.2315,55.7045 L79.2315,60 L77.5925,60 L77.5925,51.9865 L78.5715,51.9865 Z M91.7275,51.9865 L91.7275,53.4605 L89.4725,53.4605 L89.4725,60 L87.6135,60 L87.6135,53.4605 L85.3585,53.4605 L85.3585,51.9865 L91.7275,51.9865 Z" id="UNDERDEVELOPMENT" fill="#003055" fill-rule="nonzero"></path>
                        </g>
                        <g id="2" transform="translate(86.000000, 4.000000)">
                            <circle id="Oval" stroke="#FFFFFF" fill="#40E6CF" cx="51" cy="10" r="10"></circle>
                            <polygon id="Page-1" fill="#003055" points="53.0806509 8 52.6208918 8.45975914 50.1681054 10.9125455 49.3220028 10.2372255 48.81343 9.83057555 48 10.8474607 48.5084426 11.2542408 49.8101389 12.2955979 50.2657326 12.6575996 50.676548 12.2467843 53.5404101 9.38305235 53.9999089 8.92342337"></polygon>
                            <path d="M37.8935,40 L37.8935,32.047 L40.638,32.047 C41.1586693,32.047 41.6032482,32.0964995 41.97175,32.1955 C42.3402518,32.2945005 42.6427488,32.4356657 42.87925,32.619 C43.1157512,32.8023343 43.2889994,33.0241654 43.399,33.2845 C43.5090005,33.5448346 43.564,33.838165 43.564,34.1645 C43.564,34.3515009 43.5365003,34.5302491 43.4815,34.70075 C43.4264997,34.8712509 43.3412506,35.0307493 43.22575,35.17925 C43.1102494,35.3277507 42.9635842,35.4624994 42.78575,35.5835 C42.6079158,35.7045006 42.3961679,35.8071662 42.1505,35.8915 C43.2431721,36.1371679 43.7895,36.7274953 43.7895,37.6625 C43.7895,37.999835 43.725334,38.3114986 43.597,38.5975 C43.468666,38.8835014 43.2816679,39.1300823 43.036,39.33725 C42.7903321,39.5444177 42.4878351,39.7066661 42.1285,39.824 C41.7691649,39.9413339 41.3585023,40 40.8965,40 L37.8935,40 Z M39.373,36.513 L39.373,38.845 L40.8745,38.845 C41.1495014,38.845 41.3795824,38.8120003 41.56475,38.746 C41.7499176,38.6799997 41.8984161,38.5920005 42.01025,38.482 C42.1220839,38.3719995 42.2027498,38.2436674 42.25225,38.097 C42.3017502,37.9503326 42.3265,37.7945008 42.3265,37.6295 C42.3265,37.4571658 42.2990003,37.3022507 42.244,37.16475 C42.1889997,37.0272493 42.1028339,36.9099172 41.9855,36.81275 C41.8681661,36.7155828 41.7178343,36.6413336 41.5345,36.59 C41.3511657,36.5386664 41.1293346,36.513 40.869,36.513 L39.373,36.513 Z M39.373,35.49 L40.5555,35.49 C41.0578358,35.49 41.4391654,35.3983343 41.6995,35.215 C41.9598346,35.0316658 42.09,34.7401687 42.09,34.3405 C42.09,33.9261646 41.9726678,33.6310009 41.738,33.455 C41.5033322,33.2789991 41.1366692,33.191 40.638,33.191 L39.373,33.191 L39.373,35.49 Z M50.076,32.047 L50.076,33.224 L46.5505,33.224 L46.5505,35.4295 L49.328,35.4295 L49.328,36.568 L46.5505,36.568 L46.5505,38.8175 L50.076,38.8175 L50.076,40 L45.06,40 L45.06,32.047 L50.076,32.047 Z M56.962,32.047 L56.962,33.2625 L54.5695,33.2625 L54.5695,40 L53.09,40 L53.09,33.2625 L50.6865,33.2625 L50.6865,32.047 L56.962,32.047 Z M64.893,40 L63.749,40 C63.620666,40 63.5152504,39.967917 63.43275,39.90375 C63.3502496,39.839583 63.2906668,39.7598338 63.254,39.6645 L62.66,38.042 L59.3655,38.042 L58.7715,39.6645 C58.7421665,39.7488338 58.6844171,39.825833 58.59825,39.8955 C58.5120829,39.965167 58.4066673,40 58.282,40 L57.1325,40 L60.2565,32.047 L61.769,32.047 L64.893,40 Z M59.745,36.997 L62.2805,36.997 L61.3125,34.3515 C61.2684998,34.2341661 61.2199169,34.0957508 61.16675,33.93625 C61.1135831,33.7767492 61.0613336,33.6035009 61.01,33.4165 C60.9586664,33.6035009 60.9082502,33.7776659 60.85875,33.939 C60.8092498,34.1003341 60.7606669,34.2414994 60.713,34.3625 L59.745,36.997 Z" id="BETA" fill="#003055" fill-rule="nonzero"></path>
                        </g>
                        <g id="3" transform="translate(174.000000, 4.000000)">
                            <circle id="Oval" stroke="#FFFFFF" fill="#40E6CF" cx="41" cy="10" r="10"></circle>
                            <polygon id="Page-1" fill="#003055" points="43.0806509 8 42.6208918 8.45975914 40.1681054 10.9125455 39.3220028 10.2372255 38.81343 9.83057555 38 10.8474607 38.5084426 11.2542408 39.8101389 12.2955979 40.2657326 12.6575996 40.676548 12.2467843 43.5404101 9.38305235 43.9999089 8.92342337"></polygon>
                            <path d="M20.584,37.8925 L20.584,41 L19.1045,41 L19.1045,33.047 L21.53,33.047 C22.0726694,33.047 22.5374147,33.1029161 22.92425,33.21475 C23.3110853,33.3265839 23.6282488,33.4833323 23.87575,33.685 C24.1232512,33.8866677 24.3047494,34.1277486 24.42025,34.40825 C24.5357506,34.6887514 24.5935,34.997665 24.5935,35.335 C24.5935,35.602668 24.5540837,35.8556655 24.47525,36.094 C24.3964163,36.3323345 24.2827507,36.5486657 24.13425,36.743 C23.9857493,36.9373343 23.8024178,37.1078326 23.58425,37.2545 C23.3660822,37.4011674 23.1176681,37.5184996 22.839,37.6065 C23.0260009,37.7128339 23.1873327,37.864999 23.323,38.063 L25.314,41 L23.983,41 C23.854666,41 23.7455838,40.9743336 23.65575,40.923 C23.5659162,40.8716664 23.4898336,40.7983338 23.4275,40.703 L21.7555,38.1565 C21.6931664,38.0611662 21.624417,37.9933335 21.54925,37.953 C21.474083,37.9126665 21.3631674,37.8925 21.2165,37.8925 L20.584,37.8925 Z M20.584,36.831 L21.508,36.831 C21.7866681,36.831 22.0295823,36.796167 22.23675,36.7265 C22.4439177,36.656833 22.614416,36.5605839 22.74825,36.43775 C22.882084,36.3149161 22.9819997,36.1691675 23.048,36.0005 C23.1140003,35.8318325 23.147,35.6466677 23.147,35.445 C23.147,35.0416647 23.0140847,34.7318344 22.74825,34.5155 C22.4824153,34.2991656 22.0763361,34.191 21.53,34.191 L20.584,34.191 L20.584,36.831 Z M31.276,33.047 L31.276,34.224 L27.7505,34.224 L27.7505,36.4295 L30.528,36.4295 L30.528,37.568 L27.7505,37.568 L27.7505,39.8175 L31.276,39.8175 L31.276,41 L26.26,41 L26.26,33.047 L31.276,33.047 Z M34.037,39.779 L37.2215,39.779 L37.2215,41 L32.5575,41 L32.5575,33.047 L34.037,33.047 L34.037,39.779 Z M43.2605,33.047 L43.2605,34.224 L39.735,34.224 L39.735,36.4295 L42.5125,36.4295 L42.5125,37.568 L39.735,37.568 L39.735,39.8175 L43.2605,39.8175 L43.2605,41 L38.2445,41 L38.2445,33.047 L43.2605,33.047 Z M51.5325,41 L50.3885,41 C50.260166,41 50.1547504,40.967917 50.07225,40.90375 C49.9897496,40.839583 49.9301668,40.7598338 49.8935,40.6645 L49.2995,39.042 L46.005,39.042 L45.411,40.6645 C45.3816665,40.7488338 45.3239171,40.825833 45.23775,40.8955 C45.1515829,40.965167 45.0461673,41 44.9215,41 L43.772,41 L46.896,33.047 L48.4085,33.047 L51.5325,41 Z M46.3845,37.997 L48.92,37.997 L47.952,35.3515 C47.9079998,35.2341661 47.8594169,35.0957508 47.80625,34.93625 C47.7530831,34.7767492 47.7008336,34.6035009 47.6495,34.4165 C47.5981664,34.6035009 47.5477502,34.7776659 47.49825,34.939 C47.4487498,35.1003341 47.4001669,35.2414994 47.3525,35.3625 L46.3845,37.997 Z M56.6145,34.4935 C56.5741665,34.5741671 56.5274169,34.6309998 56.47425,34.664 C56.4210831,34.6970002 56.3578337,34.7135 56.2845,34.7135 C56.2111663,34.7135 56.1286671,34.6850836 56.037,34.62825 C55.9453329,34.5714164 55.8371673,34.508167 55.7125,34.4385 C55.5878327,34.368833 55.4420842,34.3055836 55.27525,34.24875 C55.1084158,34.1919164 54.9113345,34.1635 54.684,34.1635 C54.4786656,34.1635 54.2999174,34.1882498 54.14775,34.23775 C53.9955826,34.2872502 53.8672505,34.3559996 53.76275,34.444 C53.6582495,34.5320004 53.5803336,34.6374161 53.529,34.76025 C53.4776664,34.8830839 53.452,35.0178326 53.452,35.1645 C53.452,35.3515009 53.5042495,35.5073327 53.60875,35.632 C53.7132505,35.7566673 53.8516658,35.8629996 54.024,35.951 C54.1963342,36.0390004 54.3924989,36.117833 54.6125,36.1875 C54.8325011,36.257167 55.0570822,36.3314163 55.28625,36.41025 C55.5154178,36.4890837 55.7399989,36.5807495 55.96,36.68525 C56.1800011,36.7897505 56.3761658,36.9217492 56.5485,37.08125 C56.7208342,37.2407508 56.8592495,37.4359988 56.96375,37.667 C57.0682505,37.8980012 57.1205,38.1784983 57.1205,38.5085 C57.1205,38.8678351 57.0590839,39.2042484 56.93625,39.51775 C56.8134161,39.8312516 56.6337512,40.1044155 56.39725,40.33725 C56.1607488,40.5700845 55.8720017,40.753416 55.531,40.88725 C55.1899983,41.021084 54.7995022,41.088 54.3595,41.088 C54.1064987,41.088 53.8571679,41.0632502 53.6115,41.01375 C53.3658321,40.9642498 53.1302511,40.8936671 52.90475,40.802 C52.6792489,40.7103329 52.4684176,40.600334 52.27225,40.472 C52.0760824,40.343666 51.9010008,40.2006675 51.747,40.043 L52.176,39.3335 C52.2163335,39.2821664 52.2649164,39.2390835 52.32175,39.20425 C52.3785836,39.1694165 52.441833,39.152 52.5115,39.152 C52.6031671,39.152 52.7021661,39.189583 52.8085,39.26475 C52.9148339,39.339917 53.0404159,39.4233329 53.18525,39.515 C53.3300841,39.6066671 53.5005824,39.690083 53.69675,39.76525 C53.8929176,39.840417 54.1284986,39.878 54.4035,39.878 C54.8251688,39.878 55.1514988,39.7780843 55.3825,39.57825 C55.6135012,39.3784157 55.729,39.0915019 55.729,38.7175 C55.729,38.508499 55.6767505,38.3380007 55.57225,38.206 C55.4677495,38.0739993 55.3293342,37.9630838 55.157,37.87325 C54.9846658,37.7834162 54.7885011,37.7073336 54.5685,37.645 C54.3484989,37.5826664 54.1248345,37.5148337 53.8975,37.4415 C53.6701655,37.3681663 53.4465011,37.2801672 53.2265,37.1775 C53.0064989,37.0748328 52.8103342,36.9410008 52.638,36.776 C52.4656658,36.6109992 52.3272505,36.4047512 52.22275,36.15725 C52.1182495,35.9097488 52.066,35.6045018 52.066,35.2415 C52.066,34.9518319 52.1237494,34.6695014 52.23925,34.3945 C52.3547506,34.1194986 52.5234156,33.8756677 52.74525,33.663 C52.9670844,33.4503323 53.2393317,33.279834 53.562,33.1515 C53.8846683,33.023166 54.2531646,32.959 54.6675,32.959 C55.1368357,32.959 55.569498,33.0323326 55.9655,33.179 C56.361502,33.3256674 56.6988319,33.5309987 56.9775,33.795 L56.6145,34.4935 Z M63.2695,33.047 L63.2695,34.224 L59.744,34.224 L59.744,36.4295 L62.5215,36.4295 L62.5215,37.568 L59.744,37.568 L59.744,39.8175 L63.2695,39.8175 L63.2695,41 L58.2535,41 L58.2535,33.047 L63.2695,33.047 Z M15.2435,54.1245 C15.3241671,54.1245 15.393833,54.1556664 15.4525,54.218 L16.0355,54.8505 C15.7128317,55.2501687 15.315919,55.5563323 14.84475,55.769 C14.373581,55.9816677 13.8080033,56.088 13.148,56.088 C12.5576637,56.088 12.026919,55.9871677 11.55575,55.7855 C11.084581,55.5838323 10.6821683,55.3033351 10.3485,54.944 C10.0148317,54.5846649 9.75908422,54.1556692 9.58125,53.657 C9.40341578,53.1583308 9.3145,52.6138363 9.3145,52.0235 C9.3145,51.4258303 9.41349901,50.8785858 9.6115,50.38175 C9.80950099,49.8849142 10.0881649,49.4568351 10.4475,49.0975 C10.8068351,48.7381649 11.2367475,48.4585843 11.73725,48.25875 C12.2377525,48.0589157 12.790497,47.959 13.3955,47.959 C13.9858363,47.959 14.5019145,48.0534157 14.94375,48.24225 C15.3855855,48.4310843 15.7641651,48.6813318 16.0795,48.993 L15.5845,49.6805 C15.5551665,49.7245002 15.5175836,49.7629998 15.47175,49.796 C15.4259164,49.8290002 15.3626671,49.8455 15.282,49.8455 C15.1976662,49.8455 15.1115004,49.8125003 15.0235,49.7465 C14.9354996,49.6804997 14.8236673,49.6090004 14.688,49.532 C14.5523327,49.4549996 14.3809177,49.3835003 14.17375,49.3175 C13.9665823,49.2514997 13.7035016,49.2185 13.3845,49.2185 C13.0104981,49.2185 12.6667516,49.2835827 12.35325,49.41375 C12.0397484,49.5439173 11.7702511,49.7299988 11.54475,49.972 C11.3192489,50.2140012 11.1432506,50.5082483 11.01675,50.85475 C10.8902494,51.2012517 10.827,51.5908312 10.827,52.0235 C10.827,52.4708356 10.8902494,52.8686649 11.01675,53.217 C11.1432506,53.5653351 11.3146656,53.8586655 11.531,54.097 C11.7473344,54.3353345 12.0021652,54.5177494 12.2955,54.64425 C12.5888348,54.7707506 12.904165,54.834 13.2415,54.834 C13.4431677,54.834 13.6255825,54.8230001 13.78875,54.801 C13.9519175,54.7789999 14.1022493,54.7441669 14.23975,54.6965 C14.3772507,54.6488331 14.5074161,54.587417 14.63025,54.51225 C14.7530839,54.437083 14.8749994,54.3445005 14.996,54.2345 C15.0326669,54.2014998 15.0711665,54.1749168 15.1115,54.15475 C15.1518335,54.1345832 15.1958331,54.1245 15.2435,54.1245 Z M24.1425,56 L22.9985,56 C22.870166,56 22.7647504,55.967917 22.68225,55.90375 C22.5997496,55.839583 22.5401668,55.7598338 22.5035,55.6645 L21.9095,54.042 L18.615,54.042 L18.021,55.6645 C17.9916665,55.7488338 17.9339171,55.825833 17.84775,55.8955 C17.7615829,55.965167 17.6561673,56 17.5315,56 L16.382,56 L19.506,48.047 L21.0185,48.047 L24.1425,56 Z M18.9945,52.997 L21.53,52.997 L20.562,50.3515 C20.5179998,50.2341661 20.4694169,50.0957508 20.41625,49.93625 C20.3630831,49.7767492 20.3108336,49.6035009 20.2595,49.4165 C20.2081664,49.6035009 20.1577502,49.7776659 20.10825,49.939 C20.0587498,50.1003341 20.0101669,50.2414994 19.9625,50.3625 L18.9945,52.997 Z M25.7375,48.047 C25.8035003,48.047 25.8584998,48.04975 25.9025,48.05525 C25.9465002,48.06075 25.9859165,48.0717499 26.02075,48.08825 C26.0555835,48.1047501 26.0894998,48.1285832 26.1225,48.15975 C26.1555002,48.1909168 26.1921665,48.2321664 26.2325,48.2835 L30.407,53.602 C30.3923333,53.473666 30.38225,53.3480839 30.37675,53.22525 C30.37125,53.1024161 30.3685,52.9878339 30.3685,52.8815 L30.3685,48.047 L31.672,48.047 L31.672,56 L30.9075,56 C30.7901661,56 30.6930004,55.9816668 30.616,55.945 C30.5389996,55.9083332 30.4638337,55.8423338 30.3905,55.747 L26.2325,50.4505 C26.2435001,50.5678339 26.25175,50.6842494 26.25725,50.79975 C26.26275,50.9152506 26.2655,51.0206662 26.2655,51.116 L26.2655,56 L24.962,56 L24.962,48.047 L25.7375,48.047 Z M40.34,52.0235 C40.34,52.6065029 40.2428343,53.1418309 40.0485,53.6295 C39.8541657,54.1171691 39.5810018,54.5369982 39.229,54.889 C38.8769982,55.2410018 38.4535025,55.5141657 37.9585,55.7085 C37.4634975,55.9028343 36.9153363,56 36.314,56 L33.278,56 L33.278,48.047 L36.314,48.047 C36.9153363,48.047 37.4634975,48.1450824 37.9585,48.34125 C38.4535025,48.5374176 38.8769982,48.8105816 39.229,49.16075 C39.5810018,49.5109184 39.8541657,49.9298309 40.0485,50.4175 C40.2428343,50.9051691 40.34,51.4404971 40.34,52.0235 Z M38.8275,52.0235 C38.8275,51.5871645 38.7688339,51.1957517 38.6515,50.84925 C38.5341661,50.5027483 38.3673344,50.2094179 38.151,49.96925 C37.9346656,49.7290821 37.6715849,49.544834 37.36175,49.4165 C37.0519151,49.288166 36.7026686,49.224 36.314,49.224 L34.7685,49.224 L34.7685,54.823 L36.314,54.823 C36.7026686,54.823 37.0519151,54.758834 37.36175,54.6305 C37.6715849,54.502166 37.9346656,54.3179179 38.151,54.07775 C38.3673344,53.8375821 38.5341661,53.5442517 38.6515,53.19775 C38.7688339,52.8512483 38.8275,52.4598355 38.8275,52.0235 Z M43.167,56 L41.682,56 L41.682,48.047 L43.167,48.047 L43.167,56 Z M52.0165,52.0235 C52.0165,52.6065029 51.9193343,53.1418309 51.725,53.6295 C51.5306657,54.1171691 51.2575018,54.5369982 50.9055,54.889 C50.5534982,55.2410018 50.1300025,55.5141657 49.635,55.7085 C49.1399975,55.9028343 48.5918363,56 47.9905,56 L44.9545,56 L44.9545,48.047 L47.9905,48.047 C48.5918363,48.047 49.1399975,48.1450824 49.635,48.34125 C50.1300025,48.5374176 50.5534982,48.8105816 50.9055,49.16075 C51.2575018,49.5109184 51.5306657,49.9298309 51.725,50.4175 C51.9193343,50.9051691 52.0165,51.4404971 52.0165,52.0235 Z M50.504,52.0235 C50.504,51.5871645 50.4453339,51.1957517 50.328,50.84925 C50.2106661,50.5027483 50.0438344,50.2094179 49.8275,49.96925 C49.6111656,49.7290821 49.3480849,49.544834 49.03825,49.4165 C48.7284151,49.288166 48.3791686,49.224 47.9905,49.224 L46.445,49.224 L46.445,54.823 L47.9905,54.823 C48.3791686,54.823 48.7284151,54.758834 49.03825,54.6305 C49.3480849,54.502166 49.6111656,54.3179179 49.8275,54.07775 C50.0438344,53.8375821 50.2106661,53.5442517 50.328,53.19775 C50.4453339,52.8512483 50.504,52.4598355 50.504,52.0235 Z M60.1675,56 L59.0235,56 C58.895166,56 58.7897504,55.967917 58.70725,55.90375 C58.6247496,55.839583 58.5651668,55.7598338 58.5285,55.6645 L57.9345,54.042 L54.64,54.042 L54.046,55.6645 C54.0166665,55.7488338 53.9589171,55.825833 53.87275,55.8955 C53.7865829,55.965167 53.6811673,56 53.5565,56 L52.407,56 L55.531,48.047 L57.0435,48.047 L60.1675,56 Z M55.0195,52.997 L57.555,52.997 L56.587,50.3515 C56.5429998,50.2341661 56.4944169,50.0957508 56.44125,49.93625 C56.3880831,49.7767492 56.3358336,49.6035009 56.2845,49.4165 C56.2331664,49.6035009 56.1827502,49.7776659 56.13325,49.939 C56.0837498,50.1003341 56.0351669,50.2414994 55.9875,50.3625 L55.0195,52.997 Z M66.5915,48.047 L66.5915,49.2625 L64.199,49.2625 L64.199,56 L62.7195,56 L62.7195,49.2625 L60.316,49.2625 L60.316,48.047 L66.5915,48.047 Z M72.548,48.047 L72.548,49.224 L69.0225,49.224 L69.0225,51.4295 L71.8,51.4295 L71.8,52.568 L69.0225,52.568 L69.0225,54.8175 L72.548,54.8175 L72.548,56 L67.532,56 L67.532,48.047 L72.548,48.047 Z" id="RELEASECANDIDATE" fill="#003055" fill-rule="nonzero"></path>
                        </g>
                        <g id="4" transform="translate(260.000000, 4.000000)">
                            <circle id="Oval" stroke="#FFFFFF" fill="#40E6CF" cx="41" cy="10" r="10"></circle>
                            <polygon id="Page-1" fill="#003055" points="43.0806509 8 42.6208918 8.45975914 40.1681054 10.9125455 39.3220028 10.2372255 38.81343 9.83057555 38 10.8474607 38.5084426 11.2542408 39.8101389 12.2955979 40.2657326 12.6575996 40.676548 12.2467843 43.5404101 9.38305235 43.9999089 8.92342337"></polygon>
                            <path d="M20.672,39.911 C21.0056683,39.911 21.2962488,39.8807503 21.54375,39.82025 C21.7912512,39.7597497 22.0268322,39.6763339 22.2505,39.57 L22.2505,38.1235 L21.255,38.1235 C21.1596662,38.1235 21.0845003,38.0969169 21.0295,38.04375 C20.9744997,37.9905831 20.947,37.9255004 20.947,37.8485 L20.947,37.0125 L23.5925,37.0125 L23.5925,40.23 C23.3908323,40.3766674 23.1809178,40.5040828 22.96275,40.61225 C22.7445822,40.7204172 22.5117512,40.809333 22.26425,40.879 C22.0167488,40.948667 21.7518347,41.0009165 21.4695,41.03575 C21.1871653,41.0705835 20.882835,41.088 20.5565,41.088 C19.9771638,41.088 19.4436691,40.9871677 18.956,40.7855 C18.4683309,40.5838323 18.0466684,40.3033351 17.691,39.944 C17.3353316,39.5846649 17.0575843,39.1556692 16.85775,38.657 C16.6579157,38.1583308 16.558,37.6138363 16.558,37.0235 C16.558,36.4258303 16.6551657,35.8776692 16.8495,35.379 C17.0438343,34.8803308 17.3197482,34.4513351 17.67725,34.092 C18.0347518,33.7326649 18.4683308,33.454001 18.978,33.256 C19.4876692,33.057999 20.0596635,32.959 20.694,32.959 C21.3430032,32.959 21.9049143,33.055249 22.37975,33.24775 C22.8545857,33.440251 23.2569984,33.6904985 23.587,33.9985 L23.158,34.6695 C23.0736662,34.8051673 22.961834,34.873 22.8225,34.873 C22.7344996,34.873 22.6446671,34.843667 22.553,34.785 C22.4356661,34.715333 22.3155839,34.645667 22.19275,34.576 C22.0699161,34.506333 21.9342507,34.4458336 21.78575,34.3945 C21.6372493,34.3431664 21.4704176,34.3010002 21.28525,34.268 C21.1000824,34.2349998 20.8865012,34.2185 20.6445,34.2185 C20.2521647,34.2185 19.8974183,34.2844993 19.58025,34.4165 C19.2630817,34.5485007 18.9926678,34.7373321 18.769,34.983 C18.5453322,35.2286679 18.3730006,35.5238316 18.252,35.8685 C18.1309994,36.2131684 18.0705,36.5981645 18.0705,37.0235 C18.0705,37.4818356 18.134666,37.8897482 18.263,38.24725 C18.391334,38.6047518 18.5709988,38.9063321 18.802,39.152 C19.0330012,39.3976679 19.3079984,39.5855827 19.627,39.71575 C19.9460016,39.8459173 20.2943314,39.911 20.672,39.911 Z M29.989,33.047 L29.989,34.224 L26.4635,34.224 L26.4635,36.4295 L29.241,36.4295 L29.241,37.568 L26.4635,37.568 L26.4635,39.8175 L29.989,39.8175 L29.989,41 L24.973,41 L24.973,33.047 L29.989,33.047 Z M32.046,33.047 C32.1120003,33.047 32.1669998,33.04975 32.211,33.05525 C32.2550002,33.06075 32.2944165,33.0717499 32.32925,33.08825 C32.3640835,33.1047501 32.3979998,33.1285832 32.431,33.15975 C32.4640002,33.1909168 32.5006665,33.2321664 32.541,33.2835 L36.7155,38.602 C36.7008333,38.473666 36.69075,38.3480839 36.68525,38.22525 C36.67975,38.1024161 36.677,37.9878339 36.677,37.8815 L36.677,33.047 L37.9805,33.047 L37.9805,41 L37.216,41 C37.0986661,41 37.0015004,40.9816668 36.9245,40.945 C36.8474996,40.9083332 36.7723337,40.8423338 36.699,40.747 L32.541,35.4505 C32.5520001,35.5678339 32.56025,35.6842494 32.56575,35.79975 C32.57125,35.9152506 32.574,36.0206662 32.574,36.116 L32.574,41 L31.2705,41 L31.2705,33.047 L32.046,33.047 Z M44.6025,33.047 L44.6025,34.224 L41.077,34.224 L41.077,36.4295 L43.8545,36.4295 L43.8545,37.568 L41.077,37.568 L41.077,39.8175 L44.6025,39.8175 L44.6025,41 L39.5865,41 L39.5865,33.047 L44.6025,33.047 Z M47.413,37.8925 L47.413,41 L45.9335,41 L45.9335,33.047 L48.359,33.047 C48.9016694,33.047 49.3664147,33.1029161 49.75325,33.21475 C50.1400853,33.3265839 50.4572488,33.4833323 50.70475,33.685 C50.9522512,33.8866677 51.1337494,34.1277486 51.24925,34.40825 C51.3647506,34.6887514 51.4225,34.997665 51.4225,35.335 C51.4225,35.602668 51.3830837,35.8556655 51.30425,36.094 C51.2254163,36.3323345 51.1117507,36.5486657 50.96325,36.743 C50.8147493,36.9373343 50.6314178,37.1078326 50.41325,37.2545 C50.1950822,37.4011674 49.9466681,37.5184996 49.668,37.6065 C49.8550009,37.7128339 50.0163327,37.864999 50.152,38.063 L52.143,41 L50.812,41 C50.683666,41 50.5745838,40.9743336 50.48475,40.923 C50.3949162,40.8716664 50.3188336,40.7983338 50.2565,40.703 L48.5845,38.1565 C48.5221664,38.0611662 48.453417,37.9933335 48.37825,37.953 C48.303083,37.9126665 48.1921674,37.8925 48.0455,37.8925 L47.413,37.8925 Z M47.413,36.831 L48.337,36.831 C48.6156681,36.831 48.8585823,36.796167 49.06575,36.7265 C49.2729177,36.656833 49.443416,36.5605839 49.57725,36.43775 C49.711084,36.3149161 49.8109997,36.1691675 49.877,36.0005 C49.9430003,35.8318325 49.976,35.6466677 49.976,35.445 C49.976,35.0416647 49.8430847,34.7318344 49.57725,34.5155 C49.3114153,34.2991656 48.9053361,34.191 48.359,34.191 L47.413,34.191 L47.413,36.831 Z M60.0795,41 L58.9355,41 C58.807166,41 58.7017504,40.967917 58.61925,40.90375 C58.5367496,40.839583 58.4771668,40.7598338 58.4405,40.6645 L57.8465,39.042 L54.552,39.042 L53.958,40.6645 C53.9286665,40.7488338 53.8709171,40.825833 53.78475,40.8955 C53.6985829,40.965167 53.5931673,41 53.4685,41 L52.319,41 L55.443,33.047 L56.9555,33.047 L60.0795,41 Z M54.9315,37.997 L57.467,37.997 L56.499,35.3515 C56.4549998,35.2341661 56.4064169,35.0957508 56.35325,34.93625 C56.3000831,34.7767492 56.2478336,34.6035009 56.1965,34.4165 C56.1451664,34.6035009 56.0947502,34.7776659 56.04525,34.939 C55.9957498,35.1003341 55.9471669,35.2414994 55.8995,35.3625 L54.9315,37.997 Z M62.3785,39.779 L65.563,39.779 L65.563,41 L60.899,41 L60.899,33.047 L62.3785,33.047 L62.3785,39.779 Z M11.85,56 L10.706,56 C10.577666,56 10.4722504,55.967917 10.38975,55.90375 C10.3072496,55.839583 10.2476669,55.7598338 10.211,55.6645 L9.617,54.042 L6.3225,54.042 L5.7285,55.6645 C5.69916652,55.7488338 5.6414171,55.825833 5.55525,55.8955 C5.4690829,55.965167 5.36366729,56 5.239,56 L4.0895,56 L7.2135,48.047 L8.726,48.047 L11.85,56 Z M6.702,52.997 L9.2375,52.997 L8.2695,50.3515 C8.22549978,50.2341661 8.17691693,50.0957508 8.12375,49.93625 C8.07058307,49.7767492 8.01833359,49.6035009 7.967,49.4165 C7.91566641,49.6035009 7.86525025,49.7776659 7.81575,49.939 C7.76624975,50.1003341 7.71766691,50.2414994 7.67,50.3625 L6.702,52.997 Z M11.8885,48.047 L13.082,48.047 C13.210334,48.047 13.3148329,48.0781664 13.3955,48.1405 C13.4761671,48.2028336 13.5366665,48.2834995 13.577,48.3825 L15.447,53.2335 C15.5093336,53.3911675 15.5689164,53.5644157 15.62575,53.75325 C15.6825836,53.9420843 15.7366664,54.140999 15.788,54.35 C15.8723338,53.9283312 15.9768327,53.5561683 16.1015,53.2335 L17.966,48.3825 C17.9990002,48.2981662 18.0576662,48.221167 18.142,48.1515 C18.2263338,48.081833 18.3308327,48.047 18.4555,48.047 L19.649,48.047 L16.437,56 L15.1005,56 L11.8885,48.047 Z M27.47,56 L26.326,56 C26.197666,56 26.0922504,55.967917 26.00975,55.90375 C25.9272496,55.839583 25.8676668,55.7598338 25.831,55.6645 L25.237,54.042 L21.9425,54.042 L21.3485,55.6645 C21.3191665,55.7488338 21.2614171,55.825833 21.17525,55.8955 C21.0890829,55.965167 20.9836673,56 20.859,56 L19.7095,56 L22.8335,48.047 L24.346,48.047 L27.47,56 Z M22.322,52.997 L24.8575,52.997 L23.8895,50.3515 C23.8454998,50.2341661 23.7969169,50.0957508 23.74375,49.93625 C23.6905831,49.7767492 23.6383336,49.6035009 23.587,49.4165 C23.5356664,49.6035009 23.4852502,49.7776659 23.43575,49.939 C23.3862498,50.1003341 23.3376669,50.2414994 23.29,50.3625 L22.322,52.997 Z M29.956,56 L28.471,56 L28.471,48.047 L29.956,48.047 L29.956,56 Z M33.223,54.779 L36.4075,54.779 L36.4075,56 L31.7435,56 L31.7435,48.047 L33.223,48.047 L33.223,54.779 Z M44.421,56 L43.277,56 C43.148666,56 43.0432504,55.967917 42.96075,55.90375 C42.8782496,55.839583 42.8186668,55.7598338 42.782,55.6645 L42.188,54.042 L38.8935,54.042 L38.2995,55.6645 C38.2701665,55.7488338 38.2124171,55.825833 38.12625,55.8955 C38.0400829,55.965167 37.9346673,56 37.81,56 L36.6605,56 L39.7845,48.047 L41.297,48.047 L44.421,56 Z M39.273,52.997 L41.8085,52.997 L40.8405,50.3515 C40.7964998,50.2341661 40.7479169,50.0957508 40.69475,49.93625 C40.6415831,49.7767492 40.5893336,49.6035009 40.538,49.4165 C40.4866664,49.6035009 40.4362502,49.7776659 40.38675,49.939 C40.3372498,50.1003341 40.2886669,50.2414994 40.241,50.3625 L39.273,52.997 Z M45.2405,56 L45.2405,48.047 L47.985,48.047 C48.5056693,48.047 48.9502482,48.0964995 49.31875,48.1955 C49.6872518,48.2945005 49.9897488,48.4356657 50.22625,48.619 C50.4627512,48.8023343 50.6359995,49.0241654 50.746,49.2845 C50.8560006,49.5448346 50.911,49.838165 50.911,50.1645 C50.911,50.3515009 50.8835003,50.5302491 50.8285,50.70075 C50.7734997,50.8712509 50.6882506,51.0307493 50.57275,51.17925 C50.4572494,51.3277507 50.3105842,51.4624994 50.13275,51.5835 C49.9549158,51.7045006 49.7431679,51.8071662 49.4975,51.8915 C50.5901721,52.1371679 51.1365,52.7274953 51.1365,53.6625 C51.1365,53.999835 51.072334,54.3114986 50.944,54.5975 C50.815666,54.8835014 50.6286679,55.1300823 50.383,55.33725 C50.1373321,55.5444177 49.8348351,55.7066661 49.4755,55.824 C49.1161649,55.9413339 48.7055023,56 48.2435,56 L45.2405,56 Z M46.72,52.513 L46.72,54.845 L48.2215,54.845 C48.4965014,54.845 48.7265824,54.8120003 48.91175,54.746 C49.0969176,54.6799997 49.2454161,54.5920005 49.35725,54.482 C49.4690839,54.3719995 49.5497498,54.2436674 49.59925,54.097 C49.6487502,53.9503326 49.6735,53.7945008 49.6735,53.6295 C49.6735,53.4571658 49.6460003,53.3022507 49.591,53.16475 C49.5359997,53.0272493 49.4498339,52.9099172 49.3325,52.81275 C49.2151661,52.7155828 49.0648343,52.6413336 48.8815,52.59 C48.6981658,52.5386664 48.4763346,52.513 48.216,52.513 L46.72,52.513 Z M46.72,51.49 L47.9025,51.49 C48.4048358,51.49 48.7861654,51.3983343 49.0465,51.215 C49.3068346,51.0316658 49.437,50.7401687 49.437,50.3405 C49.437,49.9261646 49.3196678,49.6310009 49.085,49.455 C48.8503322,49.2789991 48.4836692,49.191 47.985,49.191 L46.72,49.191 L46.72,51.49 Z M54.0735,56 L52.5885,56 L52.5885,48.047 L54.0735,48.047 L54.0735,56 Z M57.3405,54.779 L60.525,54.779 L60.525,56 L55.861,56 L55.861,48.047 L57.3405,48.047 L57.3405,54.779 Z M63.2145,56 L61.7295,56 L61.7295,48.047 L63.2145,48.047 L63.2145,56 Z M70.6065,48.047 L70.6065,49.2625 L68.214,49.2625 L68.214,56 L66.7345,56 L66.7345,49.2625 L64.331,49.2625 L64.331,48.047 L70.6065,48.047 Z M75.0835,52.909 L75.0835,56 L73.604,56 L73.604,52.909 L70.7055,48.047 L72.009,48.047 C72.137334,48.047 72.239083,48.0781664 72.31425,48.1405 C72.389417,48.2028336 72.4526664,48.2816662 72.504,48.377 L73.9615,51.0335 C74.0458338,51.1911675 74.1191664,51.3405826 74.1815,51.48175 C74.2438336,51.6229174 74.3006664,51.7613327 74.352,51.897 C74.3996669,51.757666 74.4537497,51.6174174 74.51425,51.47625 C74.5747503,51.3350826 74.6471662,51.1875008 74.7315,51.0335 L76.178,48.377 C76.2183335,48.2963329 76.2788329,48.221167 76.3595,48.1515 C76.4401671,48.081833 76.5428327,48.047 76.6675,48.047 L77.9765,48.047 L75.0835,52.909 Z" id="GENERALAVAILABILITY" fill="#003055" fill-rule="nonzero"></path>
                        </g>
                    </g>
                </g>
            </g>
        </g>
    </g>
</svg>