<?xml version="1.0" encoding="UTF-8"?>
<svg width="117px" height="207px" viewBox="0 0 117 207" version="1.1" xmlns="http://www.w3.org/2000/svg" xmlns:xlink="http://www.w3.org/1999/xlink">
    <!-- Generator: Sketch 54.1 (76490) - https://sketchapp.com -->
    <title>phase1</title>
    <desc>Created with Sketch.</desc>
    <g id="final" stroke="none" stroke-width="1" fill="none" fill-rule="evenodd">
        <g id="Overture/Song-accessible" transform="translate(-26.000000, -114.000000)">
            <g id="progress-bar" transform="translate(27.000000, 115.000000)">
                <g id="phase1">
                    <rect id="Path" fill="#04518C" x="13" y="14" width="3" height="60" rx="1.5"></rect>
                    <rect id="Path" fill="#04518C" x="13" y="74" width="3" height="60" rx="1.5"></rect>
                    <rect id="Path" fill="#04518C" x="13" y="134" width="3" height="54" rx="1.5"></rect>
                    <circle id="active" stroke="#FFFFFF" stroke-width="2" fill="#FFFFFF" cx="14" cy="14" r="14"></circle>
                    <circle id="Oval" stroke="#FFFFFF" fill="#40E6CF" cx="14" cy="14" r="10"></circle>
                    <circle id="Oval" stroke="#FFFFFF" fill="#40E6CF" cx="14" cy="74" r="10"></circle>
                    <circle id="Oval" stroke="#FFFFFF" fill="#40E6CF" cx="14" cy="134" r="10"></circle>
                    <circle id="Oval" stroke="#FFFFFF" fill="#40E6CF" cx="14" cy="194" r="10"></circle>
                    <polygon id="Page-1" fill="#003055" points="16.0806509 12 15.6208918 12.4597591 13.1681054 14.9125455 12.3220028 14.2372255 11.81343 13.8305755 11 14.8474607 11.5084426 15.2542408 12.8101389 16.2955979 13.2657326 16.6575996 13.676548 16.2467843 16.5404101 13.3830523 16.9999089 12.9234234"></polygon>
                    <polygon id="Page-1" fill="#003055" points="16.0806509 72 15.6208918 72.4597591 13.1681054 74.9125455 12.3220028 74.2372255 11.81343 73.8305755 11 74.8474607 11.5084426 75.2542408 12.8101389 76.2955979 13.2657326 76.6575996 13.676548 76.2467843 16.5404101 73.3830523 16.9999089 72.9234234"></polygon>
                    <polygon id="Page-1" fill="#003055" points="16.0806509 132 15.6208918 132.459759 13.1681054 134.912546 12.3220028 134.237225 11.81343 133.830576 11 134.847461 11.5084426 135.254241 12.8101389 136.295598 13.2657326 136.6576 13.676548 136.246784 16.5404101 133.383052 16.9999089 132.923423"></polygon>
                    <polygon id="Page-1" fill="#003055" points="16.0806509 192 15.6208918 192.459759 13.1681054 194.912546 12.3220028 194.237225 11.81343 193.830576 11 194.847461 11.5084426 195.254241 12.8101389 196.295598 13.2657326 196.6576 13.676548 196.246784 16.5404101 193.383052 16.9999089 192.923423"></polygon>
                    <path d="M38.455,189.911 C38.7886683,189.911 39.0792488,189.88075 39.32675,189.82025 C39.5742512,189.75975 39.8098322,189.676334 40.0335,189.57 L40.0335,188.1235 L39.038,188.1235 C38.9426662,188.1235 38.8675003,188.096917 38.8125,188.04375 C38.7574997,187.990583 38.73,187.9255 38.73,187.8485 L38.73,187.0125 L41.3755,187.0125 L41.3755,190.23 C41.1738323,190.376667 40.9639178,190.504083 40.74575,190.61225 C40.5275822,190.720417 40.2947512,190.809333 40.04725,190.879 C39.7997488,190.948667 39.5348347,191.000916 39.2525,191.03575 C38.9701653,191.070584 38.665835,191.088 38.3395,191.088 C37.7601638,191.088 37.2266691,190.987168 36.739,190.7855 C36.2513309,190.583832 35.8296684,190.303335 35.474,189.944 C35.1183316,189.584665 34.8405843,189.155669 34.64075,188.657 C34.4409157,188.158331 34.341,187.613836 34.341,187.0235 C34.341,186.42583 34.4381657,185.877669 34.6325,185.379 C34.8268343,184.880331 35.1027482,184.451335 35.46025,184.092 C35.8177518,183.732665 36.2513308,183.454001 36.761,183.256 C37.2706692,183.057999 37.8426635,182.959 38.477,182.959 C39.1260032,182.959 39.6879143,183.055249 40.16275,183.24775 C40.6375857,183.440251 41.0399983,183.690498 41.37,183.9985 L40.941,184.6695 C40.8566662,184.805167 40.744834,184.873 40.6055,184.873 C40.5174996,184.873 40.4276671,184.843667 40.336,184.785 C40.2186661,184.715333 40.0985839,184.645667 39.97575,184.576 C39.8529161,184.506333 39.7172507,184.445834 39.56875,184.3945 C39.4202493,184.343166 39.2534176,184.301 39.06825,184.268 C38.8830824,184.235 38.6695012,184.2185 38.4275,184.2185 C38.0351647,184.2185 37.6804183,184.284499 37.36325,184.4165 C37.0460817,184.548501 36.7756678,184.737332 36.552,184.983 C36.3283322,185.228668 36.1560006,185.523832 36.035,185.8685 C35.9139994,186.213168 35.8535,186.598165 35.8535,187.0235 C35.8535,187.481836 35.917666,187.889748 36.046,188.24725 C36.174334,188.604752 36.3539988,188.906332 36.585,189.152 C36.8160012,189.397668 37.0909984,189.585583 37.41,189.71575 C37.7290016,189.845917 38.0773314,189.911 38.455,189.911 Z M47.772,183.047 L47.772,184.224 L44.2465,184.224 L44.2465,186.4295 L47.024,186.4295 L47.024,187.568 L44.2465,187.568 L44.2465,189.8175 L47.772,189.8175 L47.772,191 L42.756,191 L42.756,183.047 L47.772,183.047 Z M49.829,183.047 C49.8950003,183.047 49.9499998,183.04975 49.994,183.05525 C50.0380002,183.06075 50.0774165,183.07175 50.11225,183.08825 C50.1470835,183.10475 50.1809998,183.128583 50.214,183.15975 C50.2470002,183.190917 50.2836665,183.232166 50.324,183.2835 L54.4985,188.602 C54.4838333,188.473666 54.47375,188.348084 54.46825,188.22525 C54.46275,188.102416 54.46,187.987834 54.46,187.8815 L54.46,183.047 L55.7635,183.047 L55.7635,191 L54.999,191 C54.8816661,191 54.7845004,190.981667 54.7075,190.945 C54.6304996,190.908333 54.5553337,190.842334 54.482,190.747 L50.324,185.4505 C50.3350001,185.567834 50.34325,185.684249 50.34875,185.79975 C50.35425,185.915251 50.357,186.020666 50.357,186.116 L50.357,191 L49.0535,191 L49.0535,183.047 L49.829,183.047 Z M62.3855,183.047 L62.3855,184.224 L58.86,184.224 L58.86,186.4295 L61.6375,186.4295 L61.6375,187.568 L58.86,187.568 L58.86,189.8175 L62.3855,189.8175 L62.3855,191 L57.3695,191 L57.3695,183.047 L62.3855,183.047 Z M65.196,187.8925 L65.196,191 L63.7165,191 L63.7165,183.047 L66.142,183.047 C66.6846694,183.047 67.1494147,183.102916 67.53625,183.21475 C67.9230853,183.326584 68.2402488,183.483332 68.48775,183.685 C68.7352512,183.886668 68.9167494,184.127749 69.03225,184.40825 C69.1477506,184.688751 69.2055,184.997665 69.2055,185.335 C69.2055,185.602668 69.1660837,185.855665 69.08725,186.094 C69.0084163,186.332335 68.8947507,186.548666 68.74625,186.743 C68.5977493,186.937334 68.4144178,187.107833 68.19625,187.2545 C67.9780822,187.401167 67.7296681,187.5185 67.451,187.6065 C67.6380009,187.712834 67.7993327,187.864999 67.935,188.063 L69.926,191 L68.595,191 C68.466666,191 68.3575838,190.974334 68.26775,190.923 C68.1779162,190.871666 68.1018336,190.798334 68.0395,190.703 L66.3675,188.1565 C66.3051664,188.061166 66.236417,187.993334 66.16125,187.953 C66.086083,187.912666 65.9751674,187.8925 65.8285,187.8925 L65.196,187.8925 Z M65.196,186.831 L66.12,186.831 C66.3986681,186.831 66.6415823,186.796167 66.84875,186.7265 C67.0559177,186.656833 67.226416,186.560584 67.36025,186.43775 C67.494084,186.314916 67.5939997,186.169168 67.66,186.0005 C67.7260003,185.831832 67.759,185.646668 67.759,185.445 C67.759,185.041665 67.6260847,184.731834 67.36025,184.5155 C67.0944153,184.299166 66.6883361,184.191 66.142,184.191 L65.196,184.191 L65.196,186.831 Z M77.8625,191 L76.7185,191 C76.590166,191 76.4847504,190.967917 76.40225,190.90375 C76.3197496,190.839583 76.2601668,190.759834 76.2235,190.6645 L75.6295,189.042 L72.335,189.042 L71.741,190.6645 C71.7116665,190.748834 71.6539171,190.825833 71.56775,190.8955 C71.4815829,190.965167 71.3761673,191 71.2515,191 L70.102,191 L73.226,183.047 L74.7385,183.047 L77.8625,191 Z M72.7145,187.997 L75.25,187.997 L74.282,185.3515 C74.2379998,185.234166 74.1894169,185.095751 74.13625,184.93625 C74.0830831,184.776749 74.0308336,184.603501 73.9795,184.4165 C73.9281664,184.603501 73.8777502,184.777666 73.82825,184.939 C73.7787498,185.100334 73.7301669,185.241499 73.6825,185.3625 L72.7145,187.997 Z M80.1615,189.779 L83.346,189.779 L83.346,191 L78.682,191 L78.682,183.047 L80.1615,183.047 L80.1615,189.779 Z M41.7935,206 L40.6495,206 C40.521166,206 40.4157504,205.967917 40.33325,205.90375 C40.2507496,205.839583 40.1911669,205.759834 40.1545,205.6645 L39.5605,204.042 L36.266,204.042 L35.672,205.6645 C35.6426665,205.748834 35.5849171,205.825833 35.49875,205.8955 C35.4125829,205.965167 35.3071673,206 35.1825,206 L34.033,206 L37.157,198.047 L38.6695,198.047 L41.7935,206 Z M36.6455,202.997 L39.181,202.997 L38.213,200.3515 C38.1689998,200.234166 38.1204169,200.095751 38.06725,199.93625 C38.0140831,199.776749 37.9618336,199.603501 37.9105,199.4165 C37.8591664,199.603501 37.8087502,199.777666 37.75925,199.939 C37.7097498,200.100334 37.6611669,200.241499 37.6135,200.3625 L36.6455,202.997 Z M41.832,198.047 L43.0255,198.047 C43.153834,198.047 43.2583329,198.078166 43.339,198.1405 C43.4196671,198.202834 43.4801665,198.2835 43.5205,198.3825 L45.3905,203.2335 C45.4528336,203.391167 45.5124164,203.564416 45.56925,203.75325 C45.6260836,203.942084 45.6801664,204.140999 45.7315,204.35 C45.8158338,203.928331 45.9203327,203.556168 46.045,203.2335 L47.9095,198.3825 C47.9425002,198.298166 48.0011662,198.221167 48.0855,198.1515 C48.1698338,198.081833 48.2743327,198.047 48.399,198.047 L49.5925,198.047 L46.3805,206 L45.044,206 L41.832,198.047 Z M57.4135,206 L56.2695,206 C56.141166,206 56.0357504,205.967917 55.95325,205.90375 C55.8707496,205.839583 55.8111668,205.759834 55.7745,205.6645 L55.1805,204.042 L51.886,204.042 L51.292,205.6645 C51.2626665,205.748834 51.2049171,205.825833 51.11875,205.8955 C51.0325829,205.965167 50.9271673,206 50.8025,206 L49.653,206 L52.777,198.047 L54.2895,198.047 L57.4135,206 Z M52.2655,202.997 L54.801,202.997 L53.833,200.3515 C53.7889998,200.234166 53.7404169,200.095751 53.68725,199.93625 C53.6340831,199.776749 53.5818336,199.603501 53.5305,199.4165 C53.4791664,199.603501 53.4287502,199.777666 53.37925,199.939 C53.3297498,200.100334 53.2811669,200.241499 53.2335,200.3625 L52.2655,202.997 Z M59.8995,206 L58.4145,206 L58.4145,198.047 L59.8995,198.047 L59.8995,206 Z M63.1665,204.779 L66.351,204.779 L66.351,206 L61.687,206 L61.687,198.047 L63.1665,198.047 L63.1665,204.779 Z M74.3645,206 L73.2205,206 C73.092166,206 72.9867504,205.967917 72.90425,205.90375 C72.8217496,205.839583 72.7621668,205.759834 72.7255,205.6645 L72.1315,204.042 L68.837,204.042 L68.243,205.6645 C68.2136665,205.748834 68.1559171,205.825833 68.06975,205.8955 C67.9835829,205.965167 67.8781673,206 67.7535,206 L66.604,206 L69.728,198.047 L71.2405,198.047 L74.3645,206 Z M69.2165,202.997 L71.752,202.997 L70.784,200.3515 C70.7399998,200.234166 70.6914169,200.095751 70.63825,199.93625 C70.5850831,199.776749 70.5328336,199.603501 70.4815,199.4165 C70.4301664,199.603501 70.3797502,199.777666 70.33025,199.939 C70.2807498,200.100334 70.2321669,200.241499 70.1845,200.3625 L69.2165,202.997 Z M75.184,206 L75.184,198.047 L77.9285,198.047 C78.4491693,198.047 78.8937482,198.0965 79.26225,198.1955 C79.6307518,198.2945 79.9332488,198.435666 80.16975,198.619 C80.4062512,198.802334 80.5794995,199.024165 80.6895,199.2845 C80.7995006,199.544835 80.8545,199.838165 80.8545,200.1645 C80.8545,200.351501 80.8270003,200.530249 80.772,200.70075 C80.7169997,200.871251 80.6317506,201.030749 80.51625,201.17925 C80.4007494,201.327751 80.2540842,201.462499 80.07625,201.5835 C79.8984158,201.704501 79.6866679,201.807166 79.441,201.8915 C80.5336721,202.137168 81.08,202.727495 81.08,203.6625 C81.08,203.999835 81.015834,204.311499 80.8875,204.5975 C80.759166,204.883501 80.5721679,205.130082 80.3265,205.33725 C80.0808321,205.544418 79.7783351,205.706666 79.419,205.824 C79.0596649,205.941334 78.6490023,206 78.187,206 L75.184,206 Z M76.6635,202.513 L76.6635,204.845 L78.165,204.845 C78.4400014,204.845 78.6700824,204.812 78.85525,204.746 C79.0404176,204.68 79.1889161,204.592001 79.30075,204.482 C79.4125839,204.371999 79.4932498,204.243667 79.54275,204.097 C79.5922502,203.950333 79.617,203.794501 79.617,203.6295 C79.617,203.457166 79.5895003,203.302251 79.5345,203.16475 C79.4794997,203.027249 79.3933339,202.909917 79.276,202.81275 C79.1586661,202.715583 79.0083343,202.641334 78.825,202.59 C78.6416658,202.538666 78.4198346,202.513 78.1595,202.513 L76.6635,202.513 Z M76.6635,201.49 L77.846,201.49 C78.3483358,201.49 78.7296654,201.398334 78.99,201.215 C79.2503346,201.031666 79.3805,200.740169 79.3805,200.3405 C79.3805,199.926165 79.2631678,199.631001 79.0285,199.455 C78.7938322,199.278999 78.4271692,199.191 77.9285,199.191 L76.6635,199.191 L76.6635,201.49 Z M84.017,206 L82.532,206 L82.532,198.047 L84.017,198.047 L84.017,206 Z M87.284,204.779 L90.4685,204.779 L90.4685,206 L85.8045,206 L85.8045,198.047 L87.284,198.047 L87.284,204.779 Z M93.158,206 L91.673,206 L91.673,198.047 L93.158,198.047 L93.158,206 Z M100.55,198.047 L100.55,199.2625 L98.1575,199.2625 L98.1575,206 L96.678,206 L96.678,199.2625 L94.2745,199.2625 L94.2745,198.047 L100.55,198.047 Z M105.027,202.909 L105.027,206 L103.5475,206 L103.5475,202.909 L100.649,198.047 L101.9525,198.047 C102.080834,198.047 102.182583,198.078166 102.25775,198.1405 C102.332917,198.202834 102.396166,198.281666 102.4475,198.377 L103.905,201.0335 C103.989334,201.191167 104.062666,201.340583 104.125,201.48175 C104.187334,201.622917 104.244166,201.761333 104.2955,201.897 C104.343167,201.757666 104.39725,201.617417 104.45775,201.47625 C104.51825,201.335083 104.590666,201.187501 104.675,201.0335 L106.1215,198.377 C106.161834,198.296333 106.222333,198.221167 106.303,198.1515 C106.383667,198.081833 106.486333,198.047 106.611,198.047 L107.92,198.047 L105.027,202.909 Z" id="GENERALAVAILABILITY" fill="#003055" fill-rule="nonzero"></path>
                    <path d="M36.332,130.8925 L36.332,134 L34.8525,134 L34.8525,126.047 L37.278,126.047 C37.8206694,126.047 38.2854147,126.102916 38.67225,126.21475 C39.0590853,126.326584 39.3762488,126.483332 39.62375,126.685 C39.8712512,126.886668 40.0527494,127.127749 40.16825,127.40825 C40.2837506,127.688751 40.3415,127.997665 40.3415,128.335 C40.3415,128.602668 40.3020837,128.855665 40.22325,129.094 C40.1444163,129.332335 40.0307507,129.548666 39.88225,129.743 C39.7337493,129.937334 39.5504178,130.107833 39.33225,130.2545 C39.1140822,130.401167 38.8656681,130.5185 38.587,130.6065 C38.7740009,130.712834 38.9353327,130.864999 39.071,131.063 L41.062,134 L39.731,134 C39.602666,134 39.4935838,133.974334 39.40375,133.923 C39.3139162,133.871666 39.2378336,133.798334 39.1755,133.703 L37.5035,131.1565 C37.4411664,131.061166 37.372417,130.993334 37.29725,130.953 C37.222083,130.912666 37.1111674,130.8925 36.9645,130.8925 L36.332,130.8925 Z M36.332,129.831 L37.256,129.831 C37.5346681,129.831 37.7775823,129.796167 37.98475,129.7265 C38.1919177,129.656833 38.362416,129.560584 38.49625,129.43775 C38.630084,129.314916 38.7299997,129.169168 38.796,129.0005 C38.8620003,128.831832 38.895,128.646668 38.895,128.445 C38.895,128.041665 38.7620847,127.731834 38.49625,127.5155 C38.2304153,127.299166 37.8243361,127.191 37.278,127.191 L36.332,127.191 L36.332,129.831 Z M47.024,126.047 L47.024,127.224 L43.4985,127.224 L43.4985,129.4295 L46.276,129.4295 L46.276,130.568 L43.4985,130.568 L43.4985,132.8175 L47.024,132.8175 L47.024,134 L42.008,134 L42.008,126.047 L47.024,126.047 Z M49.785,132.779 L52.9695,132.779 L52.9695,134 L48.3055,134 L48.3055,126.047 L49.785,126.047 L49.785,132.779 Z M59.0085,126.047 L59.0085,127.224 L55.483,127.224 L55.483,129.4295 L58.2605,129.4295 L58.2605,130.568 L55.483,130.568 L55.483,132.8175 L59.0085,132.8175 L59.0085,134 L53.9925,134 L53.9925,126.047 L59.0085,126.047 Z M67.2805,134 L66.1365,134 C66.008166,134 65.9027504,133.967917 65.82025,133.90375 C65.7377496,133.839583 65.6781668,133.759834 65.6415,133.6645 L65.0475,132.042 L61.753,132.042 L61.159,133.6645 C61.1296665,133.748834 61.0719171,133.825833 60.98575,133.8955 C60.8995829,133.965167 60.7941673,134 60.6695,134 L59.52,134 L62.644,126.047 L64.1565,126.047 L67.2805,134 Z M62.1325,130.997 L64.668,130.997 L63.7,128.3515 C63.6559998,128.234166 63.6074169,128.095751 63.55425,127.93625 C63.5010831,127.776749 63.4488336,127.603501 63.3975,127.4165 C63.3461664,127.603501 63.2957502,127.777666 63.24625,127.939 C63.1967498,128.100334 63.1481669,128.241499 63.1005,128.3625 L62.1325,130.997 Z M72.3625,127.4935 C72.3221665,127.574167 72.2754169,127.631 72.22225,127.664 C72.1690831,127.697 72.1058337,127.7135 72.0325,127.7135 C71.9591663,127.7135 71.8766671,127.685084 71.785,127.62825 C71.6933329,127.571416 71.5851673,127.508167 71.4605,127.4385 C71.3358327,127.368833 71.1900842,127.305584 71.02325,127.24875 C70.8564158,127.191916 70.6593345,127.1635 70.432,127.1635 C70.2266656,127.1635 70.0479174,127.18825 69.89575,127.23775 C69.7435826,127.28725 69.6152505,127.356 69.51075,127.444 C69.4062495,127.532 69.3283336,127.637416 69.277,127.76025 C69.2256664,127.883084 69.2,128.017833 69.2,128.1645 C69.2,128.351501 69.2522495,128.507333 69.35675,128.632 C69.4612505,128.756667 69.5996658,128.863 69.772,128.951 C69.9443342,129.039 70.1404989,129.117833 70.3605,129.1875 C70.5805011,129.257167 70.8050822,129.331416 71.03425,129.41025 C71.2634178,129.489084 71.4879989,129.580749 71.708,129.68525 C71.9280011,129.789751 72.1241658,129.921749 72.2965,130.08125 C72.4688342,130.240751 72.6072495,130.435999 72.71175,130.667 C72.8162505,130.898001 72.8685,131.178498 72.8685,131.5085 C72.8685,131.867835 72.8070839,132.204248 72.68425,132.51775 C72.5614161,132.831252 72.3817512,133.104416 72.14525,133.33725 C71.9087488,133.570084 71.6200017,133.753416 71.279,133.88725 C70.9379983,134.021084 70.5475022,134.088 70.1075,134.088 C69.8544987,134.088 69.6051679,134.06325 69.3595,134.01375 C69.1138321,133.96425 68.8782511,133.893667 68.65275,133.802 C68.4272489,133.710333 68.2164176,133.600334 68.02025,133.472 C67.8240824,133.343666 67.6490008,133.200667 67.495,133.043 L67.924,132.3335 C67.9643335,132.282166 68.0129164,132.239084 68.06975,132.20425 C68.1265836,132.169416 68.189833,132.152 68.2595,132.152 C68.3511671,132.152 68.4501661,132.189583 68.5565,132.26475 C68.6628339,132.339917 68.7884159,132.423333 68.93325,132.515 C69.0780841,132.606667 69.2485824,132.690083 69.44475,132.76525 C69.6409176,132.840417 69.8764986,132.878 70.1515,132.878 C70.5731688,132.878 70.8994988,132.778084 71.1305,132.57825 C71.3615012,132.378416 71.477,132.091502 71.477,131.7175 C71.477,131.508499 71.4247505,131.338001 71.32025,131.206 C71.2157495,131.073999 71.0773342,130.963084 70.905,130.87325 C70.7326658,130.783416 70.5365011,130.707334 70.3165,130.645 C70.0964989,130.582666 69.8728345,130.514834 69.6455,130.4415 C69.4181655,130.368166 69.1945011,130.280167 68.9745,130.1775 C68.7544989,130.074833 68.5583342,129.941001 68.386,129.776 C68.2136658,129.610999 68.0752505,129.404751 67.97075,129.15725 C67.8662495,128.909749 67.814,128.604502 67.814,128.2415 C67.814,127.951832 67.8717494,127.669501 67.98725,127.3945 C68.1027506,127.119499 68.2714156,126.875668 68.49325,126.663 C68.7150844,126.450332 68.9873317,126.279834 69.31,126.1515 C69.6326683,126.023166 70.0011646,125.959 70.4155,125.959 C70.8848357,125.959 71.317498,126.032333 71.7135,126.179 C72.109502,126.325667 72.4468319,126.530999 72.7255,126.795 L72.3625,127.4935 Z M79.0175,126.047 L79.0175,127.224 L75.492,127.224 L75.492,129.4295 L78.2695,129.4295 L78.2695,130.568 L75.492,130.568 L75.492,132.8175 L79.0175,132.8175 L79.0175,134 L74.0015,134 L74.0015,126.047 L79.0175,126.047 Z M40.27,145.1245 C40.3506671,145.1245 40.420333,145.155666 40.479,145.218 L41.062,145.8505 C40.7393317,146.250169 40.342419,146.556332 39.87125,146.769 C39.400081,146.981668 38.8345033,147.088 38.1745,147.088 C37.5841637,147.088 37.053419,146.987168 36.58225,146.7855 C36.111081,146.583832 35.7086683,146.303335 35.375,145.944 C35.0413317,145.584665 34.7855842,145.155669 34.60775,144.657 C34.4299158,144.158331 34.341,143.613836 34.341,143.0235 C34.341,142.42583 34.439999,141.878586 34.638,141.38175 C34.836001,140.884914 35.1146649,140.456835 35.474,140.0975 C35.8333351,139.738165 36.2632475,139.458584 36.76375,139.25875 C37.2642525,139.058916 37.816997,138.959 38.422,138.959 C39.0123363,138.959 39.5284145,139.053416 39.97025,139.24225 C40.4120855,139.431084 40.7906651,139.681332 41.106,139.993 L40.611,140.6805 C40.5816665,140.7245 40.5440836,140.763 40.49825,140.796 C40.4524164,140.829 40.3891671,140.8455 40.3085,140.8455 C40.2241662,140.8455 40.1380004,140.8125 40.05,140.7465 C39.9619996,140.6805 39.8501673,140.609 39.7145,140.532 C39.5788327,140.455 39.4074177,140.3835 39.20025,140.3175 C38.9930823,140.2515 38.7300016,140.2185 38.411,140.2185 C38.0369981,140.2185 37.6932516,140.283583 37.37975,140.41375 C37.0662484,140.543917 36.7967511,140.729999 36.57125,140.972 C36.3457489,141.214001 36.1697506,141.508248 36.04325,141.85475 C35.9167494,142.201252 35.8535,142.590831 35.8535,143.0235 C35.8535,143.470836 35.9167494,143.868665 36.04325,144.217 C36.1697506,144.565335 36.3411656,144.858665 36.5575,145.097 C36.7738344,145.335335 37.0286652,145.517749 37.322,145.64425 C37.6153348,145.770751 37.930665,145.834 38.268,145.834 C38.4696677,145.834 38.6520825,145.823 38.81525,145.801 C38.9784175,145.779 39.1287493,145.744167 39.26625,145.6965 C39.4037507,145.648833 39.5339161,145.587417 39.65675,145.51225 C39.7795839,145.437083 39.9014994,145.344501 40.0225,145.2345 C40.0591668,145.2015 40.0976665,145.174917 40.138,145.15475 C40.1783335,145.134583 40.2223331,145.1245 40.27,145.1245 Z M49.169,147 L48.025,147 C47.896666,147 47.7912504,146.967917 47.70875,146.90375 C47.6262496,146.839583 47.5666668,146.759834 47.53,146.6645 L46.936,145.042 L43.6415,145.042 L43.0475,146.6645 C43.0181665,146.748834 42.9604171,146.825833 42.87425,146.8955 C42.7880829,146.965167 42.6826673,147 42.558,147 L41.4085,147 L44.5325,139.047 L46.045,139.047 L49.169,147 Z M44.021,143.997 L46.5565,143.997 L45.5885,141.3515 C45.5444998,141.234166 45.4959169,141.095751 45.44275,140.93625 C45.3895831,140.776749 45.3373336,140.603501 45.286,140.4165 C45.2346664,140.603501 45.1842502,140.777666 45.13475,140.939 C45.0852498,141.100334 45.0366669,141.241499 44.989,141.3625 L44.021,143.997 Z M50.764,139.047 C50.8300003,139.047 50.8849998,139.04975 50.929,139.05525 C50.9730002,139.06075 51.0124165,139.07175 51.04725,139.08825 C51.0820835,139.10475 51.1159998,139.128583 51.149,139.15975 C51.1820002,139.190917 51.2186665,139.232166 51.259,139.2835 L55.4335,144.602 C55.4188333,144.473666 55.40875,144.348084 55.40325,144.22525 C55.39775,144.102416 55.395,143.987834 55.395,143.8815 L55.395,139.047 L56.6985,139.047 L56.6985,147 L55.934,147 C55.8166661,147 55.7195004,146.981667 55.6425,146.945 C55.5654996,146.908333 55.4903337,146.842334 55.417,146.747 L51.259,141.4505 C51.2700001,141.567834 51.27825,141.684249 51.28375,141.79975 C51.28925,141.915251 51.292,142.020666 51.292,142.116 L51.292,147 L49.9885,147 L49.9885,139.047 L50.764,139.047 Z M65.3665,143.0235 C65.3665,143.606503 65.2693343,144.141831 65.075,144.6295 C64.8806657,145.117169 64.6075018,145.536998 64.2555,145.889 C63.9034982,146.241002 63.4800025,146.514166 62.985,146.7085 C62.4899975,146.902834 61.9418363,147 61.3405,147 L58.3045,147 L58.3045,139.047 L61.3405,139.047 C61.9418363,139.047 62.4899975,139.145082 62.985,139.34125 C63.4800025,139.537418 63.9034982,139.810582 64.2555,140.16075 C64.6075018,140.510918 64.8806657,140.929831 65.075,141.4175 C65.2693343,141.905169 65.3665,142.440497 65.3665,143.0235 Z M63.854,143.0235 C63.854,142.587164 63.7953339,142.195752 63.678,141.84925 C63.5606661,141.502748 63.3938344,141.209418 63.1775,140.96925 C62.9611656,140.729082 62.6980849,140.544834 62.38825,140.4165 C62.0784151,140.288166 61.7291686,140.224 61.3405,140.224 L59.795,140.224 L59.795,145.823 L61.3405,145.823 C61.7291686,145.823 62.0784151,145.758834 62.38825,145.6305 C62.6980849,145.502166 62.9611656,145.317918 63.1775,145.07775 C63.3938344,144.837582 63.5606661,144.544252 63.678,144.19775 C63.7953339,143.851248 63.854,143.459836 63.854,143.0235 Z M68.1935,147 L66.7085,147 L66.7085,139.047 L68.1935,139.047 L68.1935,147 Z M77.043,143.0235 C77.043,143.606503 76.9458343,144.141831 76.7515,144.6295 C76.5571657,145.117169 76.2840018,145.536998 75.932,145.889 C75.5799982,146.241002 75.1565025,146.514166 74.6615,146.7085 C74.1664975,146.902834 73.6183363,147 73.017,147 L69.981,147 L69.981,139.047 L73.017,139.047 C73.6183363,139.047 74.1664975,139.145082 74.6615,139.34125 C75.1565025,139.537418 75.5799982,139.810582 75.932,140.16075 C76.2840018,140.510918 76.5571657,140.929831 76.7515,141.4175 C76.9458343,141.905169 77.043,142.440497 77.043,143.0235 Z M75.5305,143.0235 C75.5305,142.587164 75.4718339,142.195752 75.3545,141.84925 C75.2371661,141.502748 75.0703344,141.209418 74.854,140.96925 C74.6376656,140.729082 74.3745849,140.544834 74.06475,140.4165 C73.7549151,140.288166 73.4056686,140.224 73.017,140.224 L71.4715,140.224 L71.4715,145.823 L73.017,145.823 C73.4056686,145.823 73.7549151,145.758834 74.06475,145.6305 C74.3745849,145.502166 74.6376656,145.317918 74.854,145.07775 C75.0703344,144.837582 75.2371661,144.544252 75.3545,144.19775 C75.4718339,143.851248 75.5305,143.459836 75.5305,143.0235 Z M85.194,147 L84.05,147 C83.921666,147 83.8162504,146.967917 83.73375,146.90375 C83.6512496,146.839583 83.5916668,146.759834 83.555,146.6645 L82.961,145.042 L79.6665,145.042 L79.0725,146.6645 C79.0431665,146.748834 78.9854171,146.825833 78.89925,146.8955 C78.8130829,146.965167 78.7076673,147 78.583,147 L77.4335,147 L80.5575,139.047 L82.07,139.047 L85.194,147 Z M80.046,143.997 L82.5815,143.997 L81.6135,141.3515 C81.5694998,141.234166 81.5209169,141.095751 81.46775,140.93625 C81.4145831,140.776749 81.3623336,140.603501 81.311,140.4165 C81.2596664,140.603501 81.2092502,140.777666 81.15975,140.939 C81.1102498,141.100334 81.0616669,141.241499 81.014,141.3625 L80.046,143.997 Z M91.618,139.047 L91.618,140.2625 L89.2255,140.2625 L89.2255,147 L87.746,147 L87.746,140.2625 L85.3425,140.2625 L85.3425,139.047 L91.618,139.047 Z M97.5745,139.047 L97.5745,140.224 L94.049,140.224 L94.049,142.4295 L96.8265,142.4295 L96.8265,143.568 L94.049,143.568 L94.049,145.8175 L97.5745,145.8175 L97.5745,147 L92.5585,147 L92.5585,139.047 L97.5745,139.047 Z" id="RELEASECANDIDATE" fill="#003055" fill-rule="nonzero"></path>
                    <path d="M34.803,79 L34.803,71.047 L37.5475,71.047 C38.0681693,71.047 38.5127482,71.0964995 38.88125,71.1955 C39.2497518,71.2945005 39.5522488,71.4356657 39.78875,71.619 C40.0252512,71.8023343 40.1984994,72.0241654 40.3085,72.2845 C40.4185005,72.5448346 40.4735,72.838165 40.4735,73.1645 C40.4735,73.3515009 40.4460003,73.5302491 40.391,73.70075 C40.3359997,73.8712509 40.2507506,74.0307493 40.13525,74.17925 C40.0197494,74.3277507 39.8730842,74.4624994 39.69525,74.5835 C39.5174158,74.7045006 39.3056679,74.8071662 39.06,74.8915 C40.1526721,75.1371679 40.699,75.7274953 40.699,76.6625 C40.699,76.999835 40.634834,77.3114986 40.5065,77.5975 C40.378166,77.8835014 40.1911679,78.1300823 39.9455,78.33725 C39.6998321,78.5444177 39.3973351,78.7066661 39.038,78.824 C38.6786649,78.9413339 38.2680023,79 37.806,79 L34.803,79 Z M36.2825,75.513 L36.2825,77.845 L37.784,77.845 C38.0590014,77.845 38.2890824,77.8120003 38.47425,77.746 C38.6594176,77.6799997 38.8079161,77.5920005 38.91975,77.482 C39.0315839,77.3719995 39.1122498,77.2436674 39.16175,77.097 C39.2112502,76.9503326 39.236,76.7945008 39.236,76.6295 C39.236,76.4571658 39.2085003,76.3022507 39.1535,76.16475 C39.0984997,76.0272493 39.0123339,75.9099172 38.895,75.81275 C38.7776661,75.7155828 38.6273342,75.6413336 38.444,75.59 C38.2606658,75.5386664 38.0388346,75.513 37.7785,75.513 L36.2825,75.513 Z M36.2825,74.49 L37.465,74.49 C37.9673358,74.49 38.3486654,74.3983343 38.609,74.215 C38.8693346,74.0316658 38.9995,73.7401687 38.9995,73.3405 C38.9995,72.9261646 38.8821678,72.6310009 38.6475,72.455 C38.4128322,72.2789991 38.0461692,72.191 37.5475,72.191 L36.2825,72.191 L36.2825,74.49 Z M46.9855,71.047 L46.9855,72.224 L43.46,72.224 L43.46,74.4295 L46.2375,74.4295 L46.2375,75.568 L43.46,75.568 L43.46,77.8175 L46.9855,77.8175 L46.9855,79 L41.9695,79 L41.9695,71.047 L46.9855,71.047 Z M53.8715,71.047 L53.8715,72.2625 L51.479,72.2625 L51.479,79 L49.9995,79 L49.9995,72.2625 L47.596,72.2625 L47.596,71.047 L53.8715,71.047 Z M61.8025,79 L60.6585,79 C60.530166,79 60.4247504,78.967917 60.34225,78.90375 C60.2597496,78.839583 60.2001669,78.7598338 60.1635,78.6645 L59.5695,77.042 L56.275,77.042 L55.681,78.6645 C55.6516665,78.7488338 55.5939171,78.825833 55.50775,78.8955 C55.4215829,78.965167 55.3161673,79 55.1915,79 L54.042,79 L57.166,71.047 L58.6785,71.047 L61.8025,79 Z M56.6545,75.997 L59.19,75.997 L58.222,73.3515 C58.1779998,73.2341661 58.1294169,73.0957508 58.07625,72.93625 C58.0230831,72.7767492 57.9708336,72.6035009 57.9195,72.4165 C57.8681664,72.6035009 57.8177502,72.7776659 57.76825,72.939 C57.7187498,73.1003341 57.6701669,73.2414994 57.6225,73.3625 L56.6545,75.997 Z" id="BETA" fill="#003055" fill-rule="nonzero"></path>
                    <path d="M37.993,10.5315 C38.2423346,10.5315 38.4650824,10.4902504 38.66125,10.40775 C38.8574176,10.3252496 39.0233327,10.2070008 39.159,10.053 C39.2946673,9.89899923 39.3982496,9.71108444 39.46975,9.48925 C39.5412504,9.26741556 39.577,9.01533474 39.577,8.733 L39.577,3.9865 L41.436,3.9865 L41.436,8.733 C41.436,9.22433579 41.3562508,9.67533128 41.19675,10.086 C41.0372492,10.4966687 40.8090015,10.8504985 40.512,11.1475 C40.2149985,11.4445015 39.8538355,11.6754992 39.4285,11.8405 C39.0031645,12.0055008 38.5246693,12.088 37.993,12.088 C37.457664,12.088 36.9773355,12.0055008 36.552,11.8405 C36.1266645,11.6754992 35.7655015,11.4445015 35.4685,11.1475 C35.1714985,10.8504985 34.9441675,10.4966687 34.7865,10.086 C34.6288325,9.67533128 34.55,9.22433579 34.55,8.733 L34.55,3.9865 L36.409,3.9865 L36.409,8.7275 C36.409,9.00983474 36.4447496,9.26191556 36.51625,9.48375 C36.5877504,9.70558444 36.6913327,9.89441589 36.827,10.05025 C36.9626673,10.2060841 37.1285824,10.3252496 37.32475,10.40775 C37.5209176,10.4902504 37.7436654,10.5315 37.993,10.5315 Z M43.625,3.9865 C43.7056671,3.9865 43.7734997,3.99016663 43.8285,3.9975 C43.8835003,4.00483337 43.9329998,4.01858323 43.977,4.03875 C44.0210002,4.05891677 44.0631665,4.08733315 44.1035,4.124 C44.1438335,4.16066685 44.1896664,4.21016635 44.241,4.2725 L48.047,9.085 C48.0323333,8.93099923 48.0213334,8.78158406 48.014,8.63675 C48.0066666,8.49191594 48.003,8.35533398 48.003,8.227 L48.003,3.9865 L49.642,3.9865 L49.642,12 L48.674,12 C48.5309993,12 48.4100005,11.9780002 48.311,11.934 C48.2119995,11.8899998 48.1166671,11.8093339 48.025,11.692 L44.2465,6.918 C44.2575001,7.05733403 44.2666666,7.193916 44.274,7.32775 C44.2813334,7.461584 44.285,7.58716608 44.285,7.7045 L44.285,12 L42.646,12 L42.646,3.9865 L43.625,3.9865 Z M58.233,7.9905 C58.233,8.56983623 58.1330843,9.10424755 57.93325,9.59375 C57.7334157,10.0832524 57.4520018,10.5067482 57.089,10.86425 C56.7259982,11.2217518 56.2887526,11.5004157 55.77725,11.70025 C55.2657474,11.9000843 54.6983364,12 54.075,12 L50.962,12 L50.962,3.9865 L54.075,3.9865 C54.6983364,3.9865 55.2657474,4.08733232 55.77725,4.289 C56.2887526,4.49066768 56.7259982,4.76933156 57.089,5.125 C57.4520018,5.48066844 57.7334157,5.90324755 57.93325,6.39275 C58.1330843,6.88225245 58.233,7.41483046 58.233,7.9905 Z M56.33,7.9905 C56.33,7.59449802 56.2786672,7.2370016 56.176,6.918 C56.0733328,6.59899841 55.925751,6.32858444 55.73325,6.10675 C55.540749,5.88491556 55.3051681,5.71441726 55.0265,5.59525 C54.7478319,5.47608274 54.4306684,5.4165 54.075,5.4165 L52.832,5.4165 L52.832,10.57 L54.075,10.57 C54.4306684,10.57 54.7478319,10.5104173 55.0265,10.39125 C55.3051681,10.2720827 55.540749,10.1015844 55.73325,9.87975 C55.925751,9.65791556 56.0733328,9.38750159 56.176,9.0685 C56.2786672,8.7494984 56.33,8.39016866 56.33,7.9905 Z M64.283,3.9865 L64.283,5.4165 L60.994,5.4165 L60.994,7.2865 L63.513,7.2865 L63.513,8.6615 L60.994,8.6615 L60.994,10.57 L64.283,10.57 L64.283,12 L59.124,12 L59.124,3.9865 L64.283,3.9865 Z M67.198,9.0355 L67.198,12 L65.339,12 L65.339,3.9865 L67.946,3.9865 C68.5253362,3.9865 69.0194146,4.04608274 69.42825,4.16525 C69.8370854,4.28441726 70.1707487,4.45033227 70.42925,4.663 C70.6877513,4.87566773 70.8756661,5.12683189 70.993,5.4165 C71.1103339,5.70616811 71.169,6.0214983 71.169,6.3625 C71.169,6.62283464 71.134167,6.86849885 71.0645,7.0995 C70.994833,7.33050116 70.8912507,7.54408235 70.75375,7.74025 C70.6162493,7.93641765 70.4475843,8.11149923 70.24775,8.2655 C70.0479157,8.41950077 69.8178346,8.5459995 69.5575,8.645 C69.6821673,8.70733365 69.7985828,8.78433288 69.90675,8.876 C70.0149172,8.96766712 70.1093329,9.07949934 70.19,9.2115 L71.895,12 L70.212,12 C69.9003318,12 69.6766673,11.8826678 69.541,11.648 L68.21,9.3215 C68.151333,9.21883282 68.0825837,9.14550022 68.00375,9.1015 C67.9249163,9.05749978 67.8140007,9.0355 67.671,9.0355 L67.198,9.0355 Z M67.198,7.754 L67.946,7.754 C68.1990013,7.754 68.4144158,7.72191699 68.59225,7.65775 C68.7700842,7.59358301 68.9158328,7.50466723 69.0295,7.391 C69.1431672,7.27733276 69.2256664,7.14441743 69.277,6.99225 C69.3283336,6.84008257 69.354,6.67600088 69.354,6.5 C69.354,6.14799824 69.2394178,5.87300099 69.01025,5.675 C68.7810822,5.47699901 68.4263357,5.378 67.946,5.378 L67.198,5.378 L67.198,7.754 Z M41.931,22.9905 C41.931,23.5698362 41.8310843,24.1042476 41.63125,24.59375 C41.4314157,25.0832524 41.1500018,25.5067482 40.787,25.86425 C40.4239982,26.2217518 39.9867526,26.5004157 39.47525,26.70025 C38.9637474,26.9000843 38.3963364,27 37.773,27 L34.66,27 L34.66,18.9865 L37.773,18.9865 C38.3963364,18.9865 38.9637474,19.0873323 39.47525,19.289 C39.9867526,19.4906677 40.4239982,19.7693316 40.787,20.125 C41.1500018,20.4806684 41.4314157,20.9032476 41.63125,21.39275 C41.8310843,21.8822524 41.931,22.4148305 41.931,22.9905 Z M40.028,22.9905 C40.028,22.594498 39.9766672,22.2370016 39.874,21.918 C39.7713328,21.5989984 39.623751,21.3285844 39.43125,21.10675 C39.238749,20.8849156 39.0031681,20.7144173 38.7245,20.59525 C38.4458319,20.4760827 38.1286684,20.4165 37.773,20.4165 L36.53,20.4165 L36.53,25.57 L37.773,25.57 C38.1286684,25.57 38.4458319,25.5104173 38.7245,25.39125 C39.0031681,25.2720827 39.238749,25.1015844 39.43125,24.87975 C39.623751,24.6579156 39.7713328,24.3875016 39.874,24.0685 C39.9766672,23.7494984 40.028,23.3901687 40.028,22.9905 Z M47.981,18.9865 L47.981,20.4165 L44.692,20.4165 L44.692,22.2865 L47.211,22.2865 L47.211,23.6615 L44.692,23.6615 L44.692,25.57 L47.981,25.57 L47.981,27 L42.822,27 L42.822,18.9865 L47.981,18.9865 Z M48.377,18.9865 L49.873,18.9865 C50.0343341,18.9865 50.1663328,19.0231663 50.269,19.0965 C50.3716672,19.1698337 50.4449998,19.2669994 50.489,19.388 L52.04,23.678 C52.109667,23.8650009 52.1802496,24.0684989 52.25175,24.2885 C52.3232504,24.5085011 52.3901664,24.7394988 52.4525,24.9815 C52.5038336,24.7394988 52.5634163,24.5085011 52.63125,24.2885 C52.6990837,24.0684989 52.7659997,23.8650009 52.832,23.678 L54.372,19.388 C54.4086669,19.2853328 54.4801661,19.1927504 54.5865,19.11025 C54.6928339,19.0277496 54.8229992,18.9865 54.977,18.9865 L56.484,18.9865 L53.272,27 L51.589,27 L48.377,18.9865 Z M62.303,18.9865 L62.303,20.4165 L59.014,20.4165 L59.014,22.2865 L61.533,22.2865 L61.533,23.6615 L59.014,23.6615 L59.014,25.57 L62.303,25.57 L62.303,27 L57.144,27 L57.144,18.9865 L62.303,18.9865 Z M65.218,25.515 L68.188,25.515 L68.188,27 L63.359,27 L63.359,18.9865 L65.218,18.9865 L65.218,25.515 Z M76.977,22.9905 C76.977,23.5698362 76.8770843,24.1088308 76.67725,24.6075 C76.4774157,25.1061692 76.1960018,25.5397482 75.833,25.90825 C75.4699982,26.2767518 75.0327526,26.565499 74.52125,26.7745 C74.0097474,26.983501 73.4423364,27.088 72.819,27.088 C72.1956636,27.088 71.6273359,26.983501 71.114,26.7745 C70.6006641,26.565499 70.1615852,26.2767518 69.79675,25.90825 C69.4319148,25.5397482 69.1495843,25.1061692 68.94975,24.6075 C68.7499157,24.1088308 68.65,23.5698362 68.65,22.9905 C68.65,22.4111638 68.7499157,21.8721692 68.94975,21.3735 C69.1495843,20.8748308 69.4319148,20.4421685 69.79675,20.0755 C70.1615852,19.7088315 70.6006641,19.421001 71.114,19.212 C71.6273359,19.002999 72.1956636,18.8985 72.819,18.8985 C73.4423364,18.8985 74.0097474,19.0039156 74.52125,19.21475 C75.0327526,19.4255844 75.4699982,19.7143315 75.833,20.081 C76.1960018,20.4476685 76.4774157,20.8803308 76.67725,21.379 C76.8770843,21.8776692 76.977,22.4148305 76.977,22.9905 Z M75.074,22.9905 C75.074,22.594498 75.0226672,22.2379183 74.92,21.92075 C74.8173328,21.6035817 74.669751,21.3350011 74.47725,21.115 C74.284749,20.8949989 74.0491681,20.7263339 73.7705,20.609 C73.4918319,20.4916661 73.1746684,20.433 72.819,20.433 C72.4596649,20.433 72.1397514,20.4916661 71.85925,20.609 C71.5787486,20.7263339 71.342251,20.8949989 71.14975,21.115 C70.957249,21.3350011 70.8096672,21.6035817 70.707,21.92075 C70.6043328,22.2379183 70.553,22.594498 70.553,22.9905 C70.553,23.3901687 70.6043328,23.7485817 70.707,24.06575 C70.8096672,24.3829183 70.957249,24.6514989 71.14975,24.8715 C71.342251,25.0915011 71.5787486,25.2592494 71.85925,25.37475 C72.1397514,25.4902506 72.4596649,25.548 72.819,25.548 C73.1746684,25.548 73.4918319,25.4902506 73.7705,25.37475 C74.0491681,25.2592494 74.284749,25.0915011 74.47725,24.8715 C74.669751,24.6514989 74.8173328,24.3829183 74.92,24.06575 C75.0226672,23.7485817 75.074,23.3901687 75.074,22.9905 Z M79.727,24.3215 L79.727,27 L77.868,27 L77.868,18.9865 L80.695,18.9865 C81.2596695,18.9865 81.7445813,19.053416 82.14975,19.18725 C82.5549187,19.321084 82.888582,19.5053322 83.15075,19.74 C83.412918,19.9746678 83.6063327,20.2514984 83.731,20.5705 C83.8556673,20.8895016 83.918,21.2341648 83.918,21.6045 C83.918,22.0041687 83.853834,22.3708317 83.7255,22.7045 C83.597166,23.0381683 83.4010013,23.3241655 83.137,23.5625 C82.8729987,23.8008345 82.5384187,23.986916 82.13325,24.12075 C81.7280813,24.254584 81.2486694,24.3215 80.695,24.3215 L79.727,24.3215 Z M79.727,22.919 L80.695,22.919 C81.1790024,22.919 81.5273323,22.8035012 81.74,22.5725 C81.9526677,22.3414988 82.059,22.0188354 82.059,21.6045 C82.059,21.4211658 82.0315003,21.2543341 81.9765,21.104 C81.9214997,20.9536659 81.8380839,20.8244172 81.72625,20.71625 C81.6144161,20.6080828 81.4732509,20.524667 81.30275,20.466 C81.1322491,20.407333 80.9296678,20.378 80.695,20.378 L79.727,20.378 L79.727,22.919 Z M88.9835,23.337 C89.0568337,23.476334 89.1274163,23.6211659 89.19525,23.7715 C89.2630837,23.9218341 89.3281664,24.0758325 89.3905,24.2335 C89.4528336,24.0721659 89.518833,23.9154174 89.5885,23.76325 C89.658167,23.6110826 89.7296663,23.4635007 89.803,23.3205 L91.86,19.2725 C91.8966669,19.202833 91.9342498,19.1487502 91.97275,19.11025 C92.0112502,19.0717498 92.0543331,19.0433334 92.102,19.025 C92.1496669,19.0066666 92.2037497,18.9956667 92.26425,18.992 C92.3247503,18.9883333 92.3953329,18.9865 92.476,18.9865 L93.895,18.9865 L93.895,27 L92.256,27 L92.256,22.391 C92.256,22.1673322 92.2669999,21.9253346 92.289,21.665 L90.166,25.7845 C90.0999997,25.912834 90.0110839,26.0099997 89.89925,26.076 C89.7874161,26.1420003 89.6600007,26.175 89.517,26.175 L89.264,26.175 C89.1209993,26.175 88.9935839,26.1420003 88.88175,26.076 C88.7699161,26.0099997 88.6810003,25.912834 88.615,25.7845 L86.481,21.6595 C86.4956667,21.787834 86.5066666,21.9152494 86.514,22.04175 C86.5213334,22.1682506 86.525,22.2846661 86.525,22.391 L86.525,27 L84.886,27 L84.886,18.9865 L86.305,18.9865 C86.3856671,18.9865 86.4562497,18.9883333 86.51675,18.992 C86.5772503,18.9956667 86.6313331,19.0066666 86.679,19.025 C86.7266669,19.0433334 86.7697498,19.0717498 86.80825,19.11025 C86.8467502,19.1487502 86.8843332,19.202833 86.921,19.2725 L88.9835,23.337 Z M100.374,18.9865 L100.374,20.4165 L97.085,20.4165 L97.085,22.2865 L99.604,22.2865 L99.604,23.6615 L97.085,23.6615 L97.085,25.57 L100.374,25.57 L100.374,27 L95.215,27 L95.215,18.9865 L100.374,18.9865 Z M102.409,18.9865 C102.489667,18.9865 102.5575,18.9901666 102.6125,18.9975 C102.6675,19.0048334 102.717,19.0185832 102.761,19.03875 C102.805,19.0589168 102.847166,19.0873332 102.8875,19.124 C102.927834,19.1606669 102.973666,19.2101664 103.025,19.2725 L106.831,24.085 C106.816333,23.9309992 106.805333,23.7815841 106.798,23.63675 C106.790667,23.4919159 106.787,23.355334 106.787,23.227 L106.787,18.9865 L108.426,18.9865 L108.426,27 L107.458,27 C107.314999,27 107.194,26.9780002 107.095,26.934 C106.996,26.8899998 106.900667,26.8093339 106.809,26.692 L103.0305,21.918 C103.0415,22.057334 103.050667,22.193916 103.058,22.32775 C103.065333,22.461584 103.069,22.5871661 103.069,22.7045 L103.069,27 L101.43,27 L101.43,18.9865 L102.409,18.9865 Z M115.565,18.9865 L115.565,20.4605 L113.31,20.4605 L113.31,27 L111.451,27 L111.451,20.4605 L109.196,20.4605 L109.196,18.9865 L115.565,18.9865 Z" id="UNDERDEVELOPMENT" fill="#003055" fill-rule="nonzero"></path>
                </g>
            </g>
        </g>
    </g>
</svg>