<svg id="Vert_-_UD" data-name="Vert - UD" xmlns="http://www.w3.org/2000/svg" xmlns:xlink="http://www.w3.org/1999/xlink" viewBox="0 0 125.12 214"><defs><style>.cls-1,.cls-2{fill:none;}.cls-1{clip-rule:evenodd;}.cls-3{clip-path:url(#clip-path);}.cls-4{clip-path:url(#clip-path-2);}.cls-5{fill:#c4c3c3;}.cls-6{clip-path:url(#clip-path-3);}.cls-7{clip-path:url(#clip-path-4);}.cls-8{clip-path:url(#clip-path-5);}.cls-9{clip-path:url(#clip-path-6);}.cls-10{clip-path:url(#clip-path-7);}.cls-11{clip-path:url(#clip-path-8);}.cls-12{fill:#47d9bf;}.cls-13{clip-path:url(#clip-path-9);}.cls-14{clip-path:url(#clip-path-11);}.cls-15{clip-path:url(#clip-path-13);}.cls-16{clip-path:url(#clip-path-14);}.cls-17,.cls-18{fill:#fff;}.cls-17{opacity:0;}.cls-19{clip-path:url(#clip-path-15);}.cls-20{clip-path:url(#clip-path-17);}.cls-21{clip-path:url(#clip-path-18);}</style><clipPath id="clip-path" transform="translate(2.63 -1)"><path class="cls-1" d="M16.51,28h0A1.43,1.43,0,0,1,18,29.35v51.3a1.51,1.51,0,0,1-3,0V29.35A1.43,1.43,0,0,1,16.51,28Z"/></clipPath><clipPath id="clip-path-2" transform="translate(2.63 -1)"><rect class="cls-2" x="-24.99" y="-93" width="1366" height="3407"/></clipPath><clipPath id="clip-path-3" transform="translate(2.63 -1)"><path class="cls-1" d="M16.51,73h0A1.5,1.5,0,0,1,18,74.5v57a1.5,1.5,0,0,1-3,0v-57A1.5,1.5,0,0,1,16.51,73Z"/></clipPath><clipPath id="clip-path-4" transform="translate(2.63 -1)"><rect class="cls-2" x="-24.99" y="-116" width="1366" height="3407"/></clipPath><clipPath id="clip-path-5" transform="translate(2.63 -1)"><path class="cls-1" d="M16.51,143h0a1.5,1.5,0,0,1,1.5,1.5v44a1.5,1.5,0,0,1-3,0v-44A1.5,1.5,0,0,1,16.51,143Z"/></clipPath><clipPath id="clip-path-6" transform="translate(2.63 -1)"><rect class="cls-2" x="-24.99" y="-106" width="1366" height="3407"/></clipPath><clipPath id="clip-path-7" transform="translate(2.63 -1)"><circle class="cls-2" cx="16.51" cy="16" r="10"/></clipPath><clipPath id="clip-path-8" transform="translate(2.63 -1)"><rect class="cls-2" x="-24.49" y="-113" width="1366" height="3407"/></clipPath><clipPath id="clip-path-9" transform="translate(2.63 -1)"><circle class="cls-2" cx="16.51" cy="76" r="10"/></clipPath><clipPath id="clip-path-11" transform="translate(2.63 -1)"><circle class="cls-2" cx="16.51" cy="136" r="10"/></clipPath><clipPath id="clip-path-13" transform="translate(2.63 -1)"><circle class="cls-2" cx="16.37" cy="196" r="14"/></clipPath><clipPath id="clip-path-14" transform="translate(2.63 -1)"><rect class="cls-2" x="-24.63" y="-113" width="1366" height="3407"/></clipPath><clipPath id="clip-path-15" transform="translate(2.63 -1)"><circle class="cls-2" cx="16.51" cy="196" r="10"/></clipPath><clipPath id="clip-path-17" transform="translate(2.63 -1)"><polygon class="cls-1" points="18.59 14 18.13 14.46 15.68 16.91 14.83 16.24 14.32 15.83 13.51 16.85 14.02 17.25 15.32 18.3 15.78 18.66 16.19 18.25 19.05 15.38 19.51 14.92 18.59 14"/></clipPath><clipPath id="clip-path-18" transform="translate(2.63 -1)"><rect class="cls-2" x="-24.49" y="-113" width="1366" height="3407"/></clipPath></defs><title>progress-vertical-UD</title><g class="cls-3"><g class="cls-4"><rect class="cls-5" x="12.64" y="30" width="13" height="70"/></g></g><g class="cls-6"><g class="cls-7"><rect class="cls-5" x="12.64" y="67" width="13" height="70"/></g></g><g class="cls-8"><g class="cls-9"><rect class="cls-5" x="12.64" y="137" width="13" height="57"/></g></g><g class="cls-10"><g class="cls-11"><rect class="cls-12" x="4.14" width="30" height="30"/></g></g><g class="cls-13"><g class="cls-11"><rect class="cls-5" x="4.14" y="60" width="30" height="30"/></g></g><g class="cls-14"><g class="cls-11"><rect class="cls-5" x="4.14" y="120" width="30" height="30"/></g></g><g class="cls-15"><g class="cls-16"><rect class="cls-17" y="176" width="38" height="38"/></g></g><path class="cls-18" d="M16.51,31a15,15,0,1,1,15-15A15,15,0,0,1,16.51,31Zm0-28a13,13,0,1,0,13,13A13,13,0,0,0,16.51,3Z" transform="translate(2.63 -1)"/><g class="cls-19"><g class="cls-11"><rect class="cls-5" x="4.14" y="180" width="30" height="30"/></g></g><g class="cls-20"><g class="cls-21"><rect class="cls-18" x="11.14" y="8" width="16" height="14.66"/></g></g><path class="cls-18" d="M39.87,11a1.69,1.69,0,0,0,.66-.12,1.22,1.22,0,0,0,.5-.36,1.45,1.45,0,0,0,.31-.56,2.49,2.49,0,0,0,.11-.76V4.49h1.86V9.23a3.74,3.74,0,0,1-.24,1.36,3.16,3.16,0,0,1-.68,1.06,3.12,3.12,0,0,1-1.09.69,3.8,3.8,0,0,1-1.43.25,3.9,3.9,0,0,1-1.45-.25,3.18,3.18,0,0,1-1.08-.69,3,3,0,0,1-.68-1.06,3.74,3.74,0,0,1-.24-1.36V4.49h1.86V9.23a2.47,2.47,0,0,0,.11.75,1.49,1.49,0,0,0,.31.57,1.28,1.28,0,0,0,.5.36A1.74,1.74,0,0,0,39.87,11Z" transform="translate(2.63 -1)"/><path class="cls-18" d="M46.25,4.5a.33.33,0,0,1,.15,0l.13.08.13.15,3.81,4.81c0-.15,0-.3,0-.44s0-.28,0-.41V4.49h1.63v8h-1a.82.82,0,0,1-.37-.07.75.75,0,0,1-.28-.24L46.67,7.42l0,.41c0,.13,0,.26,0,.37v4.3H45.07v-8h1.18Z" transform="translate(2.63 -1)"/><path class="cls-18" d="M61.21,8.49a4.18,4.18,0,0,1-.3,1.6,3.73,3.73,0,0,1-.85,1.27,3.78,3.78,0,0,1-1.31.84,4.63,4.63,0,0,1-1.7.3H53.94v-8h3.11a4.63,4.63,0,0,1,1.7.3,3.91,3.91,0,0,1,1.31.83,3.83,3.83,0,0,1,.85,1.27A4.22,4.22,0,0,1,61.21,8.49Zm-1.91,0a3.55,3.55,0,0,0-.15-1.07,2.25,2.25,0,0,0-.44-.81A1.79,1.79,0,0,0,58,6.1a2.4,2.4,0,0,0-1-.18H55.8v5.15h1.25a2.4,2.4,0,0,0,1-.18,2,2,0,0,0,.71-.51,2.25,2.25,0,0,0,.44-.81A3.61,3.61,0,0,0,59.3,8.49Z" transform="translate(2.63 -1)"/><path class="cls-18" d="M67.81,4.49V5.92H64.52V7.79H67V9.16H64.52v1.91h3.29V12.5H62.65v-8Z" transform="translate(2.63 -1)"/><path class="cls-18" d="M71.27,9.54v3H69.41v-8H72a5.3,5.3,0,0,1,1.48.18,2.67,2.67,0,0,1,1,.49,2,2,0,0,1,.57.76,2.62,2.62,0,0,1,.17.94,2.31,2.31,0,0,1-.41,1.38,2.55,2.55,0,0,1-.51.53,2.85,2.85,0,0,1-.69.38,1.51,1.51,0,0,1,.35.23,1.29,1.29,0,0,1,.28.33L76,12.5H74.29a.73.73,0,0,1-.68-.35L72.28,9.82a.62.62,0,0,0-.2-.22.77.77,0,0,0-.34-.06Zm0-1.29H72a2.08,2.08,0,0,0,.65-.09,1.32,1.32,0,0,0,.43-.27.94.94,0,0,0,.25-.4A1.53,1.53,0,0,0,73.43,7a1.05,1.05,0,0,0-.35-.83A1.64,1.64,0,0,0,72,5.88h-.75Z" transform="translate(2.63 -1)"/><path class="cls-18" d="M43.8,23.69a4.18,4.18,0,0,1-.3,1.6,3.71,3.71,0,0,1-.84,1.27,3.78,3.78,0,0,1-1.31.84,4.63,4.63,0,0,1-1.7.3H36.53v-8h3.12a4.63,4.63,0,0,1,1.7.3,3.78,3.78,0,0,1,1.31.84,3.67,3.67,0,0,1,.84,1.26A4.22,4.22,0,0,1,43.8,23.69Zm-1.9,0a3.55,3.55,0,0,0-.15-1.07,2.27,2.27,0,0,0-.45-.81,1.7,1.7,0,0,0-.7-.51,2.4,2.4,0,0,0-1-.18H38.4v5.15h1.25a2.4,2.4,0,0,0,1-.18,1.89,1.89,0,0,0,.7-.51,2.27,2.27,0,0,0,.45-.81A3.61,3.61,0,0,0,41.9,23.69Z" transform="translate(2.63 -1)"/><path class="cls-18" d="M50.4,19.69v1.43H47.11V23h2.52v1.37H47.11v1.91H50.4V27.7H45.25v-8Z" transform="translate(2.63 -1)"/><path class="cls-18" d="M51.35,19.69h1.5a.6.6,0,0,1,.39.11.58.58,0,0,1,.22.29L55,24.38c.07.19.14.39.21.61s.14.45.21.69c0-.24.11-.47.17-.69l.2-.61,1.54-4.29a.64.64,0,0,1,.22-.28.65.65,0,0,1,.39-.12h1.51l-3.22,8H54.56Z" transform="translate(2.63 -1)"/><path class="cls-18" d="M65.83,19.69v1.43H62.54V23h2.52v1.37H62.54v1.91h3.29V27.7H60.67v-8Z" transform="translate(2.63 -1)"/><path class="cls-18" d="M69.29,26.22h3V27.7H67.43v-8h1.86Z" transform="translate(2.63 -1)"/><path class="cls-18" d="M81.16,23.69a4.32,4.32,0,0,1-.3,1.62,3.93,3.93,0,0,1-.84,1.3,3.73,3.73,0,0,1-1.32.86,4.68,4.68,0,0,1-3.4,0A3.64,3.64,0,0,1,74,26.61a3.81,3.81,0,0,1-.85-1.3,4.52,4.52,0,0,1,0-3.24,3.88,3.88,0,0,1,2.17-2.16A4.44,4.44,0,0,1,77,19.6a4.26,4.26,0,0,1,1.7.32,3.87,3.87,0,0,1,1.32.86,3.93,3.93,0,0,1,.84,1.3A4.31,4.31,0,0,1,81.16,23.69Zm-1.9,0a3.25,3.25,0,0,0-.16-1.07,2.21,2.21,0,0,0-.44-.8,1.93,1.93,0,0,0-.71-.51,2.37,2.37,0,0,0-1-.18,2.42,2.42,0,0,0-1,.18,1.93,1.93,0,0,0-.71.51,2.21,2.21,0,0,0-.44.8,3.55,3.55,0,0,0-.15,1.07,3.61,3.61,0,0,0,.15,1.08,2.29,2.29,0,0,0,.44.8,1.8,1.8,0,0,0,.71.5,2.42,2.42,0,0,0,1,.18,2.37,2.37,0,0,0,1-.18,1.8,1.8,0,0,0,.71-.5,2.29,2.29,0,0,0,.44-.8A3.31,3.31,0,0,0,79.26,23.69Z" transform="translate(2.63 -1)"/><path class="cls-18" d="M84.46,25V27.7H82.6v-8h2.83a4.46,4.46,0,0,1,1.45.2,2.74,2.74,0,0,1,1,.55,2,2,0,0,1,.58.83,2.7,2.7,0,0,1,.19,1,3,3,0,0,1-.19,1.1,2.24,2.24,0,0,1-.59.86,2.69,2.69,0,0,1-1,.56,4.47,4.47,0,0,1-1.44.2Zm0-1.4h1a1.36,1.36,0,0,0,1-.35,1.34,1.34,0,0,0,.32-1,1.59,1.59,0,0,0-.08-.5,1,1,0,0,0-.25-.38,1.09,1.09,0,0,0-.42-.25,1.91,1.91,0,0,0-.61-.09h-1Z" transform="translate(2.63 -1)"/><path class="cls-18" d="M94.48,24.47l.19.46c.06-.16.13-.31.2-.47s.14-.3.22-.44l2-4.05a.55.55,0,0,1,.12-.16.34.34,0,0,1,.12-.09.47.47,0,0,1,.17,0h1.63v8H97.54V23.09q0-.33,0-.72l-2.12,4.11a.7.7,0,0,1-.65.4h-.25a.84.84,0,0,1-.39-.1.7.7,0,0,1-.26-.3l-2.14-4.12c0,.13,0,.26,0,.38s0,.24,0,.35V27.7H90.17v-8H91.8a.41.41,0,0,1,.16,0,.38.38,0,0,1,.13.09.41.41,0,0,1,.11.16L94.27,24Z" transform="translate(2.63 -1)"/><path class="cls-18" d="M106.21,19.69v1.43h-3.29V23h2.52v1.37h-2.52v1.91h3.29V27.7h-5.16v-8Z" transform="translate(2.63 -1)"/><path class="cls-18" d="M109,19.7l.14,0a.57.57,0,0,1,.13.08l.14.15,3.8,4.82q0-.24,0-.45c0-.15,0-.28,0-.41V19.69h1.64v8h-1a.8.8,0,0,1-.36-.07.7.7,0,0,1-.29-.24l-3.78-4.77,0,.41c0,.13,0,.26,0,.37v4.3h-1.64v-8H109Z" transform="translate(2.63 -1)"/><path class="cls-18" d="M122.5,19.69v1.47h-2.26V27.7h-1.86V21.16h-2.25V19.69Z" transform="translate(2.63 -1)"/><path class="cls-5" d="M36.68,80.57V72.62h2.74a5.08,5.08,0,0,1,1.33.15,2.56,2.56,0,0,1,.91.42,1.61,1.61,0,0,1,.52.67,2.23,2.23,0,0,1,.17.88,1.6,1.6,0,0,1-.09.53,1.57,1.57,0,0,1-.25.48,2.18,2.18,0,0,1-.44.41,2.53,2.53,0,0,1-.64.3c1.1.25,1.64.84,1.64,1.77a2.26,2.26,0,0,1-.19.94,2.14,2.14,0,0,1-.56.74,2.73,2.73,0,0,1-.91.49,4.2,4.2,0,0,1-1.23.17Zm1.48-4.51h1.18a2,2,0,0,0,1.14-.27,1.23,1.23,0,0,0,0-1.76,1.8,1.8,0,0,0-1.1-.27H38.16Zm0,1v2.33h1.5a2.29,2.29,0,0,0,.69-.1,1.27,1.27,0,0,0,.44-.27.85.85,0,0,0,.24-.38,1.45,1.45,0,0,0,.08-.47,1.3,1.3,0,0,0-.08-.46.83.83,0,0,0-.26-.35,1.2,1.2,0,0,0-.45-.23,2.65,2.65,0,0,0-.67-.07Z" transform="translate(2.63 -1)"/><path class="cls-5" d="M49.41,72.62V73.8H45.88V76h2.78v1.14H45.88v2.25h3.53v1.18h-5V72.62Z" transform="translate(2.63 -1)"/><path class="cls-5" d="M56.84,72.62v1.21H54.45v6.74H53V73.83h-2.4V72.62Z" transform="translate(2.63 -1)"/><path class="cls-5" d="M64.52,80.57H63.37a.5.5,0,0,1-.31-.09.51.51,0,0,1-.18-.24l-.6-1.63H59l-.59,1.63a.54.54,0,0,1-.18.23.46.46,0,0,1-.31.1H56.76l3.12-7.95h1.51Zm-5.15-3H61.9l-1-2.65a3.68,3.68,0,0,1-.15-.41L60.63,74c-.05.19-.1.36-.15.52l-.14.42Z" transform="translate(2.63 -1)"/><path class="cls-5" d="M38.21,131v3.11H36.73v-7.95h2.42a5.21,5.21,0,0,1,1.4.17,2.73,2.73,0,0,1,1,.47,1.8,1.8,0,0,1,.54.72,2.33,2.33,0,0,1,.17.93,2.41,2.41,0,0,1-.11.76,2.18,2.18,0,0,1-.89,1.16,3.24,3.24,0,0,1-.75.35,1.4,1.4,0,0,1,.48.46l2,2.93H41.6a.66.66,0,0,1-.32-.07.8.8,0,0,1-.23-.22l-1.67-2.55a.56.56,0,0,0-.21-.2.6.6,0,0,0-.33-.07Zm0-1.06h.92a2.3,2.3,0,0,0,.73-.1,1.48,1.48,0,0,0,.51-.29,1.23,1.23,0,0,0,.3-.44,1.63,1.63,0,0,0,.1-.55,1.1,1.1,0,0,0-.4-.93,1.89,1.89,0,0,0-1.22-.33h-.94Z" transform="translate(2.63 -1)"/><path class="cls-5" d="M49.45,126.12v1.18H45.92v2.2H48.7v1.14H45.92v2.25h3.53v1.18h-5v-7.95Z" transform="translate(2.63 -1)"/><path class="cls-5" d="M52.76,132.85h3.18v1.22H51.28v-7.95h1.48Z" transform="translate(2.63 -1)"/><path class="cls-5" d="M62.53,126.12v1.18H59v2.2h2.77v1.14H59v2.25h3.52v1.18h-5v-7.95Z" transform="translate(2.63 -1)"/><path class="cls-5" d="M71.35,134.07H70.21a.55.55,0,0,1-.32-.09.69.69,0,0,1-.18-.24l-.59-1.63H65.83l-.6,1.63a.51.51,0,0,1-.17.23.49.49,0,0,1-.32.1H63.59l3.13-7.95h1.51Zm-5.14-3h2.53l-1-2.65c0-.11-.09-.25-.14-.41a5.36,5.36,0,0,1-.16-.52c0,.19-.1.36-.15.52s-.1.3-.15.42Z" transform="translate(2.63 -1)"/><path class="cls-5" d="M77,127.57a.63.63,0,0,1-.14.17.41.41,0,0,1-.19.05.45.45,0,0,1-.25-.09l-.33-.19a2.91,2.91,0,0,0-.43-.19,1.82,1.82,0,0,0-.6-.08,1.7,1.7,0,0,0-.53.07,1.22,1.22,0,0,0-.39.21.79.79,0,0,0-.23.31,1.11,1.11,0,0,0-.08.41.71.71,0,0,0,.16.46,1.07,1.07,0,0,0,.42.32,3.49,3.49,0,0,0,.58.24l.68.22a5.58,5.58,0,0,1,.67.28,2.16,2.16,0,0,1,.59.39,1.78,1.78,0,0,1,.41.59,1.94,1.94,0,0,1,.16.84,2.79,2.79,0,0,1-.18,1,2.54,2.54,0,0,1-.54.82,2.58,2.58,0,0,1-.87.55,3.26,3.26,0,0,1-1.17.2,3.81,3.81,0,0,1-.75-.07,3.35,3.35,0,0,1-.7-.22,3.51,3.51,0,0,1-.64-.33,3.08,3.08,0,0,1-.52-.42l.43-.71a.43.43,0,0,1,.14-.13.33.33,0,0,1,.19-.06.53.53,0,0,1,.3.12l.38.25a3,3,0,0,0,.51.25,2.06,2.06,0,0,0,.7.11,1.44,1.44,0,0,0,1-.3,1.09,1.09,0,0,0,.35-.86.76.76,0,0,0-.16-.51,1.24,1.24,0,0,0-.41-.33,2.9,2.9,0,0,0-.59-.23l-.67-.21a5.46,5.46,0,0,1-.67-.26,2.19,2.19,0,0,1-.59-.4,2,2,0,0,1-.42-.62,2.46,2.46,0,0,1-.15-.92,2.15,2.15,0,0,1,.68-1.57,2.4,2.4,0,0,1,.81-.52A3.19,3.19,0,0,1,75,126a3.66,3.66,0,0,1,1.3.22,3,3,0,0,1,1,.62Z" transform="translate(2.63 -1)"/><path class="cls-5" d="M84.19,126.12v1.18H80.66v2.2h2.78v1.14H80.66v2.25h3.53v1.18h-5v-7.95Z" transform="translate(2.63 -1)"/><path class="cls-5" d="M42.14,145.4a.29.29,0,0,1,.21.09l.59.63a3.19,3.19,0,0,1-1.2.92,4.11,4.11,0,0,1-1.69.32,4,4,0,0,1-1.59-.3,3.37,3.37,0,0,1-1.21-.84,3.64,3.64,0,0,1-.77-1.29,4.76,4.76,0,0,1-.27-1.63,4.4,4.4,0,0,1,.3-1.65,3.85,3.85,0,0,1,.84-1.28,3.79,3.79,0,0,1,1.29-.84,4.4,4.4,0,0,1,1.65-.3,4,4,0,0,1,1.55.28,3.5,3.5,0,0,1,1.14.76l-.5.68a.32.32,0,0,1-.11.12.33.33,0,0,1-.19.05.5.5,0,0,1-.26-.1,3.76,3.76,0,0,0-.33-.22,4,4,0,0,0-.52-.21,2.49,2.49,0,0,0-.79-.1,2.7,2.7,0,0,0-1,.2,2.38,2.38,0,0,0-.81.55,2.61,2.61,0,0,0-.52.89,3.26,3.26,0,0,0-.19,1.17,3.42,3.42,0,0,0,.19,1.19,2.46,2.46,0,0,0,.51.88,2.28,2.28,0,0,0,.76.55,2.52,2.52,0,0,0,1,.19,3.16,3.16,0,0,0,.55,0,2.11,2.11,0,0,0,.45-.1,1.76,1.76,0,0,0,.39-.19,2.65,2.65,0,0,0,.37-.27.28.28,0,0,1,.11-.08A.31.31,0,0,1,42.14,145.4Z" transform="translate(2.63 -1)"/><path class="cls-5" d="M51.59,147.27H50.45a.53.53,0,0,1-.32-.09.69.69,0,0,1-.18-.24l-.59-1.63h-3.3l-.59,1.63a.6.6,0,0,1-.17.23.49.49,0,0,1-.32.1H43.83l3.13-8h1.51Zm-5.15-3H49l-1-2.65c0-.11-.09-.25-.14-.41a5.36,5.36,0,0,1-.16-.52c-.05.19-.1.36-.15.52s-.1.3-.15.42Z" transform="translate(2.63 -1)"/><path class="cls-5" d="M53.9,139.33a.24.24,0,0,1,.12,0l.1.07a.81.81,0,0,1,.11.13l4.18,5.31a2.31,2.31,0,0,1,0-.37c0-.12,0-.24,0-.35v-4.83h1.3v8h-.76a.76.76,0,0,1-.29-.05.7.7,0,0,1-.23-.2l-4.16-5.3,0,.35v5.2H53v-8h.94Z" transform="translate(2.63 -1)"/><path class="cls-5" d="M68.89,143.3a4.38,4.38,0,0,1-.29,1.6,3.76,3.76,0,0,1-.82,1.26,3.66,3.66,0,0,1-1.27.82,4.4,4.4,0,0,1-1.65.29h-3v-8h3a4.61,4.61,0,0,1,1.65.29,3.81,3.81,0,0,1,1.27.82,3.76,3.76,0,0,1,.82,1.26A4.39,4.39,0,0,1,68.89,143.3Zm-1.51,0a3.61,3.61,0,0,0-.18-1.18,2.53,2.53,0,0,0-.5-.88,2.21,2.21,0,0,0-.79-.55,2.69,2.69,0,0,0-1-.19H63.32v5.6h1.54a2.69,2.69,0,0,0,1-.2,2.21,2.21,0,0,0,.79-.55,2.44,2.44,0,0,0,.5-.88A3.59,3.59,0,0,0,67.38,143.3Z" transform="translate(2.63 -1)"/><path class="cls-5" d="M72.27,147.27H70.78v-8h1.49Z" transform="translate(2.63 -1)"/><path class="cls-5" d="M81.67,143.3a4.18,4.18,0,0,1-.3,1.6,3.48,3.48,0,0,1-.82,1.26,3.57,3.57,0,0,1-1.27.82,4.31,4.31,0,0,1-1.64.29h-3v-8h3a4.52,4.52,0,0,1,1.64.29,3.71,3.71,0,0,1,1.27.82,3.48,3.48,0,0,1,.82,1.26A4.2,4.2,0,0,1,81.67,143.3Zm-1.52,0a3.91,3.91,0,0,0-.17-1.18,2.7,2.7,0,0,0-.5-.88,2.21,2.21,0,0,0-.79-.55,2.69,2.69,0,0,0-1-.19H76.09v5.6h1.55a2.69,2.69,0,0,0,1-.2,2.21,2.21,0,0,0,.79-.55,2.6,2.6,0,0,0,.5-.88A3.89,3.89,0,0,0,80.15,143.3Z" transform="translate(2.63 -1)"/><path class="cls-5" d="M90.09,147.27H88.94a.5.5,0,0,1-.31-.09.51.51,0,0,1-.18-.24l-.6-1.63H84.56l-.6,1.63a.45.45,0,0,1-.17.23.46.46,0,0,1-.31.1H82.33l3.12-8H87Zm-5.15-3h2.53l-1-2.65a3.68,3.68,0,0,1-.15-.41c0-.16-.11-.33-.16-.52,0,.19-.1.36-.15.52s-.1.3-.14.42Z" transform="translate(2.63 -1)"/><path class="cls-5" d="M96.25,139.32v1.22H93.86v6.73H92.38v-6.73H90v-1.22Z" transform="translate(2.63 -1)"/><path class="cls-5" d="M102.76,139.32v1.18H99.23v2.2H102v1.14H99.23v2.25h3.53v1.18h-5v-8Z" transform="translate(2.63 -1)"/><path class="cls-5" d="M40.33,192.65a3.75,3.75,0,0,0,.87-.09,3.52,3.52,0,0,0,.71-.25v-1.44h-1a.31.31,0,0,1-.22-.08.27.27,0,0,1-.09-.2v-.83h2.65V193a4.12,4.12,0,0,1-.63.39,4.82,4.82,0,0,1-.7.26,6.13,6.13,0,0,1-.79.16,8.81,8.81,0,0,1-.92.05,4.18,4.18,0,0,1-1.6-.3,3.67,3.67,0,0,1-1.26-.84,3.79,3.79,0,0,1-.84-1.29,4.34,4.34,0,0,1-.3-1.63,4.4,4.4,0,0,1,.3-1.65,3.74,3.74,0,0,1,.82-1.29,3.86,3.86,0,0,1,1.3-.83,4.7,4.7,0,0,1,1.72-.3A4.56,4.56,0,0,1,42,186a3.82,3.82,0,0,1,1.2.75l-.43.67a.37.37,0,0,1-.33.21.48.48,0,0,1-.27-.09l-.36-.21a2.2,2.2,0,0,0-.41-.18,3,3,0,0,0-.5-.13,4,4,0,0,0-.64,0,2.74,2.74,0,0,0-1.06.2,2.25,2.25,0,0,0-.82.57,2.55,2.55,0,0,0-.51.88,3.92,3.92,0,0,0,0,2.38,2.65,2.65,0,0,0,.54.91,2.35,2.35,0,0,0,.82.56A2.76,2.76,0,0,0,40.33,192.65Z" transform="translate(2.63 -1)"/><path class="cls-5" d="M50.19,185.79V187H46.67v2.2h2.78v1.14H46.67v2.25h3.52v1.18h-5v-8Z" transform="translate(2.63 -1)"/><path class="cls-5" d="M53,185.8a.27.27,0,0,1,.12,0l.1.07.11.13,4.17,5.32,0-.38c0-.12,0-.24,0-.35v-4.83h1.31v8H58a.63.63,0,0,1-.29-.05.58.58,0,0,1-.22-.2l-4.16-5.3c0,.12,0,.24,0,.35s0,.22,0,.32v4.88H52v-8H53Z" transform="translate(2.63 -1)"/><path class="cls-5" d="M65.91,185.79V187H62.38v2.2h2.78v1.14H62.38v2.25h3.53v1.18h-5v-8Z" transform="translate(2.63 -1)"/><path class="cls-5" d="M69.27,190.64v3.1H67.79v-8h2.42a5.15,5.15,0,0,1,1.4.17,2.64,2.64,0,0,1,1,.47,1.83,1.83,0,0,1,.55.72,2.52,2.52,0,0,1,.17.93,2.37,2.37,0,0,1-.12.76,2.24,2.24,0,0,1-.34.65,2.45,2.45,0,0,1-.55.51,3.24,3.24,0,0,1-.75.35,1.53,1.53,0,0,1,.49.46l2,2.93H72.67a.67.67,0,0,1-.33-.07.8.8,0,0,1-.23-.22l-1.67-2.55a.5.5,0,0,0-.21-.2.69.69,0,0,0-.33-.06Zm0-1.07h.92a2.3,2.3,0,0,0,.73-.1,1.39,1.39,0,0,0,.51-.29,1,1,0,0,0,.3-.44,1.38,1.38,0,0,0,.1-.55,1.12,1.12,0,0,0-.4-.93,1.87,1.87,0,0,0-1.22-.33h-.94Z" transform="translate(2.63 -1)"/><path class="cls-5" d="M82.49,193.74H81.34a.55.55,0,0,1-.32-.09.56.56,0,0,1-.17-.24l-.6-1.62H77l-.6,1.62a.51.51,0,0,1-.17.23.49.49,0,0,1-.32.1H74.73l3.12-8h1.51Zm-5.15-3h2.53l-1-2.65c0-.11-.09-.25-.14-.41s-.11-.33-.16-.52c0,.19-.1.36-.15.52l-.14.43Z" transform="translate(2.63 -1)"/><path class="cls-5" d="M85.33,192.52h3.19v1.22H83.85v-8h1.48Z" transform="translate(2.63 -1)"/><path class="cls-5" d="M43.67,206.94H42.52a.5.5,0,0,1-.31-.09.51.51,0,0,1-.18-.24l-.6-1.62H38.14l-.6,1.62a.45.45,0,0,1-.17.23.46.46,0,0,1-.31.1H35.91L39,199h1.51Zm-5.15-3h2.53l-1-2.65a3.68,3.68,0,0,1-.15-.41c0-.16-.11-.33-.16-.52-.05.19-.1.36-.15.52l-.14.43Z" transform="translate(2.63 -1)"/><path class="cls-5" d="M43.33,199h1.19a.5.5,0,0,1,.31.09.64.64,0,0,1,.18.25l1.87,4.85a3.16,3.16,0,0,1,.18.52c.06.19.11.38.17.59a5.9,5.9,0,0,1,.31-1.11l1.86-4.85a.59.59,0,0,1,.18-.24.52.52,0,0,1,.31-.1h1.2l-3.22,7.95H46.54Z" transform="translate(2.63 -1)"/><path class="cls-5" d="M58.53,206.94H57.38a.5.5,0,0,1-.31-.09.51.51,0,0,1-.18-.24l-.6-1.62H53l-.59,1.62a.54.54,0,0,1-.18.23.46.46,0,0,1-.31.1H50.77L53.89,199H55.4Zm-5.15-3h2.54l-1-2.65a3.68,3.68,0,0,1-.15-.41l-.16-.52c0,.19-.1.36-.15.52s-.09.31-.14.43Z" transform="translate(2.63 -1)"/><path class="cls-5" d="M61.56,206.94H60.08V199h1.48Z" transform="translate(2.63 -1)"/><path class="cls-5" d="M65.38,205.72h3.18v1.22H63.9V199h1.48Z" transform="translate(2.63 -1)"/><path class="cls-5" d="M77.13,206.94H76a.52.52,0,0,1-.31-.09.69.69,0,0,1-.18-.24L74.9,205H71.6L71,206.61a.54.54,0,0,1-.18.23.46.46,0,0,1-.31.1H69.37L72.49,199H74Zm-5.15-3h2.54l-1-2.65c0-.11-.09-.25-.15-.41s-.1-.33-.15-.52l-.16.52c0,.16-.09.31-.14.43Z" transform="translate(2.63 -1)"/><path class="cls-5" d="M78.5,206.94V199h2.74a5.21,5.21,0,0,1,1.34.15,2.59,2.59,0,0,1,.9.42,1.67,1.67,0,0,1,.52.67,2.23,2.23,0,0,1,.17.88,1.89,1.89,0,0,1-.08.53,1.61,1.61,0,0,1-.26.48,1.93,1.93,0,0,1-.44.41,2.53,2.53,0,0,1-.64.3c1.1.25,1.64.84,1.64,1.78a2.24,2.24,0,0,1-.19.93,2,2,0,0,1-.56.74,2.73,2.73,0,0,1-.91.49,4.2,4.2,0,0,1-1.23.17ZM80,202.43h1.18a2,2,0,0,0,1.14-.27,1.23,1.23,0,0,0,0-1.76,1.8,1.8,0,0,0-1.1-.27H80Zm0,1v2.33h1.5a2,2,0,0,0,.69-.1,1.25,1.25,0,0,0,.44-.26.9.9,0,0,0,.25-.39,1.45,1.45,0,0,0,.07-.47,1.34,1.34,0,0,0-.08-.46.83.83,0,0,0-.26-.35,1.2,1.2,0,0,0-.45-.23,2.6,2.6,0,0,0-.67-.07Z" transform="translate(2.63 -1)"/><path class="cls-5" d="M87.88,206.94H86.4V199h1.48Z" transform="translate(2.63 -1)"/><path class="cls-5" d="M91.7,205.72h3.18v1.22H90.22V199H91.7Z" transform="translate(2.63 -1)"/><path class="cls-5" d="M98.12,206.94H96.64V199h1.48Z" transform="translate(2.63 -1)"/><path class="cls-5" d="M106.06,199v1.22h-2.39v6.73h-1.48v-6.73h-2.4V199Z" transform="translate(2.63 -1)"/><path class="cls-5" d="M111.09,203.85v3.09h-1.48v-3.09l-2.9-4.86H108a.47.47,0,0,1,.3.09.88.88,0,0,1,.19.24L110,202a4.66,4.66,0,0,1,.22.45c.06.14.12.27.17.41,0-.14.1-.28.16-.42a3.61,3.61,0,0,1,.22-.44l1.44-2.66a1,1,0,0,1,.19-.23.49.49,0,0,1,.3-.1H114Z" transform="translate(2.63 -1)"/></svg>