<svg width="1126" height="552" viewBox="0 0 1126 552" fill="none" xmlns="http://www.w3.org/2000/svg">
<mask id="mask0_1167_7744" style="mask-type:alpha" maskUnits="userSpaceOnUse" x="0" y="0" width="1306" height="552">
<path d="M0 0H1306V552H0V0Z" fill="#D9D9D9"/>
</mask>
<g mask="url(#mask0_1167_7744)">
<g filter="url(#filter0_d_1167_7744)">
<path d="M870.969 101.223C884.623 93.3397 911.043 95.8123 929.98 106.746L1135.71 225.525C1154.65 236.458 1158.93 251.712 1145.28 259.595L37.033 899.441C23.3791 907.324 -3.04125 904.851 -21.9784 893.918L-227.71 775.139C-246.648 764.205 -250.93 748.951 -237.276 741.068L870.969 101.223Z" fill="#0089BC"/>
</g>
<path d="M1105.46 206.066H1152.97V248.035H1105.46V206.066Z" fill="#0089BC"/>
<path d="M870.29 61.625C883.936 53.7466 910.35 56.2231 929.287 67.1564L1135.02 185.936C1153.96 196.869 1158.25 212.119 1144.6 219.998L37.0183 859.46C23.3725 867.338 -3.04123 864.862 -21.9783 853.929L-227.71 735.149C-246.648 724.216 -250.937 708.966 -237.291 701.087L870.29 61.625Z" fill="#EEEEEE"/>
<path d="M870.817 61.321C884.469 53.4389 910.888 55.9124 929.825 66.8458L1135.56 185.625C1154.49 196.559 1158.78 211.811 1145.13 219.694L37.0294 859.454C23.3772 867.336 -3.04166 864.862 -21.9788 853.929L-227.711 735.149C-246.648 724.216 -250.932 708.963 -237.28 701.081L870.817 61.321Z" fill="url(#paint0_linear_1167_7744)"/>
<path fill-rule="evenodd" clip-rule="evenodd" d="M180.662 457.595C182.607 456.69 184.916 457.533 185.821 459.477L243.819 584.086L435.731 622.415C437.834 622.835 439.198 624.88 438.778 626.983C438.358 629.086 436.313 630.45 434.21 630.03L238.439 590.931L178.78 462.754C177.876 460.81 178.718 458.5 180.662 457.595Z" fill="black" fill-opacity="0.1"/>
<path fill-rule="evenodd" clip-rule="evenodd" d="M260.942 412.759C262.901 411.885 265.197 412.765 266.07 414.723L321.056 537.971L515.968 577.607C518.069 578.034 519.426 580.084 518.999 582.186C518.572 584.288 516.522 585.645 514.42 585.217L315.592 544.785L258.978 417.887C258.104 415.929 258.984 413.633 260.942 412.759Z" fill="black" fill-opacity="0.1"/>
<path fill-rule="evenodd" clip-rule="evenodd" d="M342.282 365.994C344.248 365.136 346.537 366.034 347.395 368L400.682 490.067L597.294 530.858C599.394 531.294 600.743 533.349 600.308 535.449C599.872 537.549 597.816 538.898 595.717 538.462L395.171 496.855L340.277 371.107C339.419 369.141 340.317 366.852 342.282 365.994Z" fill="black" fill-opacity="0.1"/>
<path fill-rule="evenodd" clip-rule="evenodd" d="M423.161 320.936C425.135 320.097 427.415 321.017 428.254 322.991L479.766 444.141L678.149 485.817C680.247 486.258 681.591 488.316 681.151 490.415C680.71 492.514 678.651 493.858 676.552 493.417L474.205 450.908L421.107 326.029C420.268 324.056 421.188 321.776 423.161 320.936Z" fill="black" fill-opacity="0.1"/>
<path fill-rule="evenodd" clip-rule="evenodd" d="M501.987 275.117C503.961 274.277 506.241 275.197 507.08 277.171L558.592 398.321L756.975 439.997C759.073 440.438 760.417 442.497 759.977 444.595C759.536 446.694 757.477 448.038 755.378 447.597L553.031 405.089L499.933 280.209C499.094 278.236 500.014 275.956 501.987 275.117Z" fill="black" fill-opacity="0.1"/>
<path fill-rule="evenodd" clip-rule="evenodd" d="M580.036 228.365C582.01 227.526 584.29 228.445 585.129 230.419L636.641 351.569L835.023 393.245C837.122 393.686 838.466 395.745 838.025 397.844C837.584 399.942 835.525 401.286 833.427 400.845L631.079 358.337L577.982 233.458C577.143 231.484 578.062 229.204 580.036 228.365Z" fill="black" fill-opacity="0.1"/>
<path fill-rule="evenodd" clip-rule="evenodd" d="M663.599 179.438C665.573 178.599 667.853 179.519 668.692 181.492L720.204 302.643L918.587 344.319C920.685 344.76 922.029 346.818 921.588 348.917C921.147 351.016 919.089 352.36 916.99 351.919L714.642 309.41L661.545 184.531C660.706 182.558 661.626 180.278 663.599 179.438Z" fill="black" fill-opacity="0.1"/>
<path fill-rule="evenodd" clip-rule="evenodd" d="M745.221 132.687C747.195 131.847 749.475 132.767 750.314 134.741L801.826 255.891L1000.21 297.567C1002.31 298.008 1003.65 300.067 1003.21 302.165C1002.77 304.264 1000.71 305.608 998.612 305.167L796.264 262.658L743.167 137.779C742.328 135.806 743.247 133.526 745.221 132.687Z" fill="black" fill-opacity="0.1"/>
<path fill-rule="evenodd" clip-rule="evenodd" d="M827.386 87.6432C829.359 86.8041 831.639 87.7237 832.479 89.6973L883.991 210.848L1082.37 252.524C1084.47 252.965 1085.82 255.023 1085.37 257.122C1084.93 259.221 1082.88 260.565 1080.78 260.124L878.429 217.615L825.332 92.7361C824.493 90.7625 825.412 88.4824 827.386 87.6432Z" fill="black" fill-opacity="0.1"/>
<g filter="url(#filter1_d_1167_7744)">
<path fill-rule="evenodd" clip-rule="evenodd" d="M906.74 102.101L1043.38 102.646L1043.14 164.702C1044.43 170.633 1041.99 177.269 1035.83 180.537L982.268 208.939C978.058 211.172 973.015 211.174 968.803 208.945L914.306 180.113C909.353 177.492 906.806 172.706 906.656 167.855L906.478 167.854L906.74 102.101Z" fill="#61B1D1"/>
<path d="M1036.09 114.783C1046.24 109.402 1046.29 94.8839 1036.19 89.4221L982.859 60.594C978.667 58.3278 973.624 58.2853 969.394 60.4803L914.669 88.878C904.371 94.222 904.312 108.933 914.568 114.359L969.065 143.192C973.277 145.42 978.32 145.418 982.53 143.185L1036.09 114.783Z" fill="#67C2E8"/>
<path fill-rule="evenodd" clip-rule="evenodd" d="M975.747 102.376L906.741 102.102L906.479 167.855L906.657 167.855C906.807 172.706 909.354 177.492 914.307 180.113L968.804 208.946C970.974 210.094 973.364 210.65 975.747 210.614L975.747 102.376Z" fill="#569FBD"/>
<path d="M1036.09 114.783C1046.24 109.402 1046.3 94.8842 1036.19 89.4225L982.86 60.5943C978.668 58.3282 973.625 58.2856 969.396 60.4806L914.671 88.8783C904.372 94.2223 904.314 108.933 914.569 114.359L969.066 143.192C973.278 145.421 978.321 145.418 982.531 143.186L1036.09 114.783Z" fill="#67C2E8"/>
</g>
<mask id="mask1_1167_7744" style="mask-type:luminance" maskUnits="userSpaceOnUse" x="947" y="80" width="64" height="37">
<path fill-rule="evenodd" clip-rule="evenodd" d="M984.509 80.6758L1010.39 95.6159L973.591 116.86L947.714 101.919L984.509 80.6758Z" fill="white"/>
</mask>
<g mask="url(#mask1_1167_7744)">
<path fill-rule="evenodd" clip-rule="evenodd" d="M972.244 104.837L969.855 106.216C968.754 106.851 967.278 106.85 966.169 106.209C965.058 105.568 965.058 104.717 966.158 104.081L968.547 102.702C968.171 101.637 968.536 100.574 969.822 99.8317C972.211 98.4526 976.083 98.7784 977.936 100.483C978.859 101.442 978.867 102.72 977.953 103.675C976.665 104.843 974.271 105.158 972.244 104.837ZM993.793 103.063L977.157 93.458L982.485 90.3815C985.242 88.7902 989.479 88.4783 992.616 89.653C996.681 91.3635 997.251 94.6629 993.76 96.6786C992.657 97.3151 992.846 98.273 993.771 98.8066C994.695 99.3402 996.354 99.4495 997.457 98.8129C1002.79 95.7365 1002.57 90.5224 996.477 87.6391C991.118 85.1816 983.382 85.595 978.605 88.3532L973.46 91.3236L971.611 90.2564C970.687 89.7228 969.028 89.6136 967.926 90.2501L949.551 100.859C948.632 101.389 948.638 102.453 949.562 102.987L971.743 115.793C972.852 116.433 974.51 116.33 975.429 115.799L993.804 105.191C994.906 104.554 994.902 103.703 993.793 103.063Z" fill="#04518C"/>
</g>
<path fill-rule="evenodd" clip-rule="evenodd" d="M977.845 104.197C975.591 105.498 971.963 105.514 969.744 104.233C967.523 102.95 967.551 100.857 969.805 99.5554C972.057 98.2553 975.683 98.2388 977.904 99.521C980.123 100.802 980.097 102.897 977.845 104.197Z" fill="#00A1D9"/>
<path fill-rule="evenodd" clip-rule="evenodd" d="M965.785 106.614L965.495 106.447C964.43 105.832 964.444 104.819 965.521 104.197L969.042 102.164C970.12 101.541 971.873 101.534 972.939 102.149L973.228 102.317C974.292 102.931 974.279 103.943 973.201 104.565L969.68 106.598C968.603 107.22 966.848 107.228 965.785 106.614Z" fill="#00A1D9"/>
<g filter="url(#filter2_d_1167_7744)">
<path fill-rule="evenodd" clip-rule="evenodd" d="M471.247 352.449L607.89 352.993L607.643 415.049C608.938 420.981 606.496 427.617 600.335 430.884L546.775 459.286C542.565 461.519 537.522 461.521 533.31 459.293L478.813 430.46C473.86 427.84 471.313 423.053 471.163 418.203L470.985 418.202L471.247 352.449Z" fill="#00DBBB"/>
<path d="M600.596 365.13C610.744 359.749 610.802 345.231 600.697 339.77L547.366 310.941C543.173 308.675 538.131 308.633 533.901 310.828L479.176 339.225C468.878 344.569 468.819 359.28 479.075 364.706L533.572 393.539C537.784 395.768 542.827 395.765 547.037 393.533L600.596 365.13Z" fill="#40E6CF"/>
<path fill-rule="evenodd" clip-rule="evenodd" d="M540.254 352.724L471.248 352.449L470.986 418.202L471.164 418.203C471.313 423.054 473.861 427.84 478.814 430.46L533.311 459.293C535.48 460.441 537.871 460.997 540.254 460.961V352.724Z" fill="#00C4A7"/>
<path d="M600.598 365.131C610.745 359.75 610.803 345.232 600.699 339.77L547.367 310.942C543.175 308.676 538.132 308.633 533.902 310.828L479.177 339.226C468.879 344.57 468.82 359.281 479.076 364.707L533.573 393.539C537.785 395.768 542.828 395.766 547.038 393.533L600.598 365.131Z" fill="#40E6CF"/>
</g>
<g filter="url(#filter3_d_1167_7744)">
<path fill-rule="evenodd" clip-rule="evenodd" d="M610.876 266.397L747.519 266.942L747.272 328.998C748.566 334.929 746.125 341.565 739.963 344.832L686.404 373.235C682.194 375.467 677.151 375.47 672.939 373.241L618.442 344.408C613.489 341.788 610.941 337.002 610.792 332.151L610.614 332.15L610.876 266.397Z" fill="#BA026E"/>
<path d="M740.225 279.079C750.373 273.698 750.431 259.18 740.326 253.718L686.995 224.89C682.802 222.624 677.76 222.581 673.53 224.776L618.805 253.174C608.507 258.518 608.448 273.229 618.703 278.655L673.2 307.488C677.413 309.716 682.455 309.714 686.666 307.481L740.225 279.079Z" fill="#B74A89"/>
<path fill-rule="evenodd" clip-rule="evenodd" d="M679.885 266.672L610.877 266.398L610.615 332.151L610.793 332.151C610.942 337.002 613.49 341.788 618.443 344.409L672.94 373.242C675.11 374.39 677.501 374.946 679.885 374.91V266.672Z" fill="#9E005D"/>
<path d="M740.227 279.079C750.375 273.698 750.433 259.18 740.328 253.719L686.997 224.89C682.804 222.624 677.762 222.582 673.532 224.777L618.807 253.174C608.509 258.518 608.45 273.229 618.706 278.655L673.203 307.488C677.415 309.717 682.458 309.714 686.668 307.482L740.227 279.079Z" fill="#B74A89"/>
</g>
<path fill-rule="evenodd" clip-rule="evenodd" d="M513.687 348.032L519.473 344.691C519.695 344.563 519.918 344.486 520.141 344.408C520.858 347.392 526.477 351.664 532.718 354.754C533.208 354.574 533.742 354.42 534.321 354.292C526.609 350.559 519.384 344.742 522.856 342.738L528.642 339.397C528.731 339.346 528.82 339.295 528.998 339.243C529.985 344.233 545.099 352.959 553.787 353.555L553.475 353.735L549.247 356.176C554.107 359.188 554.025 363.92 548.906 366.875C543.743 369.856 535.279 369.852 530.062 366.841C526.897 365.013 525.646 362.492 526.311 360.152C518.198 356.444 510.037 350.139 513.687 348.032Z" fill="#04518C"/>
<path fill-rule="evenodd" clip-rule="evenodd" d="M536.296 365.143L532.997 363.238L536.202 361.388L532.992 359.535L536.241 357.659L539.451 359.512L542.656 357.662L545.955 359.567L542.75 361.417L545.916 363.244L542.666 365.12L539.501 363.293L536.296 365.143Z" fill="black"/>
<path fill-rule="evenodd" clip-rule="evenodd" d="M546.939 365.739C542.8 368.129 536.118 368.126 531.971 365.732C527.825 363.338 527.819 359.48 531.959 357.09C536.098 354.7 542.825 354.678 546.971 357.072C551.118 359.466 551.079 363.349 546.939 365.739Z" fill="#00A1D9"/>
<path fill-rule="evenodd" clip-rule="evenodd" d="M556.504 351.986C550.628 355.378 525.795 341.041 531.67 337.649L537.457 334.308C543.332 330.916 568.166 345.253 562.29 348.646L556.504 351.986Z" fill="#04518C"/>
<path fill-rule="evenodd" clip-rule="evenodd" d="M539.417 357.994C539.781 357.784 540.348 357.771 540.683 357.965L545.749 360.889C546.084 361.083 546.062 361.41 545.698 361.62C545.335 361.83 544.768 361.843 544.432 361.649L539.367 358.725C539.031 358.531 539.054 358.204 539.417 357.994Z" fill="#04518C"/>
<path fill-rule="evenodd" clip-rule="evenodd" d="M539.162 357.844L544.102 357.731C544.596 357.719 544.981 357.941 544.961 358.227C544.942 358.512 544.525 358.753 544.031 358.764L540.88 358.837L540.755 360.656C540.735 360.941 540.318 361.181 539.824 361.193C539.33 361.204 538.945 360.982 538.965 360.697L539.162 357.844Z" fill="#04518C"/>
<path fill-rule="evenodd" clip-rule="evenodd" d="M538.417 364.903L533.352 361.978C533.016 361.784 533.039 361.457 533.402 361.247C533.766 361.038 534.333 361.025 534.668 361.218L539.734 364.143C540.069 364.337 540.047 364.664 539.683 364.874C539.32 365.083 538.753 365.096 538.417 364.903Z" fill="#04518C"/>
<path fill-rule="evenodd" clip-rule="evenodd" d="M539.939 365.023L534.999 365.137C534.504 365.148 534.12 364.926 534.139 364.641C534.159 364.355 534.576 364.115 535.07 364.103L538.22 364.031L538.346 362.212C538.366 361.927 538.782 361.686 539.277 361.675C539.771 361.663 540.156 361.885 540.136 362.171L539.939 365.023Z" fill="#04518C"/>
<g filter="url(#filter4_d_1167_7744)">
<path fill-rule="evenodd" clip-rule="evenodd" d="M320.251 430.382L456.894 430.927L456.647 492.983C457.941 498.914 455.5 505.55 449.338 508.818L395.779 537.22C391.568 539.453 386.526 539.455 382.313 537.226L327.816 508.394C322.864 505.773 320.316 500.987 320.166 496.136L319.989 496.135L320.251 430.382Z" fill="#005EA7"/>
<path d="M449.6 443.064C459.748 437.683 459.805 423.165 449.701 417.703L396.37 388.875C392.177 386.609 387.135 386.566 382.905 388.761L328.18 417.159C317.881 422.503 317.823 437.214 328.078 442.64L382.575 471.473C386.788 473.701 391.83 473.699 396.041 471.466L449.6 443.064Z" fill="#04518C"/>
<path fill-rule="evenodd" clip-rule="evenodd" d="M389.259 430.657L320.252 430.382L319.99 496.135L320.168 496.136C320.318 500.987 322.865 505.773 327.818 508.394L382.315 537.226C384.485 538.374 386.876 538.93 389.259 538.894V430.657Z" fill="#003055"/>
<path d="M449.601 443.064C459.749 437.683 459.806 423.165 449.702 417.703L396.37 388.875C392.178 386.609 387.136 386.566 382.906 388.761L328.181 417.159C317.882 422.503 317.824 437.214 328.079 442.64L382.576 471.473C386.789 473.701 391.831 473.699 396.041 471.466L449.601 443.064Z" fill="#04518C"/>
</g>
<path fill-rule="evenodd" clip-rule="evenodd" d="M406.53 415.032L381.42 410.964L370.057 417.524C362.734 421.891 361.717 428.39 366.733 433.341C367.755 434.349 369.026 435.293 370.545 436.142C379.31 441.034 393.255 441.011 402.067 436.09L413.503 429.487L406.53 415.032Z" fill="#00A1D9"/>
<path fill-rule="evenodd" clip-rule="evenodd" d="M401.954 417.626L382.827 414.556L374.128 419.579C367.293 423.525 367.231 429.867 373.991 433.77C380.751 437.673 391.737 437.638 398.572 433.692L407.272 428.669L401.954 417.626Z" fill="#04518C"/>
<path fill-rule="evenodd" clip-rule="evenodd" d="M381.152 429.178L380.829 421.631C380.794 420.828 381.893 420.194 383.283 420.214C384.673 420.233 385.827 420.899 385.861 421.702L386.059 426.345L410.599 426.695C411.988 426.714 413.143 427.381 413.177 428.183C413.211 428.985 412.112 429.62 410.723 429.6L381.152 429.178Z" fill="#00A1D9"/>
<path fill-rule="evenodd" clip-rule="evenodd" d="M692.646 273.724C685.489 277.856 673.955 277.896 666.884 273.814C659.813 269.731 659.883 263.072 667.039 258.94C674.196 254.808 685.73 254.768 692.801 258.85C699.872 262.933 699.803 269.592 692.646 273.724Z" fill="#119FD6"/>
<mask id="mask2_1167_7744" style="mask-type:luminance" maskUnits="userSpaceOnUse" x="644" y="245" width="72" height="42">
<path fill-rule="evenodd" clip-rule="evenodd" d="M680.035 245.556L715.828 266.221L679.924 286.95L644.131 266.285L680.035 245.556Z" fill="white"/>
</mask>
<g mask="url(#mask2_1167_7744)">
<path fill-rule="evenodd" clip-rule="evenodd" d="M661.711 276.435C660.362 275.655 660.375 274.38 661.741 273.591C662.984 272.873 664.923 272.805 666.28 273.385L668.631 272.028L667.828 271.565C667.697 271.489 667.661 271.379 667.704 271.274C667.759 271.138 667.991 271.082 668.09 271.07L671.03 270.711C671.089 270.704 671.348 270.667 671.525 270.769C671.69 270.864 671.638 271.02 671.625 271.055L671.003 272.752C670.964 272.858 670.828 272.943 670.65 272.975C670.471 273.006 670.277 272.979 670.146 272.903L669.344 272.44L666.993 273.797C667.998 274.58 667.88 275.7 666.636 276.417C665.27 277.206 663.061 277.214 661.711 276.435ZM697.306 276.915C695.865 277.747 693.534 277.755 692.11 276.933C690.815 276.185 690.714 275.005 691.791 274.171L689.342 272.756L688.485 273.251C688.345 273.332 688.143 273.355 687.951 273.33C687.704 273.299 687.604 273.158 687.583 273.098L686.965 271.312C686.952 271.276 686.889 271.118 687.077 271.009C687.254 270.908 687.539 270.937 687.601 270.944L690.694 271.302C690.887 271.324 691.041 271.406 691.097 271.514C691.153 271.623 691.099 271.741 690.96 271.822L690.103 272.317L692.553 273.731C693.997 273.109 696.042 273.167 697.337 273.915C698.761 274.737 698.747 276.083 697.306 276.915ZM697.563 258.693C696.252 259.45 694.206 259.523 692.775 258.911L690.195 260.4L691.021 260.877C691.154 260.954 691.206 261.066 691.158 261.172C691.11 261.278 690.969 261.362 690.787 261.393L687.311 261.988C687.23 262.002 686.917 262.064 686.718 261.949C686.52 261.834 686.586 261.677 686.609 261.632L687.681 259.601C687.736 259.496 687.881 259.415 688.065 259.387C688.248 259.359 688.443 259.389 688.576 259.466L689.442 259.966L692.023 258.476C690.962 257.65 691.088 256.469 692.399 255.712C693.84 254.88 696.171 254.872 697.595 255.694C699.018 256.515 699.004 257.861 697.563 258.693ZM668.148 261.877C668.044 261.865 667.799 261.813 667.746 261.664C667.705 261.553 667.743 261.437 667.883 261.357L668.74 260.862L666.265 259.433C664.822 260.055 662.777 259.997 661.481 259.249C660.058 258.427 660.072 257.082 661.513 256.25C662.954 255.418 665.285 255.409 666.708 256.231C668.004 256.979 668.105 258.16 667.027 258.994L669.501 260.422L670.358 259.928C670.498 259.847 670.703 259.816 670.891 259.848C671.079 259.88 671.221 259.97 671.259 260.081L671.877 261.866C671.888 261.895 671.951 262.058 671.783 262.155C671.565 262.28 671.296 262.24 671.241 262.234L668.148 261.877Z" fill="#113154"/>
</g>
<mask id="mask3_1167_7744" style="mask-type:luminance" maskUnits="userSpaceOnUse" x="644" y="245" width="72" height="42">
<path fill-rule="evenodd" clip-rule="evenodd" d="M644.131 266.285L679.925 286.95L715.828 266.221L680.035 245.556L644.131 266.285Z" fill="white"/>
</mask>
<g mask="url(#mask3_1167_7744)">
<path fill-rule="evenodd" clip-rule="evenodd" d="M672.472 266.609L679.364 270.588L680.223 270.092L673.332 266.113L672.472 266.609ZM674.829 265.249L681.721 269.227L682.576 268.733L675.684 264.755L674.829 265.249ZM677.05 263.966L683.941 267.945L684.799 267.45L677.908 263.471L677.05 263.966ZM688.107 264.308L688.202 267.322L686.171 266.149C685.824 265.948 685.814 265.631 686.148 265.438L688.107 264.308ZM681.301 259.883C680.954 259.682 680.405 259.677 680.071 259.87L668.65 266.464C668.316 266.657 668.326 266.974 668.673 267.174L678.384 272.781C678.731 272.981 679.28 272.987 679.614 272.794L689.076 267.331L688.981 264.318L681.301 259.883Z" fill="#113154"/>
</g>
<g filter="url(#filter5_d_1167_7744)">
<path fill-rule="evenodd" clip-rule="evenodd" d="M760.617 191.4L897.26 191.944L897.013 254C898.307 259.932 895.865 266.568 889.704 269.835L836.144 298.237C831.934 300.47 826.891 300.472 822.679 298.244L768.182 269.411C763.229 266.79 760.682 262.004 760.532 257.154L760.355 257.153L760.617 191.4Z" fill="#CBCF40"/>
<path d="M889.966 204.081C900.113 198.7 900.171 184.182 890.067 178.721L836.735 149.893C832.543 147.626 827.5 147.584 823.27 149.779L768.546 178.177C758.247 183.521 758.189 198.232 768.444 203.657L822.941 232.49C827.153 234.719 832.196 234.716 836.406 232.484L889.966 204.081Z" fill="#D9DE3A"/>
<path fill-rule="evenodd" clip-rule="evenodd" d="M829.624 191.675L760.617 191.4L760.355 257.153L760.532 257.154C760.682 262.005 763.229 266.791 768.182 269.411L822.679 298.244C824.85 299.392 827.24 299.948 829.624 299.912V191.675Z" fill="#BABE3C"/>
<path d="M889.967 204.082C900.114 198.701 900.172 184.183 890.068 178.721L836.736 149.893C832.544 147.627 827.501 147.584 823.271 149.779L768.546 178.177C758.248 183.521 758.189 198.232 768.445 203.658L822.942 232.49C827.154 234.719 832.197 234.717 836.407 232.484L889.967 204.082Z" fill="#D9DE3A"/>
</g>
<mask id="mask4_1167_7744" style="mask-type:luminance" maskUnits="userSpaceOnUse" x="806" y="177" width="49" height="28">
<path fill-rule="evenodd" clip-rule="evenodd" d="M829.622 177.348L854.136 191.501L831.18 204.755L806.665 190.602L829.622 177.348Z" fill="white"/>
</mask>
<g mask="url(#mask4_1167_7744)">
<path fill-rule="evenodd" clip-rule="evenodd" d="M836.102 200.024L832.823 198.13C831.921 197.609 830.445 197.609 829.543 198.13L826.264 200.024C825.362 200.544 825.362 201.396 826.264 201.917L829.543 203.811C830.445 204.331 831.921 204.331 832.823 203.811L836.102 201.917C837.004 201.396 837.004 200.544 836.102 200.024ZM827.9 195.288L824.62 193.394C823.718 192.874 822.242 192.874 821.34 193.394L818.061 195.288C817.159 195.809 817.159 196.661 818.061 197.181L821.34 199.075C822.242 199.595 823.718 199.595 824.62 199.075L827.899 197.181C828.801 196.66 828.801 195.809 827.9 195.288ZM819.705 190.556L816.425 188.663C815.523 188.142 814.047 188.142 813.146 188.663L809.866 190.556C808.964 191.077 808.964 191.929 809.866 192.45L813.146 194.343C814.047 194.864 815.523 194.864 816.425 194.343L819.705 192.45C820.606 191.929 820.606 191.077 819.705 190.556ZM844.301 195.29L841.022 193.397C840.12 192.876 838.644 192.876 837.742 193.397L834.463 195.29C833.561 195.811 833.561 196.663 834.463 197.183L837.742 199.077C838.644 199.597 840.12 199.597 841.022 199.077L844.301 197.183C845.203 196.663 845.203 195.811 844.301 195.29ZM836.098 190.554L832.819 188.661C831.917 188.14 830.441 188.14 829.539 188.661L826.26 190.554C825.358 191.075 825.358 191.927 826.26 192.448L829.54 194.341C830.441 194.862 831.917 194.862 832.819 194.341L836.098 192.448C837 191.927 837 191.075 836.098 190.554ZM828.421 185.07L824.363 182.727C823.247 182.083 821.421 182.083 820.305 182.727L816.246 185.07C815.13 185.715 815.13 186.769 816.247 187.413L820.305 189.756C821.421 190.401 823.247 190.401 824.363 189.756L828.421 187.413C829.537 186.769 829.537 185.715 828.421 185.07ZM852.5 190.556L849.221 188.663C848.319 188.142 846.843 188.142 845.941 188.663L842.661 190.556C841.76 191.077 841.76 191.929 842.662 192.45L845.941 194.343C846.843 194.864 848.319 194.864 849.221 194.343L852.5 192.45C853.402 191.929 853.402 191.077 852.5 190.556ZM844.297 185.821L841.018 183.927C840.116 183.406 838.64 183.406 837.738 183.927L834.459 185.821C833.557 186.341 833.557 187.193 834.459 187.714L837.738 189.607C838.64 190.128 840.116 190.128 841.018 189.607L844.297 187.714C845.199 187.193 845.199 186.341 844.297 185.821ZM836.102 181.089L832.823 179.196C831.921 178.675 830.445 178.675 829.544 179.196L826.264 181.089C825.362 181.61 825.362 182.462 826.264 182.983L829.544 184.876C830.445 185.397 831.921 185.397 832.823 184.876L836.102 182.983C837.004 182.462 837.004 181.61 836.102 181.089Z" fill="#04A0D8"/>
</g>
<path fill-rule="evenodd" clip-rule="evenodd" d="M814.966 188.024C812.165 186.407 812.165 183.786 814.966 182.169C817.766 180.552 822.306 180.553 825.106 182.169C827.907 183.786 827.907 186.407 825.107 188.024C822.306 189.641 817.766 189.641 814.966 188.024ZM822.279 191.7C828.595 190.985 832.711 187.45 831.473 183.804C830.235 180.158 824.112 177.781 817.796 178.496C811.481 179.211 807.365 182.746 808.603 186.392C809.514 189.076 813.148 191.174 817.796 191.7L817.798 197.173C817.842 197.887 818.88 198.445 820.117 198.42C821.293 198.396 822.236 197.852 822.277 197.173L822.279 191.7Z" fill="#133055"/>
</g>
<defs>
<filter id="filter0_d_1167_7744" x="-255.263" y="91.6118" width="1418.53" height="827.44" filterUnits="userSpaceOnUse" color-interpolation-filters="sRGB">
<feFlood flood-opacity="0" result="BackgroundImageFix"/>
<feColorMatrix in="SourceAlpha" type="matrix" values="0 0 0 0 0 0 0 0 0 0 0 0 0 0 0 0 0 0 127 0" result="hardAlpha"/>
<feOffset dy="5"/>
<feGaussianBlur stdDeviation="5"/>
<feComposite in2="hardAlpha" operator="out"/>
<feColorMatrix type="matrix" values="0 0 0 0 0 0 0 0 0 0 0 0 0 0 0 0 0 0 0.15 0"/>
<feBlend mode="normal" in2="BackgroundImageFix" result="effect1_dropShadow_1167_7744"/>
<feBlend mode="normal" in="SourceGraphic" in2="effect1_dropShadow_1167_7744" result="shape"/>
</filter>
<filter id="filter1_d_1167_7744" x="897.478" y="53.8636" width="155.258" height="169.752" filterUnits="userSpaceOnUse" color-interpolation-filters="sRGB">
<feFlood flood-opacity="0" result="BackgroundImageFix"/>
<feColorMatrix in="SourceAlpha" type="matrix" values="0 0 0 0 0 0 0 0 0 0 0 0 0 0 0 0 0 0 127 0" result="hardAlpha"/>
<feOffset dy="4"/>
<feGaussianBlur stdDeviation="4.5"/>
<feComposite in2="hardAlpha" operator="out"/>
<feColorMatrix type="matrix" values="0 0 0 0 0 0 0 0 0 0 0 0 0 0 0 0 0 0 0.1 0"/>
<feBlend mode="normal" in2="BackgroundImageFix" result="effect1_dropShadow_1167_7744"/>
<feBlend mode="normal" in="SourceGraphic" in2="effect1_dropShadow_1167_7744" result="shape"/>
</filter>
<filter id="filter2_d_1167_7744" x="461.985" y="304.211" width="155.257" height="169.752" filterUnits="userSpaceOnUse" color-interpolation-filters="sRGB">
<feFlood flood-opacity="0" result="BackgroundImageFix"/>
<feColorMatrix in="SourceAlpha" type="matrix" values="0 0 0 0 0 0 0 0 0 0 0 0 0 0 0 0 0 0 127 0" result="hardAlpha"/>
<feOffset dy="4"/>
<feGaussianBlur stdDeviation="4.5"/>
<feComposite in2="hardAlpha" operator="out"/>
<feColorMatrix type="matrix" values="0 0 0 0 0 0 0 0 0 0 0 0 0 0 0 0 0 0 0.1 0"/>
<feBlend mode="normal" in2="BackgroundImageFix" result="effect1_dropShadow_1167_7744"/>
<feBlend mode="normal" in="SourceGraphic" in2="effect1_dropShadow_1167_7744" result="shape"/>
</filter>
<filter id="filter3_d_1167_7744" x="601.614" y="218.16" width="155.258" height="169.752" filterUnits="userSpaceOnUse" color-interpolation-filters="sRGB">
<feFlood flood-opacity="0" result="BackgroundImageFix"/>
<feColorMatrix in="SourceAlpha" type="matrix" values="0 0 0 0 0 0 0 0 0 0 0 0 0 0 0 0 0 0 127 0" result="hardAlpha"/>
<feOffset dy="4"/>
<feGaussianBlur stdDeviation="4.5"/>
<feComposite in2="hardAlpha" operator="out"/>
<feColorMatrix type="matrix" values="0 0 0 0 0 0 0 0 0 0 0 0 0 0 0 0 0 0 0.1 0"/>
<feBlend mode="normal" in2="BackgroundImageFix" result="effect1_dropShadow_1167_7744"/>
<feBlend mode="normal" in="SourceGraphic" in2="effect1_dropShadow_1167_7744" result="shape"/>
</filter>
<filter id="filter4_d_1167_7744" x="310.989" y="382.145" width="155.257" height="169.751" filterUnits="userSpaceOnUse" color-interpolation-filters="sRGB">
<feFlood flood-opacity="0" result="BackgroundImageFix"/>
<feColorMatrix in="SourceAlpha" type="matrix" values="0 0 0 0 0 0 0 0 0 0 0 0 0 0 0 0 0 0 127 0" result="hardAlpha"/>
<feOffset dy="4"/>
<feGaussianBlur stdDeviation="4.5"/>
<feComposite in2="hardAlpha" operator="out"/>
<feColorMatrix type="matrix" values="0 0 0 0 0 0 0 0 0 0 0 0 0 0 0 0 0 0 0.1 0"/>
<feBlend mode="normal" in2="BackgroundImageFix" result="effect1_dropShadow_1167_7744"/>
<feBlend mode="normal" in="SourceGraphic" in2="effect1_dropShadow_1167_7744" result="shape"/>
</filter>
<filter id="filter5_d_1167_7744" x="751.355" y="143.162" width="155.257" height="169.751" filterUnits="userSpaceOnUse" color-interpolation-filters="sRGB">
<feFlood flood-opacity="0" result="BackgroundImageFix"/>
<feColorMatrix in="SourceAlpha" type="matrix" values="0 0 0 0 0 0 0 0 0 0 0 0 0 0 0 0 0 0 127 0" result="hardAlpha"/>
<feOffset dy="4"/>
<feGaussianBlur stdDeviation="4.5"/>
<feComposite in2="hardAlpha" operator="out"/>
<feColorMatrix type="matrix" values="0 0 0 0 0 0 0 0 0 0 0 0 0 0 0 0 0 0 0.1 0"/>
<feBlend mode="normal" in2="BackgroundImageFix" result="effect1_dropShadow_1167_7744"/>
<feBlend mode="normal" in="SourceGraphic" in2="effect1_dropShadow_1167_7744" result="shape"/>
</filter>
<linearGradient id="paint0_linear_1167_7744" x1="1032.69" y1="126.235" x2="453.923" y2="1128.69" gradientUnits="userSpaceOnUse">
<stop stop-color="#0089BC"/>
<stop offset="1" stop-color="#018ABD" stop-opacity="0"/>
</linearGradient>
</defs>
</svg>
