<svg id="Layer_2" data-name="Layer 2" xmlns="http://www.w3.org/2000/svg" viewBox="0 0 200 72"><defs><style>.cls-1{fill:#c01f3e;}.cls-2{fill:#66676b;}.cls-3{fill:#fff;}</style></defs><title>logo-NHI-GDC-DataPortal-nav</title><path class="cls-1" d="M59,27h1.37v6.16H59l-2.94-3.87v3.87H54.69V27H56l3,4Z"/><path class="cls-1" d="M66.3,33.16l-.58-1.34H63.13l-.58,1.34H61.09L63.75,27h1.34l2.65,6.16Zm-1.86-4.35-.78,1.8h1.55Z"/><path class="cls-1" d="M70.63,28.18v5H69.26v-5H67.52V27h4.87v1.2Z"/><path class="cls-1" d="M73.39,27h1.38v6.16H73.39Z"/><path class="cls-1" d="M81.47,32.3a3.37,3.37,0,0,1-4.61,0A3.09,3.09,0,0,1,75.93,30a3,3,0,0,1,.93-2.27,3.35,3.35,0,0,1,4.61,0,3.24,3.24,0,0,1,0,4.54ZM81,30a2,2,0,0,0-.52-1.41A1.7,1.7,0,0,0,79.16,28a1.68,1.68,0,0,0-1.3.58A2,2,0,0,0,77.33,30a2,2,0,0,0,.53,1.4,1.68,1.68,0,0,0,1.3.58,1.7,1.7,0,0,0,1.31-.58A2,2,0,0,0,81,30Z"/><path class="cls-1" d="M87.88,27h1.37v6.16H87.88l-2.94-3.87v3.87H83.56V27h1.29l3,4Z"/><path class="cls-1" d="M95.18,33.16l-.58-1.34H92l-.58,1.34H90L92.63,27H94l2.66,6.16Zm-1.87-4.35-.77,1.8h1.55Z"/><path class="cls-1" d="M97.34,33.16V27h1.38v4.94h2.62v1.24h-4Z"/><path class="cls-1" d="M107.53,31.93a2,2,0,0,0,1.66-.81l.88.91a3.25,3.25,0,0,1-2.49,1.18,3.21,3.21,0,0,1-2.34-.9,3,3,0,0,1-.91-2.27,3.11,3.11,0,0,1,.93-2.28,3.16,3.16,0,0,1,2.31-.92A3.21,3.21,0,0,1,110.1,28l-.86,1a2,2,0,0,0-1.62-.81,1.89,1.89,0,0,0-1.32.51,1.76,1.76,0,0,0-.55,1.37,1.84,1.84,0,0,0,.53,1.38A1.64,1.64,0,0,0,107.53,31.93Z"/><path class="cls-1" d="M115.5,33.16l-.58-1.34h-2.58l-.58,1.34h-1.47L113,27h1.34L117,33.16Zm-1.86-4.35-.78,1.8h1.55Z"/><path class="cls-1" d="M122,27h1.37v6.16H122l-2.94-3.87v3.87h-1.37V27H119l3,4Z"/><path class="cls-1" d="M127.72,31.93a2,2,0,0,0,1.65-.81l.88.91a3.33,3.33,0,0,1-4.82.28,3,3,0,0,1-.92-2.27,3.08,3.08,0,0,1,.94-2.28,3.14,3.14,0,0,1,2.3-.92A3.26,3.26,0,0,1,130.29,28l-.87,1a2,2,0,0,0-1.62-.81,1.91,1.91,0,0,0-1.32.51,1.75,1.75,0,0,0-.54,1.37,1.8,1.8,0,0,0,.53,1.38A1.64,1.64,0,0,0,127.72,31.93Z"/><path class="cls-1" d="M135.79,27v1.23h-3.06v1.27h2.76v1.18h-2.76v1.28h3.17v1.22h-4.54V27h4.43Z"/><path class="cls-1" d="M142.11,29a1.83,1.83,0,0,1-1.18,1.92l1.57,2.2h-1.69l-1.37-2h-.95v2h-1.38V27h2.34a3.37,3.37,0,0,1,2.06.49A1.86,1.86,0,0,1,142.11,29Zm-1.65.74a.93.93,0,0,0,.26-.72.82.82,0,0,0-.26-.69,1.79,1.79,0,0,0-.94-.19h-1V30h1A1.45,1.45,0,0,0,140.46,29.76Z"/><path class="cls-1" d="M145.86,27h1.37v6.16h-1.37Z"/><path class="cls-1" d="M153.07,27h1.38v6.16h-1.38l-2.94-3.87v3.87h-1.37V27h1.29l3,4Z"/><path class="cls-1" d="M157.4,28.21a.54.54,0,0,0,.06.87,4.29,4.29,0,0,0,1.12.36,3,3,0,0,1,1.36.66,1.62,1.62,0,0,1,.49,1.26,1.65,1.65,0,0,1-.62,1.34,2.45,2.45,0,0,1-1.63.51,3.84,3.84,0,0,1-2.64-1.09l.82-1a3,3,0,0,0,1.85.88,1,1,0,0,0,.6-.16.55.55,0,0,0,.21-.44.47.47,0,0,0-.23-.44,3.48,3.48,0,0,0-.91-.34,3.74,3.74,0,0,1-1.57-.66,1.61,1.61,0,0,1-.49-1.29,1.59,1.59,0,0,1,.63-1.35,2.53,2.53,0,0,1,1.57-.48,3.79,3.79,0,0,1,1.23.21,3.19,3.19,0,0,1,1.07.6l-.7,1A2.74,2.74,0,0,0,158,28,1,1,0,0,0,157.4,28.21Z"/><path class="cls-1" d="M164.14,28.18v5h-1.37v-5H161V27h4.87v1.2Z"/><path class="cls-1" d="M166.91,27h1.37v6.16h-1.37Z"/><path class="cls-1" d="M172.41,28.18v5H171v-5H169.3V27h4.87v1.2Z"/><path class="cls-1" d="M176.8,31.56a1.13,1.13,0,0,0,.93.42,1.09,1.09,0,0,0,.91-.42A1.9,1.9,0,0,0,179,30.4V27h1.37v3.45a2.75,2.75,0,0,1-.74,2.06,2.87,2.87,0,0,1-3.8,0,2.75,2.75,0,0,1-.74-2.06V27h1.37V30.4A1.79,1.79,0,0,0,176.8,31.56Z"/><path class="cls-1" d="M184.4,28.18v5H183v-5h-1.74V27h4.88v1.2Z"/><path class="cls-1" d="M191.59,27v1.23h-3.06v1.27h2.77v1.18h-2.77v1.28h3.17v1.22h-4.54V27h4.43Z"/><path class="cls-2" d="M61,41.62h2.06v3.26a4.79,4.79,0,0,1-3.78,1.53,4.64,4.64,0,0,1-3.4-1.34,4.84,4.84,0,0,1,0-6.79,4.62,4.62,0,0,1,3.37-1.37,5,5,0,0,1,3.44,1.3l-1.06,1.53A4.13,4.13,0,0,0,60.55,39a3,3,0,0,0-1.13-.21,2.69,2.69,0,0,0-2,.79,2.85,2.85,0,0,0-.81,2.1,2.82,2.82,0,0,0,.77,2.07,2.45,2.45,0,0,0,1.83.78A3.55,3.55,0,0,0,61,44.12v-2.5Z"/><path class="cls-2" d="M71.93,38.31a4.32,4.32,0,0,1,1.32,3.35A4.52,4.52,0,0,1,72,45.05a5.36,5.36,0,0,1-3.91,1.25H64.93V37.1h3.24A5.35,5.35,0,0,1,71.93,38.31Zm-1.49,5.46a2.68,2.68,0,0,0,.75-2.06,2.72,2.72,0,0,0-.75-2.08,3.25,3.25,0,0,0-2.33-.72H67v5.58h1.3A3.2,3.2,0,0,0,70.44,43.77Z"/><path class="cls-2" d="M79.24,44.47a3,3,0,0,0,2.46-1.19L83,44.63a5,5,0,0,1-7.18.42,4.49,4.49,0,0,1-1.37-3.37,4.62,4.62,0,0,1,1.4-3.42,4.75,4.75,0,0,1,3.44-1.37,4.87,4.87,0,0,1,3.78,1.72l-1.27,1.45a3.07,3.07,0,0,0-2.43-1.2,2.78,2.78,0,0,0-2,.76,2.67,2.67,0,0,0-.82,2,2.79,2.79,0,0,0,.77,2.06A2.54,2.54,0,0,0,79.24,44.47Z"/><path class="cls-2" d="M94.6,38.31a4.32,4.32,0,0,1,1.32,3.35,4.48,4.48,0,0,1-1.29,3.39,5.33,5.33,0,0,1-3.9,1.25H87.59V37.1h3.24A5.32,5.32,0,0,1,94.6,38.31Zm-1.5,5.46a2.68,2.68,0,0,0,.76-2.06,2.73,2.73,0,0,0-.76-2.08,3.23,3.23,0,0,0-2.32-.72H89.64v5.58h1.3A3.17,3.17,0,0,0,93.1,43.77Z"/><path class="cls-2" d="M103.41,46.29h-1.84v-.87a2.36,2.36,0,0,1-1.89,1,2.76,2.76,0,0,1-1.88-.65A2.18,2.18,0,0,1,97,44a1.82,1.82,0,0,1,.8-1.62,3.8,3.8,0,0,1,2.14-.55h1.48v0c0-.76-.4-1.13-1.2-1.13a3.27,3.27,0,0,0-1.09.21,3.35,3.35,0,0,0-1,.51l-.88-1.26a5.29,5.29,0,0,1,3.18-1,3.15,3.15,0,0,1,2.09.65,2.41,2.41,0,0,1,.81,2Zm-2-2.7v-.33h-1.24c-.79,0-1.18.25-1.18.74a.65.65,0,0,0,.29.58,1.33,1.33,0,0,0,.81.21,1.5,1.5,0,0,0,.93-.32A1.17,1.17,0,0,0,101.43,43.59Z"/><path class="cls-2" d="M107.48,40.64V43.8a.9.9,0,0,0,.21.64.62.62,0,0,0,.49.23,1.13,1.13,0,0,0,.94-.5l.73,1.38a2.84,2.84,0,0,1-1.93.84,2.45,2.45,0,0,1-1.73-.67,2.38,2.38,0,0,1-.7-1.83V40.64h-.83V39.21h.83V37.1h2v2.11h1.71v1.43Z"/><path class="cls-2" d="M116.91,46.29h-1.85v-.87a2.34,2.34,0,0,1-1.88,1,2.74,2.74,0,0,1-1.88-.65,2.18,2.18,0,0,1-.76-1.74,1.81,1.81,0,0,1,.79-1.62,3.86,3.86,0,0,1,2.15-.55H115v0c0-.76-.41-1.13-1.2-1.13a3.27,3.27,0,0,0-1.09.21,3.41,3.41,0,0,0-1,.51l-.88-1.26a5.35,5.35,0,0,1,3.19-1,3.17,3.17,0,0,1,2.09.65,2.41,2.41,0,0,1,.81,2Zm-2-2.7v-.33h-1.23c-.79,0-1.18.25-1.18.74a.66.66,0,0,0,.28.58,1.35,1.35,0,0,0,.81.21,1.5,1.5,0,0,0,.93-.32A1.14,1.14,0,0,0,114.94,43.59Z"/><path class="cls-2" d="M128.72,37.93a3.09,3.09,0,0,1,1,2.51,3.05,3.05,0,0,1-1,2.5,4.81,4.81,0,0,1-3,.79h-1.21V46.3h-2V37.1h3.24A4.68,4.68,0,0,1,128.72,37.93Zm-1.51,3.6a1.8,1.8,0,0,0,.37-1.21,1.28,1.28,0,0,0-.48-1.13,2.67,2.67,0,0,0-1.5-.33h-1.16v3.08h1.38A1.71,1.71,0,0,0,127.21,41.53Z"/><path class="cls-2" d="M137.54,42.77a3.52,3.52,0,0,1-1.06,2.58,3.91,3.91,0,0,1-5.35,0,3.68,3.68,0,0,1,0-5.17,3.91,3.91,0,0,1,5.35,0A3.49,3.49,0,0,1,137.54,42.77Zm-5.5,0a1.92,1.92,0,0,0,.5,1.4,1.61,1.61,0,0,0,1.26.55,1.63,1.63,0,0,0,1.27-.55,2,2,0,0,0,.49-1.4,2,2,0,0,0-.49-1.43,1.62,1.62,0,0,0-1.27-.54,1.6,1.6,0,0,0-1.26.54A2,2,0,0,0,132,42.77Z"/><path class="cls-2" d="M142.18,41a1.54,1.54,0,0,0-1.32.62,2.93,2.93,0,0,0-.44,1.65v3.07h-2V39.23h2v.93a3.44,3.44,0,0,1,1-.74,2.83,2.83,0,0,1,1.16-.31l0,1.84Z"/><path class="cls-2" d="M146.23,40.64V43.8a.9.9,0,0,0,.21.64.62.62,0,0,0,.49.23,1.1,1.1,0,0,0,.93-.5l.74,1.38a2.84,2.84,0,0,1-1.93.84,2.45,2.45,0,0,1-1.73-.67,2.38,2.38,0,0,1-.7-1.83V40.64h-.83V39.21h.83V37.1h2v2.11h1.71v1.43Z"/><path class="cls-2" d="M155.66,46.29h-1.85v-.87a2.34,2.34,0,0,1-1.88,1,2.74,2.74,0,0,1-1.88-.65,2.18,2.18,0,0,1-.76-1.74,1.81,1.81,0,0,1,.79-1.62,3.86,3.86,0,0,1,2.15-.55h1.48v0c0-.76-.41-1.13-1.2-1.13a3.27,3.27,0,0,0-1.09.21,3.41,3.41,0,0,0-1,.51l-.88-1.26a5.32,5.32,0,0,1,3.19-1,3.17,3.17,0,0,1,2.09.65,2.41,2.41,0,0,1,.81,2Zm-2-2.7v-.33h-1.23c-.79,0-1.18.25-1.18.74a.66.66,0,0,0,.28.58,1.37,1.37,0,0,0,.81.21,1.5,1.5,0,0,0,.93-.32A1.14,1.14,0,0,0,153.67,43.59Z"/><path class="cls-2" d="M159.43,46.29h-2V36.54h2Z"/><path class="cls-1" d="M40.64,23.37H38.46l6.79,12.5-7,12.67h2.18a2.26,2.26,0,0,0,2-1.18l6.42-11.49-6.14-11.3A2.29,2.29,0,0,0,40.64,23.37Z"/><path class="cls-2" d="M36.54,23.46H10.2a1.89,1.89,0,0,0-1.9,1.9V46.73a1.89,1.89,0,0,0,1.9,1.9H36.28L43.34,36Z"/><polygon class="cls-3" points="19.79 38.4 14.21 30.01 12.47 30.01 12.47 41.55 14.25 41.55 14.25 33.35 19.67 41.53 19.69 41.55 21.55 41.55 21.55 30.01 19.79 30.01 19.79 38.4"/><rect class="cls-3" x="23.61" y="30.01" width="1.99" height="11.54"/><polygon class="cls-3" points="34.84 30.01 34.84 34.95 29.47 34.95 29.47 30.01 27.48 30.01 27.48 41.55 29.47 41.55 29.47 36.87 34.84 36.87 34.84 41.55 36.81 41.55 36.81 30.01 34.84 30.01"/></svg>