<svg width="400" height="400" viewBox="0 0 400 400" fill="none" xmlns="http://www.w3.org/2000/svg">
<path fill-rule="evenodd" clip-rule="evenodd" d="M287.44 200.248C287.44 244.243 252.256 279.909 208.853 279.909C165.449 279.909 130.264 244.243 130.264 200.248C130.264 156.253 165.449 120.589 208.853 120.589C252.256 120.589 287.44 156.253 287.44 200.248" fill="#119FD6"/>
<mask id="mask0_1167_7689" style="mask-type:luminance" maskUnits="userSpaceOnUse" x="99" y="89" width="220" height="221">
<path fill-rule="evenodd" clip-rule="evenodd" d="M99.0005 89.0521H318.705V309.761H99.0005V89.0521Z" fill="white"/>
</mask>
<g mask="url(#mask0_1167_7689)">
<path fill-rule="evenodd" clip-rule="evenodd" d="M206.909 309.761C198.626 309.761 191.886 302.929 191.886 294.532C191.886 286.89 197.471 280.566 204.721 279.485V265.035H199.796C198.992 265.035 198.295 264.559 197.869 263.868C197.316 262.976 197.727 261.963 197.967 261.595L205.081 250.648C205.225 250.427 205.826 249.436 206.909 249.436C207.923 249.436 208.595 250.427 208.738 250.648L215.85 261.595C216.293 262.278 216.33 263.151 215.949 263.868C215.568 264.587 214.826 265.035 214.022 265.035H209.099V279.485C216.346 280.566 221.934 286.89 221.934 294.532C221.934 302.929 215.193 309.761 206.909 309.761V309.761ZM318.705 202.913C318.705 211.771 311.595 218.978 302.855 218.978C294.902 218.978 288.319 213.005 287.194 205.254H272.156V210.521C272.156 211.38 271.66 212.125 270.94 212.581C270.014 213.173 268.959 212.732 268.575 212.475L257.182 204.868C256.952 204.714 255.921 204.072 255.921 202.913C255.921 201.83 256.952 201.111 257.182 200.958L268.575 193.352C269.286 192.88 270.194 192.84 270.94 193.247C271.689 193.654 272.156 194.448 272.156 195.307V200.572H287.194C288.319 192.823 294.902 186.847 302.855 186.847C311.595 186.847 318.705 194.055 318.705 202.913V202.913ZM222.631 105.115C222.631 113.177 216.74 119.852 209.093 120.991V136.851H214.162C214.978 136.851 215.735 137.286 216.151 138C216.568 138.712 216.581 139.595 216.188 140.32L208.683 154.169C208.509 154.492 207.875 155.781 206.654 155.781C205.435 155.781 204.803 154.737 204.636 154.429L197.13 140.322C196.738 139.596 196.751 138.716 197.167 138.003C197.583 137.292 198.338 136.853 199.156 136.853H204.475V120.992C196.83 119.852 190.935 113.177 190.935 105.118C190.935 96.2596 198.045 89.0521 206.785 89.0521C215.522 89.05 222.631 96.2564 222.631 105.115V105.115ZM149.279 212.475C148.893 212.732 147.871 213.21 146.914 212.581C146.2 212.114 145.699 211.38 145.699 210.521V205.254H130.51C129.386 213.003 122.803 218.978 114.85 218.978C106.11 218.978 99.0005 211.771 99.0005 202.913C99.0005 194.055 106.11 186.847 114.85 186.847C122.801 186.847 129.386 192.821 130.51 200.572H145.699V195.307C145.699 194.448 146.166 193.654 146.914 193.247C147.661 192.84 148.57 192.88 149.279 193.352L160.669 200.958C160.853 201.08 161.91 201.751 161.91 202.783C161.91 204.123 160.871 204.733 160.669 204.868L149.279 212.475Z" fill="#113154"/>
</g>
<mask id="mask1_1167_7689" style="mask-type:luminance" maskUnits="userSpaceOnUse" x="99" y="89" width="220" height="221">
<path fill-rule="evenodd" clip-rule="evenodd" d="M99 309.761H318.705V89.0519H99V309.761Z" fill="white"/>
</mask>
<g mask="url(#mask1_1167_7689)">
<path fill-rule="evenodd" clip-rule="evenodd" d="M187.706 224.378H230.008V219.096H187.706V224.378ZM187.706 209.892H230.008V204.632H187.706V209.892ZM187.706 196.239H230.008V190.965H187.706V196.239ZM223.459 164.072L239.77 179.822H227.3C225.169 179.822 223.455 178.166 223.455 176.11L223.459 164.072ZM179.048 161.432C176.917 161.432 175.202 163.089 175.202 165.145V235.351C175.202 237.408 176.917 239.065 179.048 239.065H238.656C240.788 239.065 242.502 237.408 242.502 235.351V177.186L226.193 161.436L179.048 161.432Z" fill="#113154"/>
</g>
<path fill-rule="evenodd" clip-rule="evenodd" d="M345.994 339.974C340.399 332.792 330.101 331.553 322.99 337.203C315.881 342.852 314.654 353.255 320.247 360.435C325.844 367.615 336.142 368.858 343.251 363.206C350.362 357.555 351.589 347.156 345.994 339.974Z" fill="#04518C"/>
<path fill-rule="evenodd" clip-rule="evenodd" d="M25.7082 162.967C20.7909 156.657 11.7415 155.565 5.49439 160.531C-0.752773 165.497 -1.83364 174.637 3.08172 180.949C7.99905 187.259 17.0504 188.349 23.2975 183.383C29.5466 178.419 30.6256 169.277 25.7082 162.967Z" fill="#04518C"/>
<path fill-rule="evenodd" clip-rule="evenodd" d="M338.611 351.117C336.377 353.058 334.079 354.971 331.775 356.798C290.011 390.013 237.997 404.856 185.309 398.599C132.618 392.34 85.5664 365.726 52.8161 323.66C19.4858 280.848 5.06759 227.477 12.2242 173.383L14.907 173.734C7.84759 227.094 22.0681 279.739 54.9437 321.967C87.2485 363.462 133.66 389.712 185.63 395.885C237.602 402.059 288.912 387.419 330.106 354.655C332.379 352.85 334.644 350.962 336.85 349.048L338.611 351.117Z" fill="#04518C"/>
<path fill-rule="evenodd" clip-rule="evenodd" d="M394.351 94.9814C391.991 88.7783 385.1 85.6825 378.958 88.0661C372.817 90.4497 369.753 97.4113 372.111 103.612C374.472 109.815 381.362 112.911 387.504 110.527C393.646 108.144 396.711 101.185 394.351 94.9814Z" fill="#04518C"/>
<path fill-rule="evenodd" clip-rule="evenodd" d="M247.54 4.58892C246.458 1.74543 243.301 0.327624 240.485 1.42043C237.672 2.51186 236.266 5.70248 237.348 8.54597C238.429 11.3872 241.588 12.8073 244.403 11.7145C247.218 10.6217 248.622 7.43242 247.54 4.58892Z" fill="#04518C"/>
<path fill-rule="evenodd" clip-rule="evenodd" d="M384.703 99.5697L382.043 99.9567C380.799 91.8115 378.656 83.7365 375.674 75.9581C354.887 21.7304 297.822 -8.16214 242.939 6.42431L242.226 3.77145C298.443 -11.1698 356.892 19.4486 378.181 74.9923C381.235 82.9584 383.431 91.2262 384.703 99.5697Z" fill="#04518C"/>
<path fill-rule="evenodd" clip-rule="evenodd" d="M400 293.15C400 290.106 397.556 287.635 394.538 287.635C391.523 287.635 389.079 290.106 389.079 293.15C389.079 296.195 391.523 298.665 394.538 298.665C397.556 298.665 400 296.195 400 293.15Z" fill="#04518C"/>
<path fill-rule="evenodd" clip-rule="evenodd" d="M75.6849 57.3281C75.6849 49.5764 69.4622 43.2893 61.7836 43.2893C54.1078 43.2893 47.885 49.5764 47.885 57.3281C47.885 65.0798 54.1078 71.3669 61.7836 71.3669C69.4622 71.3669 75.6849 65.0798 75.6849 57.3281Z" fill="#04518C"/>
</svg>
