<svg width="527" height="475" viewBox="0 0 527 475" fill="none" xmlns="http://www.w3.org/2000/svg">
<path fill-rule="evenodd" clip-rule="evenodd" d="M169.467 243.355C169.467 239.767 166.558 236.855 162.965 236.855C159.376 236.855 156.467 239.767 156.467 243.355C156.467 246.944 159.376 249.855 162.965 249.855C166.558 249.855 169.467 246.944 169.467 243.355Z" fill="#04518C"/>
<path fill-rule="evenodd" clip-rule="evenodd" d="M392.467 194.855C392.467 188.782 387.542 183.855 381.466 183.855C375.391 183.855 370.467 188.782 370.467 194.855C370.467 200.929 375.391 205.855 381.466 205.855C387.542 205.855 392.467 200.929 392.467 194.855Z" fill="#04518C"/>
<mask id="mask0_1167_7918" style="mask-type:luminance" maskUnits="userSpaceOnUse" x="212" y="130" width="130" height="186">
<path fill-rule="evenodd" clip-rule="evenodd" d="M212.472 130.999H341.139V315.854H212.472V130.999Z" fill="white"/>
</mask>
<g mask="url(#mask0_1167_7918)">
<path fill-rule="evenodd" clip-rule="evenodd" d="M285.998 266.931V278.931C285.998 284.461 282.322 288.163 276.808 288.163C271.284 288.163 267.617 284.461 267.617 278.931V266.931C262.093 263.238 258.426 257.699 258.426 251.238C258.426 239.237 269.455 230.929 281.403 233.689C287.827 235.544 293.351 241.083 295.189 247.536C297.018 255.853 292.423 263.238 285.998 266.931ZM331.953 205.081H249.235V178.311C249.235 164.464 258.426 152.463 271.284 149.694C288.756 146.924 304.38 159.848 304.38 177.387C304.38 182.926 308.976 186.619 313.571 186.619C318.166 186.619 322.762 182.926 322.762 177.387C322.762 150.617 299.785 128.462 272.212 131.231C248.307 134.001 230.853 155.232 230.853 179.234V205.081H221.663C217.067 205.081 212.472 208.774 212.472 214.313V306.625C212.472 311.241 217.067 315.856 221.663 315.856H331.953C337.467 315.856 341.143 311.241 341.143 306.625V214.313C341.143 208.774 337.467 205.081 331.953 205.081Z" fill="#04518C"/>
</g>
<path fill-rule="evenodd" clip-rule="evenodd" d="M297.176 250.084C297.176 261.407 288.221 270.588 277.188 270.588C266.146 270.588 257.201 261.407 257.201 250.084C257.201 238.772 266.146 229.59 277.188 229.59C288.221 229.59 297.176 238.772 297.176 250.084Z" fill="#00A1D9"/>
<path fill-rule="evenodd" clip-rule="evenodd" d="M277.628 290.888H276.188C270.892 290.888 266.564 286.445 266.564 281.037V263.347C266.564 257.929 270.892 253.495 276.188 253.495H277.628C282.915 253.495 287.243 257.929 287.243 263.347V281.037C287.243 286.445 282.915 290.888 277.628 290.888Z" fill="#00A1D9"/>
<mask id="mask1_1167_7918" style="mask-type:luminance" maskUnits="userSpaceOnUse" x="212" y="130" width="130" height="186">
<path fill-rule="evenodd" clip-rule="evenodd" d="M212.472 130.999H341.139V315.854H212.472V130.999Z" fill="white"/>
</mask>
<g mask="url(#mask1_1167_7918)">
<path fill-rule="evenodd" clip-rule="evenodd" d="M285.998 266.931V278.931C285.998 284.461 282.322 288.163 276.808 288.163C271.284 288.163 267.617 284.461 267.617 278.931V266.931C262.093 263.238 258.426 257.699 258.426 251.238C258.426 239.237 269.455 230.929 281.403 233.689C287.827 235.544 293.351 241.083 295.189 247.536C297.018 255.853 292.423 263.238 285.998 266.931ZM331.953 205.081H249.235V178.311C249.235 164.464 258.426 152.463 271.284 149.694C288.756 146.924 304.38 159.848 304.38 177.387C304.38 182.926 308.976 186.619 313.571 186.619C318.166 186.619 322.762 182.926 322.762 177.387C322.762 150.617 299.785 128.462 272.212 131.231C248.307 134.001 230.853 155.232 230.853 179.234V205.081H221.663C217.067 205.081 212.472 208.774 212.472 214.313V306.625C212.472 311.241 217.067 315.856 221.663 315.856H331.953C337.467 315.856 341.143 311.241 341.143 306.625V214.313C341.143 208.774 337.467 205.081 331.953 205.081Z" fill="#04518C"/>
</g>
<path fill-rule="evenodd" clip-rule="evenodd" d="M297.176 250.084C297.176 261.407 288.221 270.588 277.188 270.588C266.146 270.588 257.201 261.407 257.201 250.084C257.201 238.772 266.146 229.59 277.188 229.59C288.221 229.59 297.176 238.772 297.176 250.084Z" fill="#00A1D9"/>
<path fill-rule="evenodd" clip-rule="evenodd" d="M277.628 290.888H276.188C270.892 290.888 266.564 286.445 266.564 281.037V263.347C266.564 257.929 270.892 253.495 276.188 253.495H277.628C282.915 253.495 287.243 257.929 287.243 263.347V281.037C287.243 286.445 282.915 290.888 277.628 290.888Z" fill="#00A1D9"/>
<path fill-rule="evenodd" clip-rule="evenodd" d="M120.21 310.651C116.761 298.716 104.285 291.838 92.3496 295.287C80.4124 298.742 73.5316 311.214 76.9854 323.151C80.4358 335.089 92.9074 341.965 104.846 338.514C116.785 335.063 123.661 322.589 120.21 310.651Z" fill="#04518C"/>
<path fill-rule="evenodd" clip-rule="evenodd" d="M381.366 75.4616C379.678 69.6264 373.58 66.2628 367.744 67.9488C361.908 69.6368 358.545 75.7359 360.233 81.5711C361.919 87.4072 368.018 90.77 373.853 89.082C379.689 87.394 383.053 81.2969 381.366 75.4616Z" fill="#04518C"/>
<path fill-rule="evenodd" clip-rule="evenodd" d="M88.5338 317.602C87.5856 314.791 86.6877 311.929 85.8708 309.093C70.9826 257.664 76.9521 203.553 102.676 156.72C128.403 109.886 170.808 75.9422 222.078 61.1377C274.258 46.0715 329.037 52.6142 376.319 79.5654L374.98 81.9381C328.338 55.3524 274.304 48.8971 222.837 63.7579C172.263 78.3606 130.438 111.843 105.063 158.038C79.6862 204.233 73.7962 257.611 88.4831 308.338C89.2907 311.136 90.1783 313.958 91.1122 316.734L88.5338 317.602Z" fill="#04518C"/>
<path fill-rule="evenodd" clip-rule="evenodd" d="M373.781 407.175C364.173 413.689 351.107 411.182 344.593 401.574C338.078 391.966 340.59 378.898 350.193 372.386C359.801 365.871 372.867 368.378 379.382 377.986C385.896 387.594 383.389 400.66 373.781 407.175Z" fill="#04518C"/>
<path fill-rule="evenodd" clip-rule="evenodd" d="M186.18 391.466C184.476 388.954 185.132 385.534 187.646 383.829C190.158 382.125 193.579 382.781 195.283 385.295C196.988 387.81 196.331 391.228 193.817 392.933C191.302 394.637 187.884 393.981 186.18 391.466Z" fill="#04518C"/>
<path fill-rule="evenodd" clip-rule="evenodd" d="M359.336 392.275C353.667 398.225 347.294 403.601 340.398 408.251C292.319 440.673 228.117 432.302 191.059 388.782L188.958 390.543C226.916 435.121 292.677 443.694 341.921 410.485C348.983 405.722 355.509 400.219 361.314 394.122L359.336 392.275Z" fill="#04518C"/>
<path fill-rule="evenodd" clip-rule="evenodd" d="M448.483 160.063C453.416 152.072 450.864 141.583 442.783 136.632C434.701 131.681 424.152 134.149 419.221 142.137C414.288 150.128 416.84 160.617 424.921 165.568C433.003 170.519 443.551 168.055 448.483 160.063Z" fill="#04518C"/>
<path fill-rule="evenodd" clip-rule="evenodd" d="M456.559 321.277C453.946 319.676 450.532 320.473 448.936 323.058C447.341 325.642 448.166 329.037 450.781 330.639C453.396 332.241 456.808 331.443 458.404 328.857C460 326.271 459.174 322.878 456.559 321.277Z" fill="#04518C"/>
<path fill-rule="evenodd" clip-rule="evenodd" d="M452.795 325.017C458.516 319.1 463.624 312.503 467.977 305.411C498.318 255.973 486.791 192.086 441.165 156.805L442.837 154.63C489.572 190.769 501.379 256.207 470.3 306.843C465.842 314.105 460.613 320.861 454.752 326.92L452.795 325.017Z" fill="#04518C"/>
</svg>
