<svg width="400" height="400" viewBox="0 0 400 400" fill="none" xmlns="http://www.w3.org/2000/svg">
<path fill-rule="evenodd" clip-rule="evenodd" d="M115.923 54.5765C116.741 46.2133 110.951 38.7357 102.986 37.8763C95.0203 37.0168 87.8984 43.0967 87.0771 51.4598C86.2585 59.8229 92.0519 67.3006 100.017 68.16C107.982 69.0224 115.104 62.9396 115.923 54.5765" fill="#04518C"/>
<path fill-rule="evenodd" clip-rule="evenodd" d="M363 324.934C363 321.747 360.538 319.16 357.499 319.16C354.462 319.16 352 321.747 352 324.934C352 328.122 354.462 330.709 357.499 330.709C360.538 330.709 363 328.122 363 324.934" fill="#04518C"/>
<path fill-rule="evenodd" clip-rule="evenodd" d="M66 293.963C66 285.848 59.7324 279.265 51.9986 279.265C44.2676 279.265 38 285.848 38 293.963C38 302.079 44.2676 308.661 51.9986 308.661C59.7324 308.661 66 302.079 66 293.963" fill="#04518C"/>
<path fill-rule="evenodd" clip-rule="evenodd" d="M374.025 48.7915C370.505 32.2837 356.637 19.9475 340.033 19.9475C320.769 19.9475 305.153 36.5372 305.153 57.0016C305.153 58.0654 305.22 59.1111 305.303 60.1519C295.68 60.1439 288 68.3021 288 78.3659C288 88.4297 295.68 96.5879 305.153 96.5879H377.367C389.867 96.5879 400 85.8236 400 72.544C400 59.2655 389.867 48.5007 377.367 48.5007C376.229 48.5007 375.119 48.6191 374.025 48.7915Z" fill="#00A1D9"/>
<path fill-rule="evenodd" clip-rule="evenodd" d="M74.5042 124.63C71.4553 110.384 59.4448 99.7375 45.0645 99.7375C28.3806 99.7375 14.8557 114.055 14.8557 131.716C14.8557 132.634 14.914 133.536 14.9857 134.434C6.65106 134.428 0 141.468 0 150.153C0 158.839 6.65106 165.879 14.8557 165.879H77.398C88.2238 165.879 97 156.59 97 145.129C97 133.67 88.2238 124.379 77.398 124.379C76.4122 124.379 75.4509 124.482 74.5042 124.63Z" fill="#00A1D9"/>
<path fill-rule="evenodd" clip-rule="evenodd" d="M350.245 279.841C348.516 271.7 341.706 265.617 333.552 265.617C324.092 265.617 316.423 273.798 316.423 283.89C316.423 284.415 316.456 284.93 316.497 285.444C311.771 285.44 308 289.463 308 294.426C308 299.389 311.771 303.412 316.423 303.412H351.885C358.024 303.412 363 298.104 363 291.555C363 285.006 358.024 279.698 351.885 279.698C351.327 279.698 350.781 279.756 350.245 279.841Z" fill="#00A1D9"/>
<path fill-rule="evenodd" clip-rule="evenodd" d="M198.534 369.882C196.302 359.48 187.511 351.706 176.985 351.706C164.773 351.706 154.874 362.16 154.874 375.055C154.874 375.725 154.916 376.384 154.969 377.04C148.868 377.035 144 382.176 144 388.518C144 394.859 148.868 400 154.874 400H200.652C208.576 400 215 393.217 215 384.849C215 376.482 208.576 369.698 200.652 369.698C199.931 369.698 199.227 369.773 198.534 369.882Z" fill="#00A1D9"/>
<path fill-rule="evenodd" clip-rule="evenodd" d="M144.111 266.465V237.195C144.111 236.069 144.326 235.169 144.541 234.268C158.729 245.526 190.115 250.029 218.061 247.778C218.491 245.751 219.136 243.725 219.996 241.698C185.815 244.851 144.111 237.646 144.111 220.083V190.813C144.111 190.363 144.111 189.913 144.326 189.237C167.543 208.6 240.418 208.6 263.85 189.237V190.813V212.203C288.142 213.104 307.704 234.043 307.704 259.936C307.704 286.054 287.282 307.444 262.13 307.444C246.867 307.444 233.324 299.563 225.155 287.63C190.115 291.908 144.111 284.928 144.111 266.465Z" fill="#04518C"/>
<path fill-rule="evenodd" clip-rule="evenodd" d="M270.084 284.253H254.176V268.042H238.698V251.605H254.176V235.394H270.084V251.605H285.347V268.042H270.084V284.253Z" fill="black"/>
<path fill-rule="evenodd" clip-rule="evenodd" d="M298.245 259.936C298.245 280.875 282.122 297.762 262.13 297.762C242.138 297.762 226.015 280.875 226.015 259.936C226.015 238.996 242.138 221.885 262.13 221.885C282.122 221.885 298.245 238.996 298.245 259.936Z" fill="#00A1D9"/>
<path fill-rule="evenodd" clip-rule="evenodd" d="M263.85 175.503C263.85 205.223 144.111 205.223 144.111 175.503V146.232C144.111 116.512 263.85 116.512 263.85 146.232V175.503Z" fill="#04518C"/>
<path fill-rule="evenodd" clip-rule="evenodd" d="M247.258 246.353C247.258 244.605 248.618 243.188 250.295 243.188H275.613C277.29 243.188 278.65 244.605 278.65 246.353C278.65 248.101 277.29 249.519 275.613 249.519H250.295C248.618 249.519 247.258 248.101 247.258 246.353" fill="#04518C"/>
<path fill-rule="evenodd" clip-rule="evenodd" d="M246 246.353L257.854 233.998C259.041 232.762 260.963 232.762 262.149 233.998C263.335 235.235 263.335 237.239 262.149 238.475L254.59 246.353L262.149 254.231C263.335 255.468 263.335 257.472 262.149 258.709C260.963 259.945 259.041 259.945 257.854 258.709L246 246.353Z" fill="#04518C"/>
<path fill-rule="evenodd" clip-rule="evenodd" d="M274.664 277.547H249.346C247.669 277.547 246.309 276.13 246.309 274.382C246.309 272.634 247.669 271.216 249.346 271.216H274.664C276.341 271.216 277.701 272.634 277.701 274.382C277.701 276.13 276.341 277.547 274.664 277.547Z" fill="#04518C"/>
<path fill-rule="evenodd" clip-rule="evenodd" d="M278.959 274.382L267.105 286.737C265.919 287.973 263.996 287.973 262.81 286.737C261.624 285.5 261.624 283.496 262.81 282.26L270.369 274.382L262.81 266.504C261.624 265.267 261.624 263.263 262.81 262.026C263.996 260.79 265.919 260.79 267.105 262.026L278.959 274.382Z" fill="#04518C"/>
</svg>
