<svg width="417" height="384" viewBox="0 0 417 384" fill="none" xmlns="http://www.w3.org/2000/svg">
<path fill-rule="evenodd" clip-rule="evenodd" d="M98.467 196.355C98.467 192.767 95.5579 189.855 91.9653 189.855C88.3762 189.855 85.467 192.767 85.467 196.355C85.467 199.944 88.3762 202.855 91.9653 202.855C95.5579 202.855 98.467 199.944 98.467 196.355Z" fill="#04518C"/>
<path fill-rule="evenodd" clip-rule="evenodd" d="M321.467 147.855C321.467 141.782 316.542 136.855 310.466 136.855C304.392 136.855 299.467 141.782 299.467 147.855C299.467 153.929 304.392 158.855 310.466 158.855C316.542 158.855 321.467 153.929 321.467 147.855Z" fill="#04518C"/>
<mask id="mask0_1167_7918" style="mask-type:luminance" maskUnits="userSpaceOnUse" x="141" y="83" width="130" height="186">
<path fill-rule="evenodd" clip-rule="evenodd" d="M141.472 83.9985H270.139V268.854H141.472V83.9985Z" fill="white"/>
</mask>
<g mask="url(#mask0_1167_7918)">
<path fill-rule="evenodd" clip-rule="evenodd" d="M214.998 219.931V231.931C214.998 237.461 211.322 241.163 205.808 241.163C200.284 241.163 196.617 237.461 196.617 231.931V219.931C191.093 216.238 187.426 210.699 187.426 204.238C187.426 192.237 198.455 183.929 210.403 186.689C216.827 188.544 222.351 194.083 224.189 200.536C226.018 208.853 221.423 216.238 214.998 219.931M260.953 158.081H178.235V131.311C178.235 117.464 187.426 105.463 200.284 102.694C217.756 99.9243 233.38 112.848 233.38 130.387C233.38 135.926 237.976 139.619 242.571 139.619C247.166 139.619 251.762 135.926 251.762 130.387C251.762 103.617 228.785 81.4618 201.212 84.2312C177.307 87.0006 159.853 108.232 159.853 132.234V158.081H150.663C146.067 158.081 141.472 161.774 141.472 167.313V259.625C141.472 264.241 146.067 268.856 150.663 268.856H260.953C266.467 268.856 270.143 264.241 270.143 259.625V167.313C270.143 161.774 266.467 158.081 260.953 158.081" fill="#04518C"/>
</g>
<path fill-rule="evenodd" clip-rule="evenodd" d="M226.176 203.084C226.176 214.407 217.221 223.588 206.188 223.588C195.146 223.588 186.201 214.407 186.201 203.084C186.201 191.772 195.146 182.59 206.188 182.59C217.221 182.59 226.176 191.772 226.176 203.084" fill="#00A1D9"/>
<path fill-rule="evenodd" clip-rule="evenodd" d="M206.628 243.888H205.188C199.892 243.888 195.564 239.445 195.564 234.037V216.347C195.564 210.929 199.892 206.495 205.188 206.495H206.628C211.915 206.495 216.243 210.929 216.243 216.347V234.037C216.243 239.445 211.915 243.888 206.628 243.888" fill="#00A1D9"/>
<mask id="mask1_1167_7918" style="mask-type:luminance" maskUnits="userSpaceOnUse" x="141" y="83" width="130" height="186">
<path fill-rule="evenodd" clip-rule="evenodd" d="M141.472 83.9985H270.139V268.854H141.472V83.9985Z" fill="white"/>
</mask>
<g mask="url(#mask1_1167_7918)">
<path fill-rule="evenodd" clip-rule="evenodd" d="M214.998 219.931V231.931C214.998 237.461 211.322 241.163 205.808 241.163C200.284 241.163 196.617 237.461 196.617 231.931V219.931C191.093 216.238 187.426 210.699 187.426 204.238C187.426 192.237 198.455 183.929 210.403 186.689C216.827 188.544 222.351 194.083 224.189 200.536C226.018 208.853 221.423 216.238 214.998 219.931M260.953 158.081H178.235V131.311C178.235 117.464 187.426 105.463 200.284 102.694C217.756 99.9243 233.38 112.848 233.38 130.387C233.38 135.926 237.976 139.619 242.571 139.619C247.166 139.619 251.762 135.926 251.762 130.387C251.762 103.617 228.785 81.4618 201.212 84.2312C177.307 87.0006 159.853 108.232 159.853 132.234V158.081H150.663C146.067 158.081 141.472 161.774 141.472 167.313V259.625C141.472 264.241 146.067 268.856 150.663 268.856H260.953C266.467 268.856 270.143 264.241 270.143 259.625V167.313C270.143 161.774 266.467 158.081 260.953 158.081" fill="#04518C"/>
</g>
<path fill-rule="evenodd" clip-rule="evenodd" d="M226.176 203.084C226.176 214.407 217.221 223.588 206.188 223.588C195.146 223.588 186.201 214.407 186.201 203.084C186.201 191.772 195.146 182.59 206.188 182.59C217.221 182.59 226.176 191.772 226.176 203.084" fill="#00A1D9"/>
<path fill-rule="evenodd" clip-rule="evenodd" d="M206.628 243.888H205.188C199.892 243.888 195.564 239.445 195.564 234.037V216.347C195.564 210.929 199.892 206.495 205.188 206.495H206.628C211.915 206.495 216.243 210.929 216.243 216.347V234.037C216.243 239.445 211.915 243.888 206.628 243.888" fill="#00A1D9"/>
<path fill-rule="evenodd" clip-rule="evenodd" d="M49.2102 263.651C45.7611 251.716 33.2847 244.838 21.3496 248.287C9.41241 251.742 2.5316 264.214 5.98544 276.151C9.43585 288.089 21.9074 294.965 33.846 291.514C45.7846 288.063 52.6606 275.589 49.2102 263.651Z" fill="#04518C"/>
<path fill-rule="evenodd" clip-rule="evenodd" d="M310.366 28.4616C308.678 22.6264 302.581 19.2627 296.744 20.9488C290.908 22.6368 287.545 28.7359 289.233 34.5711C290.919 40.4071 297.018 43.77 302.854 42.082C308.689 40.394 312.053 34.2969 310.366 28.4616Z" fill="#04518C"/>
<path fill-rule="evenodd" clip-rule="evenodd" d="M17.5338 270.602C16.5856 267.79 15.6877 264.929 14.8708 262.093C-0.0174362 210.664 5.95214 156.553 31.6763 109.72C57.403 62.8856 99.8076 28.942 151.078 14.1374C203.258 -0.928685 258.037 5.61401 305.319 32.5652L303.98 34.9379C257.338 8.35214 203.304 1.89691 151.837 16.7577C101.263 31.3604 59.4383 64.843 34.0635 111.037C8.68624 157.233 2.7962 210.611 17.4831 261.338C18.2907 264.136 19.1783 266.958 20.1122 269.734L17.5338 270.602Z" fill="#04518C"/>
<path fill-rule="evenodd" clip-rule="evenodd" d="M302.781 360.175C293.174 366.689 280.107 364.182 273.593 354.574C267.078 344.967 269.59 331.898 279.193 325.386C288.801 318.871 301.867 321.378 308.382 330.986C314.896 340.594 312.389 353.66 302.781 360.175Z" fill="#04518C"/>
<path fill-rule="evenodd" clip-rule="evenodd" d="M115.18 344.466C113.476 341.954 114.132 338.534 116.646 336.829C119.158 335.125 122.579 335.781 124.283 338.295C125.988 340.81 125.331 344.228 122.817 345.933C120.302 347.637 116.884 346.981 115.18 344.466Z" fill="#04518C"/>
<path fill-rule="evenodd" clip-rule="evenodd" d="M288.336 345.275C282.667 351.225 276.294 356.601 269.398 361.251C221.319 393.673 157.117 385.302 120.059 341.782L117.958 343.543C155.916 388.121 221.677 396.695 270.921 363.485C277.983 358.722 284.509 353.219 290.314 347.122L288.336 345.275Z" fill="#04518C"/>
<path fill-rule="evenodd" clip-rule="evenodd" d="M377.483 113.063C382.416 105.072 379.864 94.5827 371.783 89.632C363.701 84.6813 353.152 87.1491 348.221 95.1368C343.288 103.128 345.84 113.617 353.921 118.568C362.003 123.519 372.551 121.055 377.483 113.063Z" fill="#04518C"/>
<path fill-rule="evenodd" clip-rule="evenodd" d="M385.559 274.276C382.946 272.676 379.532 273.472 377.936 276.058C376.341 278.642 377.166 282.037 379.781 283.639C382.396 285.241 385.808 284.443 387.404 281.857C389 279.271 388.174 275.878 385.559 274.276Z" fill="#04518C"/>
<path fill-rule="evenodd" clip-rule="evenodd" d="M381.796 278.017C387.516 272.1 392.624 265.503 396.977 258.411C427.318 208.973 415.791 145.086 370.165 109.805L371.837 107.63C418.572 143.769 430.379 209.207 399.3 259.843C394.842 267.105 389.613 273.86 383.752 279.92L381.796 278.017Z" fill="#04518C"/>
</svg>
