<svg width="404" height="398" viewBox="0 0 404 398" fill="none" xmlns="http://www.w3.org/2000/svg">
<path fill-rule="evenodd" clip-rule="evenodd" d="M214.371 90.8557L128.177 139.408V200.488C128.822 240.499 156.269 273.485 192.703 283.051C200.121 284.999 207.911 285.976 215.923 285.844C262.129 285.06 299.401 247.472 300.177 200.88V139.408L214.371 90.8557Z" fill="#00A1D9"/>
<path fill-rule="evenodd" clip-rule="evenodd" d="M213.677 116.856L147.177 153.894V200.56C147.177 237.224 176.896 266.856 213.677 266.856C250.458 266.856 280.177 237.224 280.177 200.56V153.894L213.677 116.856Z" fill="#04518C"/>
<path fill-rule="evenodd" clip-rule="evenodd" d="M211.046 226.856L175.976 191.648C172.244 187.906 172.244 181.836 175.976 178.097C179.704 174.351 185.744 174.351 189.475 178.097L211.046 199.752L276.882 133.663C280.61 129.92 286.653 129.92 290.381 133.663C294.109 137.405 294.109 143.475 290.381 147.214L211.046 226.856Z" fill="#00A1D9"/>
<path fill-rule="evenodd" clip-rule="evenodd" d="M265.793 340.411C266.243 335.509 263.055 331.124 258.667 330.621C254.281 330.115 250.357 333.68 249.907 338.585C249.454 343.487 252.645 347.869 257.033 348.375C261.419 348.878 265.342 345.312 265.793 340.411Z" fill="#04518C"/>
<path fill-rule="evenodd" clip-rule="evenodd" d="M34.6761 229.652C35.233 224.232 31.2924 219.387 25.8748 218.83C20.4546 218.273 15.6098 222.214 15.0529 227.634C14.4934 233.052 18.4366 237.896 23.8542 238.453C29.2744 239.013 34.1193 235.072 34.6761 229.652Z" fill="#04518C"/>
<path fill-rule="evenodd" clip-rule="evenodd" d="M215.67 346.544C208.203 346.544 200.72 346.162 193.243 345.397C119.974 337.912 56.1518 294.522 22.5156 229.334L24.7906 228.172C58.0327 292.593 121.103 335.472 193.504 342.871C215.097 345.075 236.728 344.055 257.815 339.831L258.319 342.324C244.29 345.133 230.011 346.544 215.67 346.544Z" fill="#04518C"/>
<path fill-rule="evenodd" clip-rule="evenodd" d="M241.357 383.556C242.234 375.04 236.04 367.428 227.524 366.551C219.011 365.674 211.397 371.868 210.52 380.382C209.646 388.899 215.837 396.513 224.353 397.388C232.869 398.264 240.481 392.073 241.357 383.556Z" fill="#04518C"/>
<path fill-rule="evenodd" clip-rule="evenodd" d="M138.967 53.6145C139.736 46.1309 134.296 39.4397 126.813 38.6706C119.33 37.9015 112.64 43.342 111.868 50.8256C111.099 58.3092 116.542 65.0004 124.025 65.7695C131.508 66.5411 138.198 61.0981 138.967 53.6145Z" fill="#04518C"/>
<path fill-rule="evenodd" clip-rule="evenodd" d="M229.076 386.197C226.293 386.033 223.485 385.808 220.727 385.522C170.691 380.391 125.658 356.148 93.917 317.259C62.1759 278.368 47.5327 229.486 52.6805 179.617C57.9207 128.864 82.898 83.4506 123.014 51.7505L124.609 53.7522C85.0372 85.0228 60.3984 129.817 55.2301 179.878C50.1515 229.069 64.5972 277.284 95.9048 315.644C127.212 354.006 171.634 377.922 220.989 382.981C223.71 383.262 226.48 383.482 229.227 383.646L229.076 386.197Z" fill="#04518C"/>
<path fill-rule="evenodd" clip-rule="evenodd" d="M400.799 142.809C400.38 136.597 395.007 131.902 388.795 132.32C382.583 132.739 377.889 138.115 378.306 144.324C378.725 150.536 384.099 155.231 390.31 154.812C396.522 154.394 401.217 149.02 400.799 142.809Z" fill="#04518C"/>
<path fill-rule="evenodd" clip-rule="evenodd" d="M293.064 20.8993C292.872 18.0519 290.409 15.901 287.562 16.093C284.716 16.2844 282.563 18.7478 282.755 21.5953C282.947 24.4403 285.41 26.5936 288.257 26.4016C291.105 26.2096 293.256 23.7468 293.064 20.8993Z" fill="#04518C"/>
<path fill-rule="evenodd" clip-rule="evenodd" d="M390.808 144.222L388.296 143.825C389.423 136.187 389.718 128.36 389.173 120.565C385.373 66.2193 342.048 23.5265 288.396 21.2572L288.485 18.6834C343.44 21.0075 387.817 64.7367 391.707 120.401C392.265 128.384 391.964 136.398 390.808 144.222Z" fill="#04518C"/>
<path fill-rule="evenodd" clip-rule="evenodd" d="M385.177 287.084C385.177 284.232 382.865 281.917 380.009 281.917C377.156 281.917 374.843 284.232 374.843 287.084C374.843 289.937 377.156 292.251 380.009 292.251C382.865 292.251 385.177 289.937 385.177 287.084Z" fill="#04518C"/>
<path fill-rule="evenodd" clip-rule="evenodd" d="M26.3048 106.239C26.3048 98.9766 20.4167 93.0864 13.1511 93.0864C5.8881 93.0864 0 98.9766 0 106.239C0 113.501 5.8881 119.391 13.1511 119.391C20.4167 119.391 26.3048 113.501 26.3048 106.239Z" fill="#04518C"/>
</svg>
