<svg width="1162" height="509" viewBox="0 0 1162 509" fill="none" xmlns="http://www.w3.org/2000/svg">
<mask id="mask0_1647_2835" style="mask-type:alpha" maskUnits="userSpaceOnUse" x="0" y="0" width="1162" height="509">
<path d="M0 0H1162V509H0V0Z" fill="#D9D9D9"/>
</mask>
<g mask="url(#mask0_1647_2835)">
<g filter="url(#filter0_d_1647_2835)">
<path d="M870.969 58.2227C884.623 50.3396 911.043 52.8122 929.98 63.7456L1135.71 182.525C1154.65 193.458 1158.93 208.712 1145.28 216.595L37.033 856.441C23.3791 864.324 -3.04124 861.851 -21.9784 850.918L-227.71 732.138C-246.648 721.205 -250.93 705.951 -237.276 698.068L870.969 58.2227Z" fill="#0089BC"/>
</g>
<path d="M1105.46 163.066H1152.97V205.035H1105.46V163.066Z" fill="#0089BC"/>
<path d="M870.29 18.625C883.936 10.7466 910.35 13.2231 929.287 24.1564L1135.02 142.936C1153.96 153.869 1158.25 169.119 1144.6 176.998L37.0182 816.46C23.3723 824.338 -3.04129 821.862 -21.9784 810.929L-227.71 692.149C-246.648 681.216 -250.937 665.966 -237.291 658.087L870.29 18.625Z" fill="#EEEEEE"/>
<path d="M870.817 18.3209C884.469 10.4388 910.888 12.9123 929.825 23.8457L1135.56 142.625C1154.49 153.558 1158.78 168.811 1145.13 176.693L37.0292 816.453C23.3771 824.336 -3.04176 821.862 -21.9789 810.929L-227.711 692.149C-246.648 681.216 -250.932 665.963 -237.28 658.081L870.817 18.3209Z" fill="url(#paint0_linear_1647_2835)"/>
<path fill-rule="evenodd" clip-rule="evenodd" d="M180.662 414.595C182.607 413.69 184.916 414.533 185.821 416.477L243.819 541.086L435.731 579.415C437.834 579.835 439.198 581.88 438.778 583.983C438.358 586.086 436.313 587.451 434.21 587.031L238.439 547.931L178.781 419.754C177.876 417.81 178.718 415.5 180.662 414.595Z" fill="black" fill-opacity="0.1"/>
<path fill-rule="evenodd" clip-rule="evenodd" d="M260.943 369.759C262.901 368.886 265.197 369.765 266.071 371.723L321.056 494.971L515.968 534.607C518.07 535.035 519.427 537.085 518.999 539.186C518.572 541.288 516.522 542.645 514.421 542.218L315.592 501.785L258.978 374.887C258.105 372.929 258.984 370.633 260.943 369.759Z" fill="black" fill-opacity="0.1"/>
<path fill-rule="evenodd" clip-rule="evenodd" d="M342.283 322.995C344.248 322.137 346.537 323.034 347.395 325L400.682 447.067L597.295 487.858C599.394 488.294 600.744 490.349 600.308 492.449C599.872 494.549 597.817 495.898 595.717 495.463L395.172 453.856L340.277 328.107C339.419 326.142 340.317 323.853 342.283 322.995Z" fill="black" fill-opacity="0.1"/>
<path fill-rule="evenodd" clip-rule="evenodd" d="M423.162 277.937C425.135 277.097 427.415 278.017 428.254 279.991L479.766 401.141L678.149 442.817C680.248 443.258 681.592 445.317 681.151 447.415C680.71 449.514 678.651 450.858 676.552 450.417L474.205 407.908L421.107 283.029C420.268 281.056 421.188 278.776 423.162 277.937Z" fill="black" fill-opacity="0.1"/>
<path fill-rule="evenodd" clip-rule="evenodd" d="M501.988 232.117C503.961 231.278 506.241 232.197 507.081 234.171L558.592 355.321L756.975 396.997C759.074 397.438 760.418 399.497 759.977 401.596C759.536 403.694 757.477 405.038 755.378 404.597L553.031 362.089L499.934 237.21C499.095 235.236 500.014 232.956 501.988 232.117Z" fill="black" fill-opacity="0.1"/>
<path fill-rule="evenodd" clip-rule="evenodd" d="M580.036 185.365C582.01 184.526 584.29 185.446 585.129 187.419L636.641 308.57L835.023 350.245C837.122 350.686 838.466 352.745 838.025 354.844C837.584 356.943 835.526 358.287 833.427 357.846L631.079 315.337L577.982 190.458C577.143 188.484 578.062 186.204 580.036 185.365Z" fill="black" fill-opacity="0.1"/>
<path fill-rule="evenodd" clip-rule="evenodd" d="M663.6 136.439C665.573 135.599 667.853 136.519 668.692 138.493L720.204 259.643L918.587 301.319C920.686 301.76 922.03 303.819 921.589 305.917C921.148 308.016 919.089 309.36 916.99 308.919L714.643 266.41L661.545 141.531C660.706 139.558 661.626 137.278 663.6 136.439Z" fill="black" fill-opacity="0.1"/>
<path fill-rule="evenodd" clip-rule="evenodd" d="M745.221 89.6868C747.195 88.8477 749.475 89.7673 750.314 91.7409L801.826 212.891L1000.21 254.567C1002.31 255.008 1003.65 257.067 1003.21 259.166C1002.77 261.264 1000.71 262.608 998.612 262.167L796.264 219.659L743.167 94.7797C742.328 92.8061 743.248 90.526 745.221 89.6868Z" fill="black" fill-opacity="0.1"/>
<path fill-rule="evenodd" clip-rule="evenodd" d="M827.386 44.6434C829.36 43.8042 831.64 44.7239 832.479 46.6974L883.991 167.848L1082.37 209.524C1084.47 209.965 1085.82 212.023 1085.38 214.122C1084.93 216.221 1082.88 217.565 1080.78 217.124L878.429 174.615L825.332 49.7362C824.493 47.7626 825.413 45.4825 827.386 44.6434Z" fill="black" fill-opacity="0.1"/>
<g filter="url(#filter1_d_1647_2835)">
<path fill-rule="evenodd" clip-rule="evenodd" d="M906.74 59.1013L1043.38 59.6456L1043.14 121.702C1044.43 127.633 1041.99 134.269 1035.83 137.536L982.268 165.939C978.058 168.171 973.015 168.174 968.803 165.945L914.306 137.112C909.353 134.492 906.806 129.706 906.656 124.855L906.478 124.854L906.74 59.1013Z" fill="#61B1D1"/>
<path d="M1036.09 71.783C1046.24 66.402 1046.29 51.884 1036.19 46.4223L982.859 17.5941C978.667 15.328 973.624 15.2854 969.394 17.4804L914.669 45.8781C904.371 51.2221 904.312 65.9331 914.568 71.359L969.065 100.192C973.277 102.42 978.32 102.418 982.53 100.185L1036.09 71.783Z" fill="#67C2E8"/>
<path fill-rule="evenodd" clip-rule="evenodd" d="M975.747 59.3764L906.741 59.1016L906.479 124.855L906.657 124.855C906.806 129.706 909.354 134.492 914.307 137.113L968.804 165.946C970.973 167.094 973.364 167.65 975.747 167.614L975.747 59.3764Z" fill="#569FBD"/>
<path d="M1036.09 71.7833C1046.24 66.4022 1046.3 51.8842 1036.19 46.4225L982.86 17.5943C978.668 15.3282 973.625 15.2856 969.395 17.4806L914.67 45.8783C904.372 51.2223 904.313 65.9334 914.569 71.3592L969.066 100.192C973.278 102.421 978.321 102.418 982.531 100.186L1036.09 71.7833Z" fill="#67C2E8"/>
</g>
<mask id="mask1_1647_2835" style="mask-type:luminance" maskUnits="userSpaceOnUse" x="947" y="37" width="64" height="37">
<path fill-rule="evenodd" clip-rule="evenodd" d="M984.509 37.6758L1010.39 52.6159L973.591 73.8596L947.714 58.9195L984.509 37.6758Z" fill="white"/>
</mask>
<g mask="url(#mask1_1647_2835)">
<path fill-rule="evenodd" clip-rule="evenodd" d="M972.244 61.8368L969.855 63.216C968.754 63.8514 967.278 63.8499 966.169 63.2096C965.058 62.5682 965.057 61.717 966.158 61.0816L968.547 59.7025C968.171 58.6367 968.536 57.5744 969.822 56.8318C972.211 55.4527 976.083 55.7785 977.936 57.4831C978.859 58.4423 978.867 59.7202 977.953 60.6752C976.665 61.8434 974.271 62.1585 972.244 61.8368M993.793 60.0628L977.157 50.4581L982.485 47.3816C985.241 45.7903 989.479 45.4784 992.616 46.6532C996.681 48.3636 997.251 51.6631 993.76 53.6787C992.657 54.3152 992.846 55.2731 993.771 55.8067C994.695 56.3403 996.354 56.4496 997.456 55.8131C1002.79 52.7366 1002.57 47.5225 996.477 44.6392C991.118 42.1817 983.382 42.5951 978.605 45.3533L973.46 48.3237L971.611 47.2565C970.687 46.7229 969.028 46.6137 967.925 47.2502L949.551 57.8588C948.632 58.3892 948.638 59.4532 949.562 59.9868L971.743 72.7931C972.852 73.4335 974.51 73.3299 975.429 72.7995L993.804 62.1909C994.906 61.5544 994.902 60.7032 993.793 60.0628" fill="#04518C"/>
</g>
<path fill-rule="evenodd" clip-rule="evenodd" d="M977.845 61.1971C975.591 62.4982 971.962 62.5136 969.744 61.2325C967.523 59.9503 967.551 57.8566 969.805 56.5554C972.057 55.2553 975.683 55.2388 977.904 56.521C980.123 57.8021 980.096 59.897 977.845 61.1971" fill="#00A1D9"/>
<path fill-rule="evenodd" clip-rule="evenodd" d="M965.785 63.614L965.495 63.4468C964.43 62.8318 964.444 61.8186 965.521 61.1971L969.042 59.1641C970.12 58.5416 971.873 58.5345 972.939 59.1495L973.228 59.3167C974.292 59.9306 974.279 60.9427 973.201 61.5653L969.68 63.5983C968.603 64.2198 966.848 64.2279 965.785 63.614" fill="#00A1D9"/>
<g filter="url(#filter2_d_1647_2835)">
<path fill-rule="evenodd" clip-rule="evenodd" d="M471.247 309.449L607.89 309.993L607.643 372.049C608.937 377.981 606.496 384.617 600.335 387.884L546.775 416.286C542.565 418.519 537.522 418.521 533.31 416.293L478.813 387.46C473.86 384.839 471.312 380.053 471.163 375.202L470.985 375.202L471.247 309.449Z" fill="#00DBBB"/>
<path d="M600.597 322.13C610.744 316.749 610.802 302.231 600.698 296.77L547.366 267.941C543.174 265.675 538.131 265.633 533.901 267.828L479.176 296.225C468.878 301.57 468.819 316.281 479.075 321.706L533.572 350.539C537.784 352.768 542.827 352.765 547.037 350.533L600.597 322.13Z" fill="#40E6CF"/>
<path fill-rule="evenodd" clip-rule="evenodd" d="M540.254 309.724L471.248 309.449L470.986 375.202L471.163 375.203C471.313 380.054 473.86 384.84 478.813 387.46L533.31 416.293C535.48 417.441 537.871 417.997 540.254 417.961V309.724Z" fill="#00C4A7"/>
<path d="M600.598 322.131C610.745 316.75 610.803 302.232 600.699 296.77L547.367 267.942C543.174 265.676 538.132 265.633 533.902 267.828L479.177 296.226C468.879 301.57 468.82 316.281 479.076 321.707L533.573 350.539C537.785 352.768 542.828 352.766 547.038 350.533L600.598 322.131Z" fill="#40E6CF"/>
</g>
<g filter="url(#filter3_d_1647_2835)">
<path fill-rule="evenodd" clip-rule="evenodd" d="M610.876 223.397L747.519 223.941L747.272 285.997C748.566 291.929 746.125 298.565 739.963 301.832L686.404 330.235C682.194 332.467 677.151 332.47 672.939 330.241L618.442 301.408C613.489 298.788 610.941 294.002 610.792 289.151L610.614 289.15L610.876 223.397Z" fill="#BA026E"/>
<path d="M740.225 236.079C750.373 230.698 750.431 216.18 740.326 210.718L686.995 181.89C682.802 179.624 677.76 179.581 673.53 181.776L618.805 210.174C608.507 215.518 608.448 230.229 618.704 235.655L673.2 264.488C677.413 266.716 682.456 266.714 686.666 264.481L740.225 236.079Z" fill="#B74A89"/>
<path fill-rule="evenodd" clip-rule="evenodd" d="M679.885 223.673L610.877 223.398L610.615 289.151L610.792 289.151C610.942 294.002 613.489 298.788 618.442 301.409L672.939 330.242C675.11 331.39 677.501 331.946 679.885 331.91V223.673Z" fill="#9E005D"/>
<path d="M740.227 236.079C750.375 230.698 750.433 216.18 740.328 210.719L686.997 181.89C682.804 179.624 677.762 179.582 673.532 181.777L618.807 210.174C608.509 215.518 608.45 230.229 618.705 235.655L673.202 264.488C677.415 266.717 682.457 266.714 686.668 264.482L740.227 236.079Z" fill="#B74A89"/>
</g>
<path fill-rule="evenodd" clip-rule="evenodd" d="M513.687 305.032L519.473 301.691C519.695 301.563 519.918 301.486 520.141 301.409C520.858 304.392 526.477 308.665 532.718 311.754C533.208 311.574 533.742 311.42 534.321 311.292C526.609 307.559 519.384 301.743 522.856 299.738L528.642 296.397C528.731 296.346 528.82 296.295 528.998 296.243C529.985 301.233 545.099 309.959 553.787 310.555L553.475 310.735L549.247 313.176C554.107 316.188 554.025 320.92 548.906 323.875C543.743 326.856 535.279 326.852 530.062 323.841C526.897 322.013 525.646 319.492 526.311 317.152C518.198 313.444 510.037 307.139 513.687 305.032Z" fill="#04518C"/>
<path fill-rule="evenodd" clip-rule="evenodd" d="M536.296 322.143L532.997 320.238L536.202 318.388L532.992 316.535L536.241 314.659L539.451 316.512L542.656 314.662L545.955 316.567L542.75 318.417L545.916 320.245L542.667 322.121L539.501 320.293L536.296 322.143Z" fill="black"/>
<path fill-rule="evenodd" clip-rule="evenodd" d="M546.939 322.739C542.8 325.129 536.117 325.126 531.971 322.732C527.825 320.338 527.819 316.48 531.959 314.09C536.098 311.7 542.825 311.678 546.971 314.072C551.117 316.466 551.078 320.349 546.939 322.739Z" fill="#00A1D9"/>
<path fill-rule="evenodd" clip-rule="evenodd" d="M556.504 308.986C550.628 312.378 525.795 298.041 531.67 294.649L537.457 291.308C543.332 287.916 568.166 302.253 562.29 305.646L556.504 308.986Z" fill="#04518C"/>
<path fill-rule="evenodd" clip-rule="evenodd" d="M539.417 314.994C539.781 314.784 540.348 314.771 540.683 314.965L545.749 317.889C546.084 318.083 546.062 318.41 545.698 318.62C545.335 318.83 544.768 318.843 544.433 318.649L539.367 315.725C539.031 315.531 539.054 315.204 539.417 314.994" fill="#04518C"/>
<path fill-rule="evenodd" clip-rule="evenodd" d="M539.162 314.844L544.102 314.731C544.596 314.719 544.981 314.941 544.961 315.227C544.942 315.512 544.525 315.753 544.031 315.764L540.88 315.837L540.755 317.656C540.735 317.941 540.318 318.181 539.824 318.193C539.33 318.204 538.945 317.982 538.965 317.697L539.162 314.844Z" fill="#04518C"/>
<path fill-rule="evenodd" clip-rule="evenodd" d="M538.417 321.903L533.352 318.978C533.016 318.784 533.039 318.457 533.402 318.247C533.766 318.037 534.333 318.024 534.668 318.218L539.734 321.143C540.069 321.336 540.047 321.664 539.683 321.873C539.32 322.083 538.753 322.096 538.417 321.903Z" fill="#04518C"/>
<path fill-rule="evenodd" clip-rule="evenodd" d="M539.939 322.023L534.999 322.137C534.504 322.148 534.12 321.926 534.139 321.641C534.159 321.355 534.576 321.115 535.07 321.103L538.22 321.031L538.346 319.212C538.366 318.927 538.782 318.686 539.277 318.675C539.771 318.663 540.156 318.885 540.136 319.171L539.939 322.023Z" fill="#04518C"/>
<g filter="url(#filter4_d_1647_2835)">
<path fill-rule="evenodd" clip-rule="evenodd" d="M320.251 387.382L456.894 387.927L456.647 449.983C457.941 455.914 455.5 462.55 449.338 465.817L395.779 494.22C391.569 496.452 386.526 496.455 382.314 494.226L327.817 465.393C322.864 462.773 320.316 457.987 320.167 453.136L319.989 453.135L320.251 387.382Z" fill="#005EA7"/>
<path d="M449.6 400.064C459.748 394.683 459.806 380.165 449.701 374.703L396.37 345.875C392.177 343.609 387.135 343.566 382.905 345.761L328.18 374.159C317.882 379.503 317.823 394.214 328.079 399.64L382.575 428.473C386.788 430.701 391.831 430.699 396.041 428.466L449.6 400.064Z" fill="#04518C"/>
<path fill-rule="evenodd" clip-rule="evenodd" d="M389.259 387.657L320.252 387.382L319.99 453.135L320.168 453.136C320.318 457.987 322.865 462.773 327.818 465.394L382.315 494.226C384.485 495.374 386.875 495.93 389.259 495.894V387.657Z" fill="#003055"/>
<path d="M449.601 400.064C459.749 394.683 459.807 380.165 449.702 374.703L396.371 345.875C392.178 343.609 387.136 343.566 382.906 345.761L328.181 374.159C317.883 379.503 317.824 394.214 328.079 399.64L382.576 428.473C386.789 430.701 391.831 430.699 396.042 428.466L449.601 400.064Z" fill="#04518C"/>
</g>
<path fill-rule="evenodd" clip-rule="evenodd" d="M406.53 372.032L381.42 367.964L370.057 374.524C362.734 378.891 361.717 385.39 366.734 390.341C367.755 391.349 369.026 392.293 370.545 393.142C379.31 398.034 393.255 398.011 402.067 393.09L413.503 386.487L406.53 372.032Z" fill="#00A1D9"/>
<path fill-rule="evenodd" clip-rule="evenodd" d="M401.954 374.626L382.827 371.556L374.128 376.579C367.293 380.525 367.231 386.868 373.991 390.771C380.751 394.673 391.737 394.638 398.572 390.692L407.272 385.669L401.954 374.626Z" fill="#04518C"/>
<path fill-rule="evenodd" clip-rule="evenodd" d="M381.152 386.178L380.83 378.631C380.795 377.828 381.894 377.193 383.283 377.214C384.674 377.233 385.827 377.899 385.861 378.702L386.06 383.345L410.599 383.695C411.989 383.714 413.143 384.381 413.177 385.183C413.212 385.985 412.113 386.62 410.723 386.6L381.152 386.178Z" fill="#00A1D9"/>
<path fill-rule="evenodd" clip-rule="evenodd" d="M692.646 230.724C685.489 234.856 673.955 234.896 666.884 230.814C659.813 226.731 659.883 220.072 667.04 215.94C674.196 211.808 685.73 211.768 692.801 215.85C699.872 219.933 699.803 226.592 692.646 230.724" fill="#119FD6"/>
<mask id="mask2_1647_2835" style="mask-type:luminance" maskUnits="userSpaceOnUse" x="644" y="202" width="72" height="42">
<path fill-rule="evenodd" clip-rule="evenodd" d="M680.035 202.556L715.828 223.221L679.925 243.95L644.132 223.285L680.035 202.556Z" fill="white"/>
</mask>
<g mask="url(#mask2_1647_2835)">
<path fill-rule="evenodd" clip-rule="evenodd" d="M661.711 233.435C660.362 232.656 660.375 231.38 661.741 230.591C662.985 229.874 664.923 229.805 666.28 230.385L668.631 229.028L667.828 228.565C667.697 228.489 667.661 228.379 667.704 228.274C667.759 228.138 667.991 228.082 668.09 228.07L671.03 227.711C671.089 227.704 671.348 227.667 671.525 227.769C671.69 227.864 671.638 228.021 671.626 228.055L671.003 229.752C670.964 229.858 670.829 229.943 670.65 229.975C670.471 230.006 670.277 229.979 670.146 229.903L669.344 229.44L666.993 230.797C667.998 231.58 667.88 232.7 666.637 233.418C665.271 234.206 663.061 234.214 661.711 233.435V233.435ZM697.306 233.915C695.865 234.747 693.534 234.755 692.111 233.933C690.815 233.185 690.714 232.005 691.792 231.171L689.342 229.756L688.485 230.251C688.345 230.332 688.143 230.355 687.952 230.33C687.705 230.299 687.604 230.158 687.584 230.098L686.965 228.312C686.953 228.276 686.889 228.118 687.078 228.009C687.254 227.908 687.539 227.937 687.601 227.944L690.694 228.302C690.887 228.324 691.042 228.406 691.097 228.514C691.153 228.623 691.1 228.742 690.96 228.822L690.103 229.317L692.553 230.731C693.997 230.109 696.042 230.167 697.337 230.915C698.761 231.737 698.747 233.083 697.306 233.915V233.915ZM697.563 215.693C696.252 216.45 694.206 216.523 692.775 215.911L690.195 217.4L691.021 217.877C691.154 217.954 691.207 218.066 691.158 218.172C691.11 218.278 690.969 218.362 690.787 218.394L687.311 218.988C687.23 219.002 686.917 219.064 686.719 218.949C686.52 218.834 686.587 218.677 686.61 218.632L687.682 216.601C687.736 216.496 687.881 216.415 688.065 216.387C688.248 216.359 688.443 216.389 688.576 216.466L689.443 216.966L692.023 215.476C690.963 214.65 691.088 213.469 692.399 212.712C693.84 211.88 696.171 211.872 697.595 212.694C699.019 213.516 699.004 214.861 697.563 215.693V215.693ZM668.148 218.877C668.044 218.865 667.799 218.814 667.746 218.664C667.706 218.553 667.743 218.437 667.883 218.357L668.74 217.862L666.266 216.433C664.822 217.055 662.777 216.997 661.482 216.249C660.058 215.427 660.072 214.082 661.513 213.25C662.954 212.418 665.285 212.41 666.709 213.232C668.004 213.979 668.105 215.16 667.027 215.994L669.502 217.422L670.358 216.928C670.498 216.847 670.703 216.816 670.891 216.849C671.079 216.881 671.221 216.97 671.259 217.081L671.878 218.867C671.888 218.895 671.951 219.058 671.783 219.155C671.565 219.281 671.296 219.24 671.242 219.234L668.148 218.877Z" fill="#113154"/>
</g>
<mask id="mask3_1647_2835" style="mask-type:luminance" maskUnits="userSpaceOnUse" x="644" y="202" width="72" height="42">
<path fill-rule="evenodd" clip-rule="evenodd" d="M644.132 223.285L679.925 243.95L715.828 223.221L680.035 202.556L644.132 223.285Z" fill="white"/>
</mask>
<g mask="url(#mask3_1647_2835)">
<path fill-rule="evenodd" clip-rule="evenodd" d="M672.473 223.609L679.364 227.588L680.224 227.092L673.332 223.113L672.473 223.609ZM674.829 222.249L681.721 226.228L682.576 225.734L675.685 221.755L674.829 222.249ZM677.05 220.966L683.942 224.945L684.8 224.45L677.908 220.471L677.05 220.966ZM688.108 221.308L688.203 224.322L686.171 223.149C685.824 222.948 685.814 222.631 686.149 222.438L688.108 221.308ZM681.302 216.883C680.955 216.683 680.406 216.677 680.071 216.87L668.651 223.464C668.316 223.657 668.326 223.974 668.673 224.174L678.384 229.781C678.731 229.981 679.28 229.987 679.615 229.794L689.077 224.331L688.982 221.318L681.302 216.883Z" fill="#113154"/>
</g>
<g filter="url(#filter5_d_1647_2835)">
<path fill-rule="evenodd" clip-rule="evenodd" d="M760.617 148.4L897.26 148.944L897.013 211C898.307 216.932 895.866 223.568 889.704 226.835L836.144 255.237C831.934 257.47 826.892 257.472 822.679 255.244L768.182 226.411C763.229 223.791 760.682 219.004 760.532 214.154L760.355 214.153L760.617 148.4Z" fill="#CBCF40"/>
<path d="M889.966 161.082C900.114 155.701 900.171 141.183 890.067 135.721L836.735 106.893C832.543 104.627 827.501 104.584 823.271 106.779L768.546 135.177C758.247 140.521 758.189 155.232 768.444 160.658L822.941 189.49C827.154 191.719 832.196 191.717 836.406 189.484L889.966 161.082Z" fill="#D9DE3A"/>
<path fill-rule="evenodd" clip-rule="evenodd" d="M829.624 148.675L760.617 148.4L760.355 214.153L760.532 214.154C760.682 219.005 763.23 223.791 768.183 226.411L822.68 255.244C824.85 256.392 827.241 256.948 829.624 256.912V148.675Z" fill="#BABE3C"/>
<path d="M889.967 161.082C900.114 155.701 900.172 141.183 890.068 135.721L836.736 106.893C832.544 104.627 827.502 104.584 823.272 106.779L768.547 135.177C758.248 140.521 758.19 155.232 768.445 160.658L822.942 189.491C827.155 191.719 832.197 191.717 836.407 189.484L889.967 161.082Z" fill="#D9DE3A"/>
</g>
<mask id="mask4_1647_2835" style="mask-type:luminance" maskUnits="userSpaceOnUse" x="806" y="134" width="49" height="28">
<path fill-rule="evenodd" clip-rule="evenodd" d="M829.623 134.348L854.137 148.501L831.18 161.755L806.666 147.602L829.623 134.348Z" fill="white"/>
</mask>
<g mask="url(#mask4_1647_2835)">
<path fill-rule="evenodd" clip-rule="evenodd" d="M836.103 157.024L832.823 155.13C831.921 154.61 830.445 154.61 829.544 155.13L826.264 157.024C825.362 157.544 825.362 158.397 826.264 158.917L829.544 160.811C830.445 161.331 831.921 161.331 832.823 160.811L836.103 158.917C837.005 158.397 837.005 157.544 836.103 157.024M827.9 152.288L824.621 150.395C823.719 149.874 822.243 149.874 821.341 150.395L818.061 152.288C817.159 152.809 817.159 153.661 818.061 154.181L821.341 156.075C822.243 156.596 823.718 156.595 824.62 156.075L827.9 154.181C828.802 153.661 828.802 152.809 827.9 152.288M819.705 147.557L816.425 145.663C815.524 145.142 814.048 145.142 813.146 145.663L809.867 147.557C808.965 148.077 808.965 148.929 809.866 149.45L813.146 151.344C814.048 151.864 815.524 151.864 816.425 151.343L819.705 149.45C820.607 148.929 820.607 148.077 819.705 147.557M844.302 152.29L841.022 150.397C840.12 149.876 838.644 149.876 837.742 150.397L834.463 152.29C833.561 152.811 833.561 153.663 834.463 154.183L837.743 156.077C838.645 156.598 840.12 156.598 841.022 156.077L844.302 154.184C845.204 153.663 845.204 152.811 844.302 152.29M836.099 147.554L832.819 145.661C831.918 145.14 830.442 145.14 829.54 145.661L826.26 147.554C825.359 148.075 825.359 148.927 826.26 149.448L829.54 151.341C830.442 151.862 831.918 151.862 832.819 151.341L836.099 149.448C837.001 148.927 837.001 148.075 836.099 147.554M828.422 142.07L824.363 139.727C823.247 139.083 821.421 139.083 820.305 139.727L816.247 142.07C815.131 142.715 815.131 143.769 816.247 144.413L820.305 146.756C821.421 147.401 823.247 147.401 824.363 146.756L828.422 144.413C829.538 143.769 829.538 142.715 828.422 142.07M852.5 147.556L849.221 145.663C848.319 145.142 846.843 145.142 845.942 145.663L842.662 147.556C841.76 148.077 841.76 148.929 842.662 149.45L845.942 151.343C846.843 151.864 848.319 151.864 849.221 151.343L852.501 149.45C853.402 148.929 853.402 148.077 852.5 147.556M844.298 142.821L841.018 140.927C840.116 140.407 838.641 140.407 837.739 140.927L834.459 142.821C833.557 143.341 833.557 144.193 834.459 144.714L837.739 146.607C838.641 147.128 840.116 147.128 841.018 146.607L844.298 144.714C845.2 144.193 845.2 143.341 844.298 142.821M836.103 138.089L832.823 136.196C831.922 135.675 830.446 135.675 829.544 136.196L826.264 138.089C825.363 138.61 825.363 139.462 826.264 139.983L829.544 141.876C830.446 142.397 831.922 142.397 832.823 141.876L836.103 139.983C837.005 139.462 837.005 138.61 836.103 138.089" fill="#04A0D8"/>
</g>
<path fill-rule="evenodd" clip-rule="evenodd" d="M814.966 145.024C812.165 143.407 812.165 140.786 814.966 139.169C817.766 137.553 822.306 137.553 825.107 139.169C827.907 140.786 827.907 143.407 825.107 145.024C822.306 146.641 817.766 146.641 814.966 145.024V145.024ZM822.28 148.7C828.595 147.985 832.711 144.45 831.473 140.804C830.235 137.158 824.112 134.782 817.796 135.496C811.481 136.211 807.365 139.746 808.603 143.392C809.515 146.076 813.149 148.174 817.797 148.7L817.798 154.173C817.842 154.887 818.88 155.446 820.117 155.42C821.293 155.397 822.236 154.852 822.278 154.173L822.28 148.7Z" fill="#133055"/>
</g>
<defs>
<filter id="filter0_d_1647_2835" x="-255.263" y="48.6116" width="1418.53" height="827.44" filterUnits="userSpaceOnUse" color-interpolation-filters="sRGB">
<feFlood flood-opacity="0" result="BackgroundImageFix"/>
<feColorMatrix in="SourceAlpha" type="matrix" values="0 0 0 0 0 0 0 0 0 0 0 0 0 0 0 0 0 0 127 0" result="hardAlpha"/>
<feOffset dy="5"/>
<feGaussianBlur stdDeviation="5"/>
<feComposite in2="hardAlpha" operator="out"/>
<feColorMatrix type="matrix" values="0 0 0 0 0 0 0 0 0 0 0 0 0 0 0 0 0 0 0.15 0"/>
<feBlend mode="normal" in2="BackgroundImageFix" result="effect1_dropShadow_1647_2835"/>
<feBlend mode="normal" in="SourceGraphic" in2="effect1_dropShadow_1647_2835" result="shape"/>
</filter>
<filter id="filter1_d_1647_2835" x="897.478" y="10.8638" width="155.258" height="169.751" filterUnits="userSpaceOnUse" color-interpolation-filters="sRGB">
<feFlood flood-opacity="0" result="BackgroundImageFix"/>
<feColorMatrix in="SourceAlpha" type="matrix" values="0 0 0 0 0 0 0 0 0 0 0 0 0 0 0 0 0 0 127 0" result="hardAlpha"/>
<feOffset dy="4"/>
<feGaussianBlur stdDeviation="4.5"/>
<feComposite in2="hardAlpha" operator="out"/>
<feColorMatrix type="matrix" values="0 0 0 0 0 0 0 0 0 0 0 0 0 0 0 0 0 0 0.1 0"/>
<feBlend mode="normal" in2="BackgroundImageFix" result="effect1_dropShadow_1647_2835"/>
<feBlend mode="normal" in="SourceGraphic" in2="effect1_dropShadow_1647_2835" result="shape"/>
</filter>
<filter id="filter2_d_1647_2835" x="461.985" y="261.211" width="155.258" height="169.751" filterUnits="userSpaceOnUse" color-interpolation-filters="sRGB">
<feFlood flood-opacity="0" result="BackgroundImageFix"/>
<feColorMatrix in="SourceAlpha" type="matrix" values="0 0 0 0 0 0 0 0 0 0 0 0 0 0 0 0 0 0 127 0" result="hardAlpha"/>
<feOffset dy="4"/>
<feGaussianBlur stdDeviation="4.5"/>
<feComposite in2="hardAlpha" operator="out"/>
<feColorMatrix type="matrix" values="0 0 0 0 0 0 0 0 0 0 0 0 0 0 0 0 0 0 0.1 0"/>
<feBlend mode="normal" in2="BackgroundImageFix" result="effect1_dropShadow_1647_2835"/>
<feBlend mode="normal" in="SourceGraphic" in2="effect1_dropShadow_1647_2835" result="shape"/>
</filter>
<filter id="filter3_d_1647_2835" x="601.614" y="175.16" width="155.259" height="169.752" filterUnits="userSpaceOnUse" color-interpolation-filters="sRGB">
<feFlood flood-opacity="0" result="BackgroundImageFix"/>
<feColorMatrix in="SourceAlpha" type="matrix" values="0 0 0 0 0 0 0 0 0 0 0 0 0 0 0 0 0 0 127 0" result="hardAlpha"/>
<feOffset dy="4"/>
<feGaussianBlur stdDeviation="4.5"/>
<feComposite in2="hardAlpha" operator="out"/>
<feColorMatrix type="matrix" values="0 0 0 0 0 0 0 0 0 0 0 0 0 0 0 0 0 0 0.1 0"/>
<feBlend mode="normal" in2="BackgroundImageFix" result="effect1_dropShadow_1647_2835"/>
<feBlend mode="normal" in="SourceGraphic" in2="effect1_dropShadow_1647_2835" result="shape"/>
</filter>
<filter id="filter4_d_1647_2835" x="310.989" y="339.145" width="155.258" height="169.751" filterUnits="userSpaceOnUse" color-interpolation-filters="sRGB">
<feFlood flood-opacity="0" result="BackgroundImageFix"/>
<feColorMatrix in="SourceAlpha" type="matrix" values="0 0 0 0 0 0 0 0 0 0 0 0 0 0 0 0 0 0 127 0" result="hardAlpha"/>
<feOffset dy="4"/>
<feGaussianBlur stdDeviation="4.5"/>
<feComposite in2="hardAlpha" operator="out"/>
<feColorMatrix type="matrix" values="0 0 0 0 0 0 0 0 0 0 0 0 0 0 0 0 0 0 0.1 0"/>
<feBlend mode="normal" in2="BackgroundImageFix" result="effect1_dropShadow_1647_2835"/>
<feBlend mode="normal" in="SourceGraphic" in2="effect1_dropShadow_1647_2835" result="shape"/>
</filter>
<filter id="filter5_d_1647_2835" x="751.354" y="100.162" width="155.258" height="169.751" filterUnits="userSpaceOnUse" color-interpolation-filters="sRGB">
<feFlood flood-opacity="0" result="BackgroundImageFix"/>
<feColorMatrix in="SourceAlpha" type="matrix" values="0 0 0 0 0 0 0 0 0 0 0 0 0 0 0 0 0 0 127 0" result="hardAlpha"/>
<feOffset dy="4"/>
<feGaussianBlur stdDeviation="4.5"/>
<feComposite in2="hardAlpha" operator="out"/>
<feColorMatrix type="matrix" values="0 0 0 0 0 0 0 0 0 0 0 0 0 0 0 0 0 0 0.1 0"/>
<feBlend mode="normal" in2="BackgroundImageFix" result="effect1_dropShadow_1647_2835"/>
<feBlend mode="normal" in="SourceGraphic" in2="effect1_dropShadow_1647_2835" result="shape"/>
</filter>
<linearGradient id="paint0_linear_1647_2835" x1="1032.69" y1="83.2354" x2="453.923" y2="1085.69" gradientUnits="userSpaceOnUse">
<stop stop-color="#0089BC"/>
<stop offset="1" stop-color="#018ABD" stop-opacity="0"/>
</linearGradient>
</defs>
</svg>
