<svg width="400" height="400" viewBox="0 0 400 400" fill="none" xmlns="http://www.w3.org/2000/svg">
<path fill-rule="evenodd" clip-rule="evenodd" d="M212.66 91.434L127.154 140.296V201.764C127.794 242.03 155.022 275.226 191.165 284.853C198.524 286.813 206.252 287.796 214.2 287.663C260.037 286.874 297.012 249.047 297.782 202.158V140.296L212.66 91.434Z" fill="#00A1D9"/>
<path fill-rule="evenodd" clip-rule="evenodd" d="M211.972 117.599L146.003 154.873V201.836C146.003 238.734 175.485 268.554 211.972 268.554C248.46 268.554 277.942 238.734 277.942 201.836V154.873L211.972 117.599Z" fill="#04518C"/>
<path fill-rule="evenodd" clip-rule="evenodd" d="M209.362 228.299L174.571 192.868C170.87 189.102 170.87 182.993 174.571 179.23C178.27 175.461 184.261 175.461 187.963 179.23L209.362 201.024L274.673 134.513C278.371 130.747 284.366 130.747 288.064 134.513C291.762 138.28 291.762 144.388 288.064 148.151L209.362 228.299Z" fill="#00A1D9"/>
<path fill-rule="evenodd" clip-rule="evenodd" d="M263.672 342.577C264.118 337.644 260.956 333.231 256.602 332.725C252.252 332.216 248.359 335.804 247.913 340.74C247.464 345.673 250.629 350.083 254.982 350.592C259.333 351.099 263.225 347.51 263.672 342.577" fill="#04518C"/>
<path fill-rule="evenodd" clip-rule="evenodd" d="M34.3994 231.114C34.9519 225.659 31.0428 220.783 25.6684 220.223C20.2914 219.662 15.4852 223.628 14.9328 229.083C14.3777 234.535 18.2895 239.411 23.6638 239.971C29.0408 240.534 33.847 236.568 34.3994 231.114" fill="#04518C"/>
<path fill-rule="evenodd" clip-rule="evenodd" d="M213.949 348.749C206.541 348.749 199.118 348.365 191.701 347.596C119.017 340.062 55.7037 296.396 22.336 230.793L24.5928 229.624C57.5696 294.455 120.137 337.607 191.96 345.053C213.38 347.271 234.84 346.245 255.758 341.994L256.258 344.503C242.341 347.33 228.176 348.749 213.949 348.749" fill="#04518C"/>
<path fill-rule="evenodd" clip-rule="evenodd" d="M239.432 385.997C240.301 377.426 234.157 369.766 225.709 368.884C217.263 368.001 209.71 374.235 208.841 382.803C207.973 391.374 214.115 399.037 222.563 399.917C231.011 400.799 238.562 394.568 239.432 385.997" fill="#04518C"/>
<path fill-rule="evenodd" clip-rule="evenodd" d="M137.858 53.9557C138.621 46.4244 133.225 39.6906 125.801 38.9167C118.378 38.1427 111.741 43.6178 110.975 51.149C110.212 58.6803 115.612 65.4141 123.035 66.188C130.458 66.9646 137.096 61.4869 137.858 53.9557" fill="#04518C"/>
<path fill-rule="evenodd" clip-rule="evenodd" d="M227.248 388.655C224.488 388.49 221.701 388.264 218.966 387.976C169.329 382.812 124.655 358.415 93.1675 319.279C61.6798 280.14 47.1534 230.946 52.2601 180.76C57.4585 129.684 82.2365 83.9817 122.032 52.0798L123.615 54.0943C84.3586 85.5639 59.9164 130.643 54.7893 181.023C49.7513 230.527 64.0817 279.049 95.1395 317.653C126.197 356.259 170.265 380.327 219.226 385.418C221.925 385.701 224.673 385.923 227.398 386.087L227.248 388.655Z" fill="#04518C"/>
<path fill-rule="evenodd" clip-rule="evenodd" d="M397.6 143.718C397.185 137.466 391.855 132.741 385.692 133.162C379.53 133.584 374.873 138.994 375.288 145.243C375.703 151.494 381.034 156.219 387.196 155.798C393.358 155.377 398.016 149.969 397.6 143.718" fill="#04518C"/>
<path fill-rule="evenodd" clip-rule="evenodd" d="M290.725 21.0324C290.535 18.1668 288.092 16.0023 285.267 16.1955C282.445 16.3881 280.308 18.8672 280.499 21.7328C280.689 24.5959 283.133 26.7629 285.957 26.5697C288.782 26.3764 290.916 23.898 290.725 21.0324" fill="#04518C"/>
<path fill-rule="evenodd" clip-rule="evenodd" d="M387.689 145.14L385.198 144.741C386.316 137.054 386.608 129.177 386.068 121.332C382.298 66.6408 339.318 23.6762 286.095 21.3925L286.183 18.8023C340.7 21.1412 384.722 65.1487 388.582 121.167C389.135 129.201 388.837 137.266 387.689 145.14" fill="#04518C"/>
<path fill-rule="evenodd" clip-rule="evenodd" d="M382.104 288.911C382.104 286.041 379.81 283.711 376.977 283.711C374.146 283.711 371.852 286.041 371.852 288.911C371.852 291.782 374.146 294.111 376.977 294.111C379.81 294.111 382.104 291.782 382.104 288.911" fill="#04518C"/>
<path fill-rule="evenodd" clip-rule="evenodd" d="M26.0949 106.915C26.0949 99.6065 20.2538 93.6788 13.0461 93.6788C5.84112 93.6788 0 99.6065 0 106.915C0 114.223 5.84112 120.151 13.0461 120.151C20.2538 120.151 26.0949 114.223 26.0949 106.915" fill="#04518C"/>
</svg>
