<svg width="400" height="381" viewBox="0 0 400 381" fill="none" xmlns="http://www.w3.org/2000/svg">
<path fill-rule="evenodd" clip-rule="evenodd" d="M115.923 51.9841C116.741 44.0182 110.951 36.8958 102.986 36.0771C95.0203 35.2585 87.8984 41.0496 87.0771 49.0155C86.2585 56.9813 92.0519 64.1038 100.017 64.9224C107.982 65.7438 115.104 59.9499 115.923 51.9841Z" fill="#04518C"/>
<path fill-rule="evenodd" clip-rule="evenodd" d="M363 309.5C363 306.464 360.538 304 357.499 304C354.462 304 352 306.464 352 309.5C352 312.536 354.462 315 357.499 315C360.538 315 363 312.536 363 309.5Z" fill="#04518C"/>
<path fill-rule="evenodd" clip-rule="evenodd" d="M66 280C66 272.27 59.7324 266 51.9986 266C44.2676 266 38 272.27 38 280C38 287.73 44.2676 294 51.9986 294C59.7324 294 66 287.73 66 280Z" fill="#04518C"/>
<path fill-rule="evenodd" clip-rule="evenodd" d="M374.025 46.4739C370.505 30.7502 356.637 19 340.033 19C320.769 19 305.153 34.8017 305.153 54.294C305.153 55.3073 305.22 56.3033 305.303 57.2947C295.68 57.287 288 65.0577 288 74.6435C288 84.2293 295.68 92 305.153 92H377.367C389.867 92 400 81.747 400 69.0982C400 56.4504 389.867 46.1969 377.367 46.1969C376.229 46.1969 375.119 46.3097 374.025 46.4739Z" fill="#00A1D9"/>
<path fill-rule="evenodd" clip-rule="evenodd" d="M74.5042 118.71C71.4553 105.141 59.4448 95 45.0645 95C28.3806 95 14.8557 108.637 14.8557 125.459C14.8557 126.334 14.914 127.193 14.9857 128.049C6.65106 128.042 0 134.748 0 143.021C0 151.294 6.65106 158 14.8557 158H77.398C88.2238 158 97 149.151 97 138.235C97 127.32 88.2238 118.471 77.398 118.471C76.4122 118.471 75.4509 118.569 74.5042 118.71Z" fill="#00A1D9"/>
<path fill-rule="evenodd" clip-rule="evenodd" d="M350.245 266.549C348.516 258.795 341.706 253 333.552 253C324.092 253 316.423 260.793 316.423 270.405C316.423 270.905 316.456 271.396 316.497 271.885C311.771 271.881 308 275.713 308 280.441C308 285.168 311.771 289 316.423 289H351.885C358.024 289 363 283.944 363 277.706C363 271.469 358.024 266.412 351.885 266.412C351.327 266.412 350.781 266.468 350.245 266.549Z" fill="#00A1D9"/>
<path fill-rule="evenodd" clip-rule="evenodd" d="M198.534 352.312C196.302 342.404 187.511 335 176.985 335C164.773 335 154.874 344.957 154.874 357.24C154.874 357.879 154.916 358.506 154.969 359.131C148.868 359.126 144 364.023 144 370.063C144 376.103 148.868 381 154.874 381H200.652C208.576 381 215 374.539 215 366.569C215 358.599 208.576 352.138 200.652 352.138C199.931 352.138 199.227 352.209 198.534 352.312Z" fill="#00A1D9"/>
<path fill-rule="evenodd" clip-rule="evenodd" d="M144.111 253.808V225.928C144.111 224.856 144.326 223.998 144.541 223.14C158.729 233.864 190.115 238.153 218.061 236.008C218.491 234.078 219.136 232.148 219.996 230.218C185.815 233.22 144.111 226.357 144.111 209.629V181.75C144.111 181.321 144.111 180.892 144.326 180.248C167.543 198.692 240.418 198.692 263.85 180.248V181.75V202.123C288.142 202.981 307.704 222.926 307.704 247.589C307.704 272.466 287.282 292.84 262.13 292.84C246.867 292.84 233.324 285.334 225.155 273.968C190.115 278.042 144.111 271.394 144.111 253.808Z" fill="#04518C"/>
<path fill-rule="evenodd" clip-rule="evenodd" d="M270.084 270.751H254.176V255.31H238.698V239.654H254.176V224.213H270.084V239.654H285.347V255.31H270.084V270.751Z" fill="black"/>
<path fill-rule="evenodd" clip-rule="evenodd" d="M298.245 247.589C298.245 267.534 282.122 283.618 262.13 283.618C242.138 283.618 226.015 267.534 226.015 247.589C226.015 227.644 242.138 211.345 262.13 211.345C282.122 211.345 298.245 227.644 298.245 247.589Z" fill="#00A1D9"/>
<path fill-rule="evenodd" clip-rule="evenodd" d="M263.85 167.166C263.85 195.475 144.111 195.475 144.111 167.166V139.286C144.111 110.977 263.85 110.977 263.85 139.286V167.166Z" fill="#04518C"/>
<path fill-rule="evenodd" clip-rule="evenodd" d="M247.258 234.651C247.258 232.986 248.618 231.636 250.295 231.636H275.613C277.29 231.636 278.65 232.986 278.65 234.651C278.65 236.316 277.29 237.667 275.613 237.667H250.295C248.618 237.667 247.258 236.316 247.258 234.651Z" fill="#04518C"/>
<path fill-rule="evenodd" clip-rule="evenodd" d="M246 234.651L257.854 222.883C259.041 221.706 260.963 221.706 262.149 222.883C263.335 224.061 263.335 225.97 262.149 227.147L254.59 234.651L262.149 242.155C263.335 243.333 263.335 245.242 262.149 246.42C260.963 247.597 259.041 247.597 257.854 246.42L246 234.651Z" fill="#04518C"/>
<path fill-rule="evenodd" clip-rule="evenodd" d="M274.664 264.364H249.346C247.669 264.364 246.309 263.014 246.309 261.349C246.309 259.684 247.669 258.333 249.346 258.333H274.664C276.341 258.333 277.701 259.684 277.701 261.349C277.701 263.014 276.341 264.364 274.664 264.364Z" fill="#04518C"/>
<path fill-rule="evenodd" clip-rule="evenodd" d="M278.959 261.349L267.105 273.117C265.919 274.294 263.996 274.294 262.81 273.117C261.624 271.939 261.624 270.03 262.81 268.853L270.369 261.349L262.81 253.845C261.624 252.667 261.624 250.758 262.81 249.58C263.996 248.403 265.919 248.403 267.105 249.58L278.959 261.349Z" fill="#04518C"/>
</svg>
