<svg width="383" height="368" viewBox="0 0 383 368" fill="none" xmlns="http://www.w3.org/2000/svg">
<mask id="mask0_1167_7887" style="mask-type:luminance" maskUnits="userSpaceOnUse" x="123" y="123" width="160" height="150">
<path fill-rule="evenodd" clip-rule="evenodd" d="M123.546 123.048H282.658V272.051H123.546V123.048Z" fill="white"/>
</mask>
<g mask="url(#mask0_1167_7887)">
<path fill-rule="evenodd" clip-rule="evenodd" d="M272.015 229.479H250.729C244.875 229.479 240.086 234.268 240.086 240.122V261.408C240.086 267.262 244.875 272.051 250.729 272.051H272.015C277.869 272.051 282.658 267.262 282.658 261.408V240.122C282.658 234.268 277.869 229.479 272.015 229.479M218.799 229.479H197.513C191.659 229.479 186.87 234.268 186.87 240.122V261.408C186.87 267.262 191.659 272.051 197.513 272.051H218.799C224.653 272.051 229.441 267.262 229.441 261.408V240.122C229.441 234.268 224.653 229.479 218.799 229.479M165.584 229.479H144.297C138.444 229.479 133.655 234.268 133.655 240.122V261.408C133.655 267.262 138.444 272.051 144.297 272.051H165.584C171.437 272.051 176.226 267.262 176.226 261.408V240.122C176.226 234.268 171.437 229.479 165.584 229.479M272.015 176.264H250.729C244.875 176.264 240.086 181.053 240.086 186.907V208.193C240.086 214.046 244.875 218.836 250.729 218.836H272.015C277.869 218.836 282.658 214.046 282.658 208.193V186.907C282.658 181.053 277.869 176.264 272.015 176.264M218.799 176.264H197.513C191.659 176.264 186.87 181.053 186.87 186.907V208.193C186.87 214.046 191.659 218.836 197.513 218.836H218.799C224.653 218.836 229.441 214.046 229.441 208.193V186.907C229.441 181.053 224.653 176.264 218.799 176.264M163.056 170.359H136.716C129.473 170.359 123.545 176.285 123.545 183.529V209.87C123.545 217.114 129.473 223.04 136.716 223.04H163.056C170.3 223.04 176.226 217.114 176.226 209.87V183.529C176.226 176.285 170.3 170.359 163.056 170.359M272.015 123.049H250.729C244.875 123.049 240.086 127.838 240.086 133.691V154.978C240.086 160.831 244.875 165.62 250.729 165.62H272.015C277.869 165.62 282.658 160.831 282.658 154.978V133.691C282.658 127.838 277.869 123.049 272.015 123.049M218.799 123.049H197.513C191.659 123.049 186.87 127.838 186.87 133.691V154.978C186.87 160.831 191.659 165.62 197.513 165.62H218.799C224.653 165.62 229.441 160.831 229.441 154.978V133.691C229.441 127.838 224.653 123.049 218.799 123.049M165.584 123.049H144.297C138.444 123.049 133.655 127.838 133.655 133.691V154.978C133.655 160.831 138.444 165.62 144.297 165.62H165.584C171.437 165.62 176.226 160.831 176.226 154.978V133.691C176.226 127.838 171.437 123.049 165.584 123.049" fill="#04A0D8"/>
</g>
<path fill-rule="evenodd" clip-rule="evenodd" d="M135.997 230.625C117.821 230.625 103.086 215.89 103.086 197.714C103.086 179.538 117.821 164.805 135.997 164.805C154.173 164.805 168.908 179.538 168.908 197.714C168.908 215.89 154.173 230.625 135.997 230.625V230.625ZM180.385 227.553C196.863 203.041 190.348 169.812 165.836 153.335C141.324 136.857 108.095 143.371 91.6168 167.884C75.1401 192.396 81.654 225.625 106.167 242.102C124.208 254.229 147.795 254.229 165.836 242.102L196.607 272.861C200.763 276.732 207.27 276.502 211.143 272.347C214.823 268.397 214.823 262.274 211.143 258.324L180.385 227.553Z" fill="#133055"/>
<path d="M153.027 342.503C146.932 346.914 145.564 355.429 149.975 361.523C154.385 367.616 162.9 368.984 168.996 364.575C171.552 362.725 173.276 360.153 174.091 357.34C220.48 362.523 266.374 350.497 304.484 322.943C336.85 299.541 360.382 267.187 372.593 229.929C371.282 246.854 367.937 263.732 362.514 280.219C359.596 279.237 356.263 279.632 353.578 281.576C349.164 284.77 348.175 290.937 351.368 295.349C354.563 299.763 360.729 300.752 365.143 297.557C369.557 294.366 370.544 288.198 367.351 283.786C366.64 282.803 365.782 281.99 364.829 281.355C371.53 261.093 375.125 240.244 375.698 219.431C377.336 213.237 378.67 206.924 379.688 200.508C387.02 154.3 377.172 107.952 351.914 68.88C356.367 63.5649 356.832 55.7172 352.581 49.845C347.563 42.9088 337.875 41.3556 330.939 46.3739C324.002 51.3923 322.45 61.0821 327.468 68.0183C332.484 74.9527 342.175 76.5061 349.11 71.4895C349.443 71.2486 349.763 70.9969 350.071 70.7353C374.76 109.175 384.365 154.708 377.159 200.102C376.732 202.79 376.25 205.46 375.712 208.111C374.629 164.966 360.579 122.469 334.302 86.2076C329.893 80.1205 325.193 74.2851 320.22 68.7151C312.369 59.9233 303.836 51.7972 294.694 44.4103C295.778 41.8231 295.63 38.9017 294.036 36.6419C291.49 33.0353 286.218 32.4837 282.261 35.4128C278.305 38.3419 277.158 43.6404 279.705 47.2488C282.249 50.8572 287.522 51.4088 291.48 48.4779C292.216 47.9338 292.854 47.3078 293.39 46.6259C308.03 58.496 321.071 72.2812 332.244 87.6957C360.411 126.567 374.36 172.692 373.157 219.019C362.251 260.017 337.799 295.693 302.981 320.868C265.448 348.004 220.26 359.87 174.572 354.817C174.873 351.639 174.064 348.343 172.046 345.554C167.637 339.458 159.121 338.093 153.027 342.503Z" fill="#04518C"/>
<path fill-rule="evenodd" clip-rule="evenodd" d="M42.1717 71.824C37.8171 76.2735 37.8938 83.4089 42.3432 87.7635C46.7927 92.1181 53.9295 92.0391 58.2827 87.5919C62.6373 83.1424 62.5606 76.007 58.1111 71.6524C53.6617 67.2978 46.5263 67.3746 42.1717 71.824Z" fill="#04518C"/>
<path d="M21.8816 235.092C21.1396 236.968 21.5409 239.187 23.0736 240.687C25.1113 242.682 28.3829 242.647 30.379 240.607C32.3736 238.57 32.3391 235.298 30.2994 233.302C28.4189 231.462 25.4931 231.349 23.4836 232.94C-7.46759 191.566 -3.57413 133.203 33.3228 95.311C38.7744 89.7124 44.8089 84.7194 51.2572 80.4725L49.88 78.335C43.2737 82.6832 37.0957 87.7967 31.5124 93.5301C-6.45748 132.521 -10.3057 192.679 21.8816 235.092Z" fill="#04518C"/>
<path fill-rule="evenodd" clip-rule="evenodd" d="M163.069 2.23991C160.942 4.13966 160.756 7.40632 162.658 9.53654C164.558 11.6647 167.825 11.8479 169.952 9.94819C172.08 8.04844 172.266 4.78178 170.366 2.65364C168.464 0.523416 165.197 0.340151 163.069 2.23991Z" fill="#04518C"/>
<path fill-rule="evenodd" clip-rule="evenodd" d="M74.3267 338.809C68.9097 343.646 68.4379 351.961 73.2771 357.38C78.1145 362.798 86.4298 363.267 91.8468 358.43C97.2638 353.593 97.7356 345.278 92.8982 339.86C88.0589 334.441 79.7437 333.972 74.3267 338.809Z" fill="#04518C"/>
</svg>
