<svg width="565" height="564" viewBox="0 0 565 564" fill="none" xmlns="http://www.w3.org/2000/svg">
<mask id="mask0_1167_7887" style="mask-type:luminance" maskUnits="userSpaceOnUse" x="207" y="217" width="160" height="150">
<path fill-rule="evenodd" clip-rule="evenodd" d="M207.546 217.048H366.658V366.051H207.546V217.048Z" fill="white"/>
</mask>
<g mask="url(#mask0_1167_7887)">
<path fill-rule="evenodd" clip-rule="evenodd" d="M356.015 323.479H334.729C328.875 323.479 324.086 328.268 324.086 334.122V355.408C324.086 361.262 328.875 366.051 334.729 366.051H356.015C361.869 366.051 366.658 361.262 366.658 355.408V334.122C366.658 328.268 361.869 323.479 356.015 323.479ZM302.799 323.479H281.513C275.659 323.479 270.87 328.268 270.87 334.122V355.408C270.87 361.262 275.659 366.051 281.513 366.051H302.799C308.653 366.051 313.441 361.262 313.441 355.408V334.122C313.441 328.268 308.653 323.479 302.799 323.479ZM249.584 323.479H228.297C222.444 323.479 217.655 328.268 217.655 334.122V355.408C217.655 361.262 222.444 366.051 228.297 366.051H249.584C255.437 366.051 260.226 361.262 260.226 355.408V334.122C260.226 328.268 255.437 323.479 249.584 323.479ZM356.015 270.264H334.729C328.875 270.264 324.086 275.054 324.086 280.908V302.193C324.086 308.046 328.875 312.836 334.729 312.836H356.015C361.869 312.836 366.658 308.046 366.658 302.193V280.908C366.658 275.054 361.869 270.264 356.015 270.264ZM302.799 270.264H281.513C275.659 270.264 270.87 275.054 270.87 280.908V302.193C270.87 308.046 275.659 312.836 281.513 312.836H302.799C308.653 312.836 313.441 308.046 313.441 302.193V280.908C313.441 275.054 308.653 270.264 302.799 270.264ZM247.056 264.359H220.716C213.473 264.359 207.545 270.285 207.545 277.529V303.87C207.545 311.114 213.473 317.04 220.716 317.04H247.056C254.3 317.04 260.226 311.114 260.226 303.87V277.529C260.226 270.285 254.3 264.359 247.056 264.359ZM356.015 217.049H334.729C328.875 217.049 324.086 221.838 324.086 227.691V248.978C324.086 254.831 328.875 259.62 334.729 259.62H356.015C361.869 259.62 366.658 254.831 366.658 248.978V227.691C366.658 221.838 361.869 217.049 356.015 217.049ZM302.799 217.049H281.513C275.659 217.049 270.87 221.838 270.87 227.691V248.978C270.87 254.831 275.659 259.62 281.513 259.62H302.799C308.653 259.62 313.441 254.831 313.441 248.978V227.691C313.441 221.838 308.653 217.049 302.799 217.049ZM249.584 217.049H228.297C222.444 217.049 217.655 221.838 217.655 227.691V248.978C217.655 254.831 222.444 259.62 228.297 259.62H249.584C255.437 259.62 260.226 254.831 260.226 248.978V227.691C260.226 221.838 255.437 217.049 249.584 217.049Z" fill="#04A0D8"/>
</g>
<path fill-rule="evenodd" clip-rule="evenodd" d="M219.997 324.625C201.821 324.625 187.086 309.891 187.086 291.715C187.086 273.538 201.821 258.805 219.997 258.805C238.173 258.805 252.908 273.538 252.908 291.715C252.908 309.891 238.173 324.625 219.997 324.625ZM264.385 321.554C280.863 297.041 274.348 263.812 249.836 247.335C225.324 230.857 192.095 237.371 175.617 261.884C159.14 286.396 165.654 319.626 190.167 336.102C208.208 348.229 231.795 348.229 249.836 336.102L280.607 366.861C284.763 370.732 291.27 370.502 295.143 366.347C298.823 362.397 298.823 356.274 295.143 352.324L264.385 321.554Z" fill="#133055"/>
<path fill-rule="evenodd" clip-rule="evenodd" d="M366.261 129.413C362.305 132.342 361.158 137.641 363.705 141.249C366.249 144.857 371.522 145.409 375.48 142.478C379.438 139.551 380.582 134.252 378.036 130.642C375.491 127.035 370.218 126.484 366.261 129.413Z" fill="#04518C"/>
<path fill-rule="evenodd" clip-rule="evenodd" d="M437.578 375.576C433.164 378.771 432.175 384.937 435.368 389.349C438.563 393.763 444.729 394.752 449.143 391.557C453.557 388.366 454.544 382.198 451.351 377.786C448.158 373.37 441.992 372.381 437.578 375.576Z" fill="#04518C"/>
<path fill-rule="evenodd" clip-rule="evenodd" d="M404.22 162.715C409.193 168.285 413.893 174.121 418.302 180.208C461.519 239.845 471.662 316.351 445.441 384.859L443.059 383.935C468.97 316.233 458.947 240.629 416.244 181.696C403.506 164.121 388.338 148.665 371.142 135.75L372.667 133.713C384.105 142.307 394.668 152.018 404.22 162.715Z" fill="#04518C"/>
<path fill-rule="evenodd" clip-rule="evenodd" d="M414.939 140.374C408.002 145.392 406.45 155.082 411.468 162.019C416.484 168.953 426.175 170.506 433.11 165.49C440.045 160.469 441.601 150.78 436.581 143.845C431.563 136.909 421.875 135.356 414.939 140.374Z" fill="#04518C"/>
<path fill-rule="evenodd" clip-rule="evenodd" d="M237.027 436.504C230.932 440.914 229.564 449.429 233.975 455.523C238.385 461.617 246.9 462.984 252.996 458.575C259.09 454.164 260.456 445.648 256.046 439.554C251.637 433.458 243.121 432.093 237.027 436.504Z" fill="#04518C"/>
<path fill-rule="evenodd" clip-rule="evenodd" d="M425.088 147.776C426.819 149.961 428.522 152.206 430.145 154.453C459.645 195.194 471.555 244.931 463.688 294.509C455.82 344.088 429.111 387.568 388.484 416.943C347.136 446.838 296.626 458.454 246.262 449.645L246.692 447.122C296.374 455.812 346.197 444.355 386.981 414.868C427.056 385.892 453.398 343.004 461.159 294.102C468.922 245.198 457.174 196.134 428.075 155.951C426.473 153.733 424.792 151.521 423.084 149.363L425.088 147.776Z" fill="#04518C"/>
<path fill-rule="evenodd" clip-rule="evenodd" d="M126.172 165.824C121.817 170.274 121.894 177.409 126.343 181.764C130.793 186.118 137.93 186.039 142.283 181.592C146.637 177.143 146.561 170.007 142.111 165.653C137.662 161.298 130.526 161.375 126.172 165.824Z" fill="#04518C"/>
<path fill-rule="evenodd" clip-rule="evenodd" d="M106.994 327.382C104.998 329.422 105.034 332.691 107.074 334.687C109.111 336.682 112.383 336.647 114.379 334.608C116.374 332.57 116.339 329.298 114.299 327.302C112.26 325.306 108.99 325.342 106.994 327.382Z" fill="#04518C"/>
<path fill-rule="evenodd" clip-rule="evenodd" d="M133.88 172.335L135.257 174.473C128.809 178.72 122.774 183.713 117.323 189.311C79.3166 228.342 76.3282 289.094 110.37 330.625L108.391 332.273C73.5217 289.733 76.5831 227.507 115.512 187.53C121.096 181.797 127.274 176.683 133.88 172.335Z" fill="#04518C"/>
<path fill-rule="evenodd" clip-rule="evenodd" d="M247.069 96.24C244.942 98.1398 244.756 101.406 246.658 103.537C248.558 105.665 251.825 105.848 253.952 103.948C256.08 102.049 256.266 98.7819 254.366 96.6538C252.464 94.5235 249.197 94.3403 247.069 96.24Z" fill="#04518C"/>
<path fill-rule="evenodd" clip-rule="evenodd" d="M158.327 432.809C152.91 437.646 152.438 445.961 157.277 451.38C162.115 456.798 170.43 457.267 175.847 452.43C181.264 447.593 181.736 439.278 176.898 433.86C172.059 428.441 163.744 427.972 158.327 432.809Z" fill="#04518C"/>
</svg>
