<?xml version="1.0" encoding="UTF-8"?>
<svg width="162px" height="23px" viewBox="0 0 162 23" version="1.1" xmlns="http://www.w3.org/2000/svg" xmlns:xlink="http://www.w3.org/1999/xlink">
    <!-- Generator: Sketch 47.1 (45422) - http://www.bohemiancoding.com/sketch -->
    <title>microsoft-azure-2</title>
    <desc>Created with Sketch.</desc>
    <defs></defs>
    <g id="final" stroke="none" stroke-width="1" fill="none" fill-rule="evenodd">
        <g id="Artboard-Copy-4" transform="translate(-611.000000, -3111.000000)" fill-rule="nonzero">
            <g id="microsoft-azure-2" transform="translate(611.000000, 3111.000000)">
                <path d="M0,3.16482293 L9.42162927,1.86832666 L9.42162927,10.969852 L0.000867433528,10.969852 L0,3.16482293 Z M9.42162927,12.1345711 L9.42162927,21.133193 L0.00130115029,19.8386506 L0.00108429191,12.1350053 L9.42184612,12.1350053 L9.42184612,12.1345711 L9.42162927,12.1345711 Z M10.4634169,1.72526051 L23,0 L23,10.969852 L10.4634169,10.969852 L10.4634169,1.72526051 Z M23,12.1345711 L23,23 L10.4634169,21.2760421 L10.4634169,12.1345711 L23,12.1345711 Z" id="Shape" fill="#0DADEA"></path>
                <g id="Group" transform="translate(30.000000, 5.000000)" fill="#00ADEF">
                    <path d="M13.9210209,13.7424848 L11.79313,13.7424848 L11.79313,5.50560606 C11.79313,4.83042424 11.8352937,4.00590909 11.9194093,3.02866667 L11.8838138,3.02866667 C11.7509663,3.58484848 11.6337978,3.98406061 11.5320963,4.22757576 L7.673374,13.7424848 L6.19467737,13.7424848 L2.32663242,4.29884848 C2.21857464,4.0209697 2.10416051,3.59757576 1.98423756,3.02972727 L1.94864205,3.02972727 C1.99716212,3.53881818 2.02089246,4.36990909 2.02089246,5.52363636 L2.02089246,13.7424848 L0.0370786517,13.7424848 L0.0370786517,1.01436364 L3.05739968,1.01436364 L6.45655859,9.49115152 C6.71483788,10.1419394 6.8832809,10.627697 6.96104013,10.9467273 L7.00595827,10.9467273 C7.22843018,10.2779091 7.40852648,9.78048485 7.54688283,9.45509091 L11.0093933,1.01436364 L13.9216565,1.01436364 L13.920809,13.7424848 L13.9210209,13.7424848 Z M17.9153451,2.74484848 C17.5729502,2.74484848 17.2790754,2.63581818 17.0364751,2.41669697 C16.7928154,2.19778788 16.6711974,1.91927273 16.6711974,1.58221212 C16.6711974,1.24515152 16.7928154,0.963878788 17.0364751,0.738606061 C17.2801348,0.514181818 17.5729502,0.401333333 17.9153451,0.401333333 C18.2696051,0.401333333 18.5708957,0.514181818 18.8170979,0.738606061 C19.0633002,0.963878788 19.1870369,1.24409091 19.1870369,1.58221212 C19.1870369,1.90124242 19.0633002,2.17530303 18.8170979,2.40312121 C18.5698363,2.63136364 18.2696051,2.74484848 17.9153451,2.74484848 Z M18.9516404,13.7424848 L16.8606164,13.7424848 L16.8606164,4.65309091 L18.9518523,4.65309091 L18.9518523,13.7424848 L18.9516404,13.7424848 Z M28.301817,13.3252424 C27.5629984,13.7452424 26.6877303,13.9552424 25.6779197,13.9552424 C24.3074928,13.9552424 23.2014896,13.5335455 22.3599101,12.6907879 C21.5187544,11.8480303 21.0975409,10.7547576 21.0975409,9.4109697 C21.0975409,7.91381818 21.5499005,6.71151515 22.4544077,5.80278788 C23.3591268,4.89448485 24.5683146,4.44012121 26.0834543,4.44012121 C26.9248218,4.44012121 27.6672424,4.58521212 28.3100803,4.87560606 L28.3100803,6.79254545 C27.6663949,6.31951515 26.9816051,6.08236364 26.2548636,6.08236364 C25.3713323,6.08236364 24.6471332,6.37721212 24.0822665,6.96563636 C23.5173997,7.55427273 23.2343307,8.32490909 23.2343307,9.27754545 C23.2343307,10.2185152 23.4998138,10.9611515 24.0318395,11.5054545 C24.5636533,12.0499697 25.2776822,12.3221212 26.1732905,12.3221212 C26.9248218,12.3221212 27.6333419,12.0590909 28.3007576,11.5326061 L28.301817,13.3252424 L28.301817,13.3252424 Z M35.7393708,6.615 C35.4866003,6.41942424 35.1232295,6.32227273 34.648199,6.32227273 C34.0290915,6.32227273 33.5118973,6.5969697 33.097252,7.14763636 C32.6823949,7.69745455 32.4747544,8.44645455 32.4747544,9.39293939 L32.4747544,13.7424848 L30.3826709,13.7424848 L30.3826709,4.65309091 L32.4747544,4.65309091 L32.4747544,6.52590909 L32.5103499,6.52590909 C32.7146003,5.88678788 33.0286035,5.38830303 33.4523596,5.03045455 C33.8761156,4.67281818 34.3496629,4.49336364 34.872366,4.49336364 C35.2514157,4.49336364 35.5397817,4.55021212 35.7385233,4.662 L35.7393708,6.615 L35.7393708,6.615 Z M41.3293483,13.9552424 C39.9048925,13.9552424 38.7677432,13.5307879 37.9164173,12.6816667 C37.065939,11.8327576 36.6402761,10.7068182 36.6402761,9.30469697 C36.6402761,7.77763636 37.083313,6.58530303 37.9704462,5.72727273 C38.8575795,4.86924242 40.0513002,4.44012121 41.5545746,4.44012121 C42.9974639,4.44012121 44.1208411,4.85757576 44.9264013,5.69206061 C45.7321734,6.52675758 46.1341059,7.6830303 46.1341059,9.16215152 C46.1341059,10.6124242 45.7001798,11.7733636 44.8312681,12.6456061 C43.9634157,13.5191212 42.7961798,13.9552424 41.3293483,13.9552424 L41.3293483,13.9552424 Z M41.4282953,6.08236364 C40.61087,6.08236364 39.9644302,6.36363636 39.4902472,6.92512121 C39.0150048,7.48745455 38.7779133,8.26254545 38.7779133,9.25039394 C38.7779133,10.2030303 39.0186067,10.9530909 39.4993579,11.5001515 C39.9798973,12.0472121 40.6235827,12.3210606 41.4291429,12.3210606 C42.2533483,12.3210606 42.8858042,12.0516667 43.3271461,11.5137273 C43.7682761,10.9747273 43.9899005,10.2085455 43.9899005,9.21433333 C43.9899005,8.21481818 43.7693355,7.44248485 43.3271461,6.8979697 C42.8849567,6.35451515 42.2522889,6.08236364 41.4282953,6.08236364 L41.4282953,6.08236364 Z M47.6950112,13.4586667 L47.6950112,11.5506364 C48.4768411,12.1365152 49.3391846,12.4292424 50.2820417,12.4292424 C51.5448347,12.4292424 52.1753836,12.0624848 52.1753836,11.3287576 C52.1753836,11.1215152 52.1215666,10.9458788 52.0135088,10.8005758 C51.905451,10.6554848 51.7598909,10.5267273 51.5757689,10.4149394 C51.3916469,10.3031515 51.1757432,10.2021818 50.9267865,10.1130909 C50.6767705,10.0237879 50.3992103,9.92366667 50.0926228,9.8110303 C49.7418804,9.67608322 49.4000667,9.51893769 49.069252,9.34054545 C48.7652071,9.17466667 48.513496,8.98736364 48.312,8.77736364 C48.113583,8.5723758 47.9588206,8.32917692 47.8570979,8.06251515 C47.754549,7.79672727 47.704122,7.48554545 47.704122,7.13066667 C47.704122,6.69263636 47.8094254,6.30678788 48.0198202,5.97248485 C48.2306388,5.6379697 48.5124366,5.35690909 48.8669085,5.12972727 C49.2220161,4.90169697 49.6239486,4.73051515 50.0752488,4.61512121 C50.5318618,4.49898669 51.0012563,4.44083298 51.4723724,4.4420303 C52.3256051,4.4420303 53.0890016,4.56909091 53.762138,4.82321212 L53.762138,6.6249697 C53.1129438,6.18693939 52.3677689,5.96781818 51.5264013,5.96781818 C51.2617657,5.96781818 51.0227673,5.9949697 50.809618,6.04715152 C50.5962568,6.10039394 50.4140417,6.17442424 50.2638202,6.2690303 C50.1138106,6.36363636 49.9966421,6.47712121 49.9123146,6.61054545 C49.8287205,6.74161564 49.7848583,6.89413062 49.7860353,7.04963636 C49.7860353,7.245 49.828199,7.41087879 49.9123146,7.54706061 C49.9966421,7.6830303 50.1210144,7.80287879 50.286703,7.90660606 C50.4515441,8.01033333 50.6502857,8.10493939 50.8818684,8.19042424 C51.113451,8.27612121 51.3789342,8.36987879 51.6802247,8.47 C52.0442559,8.61485314 52.4008002,8.77789639 52.7485136,8.95851515 C53.0644238,9.12418182 53.3335088,9.31169697 53.5559807,9.52169697 C53.7750735,9.72675719 53.9498666,9.97459284 54.069573,10.2499091 C54.1897079,10.5248182 54.2500931,10.8521212 54.2500931,11.2305455 C54.2500931,11.6921212 54.1420353,12.0938788 53.9250722,12.4375152 C53.7089567,12.7809394 53.4197432,13.0647576 53.0599743,13.2891818 C52.6991461,13.5144545 52.2825939,13.6811818 51.8111653,13.7902121 C51.3386774,13.900303 50.8416116,13.9543939 50.3189085,13.9543939 C49.3082504,13.9552424 48.4338299,13.7902121 47.6950112,13.4586667 L47.6950112,13.4586667 Z M60.3354414,13.9552424 C58.9109856,13.9552424 57.7729888,13.5307879 56.9222986,12.6816667 C56.0718202,11.8327576 55.6470048,10.7068182 55.6470048,9.30469697 C55.6470048,7.77763636 56.0902536,6.58530303 56.9773868,5.72727273 C57.8634607,4.86924242 59.0582408,4.44012121 60.5606677,4.44012121 C62.003557,4.44012121 63.1267223,4.85757576 63.9324944,5.69206061 C64.7380546,6.52675758 65.1408347,7.6830303 65.1408347,9.16215152 C65.1408347,10.6124242 64.7069085,11.7733636 63.8382087,12.6456061 C62.9695088,13.5191212 61.8012135,13.9552424 60.3354414,13.9552424 L60.3354414,13.9552424 Z M60.4343884,6.08236364 C59.6167512,6.08236364 58.9703114,6.36363636 58.4952809,6.92512121 C58.0200385,7.48745455 57.782947,8.26254545 57.782947,9.25039394 C57.782947,10.2030303 58.0238523,10.9530909 58.5043917,11.5001515 C58.9851429,12.0472121 59.6286164,12.3210606 60.4343884,12.3210606 C61.2573226,12.3210606 61.8899904,12.0516667 62.3321798,11.5137273 C62.7743692,10.9747273 62.9949342,10.2085455 62.9949342,9.21433333 C62.9949342,8.21481818 62.7743692,7.44248485 62.3321798,6.8979697 C61.8899904,6.35451515 61.2573226,6.08236364 60.4343884,6.08236364 L60.4343884,6.08236364 Z M72.4978748,1.96424242 C72.216077,1.80472727 71.8938106,1.72454545 71.5329823,1.72454545 C70.5168154,1.72454545 70.0095795,2.28963636 70.0095795,3.41981818 L70.0095795,4.65372727 L72.1554799,4.65372727 L72.1554799,6.2690303 L70.0186902,6.2690303 L70.0186902,13.7424848 L67.9268186,13.7424848 L67.9268186,6.2690303 L66.3493868,6.2690303 L66.3493868,4.65372727 L67.9268186,4.65372727 L67.9268186,3.18012121 C67.9268186,2.22133333 68.2454831,1.4659697 68.8826003,0.912545455 C69.5197175,0.358909091 70.3163788,0.0823030303 71.2721605,0.0823030303 C71.7893547,0.0823030303 72.1976437,0.13830303 72.4978748,0.250939394 L72.4978748,1.96424242 L72.4978748,1.96424242 Z M78.5294061,13.6451212 C78.1211172,13.8462121 77.5827352,13.9471818 76.9153194,13.9471818 C75.1245265,13.9471818 74.22913,13.1008182 74.22913,11.4091515 L74.22913,6.26987879 L72.6875056,6.26987879 L72.6875056,4.65478788 L74.22913,4.65478788 L74.22913,2.5509697 L76.3212135,1.96530303 L76.3212135,4.65478788 L78.5302536,4.65478788 L78.5302536,6.26987879 L76.3212135,6.26987879 L76.3212135,10.8139394 C76.3212135,11.3520909 76.4199486,11.7368788 76.6186902,11.9676667 C76.8174318,12.1984545 77.1477496,12.3138485 77.6102793,12.3138485 C77.9645393,12.3138485 78.2713387,12.2137273 78.5294061,12.0117879 L78.5294061,13.6451212 L78.5294061,13.6451212 Z M96.2729181,13.7424848 L93.9200128,13.7424848 L92.7572263,10.5023333 L87.6725778,10.5023333 L86.5547095,13.7424848 L84.2100674,13.7424848 L89.0512681,1.01436364 L91.467313,1.01436364 L96.2727063,13.7424848 L96.2729181,13.7424848 Z M92.1887576,8.7809697 L90.3952103,3.70384848 C90.3411814,3.5379697 90.2835506,3.27218182 90.2240128,2.90521212 L90.1884173,2.90521212 C90.1343884,3.24248485 90.0740032,3.50912121 90.0078973,3.70384848 L88.2319358,8.7809697 L92.1887576,8.7809697 Z M104.639557,5.51451515 L99.6538555,12.1354545 L104.621335,12.1354545 L104.621335,13.7424848 L96.7231589,13.7424848 L96.7231589,12.9701515 L101.81713,6.25990909 L97.2102665,6.25990909 L97.2102665,4.65287879 L104.639557,4.65287879 L104.639557,5.51451515 L104.639557,5.51451515 Z M114.45756,13.7424848 L112.366536,13.7424848 L112.366536,12.3040909 L112.330941,12.3040909 C111.72391,13.4045758 110.779994,13.9552424 109.50025,13.9552424 C107.318331,13.9552424 106.227159,12.6655455 106.227159,10.0850909 L106.227159,4.65287879 L108.31903,4.65287879 L108.31903,9.87233333 C108.31903,11.5056667 108.958902,12.3221212 110.239917,12.3221212 C110.8586,12.3221212 111.367743,12.097697 111.767769,11.648 C112.167795,11.198303 112.367384,10.6096667 112.367384,9.88145455 L112.367384,4.65287879 L114.459467,4.65287879 L114.45756,13.7424848 L114.45756,13.7424848 Z M122.545156,6.615 C122.292597,6.41942424 121.929014,6.32227273 121.453984,6.32227273 C120.835088,6.32227273 120.317682,6.5969697 119.903037,7.14763636 C119.488392,7.69745455 119.280539,8.44645455 119.280539,9.39293939 L119.280539,13.7424848 L117.189303,13.7424848 L117.189303,4.65309091 L119.280539,4.65309091 L119.280539,6.52590909 L119.316135,6.52590909 C119.520385,5.88678788 119.834388,5.38830303 120.258144,5.03045455 C120.682112,4.67281818 121.155448,4.49336364 121.678151,4.49336364 C122.056353,4.49336364 122.345567,4.55021212 122.543249,4.662 L122.545368,6.615 L122.545156,6.615 Z M131.858677,9.75693939 L125.565265,9.75693939 C125.588995,10.5969394 125.851724,11.2449697 126.354299,11.7010303 C126.856026,12.1562424 127.545477,12.3842727 128.423499,12.3842727 C129.409368,12.3842727 130.313875,12.0940909 131.137021,11.5145758 L131.137021,13.1737879 C130.295865,13.6947576 129.183506,13.9552424 127.801002,13.9552424 C126.442228,13.9552424 125.377541,13.5424545 124.604822,12.7168788 C123.832103,11.891303 123.446697,10.7303636 123.446697,9.23342424 C123.446697,7.81921212 123.871512,6.66633333 124.72305,5.77584848 C125.573528,4.88536364 126.629952,4.44012121 127.892533,4.44012121 C129.154902,4.44012121 130.130812,4.83954545 130.82217,5.6379697 C131.513316,6.43660606 131.859313,7.546 131.859313,8.96657576 L131.858465,9.75693939 L131.858677,9.75693939 Z M129.839056,8.30136364 C129.829945,7.56148485 129.655994,6.98621212 129.307242,6.57533333 C128.958279,6.16445455 128.47774,5.95890909 127.864353,5.95890909 C127.263679,5.95890909 126.753689,6.17527273 126.336289,6.60693939 C125.918889,7.03860606 125.661669,7.60390909 125.565477,8.30221212 L129.839056,8.30221212 L129.839056,8.30136364 Z" id="Shape"></path>
                </g>
            </g>
        </g>
    </g>
</svg>