<svg xmlns="http://www.w3.org/2000/svg" xmlns:xlink="http://www.w3.org/1999/xlink" width="143" height="111" viewBox="0 0 143 111">
  <defs>
    <polygon id="operate-illustration-a" points="0 .256 0 86 85.743 86 85.743 .256"/>
  </defs>
  <g fill="none" fill-rule="evenodd">
    <path fill="#F2D021" d="M129,48.5 C129,21.7140308 107.509825,0 81,0 C54.4901748,0 33,21.7140308 33,48.5 C33,75.2859692 54.4901748,97 81,97 C107.509825,97 129,75.2859692 129,48.5"/>
    <g transform="translate(0 25)">
      <mask id="operate-illustration-b" fill="#fff">
        <use xlink:href="#operate-illustration-a"/>
      </mask>
      <path fill="#133055" d="M34.8523413,62.488675 C45.5448522,66.917675 57.8031239,61.8399359 62.2321239,51.147425 C66.6611239,40.4553815 61.5833848,28.1971098 50.8908739,23.7681098 C40.198363,19.3391098 27.9400913,24.4168489 23.5110913,35.1088924 C19.0825587,45.8014033 24.1598304,58.059675 34.8523413,62.488675 L34.8523413,62.488675 Z M21.3849283,75.4265337 C19.4564717,77.2792728 16.3637435,77.2512293 14.4722109,75.358762 L10.6419391,71.5266207 C8.75321087,69.6364902 8.71208043,66.5526424 10.576037,64.6129685 L10.7368196,64.445175 C12.5890913,62.5167185 13.2663413,58.962675 12.2357435,56.4742837 L11.7716239,55.3544141 C10.7471022,52.880512 7.76514565,50.8319359 5.07577609,50.7777185 L4.84348261,50.7730446 C2.17000435,50.719762 0.00224347826,48.5132076 0.00130869565,45.8373924 L-9.34782609e-05,40.4193924 C-0.000560869565,37.7468489 2.14990652,35.5374902 4.83974348,35.4837402 L5.07250435,35.4790663 C7.74598261,35.4253163 10.7386891,33.3902946 11.769287,30.9014359 L12.2334065,29.7810989 C13.2583957,27.3067293 12.5984391,23.7494141 10.7344826,21.8092728 L10.5737,21.6414793 C8.72096087,19.7130228 8.74853696,16.620762 10.6410043,14.7292293 L14.473613,10.8989576 C16.3637435,9.00976196 19.4471239,8.96909891 21.3872652,10.832588 L21.5545913,10.9933707 C23.4830478,12.8461098 27.0375587,13.5228924 29.5254826,12.4922946 L30.6458196,12.028175 C33.1197217,11.0036533 35.1682978,8.02169674 35.2220478,5.33232717 L35.2267217,5.1000337 C35.2804717,2.42655543 37.4865587,0.258794565 40.1623739,0.257859783 L45.5808413,0.256457609 C48.2529174,0.255990217 50.4622761,2.406925 50.5164935,5.09676196 L50.5211674,5.32905543 C50.5749174,8.0025337 52.6099391,10.9952402 55.0983304,12.025838 L56.2186674,12.4899576 C58.693037,13.5149467 62.2508196,12.8549902 64.1909609,10.9910337 L64.358287,10.8302511 C66.2872109,8.97751196 69.3794717,9.00555543 71.2710043,10.8980228 L75.1012761,14.7301641 C76.9904717,16.6202946 77.0311348,19.7041424 75.1676457,21.6438163 L75.0063957,21.8116098 C73.1541239,23.7395989 72.4773413,27.2941098 73.5079391,29.7825011 L73.9715913,30.9023707 C74.9965804,33.3762728 77.9780696,35.4248489 80.6679065,35.4790663 L80.9002,35.4837402 C83.5732109,35.5370228 85.7414391,37.7435772 85.7419065,40.4193924 L85.7433087,45.8373924 C85.7437761,48.5094685 83.5933087,50.7192946 80.9034717,50.7730446 L80.6711783,50.7777185 C77.9972326,50.8314685 75.0049935,52.8664902 73.9739283,55.3553489 L73.5098087,56.4752185 C72.485287,58.949588 73.1447761,62.5073707 75.0087326,64.447512 L75.1699826,64.6153054 C77.0222543,66.543762 76.9946783,69.6360228 75.1022109,71.5275554 L71.2700696,75.3578272 C69.3799391,77.2470228 66.2960913,77.2876859 64.35595,75.4241967 L64.1886239,75.2634141 C62.2601674,73.410675 58.7056565,72.7338924 56.2177326,73.7644902 L55.0973957,74.2281424 C52.6239609,75.2531315 50.5749174,78.235088 50.5211674,80.9244576 L50.5164935,81.1567511 C50.4627435,83.8302293 48.2566565,85.9979902 45.5808413,85.9984576 L40.1623739,85.9998598 C37.4902978,86.0007946 35.2809391,83.8498598 35.2267217,81.1600228 L35.2220478,80.9277293 C35.1687652,78.2537837 33.1332761,75.2615446 30.6448848,74.2304793 L29.5245478,73.7668272 C27.0501783,72.741838 23.4923957,73.4017946 21.5522543,75.2652837 L21.3849283,75.4265337 Z" mask="url(#operate-illustration-b)"/>
    </g>
    <path fill="#133055" d="M52 67.5C52 62.2531627 47.7469388 58 42.5002268 58 37.2535147 58 33 62.2531627 33 67.5 33 72.7468373 37.2535147 77 42.5002268 77 47.7469388 77 52 72.7468373 52 67.5M129.5 40.0995801C127.073895 40.0995801 125.099892 42.0736178 125.099892 44.5002352 125.099892 46.9263822 127.073895 48.9004199 129.5 48.9004199 131.926105 48.9004199 133.900108 46.9263822 133.900108 44.5002352 133.900108 42.0736178 131.926105 40.0995801 129.5 40.0995801M129.5 58C122.056088 58 116 51.9438065 116 44.5002352 116 37.0561935 122.056088 31 129.5 31 136.943912 31 143 37.0561935 143 44.5002352 143 51.9438065 136.943912 58 129.5 58"/>
  </g>
</svg>
