<svg xmlns="http://www.w3.org/2000/svg" width="65" height="61" viewBox="0 0 65 61">
  <g fill="none" fill-rule="evenodd">
    <path fill="#F2D021" d="M43.7382162,11.835483 L46.7472336,11.4910289 C53.3814913,10.7316069 57.7714039,18.1030931 53.8657271,23.4439509 L52.0942642,25.8663225 C50.1357489,28.5441665 50.1624301,32.1641528 52.1601157,34.8140151 L53.9673428,37.2106436 C57.9516441,42.4946986 53.6707271,49.9283041 47.0262511,49.2642995 L44.0124083,48.963217 C40.6806616,48.6302353 37.5138275,50.4630335 36.1851594,53.4934463 L34.9830852,56.2345289 C32.3331288,62.278006 23.6622991,62.3401252 20.9235,56.3352628 L19.6811201,53.6118087 C18.3078886,50.6007032 15.1143734,48.8135151 11.7877358,49.1943454 L8.77871834,49.5387995 C2.1444607,50.2982216 -2.24545197,42.9267353 1.66022489,37.5858775 L3.43197162,35.163506 C5.39020306,32.4856619 5.36352183,28.8653959 3.36583624,26.2158133 L1.55860917,23.8191849 C-2.4254083,18.5351298 1.85522489,11.1015243 8.49998472,11.7655289 L11.5135437,12.0666115 C14.8452904,12.3995931 18.0121245,10.566795 19.3410764,7.53638211 L20.5428668,4.79529954 C23.1928231,-1.24817752 31.8636528,-1.31057661 34.602452,4.6945656 L35.8448319,7.41801972 C37.2180633,10.4291252 40.4115786,12.2163133 43.7382162,11.835483"/>
    <path fill="#133055" d="M48.4974367 56.8088803C41.0400349 56.8088803 34.9944672 50.8493482 34.9944672 43.4974491L62.0004061 43.4974491C62.0004061 50.8493482 55.9548384 56.8088803 48.4974367 56.8088803L48.4974367 56.8088803zM31.3096201 20.8958298C30.8957773 20.4316142 30.9420437 19.7245179 31.4129389 19.3162656 31.8844017 18.9082931 32.6016725 18.9544628 33.0155153 19.4181188L41.2514978 28.6568206C41.6653406 29.1210362 41.6190742 29.8281326 41.148179 30.2363849 40.9324585 30.4230225 40.6653624 30.5148023 40.3991179 30.5148023 40.0837686 30.5148023 39.7701223 30.3860867 39.5456026 30.1345317L31.3096201 20.8958298zM54.8549476 28.4461188C51.4965197 27.0590683 47.7625677 26.8254216 44.2531354 27.7826739L34.1999913 16.5290133 32.667524 14.8134583 22.0262576 24.0516005 23.5587249 25.7671555 33.611869 37.0210959C30.1478515 45.1718711 34.0421747 54.5479628 42.3102314 57.9628436 50.5782882 61.3780041 60.0892926 57.5389216 63.5535939 49.3878665 67.0176114 41.2370913 63.1232882 31.8609995 54.8549476 28.4461188L54.8549476 28.4461188zM13.9506463 11.580794C13.9506463 10.4338261 13.0074367 9.50427569 11.8442489 9.50427569 10.6807773 9.50427569 9.73785153 10.4338261 9.73785153 11.580794 9.73785153 12.7277619 10.6807773 13.6573124 11.8442489 13.6573124 13.0074367 13.6573124 13.9506463 12.7277619 13.9506463 11.580794M27.7630044 12.736828C27.7630044 11.5898601 26.8197948 10.6603096 25.656607 10.6603096 24.4931354 10.6603096 23.5502096 11.5898601 23.5502096 12.736828 23.5502096 13.8837959 24.4931354 14.8133463 25.656607 14.8133463 26.8197948 14.8133463 27.7630044 13.8837959 27.7630044 12.736828"/>
  </g>
</svg>
