<svg xmlns="http://www.w3.org/2000/svg" width="80" height="57" viewBox="0 0 80 57">
  <g fill="none" fill-rule="evenodd">
    <path fill="#F2D021" d="M53.1566434,16.1498603 C52.4797203,16.1498603 51.8195804,16.2160809 51.1695105,16.3124779 C49.0758042,7.08099265 40.8282517,0.182316176 30.9532867,0.182316176 C19.4965035,0.182316176 10.208951,9.459625 10.208951,20.9037721 C10.208951,21.4986397 10.248951,22.0834485 10.2981818,22.6654632 C10.267972,22.6651838 10.2388811,22.6609926 10.208951,22.6609926 C4.57482517,22.6609926 0.00755244755,27.2232279 0.00755244755,32.8511397 C0.00755244755,38.4790515 4.57482517,43.0412868 10.208951,43.0412868 L53.1566434,43.0412868 C60.5907692,43.0412868 66.6173427,37.0216397 66.6173427,29.5954338 C66.6173427,22.1697868 60.5907692,16.1498603 53.1566434,16.1498603"/>
    <path fill="#133055" d="M78.6295664,54.1370632 C77.9036923,54.1370632 77.3157203,53.5497397 77.3157203,52.8246662 L77.3157203,33.1007103 C77.3157203,30.0931221 74.8659301,27.6460338 71.8553007,27.6460338 L56.8292867,27.6460338 C56.1034126,27.6460338 55.5154406,27.0587103 55.5154406,26.3339162 C55.5154406,25.6088426 56.1034126,25.0215191 56.8292867,25.0215191 L71.8553007,25.0215191 C76.3148811,25.0215191 79.9434126,28.6457691 79.9434126,33.1007103 L79.9434126,52.8246662 C79.9434126,53.5497397 79.3554406,54.1370632 78.6295664,54.1370632"/>
    <path fill="#133055" d="M64.5543497,42.0745221 L43.5333706,42.0745221 C42.8074965,42.0745221 42.2195245,41.4871985 42.2195245,40.762125 C42.2195245,40.0370515 42.8074965,39.4497279 43.5333706,39.4497279 L64.5543497,39.4497279 C65.2802238,39.4497279 65.8681958,40.0370515 65.8681958,40.762125 C65.8681958,41.4871985 65.2802238,42.0745221 64.5543497,42.0745221 M70.8998042,29.6831691 L54.6942098,29.6831691 C54.5093147,29.6831691 54.385958,29.6214191 54.2628811,29.4984779 L50.7504336,25.9899044 C49.9493147,25.1899485 48.8402238,24.7590956 47.6695944,24.7590956 L37.6256783,24.7590956 C35.2226014,24.7590956 33.3123916,26.6669191 33.3123916,29.067625 L33.3123916,52.4569044 C33.3123916,54.8573309 35.2226014,56.7654338 37.6256783,56.7654338 L70.8998042,56.7654338 C73.3028811,56.7654338 75.2130909,54.8573309 75.2130909,52.4569044 L75.2130909,33.9916985 C75.2130909,31.5909926 73.3028811,29.6831691 70.8998042,29.6831691"/>
  </g>
</svg>
