<svg width="180" height="80" viewBox="0 0 180 80" fill="none" xmlns="http://www.w3.org/2000/svg">
<path fill-rule="evenodd" clip-rule="evenodd" d="M0 10C0 4.47716 4.47715 0 10 0H170C175.523 0 180 4.47715 180 10V69.7459C180 75.2687 175.523 79.7459 170 79.7459H10C4.47716 79.7459 0 75.2687 0 69.7459V10Z" fill="#F2F3F5"/>
<path fill-rule="evenodd" clip-rule="evenodd" d="M92.6118 24.1217C92.3582 24.4396 92.0031 24.7101 91.6655 24.927C91.5925 24.974 91.3027 25.1243 91.2239 25.1565C91.1437 25.1532 90.7644 25.0816 90.7644 25.0816C90.6655 25.0549 90.5648 25.0225 90.4602 24.9866C90.3557 24.9515 90.25 24.9114 90.1297 24.8754L89.7377 24.7466C89.515 24.6723 89.2833 24.5971 89.045 24.5315C89.0663 24.2866 89.0982 24.0386 89.1624 23.7934C89.1624 23.7934 89.1863 23.5519 89.2517 23.4248C89.298 23.335 89.3542 23.2515 89.4154 23.1716C89.5359 22.972 89.7019 22.7794 89.913 22.6157C89.913 22.6157 90.3413 22.2941 90.6871 22.2258C91.023 22.1681 91.5371 22.3251 91.5371 22.3251C91.8504 22.4267 92.1013 22.5885 92.314 22.7766C92.314 22.7766 92.5959 23.0255 92.6968 23.1749C92.71 23.1944 92.953 23.5346 93.056 23.6888L92.6118 24.1217ZM88.338 25.7613L88.3344 25.7568C88.3313 25.8005 88.3274 25.8439 88.3221 25.8862C88.3085 25.9989 88.2785 26.1047 88.2369 26.2063L88.2386 26.2089C88.0705 26.7674 87.5867 27.1948 87.4887 27.2587C87.4902 27.2604 87.2056 27.4597 87.0327 27.5391C86.6663 27.6337 86.2396 27.5925 86.2396 27.5925C85.3016 27.476 84.9868 27.0393 84.9428 26.9842C84.7051 26.7552 84.5245 26.492 84.3711 26.2248C84.6215 26.0157 84.8453 25.7918 85.0482 25.5808L85.2987 25.3195C85.4382 25.1767 85.5707 25.0465 85.7169 24.9335C85.7169 24.9335 85.9825 24.7512 86.0241 24.7284C86.1246 24.7157 86.6135 24.7008 86.7597 24.7125C86.8956 24.7234 87.5975 24.7041 88.3925 25.0161C88.3827 25.2641 88.3735 25.5119 88.338 25.7613ZM83.5801 26.0297C83.3974 26.1504 83.2094 26.2673 83.0181 26.3745C82.6497 26.7229 81.5874 26.8936 81.5868 26.8998C81.4676 26.9164 81.3491 26.9258 81.2299 26.9263C81.1939 26.9108 81.1593 26.8946 81.1255 26.8777L81.0756 26.8518L80.7709 26.6782C80.5737 26.5462 80.4013 26.3901 80.2381 26.2182L79.9619 25.9069C79.7902 25.7028 79.6207 25.4873 79.4375 25.2776C79.5898 25.091 80.2875 24.4214 80.4961 24.3205C80.699 24.2221 81.3536 24.0307 81.465 24.0309C81.4636 24.0278 81.5901 24.0142 81.6574 24.0149C81.7263 24.0156 81.7961 24.0192 81.8665 24.0255C82.0187 24.077 82.2999 24.219 82.3112 24.225C82.4158 24.2812 82.596 24.4259 82.596 24.4259C82.7577 24.5601 83.151 25.0401 83.2109 25.1352C83.2855 25.2534 83.5055 25.8584 83.5801 26.0297ZM78.0277 26.3152C77.8943 26.5301 77.3934 27.1044 77.3934 27.1044C77.3267 27.1625 77.2549 27.2178 77.177 27.271C77.0704 27.2989 76.9646 27.3193 76.8592 27.3332C76.8154 27.3349 76.5688 27.3553 76.5688 27.3553C76.3115 27.3613 76.0517 27.3332 75.7882 27.2845C75.7882 27.2845 74.9224 27.0797 74.7001 27.0233C74.7186 26.7958 74.8886 25.8961 74.8886 25.8961C74.975 25.6232 75.1035 25.3561 75.3039 25.1069C75.3039 25.1069 75.6214 24.7093 75.928 24.566C76.2173 24.4584 76.7105 24.4433 76.7105 24.4433C77.0418 24.4469 77.9512 24.5564 78.6196 25.3317C78.4835 25.5405 78.0277 26.3152 78.0277 26.3152ZM74.0031 28.1339L73.9482 28.5788C73.9244 28.7176 73.8932 28.8551 73.8514 28.9904C73.8305 29.058 73.807 29.1253 73.7803 29.1918C73.7671 29.2252 73.7529 29.2585 73.7379 29.2914C73.7218 29.3253 73.703 29.3606 73.6836 29.395C73.6836 29.395 73.4687 29.7018 73.472 29.7056C73.3789 29.8202 73.2687 29.9328 73.1375 30.0408C73.0142 30.1008 72.8902 30.1499 72.7652 30.1882C72.6576 30.2192 72.3821 30.2732 72.3821 30.2732C72.0294 30.3208 71.6825 30.284 71.3771 30.1751L70.9316 29.9465C70.7028 29.7873 70.5268 29.5841 70.4041 29.369C70.5168 29.2619 70.6102 29.1447 70.6879 29.0245C70.76 28.8499 70.954 28.4806 70.954 28.4806C71.0334 28.2784 71.1028 28.0909 71.2114 27.9132C71.2114 27.9132 71.3622 27.7322 71.3483 27.7201C71.398 27.6594 71.4417 27.6106 71.531 27.555C71.754 27.42 72.126 27.372 72.126 27.372C72.1893 27.3634 72.2623 27.3499 72.3332 27.3408C72.4043 27.3317 72.4755 27.3256 72.5466 27.322C72.6885 27.3149 72.8305 27.3179 72.9726 27.3286L73.4221 27.3845C73.629 27.4191 73.8348 27.4635 74.0399 27.5096C74.0293 27.7185 74.0204 27.9274 74.0031 28.1339ZM69.6782 28.0191C69.7402 28.198 69.7568 28.3941 69.7661 28.5838C69.7753 28.7771 69.8051 29.0402 69.6461 29.1882C69.4914 29.3323 68.6484 29.4845 68.4587 29.4735C68.2042 29.459 67.8397 29.361 67.6717 29.1593C67.5948 29.0679 67.537 28.9522 67.4932 28.8295C67.4711 28.768 67.4526 28.7044 67.4361 28.6397L67.3897 28.4374C67.3537 28.2969 67.3 28.1629 67.2301 28.0378C67.1605 27.9134 67.0733 27.7955 66.9679 27.7009C66.8564 27.6015 66.7253 27.5466 66.5952 27.4983C66.5176 27.4707 66.4385 27.4567 66.3594 27.4469C66.4279 27.4385 66.4965 27.4274 66.5638 27.4082C66.7491 27.3585 66.9323 27.2944 67.1108 27.2243L67.6399 27.0091L67.906 26.9013L67.9706 26.875C67.9905 26.8678 68.0107 26.8605 68.0323 26.8536C68.0748 26.8399 68.1183 26.8279 68.1625 26.8171C68.2511 26.7957 68.3425 26.7791 68.4361 26.7625L68.5754 26.7374C68.6143 26.7307 68.6487 26.7306 68.6821 26.7354C69.2033 26.8092 69.4305 27.4375 69.4549 27.4922C69.5323 27.6663 69.6161 27.8395 69.6782 28.0191ZM94.718 23.0456C94.9513 22.8689 95.1929 22.7173 95.4496 22.6045C95.7074 22.4919 95.9771 22.4186 96.2833 22.3879C96.07 22.4095 95.8496 22.4181 95.6212 22.4153C95.1996 22.4098 94.8251 22.4904 94.4776 22.6432C94.1301 22.7949 93.8135 23.0165 93.5165 23.2684C93.2874 22.9517 93.0297 22.6561 92.6696 22.4366C92.3104 22.2205 91.8398 22.0707 91.2025 22.1272C90.8599 22.1595 90.5069 22.22 90.1568 22.317C89.8327 22.4064 89.5538 22.5461 89.3284 22.7099C89.2715 22.7504 89.2187 22.7942 89.1683 22.8371C89.1219 22.8791 89.0782 22.9219 89.0371 22.9656C88.9548 23.0532 88.8833 23.1438 88.821 23.2365C88.5721 23.6082 88.4757 24.0029 88.4323 24.3923C88.0438 24.3247 87.6472 24.3061 87.2786 24.345C87.0946 24.3638 86.9181 24.3957 86.7535 24.438C86.5887 24.4809 86.4368 24.5338 86.2879 24.6017L86.2321 24.6265L86.2322 24.6264L86.1587 24.6565C86.0403 24.703 85.9208 24.7398 85.7945 24.7688L85.7968 24.7683L85.7353 24.7816C85.4179 24.8459 85.1848 24.9588 84.9216 25.1189C84.6623 25.2777 84.3833 25.4769 84.0843 25.6854C83.9161 25.3605 83.7515 25.0503 83.4989 24.7773C83.2454 24.5064 82.8994 24.262 82.3484 24.1107L82.3596 24.1134C82.206 24.072 82.0472 24.0332 81.8844 23.9988C81.8028 23.9813 81.7202 23.9652 81.6367 23.9501L81.4002 23.9109L81.3934 23.9099L81.3805 23.9078L81.3869 23.909C80.8332 23.8247 80.3568 23.9035 79.9628 24.0776C79.5679 24.2519 79.2545 24.5206 78.9957 24.8233C78.6967 24.5566 78.3449 24.3294 77.9077 24.2197C77.4733 24.1102 76.9461 24.1215 76.3717 24.3467C76.0624 24.468 75.7642 24.6058 75.4785 24.7539C74.9493 25.0301 74.6257 25.3809 74.422 25.7451C74.2184 26.111 74.1322 26.4967 74.087 26.8857C73.6998 26.8151 73.3072 26.7843 72.9134 26.8477C72.7165 26.8794 72.5192 26.9346 72.3223 27.0197C72.2247 27.0616 72.1239 27.1135 72.029 27.1692C71.9421 27.218 71.856 27.273 71.7716 27.3335C71.5889 27.4639 71.4096 27.5798 71.2461 27.6685C71.0946 27.7511 70.9886 27.8276 70.9113 27.9092C70.8335 27.9902 70.7843 28.0776 70.7308 28.1774C70.6779 28.2766 70.6175 28.3881 70.5286 28.5012C70.4405 28.6142 70.3248 28.7273 70.1858 28.8301C70.0931 28.4925 70.0714 28.1724 69.9511 27.874C69.7118 27.28 69.1634 26.7483 69.1456 26.7332C69.1093 26.7025 69.0712 26.67 69.0287 26.6381C68.964 26.5886 68.7328 26.5037 68.7085 26.5019C68.6473 26.4964 68.5856 26.5024 68.5314 26.515L68.3914 26.549C68.2987 26.5711 68.2039 26.5939 68.109 26.623C68.0615 26.6374 68.0141 26.6537 67.9669 26.672C67.9438 26.6809 67.9198 26.6912 67.8955 26.7018L67.8297 26.733L67.5731 26.855L67.0578 27.1006C66.8863 27.18 66.7137 27.2521 66.5343 27.3118C66.361 27.3726 66.1692 27.3092 65.9854 27.2677C65.7424 27.213 65.5369 27.2528 65.4176 27.2768C65.2332 27.314 65.3854 27.4314 65.2305 27.3181C65.3782 27.4405 65.2243 27.297 65.413 27.3272C65.6032 27.3563 65.6546 27.3371 65.846 27.352C65.9333 27.3575 66.1756 27.4523 66.2644 27.4476C66.3787 27.4632 66.4772 27.4907 66.5807 27.5333C66.7036 27.5913 66.8261 27.6596 66.9133 27.7539C67.0049 27.8529 67.0732 27.9674 67.1276 28.0891C67.1815 28.2104 67.2192 28.339 67.2398 28.4687C67.2496 28.5309 67.2557 28.603 67.2672 28.6735C67.278 28.7439 67.2917 28.8145 67.3097 28.8849C67.3461 29.0255 67.3993 29.167 67.4878 29.2974C67.8651 29.8532 68.6678 29.894 68.6887 29.8955C69.1062 29.9485 69.5268 29.884 69.8796 29.7219C69.974 29.9061 70.1053 30.0852 70.2873 30.2378C70.4679 30.3903 70.7003 30.5147 70.9688 30.5848C71.2364 30.6554 71.5371 30.671 71.8368 30.6259C72.1376 30.5814 72.4366 30.4785 72.7187 30.3236C73.0234 30.156 73.2954 29.9768 73.5511 29.7937C73.6693 29.7087 73.7737 29.6213 73.8664 29.532C73.9553 29.4457 74.0241 29.3662 74.0909 29.2805C74.2218 29.1115 74.321 28.937 74.3976 28.7585C74.5502 28.4012 74.6119 28.0262 74.6501 27.6423C75.03 27.7182 75.4067 27.7691 75.7782 27.7486C76.1506 27.7285 76.5141 27.6374 76.8865 27.4437C77.0887 27.3395 77.2901 27.2477 77.4921 27.1687C77.865 27.0242 78.131 26.8347 78.3754 26.5935C78.618 26.3541 78.8341 26.0666 79.0619 25.7641C79.3256 26.0299 79.5787 26.2828 79.8661 26.4833C80.1542 26.6844 80.4762 26.8321 80.9017 26.9047L80.8458 26.8975L81.0239 26.9257L81.1055 26.9395L81.1814 26.9538C81.2835 26.9742 81.3876 26.9978 81.495 27.0256L81.4995 27.0264L81.5831 27.0487L81.5409 27.0364C81.9395 27.133 82.3455 27.1407 82.7426 27.0612C83.1388 26.9827 83.5189 26.817 83.8596 26.6007C84.0645 26.9575 84.3398 27.2987 84.7732 27.5335C85.2009 27.7667 85.8052 27.8836 86.4965 27.7227C86.8617 27.6379 87.2281 27.5119 87.5694 27.3543C87.8861 27.2079 88.1345 27.0268 88.3223 26.8419C88.5108 26.6559 88.6415 26.4652 88.7353 26.2767C88.9217 25.8986 88.9692 25.5257 89.0006 25.1449C89.3771 25.2214 89.7385 25.2849 90.073 25.3067C90.1568 25.312 90.2391 25.3144 90.3205 25.3139L90.5503 25.3069C90.6923 25.3009 90.8286 25.2801 90.9782 25.2397C91.1401 25.196 91.3124 25.1658 91.4998 25.149C91.8448 25.1182 92.1727 25.0155 92.4911 24.8493C92.8091 24.6845 93.1123 24.4574 93.4045 24.205C93.6291 24.5213 93.8759 24.8185 94.2168 25.0484C94.5575 25.2762 94.9963 25.4438 95.6025 25.4517C95.9289 25.4546 96.2666 25.4424 96.6103 25.4059C96.1147 25.4568 95.706 25.385 95.3746 25.2536C95.0419 25.1213 94.7825 24.9283 94.5635 24.7079L94.2651 24.3642C94.1222 24.1784 93.9933 23.9832 93.8658 23.7878C94.0363 23.6297 94.2063 23.4713 94.3792 23.3217L94.3787 23.3255C94.3955 23.3054 94.718 23.0456 94.718 23.0456Z" fill="#FF9300"/>
<path fill-rule="evenodd" clip-rule="evenodd" d="M88.036 25.3613L87.9862 25.2917C87.9629 25.3257 87.9334 25.3567 87.8976 25.3824C87.8565 25.4119 87.8116 25.4312 87.7656 25.4419L87.8194 25.5166C87.828 25.5286 87.8232 25.5466 87.809 25.5567C87.8069 25.5581 87.805 25.5587 87.8032 25.5596L88.33 26.2794C88.3642 26.3272 88.4537 26.3215 88.5299 26.2669C88.6064 26.2122 88.6405 26.1292 88.6062 26.0814L88.0797 25.362C88.0789 25.3627 88.0784 25.3636 88.0775 25.3642C88.0631 25.3745 88.0446 25.3733 88.036 25.3613" fill="#FF9F6D"/>
<path fill-rule="evenodd" clip-rule="evenodd" d="M87.2129 24.7394L87.4071 25.0073L87.7164 25.4393L87.7232 25.4487L87.8026 25.5596C87.8046 25.5587 87.8065 25.558 87.8086 25.5567C87.8228 25.5466 87.8274 25.5286 87.819 25.5166L87.7652 25.4419C87.8111 25.4314 87.8559 25.4119 87.8972 25.3824C87.933 25.3569 87.9625 25.3258 87.9858 25.2919L88.0356 25.3613C88.0442 25.3733 88.0627 25.3747 88.0771 25.3642C88.0778 25.3637 88.0785 25.3627 88.0793 25.3622L88.0057 25.2593L87.9925 25.2408L87.677 24.8006C87.677 24.8006 87.2713 24.7344 87.2129 24.7394" fill="#CF6966"/>
<path fill-rule="evenodd" clip-rule="evenodd" d="M87.4233 24.8339L88.4369 26.2485C88.3936 26.2796 88.3319 26.2669 88.2983 26.2203L87.2949 24.8198L87.4233 24.8339Z" fill="white"/>
<path fill-rule="evenodd" clip-rule="evenodd" d="M94.6028 24.0318L94.6135 23.9469C94.5732 23.956 94.5305 23.9588 94.4866 23.9533C94.4364 23.9469 94.3905 23.9308 94.3495 23.9073L94.3382 23.9987C94.3364 24.0133 94.3208 24.0232 94.3033 24.0211C94.3009 24.0208 94.2992 24.0199 94.2971 24.0193L94.2568 24.3543L94.5545 24.6994L94.6344 24.0621C94.6333 24.0619 94.6323 24.0623 94.6311 24.0621C94.6136 24.0599 94.6008 24.0463 94.6028 24.0318" fill="#FF9F6D"/>
<path fill-rule="evenodd" clip-rule="evenodd" d="M94.4535 22.8269L94.3814 23.345L94.3152 23.8723L94.3138 23.8838L94.2969 24.0192C94.2989 24.0198 94.3006 24.0207 94.303 24.021C94.3207 24.0231 94.3361 24.0132 94.338 23.9986L94.3495 23.9073C94.3903 23.9307 94.4362 23.947 94.4864 23.9532C94.5303 23.9587 94.573 23.9559 94.6132 23.9468L94.6026 24.0317C94.6005 24.0464 94.6136 24.0598 94.6309 24.062C94.6321 24.0622 94.6331 24.062 94.6341 24.062L94.6499 23.9366L94.6526 23.9139L94.72 23.3767L94.7909 22.8693C94.7983 22.8108 94.728 22.7657 94.635 22.7539C94.5419 22.7423 94.4609 22.7687 94.4535 22.8269" fill="#CF6966"/>
<path fill-rule="evenodd" clip-rule="evenodd" d="M94.6562 22.7923L94.3886 24.4476L94.2822 24.334L94.5165 22.8833C94.5257 22.8263 94.5881 22.7857 94.6562 22.7923" fill="white"/>
<path fill-rule="evenodd" clip-rule="evenodd" d="M75.3842 26.6987L75.3385 26.6301C75.3138 26.663 75.2831 26.6927 75.2463 26.7172C75.2043 26.7453 75.159 26.7636 75.1133 26.7732L75.1626 26.8467C75.1705 26.8586 75.1649 26.876 75.1503 26.8858C75.1486 26.887 75.1464 26.8877 75.1445 26.8886L75.6384 27.6316C75.6697 27.6786 75.7585 27.6743 75.8366 27.6222C75.9146 27.5699 75.9525 27.4896 75.921 27.4426L75.4272 26.7C75.4267 26.7006 75.4259 26.7016 75.4252 26.7021C75.4104 26.712 75.3919 26.7105 75.3842 26.6987" fill="#FF9F6D"/>
<path fill-rule="evenodd" clip-rule="evenodd" d="M74.7998 26.3801L75.0649 26.7698L75.0711 26.7792L75.1443 26.8884C75.1461 26.8876 75.1482 26.887 75.1499 26.8857C75.1647 26.8759 75.1703 26.8586 75.1624 26.8468L75.1131 26.7731C75.1587 26.7635 75.2041 26.7451 75.2461 26.717C75.2827 26.6927 75.3136 26.6629 75.3383 26.63L75.384 26.6985C75.3917 26.7104 75.4102 26.7119 75.4248 26.702C75.4257 26.7014 75.4263 26.7004 75.427 26.6999L75.3595 26.5988L75.3473 26.5805L75.0575 26.1469L74.8896 25.896L74.7998 26.3801Z" fill="#CF6966"/>
<path fill-rule="evenodd" clip-rule="evenodd" d="M74.8406 26.2277L75.7797 27.6365C75.7355 27.6662 75.6751 27.6528 75.6443 27.6069L74.8164 26.3642L74.8406 26.2277Z" fill="white"/>
<path fill-rule="evenodd" clip-rule="evenodd" d="M80.307 25.3943L80.3149 25.3123C80.275 25.3219 80.2325 25.3257 80.1886 25.3214C80.1382 25.3166 80.0916 25.3021 80.0501 25.2806L80.0417 25.3689C80.0405 25.3829 80.0251 25.3929 80.0074 25.3912C80.0054 25.391 80.0033 25.3903 80.0013 25.3896L79.9202 26.2845C79.9147 26.3409 79.9862 26.3937 80.0798 26.4026C80.1732 26.4115 80.2534 26.3733 80.2587 26.3169L80.3396 25.4225C80.3387 25.4225 80.3375 25.4229 80.3365 25.4227C80.319 25.421 80.3058 25.4083 80.307 25.3943" fill="#FF9F6D"/>
<path fill-rule="evenodd" clip-rule="evenodd" d="M80.072 24.656L80.0642 24.7383L80.0155 25.2478L80.0143 25.2589L80.002 25.3897C80.004 25.3904 80.0061 25.3912 80.0081 25.3914C80.0258 25.3929 80.0412 25.383 80.0424 25.3689L80.0508 25.2807C80.0923 25.3023 80.1389 25.3167 80.1893 25.3215C80.2331 25.3258 80.2756 25.322 80.3156 25.3124L80.3077 25.3943C80.3065 25.4084 80.3197 25.421 80.3372 25.4228C80.3382 25.4229 80.3394 25.4226 80.3402 25.4226L80.3521 25.3014L80.3541 25.2797L80.4038 24.7604L80.4417 24.3579C80.447 24.3016 80.072 24.656 80.072 24.656" fill="#CF6966"/>
<path fill-rule="evenodd" clip-rule="evenodd" d="M80.3232 24.5654L80.0807 26.2298C80.0003 26.2246 79.9419 26.1762 79.95 26.1211L80.1617 24.6653L80.3232 24.5654Z" fill="white"/>
<path fill-rule="evenodd" clip-rule="evenodd" d="M73.7671 27.8472L73.7156 27.783C73.6938 27.8181 73.6659 27.8503 73.6314 27.8781C73.5922 27.9098 73.5486 27.9321 73.5039 27.9456L73.5596 28.0145C73.5683 28.0254 73.5644 28.0434 73.5509 28.0544C73.5491 28.0558 73.5471 28.0566 73.5452 28.0577L73.9527 28.5632L74.0064 28.1036L73.8101 27.8447C73.8096 27.8453 73.8089 27.8465 73.8081 27.8471C73.7944 27.858 73.776 27.8582 73.7671 27.8472" fill="#FF9F6D"/>
<path fill-rule="evenodd" clip-rule="evenodd" d="M72.8465 27.1851L73.1354 27.5481L73.4566 27.9465L73.4636 27.9554L73.5461 28.0576C73.5479 28.0565 73.5498 28.0559 73.5517 28.0543C73.5652 28.0434 73.5692 28.0254 73.5605 28.0144L73.5048 27.9455C73.5495 27.932 73.5928 27.9097 73.6323 27.878C73.6667 27.8502 73.6946 27.818 73.7164 27.783L73.768 27.8471C73.7769 27.8583 73.7952 27.8581 73.8089 27.847C73.8098 27.8464 73.8105 27.8454 73.811 27.8446L73.7347 27.7498L73.721 27.7328L73.3937 27.3267L73.1113 26.9716C73.0756 26.9277 72.9954 26.9478 72.9223 27.0066C72.8491 27.0655 72.8109 27.1411 72.8465 27.1851" fill="#CF6966"/>
<path fill-rule="evenodd" clip-rule="evenodd" d="M72.9021 27.0856L73.9528 28.3892L73.9312 28.5152L72.8901 27.2235C72.8553 27.1805 72.8608 27.1188 72.9021 27.0856" fill="white"/>
<path fill-rule="evenodd" clip-rule="evenodd" d="M78.1455 25.5271L78.1268 25.447C78.092 25.4691 78.0528 25.4861 78.0098 25.4962C77.9606 25.5079 77.9117 25.5092 77.8658 25.5022L77.886 25.5884C77.8893 25.6021 77.8781 25.6165 77.8608 25.6206C77.8588 25.6211 77.8567 25.621 77.8545 25.6211L78.0218 26.3304C78.084 26.2316 78.2726 25.912 78.2726 25.912L78.1854 25.5435C78.1846 25.5437 78.1835 25.5444 78.1827 25.5447C78.1654 25.5486 78.1487 25.5409 78.1455 25.5271" fill="#FF9F6D"/>
<path fill-rule="evenodd" clip-rule="evenodd" d="M77.6217 24.6346L77.7043 24.9842L77.8221 25.4822L77.8246 25.4931L77.8548 25.621C77.857 25.6208 77.8591 25.6212 77.8611 25.6205C77.8785 25.6165 77.8896 25.6021 77.8863 25.5884L77.8661 25.5022C77.912 25.5091 77.9609 25.5077 78.0101 25.4962C78.0533 25.4861 78.0923 25.469 78.1271 25.4469L78.1458 25.5271C78.149 25.541 78.1657 25.5487 78.183 25.5447C78.1838 25.5444 78.1849 25.5437 78.1859 25.5434L78.1578 25.4249L78.1528 25.4037L78.0329 24.8961L77.9528 24.5563C77.9396 24.5012 77.8586 24.4846 77.7672 24.5062C77.6757 24.5278 77.6087 24.5796 77.6217 24.6346" fill="#CF6966"/>
<path fill-rule="evenodd" clip-rule="evenodd" d="M77.7159 24.5374L78.101 26.1674L78.0271 26.2723L77.6453 24.6566C77.6328 24.6028 77.6643 24.5495 77.7159 24.5374" fill="white"/>
<path fill-rule="evenodd" clip-rule="evenodd" d="M86.3324 26.3766L86.3093 26.2561C86.2752 26.2834 86.2359 26.3024 86.1926 26.3108C86.1429 26.3204 86.0932 26.3151 86.0457 26.2977L86.0709 26.4271C86.0748 26.4479 86.0639 26.4672 86.0467 26.4707C86.0443 26.471 86.0423 26.4705 86.04 26.4703L86.2642 27.5997C86.4428 27.619 86.5487 27.6185 86.6057 27.5925L86.374 26.4066C86.373 26.4069 86.3722 26.4076 86.3711 26.4079C86.3538 26.4112 86.3365 26.3971 86.3324 26.3766" fill="#FF9F6D"/>
<path fill-rule="evenodd" clip-rule="evenodd" d="M85.7456 24.9197L85.8556 25.5141L86.0002 26.2619L86.0033 26.2784L86.0405 26.4703C86.0427 26.4705 86.045 26.471 86.0472 26.4706C86.0643 26.4672 86.0753 26.4479 86.0714 26.4271L86.0462 26.2977C86.0936 26.315 86.1433 26.3204 86.193 26.3108C86.2364 26.3024 86.2756 26.2833 86.3097 26.2561L86.3329 26.3766C86.337 26.3971 86.3543 26.4112 86.3716 26.4079C86.3728 26.4076 86.3735 26.4069 86.3745 26.4066L86.3403 26.2287L86.3341 26.1966L86.1865 25.4345L86.0794 24.8551C86.0633 24.7725 85.9797 24.7359 85.8875 24.7537C85.7955 24.7715 85.7295 24.8371 85.7456 24.9197" fill="#CF6966"/>
<path fill-rule="evenodd" clip-rule="evenodd" d="M85.8447 24.8607L86.3676 27.5634C86.3676 27.5634 86.2803 27.6189 86.2649 27.5381L85.7786 25.0249C85.763 24.944 85.7926 24.8708 85.8447 24.8607" fill="white"/>
<path fill-rule="evenodd" clip-rule="evenodd" d="M77.0604 25.5673L77.105 25.6842C77.0614 25.6787 77.0179 25.6828 76.9768 25.6986C76.9295 25.7166 76.8902 25.7478 76.8592 25.7879L76.8112 25.6623C76.8037 25.6422 76.7842 25.6311 76.7677 25.6374C76.7655 25.6381 76.7641 25.6398 76.7622 25.641L76.3204 24.4829C76.2899 24.4027 76.6075 24.2817 76.6381 24.3617L77.0798 25.5192C77.0787 25.5195 77.0775 25.5193 77.0765 25.5197C77.0601 25.5258 77.0529 25.5473 77.0604 25.5673" fill="#FF9F6D"/>
<path fill-rule="evenodd" clip-rule="evenodd" d="M77.3459 27.1437L77.1162 26.5689L76.8396 25.8434L76.8336 25.8272L76.7627 25.641C76.7644 25.6398 76.766 25.638 76.7682 25.6374C76.7846 25.631 76.8042 25.6422 76.8117 25.6622L76.8597 25.7878C76.8907 25.7477 76.93 25.7165 76.9773 25.6985C77.0184 25.6829 77.0619 25.6788 77.1054 25.6841L77.0609 25.5673C77.0532 25.5472 77.0605 25.526 77.077 25.5196C77.078 25.5193 77.0792 25.5195 77.0802 25.5193L77.1459 25.6917L77.1577 25.7229L77.4396 26.4623L77.5928 26.8649C77.5928 26.8649 77.484 27.0383 77.3459 27.1437" fill="#CF6966"/>
<path fill-rule="evenodd" clip-rule="evenodd" d="M77.3919 26.9679L76.4174 24.4126C76.4174 24.4126 76.3186 24.4222 76.3484 24.5007L77.3139 27.0334C77.3439 27.1119 77.3919 26.9679 77.3919 26.9679" fill="white"/>
<path fill-rule="evenodd" clip-rule="evenodd" d="M82.2414 25.4963L82.2088 25.6146C82.1768 25.5849 82.1393 25.5626 82.0968 25.551C82.0479 25.5376 81.9979 25.5391 81.9492 25.5527L81.9843 25.4255C81.9898 25.4053 81.9808 25.3851 81.9634 25.3805C81.9614 25.3798 81.9593 25.3801 81.9571 25.3801L82.2791 24.2078C82.3461 24.2405 82.5147 24.351 82.5794 24.4168L82.2851 25.4697C82.2841 25.4694 82.2834 25.4684 82.2822 25.4682C82.2652 25.4634 82.2469 25.4761 82.2414 25.4963" fill="#FF5C00"/>
<path fill-rule="evenodd" clip-rule="evenodd" d="M81.5564 26.8348L81.6983 26.3194L81.9007 25.5849L81.9051 25.5687L81.9569 25.3802C81.9591 25.3802 81.9612 25.3799 81.9634 25.3804C81.9805 25.3852 81.9896 25.4054 81.9841 25.4255L81.9492 25.5528C81.9977 25.5391 82.0477 25.5376 82.0966 25.5509C82.1391 25.5627 82.1766 25.5849 82.2086 25.6147L82.2412 25.4963C82.2467 25.476 82.265 25.4635 82.282 25.4682C82.2832 25.4685 82.2839 25.4694 82.2849 25.4697L82.2369 25.6443L82.2282 25.6759L82.0222 26.4242L81.8842 26.925C81.8619 27.0062 81.7756 27.0362 81.6851 27.0114C81.5946 26.9863 81.5341 26.9161 81.5564 26.8348" fill="#9E2900"/>
<path fill-rule="evenodd" clip-rule="evenodd" d="M81.6384 26.9698L82.3739 24.2944L82.2925 24.2365L81.5852 26.8012C81.5635 26.8805 81.5871 26.9558 81.6384 26.9698" fill="white"/>
<path fill-rule="evenodd" clip-rule="evenodd" d="M81.2796 25.2852L81.2603 25.4064C81.225 25.3803 81.1854 25.3623 81.1419 25.3553C81.0918 25.3474 81.0423 25.3545 80.9955 25.3733L81.0163 25.2429C81.0197 25.2222 81.0084 25.2031 80.9909 25.2004C80.9887 25.1999 80.9866 25.2006 80.9844 25.2009L81.1614 24.0981C81.2702 24.0532 81.407 24.0124 81.5177 24.0181L81.3203 25.254C81.3191 25.2537 81.3184 25.253 81.3172 25.2528C81.2997 25.2499 81.2829 25.2645 81.2796 25.2852" fill="#FF9F6D"/>
<path fill-rule="evenodd" clip-rule="evenodd" d="M80.7449 26.6905L80.8297 26.1625L80.9504 25.4103L80.9531 25.3939L80.9841 25.2009C80.9862 25.2006 80.9882 25.1999 80.9906 25.2004C81.0079 25.2031 81.0194 25.2221 81.016 25.2429L80.9951 25.3731C81.0419 25.3544 81.0916 25.3474 81.1414 25.3553C81.185 25.3623 81.2247 25.3801 81.2599 25.4062L81.2794 25.2852C81.2827 25.2645 81.2993 25.2499 81.3168 25.2526C81.318 25.2528 81.3188 25.2537 81.3198 25.254L81.2912 25.4328L81.2861 25.4651L81.163 26.2315L81.0698 26.8445C81.0599 26.8795 80.9528 26.873 80.8601 26.8582C80.7673 26.8433 80.7315 26.7736 80.7449 26.6905" fill="#CF6966"/>
<path fill-rule="evenodd" clip-rule="evenodd" d="M80.8465 26.8002L81.2844 24.073L81.178 24.1311L80.7754 26.6383C80.7622 26.7195 80.7943 26.7918 80.8465 26.8002" fill="white"/>
<path fill-rule="evenodd" clip-rule="evenodd" d="M75.9707 26.1209L75.996 26.1684C75.9583 26.2043 75.9335 26.2515 75.9229 26.3034L76.1028 26.6407L76.56 27.4932C76.5998 27.5678 76.8998 27.4077 76.8601 27.3333L76.4229 26.5181L76.203 26.1058C76.1571 26.0983 76.1102 26.1031 76.0665 26.1219L76.0449 26.0815C76.0318 26.0568 76.0046 26.046 75.984 26.0568C75.9636 26.0678 75.9578 26.0964 75.9707 26.1209" fill="#FF5C00"/>
<path fill-rule="evenodd" clip-rule="evenodd" d="M75.2949 25.1192L75.9228 26.3034C75.9333 26.2514 75.9583 26.2043 75.9958 26.1683L75.9705 26.1209C75.9576 26.0964 75.9634 26.0677 75.984 26.0568C76.0046 26.0458 76.0318 26.0568 76.0447 26.0813L76.0663 26.1219C76.11 26.103 76.1571 26.0981 76.2028 26.1058L75.5734 24.925C75.5609 24.9017 75.5427 24.8834 75.521 24.8704C75.451 24.9286 75.2949 25.1192 75.2949 25.1192" fill="#9E2900"/>
<path fill-rule="evenodd" clip-rule="evenodd" d="M75.3928 25.069L76.6662 27.4589C76.6194 27.4839 76.5504 27.4456 76.5115 27.3727L75.3213 25.1403L75.3928 25.069Z" fill="white"/>
<path fill-rule="evenodd" clip-rule="evenodd" d="M86.9663 25.8585L86.9897 25.9058C86.951 25.9406 86.9244 25.9865 86.9121 26.0373L87.079 26.374L87.4955 27.212C87.5323 27.2864 87.623 27.2989 87.7069 27.2571C87.7911 27.2153 87.837 27.1353 87.8002 27.061L87.4022 26.2602L87.1983 25.8488C87.1527 25.8404 87.1058 25.8441 87.0615 25.8616L87.0415 25.8212C87.0295 25.7968 87.0028 25.7854 86.9819 25.7956C86.9611 25.8059 86.9541 25.8342 86.9663 25.8585" fill="#FF5C00"/>
<path fill-rule="evenodd" clip-rule="evenodd" d="M86.2529 24.7176L86.911 26.0375C86.9233 25.9866 86.9499 25.9406 86.9886 25.906L86.9651 25.8586C86.953 25.8342 86.96 25.8061 86.9809 25.7958C87.0017 25.7854 87.0284 25.7969 87.0406 25.8212L87.0604 25.8616C87.1046 25.8442 87.1518 25.8404 87.1972 25.8488L86.6363 24.7119C86.5122 24.6775 86.3523 24.7069 86.2529 24.7176" fill="#9E2900"/>
<path fill-rule="evenodd" clip-rule="evenodd" d="M86.4336 24.8308L87.6011 27.1842C87.5536 27.2079 87.4861 27.1685 87.4501 27.0958L86.3292 24.8363C86.293 24.7636 86.4336 24.8308 86.4336 24.8308" fill="white"/>
<path fill-rule="evenodd" clip-rule="evenodd" d="M90.3509 23.7335L90.3629 23.7851C90.317 23.8098 90.2807 23.8484 90.2568 23.895L90.3413 24.261L90.5118 24.9995C90.5118 24.9995 90.7278 25.0922 90.8961 25.1066L90.6822 24.2254L90.5788 23.7777C90.5365 23.7589 90.4899 23.7517 90.4429 23.7586L90.4328 23.7147C90.4265 23.6881 90.4034 23.6708 90.3807 23.676C90.3581 23.6813 90.3447 23.707 90.3509 23.7335" fill="#FF5C00"/>
<path fill-rule="evenodd" clip-rule="evenodd" d="M89.9405 22.5351L90.258 23.8949C90.2818 23.8483 90.3182 23.8097 90.3641 23.785L90.3521 23.7335C90.3459 23.7069 90.3591 23.6812 90.3819 23.6759C90.4045 23.6707 90.4277 23.6882 90.4338 23.7146L90.4439 23.7586C90.4911 23.7518 90.5377 23.759 90.5798 23.7777L90.2719 22.4586C90.2532 22.3777 90.1759 22.3671 90.0844 22.3882C89.9929 22.4094 89.9219 22.4542 89.9405 22.5351" fill="#9E2900"/>
<path fill-rule="evenodd" clip-rule="evenodd" d="M90.0359 22.4385L90.634 25.0284L90.5254 24.9839L89.9754 22.6028C89.9571 22.5236 89.9844 22.4505 90.0359 22.4385" fill="white"/>
<path fill-rule="evenodd" clip-rule="evenodd" d="M91.3654 23.5526L91.3688 23.6054C91.3194 23.6222 91.2771 23.6542 91.2461 23.6964L91.2694 24.0713L91.3287 25.06C91.3338 25.1429 91.4092 25.1321 91.503 25.1265C91.5967 25.1205 91.6701 25.0646 91.6649 24.9818L91.6115 24.0921L91.583 23.6337C91.5445 23.6081 91.4996 23.5934 91.4521 23.5924L91.4493 23.5475C91.4475 23.5202 91.4274 23.4993 91.4043 23.5007C91.3811 23.5022 91.3637 23.5254 91.3654 23.5526" fill="#FF5C00"/>
<path fill-rule="evenodd" clip-rule="evenodd" d="M91.1572 22.2404L91.2458 23.6963C91.2768 23.6542 91.3192 23.6221 91.3684 23.6053L91.3651 23.5525C91.3634 23.5255 91.3809 23.5022 91.4038 23.5006C91.4271 23.4993 91.4472 23.5202 91.4491 23.5474L91.4518 23.5925C91.4993 23.5933 91.5442 23.6081 91.5826 23.6336L91.5015 22.3149C91.4035 22.2787 91.2477 22.2482 91.1572 22.2404" fill="#9E2900"/>
<path fill-rule="evenodd" clip-rule="evenodd" d="M91.3121 22.305L91.5517 25.0996C91.4782 25.1027 91.4085 25.0958 91.3957 24.8196L91.178 22.3023C91.1708 22.2212 91.3121 22.305 91.3121 22.305" fill="white"/>
<path fill-rule="evenodd" clip-rule="evenodd" d="M71.0001 29.4935L70.9932 29.4552C70.9422 29.454 70.8949 29.4405 70.8567 29.4175L70.808 29.1456L70.6819 28.4303C70.6712 28.3701 70.7321 28.2894 70.8244 28.2728C70.9168 28.2563 70.9989 28.2801 71.0097 28.3401L71.1374 29.0554L71.1967 29.3881C71.1641 29.4146 71.1231 29.435 71.077 29.4462L71.0829 29.4787C71.0863 29.4984 71.0709 29.5178 71.0479 29.5219C71.0251 29.5258 71.0037 29.5132 71.0001 29.4935" fill="#FF5C00"/>
<path fill-rule="evenodd" clip-rule="evenodd" d="M70.9517 29.9596L70.8564 29.4174C70.8947 29.4406 70.942 29.4539 70.9932 29.4553L70.9999 29.4933C71.0035 29.5132 71.0249 29.5259 71.0477 29.5218C71.0707 29.5177 71.0863 29.4983 71.0827 29.4786L71.0768 29.446C71.1229 29.4349 71.1639 29.4145 71.1966 29.3879L71.3356 30.1572C71.2623 30.1298 70.979 30.0117 70.9517 29.9596" fill="#9E2900"/>
<path fill-rule="evenodd" clip-rule="evenodd" d="M71.0898 30.0293L70.7954 28.4236C70.7419 28.433 70.707 28.4877 70.7178 28.5465L70.9761 29.9558L71.0898 30.0293Z" fill="white"/>
<path fill-rule="evenodd" clip-rule="evenodd" d="M69.2913 28.9361L69.3071 28.9137C69.2704 28.8789 69.2431 28.8409 69.2275 28.8044L69.3405 28.6448L69.7084 28.1257C69.749 28.215 69.7691 28.6128 69.7691 28.6128L69.6308 28.8234L69.4927 29.0186C69.4543 29.009 69.4131 28.9912 69.3734 28.9655L69.3598 28.9848C69.3518 28.9963 69.3297 28.9948 69.3108 28.9814C69.2916 28.968 69.2831 28.9476 69.2913 28.9361" fill="#FF5C00"/>
<path fill-rule="evenodd" clip-rule="evenodd" d="M68.6336 29.6382C68.652 29.612 69.2274 28.8043 69.2274 28.8043C69.243 28.8408 69.2703 28.8787 69.3069 28.9137L69.2912 28.9361C69.283 28.9476 69.2915 28.968 69.3107 28.9813C69.3296 28.9947 69.3515 28.9961 69.3597 28.9848L69.3733 28.9654C69.413 28.9911 69.4542 29.0089 69.4925 29.0185L68.9752 29.7402C68.9503 29.7755 68.8514 29.8063 68.756 29.7789C68.6657 29.7529 68.6153 29.6646 68.6336 29.6382" fill="#9E2900"/>
<path fill-rule="evenodd" clip-rule="evenodd" d="M68.719 29.7238L69.7231 28.2975C69.6799 28.267 69.625 28.2697 69.6007 28.3042L68.669 29.625C68.6446 29.6594 68.719 29.7238 68.719 29.7238" fill="white"/>
<path fill-rule="evenodd" clip-rule="evenodd" d="M67.7358 27.5026L67.7553 27.475C67.7195 27.4386 67.6943 27.3979 67.6816 27.3574L67.8206 27.161L68.0419 26.8483C68.0419 26.8483 68.3793 26.7477 68.533 26.7439L68.1138 27.3353L67.9438 27.5757C67.9034 27.5689 67.8612 27.5528 67.8211 27.5276L67.8043 27.5512C67.7944 27.5653 67.7709 27.5661 67.7519 27.5526C67.7327 27.5392 67.7257 27.5168 67.7358 27.5026" fill="#FF5C00"/>
<path fill-rule="evenodd" clip-rule="evenodd" d="M67.1807 28.0673L67.6828 27.3573C67.6953 27.3977 67.7207 27.4387 67.7565 27.4749L67.7369 27.5025C67.7268 27.5167 67.7339 27.5391 67.7529 27.5525C67.7719 27.566 67.7954 27.5652 67.8055 27.5511L67.8221 27.5275C67.8624 27.5528 67.9045 27.5688 67.9448 27.5756L67.368 28.3672C67.3373 28.4105 67.2674 28.3113 67.2328 28.2539C67.1843 28.1735 67.1498 28.1106 67.1807 28.0673" fill="#9E2900"/>
<path fill-rule="evenodd" clip-rule="evenodd" d="M67.2296 28.1905L68.1726 26.848C68.1726 26.848 68.0701 26.8267 68.04 26.8691L67.2054 28.0586C67.1754 28.1009 67.1864 28.16 67.2296 28.1905" fill="white"/>
<path fill-rule="evenodd" clip-rule="evenodd" d="M68.8561 28.691L68.9202 28.6099C68.8793 28.5991 68.8404 28.5806 68.8057 28.5532C68.7662 28.522 68.7363 28.4824 68.7161 28.4384L68.6471 28.5256C68.6359 28.5395 68.6159 28.5419 68.602 28.5309C68.6003 28.5297 68.5991 28.5276 68.5979 28.5261L67.9446 29.3489C67.9004 29.4045 67.9098 29.5039 67.9835 29.5622C68.057 29.6205 68.1487 29.6392 68.1927 29.5835L68.864 28.7374C68.8632 28.7369 68.8621 28.7367 68.8611 28.736C68.8474 28.7251 68.845 28.7048 68.8561 28.691" fill="#FF9F6D"/>
<path fill-rule="evenodd" clip-rule="evenodd" d="M69.4429 27.4611L69.1073 27.8818L68.7087 28.3858L68.7 28.3967L68.5977 28.5261C68.599 28.5278 68.6001 28.5297 68.6018 28.5311C68.6157 28.5421 68.6359 28.5395 68.6468 28.5256L68.7159 28.4384C68.7361 28.4824 68.7659 28.522 68.8055 28.5534C68.8401 28.5806 68.879 28.5991 68.92 28.6099L68.8559 28.691C68.8448 28.7049 68.8472 28.7251 68.8609 28.7361C68.8619 28.7367 68.8629 28.7369 68.864 28.7376L68.9586 28.6178L68.9759 28.5961L69.382 28.0826L69.5981 27.8077C69.5981 27.8077 69.4931 27.5077 69.4429 27.4611" fill="#CF6966"/>
<path fill-rule="evenodd" clip-rule="evenodd" d="M69.435 27.6499L67.9787 29.4919C67.9372 29.459 67.9382 29.3886 67.9812 29.3341L69.3207 27.641C69.3637 27.5863 69.435 27.6499 69.435 27.6499" fill="white"/>
<path fill-rule="evenodd" clip-rule="evenodd" d="M68.3517 28.1828L68.4227 28.0868C68.3798 28.0794 68.3394 28.0635 68.3039 28.0373C68.2633 28.0073 68.2333 27.9672 68.2136 27.9213L68.1373 28.0244C68.1252 28.0409 68.1039 28.0457 68.0897 28.0352C68.0878 28.0339 68.0868 28.032 68.0854 28.0303L67.44 28.9041C67.3914 28.9701 67.4131 29.0686 67.4885 29.1245C67.5643 29.1802 67.626 29.2288 67.6746 29.1629L68.3584 28.2328C68.3575 28.2323 68.3563 28.2323 68.3555 28.2316C68.3413 28.221 68.3397 28.1992 68.3517 28.1828" fill="#FF9F6D"/>
<path fill-rule="evenodd" clip-rule="evenodd" d="M68.9675 26.8401L68.6489 27.2682L68.2086 27.8642L68.199 27.8772L68.0859 28.0303C68.0873 28.032 68.0883 28.0339 68.0902 28.0352C68.1044 28.0457 68.1257 28.0409 68.1379 28.0244L68.2141 27.9213C68.2338 27.9672 68.2638 28.0073 68.3044 28.0373C68.3399 28.0635 68.3804 28.0794 68.4232 28.0868L68.3522 28.1828C68.3403 28.1992 68.3418 28.221 68.356 28.2316C68.3569 28.2323 68.3581 28.2323 68.3589 28.2328L68.4636 28.0911L68.4825 28.0654L68.9313 27.4581L69.2177 27.0709C69.1752 26.9714 69.0393 26.861 68.9675 26.8401" fill="#CF6966"/>
<path fill-rule="evenodd" clip-rule="evenodd" d="M69.0556 26.9101L67.4614 29.0685C67.4187 29.037 67.4223 28.9595 67.4699 28.8951L68.9492 26.8919C68.997 26.8275 69.0556 26.9101 69.0556 26.9101" fill="white"/>
<path fill-rule="evenodd" clip-rule="evenodd" d="M85.4145 26.1254L85.4095 26.2244C85.3716 26.2063 85.33 26.195 85.286 26.1929C85.2354 26.1903 85.1871 26.1999 85.1429 26.2186L85.1482 26.1122C85.149 26.0952 85.1353 26.0808 85.1177 26.08C85.1154 26.08 85.1136 26.0805 85.1113 26.0808L85.159 25.1076C85.1622 25.0396 85.2409 24.9883 85.335 24.993C85.4287 24.9974 85.5021 25.0564 85.4986 25.1244L85.451 26.0969C85.4498 26.0969 85.4489 26.0963 85.4479 26.0963C85.4301 26.0954 85.4152 26.1084 85.4145 26.1254" fill="#FF5C00"/>
<path fill-rule="evenodd" clip-rule="evenodd" d="M85.0605 27.1117L85.0727 26.8673L85.1032 26.2522L85.1037 26.2387L85.1116 26.0809C85.1138 26.0805 85.1157 26.0798 85.118 26.0798C85.1356 26.0809 85.1493 26.0953 85.1485 26.1122L85.143 26.2186C85.1874 26.2 85.2357 26.1904 85.2862 26.1928C85.3303 26.195 85.3718 26.2063 85.4098 26.2245L85.4148 26.1254C85.4155 26.1085 85.4304 26.0954 85.4482 26.0963C85.4492 26.0963 85.4501 26.097 85.4513 26.097L85.4441 26.2433L85.4427 26.2697L85.4117 26.8966L85.3942 27.3332C85.391 27.4011 85.0605 27.1117 85.0605 27.1117" fill="#9E2900"/>
<path fill-rule="evenodd" clip-rule="evenodd" d="M85.2576 27.1611L85.4541 25.0854C85.3527 25.0828 85.2654 25.1341 85.2592 25.2008L85.0801 27.0908L85.2576 27.1611Z" fill="white"/>
<path fill-rule="evenodd" clip-rule="evenodd" d="M89.5721 23.9052L89.61 23.9734C89.5699 23.9811 89.5296 23.9951 89.4909 24.0164C89.4469 24.0409 89.4095 24.0726 89.3797 24.1079L89.3391 24.0346C89.3327 24.0229 89.3149 24.0203 89.2995 24.0289C89.2973 24.0301 89.2961 24.0315 89.2943 24.0328L88.9497 23.4118C88.9237 23.3648 88.9692 23.2901 89.0513 23.2445C89.1334 23.199 89.2212 23.1998 89.2472 23.2468L89.5915 23.8675C89.5903 23.868 89.5894 23.868 89.5884 23.8685C89.5728 23.8771 89.5656 23.8935 89.5721 23.9052" fill="#FF5C00"/>
<path fill-rule="evenodd" clip-rule="evenodd" d="M89.6831 24.7278L89.5944 24.5744L89.3592 24.1509L89.3543 24.1415L89.2939 24.0327C89.2955 24.0315 89.2969 24.0299 89.2991 24.0287C89.3143 24.0203 89.3323 24.0227 89.3385 24.0346L89.3793 24.1077C89.4089 24.0724 89.4463 24.0409 89.4905 24.0164C89.5292 23.9952 89.5693 23.9811 89.6096 23.9734L89.5717 23.9052C89.5652 23.8935 89.5724 23.8771 89.588 23.8685C89.589 23.868 89.5899 23.8678 89.5909 23.8673L89.647 23.9681L89.6571 23.9862L89.8965 24.4179L90.1645 24.8861C90.0584 24.853 89.709 24.7744 89.6831 24.7278" fill="#9E2900"/>
<path fill-rule="evenodd" clip-rule="evenodd" d="M89.8372 24.7791L89.0127 23.2931C88.9663 23.3188 88.9493 23.3764 88.9747 23.4223L89.6968 24.7239L89.8372 24.7791Z" fill="white"/>
<path fill-rule="evenodd" clip-rule="evenodd" d="M92.617 23.5088L92.6158 23.587C92.5741 23.5736 92.5285 23.5659 92.481 23.5656C92.4262 23.5649 92.3741 23.574 92.3272 23.5899L92.3281 23.5059C92.3285 23.4927 92.3129 23.4818 92.294 23.4816C92.2914 23.4816 92.2893 23.4821 92.2871 23.4825L92.2953 22.7721C92.2958 22.7186 92.6611 23.0897 92.6611 23.0897L92.6552 23.4855C92.6539 23.4855 92.653 23.485 92.6517 23.485C92.6325 23.4848 92.617 23.4955 92.617 23.5088" fill="#FF5C00"/>
<path fill-rule="evenodd" clip-rule="evenodd" d="M92.2734 24.5929L92.2809 24.1019L92.2863 23.6175V23.6068L92.2879 23.4824C92.2903 23.4823 92.2923 23.4816 92.2946 23.4816C92.3133 23.4817 92.3285 23.4927 92.3282 23.5061L92.3273 23.5899C92.3731 23.5739 92.4238 23.5649 92.4773 23.5655C92.5239 23.5661 92.5683 23.5738 92.6092 23.587L92.6101 23.5088C92.6101 23.4956 92.6253 23.485 92.6442 23.4852C92.6455 23.4852 92.6464 23.4855 92.6474 23.4855L92.6464 23.6007L92.646 23.6216L92.6404 24.1151L92.6329 24.5965C92.6324 24.65 92.5525 24.6822 92.4532 24.6812C92.3539 24.6801 92.2729 24.6464 92.2734 24.5929" fill="#9E2900"/>
<path fill-rule="evenodd" clip-rule="evenodd" d="M92.3403 22.9199L92.3018 24.548C92.3014 24.6002 92.3941 24.6429 92.5093 24.6434L92.5486 22.9628C92.5486 22.9628 92.3414 22.8675 92.3403 22.9199" fill="white"/>
<path fill-rule="evenodd" clip-rule="evenodd" d="M72.8037 28.3453L72.8781 28.4428C72.8349 28.4504 72.7947 28.4667 72.7597 28.4936C72.7194 28.5241 72.6903 28.565 72.6716 28.6118L72.5918 28.5069C72.5789 28.4903 72.5573 28.4853 72.5433 28.4961C72.5415 28.4975 72.5405 28.4994 72.5391 28.5013L71.806 27.544C71.7548 27.4772 71.7741 27.3767 71.8487 27.3198C71.9234 27.2629 72.0252 27.2708 72.0763 27.3378L72.8091 28.2943C72.808 28.2949 72.807 28.2951 72.806 28.2956C72.7921 28.3064 72.7909 28.3285 72.8037 28.3453" fill="#FF9F6D"/>
<path fill-rule="evenodd" clip-rule="evenodd" d="M73.4635 29.7141L73.1286 29.2756L72.6668 28.67L72.6567 28.6566L72.5381 28.5012C72.5395 28.4994 72.5405 28.4976 72.5424 28.4962C72.5563 28.4854 72.578 28.4902 72.5907 28.507L72.6707 28.6119C72.6892 28.5649 72.7184 28.5241 72.7586 28.4934C72.7936 28.4667 72.8339 28.4503 72.8771 28.4429L72.8027 28.3454C72.7898 28.3286 72.791 28.3065 72.8049 28.2957C72.8059 28.295 72.807 28.295 72.808 28.2943L72.9177 28.4383L72.9377 28.4643L73.4083 29.0816L73.6688 29.4231C73.6688 29.4231 73.543 29.6386 73.4635 29.7141" fill="#CF6966"/>
<path fill-rule="evenodd" clip-rule="evenodd" d="M73.5112 29.587L71.8923 27.4644C71.8501 27.4966 71.8561 27.5752 71.9062 27.6409L73.4543 29.6754L73.5112 29.587Z" fill="white"/>
<path fill-rule="evenodd" clip-rule="evenodd" d="M82.9858 25.7221L82.9759 25.7538C82.9255 25.747 82.8779 25.7512 82.8383 25.7651L82.7679 25.9901L82.5336 26.7586C82.5182 26.8083 82.5806 26.8614 82.6703 26.8895C82.7598 26.9178 82.8427 26.9099 82.8582 26.8602L83.0846 26.1168L83.1706 25.8419C83.1406 25.8141 83.102 25.7907 83.0575 25.7742L83.066 25.7471C83.0712 25.7308 83.0573 25.712 83.0352 25.7051C83.0129 25.6981 82.991 25.7057 82.9858 25.7221" fill="#FF5C00"/>
<path fill-rule="evenodd" clip-rule="evenodd" d="M83.0912 24.9702L82.8379 25.7652C82.8775 25.7513 82.9253 25.7469 82.9757 25.7537L82.9856 25.722C82.9908 25.7057 83.0127 25.698 83.0348 25.7051C83.0571 25.7119 83.071 25.7308 83.0658 25.7472L83.0572 25.7741C83.1018 25.7906 83.1404 25.814 83.1702 25.8418L83.3176 25.3716C83.3176 25.3716 83.2562 25.1486 83.0912 24.9702" fill="#9E2900"/>
<path fill-rule="evenodd" clip-rule="evenodd" d="M83.1197 25.2239L82.6483 26.7295C82.5977 26.7136 82.5689 26.6617 82.5842 26.6132L83.0474 25.1335L83.1197 25.2239Z" fill="white"/>
<path fill-rule="evenodd" clip-rule="evenodd" d="M71.9464 29.0642L71.9219 29.0163C71.871 29.0265 71.8181 29.02 71.7696 28.9989L71.5961 28.6583L71.2015 27.8838C71.1632 27.8086 71.2069 27.7279 71.2906 27.6852C71.3742 27.6425 71.4294 27.5827 71.4678 27.658L71.8797 28.4662L72.0919 28.8824C72.0719 28.9244 72.0408 28.9602 72.0006 28.9852L72.0213 29.026C72.034 29.0507 72.0275 29.0793 72.0067 29.0899C71.986 29.1004 71.9591 29.0889 71.9464 29.0642" fill="#FF5C00"/>
<path fill-rule="evenodd" clip-rule="evenodd" d="M72.4158 30.2628L71.7695 28.999C71.8179 29.0199 71.8708 29.0266 71.9219 29.0163L71.9462 29.0641C71.9589 29.0888 71.9858 29.1004 72.0065 29.0898C72.0273 29.0792 72.0338 29.0507 72.0213 29.0261L72.0004 28.9851C72.0408 28.9601 72.0717 28.9243 72.0917 28.8824L72.757 30.1861C72.6799 30.2212 72.5397 30.2673 72.4158 30.2628" fill="#9E2900"/>
<path fill-rule="evenodd" clip-rule="evenodd" d="M72.5201 30.2256L71.2475 27.7275C71.2003 27.7515 71.1921 27.8304 71.2296 27.9039L72.3945 30.1903C72.4318 30.2638 72.5201 30.2256 72.5201 30.2256" fill="white"/>
<path fill-rule="evenodd" clip-rule="evenodd" d="M99.9667 21.9896C99.5866 21.7841 99.1342 21.7324 98.6247 21.901C97.5588 22.2542 97.1979 23.303 97.5139 24.2575C97.8301 25.2123 98.7459 25.8383 99.8118 25.4853C100.239 25.3437 100.611 25.0909 100.863 24.8123L100.403 23.4243L99.4134 23.7522L99.2852 23.3656L100.697 22.8981L101.37 24.9304C100.998 25.359 100.443 25.7051 99.9398 25.8717C98.7041 26.2811 97.4741 25.6681 97.057 24.4089C96.6401 23.1498 97.261 21.9238 98.4967 21.5147C99.1526 21.2973 99.6891 21.3278 100.18 21.5744L99.9667 21.9896Z" fill="#ED309D"/>
<path fill-rule="evenodd" clip-rule="evenodd" d="M103.805 23.228C103.4 23.3123 102.495 23.5329 102.613 24.1008C102.691 24.4751 103.066 24.5483 103.386 24.4814C103.966 24.3604 104.158 23.8917 104.053 23.3905L104.01 23.1852L103.805 23.228ZM103.943 22.8591L103.928 22.7866C103.825 22.2974 103.54 22.1049 103.05 22.2071C102.718 22.2763 102.452 22.4518 102.256 22.7195L101.955 22.4861C102.159 22.1661 102.534 21.9366 103.065 21.8258C103.621 21.7099 104.164 21.9243 104.307 22.6127L104.571 23.875C104.616 24.0925 104.696 24.3532 104.752 24.4992L104.365 24.5799C104.312 24.446 104.264 24.2795 104.233 24.1285L104.221 24.1311C104.069 24.5531 103.788 24.7759 103.335 24.8704C102.834 24.9749 102.305 24.7955 102.19 24.2459C101.998 23.3278 103.067 23.0418 103.744 22.9008L103.943 22.8591Z" fill="#ED309D"/>
<path fill-rule="evenodd" clip-rule="evenodd" d="M107.109 21.7409C106.443 21.7472 105.961 22.2518 105.967 22.8996C105.973 23.5472 106.465 24.0423 107.131 24.0357C107.804 24.0294 108.219 23.5256 108.212 22.8778C108.206 22.23 107.782 21.7344 107.109 21.7409ZM105.547 19.683L105.954 19.6791L105.976 21.9371L105.988 21.9369C106.25 21.5455 106.723 21.3743 107.106 21.3709C108.006 21.3621 108.648 22.0036 108.656 22.8734C108.665 23.7433 108.036 24.3971 107.135 24.4058C106.752 24.4096 106.276 24.2477 106.007 23.8616H105.994L105.999 24.343L105.592 24.3467L105.547 19.683Z" fill="#ED309D"/>
<path fill-rule="evenodd" clip-rule="evenodd" d="M109.746 22.5649C109.802 22.3118 109.838 22.0923 109.916 21.6799L110.307 21.7661L110.192 22.2902L110.204 22.2929C110.385 22.017 110.745 21.7865 111.239 21.8953C111.354 21.9205 111.447 21.954 111.526 21.9966L111.362 22.3709C111.318 22.3421 111.248 22.3142 111.139 22.2904C110.537 22.1577 110.15 22.6223 110.067 23.0019L109.717 24.5924L109.319 24.5048L109.746 22.5649Z" fill="#ED309D"/>
<path fill-rule="evenodd" clip-rule="evenodd" d="M112.682 21.547C112.54 21.5046 112.433 21.3441 112.483 21.1785C112.532 21.013 112.709 20.9371 112.851 20.9794C112.993 21.0221 113.1 21.1825 113.05 21.348C113.001 21.5136 112.824 21.5895 112.682 21.547ZM111.818 25.153L111.428 25.0363L112.254 22.2693L112.644 22.3858L111.818 25.153Z" fill="#ED309D"/>
<path fill-rule="evenodd" clip-rule="evenodd" d="M115.519 24.6664C115.703 24.1492 115.498 23.6771 114.946 23.4807C114.446 23.303 113.842 23.5658 113.683 24.0133L115.519 24.6664ZM113.56 24.3231C113.412 24.8859 113.672 25.4626 114.212 25.655C114.619 25.7995 115.013 25.6845 115.251 25.4941L115.461 25.8435C114.996 26.1367 114.536 26.1626 114.088 26.0036C113.28 25.7162 112.899 24.8933 113.19 24.0739C113.481 23.2544 114.297 22.8569 115.07 23.1319C115.893 23.4311 116.153 24.2109 115.888 24.9548L115.826 25.1291L113.56 24.3231Z" fill="#ED309D"/>
<path fill-rule="evenodd" clip-rule="evenodd" d="M116.925 26.8266L116.531 26.7231L117.716 22.2123L118.11 22.3158L116.925 26.8266Z" fill="#ED309D"/>
<path fill-rule="evenodd" clip-rule="evenodd" d="M118.728 27.2052L118.327 27.1331L119.155 22.5427L119.555 22.615L118.728 27.2052Z" fill="#ED309D"/>
<path fill-rule="evenodd" clip-rule="evenodd" d="M121.864 26.1188C121.452 26.0888 120.521 26.0519 120.479 26.6303C120.451 27.0118 120.791 27.1849 121.117 27.2085C121.708 27.2515 122.021 26.8539 122.058 26.3432L122.074 26.1342L121.864 26.1188ZM122.098 25.8017L122.103 25.7281C122.139 25.2299 121.917 24.9661 121.419 24.93C121.08 24.9055 120.777 25.0008 120.514 25.2043L120.289 24.8972C120.574 24.6457 120.997 24.5281 121.538 24.5675C122.104 24.6087 122.567 24.9639 122.516 25.6653L122.422 26.951C122.406 27.1725 122.411 27.445 122.425 27.6005L122.031 27.5718C122.016 27.4287 122.016 27.2555 122.028 27.1016L122.015 27.1007C121.754 27.4652 121.422 27.6018 120.961 27.5684C120.45 27.5312 119.991 27.2133 120.032 26.6535C120.1 25.7183 121.205 25.737 121.894 25.787L122.098 25.8017Z" fill="#ED309D"/>
<path fill-rule="evenodd" clip-rule="evenodd" d="M127.934 26.6807L129.195 23.0466L129.873 23.0063L130.131 27.366L129.688 27.3923L129.464 23.6238L129.452 23.6245L128.099 27.4867L127.866 27.5006L126.065 23.8258L126.053 23.8265L126.277 27.595L125.833 27.6214L125.574 23.2617L126.252 23.2214L127.934 26.6807Z" fill="#ED309D"/>
<path fill-rule="evenodd" clip-rule="evenodd" d="M131.954 27.1617L131.54 27.2046L131.23 24.3331L131.644 24.2904L131.954 27.1617ZM131.35 23.5019C131.2 23.5175 131.036 23.4102 131.017 23.2385C130.999 23.0666 131.136 22.9285 131.286 22.9127C131.436 22.8973 131.6 23.0044 131.618 23.1763C131.637 23.348 131.5 23.4865 131.35 23.5019Z" fill="#ED309D"/>
<path fill-rule="evenodd" clip-rule="evenodd" d="M133.609 26.9634L133.205 27.0145L132.619 22.3878L133.023 22.3365L133.609 26.9634Z" fill="#ED309D"/>
<path fill-rule="evenodd" clip-rule="evenodd" d="M135.287 26.7269L134.884 26.7875L134.191 22.1759L134.594 22.1156L135.287 26.7269Z" fill="#ED309D"/>
<path fill-rule="evenodd" clip-rule="evenodd" d="M138.414 24.5147C138.327 23.9726 137.92 23.657 137.341 23.7499C136.818 23.8342 136.414 24.3551 136.489 24.8244L138.414 24.5147ZM136.531 25.1551C136.671 25.7197 137.176 26.1009 137.743 26.0099C138.169 25.9413 138.46 25.6509 138.577 25.3695L138.929 25.5753C138.662 26.0556 138.27 26.2998 137.802 26.3752C136.955 26.5113 136.225 25.9727 136.086 25.1139C135.948 24.2552 136.473 23.5147 137.283 23.3845C138.149 23.2515 138.751 23.8108 138.877 24.5904L138.906 24.7731L136.531 25.1551Z" fill="#ED309D"/>
<path fill-rule="evenodd" clip-rule="evenodd" d="M139.817 24.0467C139.797 23.7884 139.768 23.5679 139.723 23.1508L140.122 23.1196L140.164 23.6548L140.177 23.6537C140.269 23.337 140.547 23.0125 141.052 22.973C141.168 22.9641 141.268 22.9688 141.356 22.9866L141.307 23.3926C141.256 23.378 141.182 23.3715 141.071 23.3799C140.456 23.4279 140.221 23.9845 140.251 24.3718L140.377 25.9953L139.971 26.0271L139.817 24.0467Z" fill="#ED309D"/>
<path fill-rule="evenodd" clip-rule="evenodd" d="M65.8125 44.6524C68.1509 40.4624 67.5989 35.5574 65.6091 31.0591C69.0816 33.6339 70.1133 41.4714 68.58 45.9295C67.2101 49.9117 63.3412 49.0803 65.8125 44.6524" fill="#E0E0E0"/>
<path fill-rule="evenodd" clip-rule="evenodd" d="M41.615 51.668C38.6634 49.711 36.5833 46.7317 35.5791 43.3469C40.3688 44.0579 42.3048 47.0993 41.615 51.668" fill="#E0E0E0"/>
<path fill-rule="evenodd" clip-rule="evenodd" d="M44.9169 26.3433C41.2328 27.8493 39.0896 31.5177 38.3762 35.3699C37.7726 38.6311 35.6946 37.9338 35 38.3346C35.5612 33.727 39.1926 26.7887 44.9169 26.3433" fill="#E0E0E0"/>
<path fill-rule="evenodd" clip-rule="evenodd" d="M56.337 51.449C56.319 53.6914 55.0275 56.646 56.4441 57.8249C57.5342 58.7323 58.6212 56.1899 59.7051 54.325C60.9445 52.1936 61.5787 52.6478 64.17 52.4109C70.1862 51.8608 68.9516 50.2433 65.9447 49.7401C64.8228 49.5525 63.1833 49.3081 62.4254 47.6602C61.7062 46.0961 62.4731 44.6182 63.6737 42.9158C65.3004 40.6096 65.7653 39.2859 62.2054 41.31C58.5393 43.3942 58.3415 43.9296 54.4939 41.9129C49.3272 39.2049 50.8983 41.9588 53.2547 44.2747C55.1317 46.1199 56.3586 48.769 56.337 51.449" fill="#009ABA"/>
<path fill-rule="evenodd" clip-rule="evenodd" d="M41.8279 33.3114C43.5274 32.5672 46.1931 32.9135 46.5838 30.7578C48.0638 31.8285 47.2983 35.4114 43.9688 37.0033C41.3092 38.2752 39.2242 34.4516 41.8279 33.3114" fill="#ED309D"/>
<path fill-rule="evenodd" clip-rule="evenodd" d="M51.5861 49.6881C49.295 44.6783 48.3009 41.2177 50.5526 35.9344C53.2503 29.6037 51.6622 30.5989 48.5412 34.6448C45.7807 38.2232 42.363 38.513 37.2231 39.6302C34.1449 40.2992 34.1777 41.5514 38.3464 41.7274C43.1128 41.9286 44.0687 45.1956 43.9301 49.2984C43.8835 50.6809 43.6682 52.0736 43.2136 53.3334C41.6743 57.5973 43.5935 57.2256 45.1302 55.0709C45.8952 53.9981 46.5781 52.79 46.9202 51.4036C47.6159 48.5854 48.3852 49.3228 49.627 51.1959C53.9203 57.6727 53.2522 53.3318 51.5861 49.6881" fill="#ED309D"/>
<path fill-rule="evenodd" clip-rule="evenodd" d="M56.4697 41.5285C55.5733 40.5432 55.7335 38.4088 56.736 37.4966C58.0136 36.334 59.1435 36.4648 59.8437 37.167C62.2787 39.6099 58.4318 43.6846 56.4697 41.5285" fill="#009ABA"/>
<path fill-rule="evenodd" clip-rule="evenodd" d="M145.663 50.0215C145.663 51.4543 144.38 52.6266 142.812 52.6266H73.9649C72.3965 52.6266 71.1133 51.4543 71.1133 50.0215C71.1133 48.5886 72.3965 47.4163 73.9649 47.4163H142.812C144.38 47.4163 145.663 48.5886 145.663 50.0215" fill="#ED309D"/>
<path fill-rule="evenodd" clip-rule="evenodd" d="M74.4086 49.8982C74.6801 49.8982 75.0307 49.8847 75.0307 49.5589C75.0307 49.2636 74.7178 49.2228 74.4614 49.2228H74.1221V49.8982H74.4086ZM73.6465 48.8562H74.544C75.0605 48.8562 75.5281 49.019 75.5281 49.552C75.5281 50.1562 75.0265 50.2649 74.461 50.2649H74.1217V51.2592H73.6465V48.8562Z" fill="white"/>
<path fill-rule="evenodd" clip-rule="evenodd" d="M76.3271 48.8562H78.0955V49.2432H76.8022V49.8337H78.0277V50.2207H76.8022V50.8724H78.1634V51.2592H76.3271V48.8562Z" fill="white"/>
<path fill-rule="evenodd" clip-rule="evenodd" d="M79.8377 50.8723C80.4336 50.8723 80.9199 50.6415 80.9199 50.0576C80.9199 49.4739 80.4977 49.2431 79.9169 49.2431H79.4833V50.8723H79.8377ZM79.0078 48.8561H80.0599C80.7613 48.8561 81.4173 49.243 81.4173 50.0576C81.4173 50.8789 80.6442 51.2592 80.0033 51.2592H79.0078V48.8561Z" fill="white"/>
<mask id="mask0_626_8031" style="mask-type:luminance" maskUnits="userSpaceOnUse" x="35" y="18" width="111" height="41">
<path fill-rule="evenodd" clip-rule="evenodd" d="M35 58.9717H145.663V18H35V58.9717Z" fill="white"/>
</mask>
<g mask="url(#mask0_626_8031)">
<path fill-rule="evenodd" clip-rule="evenodd" d="M82.2344 51.2592H82.7094V48.8562H82.2344V51.2592Z" fill="white"/>
<path fill-rule="evenodd" clip-rule="evenodd" d="M85.1382 50.343L84.7273 49.3655L84.3086 50.343H85.1382ZM84.5343 48.8562H84.9454L86.0955 51.2593H85.5524L85.3035 50.7094H84.1459L83.9046 51.2593H83.373L84.5343 48.8562Z" fill="white"/>
<path fill-rule="evenodd" clip-rule="evenodd" d="M86.9706 49.2432H86.1523V48.8562H88.264V49.2432H87.4457V51.2593H86.9706V49.2432Z" fill="white"/>
<path fill-rule="evenodd" clip-rule="evenodd" d="M89.8098 49.8743C90.0775 49.8743 90.3906 49.8541 90.3906 49.5418C90.3906 49.2567 90.0964 49.2226 89.8513 49.2226H89.4404V49.8743H89.8098ZM88.9648 48.8562H89.8925C90.4054 48.8562 90.888 49.0055 90.888 49.5451C90.888 49.8915 90.6655 50.1459 90.2697 50.1968L90.9785 51.2592H90.4054L89.7869 50.2411H89.4401V51.2592H88.9648V48.8562Z" fill="white"/>
<path fill-rule="evenodd" clip-rule="evenodd" d="M91.7051 51.2592H92.1801V48.8562H91.7051V51.2592Z" fill="white"/>
<path fill-rule="evenodd" clip-rule="evenodd" d="M94.9748 49.4197C94.7787 49.2329 94.5977 49.182 94.413 49.182C93.8624 49.182 93.4967 49.5621 93.4967 50.0407C93.4967 50.5533 93.8624 50.9334 94.413 50.9334C94.6279 50.9334 94.8354 50.8452 95.0125 50.6416L95.4047 50.8928C95.1634 51.1913 94.8013 51.3204 94.4091 51.3204C93.5872 51.3204 92.999 50.8179 92.999 50.0678C92.999 49.2973 93.5872 48.795 94.4091 48.795C94.7712 48.795 95.0803 48.9004 95.3442 49.1751L94.9748 49.4197Z" fill="white"/>
<path fill-rule="evenodd" clip-rule="evenodd" d="M98.4397 49.8743C98.7074 49.8743 99.0205 49.8541 99.0205 49.5418C99.0205 49.2567 98.7262 49.2226 98.4812 49.2226H98.0702V49.8743H98.4397ZM97.5947 48.8562H98.5224C99.0353 48.8562 99.5179 49.0055 99.5179 49.5451C99.5179 49.8915 99.2954 50.1459 98.8995 50.1968L99.6083 51.2592H99.0353L98.4168 50.2411H98.0699V51.2592H97.5947V48.8562Z" fill="white"/>
<path fill-rule="evenodd" clip-rule="evenodd" d="M100.347 48.8562H102.115V49.2432H100.822V49.8337H102.047V50.2207H100.822V50.8724H102.183V51.2592H100.347V48.8562Z" fill="white"/>
<path fill-rule="evenodd" clip-rule="evenodd" d="M104.336 49.3722C104.234 49.2431 104.053 49.1821 103.868 49.1821C103.65 49.1821 103.431 49.2702 103.431 49.4908C103.431 49.9728 104.698 49.698 104.698 50.5534C104.698 51.0691 104.246 51.3203 103.722 51.3203C103.39 51.3203 103.065 51.2286 102.847 50.9945L103.205 50.6823C103.322 50.8417 103.522 50.9334 103.733 50.9334C103.952 50.9334 104.2 50.8249 104.2 50.6042C104.2 50.0781 102.933 50.3802 102.933 49.5214C102.933 49.0258 103.424 48.7952 103.918 48.7952C104.197 48.7952 104.476 48.8665 104.683 49.0428L104.336 49.3722Z" fill="white"/>
<path fill-rule="evenodd" clip-rule="evenodd" d="M105.568 48.8562H107.337V49.2432H106.043V49.8337H107.269V50.2207H106.043V50.8724H107.405V51.2592H105.568V48.8562Z" fill="white"/>
<path fill-rule="evenodd" clip-rule="evenodd" d="M109.715 50.3429L109.304 49.3654L108.886 50.3429H109.715ZM109.112 48.8562H109.523L110.673 51.2593H110.13L109.881 50.7094H108.723L108.482 51.2593H107.95L109.112 48.8562Z" fill="white"/>
<path fill-rule="evenodd" clip-rule="evenodd" d="M112.194 49.8743C112.461 49.8743 112.774 49.8541 112.774 49.5418C112.774 49.2567 112.48 49.2226 112.235 49.2226H111.824V49.8743H112.194ZM111.349 48.8562H112.276C112.789 48.8562 113.272 49.0055 113.272 49.5451C113.272 49.8915 113.049 50.1459 112.653 50.1968L113.362 51.2592H112.789L112.171 50.2411H111.824V51.2592H111.349V48.8562Z" fill="white"/>
<path fill-rule="evenodd" clip-rule="evenodd" d="M115.933 49.4197C115.737 49.2329 115.556 49.182 115.371 49.182C114.82 49.182 114.455 49.5621 114.455 50.0407C114.455 50.5533 114.82 50.9334 115.371 50.9334C115.586 50.9334 115.793 50.8452 115.97 50.6416L116.363 50.8928C116.121 51.1913 115.759 51.3204 115.367 51.3204C114.545 51.3204 113.957 50.8179 113.957 50.0678C113.957 49.2973 114.545 48.795 115.367 48.795C115.729 48.795 116.038 48.9004 116.302 49.1751L115.933 49.4197Z" fill="white"/>
<path fill-rule="evenodd" clip-rule="evenodd" d="M117.06 48.8562H117.535V49.8133H118.783V48.8562H119.258V51.2592H118.783V50.2003H117.535V51.2592H117.06V48.8562Z" fill="white"/>
<path fill-rule="evenodd" clip-rule="evenodd" d="M122.485 49.898C122.756 49.898 123.107 49.8845 123.107 49.5587C123.107 49.2635 122.794 49.2227 122.538 49.2227H122.198V49.898H122.485ZM121.724 48.8561H122.621C123.138 48.8561 123.605 49.0189 123.605 49.5518C123.605 50.1561 123.104 50.2648 122.538 50.2648H122.199V51.2591H121.724V48.8561Z" fill="white"/>
<path fill-rule="evenodd" clip-rule="evenodd" d="M125.248 49.8743C125.516 49.8743 125.829 49.8541 125.829 49.5418C125.829 49.2567 125.535 49.2226 125.29 49.2226H124.879V49.8743H125.248ZM124.403 48.8562H125.331C125.844 48.8562 126.326 49.0055 126.326 49.5451C126.326 49.8915 126.104 50.1459 125.708 50.1968L126.417 51.2592H125.844L125.225 50.2411H124.879V51.2592H124.403V48.8562Z" fill="white"/>
<path fill-rule="evenodd" clip-rule="evenodd" d="M128.426 50.9333C128.98 50.9333 129.346 50.5532 129.346 50.0406C129.346 49.562 128.98 49.1819 128.426 49.1819C127.875 49.1819 127.51 49.562 127.51 50.0406C127.51 50.5532 127.875 50.9333 128.426 50.9333ZM128.423 48.7949C129.256 48.7814 129.844 49.2837 129.844 50.0542C129.844 50.8043 129.256 51.3067 128.423 51.3203C127.601 51.3203 127.013 50.8178 127.013 50.0677C127.013 49.2972 127.601 48.7949 128.423 48.7949Z" fill="white"/>
<path fill-rule="evenodd" clip-rule="evenodd" d="M133.045 51.0827C132.721 51.2388 132.351 51.3204 131.94 51.3204C131.119 51.3204 130.53 50.8179 130.53 50.0678C130.53 49.2973 131.119 48.795 131.94 48.795C132.348 48.795 132.713 48.873 132.993 49.0972L132.642 49.4161C132.472 49.2668 132.212 49.182 131.944 49.182C131.394 49.182 131.028 49.5621 131.028 50.0407C131.028 50.5533 131.394 50.9334 131.944 50.9334C132.186 50.9334 132.404 50.8928 132.57 50.8078V50.2411H132.023V49.8541H133.045V51.0827Z" fill="white"/>
<path fill-rule="evenodd" clip-rule="evenodd" d="M134.828 49.8743C135.096 49.8743 135.409 49.8541 135.409 49.5418C135.409 49.2567 135.115 49.2226 134.87 49.2226H134.459V49.8743H134.828ZM133.983 48.8562H134.911C135.424 48.8562 135.907 49.0055 135.907 49.5451C135.907 49.8915 135.684 50.1459 135.288 50.1968L135.997 51.2592H135.424L134.805 50.2411H134.459V51.2592H133.983V48.8562Z" fill="white"/>
<path fill-rule="evenodd" clip-rule="evenodd" d="M138.203 50.3429L137.792 49.3654L137.373 50.3429H138.203ZM137.599 48.8562H138.01L139.16 51.2593H138.617L138.368 50.7094H137.211L136.969 51.2593H136.438L137.599 48.8562Z" fill="white"/>
<path fill-rule="evenodd" clip-rule="evenodd" d="M139.846 48.8562H140.57L141.282 50.5396L142.002 48.8562H142.719V51.2592H142.266V49.2636H142.259L141.448 51.2592H141.116L140.306 49.2636H140.298V51.2592H139.846V48.8562Z" fill="white"/>
<path fill-rule="evenodd" clip-rule="evenodd" d="M82.3436 32.2157C81.822 32.8176 81.3736 33.2659 80.9994 33.56C80.852 33.6938 80.511 33.9281 79.9763 34.2621L78.5717 35.2051C78.0367 35.5662 77.6252 35.8772 77.3378 36.1381C77.0501 36.3989 76.8996 36.5694 76.8865 36.6498C76.8865 36.6897 76.9197 36.7499 76.9867 36.8302C77.0801 36.9641 77.2407 37.1111 77.4683 37.2715C77.6018 37.3788 77.8225 37.5325 78.1304 37.7332L78.7122 38.1544C79.3141 38.6896 80.1699 39.5458 81.2802 40.7226C82.3368 41.8461 83.1727 42.6757 83.7883 43.2104C83.895 43.3041 83.9552 43.4246 83.9687 43.5715C83.9819 43.719 83.9418 43.8459 83.8484 43.9528C83.7547 44.0601 83.6342 44.12 83.4872 44.1332C83.3398 44.147 83.213 44.1067 83.106 44.0129C82.4771 43.4647 81.6214 42.6086 80.5379 41.4448C79.4411 40.2812 78.605 39.4519 78.03 38.957C77.9628 38.8903 77.8024 38.7765 77.5486 38.6159L76.8263 38.1143C76.5319 37.8871 76.3112 37.6729 76.1641 37.4722C75.91 37.1648 75.803 36.8503 75.8431 36.5293C75.8832 36.1951 76.1441 35.807 76.6256 35.3655C76.9466 35.0716 77.4013 34.7304 77.9899 34.3424L79.4144 33.3994C79.9626 33.0383 80.277 32.8244 80.3574 32.7574C80.6784 32.4901 81.0727 32.0822 81.5411 31.5337C81.6345 31.4267 81.7549 31.3664 81.9022 31.353C82.0492 31.3398 82.1762 31.3799 82.2835 31.4733C82.3902 31.5671 82.4505 31.6874 82.4641 31.8344C82.4771 31.9818 82.437 32.1088 82.3436 32.2157ZM75.1813 32.8377C75.2212 33.4263 75.2445 34.0415 75.2514 34.6835C75.258 35.3255 75.2546 36.078 75.2414 36.9406C75.2279 37.8033 75.2212 38.4153 75.2212 38.7765C75.2212 39.1244 75.2279 39.6159 75.2414 40.251C75.2546 40.8865 75.2615 41.3313 75.2615 41.5853C75.2745 42.7088 75.2414 43.6653 75.1611 44.4544C75.1477 44.5879 75.0841 44.7017 74.9705 44.7955C74.8567 44.8888 74.7297 44.929 74.5894 44.9159C74.4488 44.9024 74.3316 44.8388 74.2382 44.7254C74.1445 44.6116 74.1044 44.4813 74.1177 44.3339C74.1981 43.5984 74.2314 42.6823 74.2182 41.5853C74.2182 41.3445 74.2113 40.9031 74.1981 40.2611C74.1846 39.6192 74.1781 39.1244 74.1781 38.7765C74.1781 38.4021 74.1846 37.7932 74.1981 36.9506C74.2113 36.1079 74.2147 35.3726 74.2081 34.7437C74.2012 34.1151 74.1781 33.5067 74.138 32.918C74.1244 32.771 74.1645 32.644 74.2583 32.5367C74.3517 32.43 74.4721 32.3696 74.6193 32.3561C74.7664 32.3431 74.8934 32.3832 75.0006 32.4766C75.1076 32.5703 75.1677 32.6906 75.1813 32.8377Z" fill="#1F3593"/>
<path fill-rule="evenodd" clip-rule="evenodd" d="M86.1446 32.8277C86.2449 32.928 86.2951 33.0519 86.2951 33.1989C86.2951 33.3461 86.2449 33.4697 86.1446 33.5701C86.0444 33.6703 85.9205 33.7204 85.7734 33.7204C85.6262 33.7204 85.5027 33.6703 85.4022 33.5701C85.302 33.4697 85.252 33.3461 85.252 33.1989C85.252 33.0519 85.302 32.928 85.4022 32.8277C85.5027 32.7275 85.6262 32.6772 85.7734 32.6772C85.9205 32.6772 86.0444 32.7275 86.1446 32.8277ZM86.5564 36.4089C86.5429 36.5966 86.4627 37.6364 86.3156 39.5289C86.1682 41.4217 86.0951 42.8629 86.0951 43.8526C86.0951 43.9998 86.0449 44.1234 85.9446 44.2238C85.8442 44.324 85.7203 44.3743 85.5734 44.3743C85.426 44.3743 85.3025 44.324 85.2022 44.2238C85.1018 44.1234 85.0518 43.9998 85.0518 43.8526C85.0518 43.1171 85.0783 42.3277 85.132 41.4851C85.1853 40.6425 85.2555 39.7164 85.3426 38.7063C85.4295 37.6966 85.4862 36.904 85.5131 36.3287C85.5263 36.1952 85.5864 36.078 85.6937 35.9776C85.8007 35.8773 85.9244 35.8341 86.0649 35.8473C86.2054 35.8607 86.3257 35.9208 86.426 36.0278C86.5264 36.135 86.5696 36.262 86.5564 36.4089Z" fill="#1F3593"/>
<path fill-rule="evenodd" clip-rule="evenodd" d="M95.2026 43.5116C95.2292 43.4581 95.2559 43.3911 95.283 43.3109C95.3361 43.1505 95.3832 42.9229 95.4233 42.6288C95.5035 42.1206 95.5501 41.4118 95.5637 40.502C95.5904 39.3251 95.5704 38.0676 95.5035 36.7301C95.5035 36.6231 95.4967 36.5093 95.4835 36.389C95.3897 36.4692 95.2759 36.5028 95.1423 36.4893C93.4704 36.3824 92.3068 36.4225 91.6514 36.6098C91.3706 36.69 91.1263 36.854 90.9192 37.1013C90.7116 37.3489 90.4878 37.6932 90.247 38.1345C89.8992 38.7365 89.7355 39.4185 89.7555 40.181C89.7756 40.9434 90.0063 41.5586 90.4477 42.0268C90.5812 42.174 90.8791 42.3648 91.3406 42.5987C91.8019 42.8328 92.3136 43.0369 92.8752 43.2105C93.4637 43.4112 93.9787 43.5316 94.4203 43.5717C94.8079 43.6118 95.0688 43.5918 95.2026 43.5116ZM96.3865 31.8948C96.4267 32.4165 96.4598 33.2259 96.4869 34.3225C96.5135 35.6066 96.5337 36.3959 96.547 36.69C96.6137 38.0676 96.6339 39.3452 96.6072 40.5222C96.5937 41.4719 96.5402 42.221 96.4468 42.7692C96.4065 43.1171 96.3464 43.4112 96.2662 43.6519C96.1589 43.9729 96.0185 44.2007 95.8448 44.3342C95.5104 44.588 95.0021 44.6817 94.3201 44.6149C93.7984 44.5614 93.2096 44.4279 92.5546 44.2139C91.9392 44.0132 91.3639 43.7793 90.8292 43.5116C90.2939 43.2441 89.9127 42.9898 89.6855 42.7491C89.2572 42.2945 88.9733 41.7528 88.8329 41.1239C88.6924 40.4953 88.6724 39.8871 88.7726 39.2982C88.8729 38.7097 89.0567 38.1615 89.3244 37.6529C89.4579 37.3991 89.5717 37.1984 89.6655 37.051C89.7588 36.904 89.8893 36.7201 90.0567 36.4994C90.2238 36.2787 90.4178 36.095 90.6385 35.9476C90.8592 35.8005 91.1031 35.6868 91.3708 35.6066C92.1332 35.3793 93.4171 35.3257 95.2229 35.4461C95.3163 35.4595 95.3966 35.4861 95.4636 35.5263V34.9245V34.3425C95.4366 33.3794 95.3966 32.6039 95.3432 32.0153C95.3298 31.8683 95.3699 31.7378 95.4636 31.624C95.557 31.5104 95.6743 31.4468 95.8146 31.4335C95.9553 31.4203 96.0821 31.4604 96.1959 31.5538C96.3094 31.6475 96.3731 31.7613 96.3865 31.8948Z" fill="#1F3593"/>
<path fill-rule="evenodd" clip-rule="evenodd" d="M103.689 37.4723C102.873 37.098 102.204 36.8704 101.683 36.7902C100.96 36.6968 100.452 36.8638 100.158 37.2917C100.078 37.399 100.037 37.4824 100.037 37.5426C100.037 37.6029 100.064 37.693 100.118 37.8133C100.185 37.9338 100.265 38.0543 100.358 38.1746C100.452 38.2951 100.536 38.3953 100.609 38.4755C100.683 38.5557 100.807 38.656 100.981 38.7764L101.322 39.0373L101.763 39.3181C101.99 39.4787 102.137 39.579 102.204 39.6191C102.566 39.86 102.863 40.0806 103.097 40.2813C103.331 40.4819 103.569 40.7662 103.809 41.1338C104.05 41.5019 104.204 41.8997 104.271 42.3276C104.338 42.8092 104.123 43.2174 103.629 43.5515C103.308 43.7658 102.873 43.9395 102.325 44.0732C101.87 44.1937 101.399 44.2737 100.91 44.314C100.422 44.3541 100.051 44.3541 99.7969 44.314C99.5827 44.2607 99.1949 44.1133 98.6331 43.8727C98.4993 43.8059 98.4055 43.7054 98.3522 43.5716C98.2987 43.4381 98.302 43.3077 98.3623 43.1805C98.4225 43.0534 98.5193 42.9631 98.6531 42.9096C98.7868 42.8561 98.9141 42.8561 99.0344 42.9096C99.5292 43.1238 99.8502 43.2441 99.9974 43.2707C100.171 43.3108 100.462 43.3142 100.87 43.2808C101.278 43.2474 101.676 43.1773 102.064 43.07C102.492 42.9631 102.82 42.8362 103.047 42.6887C103.181 42.5955 103.241 42.5283 103.228 42.4882C103.161 42.0738 103 41.7158 102.746 41.4149C102.492 41.1138 102.117 40.8029 101.623 40.4819C101.569 40.4417 101.435 40.3515 101.221 40.2108C101.007 40.0705 100.85 39.9702 100.75 39.9101C100.65 39.8499 100.506 39.7464 100.319 39.599C100.131 39.452 99.984 39.3216 99.8771 39.2078C99.7698 39.0943 99.6495 38.954 99.5158 38.7866C99.382 38.6193 99.2752 38.4555 99.1949 38.2951C99.0476 38.001 98.9808 37.7265 98.9942 37.4723C99.0209 37.2185 99.1278 36.9577 99.3153 36.6898C99.8502 35.9144 100.686 35.6064 101.823 35.767C102.452 35.8472 103.221 36.0948 104.131 36.5092C104.264 36.5764 104.354 36.6766 104.401 36.8103C104.448 36.944 104.442 37.078 104.381 37.2115C104.321 37.3453 104.224 37.4356 104.09 37.4824C103.957 37.5294 103.823 37.5259 103.689 37.4723" fill="#1F3593"/>
<path fill-rule="evenodd" clip-rule="evenodd" d="M111.574 30.7914C112.001 30.7782 112.737 30.7848 113.78 30.8114C114.69 30.8383 115.406 30.8315 115.927 30.7914C116.074 30.7782 116.201 30.8183 116.309 30.9118C116.415 31.0056 116.475 31.1259 116.489 31.2729C116.502 31.4203 116.462 31.5473 116.369 31.654C116.275 31.7613 116.154 31.8215 116.007 31.8347C115.432 31.8748 114.676 31.8816 113.74 31.8547C112.724 31.8282 112.015 31.8215 111.614 31.8347H111.493V31.8547C111.493 32.6842 111.433 33.7607 111.313 35.0849L111.212 36.0881C111.68 36.2888 112.112 36.4526 112.507 36.5796C112.901 36.7069 113.322 36.8104 113.77 36.8906C114.219 36.9708 114.653 36.9943 115.075 36.9607C115.496 36.9277 115.894 36.8373 116.268 36.69C116.402 36.6367 116.536 36.6367 116.669 36.69C116.803 36.7436 116.897 36.8373 116.951 36.9708C117.004 37.1047 117.004 37.2385 116.951 37.372C116.897 37.506 116.803 37.5998 116.669 37.6531C115.198 38.2417 113.352 38.0878 111.132 37.1916C111.092 37.5528 111.065 37.9007 111.052 38.2349C111.025 38.8237 111.038 39.5927 111.092 40.5422C111.172 41.7192 111.212 42.5219 111.212 42.9498C111.212 43.0972 111.162 43.2206 111.062 43.321C110.962 43.4213 110.838 43.4715 110.691 43.4715C110.543 43.4715 110.42 43.4213 110.32 43.321C110.219 43.2206 110.169 43.0972 110.169 42.9498C110.169 42.5485 110.129 41.773 110.049 40.6224C109.995 39.606 109.982 38.7966 110.009 38.1948C110.035 37.7132 110.122 36.6432 110.269 34.9847C110.39 33.6337 110.45 32.5906 110.45 31.8547C110.45 31.7077 110.5 31.584 110.601 31.4835C110.701 31.3833 110.824 31.3331 110.972 31.3331H111.072C111.072 31.186 111.119 31.059 111.212 30.9519C111.306 30.845 111.426 30.7914 111.574 30.7914" fill="#1F3593"/>
<path fill-rule="evenodd" clip-rule="evenodd" d="M119.167 32.8277C119.268 32.928 119.318 33.0519 119.318 33.1989C119.318 33.3461 119.268 33.4697 119.167 33.5701C119.067 33.6703 118.943 33.7204 118.796 33.7204C118.649 33.7204 118.525 33.6703 118.425 33.5701C118.325 33.4697 118.274 33.3461 118.274 33.1989C118.274 33.0519 118.325 32.928 118.425 32.8277C118.525 32.7275 118.649 32.6772 118.796 32.6772C118.943 32.6772 119.067 32.7275 119.167 32.8277ZM119.579 36.4089C119.565 36.5966 119.485 37.6364 119.338 39.5289C119.191 41.4217 119.118 42.8629 119.118 43.8526C119.118 43.9998 119.067 44.1234 118.967 44.2238C118.867 44.324 118.743 44.3743 118.596 44.3743C118.449 44.3743 118.325 44.324 118.225 44.2238C118.124 44.1234 118.074 43.9998 118.074 43.8526C118.074 43.1171 118.101 42.3277 118.155 41.4851C118.208 40.6425 118.278 39.7164 118.365 38.7063C118.452 37.6966 118.509 36.904 118.536 36.3287C118.549 36.1952 118.609 36.078 118.716 35.9776C118.823 35.8773 118.947 35.8341 119.088 35.8473C119.228 35.8607 119.348 35.9208 119.449 36.0278C119.549 36.135 119.592 36.262 119.579 36.4089Z" fill="#1F3593"/>
<path fill-rule="evenodd" clip-rule="evenodd" d="M123.372 38.0542C123.88 36.9708 124.515 36.3357 125.278 36.148C126.08 35.9475 126.923 36.2685 127.806 37.1112C127.913 37.2184 127.966 37.342 127.966 37.4823C127.966 37.6227 127.916 37.7466 127.816 37.8535C127.715 37.9608 127.595 38.0141 127.454 38.0141C127.314 38.0141 127.19 37.9673 127.083 37.8736C126.468 37.2853 125.946 37.0443 125.518 37.1513C125.09 37.2585 124.696 37.7067 124.335 38.4955C124.268 38.6293 124.167 38.7198 124.034 38.7664C123.9 38.8136 123.766 38.81 123.633 38.7565C123.472 38.6761 123.372 38.5493 123.332 38.3752C123.251 40.9432 123.452 43.4247 123.933 45.8187C123.974 45.9522 123.954 46.0795 123.873 46.1998C123.793 46.3201 123.683 46.3971 123.542 46.4307C123.402 46.4638 123.271 46.4408 123.151 46.3604C123.031 46.2802 122.957 46.1664 122.93 46.0194C122.275 42.8629 122.114 39.5323 122.449 36.0277C122.462 35.8942 122.526 35.7805 122.639 35.6867C122.753 35.5933 122.88 35.5532 123.021 35.5662C123.161 35.5798 123.278 35.6435 123.372 35.757C123.465 35.8708 123.505 36.0012 123.492 36.148C123.425 36.9376 123.378 37.5997 123.352 38.1344C123.365 38.1077 123.372 38.0811 123.372 38.0542" fill="#1F3593"/>
<path fill-rule="evenodd" clip-rule="evenodd" d="M133.844 37.4723C133.028 37.098 132.36 36.8704 131.838 36.7902C131.116 36.6968 130.607 36.8638 130.313 37.2917C130.233 37.399 130.193 37.4824 130.193 37.5426C130.193 37.6029 130.219 37.693 130.273 37.8133C130.34 37.9338 130.42 38.0543 130.514 38.1746C130.607 38.2951 130.691 38.3953 130.765 38.4755C130.838 38.5557 130.962 38.656 131.136 38.7764L131.477 39.0373L131.918 39.3181C132.146 39.4787 132.293 39.579 132.36 39.6191C132.721 39.86 133.018 40.0806 133.252 40.2813C133.486 40.4819 133.724 40.7662 133.965 41.1338C134.205 41.5019 134.359 41.8997 134.426 42.3276C134.493 42.8092 134.279 43.2174 133.784 43.5515C133.463 43.7658 133.028 43.9395 132.48 44.0732C132.025 44.1937 131.554 44.2737 131.066 44.314C130.577 44.3541 130.206 44.3541 129.952 44.314C129.738 44.2607 129.35 44.1133 128.788 43.8727C128.655 43.8059 128.561 43.7054 128.507 43.5716C128.454 43.4381 128.457 43.3077 128.518 43.1805C128.578 43.0534 128.675 42.9631 128.808 42.9096C128.942 42.8561 129.069 42.8561 129.19 42.9096C129.684 43.1238 130.005 43.2441 130.153 43.2707C130.326 43.3108 130.617 43.3142 131.025 43.2808C131.433 43.2474 131.831 43.1773 132.219 43.07C132.647 42.9631 132.975 42.8362 133.202 42.6887C133.336 42.5955 133.396 42.5283 133.383 42.4882C133.316 42.0738 133.155 41.7158 132.901 41.4149C132.647 41.1138 132.273 40.8029 131.778 40.4819C131.724 40.4417 131.59 40.3515 131.377 40.2108C131.163 40.0705 131.005 39.9702 130.905 39.9101C130.805 39.8499 130.661 39.7464 130.474 39.599C130.286 39.452 130.139 39.3216 130.032 39.2078C129.925 39.0943 129.805 38.954 129.671 38.7866C129.537 38.6193 129.43 38.4555 129.35 38.2951C129.203 38.001 129.136 37.7265 129.149 37.4723C129.176 37.2185 129.283 36.9577 129.471 36.6898C130.005 35.9144 130.842 35.6064 131.978 35.767C132.607 35.8472 133.376 36.0948 134.286 36.5092C134.419 36.5764 134.51 36.6766 134.557 36.8103C134.603 36.944 134.597 37.078 134.537 37.2115C134.476 37.3453 134.379 37.4356 134.246 37.4824C134.112 37.5294 133.978 37.5259 133.844 37.4723" fill="#1F3593"/>
<path fill-rule="evenodd" clip-rule="evenodd" d="M137.996 37.0711C137.822 37.0711 137.675 37.0644 137.555 37.051C137.341 37.051 137.167 37.031 137.033 36.9909C136.94 36.9777 136.859 36.9506 136.793 36.9105C136.632 36.8303 136.525 36.7168 136.472 36.5695C136.392 36.3155 136.445 36.1014 136.632 35.9275C136.699 35.8471 136.793 35.7839 136.913 35.7368C137.033 35.6901 137.1 35.6667 137.114 35.6667C137.742 35.1987 138.27 34.8976 138.699 34.7637C138.832 34.7236 138.963 34.7372 139.09 34.804C139.217 34.871 139.304 34.9712 139.351 35.1047C139.398 35.2388 139.387 35.3692 139.321 35.4962C139.254 35.6233 139.153 35.7136 139.02 35.7669C138.819 35.8341 138.625 35.9143 138.438 36.0077H138.799L140.123 35.9073C140.631 35.8673 140.912 35.8471 140.966 35.8471C141.113 35.8471 141.24 35.8943 141.347 35.9876C141.454 36.0814 141.507 36.2017 141.507 36.3487C141.507 36.4961 141.461 36.6231 141.367 36.73C141.273 36.8371 141.153 36.8904 141.006 36.8904C140.939 36.8904 140.675 36.9105 140.213 36.9506C139.752 36.9909 139.361 37.0178 139.04 37.031C138.933 38.8903 138.96 40.3885 139.12 41.5252C139.254 42.4616 139.461 43.0634 139.742 43.3309C139.822 43.4111 139.922 43.4447 140.043 43.4312C140.257 43.4046 140.517 43.2574 140.825 42.9897C140.932 42.8963 141.059 42.8561 141.207 42.8692C141.354 42.883 141.474 42.9429 141.568 43.0499C141.661 43.1572 141.701 43.2841 141.688 43.4312C141.675 43.5786 141.614 43.6989 141.507 43.7923C141.039 44.1936 140.598 44.4212 140.183 44.4745C139.728 44.5278 139.334 44.3943 139 44.0731C138.558 43.6454 138.257 42.8427 138.097 41.6655C137.923 40.4485 137.889 38.9169 137.996 37.0711" fill="#1F3593"/>
<path fill-rule="evenodd" clip-rule="evenodd" d="M63.0074 29.1082C58.7679 31.5419 52.3658 30.464 48.7235 27.4982C46.9763 26.0757 47.3024 26.0402 49.174 25.5753C50.79 25.1736 51.7441 24.8613 53.6461 26.296C54.7765 27.1486 55.9296 27.7767 56.9884 28.0353C59.5065 28.65 61.4075 28.5976 63.1379 27.9616C66.4527 26.7426 66.5512 27.0741 63.0074 29.1082" fill="#A82292"/>
<path fill-rule="evenodd" clip-rule="evenodd" d="M57.4503 22.7266C58.3847 24.6972 60.5 26.421 62.7561 26.5102C64.4033 26.5753 65.4384 26.1373 62.8209 27.0995C61.2641 27.6717 59.5292 27.7127 57.2042 27.1453C56.3312 26.9321 55.3727 26.425 54.4146 25.7282C52.0944 24.0421 54.2538 23.4513 55.9321 22.0487C57.5406 20.7039 56.584 20.8993 57.4503 22.7266" fill="#00AEF1"/>
<path fill-rule="evenodd" clip-rule="evenodd" d="M49.811 18.502C51.6444 19.2675 53.2242 19.5712 54.9717 19.692C56.5965 19.8042 56.9178 19.627 55.6644 21.1456C55.0838 21.8489 54.3724 22.4427 53.5778 22.9393C51.6641 24.1357 49.9725 21.7308 48.997 19.6337C48.0754 17.6525 47.982 17.7384 49.811 18.502" fill="#DE1829"/>
<path fill-rule="evenodd" clip-rule="evenodd" d="M47.7619 23.1867C47.886 22.443 47.9811 21.6132 48.0113 20.7612C48.0599 19.3967 47.8476 19.3789 48.5874 20.5809C48.9876 21.2305 49.4731 21.9383 49.9042 22.5186C50.6283 23.4935 51.1734 24.1373 49.9928 24.4669C49.5987 24.5769 49.2008 24.6736 48.8022 24.7575C46.8734 25.1639 47.4792 24.8814 47.7619 23.1867" fill="#FF9300"/>
<path fill-rule="evenodd" clip-rule="evenodd" d="M80.4901 56.4356C80.4485 55.6209 79.9965 55.1272 79.1104 55.1272H78.1946V58.3565H79.1104C79.9906 58.3565 80.4425 57.8688 80.4901 57.0541C80.5021 56.834 80.5021 56.6318 80.4901 56.4356ZM78.1175 58.8261C77.8616 58.8261 77.707 58.6539 77.707 58.4219V55.0616C77.707 54.8239 77.8616 54.6573 78.1175 54.6573H79.1106C79.6934 54.6573 80.1395 54.8179 80.4546 55.1389C80.7698 55.4602 80.9484 55.8883 80.978 56.4177C80.99 56.6435 80.99 56.8578 80.978 57.066C80.9484 57.5953 80.7698 58.0234 80.4546 58.3448C80.1395 58.6657 79.6934 58.8261 79.1106 58.8261H78.1175Z" fill="#1F3593"/>
<path fill-rule="evenodd" clip-rule="evenodd" d="M83.768 58.2254V57.4464C83.4288 57.3572 83.1495 57.3154 82.9413 57.3154C82.519 57.3154 82.2217 57.5236 82.2217 57.8566C82.2217 58.2494 82.4774 58.4455 82.9829 58.4455C83.4052 58.4455 83.6727 58.3207 83.768 58.2254ZM84.2428 58.3505C84.2428 58.4396 84.2072 58.5052 84.1417 58.5467C84.0408 58.624 83.8742 58.6953 83.6482 58.7727C83.428 58.844 83.1843 58.8797 82.9284 58.8797C82.1673 58.8797 81.7393 58.4812 81.7393 57.8687C81.7393 57.3155 82.1673 56.9053 82.9346 56.9053C83.1783 56.9053 83.4578 56.9469 83.7671 57.03V56.7865C83.7671 56.3106 83.5292 56.1024 83.0237 56.1024C82.8275 56.1024 82.5896 56.1559 82.3159 56.2572C82.1257 56.3284 81.9711 56.2333 81.9711 56.0726C81.9711 55.9718 82.0246 55.8942 82.1257 55.8465C82.3874 55.7218 82.7025 55.6565 83.0713 55.6565C83.8087 55.6565 84.2428 56.0133 84.2428 56.7685V58.3505Z" fill="#1F3593"/>
<path fill-rule="evenodd" clip-rule="evenodd" d="M86.1521 58.8797C85.5397 58.8797 85.2363 58.4872 85.2363 57.8984V55.3115C85.2363 55.1746 85.3374 55.0675 85.4742 55.0675C85.6109 55.0675 85.7181 55.1746 85.7181 55.3115V55.7989H86.616C86.735 55.7989 86.8421 55.9 86.8421 56.0193C86.8421 56.1381 86.735 56.2393 86.616 56.2393H85.7181V57.9162C85.7181 58.2315 85.8666 58.4336 86.176 58.4336C86.2474 58.4336 86.4078 58.3979 86.6517 58.3266C86.8421 58.279 86.961 58.3859 86.961 58.5467C86.961 58.6596 86.8955 58.7371 86.7648 58.7787C86.5922 58.844 86.3842 58.8797 86.1521 58.8797" fill="#1F3593"/>
<path fill-rule="evenodd" clip-rule="evenodd" d="M89.5355 58.2254V57.4464C89.1964 57.3572 88.9171 57.3154 88.7088 57.3154C88.2866 57.3154 87.9893 57.5236 87.9893 57.8566C87.9893 58.2494 88.2449 58.4455 88.7503 58.4455C89.1727 58.4455 89.4403 58.3207 89.5355 58.2254ZM90.0116 58.3505C90.0116 58.4396 89.9759 58.5052 89.9106 58.5467C89.8093 58.624 89.6429 58.6953 89.4169 58.7727C89.1967 58.844 88.953 58.8797 88.6971 58.8797C87.9361 58.8797 87.5078 58.4812 87.5078 57.8687C87.5078 57.3155 87.9361 56.9053 88.7033 56.9053C88.947 56.9053 89.2265 56.9469 89.5358 57.03V56.7865C89.5358 56.3106 89.298 56.1024 88.7924 56.1024C88.5962 56.1024 88.3582 56.1559 88.0846 56.2572C87.8944 56.3284 87.7398 56.2333 87.7398 56.0726C87.7398 55.9718 87.7933 55.8942 87.8944 55.8465C88.1561 55.7218 88.4713 55.6565 88.8401 55.6565C89.5775 55.6565 90.0116 56.0133 90.0116 56.7685V58.3505Z" fill="#1F3593"/>
<path fill-rule="evenodd" clip-rule="evenodd" d="M93.1991 56.733H94.2695C94.8761 56.733 95.1795 56.4653 95.1795 55.936C95.1795 55.4304 94.888 55.1273 94.2991 55.1273H93.1991V56.733ZM95.548 58.8501C95.4765 58.8501 95.4171 58.8204 95.3696 58.7668L94.2514 57.3869C94.1383 57.2503 94.0668 57.1969 93.9184 57.1969H93.1988V58.6002C93.1988 58.7371 93.0799 58.8501 92.9548 58.8501C92.83 58.8501 92.7109 58.7371 92.7109 58.6002V55.0557C92.7109 54.8239 92.8597 54.6575 93.1155 54.6575H94.3289C94.7093 54.6575 95.0305 54.7704 95.2863 54.9963C95.542 55.2225 95.6729 55.5373 95.6729 55.9359C95.6729 56.62 95.2863 57.0065 94.6618 57.1077L95.7442 58.4456C95.7799 58.4873 95.7977 58.5349 95.7977 58.5944C95.7977 58.7311 95.6847 58.8501 95.548 58.8501Z" fill="#1F3593"/>
<path fill-rule="evenodd" clip-rule="evenodd" d="M98.6589 57.066C98.7063 57.066 98.7302 57.042 98.7361 56.9945C98.7658 56.4535 98.4508 56.0907 97.9333 56.0907C97.3623 56.0907 97.0589 56.4651 97.0769 57.066H98.6589ZM99.2053 57.1254C99.2053 57.3572 99.0864 57.4702 98.8545 57.4702H97.0763V57.5655C97.0763 58.1125 97.4331 58.4396 97.9623 58.4396C98.1586 58.4396 98.3968 58.386 98.6879 58.285C98.884 58.2078 99.0329 58.3267 99.0329 58.4753C99.0329 58.5644 98.9912 58.6358 98.902 58.6896C98.7117 58.8024 98.3075 58.8797 97.9565 58.8797C97.1476 58.8797 96.6483 58.3803 96.6064 57.6011C96.5886 57.3216 96.5946 57.0837 96.6124 56.8875C96.6779 56.1263 97.1953 55.6564 97.9265 55.6564C98.3133 55.6564 98.6226 55.7753 98.8545 56.0193C99.0864 56.257 99.2053 56.5664 99.2053 56.947V57.1254Z" fill="#1F3593"/>
<path fill-rule="evenodd" clip-rule="evenodd" d="M101.364 57.0897C101.894 57.2264 102.155 57.5061 102.155 57.9284C102.155 58.5052 101.697 58.8797 101.001 58.8797C100.567 58.8797 100.211 58.7667 99.943 58.5467C99.8478 58.4696 99.8299 58.3208 99.8954 58.2255C99.9845 58.1068 100.097 58.0888 100.228 58.1781C100.472 58.3625 100.656 58.4456 101.043 58.4456C101.442 58.4456 101.68 58.2374 101.68 57.9518C101.68 57.7438 101.519 57.601 101.204 57.5238C100.924 57.4583 100.781 57.4286 100.776 57.4225C100.217 57.2799 99.937 57.0004 99.937 56.5783C99.937 56.0133 100.389 55.6565 101.049 55.6565C101.394 55.6565 101.68 55.7396 101.9 55.9122C102.013 56.0013 102.007 56.1737 101.929 56.245C101.846 56.3403 101.739 56.3521 101.608 56.275C101.406 56.1559 101.215 56.0966 101.031 56.0966C100.615 56.0966 100.407 56.251 100.407 56.5603C100.407 56.7567 100.532 56.8756 100.871 56.9707L101.174 57.042L101.364 57.0897Z" fill="#1F3593"/>
<path fill-rule="evenodd" clip-rule="evenodd" d="M103.357 57.6486C103.399 58.1185 103.726 58.4278 104.202 58.4278C104.677 58.4278 105.005 58.1185 105.046 57.6486C105.064 57.3929 105.064 57.1312 105.046 56.8695C105.017 56.4174 104.695 56.1083 104.202 56.1083C103.708 56.1083 103.387 56.4174 103.357 56.8695C103.339 57.1312 103.339 57.3929 103.357 57.6486ZM105.528 57.6784C105.51 58.0294 105.373 58.3147 105.124 58.5407C104.88 58.7666 104.571 58.8797 104.202 58.8797C103.839 58.8797 103.53 58.7666 103.28 58.5407C103.03 58.3147 102.894 58.0294 102.876 57.6784C102.858 57.3989 102.858 57.1192 102.876 56.8339C102.894 56.4889 103.03 56.2094 103.274 55.9893C103.524 55.7693 103.833 55.6564 104.202 55.6564C104.571 55.6564 104.88 55.7633 105.124 55.9833C105.373 56.2034 105.51 56.4829 105.528 56.8339C105.546 57.1192 105.546 57.3989 105.528 57.6784Z" fill="#1F3593"/>
<path fill-rule="evenodd" clip-rule="evenodd" d="M106.438 55.9478C106.438 55.8109 106.539 55.6981 106.676 55.6981C106.812 55.6981 106.919 55.8109 106.919 55.9478V57.6725C106.919 58.1424 107.217 58.4219 107.716 58.4219C108.043 58.4219 108.317 58.3504 108.537 58.2017V55.9478C108.537 55.8109 108.638 55.6981 108.775 55.6981C108.912 55.6981 109.019 55.8109 109.019 55.9478V58.3268C109.019 58.4159 108.983 58.4812 108.918 58.5228C108.578 58.7609 108.174 58.8796 107.716 58.8796C106.937 58.8796 106.438 58.4337 106.438 57.6665V55.9478Z" fill="#1F3593"/>
<path fill-rule="evenodd" clip-rule="evenodd" d="M111.744 55.9478C111.744 56.0609 111.654 56.1679 111.506 56.1679C111.476 56.1679 111.404 56.1619 111.304 56.1442C111.202 56.1262 111.113 56.1202 111.036 56.1202C110.715 56.1262 110.554 56.3046 110.554 56.6556V58.6061C110.554 58.7431 110.447 58.8502 110.31 58.8502C110.173 58.8502 110.066 58.7431 110.066 58.6061V56.602C110.066 56.0133 110.417 55.6565 111.036 55.6565C111.244 55.6565 111.416 55.6801 111.553 55.7218C111.678 55.7516 111.744 55.8289 111.744 55.9478" fill="#1F3593"/>
<path fill-rule="evenodd" clip-rule="evenodd" d="M114.329 57.9222C114.377 57.8153 114.454 57.7617 114.562 57.7617C114.686 57.7617 114.788 57.8626 114.788 58.0054C114.788 58.1838 114.675 58.3743 114.448 58.5764C114.228 58.7788 113.931 58.8797 113.562 58.8797C113.188 58.8797 112.872 58.7668 112.629 58.5407C112.385 58.3089 112.248 58.0234 112.23 57.6784C112.212 57.3989 112.212 57.1132 112.23 56.8339C112.248 56.4831 112.385 56.2036 112.629 55.9835C112.878 55.7633 113.188 55.6564 113.562 55.6564C113.931 55.6564 114.223 55.7573 114.443 55.9657C114.663 56.1679 114.776 56.3581 114.776 56.5307C114.776 56.6735 114.675 56.7744 114.55 56.7744C114.443 56.7744 114.365 56.7208 114.318 56.6138C114.181 56.2807 113.895 56.1083 113.568 56.1083C113.069 56.1083 112.754 56.4058 112.712 56.8635C112.694 57.0897 112.694 57.3512 112.712 57.6486C112.754 58.1066 113.063 58.4278 113.568 58.4278C113.895 58.4278 114.193 58.2554 114.329 57.9222" fill="#1F3593"/>
<path fill-rule="evenodd" clip-rule="evenodd" d="M117.595 57.0659C117.643 57.0659 117.666 57.0419 117.672 56.9945C117.702 56.4534 117.387 56.0906 116.87 56.0906C116.299 56.0906 115.995 56.4651 116.013 57.0659H117.595ZM118.142 57.1254C118.142 57.3572 118.023 57.4702 117.791 57.4702H116.013V57.5655C116.013 58.1125 116.37 58.4396 116.899 58.4396C117.095 58.4396 117.333 58.386 117.625 58.285C117.821 58.2078 117.969 58.3267 117.969 58.4753C117.969 58.5644 117.928 58.6358 117.839 58.6896C117.648 58.8024 117.244 58.8797 116.893 58.8797C116.084 58.8797 115.585 58.3803 115.543 57.6011C115.525 57.3216 115.531 57.0837 115.549 56.8875C115.614 56.1263 116.132 55.6564 116.863 55.6564C117.25 55.6564 117.559 55.7753 117.791 56.0193C118.023 56.257 118.142 56.5664 118.142 56.947V57.1254Z" fill="#1F3593"/>
<path fill-rule="evenodd" clip-rule="evenodd" d="M123.334 57.7083C123.376 57.607 123.453 57.5535 123.56 57.5535C123.673 57.5535 123.792 57.6606 123.792 57.7854C123.792 57.8154 123.786 57.851 123.774 57.8927C123.655 58.19 123.459 58.4279 123.18 58.6121C122.9 58.7967 122.597 58.8858 122.258 58.8858C121.788 58.8858 121.395 58.7312 121.08 58.416C120.765 58.1007 120.592 57.7023 120.563 57.2264C120.539 56.8992 120.539 56.5783 120.563 56.2629C120.598 55.7874 120.771 55.3948 121.08 55.0796C121.395 54.7643 121.788 54.6039 122.258 54.6039C122.597 54.6039 122.9 54.693 123.18 54.8774C123.459 55.0556 123.655 55.2937 123.774 55.591C123.786 55.6326 123.792 55.6683 123.792 55.7041C123.792 55.8288 123.673 55.9301 123.56 55.9301C123.453 55.9301 123.376 55.8767 123.334 55.7754C123.15 55.3473 122.733 55.0736 122.258 55.0736C121.919 55.0736 121.645 55.1867 121.425 55.4126C121.205 55.6386 121.08 55.9301 121.051 56.2868C121.033 56.5901 121.033 56.8992 121.051 57.2029C121.08 57.5595 121.205 57.851 121.425 58.0767C121.645 58.3029 121.919 58.416 122.258 58.416C122.733 58.416 123.15 58.1364 123.334 57.7083" fill="#1F3593"/>
<path fill-rule="evenodd" clip-rule="evenodd" d="M126.576 57.066C126.623 57.066 126.647 57.042 126.653 56.9945C126.683 56.4535 126.368 56.0907 125.85 56.0907C125.279 56.0907 124.976 56.4651 124.994 57.066H126.576ZM127.122 57.1254C127.122 57.3572 127.003 57.4702 126.772 57.4702H124.993V57.5655C124.993 58.1125 125.35 58.4396 125.879 58.4396C126.076 58.4396 126.314 58.386 126.605 58.285C126.801 58.2078 126.95 58.3267 126.95 58.4753C126.95 58.5644 126.908 58.6358 126.819 58.6896C126.629 58.8024 126.224 58.8797 125.873 58.8797C125.065 58.8797 124.565 58.3803 124.523 57.6011C124.506 57.3216 124.511 57.0837 124.529 56.8875C124.595 56.1263 125.112 55.6564 125.844 55.6564C126.23 55.6564 126.54 55.7753 126.772 56.0193C127.003 56.257 127.122 56.5664 127.122 56.947V57.1254Z" fill="#1F3593"/>
<path fill-rule="evenodd" clip-rule="evenodd" d="M130.589 58.6C130.589 58.7429 130.494 58.8501 130.351 58.8501C130.214 58.8501 130.107 58.7429 130.107 58.6V56.8935C130.107 56.3758 129.768 56.1143 129.31 56.1143C128.983 56.1143 128.71 56.1797 128.49 56.3107V58.6C128.49 58.7429 128.389 58.8501 128.252 58.8501C128.115 58.8501 128.008 58.7429 128.008 58.6V56.1914C128.008 56.1025 128.043 56.031 128.115 55.9774C128.329 55.8169 128.775 55.6564 129.322 55.6564C130.149 55.6564 130.589 56.0845 130.589 56.8695V58.6Z" fill="#1F3593"/>
<path fill-rule="evenodd" clip-rule="evenodd" d="M132.516 58.8797C131.904 58.8797 131.601 58.4872 131.601 57.8984V55.3115C131.601 55.1746 131.702 55.0675 131.839 55.0675C131.975 55.0675 132.082 55.1746 132.082 55.3115V55.7989H132.98C133.099 55.7989 133.206 55.9 133.206 56.0193C133.206 56.1381 133.099 56.2393 132.98 56.2393H132.082V57.9162C132.082 58.2315 132.231 58.4336 132.54 58.4336C132.612 58.4336 132.772 58.3979 133.016 58.3266C133.206 58.279 133.325 58.3859 133.325 58.5467C133.325 58.6596 133.26 58.7371 133.129 58.7787C132.956 58.844 132.748 58.8797 132.516 58.8797" fill="#1F3593"/>
<path fill-rule="evenodd" clip-rule="evenodd" d="M135.994 57.066C136.041 57.066 136.065 57.042 136.071 56.9945C136.101 56.4535 135.786 56.0907 135.268 56.0907C134.697 56.0907 134.394 56.4651 134.412 57.066H135.994ZM136.541 57.1254C136.541 57.3572 136.422 57.4702 136.191 57.4702H134.412V57.5655C134.412 58.1125 134.769 58.4396 135.298 58.4396C135.495 58.4396 135.733 58.386 136.024 58.285C136.22 58.2078 136.369 58.3267 136.369 58.4753C136.369 58.5644 136.327 58.6358 136.238 58.6896C136.048 58.8024 135.643 58.8797 135.292 58.8797C134.484 58.8797 133.984 58.3803 133.942 57.6011C133.925 57.3216 133.93 57.0837 133.948 56.8875C134.014 56.1263 134.531 55.6564 135.263 55.6564C135.649 55.6564 135.959 55.7753 136.191 56.0193C136.422 56.257 136.541 56.5664 136.541 56.947V57.1254Z" fill="#1F3593"/>
<path fill-rule="evenodd" clip-rule="evenodd" d="M139.07 55.9478C139.07 56.0609 138.981 56.1679 138.832 56.1679C138.802 56.1679 138.731 56.1619 138.63 56.1442C138.528 56.1262 138.439 56.1202 138.362 56.1202C138.041 56.1262 137.88 56.3046 137.88 56.6556V58.6061C137.88 58.7431 137.773 58.8502 137.637 58.8502C137.5 58.8502 137.393 58.7431 137.393 58.6061V56.602C137.393 56.0133 137.744 55.6565 138.362 55.6565C138.57 55.6565 138.743 55.6801 138.879 55.7218C139.004 55.7516 139.07 55.8289 139.07 55.9478" fill="#1F3593"/>
</g>
</svg>
