<svg id="Layer_5" data-name="Layer 5" xmlns="http://www.w3.org/2000/svg" viewBox="0 0 200 72"><defs><style>.cls-1,.cls-17{fill:#f79123;}.cls-2{fill:#f79972;}.cls-3{fill:#d06a67;}.cls-11,.cls-4{fill:#fff;}.cls-4{opacity:0.38;}.cls-5{fill:#f15e28;}.cls-6{fill:#9e2e20;}.cls-10,.cls-7{fill:#e53b95;}.cls-8{fill:#e0e1e0;}.cls-9{fill:#009bba;}.cls-10,.cls-14,.cls-15,.cls-16,.cls-17,.cls-9{fill-rule:evenodd;}.cls-12{fill:#273c8f;}.cls-13{fill:#2d3490;}.cls-14{fill:#a72890;}.cls-15{fill:#00aceb;}.cls-16{fill:#dd1f2b;}</style></defs><title>logo-Kids-First-Data-Resource-Center-nav</title><path class="cls-1" d="M105.87,15.35a4.48,4.48,0,0,1,1-.59,3.56,3.56,0,0,1,1.11-.29,8.45,8.45,0,0,1-.89,0,3.59,3.59,0,0,0-1.52.3,5.4,5.4,0,0,0-1.29.84,3.86,3.86,0,0,0-1.13-1.11,3.16,3.16,0,0,0-2-.42,8.81,8.81,0,0,0-1.4.26,3.36,3.36,0,0,0-1.11.52,1.93,1.93,0,0,0-.21.17l-.18.17a2.48,2.48,0,0,0-.29.37,3.37,3.37,0,0,0-.52,1.54,5.73,5.73,0,0,0-1.54-.06,4.86,4.86,0,0,0-.7.12,3.89,3.89,0,0,0-.63.22l-.07,0h0l-.1,0a2.13,2.13,0,0,1-.49.15h0l-.09,0a3.34,3.34,0,0,0-1.08.45c-.35.22-.72.48-1.12.76a5.36,5.36,0,0,0-.79-1.21,3.15,3.15,0,0,0-1.54-.9h0c-.21-.06-.42-.11-.64-.15l-.33-.07-.31,0h0a3.37,3.37,0,0,0-1.91.22,3.65,3.65,0,0,0-1.29,1,3.44,3.44,0,0,0-1.45-.81,3.35,3.35,0,0,0-2.06.17,11.72,11.72,0,0,0-1.19.55A3.28,3.28,0,0,0,78.72,19a4.06,4.06,0,0,0-.44,1.53,4.37,4.37,0,0,0-1.57,0,2.85,2.85,0,0,0-.79.23,2.14,2.14,0,0,0-.4.2,3.13,3.13,0,0,0-.34.21,8,8,0,0,1-.7.45,1.81,1.81,0,0,0-.45.32,1.41,1.41,0,0,0-.24.36,2.38,2.38,0,0,1-.27.44,2.78,2.78,0,0,1-.46.44c-.13-.46-.16-.88-.32-1.28a5.21,5.21,0,0,0-1.07-1.53l-.16-.13a3.11,3.11,0,0,0-.43-.18.86.86,0,0,0-.23,0l-.19.05-.38.09-.19.07-.09,0-.09,0-.35.17-.69.32a5.42,5.42,0,0,1-.7.29,1.42,1.42,0,0,1-.73-.06,1.7,1.7,0,0,0-.76,0c-.25,0,0,.21-.25,0,.2.17,0,0,.24,0a5.78,5.78,0,0,0,.58,0c.12,0,.44.13.56.13a1.94,1.94,0,0,1,.43.11,1.49,1.49,0,0,1,.44.3,1.51,1.51,0,0,1,.29.45,2.21,2.21,0,0,1,.15.5l0,.28.06.28a1.68,1.68,0,0,0,.24.55,2.25,2.25,0,0,0,1.61.8,2.94,2.94,0,0,0,1.59-.23,2.06,2.06,0,0,0,.54.69,2.41,2.41,0,0,0,.92.46,2.8,2.8,0,0,0,1.16.06,3.54,3.54,0,0,0,1.18-.41,11.74,11.74,0,0,0,1.11-.7c.16-.12.3-.24.42-.35a4.31,4.31,0,0,0,.3-.34,3,3,0,0,0,.41-.7A4.82,4.82,0,0,0,79,21.5a6,6,0,0,0,1.51.14A3.59,3.59,0,0,0,82,21.23c.27-.14.54-.26.81-.37A3.29,3.29,0,0,0,84,20.1,10.43,10.43,0,0,0,84.93,19,8.67,8.67,0,0,0,86,20a3.36,3.36,0,0,0,1.39.56h-.08l.24,0,.11,0,.1,0,.42.09h0l.11,0h-.06a3.65,3.65,0,0,0,1.61,0,4.38,4.38,0,0,0,1.5-.62,3,3,0,0,0,1.22,1.25,3.29,3.29,0,0,0,2.3.26,8.18,8.18,0,0,0,1.44-.5,3.57,3.57,0,0,0,1-.68,2.85,2.85,0,0,0,.56-.76,3.91,3.91,0,0,0,.35-1.51,9.89,9.89,0,0,0,1.43.21h.64a2,2,0,0,0,.58-.09,6.15,6.15,0,0,1,.69-.12,3.41,3.41,0,0,0,1.33-.4,6.46,6.46,0,0,0,1.22-.86A4.33,4.33,0,0,0,105.2,18a3.3,3.3,0,0,0,1.85.54,12.41,12.41,0,0,0,1.35-.06,3.37,3.37,0,0,1-1.65-.21,2.94,2.94,0,0,1-1.09-.73l-.4-.46c-.19-.24-.36-.51-.53-.77l.68-.62h0ZM72.38,22a3.17,3.17,0,0,1,.12.76c0,.26,0,.61-.16.81a4.41,4.41,0,0,1-1.59.38,1.59,1.59,0,0,1-1-.42,1.45,1.45,0,0,1-.24-.44,2.58,2.58,0,0,1-.08-.26l-.06-.27a2.25,2.25,0,0,0-.21-.53,1.59,1.59,0,0,0-.36-.45,1.25,1.25,0,0,0-.49-.27,1.23,1.23,0,0,0-.32-.07,1.31,1.31,0,0,0,.27-.06,6.39,6.39,0,0,0,.74-.24l.7-.29.36-.14.09,0,.08,0,.17-.05.37-.07.18,0h.15c.69.1,1,.94,1,1S72.3,21.76,72.38,22Zm5.78.16-.07.59a3.39,3.39,0,0,1-.13.55l-.09.27-.06.13c0,.05,0,.1-.07.14s-.29.41-.29.42a3.69,3.69,0,0,1-.44.45,3.41,3.41,0,0,1-.5.19L76,25a3,3,0,0,1-1.35-.13l-.59-.31a2.34,2.34,0,0,1-.71-.77,2.65,2.65,0,0,0,.38-.46c.1-.24.36-.73.36-.73a4,4,0,0,1,.34-.76s.2-.24.18-.26a1.12,1.12,0,0,1,.25-.22,2.44,2.44,0,0,1,.79-.24l.28-.05.29,0a3.62,3.62,0,0,1,.57,0l.6.07.82.17C78.2,21.6,78.19,21.88,78.16,22.16Zm5.39-2.44c-.18.29-.85,1.06-.85,1.06a3.15,3.15,0,0,1-.29.22,2.17,2.17,0,0,1-.43.08l-.39,0a5.29,5.29,0,0,1-1-.09l-1.45-.35c0-.3.25-1.51.25-1.51a3.1,3.1,0,0,1,1.39-1.78,4.23,4.23,0,0,1,1-.16,3.5,3.5,0,0,1,2.56,1.19C84.16,18.69,83.55,19.72,83.55,19.72ZM91,19.34c-.24.16-.49.32-.75.46a4.85,4.85,0,0,1-1.91.7,2.59,2.59,0,0,1-.48,0l-.14-.06-.07,0-.4-.23a4.28,4.28,0,0,1-.72-.62l-.37-.41c-.23-.28-.45-.56-.7-.84a9,9,0,0,1,1.42-1.28,6.07,6.07,0,0,1,1.29-.39,1.26,1.26,0,0,1,.26,0h.28c.2.07.58.26.6.27a2.83,2.83,0,0,1,.38.27,8.82,8.82,0,0,1,.82.94C90.58,18.3,90.87,19.11,91,19.34ZM97.33,19h0a1.11,1.11,0,0,1,0,.17,1.3,1.3,0,0,1-.11.43h0a3,3,0,0,1-1,1.4,4.38,4.38,0,0,1-.61.38,3.41,3.41,0,0,1-1.06.07,2.4,2.4,0,0,1-1.74-.81,4.59,4.59,0,0,1-.76-1c.33-.28.63-.58.9-.86l.34-.35a5.27,5.27,0,0,1,.56-.51s.35-.25.41-.28a7.76,7.76,0,0,1,1,0,6.23,6.23,0,0,1,2.19.41C97.39,18.32,97.38,18.65,97.33,19Zm5.72-2.19a5.27,5.27,0,0,1-1.27,1.08,5.43,5.43,0,0,1-.59.3c-.1,0-.61-.1-.61-.1l-.41-.12-.44-.15-.52-.17-.93-.29a5.67,5.67,0,0,1,.16-1,1.68,1.68,0,0,1,.12-.49,1.79,1.79,0,0,1,.22-.34,2.55,2.55,0,0,1,.66-.74,3.36,3.36,0,0,1,1-.53,3.2,3.2,0,0,1,1.13.14,2.79,2.79,0,0,1,1,.6,3.79,3.79,0,0,1,.51.53s.35.48.48.69Z"/><path class="cls-2" d="M96.93,18.45l-.07-.1a.49.49,0,0,1-.12.13.53.53,0,0,1-.17.08l.07.1a0,0,0,0,1,0,.05h0l.7,1c.05.06.17.05.27,0s.15-.19.1-.25l-.7-1h0A0,0,0,0,1,96.93,18.45Z"/><path class="cls-3" d="M95.83,17.62l.26.35.41.58h0l.11.15h0a0,0,0,0,0,0-.05l-.07-.1a.53.53,0,0,0,.17-.08.49.49,0,0,0,.12-.13l.07.1a0,0,0,0,0,.06,0h0l-.1-.14,0,0-.42-.59S95.91,17.61,95.83,17.62Z"/><path class="cls-4" d="M96.11,17.74l1.36,1.89h0a.13.13,0,0,1-.19,0l-1.34-1.88Z"/><path class="cls-2" d="M105.71,16.67l0-.11a.49.49,0,0,1-.17,0,.42.42,0,0,1-.19-.06v.13a0,0,0,0,1,0,0h0l0,.45.4.46.1-.85h0A0,0,0,0,1,105.71,16.67Z"/><path class="cls-3" d="M105.51,15.06l-.09.69-.09.71h0l0,.18h0a0,0,0,0,0,0,0V16.5a.42.42,0,0,0,.19.06.49.49,0,0,0,.17,0l0,.11a0,0,0,0,0,0,0h0l0-.17v0l.09-.72.09-.68c0-.07-.08-.13-.2-.15S105.52,15,105.51,15.06Z"/><path class="cls-4" d="M105.67,15l-.28,2.22-.11-.16.25-1.94a.13.13,0,0,1,.14-.12Z"/><path class="cls-2" d="M80,20.24l-.06-.1a.49.49,0,0,1-.13.12.53.53,0,0,1-.17.08l.06.09a0,0,0,0,1,0,.06h0l.66,1c0,.07.16.06.26,0s.16-.18.12-.24l-.66-1h0A0,0,0,0,1,80,20.24Z"/><path class="cls-3" d="M79.23,19.81l.35.52h0l.1.15h0a0,0,0,0,0,0-.06l-.06-.09a.53.53,0,0,0,.17-.08.49.49,0,0,0,.13-.12l.06.1a0,0,0,0,0,0,0h0L80,20.1l0,0-.39-.58-.22-.34Z"/><path class="cls-4" d="M79.28,19.61l1.26,1.88h0a.13.13,0,0,1-.18,0l-1.11-1.66Z"/><path class="cls-2" d="M86.59,18.49v-.11a.43.43,0,0,1-.16,0,.41.41,0,0,1-.19-.05v.12s0,0,0,0h0l-.1,1.19c0,.08.08.15.21.16s.23,0,.24-.11l.11-1.2h0A0,0,0,0,1,86.59,18.49Z"/><path class="cls-3" d="M86.28,17.5v.11l-.07.69h0l0,.18h0s0,0,0,0v-.12a.41.41,0,0,0,.19.05.43.43,0,0,0,.16,0v.11a0,0,0,0,0,0,0h0v-.19l.06-.7,0-.53C86.78,17,86.28,17.5,86.28,17.5Z"/><path class="cls-4" d="M86.44,17.38l-.21,2.23h0a.13.13,0,0,1-.11-.15l.18-1.94Z"/><path class="cls-2" d="M77.85,21.77l-.07-.08a.63.63,0,0,1-.11.12.4.4,0,0,1-.17.09l.07.1s0,0,0,.05h0l.55.68.07-.62-.27-.34h0S77.86,21.79,77.85,21.77Z"/><path class="cls-3" d="M76.61,20.89l.39.48.43.53v0l.11.13h0s0,0,0-.05l-.07-.1a.4.4,0,0,0,.17-.09.63.63,0,0,0,.11-.12l.07.08s0,0,.05,0h0l-.1-.13,0,0-.43-.54L77,20.6c0-.06-.16,0-.25,0S76.57,20.83,76.61,20.89Z"/><path class="cls-4" d="M76.69,20.75,78.1,22.5l0,.17-1.4-1.73a.14.14,0,0,1,0-.19Z"/><path class="cls-2" d="M83.7,18.67l0-.11-.16.07a.62.62,0,0,1-.19,0l0,.11a0,0,0,0,1,0,0h0l.23.95.33-.56-.11-.49h0A0,0,0,0,1,83.7,18.67Z"/><path class="cls-3" d="M83,17.48l.11.46.16.67h0l0,.17h0a0,0,0,0,0,0,0l0-.11a.62.62,0,0,0,.19,0l.16-.07,0,.11a0,0,0,0,0,0,0h0l0-.16v0l-.16-.67-.11-.46c0-.07-.12-.09-.24-.07S83,17.4,83,17.48Z"/><path class="cls-4" d="M83.13,17.35l.51,2.18-.1.14L83,17.5a.13.13,0,0,1,.1-.15Z"/><path class="cls-2" d="M94.65,19.81l0-.17a.35.35,0,0,1-.16.08.41.41,0,0,1-.19,0l0,.17s0,.06,0,.06h0l.3,1.51a.91.91,0,0,0,.46,0l-.31-1.58h0A.07.07,0,0,1,94.65,19.81Z"/><path class="cls-3" d="M93.87,17.86l.14.79.2,1v0l.05.26h0s0,0,0-.06l0-.17a.41.41,0,0,0,.19,0,.35.35,0,0,0,.16-.08l0,.17a.07.07,0,0,0,0,0h0l0-.24v-.05l-.19-1-.15-.78a.2.2,0,0,0-.25-.14C93.93,17.66,93.84,17.75,93.87,17.86Z"/><path class="cls-4" d="M94,17.78l.7,3.61s-.12.08-.14,0L93.91,18c0-.11,0-.21.09-.22Z"/><path class="cls-2" d="M82.25,18.72l.06.16a.33.33,0,0,0-.17,0A.31.31,0,0,0,82,19l-.06-.17a0,0,0,0,0-.06,0h0l-.59-1.55c0-.1.39-.27.43-.16l.59,1.55h0A0,0,0,0,0,82.25,18.72Z"/><path class="cls-3" d="M82.63,20.83l-.3-.77-.37-1v0l-.1-.25h0a0,0,0,0,1,.06,0L82,19a.31.31,0,0,1,.16-.12.33.33,0,0,1,.17,0l-.06-.16a0,0,0,0,1,0-.06h0l.09.23v0l.38,1,.2.54A1.49,1.49,0,0,1,82.63,20.83Z"/><path class="cls-4" d="M82.69,20.6l-1.3-3.42s-.13,0-.09.12l1.29,3.38C82.63,20.79,82.69,20.6,82.69,20.6Z"/><path class="cls-5" d="M89.18,18.63l0,.16A.6.6,0,0,0,89,18.7a.45.45,0,0,0-.2,0l0-.17a.07.07,0,0,0,0-.06h0l.43-1.57a2.63,2.63,0,0,1,.4.28l-.39,1.41h0S89.19,18.6,89.18,18.63Z"/><path class="cls-6" d="M88.26,20.42l.19-.69.27-1v0l.07-.25h0a.07.07,0,0,1,0,.06l0,.17a.45.45,0,0,1,.2,0,.6.6,0,0,1,.15.09l0-.16s0-.05,0,0h0l-.07.24v0l-.27,1-.19.67a.19.19,0,0,1-.26.11C88.32,20.62,88.23,20.53,88.26,20.42Z"/><path class="cls-4" d="M88.37,20.6l1-3.58-.11-.08-1,3.43c0,.11,0,.21.07.23Z"/><path class="cls-2" d="M87.89,18.35l0,.16a.33.33,0,0,0-.16-.07.46.46,0,0,0-.2,0l0-.17a0,0,0,0,0,0-.06h0l.24-1.47a1.12,1.12,0,0,1,.47-.11L88,18.3h0S87.9,18.32,87.89,18.35Z"/><path class="cls-3" d="M87.18,20.23l.11-.71.16-1v0l0-.26h0a0,0,0,0,1,0,.06l0,.17a.46.46,0,0,1,.2,0,.33.33,0,0,1,.16.07l0-.16s0-.05,0-.05h0l0,.24v.05l-.16,1-.13.82c0,.05-.15,0-.28,0A.17.17,0,0,1,87.18,20.23Z"/><path class="cls-4" d="M87.31,20.37l.59-3.65-.14.08-.54,3.36c0,.1,0,.2.09.21Z"/><path class="cls-5" d="M80.79,19.46l0,.07a.29.29,0,0,0-.1.18l.24.45.61,1.14c.06.1.46-.12.4-.22L81.4,20l-.3-.55a.37.37,0,0,0-.18,0l0-.05a.06.06,0,0,0-.08,0S80.78,19.43,80.79,19.46Z"/><path class="cls-6" d="M79.89,18.12l.84,1.59a.29.29,0,0,1,.1-.18l0-.07s0-.07,0-.08a.06.06,0,0,1,.08,0l0,.05a.37.37,0,0,1,.18,0l-.84-1.58a.16.16,0,0,0-.07-.07C80.1,17.87,79.89,18.12,79.89,18.12Z"/><path class="cls-4" d="M80,18.06l1.7,3.19h0c-.06,0-.15,0-.2-.11l-1.59-3Z"/><path class="cls-5" d="M95.5,19.11l0,.07a.27.27,0,0,0-.1.17l.22.45.56,1.12a.19.19,0,0,0,.28.06.2.2,0,0,0,.12-.26l-.53-1.07-.27-.55a.28.28,0,0,0-.18,0l0-.06s0,0-.08,0A.05.05,0,0,0,95.5,19.11Z"/><path class="cls-6" d="M94.55,17.59l.88,1.76a.27.27,0,0,1,.1-.17l0-.07a.05.05,0,0,1,0-.08s.06,0,.08,0l0,.06a.28.28,0,0,1,.18,0l-.75-1.52A1.23,1.23,0,0,0,94.55,17.59Z"/><path class="cls-4" d="M94.79,17.74l1.56,3.15h0c-.06,0-.15,0-.2-.12l-1.5-3C94.6,17.65,94.79,17.74,94.79,17.74Z"/><path class="cls-5" d="M100,16.27v.07a.29.29,0,0,0-.14.15L100,17l.23,1a2,2,0,0,0,.52.15l-.29-1.18-.14-.6a.29.29,0,0,0-.18,0v-.05a.07.07,0,0,0-.07-.06A.06.06,0,0,0,100,16.27Z"/><path class="cls-6" d="M99.48,14.67l.42,1.82a.29.29,0,0,1,.14-.15v-.07a.06.06,0,0,1,0-.08.07.07,0,0,1,.07.06v.05a.29.29,0,0,1,.18,0l-.41-1.76c0-.11-.13-.13-.25-.1S99.45,14.56,99.48,14.67Z"/><path class="cls-4" d="M99.6,14.54l.8,3.46-.14-.06-.74-3.18c0-.11,0-.21.08-.22Z"/><path class="cls-5" d="M101.38,16v.07a.3.3,0,0,0-.17.12l0,.5.08,1.32c0,.12.11.1.24.09a.19.19,0,0,0,.21-.19l-.07-1.19,0-.61a.27.27,0,0,0-.17-.06V16a.06.06,0,0,0-.06-.06S101.38,16,101.38,16Z"/><path class="cls-6" d="M101.1,14.27l.12,1.95a.3.3,0,0,1,.17-.12V16s0-.07.05-.07a.06.06,0,0,1,.06.06v.06a.27.27,0,0,1,.17.06l-.11-1.77A1.9,1.9,0,0,0,101.1,14.27Z"/><path class="cls-4" d="M101.26,14.36l.23,3.74c-.07,0-.14,0-.15-.38l-.21-3.36C101.12,14.25,101.26,14.36,101.26,14.36Z"/><path class="cls-5" d="M74.15,24v0a.41.41,0,0,1-.19-.05l-.06-.36-.17-1a.22.22,0,0,1,.19-.21c.13,0,.23,0,.25.09l.17,1,.08.44a.3.3,0,0,1-.16.08v0a.06.06,0,0,1-.05.06A0,0,0,0,1,74.15,24Z"/><path class="cls-6" d="M74.08,24.6,74,23.87a.41.41,0,0,0,.19.05v0a0,0,0,0,0,.06,0,.06.06,0,0,0,.05-.06v0a.3.3,0,0,0,.16-.08l.19,1A2.1,2.1,0,0,1,74.08,24.6Z"/><path class="cls-4" d="M74.25,24.69l-.38-2.15h0a.14.14,0,0,0-.1.17l.33,1.88Z"/><path class="cls-5" d="M71.86,23.23l0,0a.44.44,0,0,1-.1-.15l.15-.21.49-.7a4.11,4.11,0,0,1,.08.66l-.19.28-.18.26a.56.56,0,0,1-.16-.07l0,0s0,0-.06,0S71.85,23.24,71.86,23.23Z"/><path class="cls-6" d="M71,24.17l.8-1.12a.44.44,0,0,0,.1.15l0,0s0,0,0,.06,0,0,.06,0l0,0a.56.56,0,0,0,.16.07l-.69,1a.33.33,0,0,1-.3.06C71,24.32,71,24.2,71,24.17Z"/><path class="cls-4" d="M71.1,24.28l1.34-1.91h0a.13.13,0,0,0-.17,0L71,24.15C71,24.2,71.1,24.28,71.1,24.28Z"/><path class="cls-5" d="M69.78,21.31l0,0a.36.36,0,0,1-.1-.15l.18-.27.3-.41a3.31,3.31,0,0,1,.66-.14l-.56.79-.23.32a.37.37,0,0,1-.16-.07l0,0s0,0-.07,0A.07.07,0,0,1,69.78,21.31Z"/><path class="cls-6" d="M69,22.07l.67-.95a.36.36,0,0,0,.1.15l0,0a.07.07,0,0,0,0,.07s.06,0,.07,0l0,0a.37.37,0,0,0,.16.07l-.77,1.06c0,.06-.14-.08-.18-.15S69,22.12,69,22.07Z"/><path class="cls-4" d="M69.1,22.23l1.27-1.79s-.14,0-.18,0l-1.12,1.59a.14.14,0,0,0,0,.18Z"/><path class="cls-2" d="M71.28,22.9l.08-.11a.51.51,0,0,1-.15-.07.61.61,0,0,1-.12-.16l-.09.12a0,0,0,0,1-.06,0h0l-.87,1.1a.21.21,0,0,0,0,.29c.1.07.22.1.28,0l.9-1.13h0A0,0,0,0,1,71.28,22.9Z"/><path class="cls-3" d="M72.06,21.26l-.44.56-.54.67v0l-.14.17h0a0,0,0,0,0,.06,0l.09-.12a.61.61,0,0,0,.12.16.51.51,0,0,0,.15.07l-.08.11a0,0,0,0,0,0,.06h0l.13-.16,0,0,.54-.68.29-.37A2.17,2.17,0,0,0,72.06,21.26Z"/><path class="cls-4" d="M72.05,21.51,70.11,24h0a.14.14,0,0,1,0-.21L71.9,21.5C72,21.42,72.05,21.51,72.05,21.51Z"/><path class="cls-2" d="M70.6,22.22l.1-.13a.44.44,0,0,1-.16-.06.48.48,0,0,1-.12-.16l-.1.14a0,0,0,0,1-.07,0h0l-.86,1.17a.2.2,0,0,0,.06.29c.1.07.18.14.25.05l.91-1.24h0A.06.06,0,0,1,70.6,22.22Z"/><path class="cls-3" d="M71.43,20.43,71,21l-.59.79v0l-.15.21h0a0,0,0,0,0,.07,0l.1-.14a.48.48,0,0,0,.12.16.44.44,0,0,0,.16.06l-.1.13a.06.06,0,0,0,0,.07h0l.14-.19,0,0,.6-.81.38-.52A.63.63,0,0,0,71.43,20.43Z"/><path class="cls-4" d="M71.55,20.52l-2.14,2.89h0a.2.2,0,0,1,0-.24l2-2.68C71.47,20.41,71.55,20.52,71.55,20.52Z"/><path class="cls-5" d="M93.42,19.47v.13a.47.47,0,0,0-.17,0,.58.58,0,0,0-.19,0v-.14a0,0,0,0,0,0,0h0l.06-1.3a.22.22,0,0,1,.24-.16c.12,0,.22.09.22.18l-.07,1.3h0A.07.07,0,0,0,93.42,19.47Z"/><path class="cls-6" d="M93,20.79l0-.33,0-.82v-.23h0a0,0,0,0,1,0,0v.14a.58.58,0,0,1,.19,0,.47.47,0,0,1,.17,0v-.13a.07.07,0,0,1,0,0h0v.23l0,.84,0,.58C93.39,21.18,93,20.79,93,20.79Z"/><path class="cls-4" d="M93.1,20.85l.14-2.77h0c-.07,0-.13.06-.14.15L93,20.76Z"/><path class="cls-5" d="M99,16.5l0,.09-.16.06a.53.53,0,0,0-.14.12l-.06-.1a0,0,0,0,0,0,0h0l-.46-.83c0-.06,0-.16.14-.22s.22-.06.26,0l.46.83h0S99,16.48,99,16.5Z"/><path class="cls-6" d="M99.13,17.6,99,17.4l-.31-.57h0l-.08-.15h0a0,0,0,0,1,0,0l.06.1a.53.53,0,0,1,.14-.12l.16-.06,0-.09s0,0,0-.05h0l.07.13,0,0,.32.58.36.62A2.92,2.92,0,0,1,99.13,17.6Z"/><path class="cls-4" d="M99.34,17.67l-1.1-2h0a.11.11,0,0,0,0,.17l1,1.74Z"/><path class="cls-5" d="M103,16v.1l-.17,0a.63.63,0,0,0-.19,0V16a0,0,0,0,0,0,0h0V15c0-.07.45.43.45.43v.53h0S103,16,103,16Z"/><path class="cls-6" d="M102.6,17.42V15.93h0a0,0,0,0,1,0,0v.11a.63.63,0,0,1,.19,0l.17,0V16s0,0,0,0h0v1.48c0,.08-.1.12-.23.12S102.6,17.49,102.6,17.42Z"/><path class="cls-4" d="M102.66,15.18l0,2.18a.13.13,0,0,0,.13.13l0-2.25S102.66,15.11,102.66,15.18Z"/><path class="cls-2" d="M76.56,22.44l.1.13a.33.33,0,0,0-.16.07.44.44,0,0,0-.12.15l-.11-.14s0,0-.06,0h0l-1-1.28a.22.22,0,0,1,.06-.3.21.21,0,0,1,.3,0l1,1.28h0A0,0,0,0,0,76.56,22.44Z"/><path class="cls-3" d="M77.44,24.27,77,23.68l-.61-.81,0,0-.16-.2h0s.05,0,.06,0l.11.14a.44.44,0,0,1,.12-.15.33.33,0,0,1,.16-.07l-.1-.13a0,0,0,0,1,0-.07h0l.15.19,0,0,.63.82.35.46A2.35,2.35,0,0,1,77.44,24.27Z"/><path class="cls-4" d="M77.5,24.1l-2.16-2.84h0c-.06,0,0,.15,0,.24l2.07,2.72Z"/><path class="cls-5" d="M90.18,18.93l0,0A.35.35,0,0,0,90,19l-.1.3-.31,1c0,.06.06.13.18.17s.23,0,.25,0l.31-1,.11-.37a.38.38,0,0,0-.15-.09v0s0,0,0-.05S90.18,18.91,90.18,18.93Z"/><path class="cls-6" d="M90.32,17.92,90,19a.35.35,0,0,1,.18,0l0,0s0,0,.06,0,.05,0,0,.05v0a.38.38,0,0,1,.15.09l.2-.63A1.45,1.45,0,0,0,90.32,17.92Z"/><path class="cls-4" d="M90.35,18.26l-.63,2h0a.13.13,0,0,1-.08-.16l.62-2Z"/><path class="cls-5" d="M75.41,23.4l0-.06a.34.34,0,0,1-.2,0l-.24-.45-.52-1c-.06-.1,0-.21.12-.26s.18-.14.23,0l.55,1.08.29.56a.33.33,0,0,1-.13.13l0,.06a.05.05,0,0,1,0,.08S75.43,23.43,75.41,23.4Z"/><path class="cls-6" d="M76,25l-.86-1.69a.34.34,0,0,0,.2,0l0,.06s.06.05.08,0a.05.05,0,0,0,0-.08l0-.06a.33.33,0,0,0,.13-.13l.89,1.74A1,1,0,0,1,76,25Z"/><path class="cls-4" d="M76.18,25l-1.7-3.34h0c-.07,0-.08.14,0,.24L76,24.91C76.06,25,76.18,25,76.18,25Z"/><path class="cls-7" d="M112.89,13.94a2.18,2.18,0,0,0-1.8-.12A2.38,2.38,0,0,0,109.6,17a2.38,2.38,0,0,0,3.08,1.64,3.24,3.24,0,0,0,1.4-.9l-.61-1.85-1.32.44-.18-.52,1.89-.63.9,2.72a4.6,4.6,0,0,1-1.91,1.26,3,3,0,0,1-3.86-2,3,3,0,0,1,1.93-3.87,2.8,2.8,0,0,1,2.25.08Z"/><path class="cls-7" d="M118.2,15.1l0-.1a.87.87,0,0,0-1.17-.77,1.73,1.73,0,0,0-1.06.68l-.41-.31a2.24,2.24,0,0,1,1.49-.88,1.29,1.29,0,0,1,1.66,1l.35,1.69a6.62,6.62,0,0,0,.24.83l-.51.11a3.8,3.8,0,0,1-.18-.6h0a1.43,1.43,0,0,1-1.18,1,1.19,1.19,0,0,1-1.53-.83c-.26-1.23,1.17-1.61,2.08-1.8Zm-.18.49c-.54.12-1.75.41-1.59,1.17.1.5.6.6,1,.51a1.13,1.13,0,0,0,.89-1.46l-.06-.27Z"/><path class="cls-7" d="M120.35,10.85h.54l0,3h0a1.84,1.84,0,0,1,1.49-.76,2,2,0,1,1,0,4.06,1.86,1.86,0,0,1-1.51-.73h0v.65h-.54Zm2.09,2.76a1.53,1.53,0,1,0,0,3.06,1.42,1.42,0,0,0,1.44-1.54A1.42,1.42,0,0,0,122.44,13.61Z"/><path class="cls-7" d="M126,14.71c.08-.34.13-.63.23-1.19l.53.12-.16.7h0a1.27,1.27,0,0,1,1.38-.53,1.77,1.77,0,0,1,.39.14l-.23.5a.76.76,0,0,0-.29-.11,1.21,1.21,0,0,0-1.44.95l-.46,2.13-.54-.12Z"/><path class="cls-7" d="M128.73,18.17l-.52-.16,1.11-3.7.52.16Zm1.16-4.82a.42.42,0,0,1-.27-.5.41.41,0,0,1,.5-.26.39.39,0,0,1,.26.49A.4.4,0,0,1,129.89,13.35Z"/><path class="cls-7" d="M131.07,17.06a1.44,1.44,0,0,0,2.26,1.56l.28.47a2,2,0,0,1-1.84.22,2,2,0,0,1,1.32-3.84,1.8,1.8,0,0,1,1.09,2.43l-.08.24Zm2.62.46a1.17,1.17,0,0,0-.77-1.59,1.36,1.36,0,0,0-1.69.71Z"/><path class="cls-7" d="M135.57,20.41l-.53-.14,1.58-6,.53.13Z"/><path class="cls-7" d="M138,20.91l-.54-.09,1.11-6.14.53.09Z"/><path class="cls-7" d="M142.48,19v-.1a.87.87,0,0,0-.91-1.07,1.73,1.73,0,0,0-1.21.37l-.31-.41a2.18,2.18,0,0,1,1.67-.44A1.29,1.29,0,0,1,143,18.85l-.12,1.72a6.28,6.28,0,0,0,0,.87l-.53,0a3.31,3.31,0,0,1,0-.63h0a1.45,1.45,0,0,1-1.41.63,1.19,1.19,0,0,1-1.24-1.22c.09-1.26,1.57-1.23,2.49-1.16Zm-.31.42c-.55,0-1.8-.09-1.85.68,0,.51.42.75.85.78a1.13,1.13,0,0,0,1.26-1.16l0-.28Z"/><path class="cls-7" d="M150.29,20.21,152,15.35l.9,0,.35,5.83-.6,0-.29-5h0l-1.81,5.17-.31,0-2.41-4.92h0l.3,5-.59,0-.35-5.83.91-.05Z"/><path class="cls-7" d="M154.85,16a.41.41,0,0,1-.44-.35.4.4,0,1,1,.44.35Zm.79,4.9-.54.05-.41-3.84.54-.05Z"/><path class="cls-7" d="M157.88,20.59l-.54.07-.78-6.19.54-.07Z"/><path class="cls-7" d="M160.12,20.27l-.54.08-.92-6.16.54-.08Z"/><path class="cls-7" d="M161.79,18.17a1.44,1.44,0,0,0,2.73.29l.47.27a2,2,0,0,1-1.5,1.07,2,2,0,0,1-.7-4,1.81,1.81,0,0,1,2.13,1.62l0,.24Zm2.52-.85a1.17,1.17,0,0,0-1.44-1,1.37,1.37,0,0,0-1.14,1.44Z"/><path class="cls-7" d="M166.18,16.69c0-.35-.07-.64-.13-1.2l.54,0,0,.72h0a1.29,1.29,0,0,1,1.17-.91,1.76,1.76,0,0,1,.41,0l-.07.54a1,1,0,0,0-.31,0,1.2,1.2,0,0,0-1.1,1.32l.17,2.18-.54,0Z"/><path class="cls-8" d="M67.21,44.25c3.13-5.61,2.39-12.17-.27-18.18,4.64,3.44,6,13.92,4,19.89C69.08,51.28,63.9,50.17,67.21,44.25Z"/><path class="cls-8" d="M34.85,53.63A20.15,20.15,0,0,1,26.77,42.5C33.18,43.45,35.77,47.52,34.85,53.63Z"/><path class="cls-8" d="M39.26,19.76c-4.92,2-7.79,6.92-8.74,12.07-.81,4.36-3.59,3.43-4.52,4C26.75,29.64,31.61,20.36,39.26,19.76Z"/><path class="cls-9" d="M54.54,53.34c0,3-1.76,6.95.14,8.52,1.46,1.22,2.91-2.18,4.36-4.68,1.66-2.85,2.51-2.24,6-2.56,8-.73,6.4-2.9,2.37-3.57-1.5-.25-3.69-.58-4.7-2.78s.06-4.07,1.67-6.35c2.17-3.08,2.79-4.85-2-2.14s-5.16,3.5-10.31.8c-6.91-3.62-4.81.06-1.66,3.16A13.68,13.68,0,0,1,54.54,53.34Z"/><path class="cls-10" d="M35.13,29.08c2.27-1,5.84-.53,6.36-3.42,2,1.44,1,6.23-3.5,8.36C34.44,35.72,31.65,30.6,35.13,29.08Z"/><path class="cls-10" d="M48.18,51c-3.06-6.7-4.39-11.33-1.38-18.39,3.61-8.47,1.48-7.14-2.69-1.73C40.42,35.65,35.85,36,29,37.53c-4.11.9-4.07,2.57,1.5,2.81,6.38.26,7.66,4.63,7.47,10.12a17.71,17.71,0,0,1-1,5.4c-2,5.7.51,5.2,2.57,2.32a14.54,14.54,0,0,0,2.39-4.9c.93-3.77,2-2.79,3.62-.28C51.3,61.66,50.41,55.85,48.18,51Z"/><path class="cls-9" d="M54.71,40.07a4.3,4.3,0,0,1,.36-5.39c1.71-1.56,3.22-1.38,4.16-.44C62.48,37.5,57.34,43,54.71,40.07Z"/><path class="cls-7" d="M174,51.43a3.67,3.67,0,0,1-3.81,3.48H78.11a3.5,3.5,0,1,1,0-7h92.08A3.67,3.67,0,0,1,174,51.43Z"/><path class="cls-11" d="M77.69,49.87h1.2c.69,0,1.31.22,1.31.93s-.67,1-1.43,1h-.45v1.33h-.63Zm1,1.39c.37,0,.84,0,.84-.45s-.42-.45-.77-.45h-.45v.9Z"/><path class="cls-11" d="M81.27,49.87h2.37v.52H81.91v.79h1.63v.51H81.91v.88h1.82v.51H81.27Z"/><path class="cls-11" d="M84.86,49.87h1.4a1.64,1.64,0,0,1,1.82,1.61,1.74,1.74,0,0,1-1.89,1.6H84.86Zm1.1,2.7c.8,0,1.45-.31,1.45-1.09s-.56-1.09-1.34-1.09h-.58v2.18Z"/><path class="cls-11" d="M89.17,49.87h.64v3.21h-.64Z"/><path class="cls-11" d="M92.25,49.87h.55l1.54,3.21h-.73l-.33-.73H91.73l-.32.73h-.72Zm.8,2-.55-1.31-.56,1.31Z"/><path class="cls-11" d="M95.5,50.39H94.41v-.52h2.82v.52H96.14v2.69H95.5Z"/><path class="cls-11" d="M98.17,49.87h1.24c.69,0,1.33.2,1.33.92a.85.85,0,0,1-.82.87l.94,1.42h-.76l-.83-1.36h-.46v1.36h-.64Zm1.13,1.36c.36,0,.78,0,.78-.44s-.4-.43-.72-.43h-.55v.87Z"/><path class="cls-11" d="M101.84,49.87h.63v3.21h-.63Z"/><path class="cls-11" d="M106.21,50.62a1,1,0,0,0-.75-.32,1.18,1.18,0,1,0,0,2.35,1,1,0,0,0,.8-.39l.52.33a1.63,1.63,0,0,1-1.33.57,1.7,1.7,0,1,1,0-3.37,1.61,1.61,0,0,1,1.25.51Z"/><path class="cls-11" d="M109.71,49.87H111c.69,0,1.34.2,1.34.92a.86.86,0,0,1-.83.87l1,1.42h-.77l-.83-1.36h-.46v1.36h-.64Zm1.13,1.36c.36,0,.78,0,.78-.44s-.39-.43-.72-.43h-.55v.87Z"/><path class="cls-11" d="M113.39,49.87h2.37v.52H114v.79h1.64v.51H114v.88h1.82v.51h-2.46Z"/><path class="cls-11" d="M118.73,50.56a.81.81,0,0,0-.63-.26c-.29,0-.58.12-.58.42,0,.64,1.69.28,1.69,1.42,0,.69-.6,1-1.3,1a1.56,1.56,0,0,1-1.17-.43l.48-.42a.87.87,0,0,0,.7.34c.29,0,.63-.15.63-.44,0-.71-1.7-.3-1.7-1.45,0-.66.66-1,1.32-1a1.53,1.53,0,0,1,1,.33Z"/><path class="cls-11" d="M120.38,49.87h2.36v.52H121v.79h1.64v.51H121v.88h1.82v.51h-2.45Z"/><path class="cls-11" d="M125.12,49.87h.55l1.53,3.21h-.72l-.33-.73H124.6l-.33.73h-.71Zm.8,2-.55-1.31-.56,1.31Z"/><path class="cls-11" d="M128.11,49.87h1.24c.68,0,1.33.2,1.33.92a.86.86,0,0,1-.83.87l1,1.42H130l-.82-1.36h-.47v1.36h-.63Zm1.13,1.36c.35,0,.77,0,.77-.44s-.39-.43-.72-.43h-.55v.87Z"/><path class="cls-11" d="M134.24,50.62a1,1,0,0,0-.75-.32,1.18,1.18,0,1,0,0,2.35,1.06,1.06,0,0,0,.8-.39l.52.33a1.63,1.63,0,0,1-1.33.57,1.7,1.7,0,1,1,0-3.37,1.61,1.61,0,0,1,1.25.51Z"/><path class="cls-11" d="M135.75,49.87h.63v1.28h1.67V49.87h.64v3.21h-.64V51.67h-1.67v1.41h-.63Z"/><path class="cls-11" d="M142,49.87h1.2c.69,0,1.32.22,1.32.93s-.67,1-1.43,1h-.45v1.33H142Zm1,1.39c.36,0,.83,0,.83-.45s-.42-.45-.76-.45h-.45v.9Z"/><path class="cls-11" d="M145.57,49.87h1.24c.68,0,1.33.2,1.33.92a.86.86,0,0,1-.83.87l.95,1.42h-.77l-.82-1.36h-.47v1.36h-.63Zm1.13,1.36c.36,0,.77,0,.77-.44s-.39-.43-.72-.43h-.55v.87Z"/><path class="cls-11" d="M150.94,49.79a1.69,1.69,0,0,1,1.9,1.68,1.73,1.73,0,0,1-1.9,1.69,1.7,1.7,0,1,1,0-3.37Zm0,2.86a1.18,1.18,0,1,0-1.23-1.2A1.16,1.16,0,0,0,151,52.65Z"/><path class="cls-11" d="M157.12,52.85a3.31,3.31,0,0,1-1.47.31,1.7,1.7,0,1,1,0-3.37,2.17,2.17,0,0,1,1.4.4l-.46.43a1.46,1.46,0,0,0-.94-.32,1.18,1.18,0,1,0,0,2.35,1.93,1.93,0,0,0,.84-.17v-.76h-.73V51.2h1.36Z"/><path class="cls-11" d="M158.38,49.87h1.24c.69,0,1.33.2,1.33.92a.86.86,0,0,1-.83.87l.95,1.42h-.76l-.83-1.36H159v1.36h-.64Zm1.13,1.36c.36,0,.78,0,.78-.44s-.4-.43-.73-.43H159v.87Z"/><path class="cls-11" d="M163.22,49.87h.54l1.54,3.21h-.72l-.34-.73H162.7l-.33.73h-.71Zm.8,2-.55-1.31-.56,1.31Z"/><path class="cls-11" d="M166.22,49.87h1l.95,2.25,1-2.25h1v3.21h-.6V50.41h0l-1.09,2.67h-.44l-1.08-2.67h0v2.67h-.61Z"/><path class="cls-12" d="M79.74,28.45c.05.78.08,1.61.09,2.46s0,1.87,0,3,0,2,0,2.46,0,1.12,0,2,0,1.45,0,1.79A33.49,33.49,0,0,1,79.71,44a.69.69,0,0,1-.25.46.71.71,0,0,1-.51.16.64.64,0,0,1-.47-.26.7.7,0,0,1-.17-.52,30.08,30.08,0,0,0,.14-3.67c0-.33,0-.92,0-1.78s0-1.52,0-2,0-1.32,0-2.44,0-2.11,0-3,0-1.66-.1-2.45A.68.68,0,0,1,78.5,28,.74.74,0,0,1,79,27.8a.68.68,0,0,1,.51.16A.74.74,0,0,1,79.74,28.45Zm9.58-.84a13.68,13.68,0,0,1-1.8,1.8,12,12,0,0,1-1.37.94l-1.88,1.26a17.25,17.25,0,0,0-1.65,1.25,2.32,2.32,0,0,0-.6.68.45.45,0,0,0,.13.25,3,3,0,0,0,.65.59,9.69,9.69,0,0,0,.88.61l.78.57c.8.71,2,1.86,3.43,3.43s2.54,2.61,3.36,3.33a.72.72,0,0,1,.24.48.66.66,0,0,1-.16.51.7.7,0,0,1-.48.24.62.62,0,0,1-.51-.16c-.85-.73-2-1.88-3.44-3.43s-2.58-2.67-3.35-3.33a5.15,5.15,0,0,0-.65-.46l-1-.67a4.33,4.33,0,0,1-.89-.86,1.64,1.64,0,0,1-.43-1.26,2.87,2.87,0,0,1,1-1.55,14.91,14.91,0,0,1,1.82-1.37L85.4,29.2c.73-.49,1.15-.77,1.26-.86a13.41,13.41,0,0,0,1.58-1.64.74.74,0,0,1,.49-.24.68.68,0,0,1,.51.16.74.74,0,0,1,.24.48A.7.7,0,0,1,89.32,27.61Z"/><path class="cls-13" d="M79,44.7h-.07a.77.77,0,0,1-.54-.29.79.79,0,0,1-.18-.59,32,32,0,0,0,.14-3.66c0-.32,0-.9,0-1.77s0-1.52,0-2,0-1.33,0-2.44,0-2.12,0-3,0-1.66-.09-2.44a.76.76,0,0,1,.18-.58.81.81,0,0,1,.55-.27.76.76,0,0,1,.58.18.81.81,0,0,1,.27.55h0c0,.78.08,1.61.09,2.47s0,1.87,0,3,0,2,0,2.46,0,1.13,0,2,0,1.45,0,1.79A35.86,35.86,0,0,1,79.8,44a.77.77,0,0,1-.29.52A.78.78,0,0,1,79,44.7Zm0-16.81H79a.65.65,0,0,0-.42.21.6.6,0,0,0-.14.45c.06.78.09,1.6.1,2.44s0,1.83,0,3,0,1.93,0,2.44,0,1.14,0,2,0,1.46,0,1.78a32.74,32.74,0,0,1-.13,3.68.62.62,0,0,0,.54.68.62.62,0,0,0,.45-.14.6.6,0,0,0,.22-.4,35.76,35.76,0,0,0,.13-3.82c0-.34,0-.92,0-1.79s0-1.5,0-2,0-1.32,0-2.46,0-2.16,0-3,0-1.69-.1-2.47a.57.57,0,0,0-.21-.42A.55.55,0,0,0,79.06,27.89ZM90.77,43.65a.73.73,0,0,1-.5-.19c-.83-.73-2-1.89-3.44-3.44s-2.58-2.66-3.34-3.32a4.62,4.62,0,0,0-.64-.45l-1-.67a4.72,4.72,0,0,1-.9-.88,1.72,1.72,0,0,1-.45-1.33,2.92,2.92,0,0,1,1.08-1.61,15.06,15.06,0,0,1,1.83-1.38l1.91-1.26c.73-.48,1.15-.77,1.25-.85a14,14,0,0,0,1.57-1.63.81.81,0,0,1,.55-.27.76.76,0,0,1,.58.18.81.81,0,0,1,.27.55.76.76,0,0,1-.18.58h0a15.23,15.23,0,0,1-1.81,1.81,11.5,11.5,0,0,1-1.38.94l-1.88,1.26a14.57,14.57,0,0,0-1.64,1.24c-.5.45-.56.59-.57.63h0a.49.49,0,0,0,.11.17,2.82,2.82,0,0,0,.63.57c.18.14.47.34.88.62l.78.56c.81.72,2,1.88,3.45,3.45s2.53,2.61,3.35,3.32a.78.78,0,0,1,.27.54.74.74,0,0,1-.18.58.82.82,0,0,1-.55.28Zm-2-17.1h-.07a.65.65,0,0,0-.42.21,13.58,13.58,0,0,1-1.59,1.65c-.11.09-.51.37-1.27.87l-1.91,1.26a15.59,15.59,0,0,0-1.81,1.36,2.86,2.86,0,0,0-1,1.49,1.57,1.57,0,0,0,.41,1.2,5,5,0,0,0,.87.84l1,.67a5.15,5.15,0,0,1,.65.46c.77.66,1.9,1.78,3.36,3.33a47.08,47.08,0,0,0,3.43,3.43.54.54,0,0,0,.44.14.6.6,0,0,0,.56-.65.65.65,0,0,0-.21-.42c-.82-.71-2-1.83-3.36-3.33s-2.64-2.73-3.43-3.43l-.77-.56c-.42-.27-.71-.48-.89-.62a2.66,2.66,0,0,1-.66-.61.47.47,0,0,1-.15-.3c0-.1.1-.27.63-.75a14.09,14.09,0,0,1,1.66-1.25l1.88-1.27a11.54,11.54,0,0,0,1.36-.93,14.18,14.18,0,0,0,1.79-1.79h0a.56.56,0,0,0,.13-.44.57.57,0,0,0-.21-.42A.55.55,0,0,0,88.8,26.55Z"/><path class="cls-12" d="M95,33.22c0,.25-.12,1.64-.32,4.17s-.3,4.46-.3,5.79a.64.64,0,0,1-.2.49.69.69,0,0,1-1,0,.68.68,0,0,1-.2-.49c0-1,0-2,.11-3.17s.16-2.36.28-3.72.19-2.41.23-3.17a.66.66,0,0,1,.24-.47.58.58,0,0,1,.49-.18.79.79,0,0,1,.49.24A.65.65,0,0,1,95,33.22Zm-.55-4.79a.73.73,0,0,1,0,1,.71.71,0,0,1-1,0,.72.72,0,0,1,0-1,.71.71,0,0,1,1,0Z"/><path class="cls-13" d="M93.64,44a.79.79,0,0,1-.57-.23.76.76,0,0,1-.22-.56c0-1,0-2,.1-3.17s.17-2.38.29-3.72.19-2.41.22-3.18a.8.8,0,0,1,.27-.53.73.73,0,0,1,.57-.2.83.83,0,0,1,.54.27.7.7,0,0,1,.2.58c0,.25-.12,1.64-.32,4.17s-.29,4.46-.29,5.78a.79.79,0,0,1-.79.79Zm.59-11.41a.53.53,0,0,0-.37.15.61.61,0,0,0-.21.41c0,.77-.11,1.84-.23,3.18s-.21,2.6-.28,3.72S93,42.2,93,43.18a.58.58,0,0,0,.18.43.54.54,0,0,0,.43.17.57.57,0,0,0,.43-.17.61.61,0,0,0,.17-.43c0-1.33.1-3.27.3-5.79s.3-3.92.32-4.17h0a.56.56,0,0,0-.15-.43.67.67,0,0,0-.43-.22Zm-.33-2.84a.79.79,0,1,1,0-1.58.79.79,0,0,1,.57.23.82.82,0,0,1,0,1.12A.79.79,0,0,1,93.9,29.72Zm0-1.4a.58.58,0,0,0-.43.18.63.63,0,0,0,0,.86.57.57,0,0,0,.43.17.58.58,0,0,0,.44-.17.63.63,0,0,0,0-.86A.59.59,0,0,0,93.9,28.32Z"/><path class="cls-12" d="M108.1,27.19c.05.69.1,1.78.13,3.24,0,1.72.07,2.77.08,3.17.09,1.84.12,3.55.08,5.12a20.27,20.27,0,0,1-.21,3,6.26,6.26,0,0,1-.24,1.18,1.86,1.86,0,0,1-.57.91,2.85,2.85,0,0,1-2,.38,11.33,11.33,0,0,1-2.36-.54,16.49,16.49,0,0,1-2.3-.94,5.55,5.55,0,0,1-1.53-1A4.43,4.43,0,0,1,98,39.53a6.12,6.12,0,0,1-.08-2.44,7.4,7.4,0,0,1,.73-2.2c.18-.34.33-.61.46-.81s.3-.44.52-.74a3.36,3.36,0,0,1,.78-.73,3.67,3.67,0,0,1,1-.46,16.5,16.5,0,0,1,5.15-.22.93.93,0,0,1,.32.11V30.46c0-1.29-.09-2.33-.16-3.11a.78.78,0,0,1,.16-.53.71.71,0,0,1,.47-.25.72.72,0,0,1,.77.62Zm-1.58,15.53a2,2,0,0,0,.1-.27,5,5,0,0,0,.19-.91A21.19,21.19,0,0,0,107,38.7c0-1.58,0-3.26-.08-5.05a3.64,3.64,0,0,0,0-.45.6.6,0,0,1-.46.13,15.92,15.92,0,0,0-4.66.16,2,2,0,0,0-1,.66,8.26,8.26,0,0,0-.9,1.38,5,5,0,0,0-.66,2.74,3.63,3.63,0,0,0,.93,2.47,4.48,4.48,0,0,0,1.19.76,13.27,13.27,0,0,0,2.05.82,8.86,8.86,0,0,0,2.07.48A1.83,1.83,0,0,0,106.52,42.72Z"/><path class="cls-13" d="M105.87,44.32l-.54,0a11.28,11.28,0,0,1-2.39-.54,17.31,17.31,0,0,1-2.32-1,5.87,5.87,0,0,1-1.55-1,4.71,4.71,0,0,1-1.16-2.22,6.51,6.51,0,0,1-.09-2.48,7.72,7.72,0,0,1,.75-2.23c.18-.34.33-.61.46-.81s.3-.45.53-.74a3.38,3.38,0,0,1,.8-.76,3.82,3.82,0,0,1,1-.47,16.46,16.46,0,0,1,5.19-.22.79.79,0,0,1,.22.06V30.46c0-1.28-.09-2.33-.16-3.11a.79.79,0,0,1,.18-.59.76.76,0,0,1,.53-.28.76.76,0,0,1,.58.18.75.75,0,0,1,.29.52h0c0,.7.1,1.76.14,3.25,0,1.71.06,2.77.08,3.16.08,1.84.11,3.57.08,5.14a20.15,20.15,0,0,1-.22,3,6.5,6.5,0,0,1-.24,1.2,1.9,1.9,0,0,1-.6,1A2.47,2.47,0,0,1,105.87,44.32Zm-1.58-12.38a10.44,10.44,0,0,0-2.87.3,3.5,3.5,0,0,0-1,.44,3,3,0,0,0-.75.72c-.22.29-.4.54-.52.73s-.28.47-.45.8A7,7,0,0,0,98,37.1a6.15,6.15,0,0,0,.08,2.41,4.51,4.51,0,0,0,1.11,2.13,5.74,5.74,0,0,0,1.51,1,16.34,16.34,0,0,0,2.29.93,11.6,11.6,0,0,0,2.34.53,2.82,2.82,0,0,0,2-.35,1.88,1.88,0,0,0,.53-.87,7.11,7.11,0,0,0,.24-1.16,21.7,21.7,0,0,0,.21-3c0-1.56,0-3.29-.08-5.12,0-.39,0-1.46-.08-3.17,0-1.48-.08-2.54-.13-3.24a.57.57,0,0,0-.23-.39.55.55,0,0,0-.44-.14.6.6,0,0,0-.4.22.59.59,0,0,0-.14.46c.07.78.12,1.83.16,3.12v1.75l-.14-.09a.66.66,0,0,0-.29-.09C105.7,32,105,31.94,104.29,31.94Zm1.64,11-.47,0a9,9,0,0,1-2.09-.48,12.46,12.46,0,0,1-2.06-.83,4.46,4.46,0,0,1-1.22-.78,3.73,3.73,0,0,1-1-2.53,5.23,5.23,0,0,1,.67-2.79,8.37,8.37,0,0,1,.91-1.39,2,2,0,0,1,1-.69,15.86,15.86,0,0,1,4.7-.16.52.52,0,0,0,.39-.11L107,33l0,.18a3.8,3.8,0,0,1,0,.46c.09,1.78.12,3.48.08,5.05a21.53,21.53,0,0,1-.19,2.86,5.37,5.37,0,0,1-.19.92,1.63,1.63,0,0,1-.11.28v0h0A1.25,1.25,0,0,1,105.93,42.92Zm-1.66-9.58a9.54,9.54,0,0,0-2.48.24,1.85,1.85,0,0,0-.93.63,8.67,8.67,0,0,0-.89,1.36,5.06,5.06,0,0,0-.65,2.69,3.53,3.53,0,0,0,.9,2.41,4.68,4.68,0,0,0,1.17.75,13.14,13.14,0,0,0,2,.81,8.73,8.73,0,0,0,2,.48,1.74,1.74,0,0,0,1-.06l.1-.23a6.21,6.21,0,0,0,.18-.89,21.15,21.15,0,0,0,.19-2.83c0-1.57,0-3.27-.08-5,0-.1,0-.2,0-.3a.68.68,0,0,1-.38.06C105.62,33.37,104.9,33.34,104.27,33.34Z"/><path class="cls-12" d="M117.87,34.64a11,11,0,0,0-2.69-.91,2,2,0,0,0-2,.67.75.75,0,0,0-.16.34,1.05,1.05,0,0,0,.11.36,4.45,4.45,0,0,0,.32.48c.13.16.24.3.34.41a3.08,3.08,0,0,0,.49.4l.46.35.59.37c.3.22.5.35.59.41a11.92,11.92,0,0,1,1.19.88,5.51,5.51,0,0,1,1,1.14,4.06,4.06,0,0,1,.61,1.6,1.62,1.62,0,0,1-.86,1.63,5.37,5.37,0,0,1-1.74.7,10.66,10.66,0,0,1-1.89.32,6,6,0,0,1-1.49,0,10.91,10.91,0,0,1-1.56-.59.69.69,0,0,1-.37-.4.63.63,0,0,1,0-.52.69.69,0,0,1,.39-.36.57.57,0,0,1,.51,0,9,9,0,0,0,1.29.48,4.28,4.28,0,0,0,1.17,0,8.54,8.54,0,0,0,1.59-.28,4.43,4.43,0,0,0,1.32-.51q.27-.18.24-.27a2.89,2.89,0,0,0-.65-1.43,6.68,6.68,0,0,0-1.5-1.25l-.54-.36-.63-.41a7.53,7.53,0,0,1-1.16-.93c-.15-.16-.31-.34-.49-.57a3.53,3.53,0,0,1-.43-.66,2.24,2.24,0,0,1-.26-1.1,2.13,2.13,0,0,1,.43-1,3.19,3.19,0,0,1,3.35-1.24,11.21,11.21,0,0,1,3.09,1,.74.74,0,0,1,.36.4.72.72,0,0,1,0,.54.66.66,0,0,1-.39.36A.69.69,0,0,1,117.87,34.64Z"/><path class="cls-13" d="M113.29,43.93a5.31,5.31,0,0,1-.64,0,12.82,12.82,0,0,1-1.58-.6.82.82,0,0,1-.43-.45.74.74,0,0,1,0-.6.8.8,0,0,1,.44-.41.73.73,0,0,1,.58,0,9.75,9.75,0,0,0,1.26.48,4.58,4.58,0,0,0,1.15,0,8.3,8.3,0,0,0,1.58-.28,4.5,4.5,0,0,0,1.29-.5c.18-.13.2-.18.2-.18a2.79,2.79,0,0,0-.63-1.38,6.5,6.5,0,0,0-1.48-1.23c-.07-.06-.25-.17-.54-.37l-.62-.4a5,5,0,0,1-.59-.42,7.37,7.37,0,0,1-.6-.53c-.14-.15-.31-.34-.49-.57a4,4,0,0,1-.44-.67,2.48,2.48,0,0,1-.28-1.15,2.39,2.39,0,0,1,.45-1.1,3.29,3.29,0,0,1,3.44-1.27,11.55,11.55,0,0,1,3.11,1,.82.82,0,0,1,.42.46.78.78,0,0,1,0,.6.77.77,0,0,1-.45.42.83.83,0,0,1-.6,0h0a10.85,10.85,0,0,0-2.66-.91,1.89,1.89,0,0,0-2,.64.54.54,0,0,0-.15.28.9.9,0,0,0,.1.32,5.41,5.41,0,0,0,.31.47l.33.39a3.05,3.05,0,0,0,.49.39l.46.35.58.38.59.4a12.1,12.1,0,0,1,1.2.89,5.15,5.15,0,0,1,1,1.16,4.08,4.08,0,0,1,.63,1.63,1.72,1.72,0,0,1-.89,1.73,5.73,5.73,0,0,1-1.78.71,11.78,11.78,0,0,1-1.9.33C113.83,43.91,113.54,43.93,113.29,43.93Zm-1.9-2a.66.66,0,0,0-.23,0,.7.7,0,0,0-.34.32.58.58,0,0,0,0,.45.7.7,0,0,0,.33.35,11,11,0,0,0,1.54.58,5.78,5.78,0,0,0,1.46,0,10.4,10.4,0,0,0,1.88-.32,5.29,5.29,0,0,0,1.71-.68,1.53,1.53,0,0,0,.82-1.55,4.08,4.08,0,0,0-.6-1.56,5.31,5.31,0,0,0-.94-1.12,13.4,13.4,0,0,0-1.18-.88,6.82,6.82,0,0,1-.59-.4l-.59-.37-.46-.36a2.86,2.86,0,0,1-.51-.41c-.1-.11-.22-.25-.34-.41a3.51,3.51,0,0,1-.33-.49,1.21,1.21,0,0,1-.12-.41.73.73,0,0,1,.18-.39,2,2,0,0,1,2.12-.71,10.92,10.92,0,0,1,2.71.92.64.64,0,0,0,.47,0,.55.55,0,0,0,.34-.31.59.59,0,0,0,0-.47.58.58,0,0,0-.32-.35,10.87,10.87,0,0,0-3-1,3.12,3.12,0,0,0-3.27,1.19,2.11,2.11,0,0,0-.41,1,2.06,2.06,0,0,0,.26,1.05,2.93,2.93,0,0,0,.42.64,6.22,6.22,0,0,0,.47.56,6.78,6.78,0,0,0,.58.52c.25.19.44.33.57.41l.64.4.54.37a6.51,6.51,0,0,1,1.51,1.26,3,3,0,0,1,.67,1.48c0,.09,0,.2-.28.36a4.52,4.52,0,0,1-1.35.52,9.52,9.52,0,0,1-1.61.29,4.32,4.32,0,0,1-1.19,0A9.08,9.08,0,0,1,111.6,42,.52.52,0,0,0,111.39,42Z"/><path class="cls-12" d="M128.41,25.71c.57,0,1.56,0,3,0,1.22,0,2.17,0,2.87,0a.66.66,0,0,1,.51.16.7.7,0,0,1,.24.48.69.69,0,0,1-.64.75,28.83,28.83,0,0,1-3,0q-2,0-2.85,0h-.16v0q0,1.66-.24,4.32l-.13,1.34c.62.27,1.2.49,1.73.66a13,13,0,0,0,1.69.42,6.87,6.87,0,0,0,1.74.09,5.26,5.26,0,0,0,1.6-.36.69.69,0,0,1,.53,0,.66.66,0,0,1,.38.37.72.72,0,0,1,0,.54.68.68,0,0,1-.38.38c-2,.78-4.43.58-7.4-.62,0,.48-.09.95-.11,1.39,0,.79,0,1.82.06,3.09.1,1.57.16,2.65.16,3.22a.7.7,0,1,1-1.4,0c0-.54,0-1.57-.16-3.11-.07-1.36-.09-2.44-.05-3.25,0-.64.15-2.07.35-4.29.16-1.81.24-3.2.24-4.19a.63.63,0,0,1,.2-.49.65.65,0,0,1,.49-.21h.14a.75.75,0,0,1,.19-.51A.6.6,0,0,1,128.41,25.71Z"/><path class="cls-13" d="M127.23,42.76a.79.79,0,0,1-.79-.79c0-.53-.06-1.58-.16-3.11-.07-1.35-.09-2.45-.06-3.25s.16-2.09.35-4.3c.16-1.79.24-3.2.24-4.18a.79.79,0,0,1,.79-.79h.05a.87.87,0,0,1,.21-.48.69.69,0,0,1,.55-.24c.57,0,1.57,0,3,0,1.21,0,2.17,0,2.87,0a.73.73,0,0,1,.57.18.8.8,0,0,1,.28.54.75.75,0,0,1-.19.58.76.76,0,0,1-.54.28c-.78.05-1.8.06-3,0s-2.3,0-2.83,0h-.08c0,1.1-.08,2.53-.24,4.26L128,32.73a16.12,16.12,0,0,0,1.66.63,13.14,13.14,0,0,0,1.67.42,7.2,7.2,0,0,0,1.72.09,5.71,5.71,0,0,0,1.57-.36.81.81,0,0,1,.61,0,.76.76,0,0,1,.43.43.78.78,0,0,1,0,.6.73.73,0,0,1-.43.43c-2,.79-4.43.59-7.36-.57-.05.44-.08.87-.1,1.27,0,.78,0,1.81.06,3.08.11,1.56.16,2.65.16,3.22a.79.79,0,0,1-.79.79Zm.37-16.23a.57.57,0,0,0-.43.17.61.61,0,0,0-.17.43c0,1-.08,2.4-.24,4.2-.2,2.2-.32,3.64-.35,4.29s0,1.88,0,3.23c.11,1.54.16,2.59.16,3.12a.61.61,0,0,0,1,.43.57.57,0,0,0,.17-.43c0-.57,0-1.65-.16-3.21a30.93,30.93,0,0,1,0-3.1c0-.44,0-.91.11-1.4v-.12l.11,0c2.94,1.19,5.4,1.39,7.34.62a.53.53,0,0,0,.32-.32.62.62,0,0,0-.32-.8.64.64,0,0,0-.47,0,5.4,5.4,0,0,1-1.62.37,6.66,6.66,0,0,1-1.77-.09,13.63,13.63,0,0,1-1.7-.42q-.8-.26-1.74-.66l-.06,0,.14-1.41c.16-1.76.24-3.21.24-4.31V27h.25c.54,0,1.5,0,2.85,0s2.26,0,3,0a.57.57,0,0,0,.42-.21.54.54,0,0,0,.14-.44.6.6,0,0,0-.65-.56,28.52,28.52,0,0,1-2.88,0c-1.39,0-2.38,0-3,0h0A.49.49,0,0,0,128,26a.64.64,0,0,0-.17.44v.1Z"/><path class="cls-12" d="M139.12,33.22l-.33,4.17c-.19,2.54-.29,4.46-.29,5.79a.68.68,0,0,1-.2.49.7.7,0,0,1-1,0,.68.68,0,0,1-.2-.49c0-1,0-2,.11-3.17s.17-2.36.28-3.72.19-2.41.23-3.17a.74.74,0,0,1,.24-.47.59.59,0,0,1,.5-.18.74.74,0,0,1,.48.24A.66.66,0,0,1,139.12,33.22Zm-.55-4.79a.72.72,0,1,1-.5-.2A.7.7,0,0,1,138.57,28.43Z"/><path class="cls-13" d="M137.8,44a.79.79,0,0,1-.79-.79c0-1,0-2,.11-3.17s.16-2.37.28-3.72.19-2.41.23-3.18a.83.83,0,0,1,.27-.53.71.71,0,0,1,.57-.2.83.83,0,0,1,.54.27.73.73,0,0,1,.2.58c0,.25-.13,1.64-.32,4.17s-.3,4.46-.3,5.78a.79.79,0,0,1-.79.79Zm.59-11.41a.49.49,0,0,0-.36.15.67.67,0,0,0-.22.41c0,.77-.11,1.84-.23,3.18s-.21,2.6-.28,3.72-.1,2.18-.1,3.16a.61.61,0,0,0,1,.43.58.58,0,0,0,.18-.43c0-1.32.09-3.27.29-5.79s.3-3.92.32-4.17h0a.49.49,0,0,0-.15-.43.64.64,0,0,0-.42-.22Zm-.32-2.84a.79.79,0,1,1,.56-.23A.77.77,0,0,1,138.07,29.72Zm0-1.4a.61.61,0,0,0-.43,1,.61.61,0,0,0,.86-.86h0A.58.58,0,0,0,138.07,28.32Z"/><path class="cls-12" d="M144.19,35.42a4.13,4.13,0,0,1,2.55-2.55c1.07-.26,2.2.16,3.38,1.29a.7.7,0,0,1,.21.5.7.7,0,0,1-.2.49.62.62,0,0,1-.48.22.71.71,0,0,1-.5-.19c-.82-.79-1.52-1.11-2.09-1S146,35,145.47,36a.72.72,0,0,1-.4.37.71.71,0,0,1-.94-.53,43.53,43.53,0,0,0,.81,10,.62.62,0,0,1-.08.51.76.76,0,0,1-.45.31.65.65,0,0,1-.52-.1.65.65,0,0,1-.29-.45A44.45,44.45,0,0,1,143,32.71a.62.62,0,0,1,.26-.45.64.64,0,0,1,.51-.16.67.67,0,0,1,.47.25.75.75,0,0,1,.16.52c-.09,1.06-.15,1.94-.19,2.66A.23.23,0,0,0,144.19,35.42Z"/><path class="cls-13" d="M144.25,46.74a.79.79,0,0,1-.41-.13.78.78,0,0,1-.34-.52,44.9,44.9,0,0,1-.64-13.39.79.79,0,0,1,.29-.52.78.78,0,0,1,1.11.11.79.79,0,0,1,.18.59c-.07.81-.12,1.53-.16,2.15a4,4,0,0,1,2.43-2.25c1.1-.27,2.27.17,3.47,1.31a.81.81,0,0,1,.24.57.79.79,0,0,1-.22.56.74.74,0,0,1-.55.24.83.83,0,0,1-.56-.21c-.8-.76-1.47-1.08-2-.94s-1.05.72-1.52,1.74a.77.77,0,0,1-.46.41.83.83,0,0,1-.6,0,.78.78,0,0,1-.28-.22,43,43,0,0,0,.81,9.56.65.65,0,0,1-.1.58.79.79,0,0,1-.49.35Zm-.6-14.56a.55.55,0,0,0-.38.15.57.57,0,0,0-.23.39,44.91,44.91,0,0,0,.65,13.34.55.55,0,0,0,.25.39.56.56,0,0,0,.45.09.61.61,0,0,0,.39-.27.53.53,0,0,0,.07-.44,43.2,43.2,0,0,1-.81-10l.18,0a.61.61,0,0,0,.82.46.61.61,0,0,0,.35-.32c.5-1.09,1-1.69,1.65-1.84s1.33.18,2.17,1a.66.66,0,0,0,.44.17.52.52,0,0,0,.41-.19.61.61,0,0,0,.18-.43.56.56,0,0,0-.19-.43A3.59,3.59,0,0,0,146.76,33a4.05,4.05,0,0,0-2.48,2.49.28.28,0,0,1,0,.12l-.17,0c0-.72.1-1.62.18-2.66a.58.58,0,0,0-.14-.46.56.56,0,0,0-.4-.22Z"/><path class="cls-12" d="M158.19,34.64a10.81,10.81,0,0,0-2.68-.91,2,2,0,0,0-2,.67.66.66,0,0,0-.16.34.86.86,0,0,0,.11.36,3.34,3.34,0,0,0,.32.48c.12.16.24.3.33.41a3.88,3.88,0,0,0,.5.4l.46.35.59.37c.3.22.5.35.59.41a11.92,11.92,0,0,1,1.19.88,5.49,5.49,0,0,1,.95,1.14,3.93,3.93,0,0,1,.62,1.6,1.63,1.63,0,0,1-.86,1.63,5.47,5.47,0,0,1-1.74.7,10.66,10.66,0,0,1-1.89.32,6,6,0,0,1-1.49,0,10.91,10.91,0,0,1-1.56-.59.69.69,0,0,1-.37-.4.59.59,0,0,1,0-.52.69.69,0,0,1,.39-.36.57.57,0,0,1,.51,0,9,9,0,0,0,1.29.48,4.22,4.22,0,0,0,1.16,0,8.5,8.5,0,0,0,1.6-.28,4.25,4.25,0,0,0,1.31-.51c.18-.12.26-.21.25-.27a2.89,2.89,0,0,0-.65-1.43,6.68,6.68,0,0,0-1.5-1.25l-.54-.36-.63-.41a5.82,5.82,0,0,1-.57-.41,6.07,6.07,0,0,1-.6-.52c-.14-.16-.3-.34-.48-.57a3.53,3.53,0,0,1-.43-.66,2.37,2.37,0,0,1-.27-1.1,2.33,2.33,0,0,1,.43-1,3.21,3.21,0,0,1,3.36-1.24,11.06,11.06,0,0,1,3.08,1,.7.7,0,0,1,.34.94.66.66,0,0,1-.39.36A.72.72,0,0,1,158.19,34.64Z"/><path class="cls-13" d="M153.62,43.93a5.64,5.64,0,0,1-.65,0,13.47,13.47,0,0,1-1.58-.6.84.84,0,0,1-.42-.45.7.7,0,0,1,0-.6.79.79,0,0,1,.43-.41.75.75,0,0,1,.59,0,9.2,9.2,0,0,0,1.26.48,4.58,4.58,0,0,0,1.15,0A8.33,8.33,0,0,0,156,42a4.27,4.27,0,0,0,1.29-.5c.19-.13.21-.18.21-.18a2.79,2.79,0,0,0-.63-1.38,6.5,6.5,0,0,0-1.48-1.23c-.07-.06-.25-.17-.54-.37l-.63-.4a6.18,6.18,0,0,1-.58-.42A6,6,0,0,1,153,37a6.37,6.37,0,0,1-.49-.57,4,4,0,0,1-.44-.67,1.92,1.92,0,0,1,.17-2.25,3.29,3.29,0,0,1,3.44-1.27,11.66,11.66,0,0,1,3.11,1,.8.8,0,0,1,.41.46.78.78,0,0,1,0,.6.76.76,0,0,1-.44.42.83.83,0,0,1-.6,0h0a10.8,10.8,0,0,0-2.65-.91,1.88,1.88,0,0,0-1.95.64.54.54,0,0,0-.15.28.9.9,0,0,0,.1.32,3.79,3.79,0,0,0,.31.47,5.08,5.08,0,0,0,.33.39,3.39,3.39,0,0,0,.48.39l.46.35.59.38.59.4a12.1,12.1,0,0,1,1.2.89,5.15,5.15,0,0,1,1,1.16,4.08,4.08,0,0,1,.63,1.63,1.72,1.72,0,0,1-.9,1.73,5.56,5.56,0,0,1-1.77.71,11.72,11.72,0,0,1-1.91.33C154.16,43.91,153.87,43.93,153.62,43.93Zm-1.9-2a.66.66,0,0,0-.23,0,.63.63,0,0,0-.34.32.54.54,0,0,0,0,.45.63.63,0,0,0,.33.35,10.51,10.51,0,0,0,1.54.58,5.78,5.78,0,0,0,1.46,0,10.29,10.29,0,0,0,1.87-.32,5.26,5.26,0,0,0,1.72-.68,1.55,1.55,0,0,0,.82-1.55,4.08,4.08,0,0,0-.6-1.56,5.31,5.31,0,0,0-.94-1.12c-.31-.26-.71-.56-1.18-.88-.09-.05-.29-.18-.6-.4l-.58-.37-.47-.36a3.12,3.12,0,0,1-.5-.41,3.89,3.89,0,0,1-.34-.41,3.51,3.51,0,0,1-.33-.49,1,1,0,0,1-.12-.41.66.66,0,0,1,.18-.39,2,2,0,0,1,2.12-.71,10.92,10.92,0,0,1,2.71.92.64.64,0,0,0,.47,0,.56.56,0,0,0,.33-.31.59.59,0,0,0,0-.47.61.61,0,0,0-.32-.35,10.87,10.87,0,0,0-3.05-1,3.12,3.12,0,0,0-3.27,1.19,2.11,2.11,0,0,0-.41,1,2.06,2.06,0,0,0,.26,1.05,3.27,3.27,0,0,0,.41.64c.18.23.34.41.48.56a6.78,6.78,0,0,0,.58.52c.25.19.44.33.57.41s.35.21.63.4.47.31.54.37A6.38,6.38,0,0,1,157,39.86a3,3,0,0,1,.67,1.48c0,.09,0,.2-.28.36a4.64,4.64,0,0,1-1.35.52,9.52,9.52,0,0,1-1.61.29,4.42,4.42,0,0,1-1.2,0,8.69,8.69,0,0,1-1.3-.49A.52.52,0,0,0,151.72,42Z"/><path class="cls-12" d="M163.75,34.11a4.8,4.8,0,0,1-.59,0,2.64,2.64,0,0,1-.7-.08.76.76,0,0,1-.32-.11.79.79,0,0,1-.43-.45.77.77,0,0,1,.21-.86,1,1,0,0,1,.38-.26l.27-.09A7.49,7.49,0,0,1,164.69,31a.68.68,0,0,1,.52.06.73.73,0,0,1,.35.4.63.63,0,0,1,0,.52.76.76,0,0,1-.41.36,5.75,5.75,0,0,0-.77.33h.48l1.77-.14,1.13-.08a.75.75,0,0,1,.51.19.61.61,0,0,1,.21.48.72.72,0,0,1-.19.51.58.58,0,0,1-.48.22c-.09,0-.44,0-1.06.08s-1.14.09-1.57.1a31.5,31.5,0,0,0,.11,6,4.48,4.48,0,0,0,.83,2.42.45.45,0,0,0,.4.13,2.1,2.1,0,0,0,1.05-.59.66.66,0,0,1,.51-.16.7.7,0,0,1,.48.24.64.64,0,0,1,.16.51.66.66,0,0,1-.24.49,3.5,3.5,0,0,1-1.77.91,1.87,1.87,0,0,1-1.58-.54,5.58,5.58,0,0,1-1.21-3.22A31.36,31.36,0,0,1,163.75,34.11Z"/><path class="cls-13" d="M166.42,44.12a2,2,0,0,1-1.4-.58,5.75,5.75,0,0,1-1.23-3.27,31.39,31.39,0,0,1-.14-6.07,3.53,3.53,0,0,1-.5,0,2.2,2.2,0,0,1-.72-.08,1,1,0,0,1-.34-.12.88.88,0,0,1-.47-.5.86.86,0,0,1,.24-1,1,1,0,0,1,.4-.27l.27-.1a7.77,7.77,0,0,1,2.13-1.21.76.76,0,0,1,.59.06.86.86,0,0,1,.4.46.72.72,0,0,1-.05.59.86.86,0,0,1-.45.41l-.38.14h0l1.76-.13c.69-.06,1.06-.08,1.14-.08a.84.84,0,0,1,.57.21.71.71,0,0,1,.25.55.85.85,0,0,1-.22.57.67.67,0,0,1-.55.25l-1.05.08c-.58.05-1.08.08-1.49.1a31.32,31.32,0,0,0,.11,5.91,4.36,4.36,0,0,0,.81,2.36.34.34,0,0,0,.32.11,2,2,0,0,0,1-.57.75.75,0,0,1,.58-.18.78.78,0,0,1,.54.27.77.77,0,0,1,.19.58.82.82,0,0,1-.28.55,3.64,3.64,0,0,1-1.82.93Zm-3.85-11.8-.24.09a.85.85,0,0,0-.34.23.67.67,0,0,0-.19.77.7.7,0,0,0,.38.4.83.83,0,0,0,.29.1,2.61,2.61,0,0,0,.69.08,4.91,4.91,0,0,0,.59,0h.09v.09a32.06,32.06,0,0,0,.13,6.13,5.55,5.55,0,0,0,1.18,3.17,1.81,1.81,0,0,0,1.51.51,3.47,3.47,0,0,0,1.72-.89.57.57,0,0,0,.21-.42.56.56,0,0,0-.14-.45A.63.63,0,0,0,168,42a.59.59,0,0,0-.44.14,2.23,2.23,0,0,1-1.1.62.56.56,0,0,1-.47-.16,4.41,4.41,0,0,1-.86-2.47,31.74,31.74,0,0,1-.11-6V34h.09c.42,0,1-.05,1.56-.11l1.07-.08a.51.51,0,0,0,.41-.18.62.62,0,0,0,.17-.45.52.52,0,0,0-.18-.41.68.68,0,0,0-.45-.17l-1.12.08-1.77.14h-.49l0-.18a6.2,6.2,0,0,1,.79-.32.73.73,0,0,0,.35-.32.59.59,0,0,0,0-.45.63.63,0,0,0-.76-.4,7.92,7.92,0,0,0-2.09,1.19l0,0Z"/><path class="cls-14" d="M63.46,23.46c-5.67,3.25-14.24,1.81-19.11-2.15-2.33-1.91-1.9-1.95.61-2.58,2.16-.53,3.43-.95,6,1A12.72,12.72,0,0,0,55.41,22a13.44,13.44,0,0,0,8.22-.1C68.06,20.29,68.2,20.74,63.46,23.46Z"/><path class="cls-15" d="M56,14.92A8.81,8.81,0,0,0,63.12,20c2.2.09,3.59-.49.09.79a12.39,12.39,0,0,1-7.51.06A11.17,11.17,0,0,1,52,18.94c-3.1-2.26-.21-3.05,2-4.92S54.87,12.48,56,14.92Z"/><path class="cls-16" d="M45.81,9.27a20.7,20.7,0,0,0,6.9,1.6c2.17.15,2.6-.09.93,1.94a11.73,11.73,0,0,1-2.79,2.4c-2.56,1.6-4.83-1.62-6.13-4.42C43.49,8.14,43.36,8.25,45.81,9.27Z"/><path class="cls-17" d="M43.07,15.54a26.68,26.68,0,0,0,.33-3.24c.07-1.83-.22-1.85.77-.25.54.87,1.19,1.82,1.76,2.6,1,1.3,1.7,2.16.12,2.6q-.79.22-1.59.39C41.88,18.18,42.69,17.81,43.07,15.54Z"/><path class="cls-12" d="M83.66,63.2a.51.51,0,0,1-.54-.54V58.17a.5.5,0,0,1,.54-.54H85a2.4,2.4,0,0,1,1.8.64,2.57,2.57,0,0,1,.7,1.71,6.31,6.31,0,0,1,0,.87,2.57,2.57,0,0,1-.7,1.71,2.4,2.4,0,0,1-1.8.64ZM86.84,60A1.67,1.67,0,0,0,85,58.26H83.77v4.31H85a1.67,1.67,0,0,0,1.85-1.74C86.85,60.54,86.85,60.27,86.84,60Z"/><path class="cls-13" d="M85,63.32H83.66a.63.63,0,0,1-.66-.66V58.17a.63.63,0,0,1,.66-.66H85a2.52,2.52,0,0,1,1.88.68A2.67,2.67,0,0,1,87.6,60a6.46,6.46,0,0,1,0,.88,2.63,2.63,0,0,1-.73,1.78A2.52,2.52,0,0,1,85,63.32Zm-1.33-5.58a.4.4,0,0,0-.43.43v4.49a.4.4,0,0,0,.43.43H85a2.29,2.29,0,0,0,1.72-.61,2.48,2.48,0,0,0,.67-1.64c0-.27,0-.55,0-.85a2.5,2.5,0,0,0-.67-1.64A2.29,2.29,0,0,0,85,57.74ZM85,62.69H83.65V58.14H85A1.78,1.78,0,0,1,87,60a5.88,5.88,0,0,1,0,.84A1.78,1.78,0,0,1,85,62.69Zm-1.11-.23H85a1.56,1.56,0,0,0,1.73-1.63,5.61,5.61,0,0,0,0-.82h0A1.55,1.55,0,0,0,85,58.37H83.88Z"/><path class="cls-12" d="M91.86,62.57a.29.29,0,0,1-.14.26,2.44,2.44,0,0,1-.66.3,3,3,0,0,1-1,.14c-1,0-1.59-.53-1.59-1.35s.57-1.29,1.6-1.29a4.42,4.42,0,0,1,1.11.17v-.32c0-.64-.32-.92-1-.92a2.74,2.74,0,0,0-1,.21c-.25.09-.46,0-.46-.25a.32.32,0,0,1,.21-.3A2.86,2.86,0,0,1,90.29,59a1.37,1.37,0,0,1,1.57,1.49Zm-.64-.17v-1a4.57,4.57,0,0,0-1.1-.18c-.57,0-1,.28-1,.73s.34.78,1,.78A1.57,1.57,0,0,0,91.22,62.4Z"/><path class="cls-13" d="M90.1,63.39c-1,0-1.71-.56-1.71-1.47s.68-1.4,1.72-1.4a4.23,4.23,0,0,1,1,.13v-.17c0-.57-.26-.8-.88-.8a2.55,2.55,0,0,0-.91.2.47.47,0,0,1-.45,0,.37.37,0,0,1-.17-.32.45.45,0,0,1,.28-.41,3.12,3.12,0,0,1,1.31-.26A1.48,1.48,0,0,1,92,60.45v2.12a.4.4,0,0,1-.19.36,2.79,2.79,0,0,1-.68.31A3.22,3.22,0,0,1,90.1,63.39Zm0-2.64c-.92,0-1.49.45-1.49,1.17s.56,1.24,1.48,1.24A3.12,3.12,0,0,0,91,63a2.69,2.69,0,0,0,.62-.28.18.18,0,0,0,.09-.17V60.45c0-.91-.49-1.37-1.45-1.37a2.85,2.85,0,0,0-1.22.24.21.21,0,0,0-.14.2.16.16,0,0,0,.07.13.25.25,0,0,0,.24,0,3,3,0,0,1,1-.21c.74,0,1.11.33,1.11,1V61l-.15,0A4.15,4.15,0,0,0,90.11,60.75Zm.06,2.06c-.94,0-1.13-.49-1.13-.9s.43-.84,1.08-.84a4.56,4.56,0,0,1,1.13.18l.09,0v1.18l0,0A1.68,1.68,0,0,1,90.17,62.81Zm0-1.51c-.52,0-.85.24-.85.61s.09.67.9.67a1.67,1.67,0,0,0,.94-.23v-.9A4.25,4.25,0,0,0,90.12,61.3Z"/><path class="cls-12" d="M94.41,63.27A1.15,1.15,0,0,1,93.19,62V58.5a.31.31,0,0,1,.31-.32.32.32,0,0,1,.33.32v.65H95a.31.31,0,0,1,.3.3.3.3,0,0,1-.3.29h-1.2V62c0,.42.2.69.61.69a3.41,3.41,0,0,0,.64-.14.29.29,0,0,1,.41.29.32.32,0,0,1-.26.31A2.28,2.28,0,0,1,94.41,63.27Z"/><path class="cls-13" d="M94.41,63.39A1.27,1.27,0,0,1,93.07,62V58.5a.44.44,0,1,1,.87,0V59H95a.41.41,0,1,1,0,.82H93.94V62c0,.38.17.57.5.57a2.34,2.34,0,0,0,.61-.14.45.45,0,0,1,.4.07.43.43,0,0,1-.19.76A2.44,2.44,0,0,1,94.41,63.39Zm-.91-5.1a.2.2,0,0,0-.2.21V62c0,.77.39,1.2,1.11,1.2a2.09,2.09,0,0,0,.78-.13c.16-.05.19-.13.19-.2a.2.2,0,0,0-.07-.16.2.2,0,0,0-.2,0,3.54,3.54,0,0,1-.67.14.71.71,0,0,1-.73-.8V59.63H95a.2.2,0,0,0,.19-.18.19.19,0,0,0-.19-.18H93.71V58.5A.21.21,0,0,0,93.5,58.29Z"/><path class="cls-12" d="M99.57,62.57a.3.3,0,0,1-.13.26,2.6,2.6,0,0,1-.66.3,3,3,0,0,1-1,.14c-1,0-1.59-.53-1.59-1.35s.58-1.29,1.6-1.29a4.49,4.49,0,0,1,1.12.17v-.32c0-.64-.32-.92-1-.92a2.78,2.78,0,0,0-1,.21c-.25.09-.46,0-.46-.25a.33.33,0,0,1,.21-.3A2.87,2.87,0,0,1,98,59a1.37,1.37,0,0,1,1.56,1.49Zm-.63-.17v-1a4.64,4.64,0,0,0-1.11-.18c-.56,0-1,.28-1,.73s.34.78,1,.78A1.59,1.59,0,0,0,98.94,62.4Z"/><path class="cls-13" d="M97.81,63.39c-1,0-1.7-.56-1.7-1.47s.67-1.4,1.71-1.4a4.16,4.16,0,0,1,1,.13v-.17c0-.57-.25-.8-.88-.8a2.59,2.59,0,0,0-.91.2.47.47,0,0,1-.45,0,.39.39,0,0,1-.16-.32.46.46,0,0,1,.27-.41A3.12,3.12,0,0,1,98,58.85a1.49,1.49,0,0,1,1.69,1.6v2.12a.42.42,0,0,1-.19.36,2.91,2.91,0,0,1-.69.31A3.18,3.18,0,0,1,97.81,63.39Zm0-2.64c-.91,0-1.48.45-1.48,1.17s.55,1.24,1.47,1.24a3,3,0,0,0,.93-.14,3.06,3.06,0,0,0,.63-.28.2.2,0,0,0,.09-.17V60.45c0-.91-.49-1.37-1.46-1.37a2.84,2.84,0,0,0-1.21.24.2.2,0,0,0-.14.2.15.15,0,0,0,.06.13.25.25,0,0,0,.24,0,3,3,0,0,1,1-.21c.75,0,1.11.33,1.11,1V61l-.14,0A4.22,4.22,0,0,0,97.82,60.75Zm.07,2.06c-.94,0-1.14-.49-1.14-.9s.44-.84,1.08-.84a4.49,4.49,0,0,1,1.13.18l.09,0v1.18l0,0A1.68,1.68,0,0,1,97.89,62.81Zm-.06-1.51c-.51,0-.85.24-.85.61s.1.67.91.67a1.63,1.63,0,0,0,.93-.23v-.9A4.18,4.18,0,0,0,97.83,61.3Z"/><path class="cls-12" d="M107,63.23a.28.28,0,0,1-.24-.11l-1.5-1.84c-.15-.18-.24-.26-.44-.26h-1V62.9a.33.33,0,0,1-.66,0V58.16a.5.5,0,0,1,.54-.53h1.63a1.89,1.89,0,0,1,1.28.45,1.59,1.59,0,0,1,.51,1.26,1.45,1.45,0,0,1-1.35,1.56l1.45,1.79a.29.29,0,0,1,.07.2A.34.34,0,0,1,107,63.23Zm-3.14-2.83h1.43c.81,0,1.21-.35,1.21-1.06s-.39-1.08-1.17-1.08h-1.47Z"/><path class="cls-13" d="M107,63.35a.43.43,0,0,1-.33-.15l-1.5-1.85c-.14-.17-.21-.21-.35-.21H104V62.9a.46.46,0,0,1-.44.45.45.45,0,0,1-.44-.45V58.16a.61.61,0,0,1,.65-.65h1.63a2,2,0,0,1,1.35.48,1.72,1.72,0,0,1,.56,1.35A1.56,1.56,0,0,1,106,61l1.33,1.64a.45.45,0,0,1,.1.27A.46.46,0,0,1,107,63.35Zm-3.26-2.44h1.08a.62.62,0,0,1,.53.3l1.5,1.84a.18.18,0,0,0,.15.07.24.24,0,0,0,.22-.23.17.17,0,0,0,0-.12l-1.57-2,.19,0A1.35,1.35,0,0,0,107,59.34a1.47,1.47,0,0,0-.48-1.17,1.76,1.76,0,0,0-1.2-.43h-1.63a.39.39,0,0,0-.42.42V62.9a.21.21,0,1,0,.42,0Zm1.55-.39h-1.55V58.14h1.59a1.14,1.14,0,0,1,1.29,1.2C106.6,59.88,106.37,60.52,105.27,60.52ZM104,60.29h1.32c.75,0,1.1-.3,1.1-.95s-.37-1-1.06-1H104Z"/><path class="cls-12" d="M111.87,60.93a.41.41,0,0,1-.47.46H109v.13a1.1,1.1,0,0,0,1.19,1.17,3.27,3.27,0,0,0,1-.21.31.31,0,0,1,.46.25.33.33,0,0,1-.18.29,2.9,2.9,0,0,1-1.26.25,1.69,1.69,0,0,1-1.81-1.71,7.26,7.26,0,0,1,0-1A1.69,1.69,0,0,1,110.16,59a1.61,1.61,0,0,1,1.24.49,1.71,1.71,0,0,1,.47,1.24Zm-.73-.08c.06,0,.09,0,.1-.1a1,1,0,0,0-1.07-1.21c-.77,0-1.17.51-1.15,1.31Z"/><path class="cls-13" d="M110.2,63.39a1.8,1.8,0,0,1-1.92-1.82,6.23,6.23,0,0,1,0-1,1.8,1.8,0,0,1,1.87-1.75,1.73,1.73,0,0,1,1.32.52,1.84,1.84,0,0,1,.5,1.32v.24a.52.52,0,0,1-.58.57h-2.26v0a1,1,0,0,0,1.07,1,2.88,2.88,0,0,0,.93-.2.48.48,0,0,1,.44,0,.4.4,0,0,1,.17.33.45.45,0,0,1-.23.39A3,3,0,0,1,110.2,63.39Zm0-4.31a1.56,1.56,0,0,0-1.64,1.54,5.85,5.85,0,0,0,0,.94,1.56,1.56,0,0,0,1.69,1.6,2.73,2.73,0,0,0,1.2-.24.19.19,0,0,0,.12-.19.17.17,0,0,0-.07-.14.23.23,0,0,0-.23,0,3.41,3.41,0,0,1-1,.21,1.21,1.21,0,0,1-1.3-1.28v-.25h2.49c.25,0,.35-.1.35-.34v-.24a1.6,1.6,0,0,0-.43-1.16A1.53,1.53,0,0,0,110.16,59.08Zm1,1.88h-2.23v-.11a1.42,1.42,0,0,1,.34-1.08,1.27,1.27,0,0,1,.92-.34,1.18,1.18,0,0,1,.87.34,1.28,1.28,0,0,1,.31,1A.2.2,0,0,1,111.14,61Zm-2-.23h2a1,1,0,0,0-.25-.8.93.93,0,0,0-.7-.27,1,1,0,0,0-.75.27A1.13,1.13,0,0,0,109.14,60.73Z"/><path class="cls-12" d="M114.76,60.88c.7.18,1,.56,1,1.12,0,.77-.61,1.27-1.54,1.27a2.21,2.21,0,0,1-1.42-.44.34.34,0,0,1-.06-.43.29.29,0,0,1,.45-.06,1.55,1.55,0,0,0,1.09.35c.53,0,.85-.27.85-.66s-.22-.47-.64-.57l-.57-.13c-.75-.19-1.12-.57-1.12-1.13,0-.76.6-1.24,1.48-1.24a1.78,1.78,0,0,1,1.14.35.31.31,0,0,1,0,.44c-.11.13-.25.14-.43,0a1.5,1.5,0,0,0-.77-.24c-.56,0-.83.21-.83.62s.16.42.62.55l.4.1Z"/><path class="cls-13" d="M114.27,63.39a2.29,2.29,0,0,1-1.49-.47.45.45,0,0,1-.08-.59.4.4,0,0,1,.6-.09,1.41,1.41,0,0,0,1,.34c.44,0,.73-.21.73-.55,0-.08,0-.32-.55-.46l-.35-.08a.92.92,0,0,1-.23-.06c-.8-.2-1.2-.62-1.2-1.23a1.41,1.41,0,0,1,1.6-1.35,1.86,1.86,0,0,1,1.21.37.39.39,0,0,1,.16.32.4.4,0,0,1-.11.3.41.41,0,0,1-.57,0,1.36,1.36,0,0,0-.71-.22c-.65,0-.72.29-.72.5s.09.32.54.44l.65.16c.76.2,1.15.61,1.15,1.23C115.93,62.83,115.26,63.39,114.27,63.39Zm-1.24-1a.2.2,0,0,0-.15.09.22.22,0,0,0,.05.27,2,2,0,0,0,1.34.42c.87,0,1.43-.45,1.43-1.16,0-.51-.32-.84-1-1l-.66-.16c-.35-.1-.71-.25-.71-.66s.17-.73,1-.73a1.62,1.62,0,0,1,.83.25c.16.09.23.05.28,0a.2.2,0,0,0,0-.14.17.17,0,0,0-.07-.14,1.7,1.7,0,0,0-1.07-.32c-.83,0-1.37.44-1.37,1.12,0,.5.34.84,1,1l0,0,.18,0,.36.08c.6.15.72.45.72.68,0,.47-.39.78-1,.78a1.65,1.65,0,0,1-1.16-.38A.22.22,0,0,0,113,62.38Z"/><path class="cls-12" d="M120.32,61.67a1.55,1.55,0,0,1-.54,1.15,1.91,1.91,0,0,1-2.46,0,1.55,1.55,0,0,1-.54-1.15,7.11,7.11,0,0,1,0-1.13,1.54,1.54,0,0,1,.53-1.13,1.94,1.94,0,0,1,2.47,0,1.53,1.53,0,0,1,.54,1.14A7.11,7.11,0,0,1,120.32,61.67Zm-2.9,0a1.13,1.13,0,0,0,2.26,0,9,9,0,0,0,0-1,1.14,1.14,0,0,0-2.26,0A9,9,0,0,0,117.42,61.63Z"/><path class="cls-13" d="M118.55,63.39a1.87,1.87,0,0,1-1.31-.48,1.75,1.75,0,0,1-.58-1.24,10.84,10.84,0,0,1,0-1.14,1.73,1.73,0,0,1,.57-1.21,2,2,0,0,1,1.32-.47,1.9,1.9,0,0,1,1.31.47,1.67,1.67,0,0,1,.58,1.21,10.84,10.84,0,0,1,0,1.14,1.75,1.75,0,0,1-.58,1.24A1.87,1.87,0,0,1,118.55,63.39Zm0-4.31a1.71,1.71,0,0,0-1.17.42,1.43,1.43,0,0,0-.49,1,10.46,10.46,0,0,0,0,1.12,1.51,1.51,0,0,0,.5,1.08,1.67,1.67,0,0,0,1.16.42,1.63,1.63,0,0,0,1.15-.42,1.48,1.48,0,0,0,.51-1.08h0a10.27,10.27,0,0,0,0-1.11,1.45,1.45,0,0,0-.5-1.06A1.69,1.69,0,0,0,118.55,59.08Zm0,3.7a1.18,1.18,0,0,1-1.24-1.14h0a6.25,6.25,0,0,1,0-1.06,1.25,1.25,0,0,1,2.48,0,6.25,6.25,0,0,1,0,1.06A1.18,1.18,0,0,1,118.55,62.78Zm-1-1.16a1,1,0,0,0,2,0,5.9,5.9,0,0,0,0-1,.93.93,0,0,0-1-.91.94.94,0,0,0-1,.91A8.85,8.85,0,0,0,117.53,61.62Z"/><path class="cls-12" d="M121.54,59.35a.32.32,0,1,1,.64,0v2.31a1,1,0,0,0,1.07,1,1.92,1.92,0,0,0,1.1-.29v-3a.32.32,0,0,1,.32-.33.32.32,0,0,1,.32.33v3.19a.32.32,0,0,1-.13.26,2.75,2.75,0,0,1-1.61.47,1.54,1.54,0,0,1-1.71-1.62Z"/><path class="cls-13" d="M123.25,63.39a1.66,1.66,0,0,1-1.83-1.74v-2.3a.44.44,0,0,1,.44-.45.45.45,0,0,1,.44.45v2.31a.84.84,0,0,0,1,.89,1.82,1.82,0,0,0,1-.24v-3a.44.44,0,0,1,.44-.45.45.45,0,0,1,.44.45v3.18a.4.4,0,0,1-.19.36A2.84,2.84,0,0,1,123.25,63.39Zm-1.39-4.26a.21.21,0,0,0-.21.22v2.3a1.43,1.43,0,0,0,1.6,1.51,2.57,2.57,0,0,0,1.54-.46.18.18,0,0,0,.09-.17V59.35a.22.22,0,0,0-.21-.22.21.21,0,0,0-.21.22v3.08l0,0a2,2,0,0,1-1.16.32,1.07,1.07,0,0,1-1.18-1.12V59.35A.22.22,0,0,0,121.86,59.13Z"/><path class="cls-12" d="M128.63,59.35a.3.3,0,0,1-.31.3l-.27,0a1.71,1.71,0,0,0-.36,0c-.43,0-.65.25-.65.72v2.61a.33.33,0,0,1-.65,0V60.23a1.18,1.18,0,0,1,1.3-1.27,2.57,2.57,0,0,1,.69.09A.28.28,0,0,1,128.63,59.35Z"/><path class="cls-13" d="M126.72,63.35a.43.43,0,0,1-.44-.44V60.23a1.28,1.28,0,0,1,1.41-1.38,2.53,2.53,0,0,1,.72.09.41.41,0,0,1-.09.82l-.29,0-.34,0c-.37,0-.53.19-.53.6v2.61A.43.43,0,0,1,126.72,63.35Zm1-4.27a1.06,1.06,0,0,0-1.18,1.15v2.68a.21.21,0,0,0,.42,0V60.3a.72.72,0,0,1,.76-.83h0l.38,0a1.08,1.08,0,0,0,.25,0,.18.18,0,0,0,.2-.18c0-.07,0-.15-.17-.19A2.48,2.48,0,0,0,127.69,59.08Z"/><path class="cls-12" d="M132.09,62a.33.33,0,0,1,.31-.21.31.31,0,0,1,.31.33,1.1,1.1,0,0,1-.46.76,1.67,1.67,0,0,1-1.18.4,1.79,1.79,0,0,1-1.25-.45,1.62,1.62,0,0,1-.53-1.15,7.1,7.1,0,0,1,0-1.13,1.56,1.56,0,0,1,.53-1.14,1.83,1.83,0,0,1,1.25-.44,1.65,1.65,0,0,1,1.18.42,1.11,1.11,0,0,1,.44.75.31.31,0,0,1-.3.33.32.32,0,0,1-.31-.22,1.05,1.05,0,0,0-1-.67,1.07,1.07,0,0,0-1.15,1,9.15,9.15,0,0,0,0,1.05,1.09,1.09,0,0,0,1.15,1A1.06,1.06,0,0,0,132.09,62Z"/><path class="cls-13" d="M131.07,63.39a1.89,1.89,0,0,1-1.33-.48,1.82,1.82,0,0,1-.57-1.24,10.84,10.84,0,0,1,0-1.14,1.7,1.7,0,0,1,.57-1.21,2,2,0,0,1,1.33-.47,1.71,1.71,0,0,1,1.25.44,1.25,1.25,0,0,1,.49.84.43.43,0,0,1-.42.44.44.44,0,0,1-.42-.28.92.92,0,0,0-.89-.61.94.94,0,0,0-1,.91,5.87,5.87,0,0,0,0,1A1,1,0,0,0,132,62h0a.43.43,0,0,1,.41-.29.43.43,0,0,1,.42.45,1.18,1.18,0,0,1-.49.84A1.79,1.79,0,0,1,131.07,63.39Zm0-4.31a1.66,1.66,0,0,0-1.17.41,1.44,1.44,0,0,0-.5,1,10.46,10.46,0,0,0,0,1.12,1.55,1.55,0,0,0,.5,1.08,1.65,1.65,0,0,0,1.17.42,1.61,1.61,0,0,0,1.11-.38,1,1,0,0,0,.41-.67.2.2,0,0,0-.19-.22.22.22,0,0,0-.2.15,1.16,1.16,0,0,1-1.12.74,1.19,1.19,0,0,1-1.26-1.14,6.34,6.34,0,0,1,0-1.07,1.24,1.24,0,0,1,2.37-.37.19.19,0,0,0,.2.14.19.19,0,0,0,.19-.21,1,1,0,0,0-.41-.67A1.52,1.52,0,0,0,131.07,59.08Z"/><path class="cls-12" d="M137.19,60.93a.41.41,0,0,1-.47.46h-2.37v.13a1.09,1.09,0,0,0,1.18,1.17,3.27,3.27,0,0,0,1-.21.31.31,0,0,1,.46.25.32.32,0,0,1-.17.29,3,3,0,0,1-1.27.25,1.67,1.67,0,0,1-1.8-1.71,6,6,0,0,1,0-1A1.69,1.69,0,0,1,135.48,59a1.61,1.61,0,0,1,1.24.49,1.71,1.71,0,0,1,.47,1.24Zm-.73-.08a.09.09,0,0,0,.1-.1,1,1,0,0,0-1.07-1.21c-.76,0-1.17.51-1.14,1.31Z"/><path class="cls-13" d="M135.52,63.39a1.8,1.8,0,0,1-1.92-1.82,6.23,6.23,0,0,1,0-1,1.8,1.8,0,0,1,1.87-1.75,1.75,1.75,0,0,1,1.33.52,1.82,1.82,0,0,1,.5,1.32v.24a.52.52,0,0,1-.59.57h-2.26v0a1,1,0,0,0,1.07,1,2.83,2.83,0,0,0,.93-.2.48.48,0,0,1,.44,0,.41.41,0,0,1,.18.33.44.44,0,0,1-.23.39A3,3,0,0,1,135.52,63.39Zm0-4.31a1.56,1.56,0,0,0-1.64,1.54,5.83,5.83,0,0,0,0,.94,1.57,1.57,0,0,0,1.69,1.6,2.78,2.78,0,0,0,1.21-.24.21.21,0,0,0,.12-.19.19.19,0,0,0-.08-.14.23.23,0,0,0-.23,0,3.3,3.3,0,0,1-1,.21,1.21,1.21,0,0,1-1.3-1.28v-.25h2.49c.25,0,.36-.1.36-.34v-.24a1.61,1.61,0,0,0-.44-1.16A1.53,1.53,0,0,0,135.48,59.08Zm1,1.88h-2.23v-.11a1.48,1.48,0,0,1,.35-1.08,1.25,1.25,0,0,1,.91-.34,1.17,1.17,0,0,1,.87.34,1.32,1.32,0,0,1,.32,1A.21.21,0,0,1,136.46,61Zm-2-.23h2a1,1,0,0,0-.25-.8,1,1,0,0,0-.71-.27,1,1,0,0,0-.75.27A1.22,1.22,0,0,0,134.46,60.73Z"/><path class="cls-12" d="M144.14,61.71a.3.3,0,0,1,.3-.21.33.33,0,0,1,.31.31.39.39,0,0,1,0,.14,2,2,0,0,1-.79,1,2.21,2.21,0,0,1-1.23.36,2.11,2.11,0,0,1-1.58-.63,2.38,2.38,0,0,1-.69-1.59,9.26,9.26,0,0,1,0-1.29,2.47,2.47,0,0,1,.69-1.58,2.15,2.15,0,0,1,1.58-.63,2.21,2.21,0,0,1,1.23.36,2,2,0,0,1,.79,1,.4.4,0,0,1,0,.15.32.32,0,0,1-.31.3.3.3,0,0,1-.3-.21,1.57,1.57,0,0,0-1.44-.94,1.51,1.51,0,0,0-1.12.46,1.85,1.85,0,0,0-.5,1.17c0,.4,0,.82,0,1.22a1.85,1.85,0,0,0,.5,1.17,1.5,1.5,0,0,0,1.12.45A1.57,1.57,0,0,0,144.14,61.71Z"/><path class="cls-13" d="M142.7,63.4a2.3,2.3,0,0,1-1.66-.66,2.49,2.49,0,0,1-.72-1.67,7.06,7.06,0,0,1,0-1.3,2.53,2.53,0,0,1,.72-1.66,2.29,2.29,0,0,1,1.66-.67,2.25,2.25,0,0,1,1.29.39,2.05,2.05,0,0,1,.84,1,.81.81,0,0,1,0,.2.43.43,0,0,1-.42.41.41.41,0,0,1-.41-.27,1.42,1.42,0,0,0-1.33-.87,1.36,1.36,0,0,0-1,.42,1.66,1.66,0,0,0-.47,1.1,8.14,8.14,0,0,0,0,1.21,1.66,1.66,0,0,0,.47,1.09,1.36,1.36,0,0,0,1,.42,1.44,1.44,0,0,0,1.33-.88.41.41,0,0,1,.41-.27.44.44,0,0,1,.42.42,1.41,1.41,0,0,1,0,.18,2.17,2.17,0,0,1-.85,1A2.25,2.25,0,0,1,142.7,63.4Zm0-5.73a2.05,2.05,0,0,0-1.5.6,2.38,2.38,0,0,0-.66,1.51,9.11,9.11,0,0,0,0,1.28,2.28,2.28,0,0,0,.66,1.51,2,2,0,0,0,1.5.6,2.11,2.11,0,0,0,1.17-.35,1.9,1.9,0,0,0,.75-.91.34.34,0,0,0,0-.1.21.21,0,0,0-.19-.19.2.2,0,0,0-.2.13h0a1.67,1.67,0,0,1-1.54,1,1.58,1.58,0,0,1-1.2-.49A2,2,0,0,1,141,61a8.55,8.55,0,0,1,0-1.24,1.93,1.93,0,0,1,.53-1.24,1.58,1.58,0,0,1,1.2-.49,1.68,1.68,0,0,1,1.54,1,.2.2,0,0,0,.39,0,.27.27,0,0,0,0-.12,1.78,1.78,0,0,0-.74-.89A2,2,0,0,0,142.7,57.67Z"/><path class="cls-12" d="M149.2,60.93a.41.41,0,0,1-.47.46h-2.37v.13a1.09,1.09,0,0,0,1.18,1.17,3.27,3.27,0,0,0,1-.21.31.31,0,0,1,.46.25.32.32,0,0,1-.17.29,3,3,0,0,1-1.27.25,1.67,1.67,0,0,1-1.8-1.71,6,6,0,0,1,0-1A1.69,1.69,0,0,1,147.49,59a1.61,1.61,0,0,1,1.24.49,1.71,1.71,0,0,1,.47,1.24Zm-.73-.08a.09.09,0,0,0,.1-.1,1,1,0,0,0-1.07-1.21c-.76,0-1.17.51-1.14,1.31Z"/><path class="cls-13" d="M147.53,63.39a1.8,1.8,0,0,1-1.92-1.82,6.23,6.23,0,0,1,0-1,1.8,1.8,0,0,1,1.87-1.75,1.75,1.75,0,0,1,1.33.52,1.82,1.82,0,0,1,.5,1.32v.24a.52.52,0,0,1-.59.57h-2.26v0a1,1,0,0,0,1.07,1,2.83,2.83,0,0,0,.93-.2.48.48,0,0,1,.44,0,.41.41,0,0,1,.18.33.44.44,0,0,1-.23.39A3,3,0,0,1,147.53,63.39Zm0-4.31a1.56,1.56,0,0,0-1.64,1.54,5.83,5.83,0,0,0,0,.94,1.57,1.57,0,0,0,1.69,1.6,2.78,2.78,0,0,0,1.21-.24.21.21,0,0,0,.12-.19.19.19,0,0,0-.08-.14.23.23,0,0,0-.23,0,3.3,3.3,0,0,1-1,.21,1.21,1.21,0,0,1-1.3-1.28v-.25h2.49c.25,0,.36-.1.36-.34v-.24a1.61,1.61,0,0,0-.44-1.16A1.53,1.53,0,0,0,147.49,59.08Zm1,1.88h-2.23v-.11a1.48,1.48,0,0,1,.35-1.08,1.25,1.25,0,0,1,.91-.34,1.17,1.17,0,0,1,.87.34,1.32,1.32,0,0,1,.32,1A.21.21,0,0,1,148.47,61Zm-2-.23h2a1,1,0,0,0-.25-.8,1,1,0,0,0-.71-.27,1,1,0,0,0-.75.27A1.22,1.22,0,0,0,146.47,60.73Z"/><path class="cls-12" d="M153.84,62.9a.31.31,0,0,1-.32.33.32.32,0,0,1-.32-.33V60.62a1,1,0,0,0-1.07-1,2.08,2.08,0,0,0-1.1.26V62.9a.31.31,0,0,1-.32.33.32.32,0,0,1-.32-.33V59.68a.36.36,0,0,1,.14-.29,2.92,2.92,0,0,1,1.62-.43,1.49,1.49,0,0,1,1.69,1.63Z"/><path class="cls-13" d="M153.52,63.35a.44.44,0,0,1-.44-.45V60.62a.87.87,0,0,0-1-.93,2,2,0,0,0-1,.22v3a.43.43,0,0,1-.44.45.45.45,0,0,1-.44-.45V59.68a.47.47,0,0,1,.19-.38,3,3,0,0,1,1.69-.45,1.6,1.6,0,0,1,1.8,1.74V62.9A.43.43,0,0,1,153.52,63.35Zm-1.39-3.89a1.08,1.08,0,0,1,1.18,1.16V62.9a.21.21,0,0,0,.21.22.19.19,0,0,0,.2-.22V60.59a1.38,1.38,0,0,0-1.57-1.51,2.72,2.72,0,0,0-1.55.41.21.21,0,0,0-.1.19V62.9a.21.21,0,1,0,.42,0V59.77l.05,0A2.29,2.29,0,0,1,152.13,59.46Z"/><path class="cls-12" d="M156.42,63.27A1.16,1.16,0,0,1,155.19,62V58.5a.32.32,0,0,1,.32-.32.32.32,0,0,1,.33.32v.65H157a.31.31,0,0,1,.3.3.3.3,0,0,1-.3.29h-1.2V62c0,.42.19.69.61.69a3.37,3.37,0,0,0,.63-.14c.26-.07.42.07.42.29a.32.32,0,0,1-.26.31A2.28,2.28,0,0,1,156.42,63.27Z"/><path class="cls-13" d="M156.42,63.39A1.27,1.27,0,0,1,155.08,62V58.5a.44.44,0,1,1,.87,0V59H157a.41.41,0,1,1,0,.82H156V62c0,.38.17.57.5.57a2.23,2.23,0,0,0,.6-.14.47.47,0,0,1,.41.07.42.42,0,0,1,.15.34.43.43,0,0,1-.34.42A2.48,2.48,0,0,1,156.42,63.39Zm-.91-5.1a.2.2,0,0,0-.2.21V62c0,.77.39,1.2,1.11,1.2a2.13,2.13,0,0,0,.78-.13c.16-.05.18-.13.18-.2a.2.2,0,0,0-.06-.16.21.21,0,0,0-.21,0,3.35,3.35,0,0,1-.66.14.7.7,0,0,1-.73-.8V59.63H157a.19.19,0,0,0,.18-.18.18.18,0,0,0-.18-.18h-1.32V58.5A.21.21,0,0,0,155.51,58.29Z"/><path class="cls-12" d="M161.8,60.93a.41.41,0,0,1-.47.46H159v.13a1.1,1.1,0,0,0,1.19,1.17,3.27,3.27,0,0,0,1-.21.31.31,0,0,1,.46.25.34.34,0,0,1-.17.29,3,3,0,0,1-1.27.25,1.67,1.67,0,0,1-1.8-1.71,6,6,0,0,1,0-1A1.69,1.69,0,0,1,160.09,59a1.61,1.61,0,0,1,1.24.49,1.71,1.71,0,0,1,.47,1.24Zm-.73-.08a.09.09,0,0,0,.1-.1,1,1,0,0,0-1.07-1.21c-.76,0-1.17.51-1.15,1.31Z"/><path class="cls-13" d="M160.13,63.39a1.8,1.8,0,0,1-1.92-1.82,6.23,6.23,0,0,1,0-1,1.8,1.8,0,0,1,1.87-1.75,1.75,1.75,0,0,1,1.33.52,1.82,1.82,0,0,1,.5,1.32v.24a.52.52,0,0,1-.59.57h-2.26v0a1,1,0,0,0,1.07,1,2.83,2.83,0,0,0,.93-.2.48.48,0,0,1,.44,0,.41.41,0,0,1,.18.33.43.43,0,0,1-.24.39A3,3,0,0,1,160.13,63.39Zm0-4.31a1.56,1.56,0,0,0-1.64,1.54,5.83,5.83,0,0,0,0,.94,1.57,1.57,0,0,0,1.69,1.6,2.78,2.78,0,0,0,1.21-.24.21.21,0,0,0,.12-.19.19.19,0,0,0-.08-.14.23.23,0,0,0-.23,0,3.3,3.3,0,0,1-1,.21,1.21,1.21,0,0,1-1.3-1.28v-.25h2.49c.25,0,.36-.1.36-.34v-.24a1.61,1.61,0,0,0-.44-1.16A1.53,1.53,0,0,0,160.09,59.08Zm1,1.88h-2.23v-.11a1.48,1.48,0,0,1,.35-1.08,1.25,1.25,0,0,1,.91-.34,1.17,1.17,0,0,1,.87.34,1.32,1.32,0,0,1,.32,1A.21.21,0,0,1,161.07,61Zm-2-.23h2a1.09,1.09,0,0,0-.25-.8,1,1,0,0,0-.71-.27,1,1,0,0,0-.75.27A1.17,1.17,0,0,0,159.07,60.73Z"/><path class="cls-12" d="M165.18,59.35a.31.31,0,0,1-.32.3l-.27,0a1.56,1.56,0,0,0-.35,0c-.43,0-.65.25-.65.72v2.61a.33.33,0,0,1-.65,0V60.23a1.18,1.18,0,0,1,1.3-1.27,2.69,2.69,0,0,1,.69.09A.29.29,0,0,1,165.18,59.35Z"/><path class="cls-13" d="M163.26,63.35a.44.44,0,0,1-.44-.44V60.23a1.28,1.28,0,0,1,1.42-1.38,2.57,2.57,0,0,1,.72.09.41.41,0,0,1,.34.41.43.43,0,0,1-.44.41l-.29,0-.33,0c-.37,0-.53.19-.53.6v2.61A.44.44,0,0,1,163.26,63.35Zm1-4.27a1.06,1.06,0,0,0-1.19,1.15v2.68a.21.21,0,0,0,.21.21.21.21,0,0,0,.22-.21V60.3c0-.67.41-.82.75-.83h0a2.34,2.34,0,0,1,.38,0,1.13,1.13,0,0,0,.25,0,.19.19,0,0,0,.21-.18c0-.07,0-.15-.17-.19A2.59,2.59,0,0,0,164.24,59.08Z"/></svg>