<svg width="180" height="80" viewBox="0 0 180 80" fill="none" xmlns="http://www.w3.org/2000/svg">
<path fill-rule="evenodd" clip-rule="evenodd" d="M0 10C0 4.47716 4.47715 0 10 0H170C175.523 0 180 4.47715 180 10V69.7459C180 75.2687 175.523 79.7459 170 79.7459H10C4.47716 79.7459 0 75.2687 0 69.7459V10Z" fill="#F2F3F5"/>
<path fill-rule="evenodd" clip-rule="evenodd" d="M144.439 43.7203C144.418 43.9114 144.396 44.1024 144.372 44.2931H151.227C151.827 43.5046 152.286 42.6124 152.57 41.6498H148.021C147.27 42.8204 145.956 43.6246 144.439 43.7203" fill="#131B3C"/>
<path fill-rule="evenodd" clip-rule="evenodd" d="M135.699 41.6497C135.983 42.6124 136.442 43.5045 137.041 44.2931H138.778C138.204 43.4972 137.765 42.6074 137.496 41.6497H135.699Z" fill="#131B3C"/>
<mask id="mask0_626_8322" style="mask-type:luminance" maskUnits="userSpaceOnUse" x="148" y="38" width="5" height="3">
<path fill-rule="evenodd" clip-rule="evenodd" d="M148.475 38.0574H152.895V40.7009H148.475V38.0574Z" fill="white"/>
</mask>
<g mask="url(#mask0_626_8322)">
<path fill-rule="evenodd" clip-rule="evenodd" d="M148.475 40.7009H152.786C152.858 40.2702 152.895 39.8289 152.895 39.3792C152.895 38.9293 152.858 38.488 152.786 38.0574H148.475C148.613 38.4744 148.689 38.9183 148.689 39.3792C148.689 39.8401 148.613 40.284 148.475 40.7009" fill="#131B3C"/>
</g>
<path fill-rule="evenodd" clip-rule="evenodd" d="M137.295 38.0574H135.482C135.411 38.488 135.373 38.9293 135.373 39.3791C135.373 39.8289 135.411 40.2702 135.482 40.7009H137.29C137.222 40.2748 137.182 39.84 137.182 39.396C137.182 38.9402 137.224 38.4941 137.295 38.0574" fill="#131B3C"/>
<path fill-rule="evenodd" clip-rule="evenodd" d="M150.387 33.5162C148.797 31.9688 146.583 31.0084 144.134 31.0084C144.096 31.0084 144.057 31.0107 144.019 31.0112C144.167 31.8435 144.289 32.679 144.39 33.5162H150.387Z" fill="#131B3C"/>
<path fill-rule="evenodd" clip-rule="evenodd" d="M143.974 31.0123C141.589 31.0535 139.437 32.0029 137.882 33.5161H139.593C140.754 32.3172 142.266 31.4338 143.974 31.0123" fill="#131B3C"/>
<path fill-rule="evenodd" clip-rule="evenodd" d="M137.041 34.4651C136.442 35.2536 135.983 36.1457 135.699 37.1085H137.505C137.779 36.1501 138.222 35.2601 138.8 34.4651H137.041Z" fill="#131B3C"/>
<path fill-rule="evenodd" clip-rule="evenodd" d="M148.021 37.1085H152.569C152.286 36.1457 151.827 35.2536 151.227 34.4651H144.494C144.513 34.6585 144.531 34.8521 144.547 35.0457C146.018 35.172 147.288 35.9659 148.021 37.1085" fill="#131B3C"/>
<path fill-rule="evenodd" clip-rule="evenodd" d="M143.809 47.7374C142.154 47.2969 140.692 46.4182 139.563 45.2421H137.882C139.472 46.7895 141.685 47.7498 144.134 47.7498C146.583 47.7498 148.797 46.7895 150.387 45.2421H144.243C144.122 46.0764 143.979 46.9087 143.809 47.7374" fill="#131B3C"/>
<path fill-rule="evenodd" clip-rule="evenodd" d="M144.049 31C144.024 31.0062 143.999 31.0153 143.974 31.0217C144 31.0211 144.026 31.0201 144.053 31.0199C144.052 31.0131 144.051 31.0066 144.049 31" fill="#37B34A"/>
<path fill-rule="evenodd" clip-rule="evenodd" d="M144.135 43.731C142.49 43.731 141.049 42.898 140.248 41.6497H137.496C137.766 42.6074 138.205 43.4972 138.778 44.2931H144.372C144.396 44.1022 144.418 43.9113 144.439 43.7202C144.338 43.7267 144.237 43.731 144.135 43.731" fill="#3075BA"/>
<path fill-rule="evenodd" clip-rule="evenodd" d="M139.794 38.0574H137.294C137.224 38.4941 137.182 38.9402 137.182 39.396C137.182 39.84 137.222 40.2748 137.289 40.7009H139.794C139.655 40.2839 139.579 39.84 139.579 39.3791C139.579 38.9182 139.655 38.4743 139.794 38.0574" fill="#3075BA"/>
<path fill-rule="evenodd" clip-rule="evenodd" d="M139.592 33.5161H144.389C144.288 32.679 144.166 31.8435 144.018 31.0112C144.003 31.0113 143.988 31.012 143.973 31.0124C142.266 31.4337 140.753 32.3172 139.592 33.5161" fill="#3075BA"/>
<path fill-rule="evenodd" clip-rule="evenodd" d="M144.134 35.0271C144.273 35.0271 144.411 35.0342 144.547 35.0457C144.53 34.8521 144.513 34.6585 144.494 34.4651H138.8C138.222 35.2602 137.779 36.1503 137.505 37.1085H140.248C141.049 35.8601 142.489 35.0271 144.134 35.0271" fill="#3075BA"/>
<path fill-rule="evenodd" clip-rule="evenodd" d="M143.809 47.7374C143.979 46.9087 144.121 46.0764 144.243 45.2421H139.562C140.691 46.4182 142.154 47.2969 143.809 47.7374" fill="#3075BA"/>
<path fill-rule="evenodd" clip-rule="evenodd" d="M144.349 37.646V39.2092H146.069C146.053 38.6457 145.959 38.1129 145.808 37.646H144.349Z" fill="#DD1C4D"/>
<path fill-rule="evenodd" clip-rule="evenodd" d="M144.349 39.5483V41.1116H145.808C145.959 40.6447 146.053 40.1119 146.069 39.5483H144.349Z" fill="#DD1C4D"/>
<path fill-rule="evenodd" clip-rule="evenodd" d="M143.994 41.1116V39.5483H142.273C142.289 40.1119 142.383 40.6447 142.535 41.1116H143.994Z" fill="#DD1C4D"/>
<path fill-rule="evenodd" clip-rule="evenodd" d="M143.994 42.832V41.4506H142.659C142.975 42.2103 143.456 42.7361 143.994 42.832" fill="#DD1C4D"/>
<path fill-rule="evenodd" clip-rule="evenodd" d="M143.994 39.2092V37.646H142.535C142.383 38.1129 142.289 38.6457 142.273 39.2092H143.994Z" fill="#DD1C4D"/>
<path fill-rule="evenodd" clip-rule="evenodd" d="M146.074 41.4506C145.885 41.9513 145.629 42.3684 145.324 42.6683C145.515 42.6072 145.699 42.5318 145.874 42.4427C146.338 42.197 146.74 41.8573 147.052 41.4506H146.074Z" fill="#DD1C4D"/>
<path fill-rule="evenodd" clip-rule="evenodd" d="M143.994 37.3069V35.926C143.992 35.926 143.99 35.926 143.989 35.9261C143.453 36.0246 142.974 36.5496 142.659 37.3069H143.994Z" fill="#DD1C4D"/>
<path fill-rule="evenodd" clip-rule="evenodd" d="M144.349 41.4506V42.832C144.887 42.7361 145.367 42.2103 145.683 41.4506H144.349Z" fill="#DD1C4D"/>
<path fill-rule="evenodd" clip-rule="evenodd" d="M143.02 42.6683C142.716 42.3684 142.459 41.951 142.27 41.4506H141.261C141.699 42.0115 142.311 42.4412 143.02 42.6683" fill="#DD1C4D"/>
<path fill-rule="evenodd" clip-rule="evenodd" d="M142.156 41.1116C142.017 40.6412 141.933 40.1127 141.919 39.5483H140.545C140.574 40.1156 140.746 40.6473 141.028 41.1116H142.156Z" fill="#DD1C4D"/>
<path fill-rule="evenodd" clip-rule="evenodd" d="M146.424 39.5483C146.41 40.1127 146.327 40.6412 146.188 41.1116H147.281C147.558 40.6464 147.726 40.1148 147.751 39.5483H146.424Z" fill="#DD1C4D"/>
<path fill-rule="evenodd" clip-rule="evenodd" d="M146.188 37.646C146.327 38.1164 146.41 38.6449 146.424 39.2092H147.749C147.717 38.6414 147.541 38.1097 147.256 37.646H146.188Z" fill="#DD1C4D"/>
<path fill-rule="evenodd" clip-rule="evenodd" d="M144.39 35.934C144.376 35.933 144.363 35.9317 144.349 35.931V37.3069H145.683C145.376 36.5667 144.911 36.0489 144.39 35.934" fill="#DD1C4D"/>
<path fill-rule="evenodd" clip-rule="evenodd" d="M145.37 36.136C145.654 36.4319 145.895 36.832 146.074 37.3069H147.019C146.602 36.7793 146.031 36.3686 145.37 36.136" fill="#DD1C4D"/>
<path fill-rule="evenodd" clip-rule="evenodd" d="M141.261 37.3069H142.27C142.459 36.8062 142.716 36.389 143.02 36.089C142.311 36.3161 141.699 36.7459 141.261 37.3069" fill="#DD1C4D"/>
<path fill-rule="evenodd" clip-rule="evenodd" d="M141.919 39.2092C141.933 38.6449 142.017 38.1164 142.156 37.646H141.028C140.746 38.1103 140.574 38.6418 140.545 39.2092H141.919Z" fill="#DD1C4D"/>
<mask id="mask1_626_8322" style="mask-type:luminance" maskUnits="userSpaceOnUse" x="28" y="31" width="125" height="17">
<path fill-rule="evenodd" clip-rule="evenodd" d="M28 47.8358H152.896V31H28V47.8358Z" fill="white"/>
</mask>
<g mask="url(#mask1_626_8322)">
<path fill-rule="evenodd" clip-rule="evenodd" d="M28 47.5645H31.6434V31.7416H28V47.5645Z" fill="#131B3C"/>
<path fill-rule="evenodd" clip-rule="evenodd" d="M33.2754 39.6983V39.653C33.2754 35.1549 36.8243 31.4703 41.9109 31.4703C45.0338 31.4703 46.9029 32.4649 48.4408 33.9116L46.1223 36.4658C44.8447 35.3583 43.5434 34.6802 41.8873 34.6802C39.0955 34.6802 37.0845 36.8953 37.0845 39.6078V39.653C37.0845 42.3656 39.0483 44.6259 41.8873 44.6259C43.78 44.6259 44.9393 43.9026 46.2406 42.7723L48.5591 45.0102C46.8557 46.7506 44.963 47.8357 41.769 47.8357C36.8953 47.8357 33.2754 44.2416 33.2754 39.6983" fill="#131B3C"/>
<path fill-rule="evenodd" clip-rule="evenodd" d="M48.4893 39.6983V39.653C48.4893 35.1549 52.1565 31.4703 57.1721 31.4703C60.1532 31.4703 61.9513 32.2389 63.6783 33.6403L61.3835 36.285C60.1058 35.2678 58.9702 34.6802 57.0538 34.6802C54.404 34.6802 52.2984 36.9179 52.2984 39.6078V39.653C52.2984 42.5463 54.3804 44.6711 57.3141 44.6711C58.639 44.6711 59.822 44.3547 60.7447 43.7218V41.4614H57.0775V38.455H64.2698V45.3267C62.5663 46.7055 60.2241 47.8357 57.1958 47.8357C52.0382 47.8357 48.4893 44.3773 48.4893 39.6983" fill="#131B3C"/>
<path fill-rule="evenodd" clip-rule="evenodd" d="M65.2637 39.6983V39.653C65.2637 35.1549 68.8126 31.4703 73.8992 31.4703C77.0221 31.4703 78.8912 32.4649 80.4291 33.9116L78.1106 36.4658C76.833 35.3583 75.5317 34.6802 73.8756 34.6802C71.0838 34.6802 69.0728 36.8953 69.0728 39.6078V39.653C69.0728 42.3656 71.0366 44.6259 73.8756 44.6259C75.7683 44.6259 76.9276 43.9026 78.2289 42.7723L80.5474 45.0102C78.844 46.7506 76.9513 47.8357 73.7573 47.8357C68.8836 47.8357 65.2637 44.2416 65.2637 39.6983" fill="#131B3C"/>
<path fill-rule="evenodd" clip-rule="evenodd" d="M96.5167 40.9415L94.3164 35.8104L92.1162 40.9415H96.5167ZM92.6846 31.6285H96.0441L103.142 47.5645H99.3328L97.8186 44.0156H90.8155L89.3013 47.5645H85.5869L92.6846 31.6285Z" fill="#131B3C"/>
<path fill-rule="evenodd" clip-rule="evenodd" d="M111.257 39.427C113.032 39.427 114.049 38.5228 114.049 37.1892V37.1441C114.049 35.6522 112.96 34.8836 111.186 34.8836H107.566V39.427H111.257ZM103.923 31.7416H111.494C113.599 31.7416 115.232 32.3067 116.32 33.3465C117.243 34.2281 117.74 35.4713 117.74 36.9631V37.0084C117.74 39.5626 116.297 41.1674 114.191 41.9135L118.237 47.5645H113.978L110.429 42.5012H107.566V47.5645H103.923V31.7416Z" fill="#131B3C"/>
<path fill-rule="evenodd" clip-rule="evenodd" d="M118.52 39.6983V39.653C118.52 35.1549 122.187 31.4703 127.202 31.4703C130.183 31.4703 131.982 32.2389 133.709 33.6403L131.414 36.285C130.136 35.2678 129.001 34.6802 127.084 34.6802C124.434 34.6802 122.329 36.9179 122.329 39.6078V39.653C122.329 42.5463 124.411 44.6711 127.344 44.6711C128.669 44.6711 129.852 44.3547 130.775 43.7218V41.4614H127.108V38.455H134.3V45.3267C132.597 46.7055 130.254 47.8357 127.226 47.8357C122.068 47.8357 118.52 44.3773 118.52 39.6983" fill="#131B3C"/>
</g>
</svg>
