<svg width="188" height="88" viewBox="0 0 188 88" fill="none" xmlns="http://www.w3.org/2000/svg">
<g filter="url(#filter0_d_1167_8779)">
<path fill-rule="evenodd" clip-rule="evenodd" d="M4 10C4 4.47716 8.47715 0 14 0H174C179.523 0 184 4.47715 184 10V69.7459C184 75.2687 179.523 79.7459 174 79.7459H14C8.47716 79.7459 4 75.2687 4 69.7459V10Z" fill="#F2F3F5"/>
<path fill-rule="evenodd" clip-rule="evenodd" d="M148.439 43.7203C148.418 43.9114 148.396 44.1024 148.372 44.2931H155.227C155.827 43.5046 156.286 42.6124 156.57 41.6498H152.021C151.27 42.8204 149.956 43.6246 148.439 43.7203Z" fill="#131B3C"/>
<path fill-rule="evenodd" clip-rule="evenodd" d="M139.699 41.6497C139.983 42.6124 140.442 43.5045 141.041 44.2931H142.778C142.204 43.4972 141.765 42.6074 141.496 41.6497H139.699Z" fill="#131B3C"/>
<mask id="mask0_1167_8779" style="mask-type:luminance" maskUnits="userSpaceOnUse" x="152" y="38" width="5" height="3">
<path fill-rule="evenodd" clip-rule="evenodd" d="M152.475 38.0574H156.895V40.7009H152.475V38.0574Z" fill="white"/>
</mask>
<g mask="url(#mask0_1167_8779)">
<path fill-rule="evenodd" clip-rule="evenodd" d="M152.475 40.7009H156.786C156.858 40.2702 156.895 39.8289 156.895 39.3792C156.895 38.9293 156.858 38.488 156.786 38.0574H152.475C152.613 38.4744 152.689 38.9183 152.689 39.3792C152.689 39.8401 152.613 40.284 152.475 40.7009Z" fill="#131B3C"/>
</g>
<path fill-rule="evenodd" clip-rule="evenodd" d="M141.295 38.0574H139.482C139.411 38.488 139.373 38.9293 139.373 39.3791C139.373 39.8289 139.411 40.2702 139.482 40.7009H141.29C141.222 40.2748 141.182 39.84 141.182 39.396C141.182 38.9402 141.224 38.4941 141.295 38.0574Z" fill="#131B3C"/>
<path fill-rule="evenodd" clip-rule="evenodd" d="M154.387 33.5162C152.797 31.9688 150.583 31.0084 148.134 31.0084C148.096 31.0084 148.057 31.0107 148.019 31.0112C148.167 31.8435 148.289 32.679 148.39 33.5162H154.387Z" fill="#131B3C"/>
<path fill-rule="evenodd" clip-rule="evenodd" d="M147.974 31.0123C145.589 31.0535 143.437 32.0029 141.882 33.5161H143.593C144.754 32.3172 146.266 31.4338 147.974 31.0123Z" fill="#131B3C"/>
<path fill-rule="evenodd" clip-rule="evenodd" d="M141.041 34.4651C140.442 35.2536 139.983 36.1457 139.699 37.1085H141.505C141.779 36.1501 142.222 35.2601 142.8 34.4651H141.041Z" fill="#131B3C"/>
<path fill-rule="evenodd" clip-rule="evenodd" d="M152.021 37.1085H156.569C156.286 36.1457 155.827 35.2536 155.227 34.4651H148.494C148.513 34.6585 148.531 34.8521 148.547 35.0457C150.018 35.172 151.288 35.9659 152.021 37.1085Z" fill="#131B3C"/>
<path fill-rule="evenodd" clip-rule="evenodd" d="M147.809 47.7374C146.154 47.2969 144.692 46.4182 143.563 45.2421H141.882C143.472 46.7895 145.685 47.7498 148.134 47.7498C150.583 47.7498 152.797 46.7895 154.387 45.2421H148.243C148.122 46.0764 147.979 46.9087 147.809 47.7374Z" fill="#131B3C"/>
<path fill-rule="evenodd" clip-rule="evenodd" d="M148.049 31C148.024 31.0062 147.999 31.0153 147.974 31.0217C148 31.0211 148.026 31.0201 148.053 31.0199C148.052 31.0131 148.051 31.0066 148.049 31Z" fill="#37B34A"/>
<path fill-rule="evenodd" clip-rule="evenodd" d="M148.135 43.731C146.49 43.731 145.049 42.898 144.248 41.6497H141.496C141.766 42.6074 142.205 43.4972 142.778 44.2931H148.372C148.396 44.1022 148.418 43.9113 148.439 43.7202C148.338 43.7267 148.237 43.731 148.135 43.731Z" fill="#3075BA"/>
<path fill-rule="evenodd" clip-rule="evenodd" d="M143.794 38.0574H141.294C141.224 38.4941 141.182 38.9402 141.182 39.396C141.182 39.84 141.222 40.2748 141.289 40.7009H143.794C143.655 40.2839 143.579 39.84 143.579 39.3791C143.579 38.9182 143.655 38.4743 143.794 38.0574Z" fill="#3075BA"/>
<path fill-rule="evenodd" clip-rule="evenodd" d="M143.592 33.5161H148.389C148.288 32.679 148.166 31.8435 148.018 31.0112C148.003 31.0113 147.988 31.012 147.973 31.0124C146.266 31.4337 144.753 32.3172 143.592 33.5161Z" fill="#3075BA"/>
<path fill-rule="evenodd" clip-rule="evenodd" d="M148.134 35.0271C148.273 35.0271 148.411 35.0342 148.547 35.0457C148.53 34.8521 148.513 34.6585 148.494 34.4651H142.8C142.222 35.2602 141.779 36.1503 141.505 37.1085H144.248C145.049 35.8601 146.489 35.0271 148.134 35.0271Z" fill="#3075BA"/>
<path fill-rule="evenodd" clip-rule="evenodd" d="M147.809 47.7374C147.979 46.9087 148.121 46.0764 148.243 45.2421H143.562C144.691 46.4182 146.154 47.2969 147.809 47.7374Z" fill="#3075BA"/>
<path fill-rule="evenodd" clip-rule="evenodd" d="M148.349 37.646V39.2092H150.069C150.053 38.6457 149.959 38.1129 149.808 37.646H148.349Z" fill="#DD1C4D"/>
<path fill-rule="evenodd" clip-rule="evenodd" d="M148.349 39.5483V41.1116H149.808C149.959 40.6447 150.053 40.1119 150.069 39.5483H148.349Z" fill="#DD1C4D"/>
<path fill-rule="evenodd" clip-rule="evenodd" d="M147.994 41.1116V39.5483H146.273C146.289 40.1119 146.383 40.6447 146.535 41.1116H147.994Z" fill="#DD1C4D"/>
<path fill-rule="evenodd" clip-rule="evenodd" d="M147.994 42.832V41.4506H146.659C146.975 42.2103 147.456 42.7361 147.994 42.832Z" fill="#DD1C4D"/>
<path fill-rule="evenodd" clip-rule="evenodd" d="M147.994 39.2092V37.646H146.535C146.383 38.1129 146.289 38.6457 146.273 39.2092H147.994Z" fill="#DD1C4D"/>
<path fill-rule="evenodd" clip-rule="evenodd" d="M150.074 41.4506C149.885 41.9513 149.629 42.3684 149.324 42.6683C149.515 42.6072 149.699 42.5318 149.874 42.4427C150.338 42.197 150.74 41.8573 151.052 41.4506H150.074Z" fill="#DD1C4D"/>
<path fill-rule="evenodd" clip-rule="evenodd" d="M147.994 37.3069V35.926C147.992 35.926 147.99 35.926 147.989 35.9261C147.453 36.0246 146.974 36.5496 146.659 37.3069H147.994Z" fill="#DD1C4D"/>
<path fill-rule="evenodd" clip-rule="evenodd" d="M148.349 41.4506V42.832C148.887 42.7361 149.367 42.2103 149.683 41.4506H148.349Z" fill="#DD1C4D"/>
<path fill-rule="evenodd" clip-rule="evenodd" d="M147.02 42.6683C146.716 42.3684 146.459 41.951 146.27 41.4506H145.261C145.699 42.0115 146.311 42.4412 147.02 42.6683Z" fill="#DD1C4D"/>
<path fill-rule="evenodd" clip-rule="evenodd" d="M146.156 41.1116C146.017 40.6412 145.933 40.1127 145.919 39.5483H144.545C144.574 40.1156 144.746 40.6473 145.028 41.1116H146.156Z" fill="#DD1C4D"/>
<path fill-rule="evenodd" clip-rule="evenodd" d="M150.424 39.5483C150.41 40.1127 150.327 40.6412 150.188 41.1116H151.281C151.558 40.6464 151.726 40.1148 151.751 39.5483H150.424Z" fill="#DD1C4D"/>
<path fill-rule="evenodd" clip-rule="evenodd" d="M150.188 37.646C150.327 38.1164 150.41 38.6449 150.424 39.2092H151.749C151.717 38.6414 151.541 38.1097 151.256 37.646H150.188Z" fill="#DD1C4D"/>
<path fill-rule="evenodd" clip-rule="evenodd" d="M148.39 35.934C148.376 35.933 148.363 35.9317 148.349 35.931V37.3069H149.683C149.376 36.5667 148.911 36.0489 148.39 35.934Z" fill="#DD1C4D"/>
<path fill-rule="evenodd" clip-rule="evenodd" d="M149.37 36.136C149.654 36.4319 149.895 36.832 150.074 37.3069H151.019C150.602 36.7793 150.031 36.3686 149.37 36.136Z" fill="#DD1C4D"/>
<path fill-rule="evenodd" clip-rule="evenodd" d="M145.261 37.3069H146.27C146.459 36.8062 146.716 36.389 147.02 36.089C146.311 36.3161 145.699 36.7459 145.261 37.3069Z" fill="#DD1C4D"/>
<path fill-rule="evenodd" clip-rule="evenodd" d="M145.919 39.2092C145.933 38.6449 146.017 38.1164 146.156 37.646H145.028C144.746 38.1103 144.574 38.6418 144.545 39.2092H145.919Z" fill="#DD1C4D"/>
<mask id="mask1_1167_8779" style="mask-type:luminance" maskUnits="userSpaceOnUse" x="32" y="31" width="125" height="17">
<path fill-rule="evenodd" clip-rule="evenodd" d="M32 47.8358H156.896V31H32V47.8358Z" fill="white"/>
</mask>
<g mask="url(#mask1_1167_8779)">
<path fill-rule="evenodd" clip-rule="evenodd" d="M32 47.5645H35.6434V31.7416H32V47.5645Z" fill="#131B3C"/>
<path fill-rule="evenodd" clip-rule="evenodd" d="M37.2754 39.6983V39.653C37.2754 35.1549 40.8243 31.4703 45.9109 31.4703C49.0338 31.4703 50.9029 32.4649 52.4408 33.9116L50.1223 36.4658C48.8447 35.3583 47.5434 34.6802 45.8873 34.6802C43.0955 34.6802 41.0845 36.8953 41.0845 39.6078V39.653C41.0845 42.3656 43.0483 44.6259 45.8873 44.6259C47.78 44.6259 48.9393 43.9026 50.2406 42.7723L52.5591 45.0102C50.8557 46.7506 48.963 47.8357 45.769 47.8357C40.8953 47.8357 37.2754 44.2416 37.2754 39.6983Z" fill="#131B3C"/>
<path fill-rule="evenodd" clip-rule="evenodd" d="M52.4893 39.6983V39.653C52.4893 35.1549 56.1565 31.4703 61.1721 31.4703C64.1532 31.4703 65.9513 32.2389 67.6783 33.6403L65.3835 36.285C64.1058 35.2678 62.9702 34.6802 61.0538 34.6802C58.404 34.6802 56.2984 36.9179 56.2984 39.6078V39.653C56.2984 42.5463 58.3804 44.6711 61.3141 44.6711C62.639 44.6711 63.822 44.3547 64.7447 43.7218V41.4614H61.0775V38.455H68.2698V45.3267C66.5663 46.7055 64.2241 47.8357 61.1958 47.8357C56.0382 47.8357 52.4893 44.3773 52.4893 39.6983Z" fill="#131B3C"/>
<path fill-rule="evenodd" clip-rule="evenodd" d="M69.2637 39.6983V39.653C69.2637 35.1549 72.8126 31.4703 77.8992 31.4703C81.0221 31.4703 82.8912 32.4649 84.4291 33.9116L82.1106 36.4658C80.833 35.3583 79.5317 34.6802 77.8756 34.6802C75.0838 34.6802 73.0728 36.8953 73.0728 39.6078V39.653C73.0728 42.3656 75.0366 44.6259 77.8756 44.6259C79.7683 44.6259 80.9276 43.9026 82.2289 42.7723L84.5474 45.0102C82.844 46.7506 80.9513 47.8357 77.7573 47.8357C72.8836 47.8357 69.2637 44.2416 69.2637 39.6983Z" fill="#131B3C"/>
<path fill-rule="evenodd" clip-rule="evenodd" d="M100.517 40.9415L98.3164 35.8104L96.1162 40.9415H100.517ZM96.6846 31.6285H100.044L107.142 47.5645H103.333L101.819 44.0156H94.8155L93.3013 47.5645H89.5869L96.6846 31.6285Z" fill="#131B3C"/>
<path fill-rule="evenodd" clip-rule="evenodd" d="M115.257 39.427C117.032 39.427 118.049 38.5228 118.049 37.1892V37.1441C118.049 35.6522 116.96 34.8836 115.186 34.8836H111.566V39.427H115.257ZM107.923 31.7416H115.494C117.599 31.7416 119.232 32.3067 120.32 33.3465C121.243 34.2281 121.74 35.4713 121.74 36.9631V37.0084C121.74 39.5626 120.297 41.1674 118.191 41.9135L122.237 47.5645H117.978L114.429 42.5012H111.566V47.5645H107.923V31.7416Z" fill="#131B3C"/>
<path fill-rule="evenodd" clip-rule="evenodd" d="M122.52 39.6983V39.653C122.52 35.1549 126.187 31.4703 131.202 31.4703C134.183 31.4703 135.982 32.2389 137.709 33.6403L135.414 36.285C134.136 35.2678 133.001 34.6802 131.084 34.6802C128.434 34.6802 126.329 36.9179 126.329 39.6078V39.653C126.329 42.5463 128.411 44.6711 131.344 44.6711C132.669 44.6711 133.852 44.3547 134.775 43.7218V41.4614H131.108V38.455H138.3V45.3267C136.597 46.7055 134.254 47.8357 131.226 47.8357C126.068 47.8357 122.52 44.3773 122.52 39.6983Z" fill="#131B3C"/>
</g>
</g>
<defs>
<filter id="filter0_d_1167_8779" x="0" y="0" width="188" height="87.7458" filterUnits="userSpaceOnUse" color-interpolation-filters="sRGB">
<feFlood flood-opacity="0" result="BackgroundImageFix"/>
<feColorMatrix in="SourceAlpha" type="matrix" values="0 0 0 0 0 0 0 0 0 0 0 0 0 0 0 0 0 0 127 0" result="hardAlpha"/>
<feOffset dy="4"/>
<feGaussianBlur stdDeviation="2"/>
<feComposite in2="hardAlpha" operator="out"/>
<feColorMatrix type="matrix" values="0 0 0 0 0 0 0 0 0 0 0 0 0 0 0 0 0 0 0.25 0"/>
<feBlend mode="normal" in2="BackgroundImageFix" result="effect1_dropShadow_1167_8779"/>
<feBlend mode="normal" in="SourceGraphic" in2="effect1_dropShadow_1167_8779" result="shape"/>
</filter>
</defs>
</svg>
