<?xml version="1.0" encoding="UTF-8"?>
<svg width="609px" height="609px" viewBox="0 0 609 609" version="1.1" xmlns="http://www.w3.org/2000/svg" xmlns:xlink="http://www.w3.org/1999/xlink">
    <!-- Generator: Sketch 49.3 (51167) - http://www.bohemiancoding.com/sketch -->
    <title>Group 2</title>
    <desc>Created with Sketch.</desc>
    <defs>
        <polygon id="path-1" points="0.0893055534 0.188798075 7.12443658 0.188798075 7.12443658 50.1020605 0.0893055534 50.1020605"></polygon>
        <polygon id="path-3" points="0.327963355 0.188798075 7.36309438 0.188798075 7.36309438 50.1020605 0.327963355 50.1020605"></polygon>
        <polygon id="path-5" points="0 608.740035 633.921115 608.740035 633.921115 0.365327524 0 0.365327524"></polygon>
        <path d="M43.3156585,1.08828691 C39.2066205,7.58767431 32.8066589,12.0941545 25.3027827,13.778319 C17.7984912,15.4591592 10.0428378,14.1074229 3.58138598,10.0027654 C2.69351801,9.45135006 1.57215366,9.61340882 0.89077628,10.3472441 C0.802695789,10.4415706 0.721678357,10.5454545 0.649801353,10.6593111 C0.0220201226,11.6507783 0.318253092,12.9651164 1.30957408,13.5929903 C1.42881512,13.6673711 1.54514785,13.7413363 1.66480436,13.8153016 C9.05027038,18.3670751 17.760683,19.8276817 26.2375993,17.9245301 C34.84996,15.9927065 42.1909704,10.822201 46.9082623,3.36375813 C47.5368745,2.37395308 47.2406415,1.05919944 46.249736,0.431325626 C45.9148639,0.194470513 45.5272267,0.0835225923 45.1379275,0.0835225923 C44.4320372,0.0835225923 43.7215766,0.448362573 43.3156585,1.08828691 Z" id="path-7"></path>
        <path d="M16.7340467,0.267604724 L9.93855382,0.423845991 C5.35961474,0.528976418 1.26179457,3.75186809 0.551334013,8.27164539 C0.430846549,9.03124389 0.376834928,9.81120362 0.395531259,10.6073692 L1.08521812,39.9761566 L27.4225312,39.9761566 L26.7340907,10.0023499 C26.7158099,9.20867746 26.6264829,8.4307954 26.4715111,7.67742993 C25.5686861,3.26901609 21.4546625,0.265942583 16.9654658,0.265527047 C16.8886031,0.265527047 16.8113249,0.266773653 16.7340467,0.267604724 Z" id="path-9"></path>
        <path d="M6.08794068,0.234777436 C2.79655557,0.234777436 0.129212417,2.90126736 0.129212417,6.188567 L0.129212417,14.1876212 C0.129212417,17.475752 2.79655557,20.1414108 6.08794068,20.1414108 L7.48434884,20.1414108 C10.774903,20.1414108 13.4434926,17.475752 13.4434926,14.1876212 L13.4434926,6.188567 C13.4434926,2.90126736 10.774903,0.234777436 7.48434884,0.234777436 L6.08794068,0.234777436 Z" id="path-11"></path>
        <path d="M0.14915517,2.02615005 C0.074785322,3.19338867 0.887037014,4.23430456 2.05451898,4.35190104 C9.7054729,5.10651312 16.6056653,8.80186841 21.4833302,14.7539958 C26.3597486,20.7048767 28.6261594,28.1990555 27.8758133,35.8619417 C27.7839935,37.0399843 28.6124487,38.0721739 29.7795152,38.1885238 C29.8921087,38.1989122 30.0038712,38.2001588 30.1143873,38.1943413 L30.1708917,38.1893549 C31.1705222,38.1045857 31.9993929,37.3167308 32.1024304,36.2787236 C32.1522873,35.7514093 32.1930037,35.223264 32.2195941,34.6955342 C32.2893937,33.3487843 32.2769295,32.0074364 32.1855252,30.6785546 L32.1705682,30.466216 C31.6636899,23.7540746 29.1205734,17.3685439 24.7676522,12.0575874 C21.8090618,8.44658574 18.2027474,5.56069319 14.163509,3.51376637 C14.1606007,3.51251977 14.1597698,3.51210423 14.1589388,3.51127316 C10.5555327,1.68624219 6.60936057,0.528560883 2.47040847,0.119674162 C2.39894694,0.112610062 2.32790088,0.108870245 2.25768578,0.108870245 C1.17953072,0.108870245 0.256762939,0.928305827 0.14915517,2.02615005 Z" id="path-13"></path>
        <path d="M19.2273063,0.281732923 C10.919488,4.59831347 4.79332367,11.8959441 1.97765629,20.8274596 C-0.796463679,29.6197707 -0.036146239,38.9605883 4.11028439,47.1786297 C4.17800666,47.3111854 4.24489797,47.4416635 4.31428213,47.5746348 C4.88805174,48.6782965 6.25122197,49.1096221 7.35472094,48.5353524 C7.48185599,48.4701133 7.59901966,48.3932393 7.70662743,48.3093012 C8.54380756,47.6544176 8.81552757,46.4834391 8.31238854,45.4952962 C4.55525706,38.2944853 3.82319185,29.9729757 6.27573494,22.1891687 C8.73118634,14.4066083 14.0704429,8.04559419 21.3092466,4.2854154 C22.4148229,3.70906796 22.8880478,2.29707906 22.2677451,1.2424505 C21.8655663,0.470385943 21.078243,0.0270097935 20.2639139,0.0270097935 C19.9136694,0.0270097935 19.5588545,0.108870245 19.2273063,0.281732923 Z" id="path-15"></path>
        <path d="M6.41076399,0.19654819 C2.91870493,0.19654819 0.0889114384,3.02551241 0.0889114384,6.51310006 L0.0889114384,15.0008238 C0.0889114384,18.4896581 2.91870493,21.3173757 6.41076399,21.3173757 L7.89234431,21.3173757 C11.3835724,21.3173757 14.2150278,18.4896581 14.2150278,15.0008238 L14.2150278,6.51310006 C14.2150278,3.02551241 11.3835724,0.19654819 7.89234431,0.19654819 L6.41076399,0.19654819 Z" id="path-17"></path>
        <path d="M0.626950283,1.52293682 C0.0776936401,2.63407817 0.447050036,3.98664553 1.54182406,4.57878331 C8.72370781,8.44700128 13.9682363,14.8865516 16.3115097,22.7085878 C18.6518748,30.5289619 17.8076316,38.7927121 13.9387376,45.9885366 C13.3682918,47.1034178 13.7575909,48.4534919 14.8523649,49.0447986 C14.9591418,49.1004804 15.0675805,49.1478514 15.178512,49.1869117 L15.2350165,49.2056108 C16.2491886,49.5313905 17.3821862,49.0975716 17.9073454,48.1248035 C18.1715868,47.6286544 18.4266879,47.1287654 18.6693247,46.6222279 C19.2887964,45.3324064 19.8243424,44.0139129 20.2776246,42.6763049 L20.350748,42.4623042 C22.5988779,35.6836771 22.7193653,28.3910328 20.6291156,21.4117022 C19.2081945,16.6671203 16.8574425,12.3663301 13.7393101,8.71045065 C13.7380637,8.70878851 13.7364018,8.70795744 13.7364018,8.70671083 C10.9548033,5.44642098 7.56495079,2.69848614 3.67985332,0.605434911 C3.34041105,0.422599385 2.97479392,0.33575251 2.61416248,0.33575251 C1.81188216,0.335336975 1.03494576,0.765415995 0.626950283,1.52293682 Z" id="path-19"></path>
        <path d="M17.6904679,0.0652390398 L10.4807474,0.230622083 C5.62260979,0.342401075 1.27467427,3.76059433 0.52100441,8.55753366 C0.393453888,9.36325658 0.336533949,10.1901718 0.356061227,11.0353706 L1.08729549,42.195115 L29.0312465,42.195115 L28.3008432,10.3937841 C28.2813159,9.550663 28.1861724,8.72582545 28.0220602,7.92633557 C27.0643926,3.24948593 22.6998381,0.0631613634 17.936844,0.0623302928 C17.8549956,0.0623302928 17.7731472,0.0635768986 17.6904679,0.0652390398 Z" id="path-21"></path>
        <path d="M36.6410685,1.90398268 C35.3103053,9.63210791 31.04588,16.3804009 24.6338696,20.9035025 C18.2226901,25.4278507 10.4342143,27.1826562 2.69684181,25.8537744 C1.50567782,25.6746787 0.396362207,26.4413413 0.191948993,27.6197993 C0.172421715,27.7315783 0.162034864,27.8421107 0.160788442,27.951812 L0.160788442,28.0245307 C0.176991929,29.0455009 0.916535668,29.9438882 1.96145281,30.123815 C2.49450596,30.2139861 3.02880554,30.2937689 3.56310512,30.359839 C4.95286569,30.5331172 6.34304173,30.619133 7.72532376,30.6203796 L7.81298878,30.6203796 C14.6957312,30.6091602 21.3969116,28.4920079 27.1346077,24.4438632 C34.4943143,19.2509187 39.3873517,11.5082497 40.9150497,2.63823353 C40.9349924,2.52645453 40.9449638,2.41426001 40.9474566,2.30331209 L40.9474566,2.23100895 C40.9300067,1.21253196 40.189632,0.315391281 39.1459613,0.137126644 C39.0383536,0.12341398 38.9319922,0.115518809 38.8268773,0.115518809 C37.7699114,0.115518809 36.8284473,0.832732712 36.6410685,1.90398268 Z" id="path-23"></path>
        <path d="M16.6721411,0.156656803 L9.74161914,0.316222352 C5.07086031,0.42301492 0.89285365,3.70948349 0.169097923,8.31901641 C0.0452866672,9.09398972 -0.00997137627,9.88932425 0.00872495423,10.7012802 L0.710460559,40.6509859 L27.5716863,40.6509859 L26.8687043,10.0842103 C26.850008,9.27433203 26.7590192,8.48107517 26.601139,7.71275043 C25.6812796,3.21748971 21.4874849,0.154579126 16.9081304,0.154163591 C16.8296058,0.154163591 16.7502502,0.155410197 16.6721411,0.156656803 Z" id="path-25"></path>
        <path d="M27.2430464,0.108870245 C26.0755644,0.264280441 25.2878257,1.45769778 25.506365,2.63449371 C26.9451515,10.345582 25.2882412,18.1539055 20.8497323,24.6204656 C16.4095615,31.0861947 9.67555877,35.4580414 1.99842999,36.8746012 C0.818483802,37.1052233 0.0452866672,38.2242598 0.265072419,39.4014713 C0.482780801,40.5778517 1.61660938,41.3544871 2.7928163,41.1350845 C2.93283104,41.1080747 3.07159936,41.082727 3.213276,41.0548862 C11.8896198,39.3295837 19.4117767,34.3764031 24.4269635,27.0704617 C29.5210904,19.6502481 31.4193911,10.6892297 29.7703748,1.84248345 C29.5763484,0.800736495 28.6639675,0.0723031396 27.6410705,0.0723031396 C27.5093652,0.0723031396 27.376829,0.0847691982 27.2430464,0.108870245 Z" id="path-27"></path>
        <path d="M6.36963206,0.0531885165 C3.01384848,0.0531885165 0.292493704,2.77245142 0.292493704,6.12457457 L0.292493704,14.2819478 C0.292493704,17.635733 3.01384848,20.3537493 6.36963206,20.3537493 L7.7934615,20.3537493 C11.150076,20.3537493 13.8701844,17.635733 13.8701844,14.2819478 L13.8701844,6.12457457 C13.8701844,2.77245142 11.150076,0.0531885165 7.7934615,0.0531885165 L6.36963206,0.0531885165 Z" id="path-29"></path>
        <polygon id="path-31" points="0 608.744636 633.921115 608.744636 633.921115 0.365330286 0 0.365330286"></polygon>
    </defs>
    <g id="final" stroke="none" stroke-width="1" fill="none" fill-rule="evenodd">
        <g id="Homepage-NEW" transform="translate(-661.000000, -43.000000)">
            <g id="Group-2" transform="translate(641.000000, 43.000000)">
                <g id="Page-1">
                    <g id="Group-48">
                        <g id="Group-3" transform="translate(45.494404, 558.637974)">
                            <mask id="mask-2" fill="white">
                                <use xlink:href="#path-1"></use>
                            </mask>
                            <g id="Clip-2"></g>
                            <path d="M7.12350546,46.863004 C7.16440869,48.6128185 5.85258381,50.0624381 4.19349888,50.1012672 C2.53399658,50.1409313 1.15747781,48.7543568 1.11615721,47.0049598 L0.0902375247,3.42785772 C0.0493342989,1.67846078 1.35990704,0.229258678 3.02024411,0.189594547 C4.67849427,0.15076545 6.05626517,1.53650494 6.09758578,3.28590188 L7.12350546,46.863004 Z" id="Fill-1" fill="#133055" mask="url(#mask-2)"></path>
                        </g>
                        <g id="Group-6" transform="translate(56.763660, 558.637974)">
                            <mask id="mask-4" fill="white">
                                <use xlink:href="#path-3"></use>
                            </mask>
                            <g id="Clip-5"></g>
                            <path d="M7.36216327,46.863004 C7.40306649,48.6128185 6.09124161,50.0624381 4.43215668,50.1012672 C2.77265438,50.1409313 1.39613562,48.7543568 1.35481501,47.0049598 L0.328895326,3.42785772 C0.2879921,1.67846078 1.59856485,0.229258678 3.25890191,0.189594547 C4.91715207,0.15076545 6.29492298,1.53650494 6.33624358,3.28590188 L7.36216327,46.863004 Z" id="Fill-4" fill="#133055" mask="url(#mask-4)"></path>
                        </g>
                        <path d="M277.237139,344.843464 C277.237139,348.533063 274.247448,351.523739 270.559062,351.523739 L200.439246,351.523739 C196.751278,351.523739 193.761168,348.533063 193.761168,344.843464 C193.761168,341.153865 196.751278,338.163189 200.439246,338.163189 L270.559062,338.163189 C274.247448,338.163189 277.237139,341.153865 277.237139,344.843464" id="Fill-7" fill="#009FDA"></path>
                        <path d="M554.817407,533.264788 C554.817407,537.415326 551.453743,540.780097 547.304569,540.780097 L353.232954,540.780097 C349.083781,540.780097 345.720117,537.415326 345.720117,533.264788 L345.720117,527.316838 C345.720117,523.1663 349.083781,519.801529 353.232954,519.801529 L547.304569,519.801529 C551.453743,519.801529 554.817407,523.1663 554.817407,527.316838 L554.817407,533.264788 Z" id="Fill-9" fill="#009FDA"></path>
                        <mask id="mask-6" fill="white">
                            <use xlink:href="#path-5"></use>
                        </mask>
                        <g id="Clip-12"></g>
                        <polygon id="Fill-11" fill="#009FDA" mask="url(#mask-6)" points="137.040832 594.324837 150.18788 594.324837 150.18788 564.891546 137.040832 564.891546"></polygon>
                        <polygon id="Fill-13" fill="#009FDA" mask="url(#mask-6)" points="323.19183 594.324837 336.339296 594.324837 336.339296 564.891546 323.19183 564.891546"></polygon>
                        <path d="M355.596367,557.426548 C355.596367,564.592813 348.860274,570.402147 340.551076,570.402147 L133.260205,570.402147 C124.951007,570.402147 118.214914,564.592813 118.214914,557.426548 L118.214914,359.90669 C118.214914,352.740425 124.951007,346.931091 133.260205,346.931091 L340.551076,346.931091 C348.860274,346.931091 355.596367,352.740425 355.596367,359.90669 L355.596367,557.426548 Z" id="Fill-14" fill="#4BC6F0" mask="url(#mask-6)"></path>
                        <polygon id="Fill-15" fill="#009FDA" mask="url(#mask-6)" points="215.504071 338.163022 255.57045 338.163022 255.57045 298.110182 215.504071 298.110182"></polygon>
                        <polygon id="Fill-16" fill="#4BC6F0" mask="url(#mask-6)" points="215.504071 298.110475 137.875592 222.334866 334.451904 222.334866 255.57045 298.110475"></polygon>
                        <polygon id="Fill-17" fill="#009FDA" mask="url(#mask-6)" points="130.362754 453.419055 340.712184 453.419055 340.712184 360.735253 130.362754 360.735253"></polygon>
                        <path d="M156.030489,541.093652 C156.030489,543.514417 154.068386,545.477165 151.648,545.477165 C149.228032,545.477165 147.265929,543.514417 147.265929,541.093652 L147.265929,484.105063 C147.265929,481.684299 149.228032,479.721551 151.648,479.721551 C154.068386,479.721551 156.030489,481.684299 156.030489,484.105063 L156.030489,541.093652 Z" id="Fill-18" fill="#F2D021" mask="url(#mask-6)"></path>
                        <path d="M177.734241,541.093652 C177.734241,543.514417 175.772138,545.477165 173.351753,545.477165 C170.931784,545.477165 168.969682,543.514417 168.969682,541.093652 L168.969682,484.105063 C168.969682,481.684299 170.931784,479.721551 173.351753,479.721551 C175.772138,479.721551 177.734241,481.684299 177.734241,484.105063 L177.734241,541.093652 Z" id="Fill-19" fill="#F2D021" mask="url(#mask-6)"></path>
                        <path d="M211.124629,541.093652 C211.124629,543.514417 209.162527,545.477165 206.742141,545.477165 C204.322173,545.477165 202.36007,543.514417 202.36007,541.093652 L202.36007,484.105063 C202.36007,481.684299 204.322173,479.721551 206.742141,479.721551 C209.162527,479.721551 211.124629,481.684299 211.124629,484.105063 L211.124629,541.093652 Z" id="Fill-20" fill="#F2D021" mask="url(#mask-6)"></path>
                        <path d="M232.411002,541.093652 C232.411002,543.514417 230.448899,545.477165 228.028514,545.477165 C225.608545,545.477165 223.646443,543.514417 223.646443,541.093652 L223.646443,484.105063 C223.646443,481.684299 225.608545,479.721551 228.028514,479.721551 C230.448899,479.721551 232.411002,481.684299 232.411002,484.105063 L232.411002,541.093652 Z" id="Fill-21" fill="#F2D021" mask="url(#mask-6)"></path>
                        <path d="M159.160671,509.467937 C159.160671,513.79091 155.657184,517.295967 151.335216,517.295967 C147.013247,517.295967 143.509761,513.79091 143.509761,509.467937 C143.509761,505.144964 147.013247,501.639908 151.335216,501.639908 C155.657184,501.639908 159.160671,505.144964 159.160671,509.467937" id="Fill-22" fill="#FFFFFF" mask="url(#mask-6)"></path>
                        <path d="M181.177458,525.124038 C181.177458,529.447011 177.673971,532.952067 173.352003,532.952067 C169.030035,532.952067 165.526548,529.447011 165.526548,525.124038 C165.526548,520.801065 169.030035,517.296008 173.352003,517.296008 C177.673971,517.296008 181.177458,520.801065 181.177458,525.124038" id="Fill-23" fill="#FFFFFF" mask="url(#mask-6)"></path>
                        <path d="M214.567805,532.952067 C214.567805,537.27504 211.064318,540.780097 206.74235,540.780097 C202.420381,540.780097 198.916895,537.27504 198.916895,532.952067 C198.916895,528.629095 202.420381,525.124038 206.74235,525.124038 C211.064318,525.124038 214.567805,528.629095 214.567805,532.952067" id="Fill-24" fill="#FFFFFF" mask="url(#mask-6)"></path>
                        <path d="M235.854177,493.811878 C235.854177,498.134851 232.350691,501.639908 228.028722,501.639908 C223.706754,501.639908 220.203267,498.134851 220.203267,493.811878 C220.203267,489.488906 223.706754,485.983849 228.028722,485.983849 C232.350691,485.983849 235.854177,489.488906 235.854177,493.811878" id="Fill-25" fill="#FFFFFF" mask="url(#mask-6)"></path>
                        <polygon id="Fill-26" fill="#009FDA" mask="url(#mask-6)" points="394.457771 594.324837 403.832957 594.324837 403.832957 540.780347 394.457771 540.780347"></polygon>
                        <polygon id="Fill-27" fill="#009FDA" mask="url(#mask-6)" points="498.381598 594.324837 507.756785 594.324837 507.756785 540.780347 498.381598 540.780347"></polygon>
                        <path d="M301.346962,510.114588 C298.484153,510.114588 296.156008,507.786095 296.156008,504.923597 C296.156008,502.608882 297.689045,500.665757 299.785544,499.998147 L299.785544,490.532198 C299.785544,489.670025 300.485072,488.972353 301.345709,488.972353 C302.208016,488.972353 302.906293,489.670025 302.906293,490.532198 L302.906293,499.998564 C305.002792,500.665757 306.535411,502.608882 306.535411,504.924849 C306.537915,507.786095 304.208935,510.114588 301.346962,510.114588 M320.134064,504.923179 C320.134064,504.061006 320.831505,503.362083 321.693395,503.362083 L326.290834,503.362083 C325.934391,497.642515 323.650906,492.436911 320.079387,488.391587 L316.836763,491.635278 C316.532075,491.9409 316.133478,492.093294 315.733628,492.093294 C315.33503,492.093294 314.934763,491.9409 314.629241,491.635278 C314.019866,491.02612 314.019866,490.038275 314.629241,489.428282 L317.872282,486.185009 C313.829124,482.611479 308.625649,480.325155 302.906293,479.971936 L299.785544,479.971936 C294.067022,480.326408 288.8648,482.612314 284.820389,486.185009 L288.062178,489.428282 C288.672805,490.038275 288.672805,491.02612 288.062178,491.635278 C287.757908,491.9409 287.358893,492.093294 286.958208,492.093294 C286.560028,492.093294 286.159343,491.9409 285.855073,491.635278 L282.612867,488.391587 C279.041347,492.436911 276.755775,497.641262 276.402255,503.362083 L281.000946,503.362083 C281.863253,503.362083 282.561529,504.061006 282.561529,504.923179 C282.561529,505.784935 281.863253,506.484694 281.000946,506.484694 L276.403507,506.484694 C276.75828,512.204679 279.043852,517.409448 282.614954,521.453937 L285.856743,518.211498 C286.466118,517.601088 287.454056,517.601088 288.063848,518.211498 C288.674057,518.821073 288.674057,519.808084 288.063848,520.418077 L284.821224,523.660097 C288.865217,527.234044 294.067022,529.519116 299.786378,529.873588 L299.786378,525.275054 C299.786378,524.413298 300.485907,523.714792 301.346962,523.714792 C302.208851,523.714792 302.907545,524.413298 302.907545,525.275054 L302.907545,529.873588 C308.625649,529.519116 313.829541,527.232792 317.873952,523.660097 L314.630493,520.418077 C314.020701,519.808084 314.020701,518.821073 314.630493,518.211498 C315.240702,517.601088 316.226971,517.601088 316.836763,518.211498 L320.079387,521.453937 C323.651324,517.409448 325.936061,512.205931 326.290834,506.484694 L321.693395,506.484694 C320.831505,506.485111 320.134064,505.784935 320.134064,504.923179" id="Fill-28" fill="#FFFFFF" mask="url(#mask-6)"></path>
                        <polygon id="Fill-29" fill="#04518C" mask="url(#mask-6)" points="228.028806 415.3227 296.262899 415.3227 296.262899 404.989985 228.028806 404.989985"></polygon>
                        <polygon id="Fill-30" fill="#04518C" mask="url(#mask-6)" points="228.028806 389.776912 323.087903 389.776912 323.087903 379.444197 228.028806 379.444197"></polygon>
                        <polygon id="Fill-31" fill="#04518C" mask="url(#mask-6)" points="228.028806 442.042129 265.587149 442.042129 265.587149 431.709414 228.028806 431.709414"></polygon>
                        <path d="M209.81869,408.486274 C209.81869,426.211966 195.454145,440.581237 177.734283,440.581237 C160.014421,440.581237 145.649876,426.211966 145.649876,408.486274 C145.649876,390.760583 160.014421,376.391312 177.734283,376.391312 C195.454145,376.391312 209.81869,390.760583 209.81869,408.486274" id="Fill-32" fill="#04518C" mask="url(#mask-6)"></path>
                        <path d="M196.437283,408.486274 C196.437283,418.818989 188.063808,427.195219 177.734074,427.195219 C167.405175,427.195219 159.031283,418.818989 159.031283,408.486274 C159.031283,398.153142 167.405175,389.776912 177.734074,389.776912 C188.063808,389.776912 196.437283,398.153142 196.437283,408.486274" id="Fill-33" fill="#00DDBE" mask="url(#mask-6)"></path>
                        <polygon id="Fill-34" fill="#009FDA" mask="url(#mask-6)" points="208.49138 170.092738 200.04862 193.091671 224.125177 188.970359 232.567937 165.971426"></polygon>
                        <polygon id="Fill-35" fill="#FFFFFF" mask="url(#mask-6)" points="185.125037 174.644426 200.813511 193.372577 209.255853 170.373643 193.567796 151.645493"></polygon>
                        <polygon id="Fill-36" fill="#4BC6F0" mask="url(#mask-6)" points="193.633826 151.464917 208.995491 169.900387 232.634634 165.791183 217.279647 147.334002"></polygon>
                        <polygon id="Fill-37" fill="#009FDA" mask="url(#mask-6)" points="268.713074 190.610826 247.82989 197.257699 263.949935 212.021106 284.833119 205.374233"></polygon>
                        <polygon id="Fill-38" fill="#FFFFFF" mask="url(#mask-6)" points="252.678801 176.584837 248.050476 197.952531 268.934077 191.305658 273.561985 169.938382"></polygon>
                        <polygon id="Fill-39" fill="#4BC6F0" mask="url(#mask-6)" points="273.725723 169.886025 269.125779 190.862088 284.997483 205.322377 289.616626 184.340469"></polygon>
                        <polygon id="Fill-40" fill="#009FDA" mask="url(#mask-6)" points="188.415952 96.1997555 207.840393 118.048012 217.078678 90.3908391 197.653403 68.5434181"></polygon>
                        <polygon id="Fill-41" fill="#FFFFFF" mask="url(#mask-6)" points="180.02983 123.352024 208.567343 117.40157 189.142485 95.5537312 160.604972 101.504186"></polygon>
                        <polygon id="Fill-42" fill="#4BC6F0" mask="url(#mask-6)" points="160.452753 101.33267 188.497758 95.5609125 197.501476 68.3713593 169.438524 74.1239109"></polygon>
                        <polygon id="Fill-43" fill="#009FDA" mask="url(#mask-6)" points="271.164763 123.361377 278.819093 148.41867 296.678359 129.349408 289.023613 104.292115"></polygon>
                        <polygon id="Fill-44" fill="#FFFFFF" mask="url(#mask-6)" points="254.18813 142.338242 279.652475 148.163859 271.997728 123.106566 246.533383 117.281366"></polygon>
                        <polygon id="Fill-45" fill="#4BC6F0" mask="url(#mask-6)" points="246.473114 117.084549 271.469993 122.871337 288.964053 104.095172 263.95966 98.2858383"></polygon>
                        <path d="M584.388603,557.396779 C583.871052,559.068518 582.166055,560.024215 580.580846,559.532797 C578.994385,559.041379 578.131244,557.289477 578.649212,555.617321 L591.545415,513.981674 C592.064218,512.309935 593.76838,511.353821 595.353589,511.845238 C596.939215,512.335821 597.804026,514.088976 597.286058,515.760714 L584.388603,557.396779 Z" id="Fill-46" fill="#133055" mask="url(#mask-6)"></path>
                        <path d="M614.205176,556.353404 C614.452265,558.0861 613.320748,559.680598 611.677941,559.914825 C610.034717,560.150305 608.504185,558.936582 608.256678,557.203469 L602.0949,514.052652 C601.847811,512.320373 602.978493,510.726292 604.622135,510.490813 C606.264524,510.256585 607.796308,511.46989 608.043397,513.202169 L614.205176,556.353404 Z" id="Fill-47" fill="#133055" mask="url(#mask-6)"></path>
                    </g>
                    <g id="Group-51" transform="translate(543.290715, 482.567353)">
                        <mask id="mask-8" fill="white">
                            <use xlink:href="#path-7"></use>
                        </mask>
                        <g id="Clip-50"></g>
                        <polygon id="Fill-49" fill="#003055" mask="url(#mask-8)" points="55.1328196 2.23466566 21.3311005 38.6376343 -7.18329637 12.1526618 26.6175918 -24.2503068"></polygon>
                    </g>
                    <g id="Group-54" transform="translate(584.785388, 473.881141)">
                        <mask id="mask-10" fill="white">
                            <use xlink:href="#path-9"></use>
                        </mask>
                        <g id="Clip-53"></g>
                        <polygon id="Fill-52" fill="#009FDA" mask="url(#mask-10)" points="-4.2972477 44.6654723 32.1119863 44.6654723 32.1119863 -4.42337311 -4.2972477 -4.42337311"></polygon>
                    </g>
                    <g id="Group-57" transform="translate(591.540335, 449.752773)">
                        <mask id="mask-12" fill="white">
                            <use xlink:href="#path-11"></use>
                        </mask>
                        <g id="Clip-56"></g>
                        <polygon id="Fill-55" fill="#009FDA" mask="url(#mask-12)" points="-4.55982727 24.830311 18.1312858 24.830311 18.1312858 -4.45536933 -4.55982727 -4.45536933"></polygon>
                    </g>
                    <g id="Group-60" transform="translate(596.365297, 481.602219)">
                        <mask id="mask-14" fill="white">
                            <use xlink:href="#path-13"></use>
                        </mask>
                        <g id="Clip-59"></g>
                        <polygon id="Fill-58" fill="#003055" mask="url(#mask-14)" points="-1.45278797 45.1788661 -5.0142312 -4.0728691 34.1687073 -6.90640421 37.7297351 42.3444999"></polygon>
                    </g>
                    <g id="Group-63" transform="translate(20.264840, 524.068146)">
                        <mask id="mask-16" fill="white">
                            <use xlink:href="#path-15"></use>
                        </mask>
                        <g id="Clip-62"></g>
                        <polygon id="Fill-61" fill="#003055" mask="url(#mask-16)" points="21.1607146 -8.31278338 -20.3584343 24.1521574 5.07148352 56.6835838 46.5902169 24.2190586"></polygon>
                    </g>
                    <g id="Group-66" transform="translate(46.319635, 493.183835)">
                        <mask id="mask-18" fill="white">
                            <use xlink:href="#path-17"></use>
                        </mask>
                        <g id="Clip-65"></g>
                        <polygon id="Fill-64" fill="#009FDA" mask="url(#mask-18)" points="-4.88638984 26.2925796 19.1882517 26.2925796 19.1882517 -4.77907132 -4.88638984 -4.77907132"></polygon>
                    </g>
                    <g id="Group-69" transform="translate(63.689498, 523.103011)">
                        <mask id="mask-20" fill="white">
                            <use xlink:href="#path-19"></use>
                        </mask>
                        <g id="Clip-68"></g>
                        <polygon id="Fill-67" fill="#003055" mask="url(#mask-20)" points="-18.582366 43.1158165 -1.93390688 -6.55934914 37.5855656 6.6908245 20.9362755 56.364328"></polygon>
                    </g>
                    <g id="Group-72" transform="translate(38.599696, 519.242472)">
                        <mask id="mask-22" fill="white">
                            <use xlink:href="#path-21"></use>
                        </mask>
                        <g id="Clip-71"></g>
                        <polygon id="Fill-70" fill="#009FDA" mask="url(#mask-22)" points="-4.62297932 47.1699034 34.0065478 47.1699034 34.0065478 -4.91245814 -4.62297932 -4.91245814"></polygon>
                    </g>
                    <g id="Group-75" transform="translate(421.701674, 334.901743)">
                        <mask id="mask-24" fill="white">
                            <use xlink:href="#path-23"></use>
                        </mask>
                        <g id="Clip-74"></g>
                        <polygon id="Fill-73" fill="#003055" mask="url(#mask-24)" points="-4.62131743 35.4027752 45.7295625 35.4027752 45.7295625 -4.66729232 -4.62131743 -4.66729232"></polygon>
                    </g>
                    <g id="Group-78" transform="translate(401.436834, 355.169572)">
                        <mask id="mask-26" fill="white">
                            <use xlink:href="#path-25"></use>
                        </mask>
                        <g id="Clip-77"></g>
                        <polygon id="Fill-76" fill="#009FDA" mask="url(#mask-26)" points="-4.77587376 45.4329659 32.3525458 45.4329659 32.3525458 -4.62740094 -4.77587376 -4.62740094"></polygon>
                    </g>
                    <g id="Group-81" transform="translate(401.436834, 325.250396)">
                        <mask id="mask-28" fill="white">
                            <use xlink:href="#path-27"></use>
                        </mask>
                        <g id="Clip-80"></g>
                        <polygon id="Fill-79" fill="#003055" mask="url(#mask-28)" points="-4.55442611 45.9544627 35.130405 45.9544627 35.130405 -4.70967692 -4.55442611 -4.70967692"></polygon>
                    </g>
                    <g id="Group-84" transform="translate(408.191781, 330.076070)">
                        <mask id="mask-30" fill="white">
                            <use xlink:href="#path-29"></use>
                        </mask>
                        <g id="Clip-83"></g>
                        <polygon id="Fill-82" fill="#009FDA" mask="url(#mask-30)" points="-4.48795027 25.1357294 18.6522903 25.1357294 18.6522903 -4.72962262 -4.48795027 -4.72962262"></polygon>
                    </g>
                    <g id="Group-104">
                        <path d="M524.767268,501.956422 C524.767268,506.106992 521.403603,509.471788 517.25443,509.471788 L383.28301,509.471788 C379.133836,509.471788 375.770172,506.106992 375.770172,501.956422 L375.770172,402.697645 C375.770172,398.546658 379.133836,395.182279 383.28301,395.182279 L517.25443,395.182279 C521.403603,395.182279 524.767268,398.546658 524.767268,402.697645 L524.767268,501.956422 Z" id="Fill-85" fill="#FFFFFF"></path>
                        <mask id="mask-32" fill="white">
                            <use xlink:href="#path-31"></use>
                        </mask>
                        <g id="Clip-88"></g>
                        <polygon id="Fill-87" fill="#04518C" mask="url(#mask-32)" points="375.770005 418.248064 524.767101 418.248064 524.767101 395.077356 375.770005 395.077356"></polygon>
                        <path d="M397.368995,406.66271 C397.368995,410.293885 394.42605,413.238238 390.795263,413.238238 C387.16531,413.238238 384.221947,410.293885 384.221947,406.66271 C384.221947,403.030701 387.16531,400.086765 390.795263,400.086765 C394.42605,400.086765 397.368995,403.030701 397.368995,406.66271" id="Fill-89" fill="#FFFFFF" mask="url(#mask-32)"></path>
                        <path d="M415.523391,406.66271 C415.523391,410.293885 412.580446,413.238238 408.949659,413.238238 C405.319706,413.238238 402.376343,410.293885 402.376343,406.66271 C402.376343,403.030701 405.319706,400.086765 408.949659,400.086765 C412.580446,400.086765 415.523391,403.030701 415.523391,406.66271" id="Fill-90" fill="#FFFFFF" mask="url(#mask-32)"></path>
                        <path d="M435.031851,406.66271 C435.031851,410.293885 432.088906,413.238238 428.458118,413.238238 C424.828166,413.238238 421.884803,410.293885 421.884803,406.66271 C421.884803,403.030701 424.828166,400.086765 428.458118,400.086765 C432.088906,400.086765 435.031851,403.030701 435.031851,406.66271" id="Fill-91" fill="#FFFFFF" mask="url(#mask-32)"></path>
                        <polygon id="Fill-92" fill="#009FDA" mask="url(#mask-32)" points="245.03716 30.1362414 259.483094 59.7960503 277.947562 32.5653746 263.500793 2.9055657"></polygon>
                        <polygon id="Fill-93" fill="#FFFFFF" mask="url(#mask-32)" points="227.652287 57.0787445 260.469613 59.3154009 246.023262 29.6560095 213.205936 27.4189356"></polygon>
                        <polygon id="Fill-94" fill="#4BC6F0" mask="url(#mask-32)" points="213.092534 27.1864603 245.320519 29.4669563 263.387641 2.67258936 231.146299 0.364954517"></polygon>
                        <path d="M345.720283,214.821097 C345.720283,218.971667 342.356619,222.336463 338.207446,222.336463 L132.241339,222.336463 C128.092166,222.336463 124.728502,218.971667 124.728502,214.821097 L124.728502,212.31681 C124.728502,208.166241 128.092166,204.801444 132.241339,204.801444 L338.207446,204.801444 C342.356619,204.801444 345.720283,208.166241 345.720283,212.31681 L345.720283,214.821097 Z" id="Fill-95" fill="#009FDA" mask="url(#mask-32)"></path>
                        <path d="M441.219591,441.770116 L453.481376,441.770116 C452.847376,435.33738 447.680631,430.239874 441.219591,429.710876 L441.219591,441.770116 Z" id="Fill-96" fill="#00DDBE" mask="url(#mask-32)"></path>
                        <path d="M438.483374,444.32129 L438.483374,443.116744 L438.483374,441.912198 L438.483374,431.064185 C432.445557,431.761444 427.757129,436.889846 427.757129,443.116744 C427.757129,449.819615 433.188493,455.253225 439.889109,455.253225 C446.183197,455.253225 451.357455,450.458421 451.961821,444.32129 L438.483374,444.32129 Z" id="Fill-97" fill="#4BC6F0" mask="url(#mask-32)"></path>
                        <path d="M487.900898,441.770116 L500.162683,441.770116 C499.528683,435.33738 494.361521,430.239874 487.900898,429.710876 L487.900898,441.770116 Z" id="Fill-98" fill="#F2D021" mask="url(#mask-32)"></path>
                        <path d="M485.164681,444.32129 L485.164681,443.116744 L485.164681,441.912198 L485.164681,431.064185 C479.126447,431.761444 474.438019,436.889846 474.438019,443.116744 C474.438019,449.819615 479.8698,455.253225 486.570416,455.253225 C492.864505,455.253225 498.038345,450.458421 498.643129,444.32129 L485.164681,444.32129 Z" id="Fill-99" fill="#00DDBE" mask="url(#mask-32)"></path>
                        <polygon id="Fill-100" fill="#04518C" mask="url(#mask-32)" points="413.895568 471.114906 515.318873 471.114906 515.318873 464.676325 413.895568 464.676325"></polygon>
                        <polygon id="Fill-101" fill="#04518C" mask="url(#mask-32)" points="413.895568 484.164921 515.318873 484.164921 515.318873 477.72634 413.895568 477.72634"></polygon>
                        <polygon id="Fill-102" fill="#04518C" mask="url(#mask-32)" points="413.895568 497.383197 515.318873 497.383197 515.318873 490.944616 413.895568 490.944616"></polygon>
                        <polygon id="Fill-103" fill="#F2D021" mask="url(#mask-32)" points="385.231589 496.87925 406.800111 496.87925 406.800111 430.615434 385.231589 430.615434"></polygon>
                    </g>
                </g>
                <g id="Page-1" transform="translate(238.500000, 258.500000) rotate(-3.000000) translate(-238.500000, -258.500000) translate(215.000000, 235.000000)" fill="#F2D021">
                    <path d="M33.3934525,13.3214896 C33.2581677,11.5813335 33.2153437,9.90054515 33.5443097,8.29566963 L38.4291623,13.1725837 C36.8252099,13.5025126 35.1404759,13.4577435 33.3934525,13.3214896 Z M16.9169292,29.7965246 C16.74466,27.5278983 16.723248,25.4422414 17.4220574,23.4704538 L20.3370073,26.3853126 L23.2548771,29.3021179 C21.2878942,29.9950659 19.2011988,29.9707349 16.9169292,29.7965246 Z M13.3216621,33.3916794 C13.4588934,35.1357285 13.5026907,36.8204098 13.1737247,38.4252853 L8.29568495,33.5425318 C9.90061063,33.2126029 11.5814515,33.2554255 13.3216621,33.3916794 Z M27.9460486,25.750759 C27.6482273,26.1517346 27.3095286,26.5410313 26.9270327,26.922542 C26.8345718,27.0149999 26.742111,27.1045382 26.6486769,27.1911567 L23.1040199,23.6456373 L19.5243251,20.0641079 C19.60608,19.9745697 19.6927012,19.8860047 19.7822422,19.7974397 C20.1754442,19.408143 20.5676728,19.0684817 20.9637946,18.7735895 L22.4743128,20.2840605 L27.9460486,25.750759 Z M29.7962388,16.9185908 C29.9266573,18.6616667 29.9704545,20.3453748 29.6453817,21.9453841 L27.1956558,19.4976813 L24.7673419,17.072363 C26.3625349,16.7463271 28.0453223,16.7872032 29.7962388,16.9185908 Z M43.3947966,10.4523732 C43.0103541,10.8377769 42.6229918,11.1745185 42.2307631,11.4694107 L35.2436428,4.49224118 C35.5385442,4.09710506 35.8782162,3.70975488 36.2636319,3.32240469 C37.0227841,2.5613297 37.0227841,1.32920575 36.2616854,0.569104002 C35.5005866,-0.190997743 34.2684241,-0.18905126 33.5092719,0.571050485 C32.4610578,1.62117825 31.6561618,2.7014765 31.0468935,3.87520596 C31.0420271,3.88299189 31.0400806,3.89175107 31.0361875,3.899537 C29.3991438,6.92923833 29.2842977,10.065023 29.4711659,12.9935072 C26.4647284,12.8008053 23.3969748,12.9146746 20.3554995,14.5740517 C20.3535529,14.5750249 20.3516064,14.5750249 20.3506331,14.5759981 C20.3447935,14.5789179 20.3389539,14.5818376 20.3350608,14.5847573 C20.3243548,14.5896235 20.3155953,14.5944897 20.3058626,14.5993559 C20.3019695,14.6013024 20.2980764,14.6051954 20.2951566,14.6081151 C19.1574015,15.2056855 18.0916686,15.9959577 17.0356684,17.0382996 C16.3670304,17.7088631 15.8142119,18.3833196 15.3363353,19.0957325 C15.3324422,19.1015719 15.3275758,19.1054649 15.3236828,19.1113043 C15.3178431,19.118117 15.3149233,19.1239565 15.3100569,19.1307692 C15.3071371,19.1356354 15.3042173,19.1395283 15.3012975,19.1443945 C15.2974044,19.1482875 15.2954579,19.1531537 15.292538,19.1580199 C12.967391,22.5517136 12.7883089,26.1322698 12.9946426,29.4685422 C10.06996,29.2816798 6.93797037,29.3974956 3.90817434,31.0315683 C3.89649507,31.0374078 3.88578908,31.0393543 3.87410981,31.0451937 C2.70034367,31.6554162 1.62001164,32.4622336 0.569851046,33.5094416 C-0.189301189,34.2695434 -0.190274461,35.5016673 0.568877774,36.2627423 C0.950400436,36.6423066 1.44774248,36.8320887 1.94605779,36.8320887 C2.44534638,36.8320887 2.94171515,36.6423066 3.32323781,36.2627423 C3.70865356,35.8763654 4.09698912,35.5376773 4.49311087,35.242785 L11.4704985,42.2287138 C11.1755971,42.6209302 10.8388449,43.0073071 10.4534292,43.393684 C9.69330368,44.154759 9.69427695,45.386883 10.4553757,46.1469847 C10.8339786,46.5255757 11.3322939,46.7153579 11.8296359,46.7153579 C12.3279512,46.7153579 12.8282131,46.5246025 13.2077892,46.144065 C14.2433507,45.1065894 15.0414338,44.0408898 15.6468091,42.8895449 C15.6477824,42.8885716 15.6487556,42.8875984 15.6487556,42.8866251 C15.6497289,42.8846786 15.6507022,42.8817589 15.6516755,42.8798124 C15.6575151,42.8671603 15.6672478,42.8545082 15.6721142,42.841856 C15.6760073,42.8350433 15.6769805,42.8272574 15.6808736,42.8204447 C17.3325164,39.773225 17.4444427,36.7143264 17.248815,33.7157689 C17.8872815,33.7556718 18.5325609,33.7868155 19.1865997,33.7868155 C21.9662648,33.7868155 24.8559097,33.3118736 27.6151361,31.4033466 C27.6170826,31.4023734 27.6180559,31.4004269 27.6200024,31.3994537 C28.3450901,30.8992075 29.0195677,30.3357005 29.6794462,29.6768159 C30.6965155,28.6588051 31.4965452,27.591159 32.1213859,26.4145098 C32.1233324,26.4106169 32.1262522,26.4086704 32.1281988,26.4047774 L32.1369582,26.3872591 C32.1389048,26.3843393 32.1408513,26.3823929 32.1418246,26.3804464 C32.1427979,26.3794731 32.1418246,26.3784999 32.1427979,26.3775267 C33.7954139,23.3371197 33.9112333,20.2753014 33.7185254,17.2417071 C34.3560186,17.2825832 34.9993515,17.3147002 35.652417,17.3147002 C38.0135751,17.3147002 40.4584346,16.9643332 42.8225126,15.6796542 C42.8273789,15.6767345 42.8341918,15.6757612 42.8410047,15.6728415 C42.852684,15.6670021 42.8624167,15.6601894 42.8731227,15.6543499 C42.8779891,15.6514302 42.8838287,15.6494837 42.8896683,15.646564 C42.8925882,15.6446175 42.8945347,15.642671 42.8974545,15.6407245 C44.0459156,15.0353682 45.109702,14.241203 46.1442902,13.2076204 C46.905389,12.4475186 46.905389,11.2153946 46.1462368,10.4543197 C45.3880578,9.69324467 44.1549221,9.69129819 43.3947966,10.4523732 Z" id="Fill-1"></path>
                </g>
            </g>
        </g>
    </g>
</svg>