<?xml version="1.0" encoding="UTF-8"?>
<svg width="887px" height="546px" viewBox="0 0 887 546" version="1.1" xmlns="http://www.w3.org/2000/svg" xmlns:xlink="http://www.w3.org/1999/xlink">
    <!-- Generator: Sketch 50 (54983) - http://www.bohemiancoding.com/sketch -->
    <title>Artboard</title>
    <desc>Created with Sketch.</desc>
    <defs>
        <polygon id="path-1" points="0.71187384 0.748026539 211.218031 0.748026539 211.218031 525.821029 0.71187384 525.821029"></polygon>
        <polygon id="path-3" points="0.821543696 0.433802349 127.564609 0.433802349 127.564609 104.933583 0.821543696 104.933583"></polygon>
        <path d="M0.529346801,0.0589760075 C0.122747084,0.202819928 -0.0948500197,0.659524376 0.0446353034,1.07846979 C1.09025216,4.23278717 3.26535141,6.77738612 6.16926149,8.24351529 C9.02749011,9.68734864 12.2553548,9.91588067 15.2743403,8.89279078 C15.3233345,8.87606893 15.3711083,8.85898746 15.4197538,8.8420858 C15.8265278,8.69860149 16.0441249,8.24189704 15.9046396,7.82241221 C15.8887732,7.7744043 15.8687221,7.72909346 15.8455327,7.68665951 C15.6654223,7.35707712 15.279571,7.19920842 14.9162117,7.32381322 C12.2645958,8.26383324 9.38614175,8.07935341 6.85570363,6.80237901 C4.32543987,5.52450558 2.4291369,3.30661213 1.51864646,0.558114412 C1.40880176,0.227992614 1.10263148,0.00809122053 0.786174153,0.00809122053 C0.700041966,0.00809122053 0.613212352,0.0242736616 0.529346801,0.0589760075 Z" id="path-5"></path>
        <path d="M0.395232178,2.97528173 C0.337449696,3.26711338 0.304024753,3.56797835 0.297090855,3.87584875 L0.0401810492,15.4838535 L9.87849316,15.4838535 L10.1359363,4.1101621 C10.1428702,3.80155428 10.1227797,3.49958319 10.0777983,3.2055393 C9.81253224,1.45473376 8.28174094,0.206844668 6.57137946,0.16628689 L4.03286168,0.105634577 C4.00405933,0.105081516 3.97507919,0.104712809 3.94627685,0.104712809 C2.26934032,0.104897162 0.732504082,1.26798363 0.395232178,2.97528173 Z" id="path-7"></path>
        <path d="M2.62263328,0 C1.25699123,0 0.149345493,1.11219071 0.149345493,2.48307197 L0.149345493,5.81944555 C0.149345493,7.19092241 1.25699123,8.30251751 2.62263328,8.30251751 L3.20203848,8.30251751 C4.56847072,8.30251751 5.67552381,7.19092241 5.67552381,5.81944555 L5.67552381,2.48307197 C5.67552381,1.11219071 4.56847072,0 3.20203848,0 L2.62263328,0 Z" id="path-9"></path>
        <path d="M11.691966,0.186401909 C10.0802014,0.350435589 8.54331634,0.815580046 7.14006542,1.54856971 C7.13988007,1.54876089 7.13950938,1.54914325 7.13839731,1.54952562 C5.56536989,2.37160583 4.16100689,3.53073893 3.00889915,4.9808502 C1.31372904,7.11386158 0.32342793,9.67856067 0.125849607,12.3742191 L0.120289242,12.459486 C0.084332211,12.9932646 0.079698573,13.5320139 0.106944364,14.072675 C0.117323713,14.2848864 0.133263428,14.4969066 0.152354016,14.7087357 C0.192573994,15.1253201 0.515445887,15.4419165 0.904671477,15.476138 L0.926727593,15.4780498 C0.969727754,15.4805352 1.01309861,15.4795793 1.05721084,15.4757556 C1.51167805,15.4289162 1.83417925,15.0142436 1.79859291,14.5414519 C1.50630303,11.4636218 2.38910374,8.45366115 4.28778323,6.0637019 C6.18738945,3.67336029 8.87452878,2.18940991 11.853958,1.88619614 C12.3086105,1.83878314 12.62481,1.42047814 12.5958961,0.952083598 C12.554008,0.511028004 12.1946231,0.182004736 11.7748155,0.182004736 C11.7475697,0.182004736 11.7197678,0.183534188 11.691966,0.186401909 Z" id="path-11"></path>
        <polygon id="path-13" points="0.0217213489 0.159951185 3.79694033 0.159951185 3.79694033 18.4079001 0.0217213489 18.4079001"></polygon>
        <path d="M0.817369453,0.0792457091 C0.352471585,0.16395664 0.0453250099,0.603658537 0.131923632,1.0597561 C0.142558551,1.11415989 0.152687045,1.16781843 0.163575175,1.22247064 C0.845476023,4.58730804 2.80331388,7.50449413 5.69044105,9.44887082 C8.62314644,11.4247967 12.1643211,12.1608627 15.6606772,11.5211834 C16.125575,11.4367209 16.4324684,10.9972674 16.346123,10.5411698 C16.2848456,10.0887986 15.813111,9.78299458 15.3474535,9.86745709 C12.3008026,10.4256549 9.21439727,9.78373984 6.65847185,8.06219512 C4.10355928,6.33990515 2.37563823,3.72877145 1.81527931,0.75196477 C1.73450457,0.346544715 1.37899444,0.0650858175 0.975373956,0.0650858175 C0.923465425,0.0650858175 0.870544045,0.0695573622 0.817369453,0.0792457091 Z" id="path-15"></path>
        <path d="M6.37027797,0.158888889 L3.76887874,0.219198848 C2.01609643,0.259647696 0.447273301,1.50193598 0.175542747,3.24462737 C0.1293726,3.53745766 0.108692222,3.83803862 0.115665838,4.14515921 L0.379701367,15.4674458 L10.4621073,15.4674458 L10.1985527,3.91191226 C10.1915791,3.6057605 10.1569515,3.30590617 10.0980364,3.01549797 C9.75224125,1.31591972 8.17764686,0.158162263 6.45901122,0.158162263 C6.42943347,0.158162263 6.39985572,0.158404472 6.37027797,0.158888889 Z" id="path-17"></path>
        <path d="M2.09219167,0.125745257 C0.9721381,0.125745257 0.0645527058,1.04585366 0.0645527058,2.1803794 L0.0645527058,4.94070461 C0.0645527058,6.07566396 0.9721381,6.99512195 2.09219167,6.99512195 L2.56735944,6.99512195 C3.68698551,6.99512195 4.5949984,6.07566396 4.5949984,4.94070461 L4.5949984,2.1803794 C4.5949984,1.04585366 3.68698551,0.125745257 2.56735944,0.125745257 L2.09219167,0.125745257 Z" id="path-19"></path>
        <path d="M5.32535331,0.0917239942 C3.75074555,0.0917239942 2.17393349,0.384017789 0.662270862,0.97031756 C0.23610544,1.13493155 0.0247371883,1.6143423 0.190794749,2.04092002 C0.370812901,2.45918143 0.83641087,2.67785143 1.26331106,2.51323744 C4.05738872,1.42942673 7.10839025,1.49864777 9.85348337,2.70720311 C12.5978417,3.91624765 14.7066258,6.12031409 15.7955519,8.91410465 C15.9709166,9.33897019 16.4411681,9.55176986 16.8675784,9.38666667 C16.9087254,9.37027865 16.947913,9.35120006 16.9851413,9.32992009 L17.0037554,9.31842402 C17.3366053,9.11271767 17.4860081,8.69323327 17.3392994,8.31484122 C17.2636183,8.12283233 17.1847532,7.93229102 17.1009897,7.74419568 C16.887907,7.26405114 16.6473929,6.80053923 16.3814069,6.35512751 L16.3387904,6.28394969 C14.9804493,4.04221527 12.970614,2.27157529 10.5211425,1.19290112 C8.8559134,0.45959836 7.0927152,0.0917239942 5.32706777,0.0917239942 L5.32535331,0.0917239942 Z" id="path-21"></path>
        <path d="M9.05376512,0.177904246 C8.60732403,0.29184583 8.35142791,0.806136706 8.48638682,1.26993074 C9.37401085,4.30362541 9.06327984,7.51444746 7.61453721,10.3083469 C6.16429225,13.1012105 3.73428062,15.1547486 0.81275814,16.0626558 C0.41464186,16.1908401 0.171265116,16.5841975 0.214832558,16.9943872 C0.220341085,17.0472147 0.230356589,17.1005601 0.246131008,17.1536465 C0.381089922,17.6169226 0.854322481,17.8787293 1.30226589,17.7388919 C1.35584884,17.7223186 1.40843023,17.7054863 1.46201318,17.6881361 C4.75936744,16.6126829 7.47106512,14.2906052 9.10809922,11.1346823 C10.7719248,7.92852153 11.1274752,4.24510087 10.1093992,0.763149654 C9.99922868,0.384811804 9.66245736,0.140614273 9.29864419,0.140614273 C9.2175186,0.140614273 9.13514109,0.152526347 9.05376512,0.177904246 Z" id="path-23"></path>
        <polygon id="path-25" points="0.133227139 0.165636956 4.53359078 0.165636956 4.53359078 19.0593195 0.133227139 19.0593195"></polygon>
        <path d="M7.16717424,0.253745517 L4.22564478,0.317374322 C2.2441431,0.360221138 0.470361953,1.67615719 0.163131313,3.52241881 C0.111201178,3.83260923 0.087547138,4.15100983 0.0954318182,4.47608118 L0.393962121,16.4698544 L11.7935783,16.4698544 L11.4955918,4.22926299 C11.4877071,3.90444821 11.4488274,3.58733045 11.3819436,3.27944914 C10.9912441,1.47936972 9.21039394,0.252975814 7.2675,0.252462678 C7.23432997,0.252462678 7.20061616,0.253232381 7.16717424,0.253745517 Z" id="path-27"></path>
        <path d="M2.1009138,0.230444499 C0.96073468,0.230444499 0.0371939394,1.30307268 0.0371939394,2.6248437 L0.0371939394,5.84222288 C0.0371939394,7.16475195 0.96073468,8.23687476 2.1009138,8.23687476 L2.584,8.23687476 C3.72330909,8.23687476 4.64750236,7.16475195 4.64750236,5.84222288 L4.64750236,2.6248437 C4.64750236,1.30307268 3.72330909,0.230444499 2.584,0.230444499 L2.1009138,0.230444499 Z" id="path-29"></path>
        <path d="M3.31997857,0.193351781 C2.94493968,0.482000158 2.84880873,1.00061427 3.13053651,1.37954364 C4.98189048,3.85750595 5.73453175,6.89445804 5.25054444,9.92965467 C4.76630079,12.964099 3.10285079,15.6324037 0.567300794,17.4473023 C0.184315079,17.7334429 0.0958746032,18.2548156 0.377602381,18.6329926 C0.405288095,18.6693558 0.435024603,18.7029604 0.467068254,18.7343079 L0.483987302,18.7498563 C0.78160873,19.0247118 1.24662619,19.0618273 1.59039048,18.8165639 C1.76445159,18.6909229 1.93569286,18.5627741 2.10385794,18.4301112 C2.53298651,18.0928114 2.93724921,17.732189 3.31638968,17.3512534 L3.37714444,17.2903137 C5.28130635,15.3540373 6.53203413,12.8983945 6.96398254,10.1897141 C7.25801508,8.34848349 7.15521905,6.50725292 6.67866587,4.76081738 C6.67866587,4.75956348 6.67866587,4.7593127 6.67866587,4.75906192 C6.25363889,3.20071177 5.53252857,1.71809734 4.53122857,0.377424682 C4.3620381,0.150217531 4.09851111,0.0298428818 3.83139524,0.0295921013 C3.65374524,0.0295921013 3.47455714,0.083008352 3.31997857,0.193351781 Z" id="path-31"></path>
        <polygon id="path-33" points="0.0480576139 0.143718767 3.76556083 0.143718767 3.76556083 16.5423389 0.0480576139 16.5423389"></polygon>
        <path d="M9.04659605,0.0469992892 C8.62826842,0.126783448 8.36840877,0.570181621 8.47258465,0.986526543 C9.15726842,3.70950487 8.72501974,6.53427679 7.25774079,8.93765995 C5.78976579,11.3405846 3.44801272,13.0442515 0.703013158,13.7123292 C0.329232895,13.8072448 0.0863105263,14.1438056 0.107888158,14.5087952 C0.110672368,14.5560238 0.117632895,14.6034816 0.129697807,14.6509394 C0.233873684,15.0668258 0.660089912,15.3201634 1.08073772,15.2172235 C1.13108553,15.2046139 1.18050526,15.1924629 1.23085307,15.1798533 C4.33130351,14.3808654 6.94567719,12.452519 8.60251447,9.73756493 C10.2869618,6.97927981 10.7823193,3.73908004 9.99740395,0.613283408 C9.90923728,0.260215577 9.588125,0.0240728067 9.23569035,0.0240728067 C9.17327763,0.0240728067 9.10993684,0.0316385459 9.04659605,0.0469992892 Z" id="path-35"></path>
        <path d="M6.19376106,0.0715603858 L3.6267506,0.126947681 C1.89690161,0.163724846 0.349054575,1.30027215 0.0806788278,2.89431852 C0.0353563098,3.16217148 0.0149493122,3.43711401 0.0218307416,3.71781683 L0.282138606,14.0743549 L10.2314991,14.0743549 L9.97142853,3.50468651 C9.9645471,3.22464835 9.93061453,2.95037046 9.87224103,2.68473299 C9.53125434,1.13012238 7.97700045,0.0711172875 6.28132132,0.0706741891 C6.25213457,0.0706741891 6.22294782,0.0713388367 6.19376106,0.0715603858 Z" id="path-37"></path>
        <path d="M2.09804386,0.0549441972 C1.04064912,0.0549441972 0.184,0.995198926 0.184,2.15434425 L0.184,4.97510843 C0.184,6.1349184 1.04064912,7.07473003 2.09804386,7.07473003 L2.54634211,7.07473003 C3.60313158,7.07473003 4.46038596,6.1349184 4.46038596,4.97510843 L4.46038596,2.15434425 C4.46038596,0.995198926 3.60313158,0.0549441972 2.54634211,0.0549441972 L2.09804386,0.0549441972 Z" id="path-39"></path>
        <path d="M0.124486336,0.92095851 C0.0981612686,1.34610424 0.386398448,1.7250534 0.801129808,1.76804823 C3.5184122,2.04248335 5.96887441,3.38790151 7.7014208,5.55410936 C9.43329791,7.7205459 10.2382203,10.448431 9.97162323,13.2382926 C9.93905154,13.6668688 10.2333122,14.0423875 10.6478205,14.0849249 C10.6879774,14.0888128 10.727465,14.0890415 10.7667295,14.0872119 L10.7868079,14.0851536 C11.1419733,14.0545084 11.436234,13.767495 11.4728214,13.3894606 C11.4904458,13.1978134 11.5049469,13.0057088 11.5145399,12.8131469 C11.5393033,12.3230515 11.5350645,11.8347857 11.5022697,11.3513225 L11.4971386,11.2737946 C11.3168788,8.83063594 10.4137951,6.50594182 8.86775515,4.57254642 C7.81720648,3.25845961 6.53620192,2.20783051 5.10170884,1.46273917 C5.10059337,1.46205308 5.10059337,1.46205308 5.10014718,1.46182438 C3.8202581,0.797462708 2.41878289,0.375747413 0.948817898,0.227323754 C0.923385206,0.224808099 0.898175607,0.223435924 0.873189103,0.223435924 C0.490360155,0.223435924 0.162635374,0.521655416 0.124486336,0.92095851 Z" id="path-41"></path>
    </defs>
    <g id="Artboard" stroke="none" stroke-width="1" fill="none" fill-rule="evenodd">
        <g id="Group-2-Copy">
            <g id="Page-1">
                <polygon id="Fill-1" fill="#4BC6F0" points="525.941408 1.17897092 400.94188 50.1726196 400.94188 424.42953 525.941408 424.42953"></polygon>
                <polygon id="Fill-2" fill="#009FDA" points="262.970704 424.42953 284.197039 430.226616 284.197039 440.935123 262.970704 439.151317"></polygon>
                <polygon id="Fill-3" fill="#009FDA" points="306.602614 430.324385 326.649708 438.467804 326.649708 469.230425 306.602614 469.230425"></polygon>
                <g id="Group-78">
                    <path d="M165.556162,393.602524 C165.556162,393.602524 181.451948,368.277784 200.034704,393.602524 L200.034704,419.005676 L200.034704,432.389897 L165.556162,432.389897 L165.556162,393.602524 Z" id="Fill-4" fill="#009FDA"></path>
                    <polyline id="Fill-6" fill="#4BC6F0" points="220.487728 419.006022 248.61672 423.997862 248.61672 510.643021 216.859743 507.920513 216.859743 419.006022"></polyline>
                    <polygon id="Fill-8" fill="#4BC6F0" points="367.479816 419.006022 395.609962 423.997862 395.660703 512.129387 367.479816 518.80939"></polygon>
                    <polygon id="Fill-10" fill="#FFFFFF" points="367.479816 518.80916 367.479816 419.005791 352.055691 419.005791 352.055691 438.041435 326.649418 438.059885 326.649418 468.909205 306.688581 468.909205 306.688581 429.893515 284.003873 429.893515 284.003873 440.781239 263.135464 438.968541 263.135464 423.997632 248.616605 423.997632 248.616605 510.64279"></polygon>
                    <polygon id="Fill-12" fill="#FFFFFF" points="30.8507878 269.303622 0.000230641127 274.747484 0.000230641127 501.458219 30.8507878 502.611335"></polygon>
                    <polygon id="Fill-14" fill="#FFFFFF" points="57.5985854 266.828458 57.5985854 385.683613 85.4992425 385.683613 85.4992425 261.384596"></polygon>
                    <polygon id="Fill-16" fill="#009FDA" points="30.8507878 269.303622 85.2924728 276.444871 85.2924728 497.53647 30.8507878 502.668991"></polygon>
                    <polygon id="Fill-18" fill="#4BC6F0" points="718.628627 315.138841 743.543634 322.380412 744.091407 355.898043 744.091407 510.539009 718.628627 509.489674"></polygon>
                    <polygon id="Fill-20" fill="#009FDA" points="835.800662 510.64279 835.800662 348.963202 744.091984 355.898043 744.091984 510.539009"></polygon>
                    <polygon id="Fill-22" fill="#FFFFFF" points="886.925727 358.188132 834.647456 348.963202 834.647456 510.64279 886.925727 510.64279"></polygon>
                    <polygon id="Fill-24" fill="#4BC6F0" points="561.342218 19.1617947 579.788895 13.0214504 579.788895 33.0095682"></polygon>
                    <polygon id="Fill-26" fill="#4BC6F0" points="678.286726 81.3608875 678.286726 66.0647998 579.789126 13.0214504 579.789126 33.0095682"></polygon>
                    <g id="Group-30" transform="translate(507.410480, 0.000000)">
                        <mask id="mask-2" fill="white">
                            <use xlink:href="#path-1"></use>
                        </mask>
                        <g id="Clip-29"></g>
                        <polygon id="Fill-28" fill="#009FDA" mask="url(#mask-2)" points="19.3119276 0.748026539 19.3119276 423.685714 0.71187384 422.845092 0.71187384 525.821836 211.218031 509.489097 211.218031 433.525255 211.218031 432.372139 211.218031 102.818421"></polygon>
                    </g>
                    <g id="Group-33" transform="translate(380.557860, 420.887447)">
                        <mask id="mask-4" fill="white">
                            <use xlink:href="#path-3"></use>
                        </mask>
                        <g id="Clip-32"></g>
                        <polygon id="Fill-31" fill="#FFFFFF" mask="url(#mask-4)" points="127.564609 104.933813 0.821543696 99.1682317 0.821543696 0.433802349 127.564609 1.58691864"></polygon>
                    </g>
                    <polygon id="Fill-34" fill="#4BC6F0" points="85.4995885 261.384942 143.877164 269.303391 143.877164 435.062705 83.9104711 435.062705"></polygon>
                    <path d="M99.8561914,433.862542 C97.632811,433.862542 95.8130525,432.042924 95.8130525,429.819716 L95.8130525,279.206585 C95.8130525,276.982223 97.632811,275.163759 99.8561914,275.163759 C102.080725,275.163759 103.89933,276.982223 103.89933,279.206585 L103.89933,429.819716 C103.89933,432.042924 102.080725,433.862542 99.8561914,433.862542" id="Fill-36" fill="#009FDA"></path>
                    <path d="M114.847865,436.168774 C112.624484,436.168774 110.804726,434.349157 110.804726,432.125949 L110.804726,281.512817 C110.804726,279.288456 112.624484,277.469991 114.847865,277.469991 C117.072398,277.469991 118.891004,279.288456 118.891004,281.512817 L118.891004,432.125949 C118.891004,434.349157 117.072398,436.168774 114.847865,436.168774" id="Fill-38" fill="#009FDA"></path>
                    <path d="M129.839538,437.321891 C127.616158,437.321891 125.796399,435.502273 125.796399,433.279065 L125.796399,282.665933 C125.796399,280.441572 127.616158,278.623108 129.839538,278.623108 C132.064072,278.623108 133.882677,280.441572 133.882677,282.665933 L133.882677,433.279065 C133.882677,435.502273 132.064072,437.321891 129.839538,437.321891" id="Fill-40" fill="#009FDA"></path>
                    <polygon id="Fill-42" fill="#4BC6F0" points="141.627145 429.893054 40.831206 435.658636 40.831206 501.002277 142.723843 505.259582"></polygon>
                    <path d="M760.066303,501.407712 C757.842923,501.407712 756.023164,499.589248 756.023164,497.364886 L756.023164,369.068015 C756.023164,366.844807 757.842923,365.026342 760.066303,365.026342 C762.290837,365.026342 764.109442,366.844807 764.109442,369.068015 L764.109442,497.364886 C764.109442,499.589248 762.290837,501.407712 760.066303,501.407712" id="Fill-44" fill="#4BC6F0"></path>
                    <path d="M779.670799,501.407712 C777.447419,501.407712 775.62766,499.589248 775.62766,497.364886 L775.62766,367.413293 C775.62766,365.190085 777.447419,363.370467 779.670799,363.370467 C781.895333,363.370467 783.713938,365.190085 783.713938,367.413293 L783.713938,497.364886 C783.713938,499.589248 781.895333,501.407712 779.670799,501.407712" id="Fill-46" fill="#4BC6F0"></path>
                    <path d="M798.122089,501.407712 C795.898709,501.407712 794.07895,499.589248 794.07895,497.364886 L794.07895,365.931538 C794.07895,363.707177 795.898709,361.888713 798.122089,361.888713 C800.346623,361.888713 802.165228,363.707177 802.165228,365.931538 L802.165228,497.364886 C802.165228,499.589248 800.346623,501.407712 798.122089,501.407712" id="Fill-48" fill="#4BC6F0"></path>
                    <path d="M816.6759,501.407712 C814.452519,501.407712 812.633914,499.589248 812.633914,497.364886 L812.633914,364.45555 C812.633914,362.232341 814.452519,360.413877 816.6759,360.413877 C818.900433,360.413877 820.719039,362.232341 820.719039,364.45555 L820.719039,497.364886 C820.719039,499.589248 818.900433,501.407712 816.6759,501.407712" id="Fill-50" fill="#4BC6F0"></path>
                    <path d="M441.308618,114.49603 L433.810475,114.49603 C429.243781,114.49603 425.508547,110.759933 425.508547,106.193593 L425.508547,93.5865723 C425.508547,89.0202318 429.243781,85.284135 433.810475,85.284135 L441.308618,85.284135 C445.875312,85.284135 449.611698,89.0202318 449.611698,93.5865723 L449.611698,106.193593 C449.611698,110.759933 445.875312,114.49603 441.308618,114.49603" id="Fill-52" fill="#009FDA"></path>
                    <path d="M490.416727,110.573359 L482.918584,110.573359 C478.351889,110.573359 474.615503,106.837262 474.615503,102.270922 L474.615503,89.6639013 C474.615503,85.0975608 478.351889,81.361464 482.918584,81.361464 L490.416727,81.361464 C494.983421,81.361464 498.719807,85.0975608 498.719807,89.6639013 L498.719807,102.270922 C498.719807,106.837262 494.983421,110.573359 490.416727,110.573359" id="Fill-54" fill="#009FDA"></path>
                    <path d="M490.416727,162.463592 L482.918584,162.463592 C478.351889,162.463592 474.615503,158.727495 474.615503,154.161155 L474.615503,141.554134 C474.615503,136.987794 478.351889,133.251697 482.918584,133.251697 L490.416727,133.251697 C494.983421,133.251697 498.719807,136.987794 498.719807,141.554134 L498.719807,154.161155 C498.719807,158.727495 494.983421,162.463592 490.416727,162.463592" id="Fill-56" fill="#009FDA"></path>
                    <path d="M441.308618,212.373002 L433.810475,212.373002 C429.243781,212.373002 425.508547,208.636905 425.508547,204.070565 L425.508547,191.462391 C425.508547,186.896051 429.243781,183.161107 433.810475,183.161107 L441.308618,183.161107 C445.875312,183.161107 449.611698,186.896051 449.611698,191.462391 L449.611698,204.070565 C449.611698,208.636905 445.875312,212.373002 441.308618,212.373002" id="Fill-58" fill="#009FDA"></path>
                    <path d="M490.416727,270.713422 L482.918584,270.713422 C478.351889,270.713422 474.615503,266.977325 474.615503,262.410985 L474.615503,249.802811 C474.615503,245.236471 478.351889,241.500374 482.918584,241.500374 L490.416727,241.500374 C494.983421,241.500374 498.719807,245.236471 498.719807,249.802811 L498.719807,262.410985 C498.719807,266.977325 494.983421,270.713422 490.416727,270.713422" id="Fill-60" fill="#009FDA"></path>
                    <path d="M490.416727,308.988119 L482.918584,308.988119 C478.351889,308.988119 474.615503,305.253175 474.615503,300.686835 L474.615503,288.078661 C474.615503,283.512321 478.351889,279.776224 482.918584,279.776224 L490.416727,279.776224 C494.983421,279.776224 498.719807,283.512321 498.719807,288.078661 L498.719807,300.686835 C498.719807,305.253175 494.983421,308.988119 490.416727,308.988119" id="Fill-62" fill="#009FDA"></path>
                    <path d="M441.308618,310.249398 L433.810475,310.249398 C429.243781,310.249398 425.508547,306.513301 425.508547,301.94696 L425.508547,289.33994 C425.508547,284.772446 429.243781,281.037503 433.810475,281.037503 L441.308618,281.037503 C445.875312,281.037503 449.611698,284.772446 449.611698,289.33994 L449.611698,301.94696 C449.611698,306.513301 445.875312,310.249398 441.308618,310.249398" id="Fill-64" fill="#009FDA"></path>
                    <path d="M441.308618,348.525133 L433.810475,348.525133 C429.243781,348.525133 425.508547,344.789036 425.508547,340.222695 L425.508547,327.614522 C425.508547,323.048181 429.243781,319.312085 433.810475,319.312085 L441.308618,319.312085 C445.875312,319.312085 449.611698,323.048181 449.611698,327.614522 L449.611698,340.222695 C449.611698,344.789036 445.875312,348.525133 441.308618,348.525133" id="Fill-66" fill="#009FDA"></path>
                    <polygon id="Fill-68" fill="#FFFFFF" points="220.487728 419.006022 220.487728 507.920513 139.395461 504.461164 139.395461 419.006022 170.640415 419.006022 170.585061 429.892593 193.267463 429.892593 193.127925 419.006022 198.711746 419.006022"></polygon>
                    <path d="M62.2620336,463.883002 L52.9349064,463.883002 C50.6527125,463.883002 48.7833661,462.014953 48.7833661,459.73063 L48.7833661,448.509655 C48.7833661,446.226485 50.6527125,444.358437 52.9349064,444.358437 L62.2620336,444.358437 C64.5453808,444.358437 66.4135739,446.226485 66.4135739,448.509655 L66.4135739,459.73063 C66.4135739,462.014953 64.5453808,463.883002 62.2620336,463.883002" id="Fill-70" fill="#009FDA"></path>
                    <path d="M87.1145377,490.521718 L77.7874105,490.521718 C75.5052165,490.521718 73.6358702,488.653669 73.6358702,486.369346 L73.6358702,475.148371 C73.6358702,472.865201 75.5052165,470.997153 77.7874105,470.997153 L87.1145377,470.997153 C89.3967316,470.997153 91.266078,472.865201 91.266078,475.148371 L91.266078,486.369346 C91.266078,488.653669 89.3967316,490.521718 87.1145377,490.521718" id="Fill-72" fill="#009FDA"></path>
                    <path d="M120.557501,464.000043 L111.230374,464.000043 C108.94818,464.000043 107.078834,462.131995 107.078834,459.847671 L107.078834,448.626697 C107.078834,446.343526 108.94818,444.475478 111.230374,444.475478 L120.557501,444.475478 C122.839695,444.475478 124.709041,446.343526 124.709041,448.626697 L124.709041,459.847671 C124.709041,462.131995 122.839695,464.000043 120.557501,464.000043" id="Fill-74" fill="#009FDA"></path>
                    <path d="M120.557501,490.521718 L111.230374,490.521718 C108.94818,490.521718 107.078834,488.653669 107.078834,486.369346 L107.078834,475.148371 C107.078834,472.865201 108.94818,470.997153 111.230374,470.997153 L120.557501,470.997153 C122.839695,470.997153 124.709041,472.865201 124.709041,475.148371 L124.709041,486.369346 C124.709041,488.653669 122.839695,490.521718 120.557501,490.521718" id="Fill-76" fill="#009FDA"></path>
                </g>
            </g>
            <g id="Page-1" transform="translate(391.000000, 500.000000)">
                <g id="Group-5" transform="translate(5.728861, 23.824149)" fill="#133055">
                    <path d="M7.28012476,17.9632738 C7.34515274,18.6180289 7.81003364,19.0612062 8.31815123,18.9539734 C8.82661471,18.8461631 9.18513334,18.2285642 9.12010536,17.5738092 L7.4999401,1.26461473 C7.43508506,0.609474683 6.97037711,0.166489894 6.46208658,0.273915149 C5.95396899,0.381340404 5.59475857,0.9993244 5.65978655,1.65407941 L7.28012476,17.9632738 Z" id="Fill-1"></path>
                    <path d="M0.176734296,17.6885886 C0.100983614,18.3500818 0.447741872,18.9588249 0.951189896,19.0481534 C1.45481087,19.137867 1.92366954,18.6744752 1.99959317,18.0131746 L3.88748002,1.53899192 C3.96340365,0.877883806 3.61699128,0.269333212 3.11319737,0.179427129 C2.61009524,0.0899060828 2.14054478,0.553105302 2.0647941,1.21459845 L0.176734296,17.6885886 Z" id="Fill-3"></path>
                </g>
                <g id="Group-8" transform="translate(14.895040, 11.912075)">
                    <mask id="mask-6" fill="white">
                        <use xlink:href="#path-5"></use>
                    </mask>
                    <g id="Clip-7"></g>
                    <polygon id="Fill-6" fill="#003055" mask="url(#mask-6)" points="-2.78939262 -0.0589760075 6.1531858 16.2840308 18.5686001 9.05929012 9.62619599 -7.28371673"></polygon>
                </g>
                <g id="Group-11" transform="translate(5.728861, 9.529660)">
                    <mask id="mask-8" fill="white">
                        <use xlink:href="#path-7"></use>
                    </mask>
                    <g id="Clip-10"></g>
                    <polygon id="Fill-9" fill="#009FDA" mask="url(#mask-8)" points="-1.71160602 17.2999202 11.888968 17.2999202 11.888968 -1.71116953 -1.71160602 -1.71116953"></polygon>
                </g>
                <g id="Group-14" transform="translate(8.020406, 0.000000)">
                    <mask id="mask-10" fill="white">
                        <use xlink:href="#path-9"></use>
                    </mask>
                    <g id="Clip-13"></g>
                    <polygon id="Fill-12" fill="#009FDA" mask="url(#mask-10)" points="-1.7962944 10.2582816 7.62175634 10.2582816 7.62175634 -1.95596266 -1.7962944 -1.95596266"></polygon>
                </g>
                <g id="Group-17" transform="translate(0.000000, 11.912075)">
                    <mask id="mask-12" fill="white">
                        <use xlink:href="#path-11"></use>
                    </mask>
                    <g id="Clip-16"></g>
                    <polygon id="Fill-15" fill="#003055" mask="url(#mask-12)" points="13.2196023 18.2832361 14.6065428 -1.49754338 -0.652027 -2.63545534 -2.03878217 17.1447505"></polygon>
                </g>
            </g>
            <g id="Page-1" transform="translate(713.000000, 500.000000)">
                <g id="Group-6" transform="translate(15.283174, 22.655827)">
                    <path d="M10.9671194,18.2676564 C11.1671022,18.9269047 11.7217891,19.2891722 12.2058122,19.077604 C12.6902972,18.8660359 12.9198388,18.1603997 12.7198559,17.5011515 L7.73737332,1.08155003 C7.53715954,0.422301772 6.98270364,0.0597888595 6.49844956,0.27160243 C6.01442641,0.482925123 5.78442304,1.18880673 5.98440589,1.84805499 L10.9671194,18.2676564 Z" id="Fill-1" fill="#133055"></path>
                    <g id="Group-5" transform="translate(0.000000, 0.981755)">
                        <mask id="mask-14" fill="white">
                            <use xlink:href="#path-13"></use>
                        </mask>
                        <g id="Clip-4"></g>
                        <path d="M0.0322374198,17.0838567 C-0.0444303694,17.7229789 0.306347859,18.3108046 0.815772987,18.397199 C1.32519812,18.4838388 1.79952233,18.0361587 1.87619012,17.3972818 L3.78641889,1.48377492 C3.86308668,0.845388948 3.51253938,0.257317899 3.00288332,0.17067805 C2.49392005,0.0840381999 2.01913398,0.53171833 1.94223526,1.17059518 L0.0322374198,17.0838567 Z" id="Fill-3" fill="#133055" mask="url(#mask-14)"></path>
                    </g>
                </g>
                <g id="Group-9" transform="translate(0.000000, 1.192412)">
                    <mask id="mask-16" fill="white">
                        <use xlink:href="#path-15"></use>
                    </mask>
                    <g id="Clip-8"></g>
                    <polygon id="Fill-7" fill="#003055" mask="url(#mask-16)" points="-1.77248642 13.6004517 18.2502798 13.6004517 18.2502798 -1.78886631 -1.77248642 -1.78886631"></polygon>
                </g>
                <g id="Group-12" transform="translate(15.283174, 9.539295)">
                    <mask id="mask-18" fill="white">
                        <use xlink:href="#path-17"></use>
                    </mask>
                    <g id="Clip-11"></g>
                    <polygon id="Fill-10" fill="#009FDA" mask="url(#mask-18)" points="-1.68064145 17.2752913 12.2569717 17.2752913 12.2569717 -1.64968327 -1.68064145 -1.64968327"></polygon>
                </g>
                <g id="Group-15" transform="translate(17.634431, 0.000000)">
                    <mask id="mask-20" fill="white">
                        <use xlink:href="#path-19"></use>
                    </mask>
                    <g id="Clip-14"></g>
                    <polygon id="Fill-13" fill="#009FDA" mask="url(#mask-20)" points="-1.53109613 8.61333333 6.19021974 8.61333333 6.19021974 -1.49268293 -1.53109613 -1.49268293"></polygon>
                </g>
                <g id="Group-18" transform="translate(22.336946, 9.539295)">
                    <mask id="mask-22" fill="white">
                        <use xlink:href="#path-21"></use>
                    </mask>
                    <g id="Clip-17"></g>
                    <polygon id="Fill-16" fill="#003055" mask="url(#mask-22)" points="7.23560307 17.3100054 -2.67960081 0.830994927 10.4502129 -7.04748468 20.364682 9.43128122"></polygon>
                </g>
            </g>
            <g id="Page-1" transform="translate(434.000000, 503.000000)">
                <g id="Group-3" transform="translate(0.000000, 11.912075)">
                    <mask id="mask-24" fill="white">
                        <use xlink:href="#path-23"></use>
                    </mask>
                    <g id="Clip-2"></g>
                    <polygon id="Fill-1" fill="#003055" mask="url(#mask-24)" points="11.9135671 -2.10556278 14.0721585 18.2495833 -1.34670969 19.9985866 -3.50530116 -0.356300512"></polygon>
                </g>
                <g id="Group-9" transform="translate(5.981481, 23.824149)">
                    <path d="M8.52197817,17.9631545 C8.59869067,18.6180327 9.146714,19.0612254 9.74614817,18.9537309 C10.3455823,18.8462363 10.7687123,18.2284602 10.6919998,17.573582 L8.78145483,1.26185401 C8.70474233,0.606975794 8.15698817,0.163528961 7.55728483,0.271277647 C6.95811983,0.378772209 6.5344515,0.996548285 6.611164,1.6514265 L8.52197817,17.9631545 Z" id="Fill-4" fill="#133055"></path>
                    <g id="Group-8">
                        <mask id="mask-26" fill="white">
                            <use xlink:href="#path-25"></use>
                        </mask>
                        <g id="Clip-7"></g>
                        <path d="M0.145484583,17.6884462 C0.05612125,18.3501857 0.464985417,18.9588133 1.05876708,19.0482651 C1.65254875,19.1379709 2.20541708,18.6744483 2.29478042,18.0127087 L4.52132708,1.53630821 C4.61069042,0.875331013 4.20209542,0.266449286 3.60804458,0.176743423 C3.01480125,0.087037559 2.46139458,0.550560209 2.37176208,1.21204566 L0.145484583,17.6884462 Z" id="Fill-6" fill="#133055" mask="url(#mask-26)"></path>
                    </g>
                </g>
                <g id="Group-12" transform="translate(5.981481, 10.720867)">
                    <mask id="mask-28" fill="white">
                        <use xlink:href="#path-27"></use>
                    </mask>
                    <g id="Clip-11"></g>
                    <polygon id="Fill-10" fill="#009FDA" mask="url(#mask-28)" points="-1.93582492 18.3846196 13.8232037 18.3846196 13.8232037 -1.66230253 -1.93582492 -1.66230253"></polygon>
                </g>
                <g id="Group-15" transform="translate(9.570370, 0.000000)">
                    <mask id="mask-30" fill="white">
                        <use xlink:href="#path-29"></use>
                    </mask>
                    <g id="Clip-14"></g>
                    <polygon id="Fill-13" fill="#009FDA" mask="url(#mask-30)" points="-1.58628889 10.1228811 6.27055017 10.1228811 6.27055017 -1.6555618 -1.58628889 -1.6555618"></polygon>
                </g>
                <g id="Group-18" transform="translate(9.570370, 13.103282)">
                    <mask id="mask-32" fill="white">
                        <use xlink:href="#path-31"></use>
                    </mask>
                    <g id="Clip-17"></g>
                    <polygon id="Fill-16" fill="#003055" mask="url(#mask-32)" points="-10.243099 11.1964725 3.77151206 -2.96585581 15.2897946 7.94309678 1.27543984 22.1049235"></polygon>
                </g>
            </g>
            <g id="Page-1" transform="translate(170.000000, 488.000000)">
                <g id="Group-6" transform="translate(4.640351, 22.450317)">
                    <path d="M1.79390943,15.1805736 C1.59607434,15.7191921 1.05418813,15.9902659 0.583704459,15.7866849 C0.112765998,15.5826627 -0.107581355,14.9814038 0.0902537301,14.4425647 L5.01771173,1.02452219 C5.21554681,0.485683071 5.75720563,0.214388713 6.22791669,0.418190328 C6.69840036,0.621991944 6.9194299,1.22391252 6.72159482,1.76253107 L1.79390943,15.1805736 Z" id="Fill-1" fill="#133055"></path>
                    <g id="Group-5" transform="translate(8.186279, 0.000000)">
                        <mask id="mask-34" fill="white">
                            <use xlink:href="#path-33"></use>
                        </mask>
                        <g id="Clip-4"></g>
                        <path d="M3.75520553,15.3524595 C3.83070122,15.9268095 3.48528571,16.4550616 2.9836487,16.5327003 C2.48201169,16.6105595 2.01493897,16.2082499 1.93944328,15.6341204 L0.0584181992,1.33337869 C-0.0170774884,0.759690373 0.328110625,0.231217785 0.829975031,0.15335851 C1.33115725,0.0754992349 1.79868476,0.477808918 1.87440784,1.05193836 L3.75520553,15.3524595 Z" id="Fill-3" fill="#133055" mask="url(#mask-34)"></path>
                    </g>
                </g>
                <g id="Group-9" transform="translate(0.000000, 10.634361)">
                    <mask id="mask-36" fill="white">
                        <use xlink:href="#path-35"></use>
                    </mask>
                    <g id="Clip-8"></g>
                    <polygon id="Fill-7" fill="#003055" mask="url(#mask-36)" points="11.796468 -1.84042339 12.8758136 16.2575127 -1.47238333 17.0931829 -2.55219298 -1.00452383"></polygon>
                </g>
                <g id="Group-12" transform="translate(6.960526, 8.271169)">
                    <mask id="mask-38" fill="white">
                        <use xlink:href="#path-37"></use>
                    </mask>
                    <g id="Clip-11"></g>
                    <polygon id="Fill-10" fill="#009FDA" mask="url(#mask-38)" points="-1.75096785 15.7282195 12.0026367 15.7282195 12.0026367 -1.58274736 -1.75096785 -1.58274736"></polygon>
                </g>
                <g id="Group-15" transform="translate(8.120614, 0.000000)">
                    <mask id="mask-40" fill="white">
                        <use xlink:href="#path-39"></use>
                    </mask>
                    <g id="Clip-14"></g>
                    <polygon id="Fill-13" fill="#009FDA" mask="url(#mask-40)" points="-1.32189474 8.72837313 5.96607895 8.72837313 5.96607895 -1.59892045 -1.32189474 -1.59892045"></polygon>
                </g>
                <g id="Group-18" transform="translate(10.440789, 11.815956)">
                    <mask id="mask-42" fill="white">
                        <use xlink:href="#path-41"></use>
                    </mask>
                    <g id="Clip-17"></g>
                    <polygon id="Fill-16" fill="#003055" mask="url(#mask-42)" points="-0.444380525 16.6295559 -1.70932233 -1.29906149 12.2065991 -2.33025144 13.4713179 15.5974512"></polygon>
                </g>
            </g>
        </g>
    </g>
</svg>