<svg width="892" height="529" viewBox="0 0 892 529" fill="none" xmlns="http://www.w3.org/2000/svg">
<g filter="url(#filter0_d_1167_8896)">
<path d="M370.357 513.132C412.486 489.779 480.791 489.779 522.921 513.132L816.996 676.14C859.125 699.493 859.125 737.355 816.995 760.708L522.921 923.716C480.791 947.069 412.486 947.069 370.357 923.716L76.2818 760.708C34.1524 737.355 34.1524 699.493 76.2818 676.14L370.357 513.132Z" fill="#009FDA"/>
</g>
<path d="M44.8682 484.803L445.975 698.075V937.264L44.8682 723.991V484.803Z" fill="#009FDA"/>
<path d="M847.611 486.547L446.504 699.82V939.008L847.611 725.736V486.547Z" fill="#009FDA"/>
<path d="M370.357 281.078C412.486 257.725 480.791 257.725 522.921 281.078L816.996 444.086C859.125 467.439 859.125 505.301 816.995 528.653L522.921 691.662C480.791 715.015 412.486 715.015 370.357 691.662L76.2818 528.653C34.1524 505.301 34.1524 467.439 76.2818 444.086L370.357 281.078Z" fill="#4BC6F0"/>
<g filter="url(#filter1_d_1167_8896)">
<path d="M523.952 430.033C566.789 458.927 567.187 506.387 524.842 536.038C482.496 565.689 413.441 566.303 370.604 537.409C327.767 508.515 327.369 461.055 369.715 431.404C412.061 401.753 481.115 401.139 523.952 430.033Z" fill="#005A7B"/>
</g>
<g filter="url(#filter2_d_1167_8896)">
<path d="M504.647 443.548C536.701 465.168 536.999 500.682 505.313 522.869C473.626 545.056 421.954 545.515 389.9 523.894C357.846 502.274 357.548 466.76 389.235 444.573C420.921 422.386 472.593 421.927 504.647 443.548Z" fill="#005A7B"/>
</g>
<path fill-rule="evenodd" clip-rule="evenodd" d="M743.761 77.6347C791.871 -6.15984 768.319 -105.882 673.507 -172.928C548.578 -261.273 347.235 -259.431 223.795 -168.814C129.755 -99.7788 108.059 0.863983 158.297 83.95L344.367 627H549.746L743.761 77.6347Z" fill="url(#paint0_linear_1167_8896)"/>
<path d="M232.748 45.8733C232.997 31.5839 243.941 24.3401 257.192 29.6938L615.183 174.332C628.434 179.685 638.974 195.609 638.725 209.899L635.428 398.793C635.178 413.082 624.234 420.326 610.983 414.972L252.992 270.334C239.741 264.981 229.201 249.057 229.45 234.767L232.748 45.8733Z" fill="white"/>
<path d="M232.79 43.4545C233.016 30.5009 239.974 22.7371 248.331 26.1134L624.045 177.912C632.402 181.288 638.993 194.526 638.767 207.48L232.79 43.4545Z" fill="#04518C"/>
<path fill-rule="evenodd" clip-rule="evenodd" d="M376.478 148.969L408.962 162.094C407.603 143.009 394.17 122.893 377.08 114.464L376.478 148.969Z" fill="#00DDBE"/>
<path fill-rule="evenodd" clip-rule="evenodd" d="M369.125 153.293L369.185 149.86L369.245 146.428L369.785 115.512C353.735 111.028 341.043 120.619 340.733 138.365C340.4 157.468 354.537 178.774 372.31 185.955C389.006 192.7 402.969 184.581 404.877 167.738L369.125 153.293Z" fill="#4BC6F0"/>
<path fill-rule="evenodd" clip-rule="evenodd" d="M476.912 189.548L509.396 202.673C508.038 183.588 494.605 163.472 477.515 155.043L476.912 189.548Z" fill="#9E005D"/>
<path fill-rule="evenodd" clip-rule="evenodd" d="M469.565 193.872L469.625 190.439L469.685 187.006L470.224 156.091C454.174 151.607 441.483 161.198 441.173 178.944C440.839 198.046 454.976 219.352 472.75 226.533C489.445 233.279 503.409 225.159 505.317 208.317L469.565 193.872Z" fill="#04518C"/>
<path fill-rule="evenodd" clip-rule="evenodd" d="M577.35 230.127L609.834 243.251C608.475 224.166 595.041 204.05 577.952 195.621L577.35 230.127Z" fill="#F2D021"/>
<path fill-rule="evenodd" clip-rule="evenodd" d="M569.998 234.451L570.058 231.018L570.118 227.585L570.658 196.67C554.606 192.186 541.915 201.777 541.606 219.523C541.272 238.625 555.41 259.931 573.183 267.112C589.878 273.858 603.84 265.738 605.75 248.896L569.998 234.451Z" fill="#00DDBE"/>
<path fill-rule="evenodd" clip-rule="evenodd" d="M339.529 207.458L608.561 316.154L608.879 297.891L339.848 189.195L339.529 207.458Z" fill="#04518C"/>
<path fill-rule="evenodd" clip-rule="evenodd" d="M338.874 245.033L607.906 353.729L608.231 335.091L339.199 226.395L338.874 245.033Z" fill="#04518C"/>
<path fill-rule="evenodd" clip-rule="evenodd" d="M338.3 277.892L607.331 386.588L607.657 367.95L338.625 259.254L338.3 277.892Z" fill="#04518C"/>
<path fill-rule="evenodd" clip-rule="evenodd" d="M248.753 250.23L305.878 273.31L309.19 83.5667L252.065 60.4871L248.753 250.23Z" fill="#F2D021"/>
<path fill-rule="evenodd" clip-rule="evenodd" d="M249.242 38.5066C249.206 40.5733 247.623 41.6212 245.706 40.8468C243.79 40.0725 242.265 37.7689 242.301 35.7023C242.337 33.6352 243.92 32.5876 245.837 33.3618C247.753 34.1363 249.278 36.4395 249.242 38.5066Z" fill="white"/>
<path fill-rule="evenodd" clip-rule="evenodd" d="M261.042 43.2741C261.006 45.3407 259.423 46.3887 257.506 45.6142C255.589 44.8399 254.065 42.5364 254.101 40.4698C254.137 38.4027 255.72 37.355 257.636 38.1293C259.553 38.9038 261.078 41.207 261.042 43.2741Z" fill="white"/>
<path fill-rule="evenodd" clip-rule="evenodd" d="M273.744 48.4056C273.708 50.4722 272.125 51.5202 270.208 50.7457C268.291 49.9714 266.767 47.6678 266.803 45.6012C266.839 43.5341 268.422 42.4865 270.339 43.2608C272.255 44.0352 273.78 46.3385 273.744 48.4056Z" fill="white"/>
<defs>
<filter id="filter0_d_1167_8896" x="34.6846" y="490.617" width="823.908" height="465.613" filterUnits="userSpaceOnUse" color-interpolation-filters="sRGB">
<feFlood flood-opacity="0" result="BackgroundImageFix"/>
<feColorMatrix in="SourceAlpha" type="matrix" values="0 0 0 0 0 0 0 0 0 0 0 0 0 0 0 0 0 0 127 0" result="hardAlpha"/>
<feOffset dy="5"/>
<feGaussianBlur stdDeviation="5"/>
<feComposite in2="hardAlpha" operator="out"/>
<feColorMatrix type="matrix" values="0 0 0 0 0 0 0 0 0 0 0 0 0 0 0 0 0 0 0.15 0"/>
<feBlend mode="normal" in2="BackgroundImageFix" result="effect1_dropShadow_1167_8896"/>
<feBlend mode="normal" in="SourceGraphic" in2="effect1_dropShadow_1167_8896" result="shape"/>
</filter>
<filter id="filter1_d_1167_8896" x="318.214" y="393.758" width="258.128" height="189.926" filterUnits="userSpaceOnUse" color-interpolation-filters="sRGB">
<feFlood flood-opacity="0" result="BackgroundImageFix"/>
<feColorMatrix in="SourceAlpha" type="matrix" values="0 0 0 0 0 0 0 0 0 0 0 0 0 0 0 0 0 0 127 0" result="hardAlpha"/>
<feOffset dy="5"/>
<feGaussianBlur stdDeviation="10"/>
<feComposite in2="hardAlpha" operator="out"/>
<feColorMatrix type="matrix" values="0 0 0 0 1 0 0 0 0 1 0 0 0 0 1 0 0 0 0.5 0"/>
<feBlend mode="normal" in2="BackgroundImageFix" result="effect1_dropShadow_1167_8896"/>
<feBlend mode="normal" in="SourceGraphic" in2="effect1_dropShadow_1167_8896" result="shape"/>
</filter>
<filter id="filter2_d_1167_8896" x="345.664" y="412.628" width="203.221" height="152.187" filterUnits="userSpaceOnUse" color-interpolation-filters="sRGB">
<feFlood flood-opacity="0" result="BackgroundImageFix"/>
<feColorMatrix in="SourceAlpha" type="matrix" values="0 0 0 0 0 0 0 0 0 0 0 0 0 0 0 0 0 0 127 0" result="hardAlpha"/>
<feOffset dy="5"/>
<feGaussianBlur stdDeviation="10"/>
<feComposite in2="hardAlpha" operator="out"/>
<feColorMatrix type="matrix" values="0 0 0 0 1 0 0 0 0 1 0 0 0 0 1 0 0 0 0.5 0"/>
<feBlend mode="normal" in2="BackgroundImageFix" result="effect1_dropShadow_1167_8896"/>
<feBlend mode="normal" in="SourceGraphic" in2="effect1_dropShadow_1167_8896" result="shape"/>
</filter>
<linearGradient id="paint0_linear_1167_8896" x1="450" y1="-238" x2="450" y2="627" gradientUnits="userSpaceOnUse">
<stop stop-color="#00DDBE"/>
<stop offset="1" stop-color="#00DDBE" stop-opacity="0"/>
</linearGradient>
</defs>
</svg>
