<svg xmlns="http://www.w3.org/2000/svg" xmlns:xlink="http://www.w3.org/1999/xlink" width="310" height="299" viewBox="0 0 310 299">
    <defs>
        <path id="w4t88gcwba" d="M0.036 0.25L6.279 0.25 6.279 28.737 0.036 28.737z"/>
        <path id="5rj2spn04c" d="M1.18.12C.51.246.066.91.19 1.595l.046.245C1.221 6.91 4.05 11.304 8.22 14.233c4.235 2.976 9.35 4.085 14.4 3.122.67-.128 1.114-.79.99-1.477-.09-.681-.77-1.142-1.443-1.015-4.4.841-8.858-.126-12.55-2.719C5.927 9.55 3.432 5.617 2.623 1.133 2.505.522 1.992.098 1.409.098c-.075 0-.152.007-.228.021z"/>
        <path id="7riqjmqrue" d="M10.115.244l-4.13.093C3.2.399.71 2.308.278 4.987c-.074.45-.106.911-.095 1.383l.419 17.4h16.009l-.419-17.758c-.01-.47-.066-.932-.16-1.378-.548-2.612-3.048-4.39-5.777-4.39h-.141z"/>
        <path id="cmelye7t2g" d="M3.6.215C1.673.215.111 1.786.111 3.724v4.714c0 1.938 1.562 3.509 3.49 3.509h.817c1.927 0 3.49-1.57 3.49-3.51V3.725c0-1.938-1.563-3.51-3.49-3.51H3.6z"/>
        <path id="8y3lz24hui" d="M8.196.134c-2.423 0-4.85.428-7.177 1.287-.656.241-.98.943-.725 1.568.277.612.993.933 1.65.692 4.3-1.588 8.996-1.486 13.221.284 4.224 1.77 7.47 4.998 9.146 9.09.27.622.993.933 1.65.692.063-.024.123-.052.18-.084l.03-.016c.511-.302.741-.916.516-1.47-.117-.281-.238-.56-.367-.836-.328-.703-.698-1.382-1.108-2.034l-.065-.104c-2.09-3.283-5.184-5.876-8.954-7.456C13.63.673 10.916.134 8.199.134h-.003z"/>
        <path id="atp4urt1sk" d="M0.197 0.231L5.947 0.231 5.947 26.522 0.197 26.522z"/>
        <path id="act5ch1h6m" d="M20.525 1.042c-.738 4.376-3.104 8.196-6.664 10.757-3.557 2.56-7.88 3.554-12.173 2.802-.661-.101-1.277.333-1.39 1-.011.063-.017.126-.018.188v.041c.01.578.42 1.087 1 1.189.296.05.592.096.888.133.772.098 1.543.147 2.31.148h.049c3.82-.007 7.539-1.205 10.723-3.497 4.084-2.94 6.8-7.323 7.647-12.345.012-.063.017-.126.018-.19v-.04c-.01-.577-.42-1.085-1-1.186-.06-.008-.118-.012-.176-.012-.587 0-1.11.406-1.214 1.012z"/>
        <path id="08i86632no" d="M9.377.096L5.59.182C3.037.24.754 2.008.357 4.489.29 4.906.26 5.334.27 5.77l.384 16.118h14.681l-.385-16.45c-.01-.436-.06-.863-.146-1.276-.502-2.42-2.795-4.068-5.297-4.068h-.13z"/>
        <path id="dfhwruf5kq" d="M15.153.184c-.647.088-1.085.763-.963 1.43.799 4.367-.12 8.788-2.583 12.45-2.464 3.661-6.2 6.137-10.46 6.939-.654.13-1.083.764-.96 1.43.12.667.749 1.107 1.402.983l.233-.046c4.814-.977 8.987-3.782 11.77-7.919 2.826-4.202 3.879-9.276 2.964-14.286-.108-.59-.613-1.002-1.181-1.002-.073 0-.147.007-.222.02z"/>
        <path id="fszax6b7rs" d="M3.529.071C1.695.071.207 1.564.207 3.404v4.478c0 1.842 1.488 3.334 3.322 3.334h.777c1.835 0 3.322-1.492 3.322-3.334V3.404c0-1.84-1.487-3.333-3.322-3.333H3.53z"/>
        <path id="whonpk9jqu" d="M0.237 0.175L33.046 0.175 33.046 8.002 0.237 8.002z"/>
    </defs>
    <g fill="none" fill-rule="evenodd">
        <g>
            <path fill="#F2D021" d="M17 200.443L55 222 55 178.08 17 157z" transform="matrix(-1 0 0 1 215 0)"/>
            <path fill="#4BC6F0" d="M17 157.82L54.79 179 91 158.11 53.854 138z" transform="matrix(-1 0 0 1 215 0)"/>
            <path fill="#78D5F4" d="M92.276 200.281L92 299 129 277.591 129 179z" transform="matrix(-1 0 0 1 215 0)"/>
            <path fill="#F2D021" d="M55 277.591L92.541 299 93 200.216 55 179z" transform="matrix(-1 0 0 1 215 0)"/>
            <path fill="#4BC6F0" d="M56 178.63L92.653 199 129 178.268 91.636 158z" transform="matrix(-1 0 0 1 215 0)"/>
            <path fill="#78D5F4" d="M47 128.446L47 165 79 146.842 79 110z" transform="matrix(-1 0 0 1 215 0)"/>
            <path fill="#FFF" d="M16 146.841L47 165 47 128.446 16 110z" transform="matrix(-1 0 0 1 215 0)"/>
            <path fill="#4BC6F0" d="M16 109.282L46.81 128 79 109 47.357 90z" transform="matrix(-1 0 0 1 215 0)"/>
            <path fill="#F2D021" d="M35.028 60L0 74.837 0 122.183 16.084 129 16.084 116.135 11.179 114.11 11.179 82.473 39 69.977M58.469 59L96 74.571 96 122.183 79.891 129 79.891 116.075 84.821 114.065 84.821 82.251 57 69.684z" transform="matrix(-1 0 0 1 215 0)"/>
            <path fill="#AEE5F8" d="M41 41L54 41 54 0 41 0z" transform="matrix(-1 0 0 1 215 0)"/>
            <path fill="#E6C104" d="M42 92L52 92 52 70 42 70z" transform="matrix(-1 0 0 1 215 0)"/>
            <path fill="#F2D021" d="M41 118L54 118 54 91 41 91z" transform="matrix(-1 0 0 1 215 0)"/>
            <path fill="#78D5F4" d="M57.183 71H37.817C36.267 71 35 69.717 35 68.15v-24.3c0-1.568 1.267-2.85 2.817-2.85h19.366C58.733 41 60 42.282 60 43.85v24.3c0 1.567-1.268 2.85-2.817 2.85" transform="matrix(-1 0 0 1 215 0)"/>
        </g>
        <g>
            <g>
                <path fill="#133055" d="M18.135 28.518c.331 1.03 1.248 1.595 2.049 1.265.801-.33 1.18-1.432.85-2.461l-8.24-25.634C12.465.66 11.548.093 10.747.424c-.8.33-1.18 1.432-.85 2.461l8.24 25.633z" transform="matrix(-1 0 0 1 149 118) translate(23 35)"/>
                <g transform="matrix(-1 0 0 1 149 118) translate(23 35) translate(0 1.533)">
                    <mask id="yjtu9m64yb" fill="#fff">
                        <use xlink:href="#w4t88gcwba"/>
                    </mask>
                    <path fill="#133055" d="M.053 26.67c-.126.998.454 1.916 1.296 2.05.842.136 1.627-.563 1.754-1.56L6.26 2.316C6.388 1.32 5.808.402 4.966.266 4.124.131 3.339.83 3.212 1.827L.053 26.67z" mask="url(#yjtu9m64yb)"/>
                </g>
            </g>
            <g transform="matrix(-1 0 0 1 149 118) translate(0 2)">
                <mask id="tbc7fgim4d" fill="#fff">
                    <use xlink:href="#5rj2spn04c"/>
                </mask>
                <path fill="#003055" d="M-2.56 20.487L26.359 20.487 26.359 -2.695 -2.56 -2.695z" mask="url(#tbc7fgim4d)"/>
            </g>
            <g transform="matrix(-1 0 0 1 149 118) translate(24 14)">
                <mask id="vcrtejtgqf" fill="#fff">
                    <use xlink:href="#7riqjmqrue"/>
                </mask>
                <path fill="#04518C" d="M-2.669 26.548L19.462 26.548 19.462 -2.535 -2.669 -2.535z" mask="url(#vcrtejtgqf)"/>
            </g>
            <g transform="matrix(-1 0 0 1 149 118) translate(27)">
                <mask id="nfv6j1z07h" fill="#fff">
                    <use xlink:href="#cmelye7t2g"/>
                </mask>
                <path fill="#04518C" d="M-2.635 14.71L10.652 14.71 10.652 -2.549 -2.635 -2.549z" mask="url(#nfv6j1z07h)"/>
            </g>
            <g transform="matrix(-1 0 0 1 149 118) translate(37 15)">
                <mask id="fnxgpcq2qj" fill="#fff">
                    <use xlink:href="#8y3lz24hui"/>
                </mask>
                <path fill="#003055" d="M11.136 25.35L-4.124 1.217 16.084 -10.321 31.343 13.812z" mask="url(#fnxgpcq2qj)"/>
            </g>
        </g>
        <g>
            <g>
                <path fill="#133055" d="M16.516 26.32c.305.95 1.15 1.471 1.887 1.166.738-.305 1.088-1.321.783-2.27L11.597 1.557C11.292.608 10.447.086 9.71.391c-.737.305-1.088 1.322-.783 2.272l7.59 23.656z" transform="matrix(-1 0 0 1 276 197) translate(1 72)"/>
                <g transform="matrix(-1 0 0 1 276 197) translate(1 72) translate(0 1.768)">
                    <mask id="z8vyxtibnl" fill="#fff">
                        <use xlink:href="#atp4urt1sk"/>
                    </mask>
                    <path fill="#133055" d="M.213 24.614c-.117.92.417 1.768 1.193 1.892.776.125 1.499-.52 1.615-1.44l2.91-22.928C6.048 1.218 5.514.37 4.738.246c-.776-.125-1.499.52-1.616 1.44L.212 24.614z" mask="url(#z8vyxtibnl)"/>
                </g>
            </g>
            <g transform="matrix(-1 0 0 1 276 197) translate(11 42)">
                <mask id="wmeoqci2in" fill="#fff">
                    <use xlink:href="#act5ch1h6m"/>
                </mask>
                <path fill="#003055" d="M-2.373 20.007L25.569 20.007 25.569 -2.678 -2.373 -2.678z" mask="url(#wmeoqci2in)"/>
            </g>
            <g transform="matrix(-1 0 0 1 276 197) translate(0 53)">
                <mask id="gls5phfavp" fill="#fff">
                    <use xlink:href="#08i86632no"/>
                </mask>
                <path fill="#04518C" d="M-2.345 24.462L17.947 24.462 17.947 -2.479 -2.345 -2.479z" mask="url(#gls5phfavp)"/>
            </g>
            <g transform="matrix(-1 0 0 1 276 197) translate(0 36)">
                <mask id="20nmu2edxr" fill="#fff">
                    <use xlink:href="#dfhwruf5kq"/>
                </mask>
                <path fill="#003055" d="M-2.488 26.145L19.53 26.145 19.53 -2.545 -2.488 -2.545z" mask="url(#20nmu2edxr)"/>
            </g>
            <g transform="matrix(-1 0 0 1 276 197) translate(4 39)">
                <mask id="5zflrrpbjt" fill="#fff">
                    <use xlink:href="#fszax6b7rs"/>
                </mask>
                <path fill="#04518C" d="M-2.406 13.841L10.242 13.841 10.242 -2.554 -2.406 -2.554z" mask="url(#5zflrrpbjt)"/>
            </g>
            <g transform="matrix(-1 0 0 1 276 197) translate(13)">
                <path fill="#FFF" d="M6.434 46.456s13.595 4.985 21.302-.57L32.081 7.74l-30.553.083 4.906 38.632z"/>
                <path fill="#F2D021" d="M5.487 38.706s12.22 4.916 23.111 0l-.333 3.064s-7.968 4.719-22.406 0l-.372-3.064z"/>
                <mask id="j7e3vpwvtv" fill="#fff">
                    <use xlink:href="#whonpk9jqu"/>
                </mask>
                <path fill="#F2D021" d="M2.096 4.68s-.183-1.946 1.266-3.523c0 0 12.62-2.206 26.73-.004 0 0 1.172.25 1.125 3.526l1.578.589.251 2.734s-32.601-.069-32.81 0l.379-2.779 1.481-.544z" mask="url(#j7e3vpwvtv)"/>
            </g>
        </g>
        <g fill="#FFF">
            <path d="M31.491 80.162C30.203 74.346 25.126 70 19.048 70c-7.052 0-12.769 5.844-12.769 13.054 0 .375.025.743.055 1.11C2.811 84.16 0 87.035 0 90.58 0 94.126 2.811 97 6.28 97h26.435C37.29 97 41 93.208 41 88.53c0-4.678-3.71-8.47-8.285-8.47-.417 0-.823.04-1.224.102zM297.245 13.549C295.515 5.795 288.705 0 280.552 0c-9.46 0-17.129 7.793-17.129 17.405 0 .5.033.991.074 1.48-4.726-.004-8.497 3.828-8.497 8.556 0 4.727 3.771 8.559 8.423 8.559h35.462C305.024 36 310 30.944 310 24.706c0-6.237-4.976-11.294-11.115-11.294-.558 0-1.104.056-1.64.137z" transform="translate(0 32)"/>
        </g>
    </g>
</svg>
