<?xml version="1.0" encoding="UTF-8"?>
<svg width="611px" height="550px" viewBox="0 0 611 550" version="1.1" xmlns="http://www.w3.org/2000/svg" xmlns:xlink="http://www.w3.org/1999/xlink">
    <!-- Generator: Sketch 50.2 (55047) - http://www.bohemiancoding.com/sketch -->
    <title>Group</title>
    <desc>Created with Sketch.</desc>
    <defs>
        <polygon id="path-1" points="0 545.260341 717.635903 518.161601 717.635903 0.332140033 0 0.332140033"></polygon>
        <path d="M16.45968,0.760849057 C15.94416,1.3245283 15.55584,1.89669811 15.27168,2.51084906 C15.26928,2.51509434 15.2688,2.51981132 15.26688,2.52358491 C14.49984,4.11179245 14.52624,5.71367925 14.7024,7.20141509 C13.1376,7.18349057 11.54928,7.32311321 10.01616,8.2504717 C10.01568,8.2509434 10.01472,8.2509434 10.01424,8.25188679 C10.01136,8.25330189 10.00848,8.25518868 10.00656,8.25660377 C10.00128,8.25943396 9.99648,8.26179245 9.99168,8.26462264 C9.98976,8.26556604 9.98784,8.26792453 9.9864,8.26933962 C9.41232,8.60471698 8.88096,9.03584906 8.3616,9.59528302 C8.0328,9.95471698 7.76496,10.3136792 7.536,10.6896226 C7.53408,10.6929245 7.53168,10.6948113 7.52976,10.6981132 C7.52736,10.7014151 7.52544,10.7042453 7.52352,10.7080189 C7.52208,10.7108491 7.52016,10.7127358 7.51872,10.715566 C7.51728,10.7174528 7.51632,10.7198113 7.51488,10.7226415 C6.4008,12.5146226 6.4056,14.3448113 6.60336,16.0396226 C5.08128,16.0226415 3.45936,16.165566 1.93248,17.0792453 C1.92624,17.0825472 1.92096,17.0839623 1.9152,17.0872642 C1.32288,17.429717 0.78432,17.8698113 0.26784,18.4316038 C-0.10512,18.8396226 -0.07152,19.4674528 0.34272,19.8349057 C0.55104,20.0183962 0.8136,20.1018868 1.07232,20.0886792 C1.33104,20.0754717 1.58352,19.965566 1.7712,19.7617925 C1.96032,19.5542453 2.1528,19.3712264 2.35008,19.2103774 L6.15936,22.5849057 C6.01728,22.7929245 5.85312,22.9990566 5.66352,23.2061321 C5.29008,23.6146226 5.32416,24.2424528 5.73936,24.6099057 C5.94624,24.7929245 6.20976,24.8759434 6.468,24.8627358 C6.72624,24.8495283 6.98112,24.7386792 7.16736,24.534434 C7.67616,23.9778302 8.0616,23.4136792 8.34384,22.8103774 C8.34432,22.8099057 8.3448,22.809434 8.3448,22.8089623 C8.34528,22.8080189 8.34576,22.8061321 8.34624,22.8056604 C8.34864,22.7985849 8.35344,22.7919811 8.35584,22.7853774 C8.35728,22.7816038 8.35776,22.7778302 8.36016,22.7740566 C9.13392,21.1764151 9.10896,19.6141509 8.9256,18.0915094 C9.25776,18.0943396 9.59328,18.0933962 9.93264,18.0759434 C11.37456,18.0014151 12.86064,17.6820755 14.24016,16.6353774 C14.24112,16.6349057 14.24112,16.6334906 14.24208,16.6330189 C14.60496,16.3589623 14.93952,16.0537736 15.264,15.7 C15.76368,15.1542453 16.1496,14.5886792 16.4424,13.9716981 C16.44336,13.970283 16.44432,13.9688679 16.44528,13.9669811 L16.44912,13.9580189 C16.45008,13.9561321 16.45104,13.9551887 16.45152,13.9542453 C16.452,13.9537736 16.45152,13.9533019 16.452,13.9528302 C17.22672,12.3584906 17.20368,10.7948113 17.02128,9.25330189 C17.35296,9.25707547 17.688,9.25660377 18.02592,9.23867925 C19.25088,9.1759434 20.50992,8.93207547 21.70128,8.21415094 C21.7032,8.21226415 21.70704,8.21179245 21.7104,8.20990566 C21.71664,8.20660377 21.72144,8.20283019 21.7272,8.1995283 C21.72912,8.19811321 21.732,8.19716981 21.73536,8.19528302 C21.73632,8.19386792 21.73776,8.19339623 21.7392,8.19198113 C22.31856,7.85283019 22.84848,7.41981132 23.3568,6.86462264 C23.7312,6.45707547 23.6976,5.82924528 23.28288,5.46132075 C22.86912,5.09386792 22.22928,5.1254717 21.85584,5.53396226 C21.66672,5.74056604 21.4752,5.92264151 21.27936,6.08349057 L17.46528,2.71320755 C17.60784,2.50424528 17.77344,2.29764151 17.96304,2.09009434 C18.336,1.68160377 18.3024,1.05330189 17.88672,0.686320755 C17.69376,0.515566038 17.45184,0.431603774 17.21136,0.431603774 C16.9344,0.431603774 16.65936,0.542924528 16.45968,0.760849057 Z M16.74624,7.26367925 C16.62816,6.38018868 16.56048,5.5245283 16.6872,4.69764151 L19.35408,7.05330189 C18.68976,7.22358491 17.9904,7.27122642 17.26752,7.27122642 C17.0952,7.27122642 16.92096,7.26792453 16.74624,7.26367925 Z M13.69872,10.5778302 L12.37344,9.40613208 C13.19184,9.19764151 14.06592,9.17358491 14.97792,9.19339623 C15.09264,10.0783019 15.16128,10.9358491 15.03552,11.7599057 L13.69872,10.5778302 Z M11.68896,12.8014151 L9.73488,11.0716981 C9.77472,11.0235849 9.81744,10.9759434 9.86112,10.9283019 C10.05504,10.7198113 10.24896,10.5358491 10.44624,10.3754717 L11.27088,11.104717 L14.25792,13.745283 C14.1144,13.9575472 13.94928,14.1650943 13.76112,14.3698113 C13.716,14.4193396 13.6704,14.4674528 13.62384,14.5146226 L11.68896,12.8014151 Z M8.64672,16.1018868 C8.49552,14.9504717 8.42784,13.8877358 8.73696,12.8636792 L10.32816,14.2721698 L11.92128,15.6806604 C11.0688,16.0264151 10.15776,16.1089623 9.17184,16.1089623 C8.99904,16.1089623 8.82384,16.1066038 8.64672,16.1018868 Z M4.2768,18.2424528 C5.1,18.0306604 5.97312,18.0080189 6.87984,18.0306604 C6.9984,18.9165094 7.06656,19.7740566 6.93984,20.6009434 L4.2768,18.2424528 Z" id="path-3"></path>
        <path d="M18.9652174,1.03992 C7.76195652,11.19328 1.07336957,25.2392 0.131521739,40.586 C-0.798913043,55.69312 3.94891304,70.28336 13.5070652,81.74936 C13.6625,81.93416 13.8152174,82.1156 13.9733696,82.29984 C15.2836957,83.83368 17.5570652,83.98432 19.0445652,82.6336 C19.2163043,82.48016 19.3684783,82.31104 19.5027174,82.13464 C20.5472826,80.76152 20.5206522,78.78752 19.3641304,77.41104 C10.7983696,67.4128 6.48369565,54.43648 7.30271739,41.06312 C8.12608696,27.68976 13.9554348,15.44648 23.7168478,6.60072 C25.2076087,5.24608 25.4,2.80952 24.0375,1.372 C23.326087,0.54152 22.3331522,0.11648 21.3353261,0.11648 C20.4923913,0.11648 19.6461957,0.42056 18.9652174,1.03992 Z" id="path-5"></path>
        <path d="M10.2649535,0.387777778 C4.78774419,0.387777778 0.348744186,4.99555556 0.348744186,10.6772222 L0.348744186,24.5022222 C0.348744186,30.1855556 4.78774419,34.7916667 10.2649535,34.7916667 L12.5890233,34.7916667 C18.0656977,34.7916667 22.5063023,30.1855556 22.5063023,24.5022222 L22.5063023,10.6772222 C22.5063023,4.99555556 18.0656977,0.387777778 12.5890233,0.387777778 L10.2649535,0.387777778 Z" id="path-7"></path>
        <path d="M1.02905263,1.75228409 C-0.0516491228,3.48992358 0.334596491,5.77166671 2.0322807,6.92352173 C13.1716491,14.4474725 20.7214035,25.8832244 23.2937544,39.1191369 C25.8621754,52.3527965 23.1399298,65.7976763 15.6362105,76.9946084 C14.5201404,78.7339376 14.9400702,81.0156807 16.6377544,82.165846 C16.8033684,82.2751173 16.9740351,82.3708706 17.149193,82.4525424 L17.2384561,82.4930967 C18.8468772,83.1926586 20.7741754,82.6637628 21.792,81.1502985 C22.3051228,80.3780769 22.8042105,79.5979697 23.2842105,78.8054709 C24.5069474,76.7862043 25.5988772,74.7055429 26.5577544,72.5809478 L26.7110175,72.2413054 C31.4924912,61.4656876 32.8718596,49.5004767 30.5774035,37.6901608 C29.0178246,29.6615341 25.8627368,22.2108064 21.346807,15.695644 C21.3451228,15.6928278 21.3423158,15.6917013 21.3417544,15.688885 C17.3131228,9.87891698 12.2043509,4.8118814 6.17824561,0.740116136 C5.54385965,0.311479622 4.82414035,0.105891806 4.1117193,0.105891806 C2.91873684,0.105891806 1.74652632,0.682664199 1.02905263,1.75228409 Z" id="path-9"></path>
        <path d="M28.3868941,0.0389516129 L16.6960588,0.309943548 C8.81885882,0.491346774 1.76885882,6.06921774 0.546858824,13.8945968 C0.340058824,15.2094919 0.247164706,16.5588871 0.278682353,17.9383306 L1.46529412,68.7763065 L46.7760588,68.7763065 L45.5922118,16.8905323 C45.5601412,15.5155403 45.4058706,14.1694839 45.1399059,12.8651613 C43.5866941,5.23454032 36.5096,0.0356129032 28.7866706,0.0345 C28.6534118,0.0345 28.5207059,0.0361693548 28.3868941,0.0389516129 Z" id="path-11"></path>
        <path d="M23.5268667,0.520419355 C22.8038,1.29803226 22.2603667,2.08825806 21.8614333,2.9366129 C21.8586,2.94209677 21.8574667,2.94812903 21.8552,2.95416129 C20.7796667,5.1466129 20.8153667,7.35770968 21.0635667,9.41141935 C18.87,9.38674194 16.643,9.58032258 14.4947667,10.8602581 C14.4936333,10.8608065 14.4919333,10.8608065 14.4908,10.8613548 C14.4868333,10.8640968 14.4828667,10.8657419 14.4800333,10.8684839 C14.4726667,10.8723226 14.4664333,10.8761613 14.4596333,10.8794516 C14.4568,10.8810968 14.4545333,10.8838387 14.4522667,10.8860323 C13.6476,11.348871 12.903,11.9444194 12.1748333,12.7165484 C11.7135667,13.2128387 11.3373,13.7080323 11.0171333,14.2273548 C11.0143,14.2317419 11.0109,14.2350323 11.0080667,14.238871 C11.0046667,14.2438065 11.0024,14.2481935 10.999,14.253129 C10.9973,14.2564194 10.9956,14.2591613 10.9933333,14.263 C10.9910667,14.2651935 10.9893667,14.2695806 10.9876667,14.272871 C9.4265,16.7471935 9.43216667,19.2730645 9.70926667,21.6135806 C7.5752,21.5894516 5.3023,21.786871 3.16143333,23.0487097 C3.15293333,23.0530968 3.14556667,23.0552903 3.13706667,23.0596774 C2.30633333,23.5323871 1.5521,24.14 0.8279,24.9159677 C0.304866667,25.4780645 0.351333333,26.3456129 0.932166667,26.852871 C1.22456667,27.1062258 1.5929,27.2213871 1.95556667,27.2032903 C2.31823333,27.1846452 2.6724,27.0327419 2.93533333,26.7514194 C3.20053333,26.4651613 3.47026667,26.2129032 3.74736667,25.9908065 L9.08763333,30.6499032 C8.8876,30.9367097 8.65753333,31.2207742 8.39233333,31.5070323 C7.86873333,32.0707742 7.91633333,32.9377742 8.4983,33.4444839 C8.78843333,33.6967419 9.1579,33.8119032 9.51943333,33.7943548 C9.8821,33.7751613 10.2379667,33.6227097 10.4997667,33.3408387 C11.2132,32.5725484 11.7532333,31.7932903 12.1493333,30.9608387 C12.1499,30.9597419 12.1504667,30.9591935 12.1504667,30.9586452 C12.1516,30.957 12.1521667,30.9553548 12.1527333,30.9537097 C12.1561333,30.9443871 12.1629333,30.9350645 12.1657667,30.9262903 C12.1691667,30.9213548 12.1691667,30.915871 12.1714333,30.9109355 C13.2566,28.7053226 13.2214667,26.5490645 12.9653333,24.446 C13.4305667,24.4503871 13.9014667,24.4481935 14.3769,24.4240645 C16.3982,24.3215161 18.4818333,23.8806129 20.4153,22.4356129 C20.4164333,22.4350645 20.417,22.4334194 20.4187,22.432871 C20.927,22.0539355 21.3956333,21.6327742 21.8506667,21.1447097 C22.5516333,20.3906774 23.0928,19.6103226 23.5019333,18.7586774 C23.5030667,18.7559355 23.5053333,18.7548387 23.5070333,18.7515484 L23.5121333,18.7389355 C23.5138333,18.7367419 23.5149667,18.7356452 23.5161,18.734 C23.5166667,18.7334516 23.5155333,18.7329032 23.5166667,18.7318065 C24.6024,16.531129 24.5695333,14.372129 24.3139667,12.2443871 C24.7792,12.249871 25.2478333,12.2487742 25.7232667,12.2246452 C27.4397,12.1374516 29.2048667,11.8007419 30.8748333,10.8098065 C30.8782333,10.8070645 30.8833333,10.8059677 30.8878667,10.8043226 C30.8963667,10.7993871 30.9031667,10.7944516 30.9105333,10.7900645 C30.9139333,10.7873226 30.9184667,10.7856774 30.9224333,10.7840323 C30.9241333,10.7823871 30.9258333,10.7807419 30.9275333,10.7796452 C31.7395667,10.3107742 32.4830333,9.71303226 33.1964667,8.94748387 C33.7206333,8.38429032 33.6741667,7.51729032 33.0927667,7.00948387 C32.5125,6.50167742 31.6160333,6.54609677 31.0918667,7.10983871 C30.8266667,7.395 30.5580667,7.64616129 30.2843667,7.86825806 L24.9373,3.21574194 C25.1367667,2.92729032 25.3685333,2.64158065 25.6343,2.35532258 C26.1573333,1.79158065 26.1103,0.924580645 25.5277667,0.417322581 C25.2569,0.182064516 24.9186,0.0658064516 24.5808667,0.0658064516 C24.1927,0.0658064516 23.8062333,0.219354839 23.5268667,0.520419355 Z M23.9280667,9.49751613 C23.7631667,8.27790323 23.6679667,7.09667742 23.8464667,5.95493548 L27.5847667,9.20687097 C26.6543,9.44267742 25.6768,9.5073871 24.6647333,9.5073871 C24.4205,9.5073871 24.1751333,9.50409677 23.9280667,9.49751613 Z M19.6565333,14.0727097 L17.7984333,12.4555161 C18.9459333,12.1670645 20.1710667,12.1336129 21.4494667,12.1615806 C21.6104,13.3833871 21.7067333,14.5668065 21.5310667,15.7052581 L19.6565333,14.0727097 Z M16.8390667,17.1425806 L14.0992333,14.7543548 C14.1553333,14.6885484 14.2148333,14.6227419 14.2766,14.5569355 C14.5474667,14.2684839 14.8200333,14.015129 15.0971333,13.7930323 L16.2531333,14.8004194 L20.4408,18.4455484 C20.2390667,18.7389355 20.0078667,19.0251935 19.7438,19.3081613 C19.6803333,19.3761613 19.6163,19.4425161 19.5517,19.5072258 L16.8390667,17.1425806 Z M12.5743333,21.6996774 C12.3629667,20.1093548 12.2672,18.6424194 12.7001333,17.2292258 L14.9311,19.1732581 L17.1643333,21.1178387 C15.9698,21.5943871 14.6914,21.709 13.3093,21.709 C13.0673333,21.709 12.8225333,21.7057097 12.5743333,21.6996774 Z M6.44753333,24.6543871 C7.60183333,24.3626452 8.82583333,24.3308387 10.0968667,24.3626452 C10.2629,25.585 10.3592333,26.7684194 10.1807333,27.9101613 L6.44753333,24.6543871 Z" id="path-13"></path>
        <path d="M20.1937021,1.03992 C8.35219149,11.19328 1.28221277,25.2392 0.287234043,40.586 C-0.696829787,55.69312 4.3217234,70.28336 14.4243191,81.74936 C14.5891915,81.93416 14.7511915,82.1156 14.9177872,82.29984 C16.3028298,83.83368 18.7058298,83.98432 20.2787234,82.6336 C20.4602553,82.48016 20.6205319,82.31104 20.7618511,82.13464 C21.8671277,80.76152 21.8378298,78.78752 20.6159362,77.41104 C11.5617447,67.4128 7.00104255,54.43648 7.86734043,41.06312 C8.73651064,27.68976 14.8988298,15.44648 25.2174255,6.60072 C26.792617,5.24608 26.9959787,2.80952 25.5552128,1.372 C24.8038085,0.54152 23.7536809,0.11648 22.6995319,0.11648 C21.8085319,0.11648 20.9140851,0.42056 20.1937021,1.03992 Z" id="path-15"></path>
        <path d="M10.4029535,0.387777778 C4.9252093,0.387777778 0.486209302,4.99555556 0.486209302,10.6772222 L0.486209302,24.5022222 C0.486209302,30.1855556 4.9252093,34.7916667 10.4029535,34.7916667 L12.7259535,34.7916667 C18.2031628,34.7916667 22.6437674,30.1855556 22.6437674,24.5022222 L22.6437674,10.6772222 C22.6437674,4.99555556 18.2031628,0.387777778 12.7259535,0.387777778 L10.4029535,0.387777778 Z" id="path-17"></path>
        <path d="M0.583392857,1.75228409 C-0.447321429,3.48992358 -0.07875,5.77166671 1.54125,6.92352173 C12.1714286,14.4474725 19.3751786,25.8832244 21.8298214,39.1191369 C24.2801786,52.3527965 21.6830357,65.7976763 14.5226786,76.9946084 C13.4582143,78.7339376 13.8583929,81.0156807 15.4783929,82.165846 C15.6364286,82.2751173 15.7992857,82.3708706 15.9664286,82.4525424 L16.0516071,82.4930967 C17.5864286,83.1926586 19.425,82.6637628 20.3967857,81.1502985 C20.8864286,80.3780769 21.3621429,79.5979697 21.8201786,78.8054709 C22.9875,76.7862043 24.0289286,74.7055429 24.9444643,72.5809478 L25.09125,72.2413054 C29.6539286,61.4656876 30.9696429,49.5004767 28.7801786,37.6901608 C27.2925,29.6615341 24.28125,22.2108064 19.9719643,15.695644 C19.9698214,15.6928278 19.9682143,15.6917013 19.9671429,15.688885 C16.1228571,9.87891698 11.2478571,4.8118814 5.49803571,0.740116136 C4.89214286,0.311479622 4.20535714,0.105891806 3.52553571,0.105891806 C2.38714286,0.105891806 1.26857143,0.682664199 0.583392857,1.75228409 Z" id="path-19"></path>
        <path d="M28.529,0.0389516129 L16.8381647,0.309943548 C8.96151765,0.491346774 1.91096471,6.06921774 0.689517647,13.8945968 C0.481611765,15.2094919 0.389270588,16.5588871 0.420788235,17.9383306 L1.60684706,68.7763065 L46.9181647,68.7763065 L45.7343176,16.8905323 C45.7028,15.5155403 45.5479765,14.1694839 45.2820118,12.8651613 C43.7288,5.23454032 36.6517059,0.0356129032 28.9282235,0.0345 C28.7955176,0.0345 28.6628118,0.0361693548 28.529,0.0389516129 Z" id="path-21"></path>
        <path d="M20.1937021,1.03936 C8.35219149,11.19328 1.28221277,25.23976 0.287234043,40.58656 C-0.696829787,55.69312 4.3217234,70.28336 14.4243191,81.74936 C14.588617,81.93416 14.7511915,82.1156 14.9177872,82.29984 C16.3028298,83.83368 18.7058298,83.98432 20.2787234,82.6336 C20.4596809,82.4796 20.6211064,82.31104 20.7624255,82.13464 C21.8671277,80.76152 21.8378298,78.78752 20.6165106,77.41048 C11.5623191,67.4128 7.00104255,54.43648 7.86676596,41.06312 C8.73708511,27.68976 14.8982553,15.44704 25.2174255,6.60016 C26.7920426,5.24664 26.9954043,2.80952 25.5552128,1.372 C24.8038085,0.54152 23.7536809,0.11648 22.6995319,0.11648 C21.8079574,0.11648 20.9135106,0.42056 20.1937021,1.03936 Z" id="path-23"></path>
        <path d="M10.4029535,0.387777778 C4.9252093,0.387777778 0.486209302,4.99555556 0.486209302,10.6772222 L0.486209302,24.5022222 C0.486209302,30.1855556 4.9252093,34.7916667 10.4029535,34.7916667 L12.7264884,34.7916667 C18.2026279,34.7916667 22.6437674,30.1855556 22.6437674,24.5022222 L22.6437674,10.6772222 C22.6437674,4.99555556 18.2026279,0.387777778 12.7264884,0.387777778 L10.4029535,0.387777778 Z" id="path-25"></path>
        <path d="M0.294444444,3.23124031 C-0.0666666667,5.25543411 1.11777778,7.24341085 3.09888889,7.68763566 C16.0822222,10.5736822 27.1861111,18.4469302 34.3661111,29.8513411 C41.5416667,41.255186 43.9283333,54.8224341 41.0988889,68.0682558 C40.7055556,70.1077287 41.9211111,72.0826899 43.9011111,72.5252171 C44.0933333,72.5659612 44.285,72.5919922 44.4761111,72.6033101 L44.5722222,72.6084031 C46.3061111,72.6638605 47.8866667,71.4534186 48.2722222,69.6612403 C48.4638889,68.7495891 48.6394444,67.8356744 48.7916667,66.9166667 C49.1827778,64.5767054 49.4305556,62.2282558 49.54,59.8871628 L49.5572222,59.5125426 C50.0361111,47.6729612 46.9522222,35.9856047 40.5466667,25.8091783 C36.1916667,18.8917209 30.58,13.1060465 24.0561111,8.7005814 C24.0533333,8.69831783 24.0505556,8.69775194 24.0488889,8.69548837 C18.2294444,4.76706977 11.6877778,1.93421705 4.66388889,0.372356589 C4.4,0.313503876 4.13722222,0.285209302 3.87777778,0.285209302 C2.19,0.285209302 0.67,1.47924031 0.294444444,3.23124031 Z" id="path-27"></path>
        <path d="M28.529,0.0383951613 L16.8381647,0.309387097 C8.96096471,0.491903226 1.91096471,6.06866129 0.689517647,13.8945968 C0.482164706,15.2094919 0.389270588,16.5588871 0.420788235,17.9377742 L1.60684706,68.7768629 L46.9181647,68.7768629 L45.7343176,16.8905323 C45.7022471,15.5155403 45.5479765,14.1694839 45.2820118,12.8651613 C43.7288,5.23454032 36.6517059,0.0361693548 28.9282235,0.0345 C28.7955176,0.0345 28.6628118,0.0367258065 28.529,0.0383951613 Z" id="path-29"></path>
        <path d="M0.838586957,1.79055556 C0.158695652,2.95833333 0.664130435,4.52777778 1.86086957,5.17388889 C9.69836957,9.39333333 15.4586957,16.4855556 18.0766304,25.1388889 C20.6929348,33.7933333 19.8467391,43.0244444 15.7233696,50.9933333 C15.1711957,52.0861111 15.4592391,53.3883333 16.3641304,54.1194444 C16.4804348,54.2133333 16.6076087,54.2994444 16.7451087,54.3727778 C17.9391304,55.0172222 19.4222826,54.5472222 20.0521739,53.325 C20.1282609,53.1783333 20.2016304,53.0338889 20.276087,52.8872222 C24.8293478,43.7922222 25.711413,33.4294444 22.7527174,23.6544444 C19.748913,13.7238889 13.1413043,5.58666667 4.14619565,0.743888889 C3.78315217,0.547777778 3.39293478,0.454444444 3.00869565,0.454444444 C2.12880435,0.454444444 1.27771739,0.941111111 0.838586957,1.79055556 Z" id="path-31"></path>
        <path d="M7.55737931,0.236953488 C3.46858621,0.236953488 0.152413793,3.26011628 0.152413793,6.98665116 L0.152413793,16.0566744 C0.152413793,19.7842791 3.46858621,22.8058372 7.55737931,22.8058372 L9.29255172,22.8058372 C13.3831034,22.8058372 16.6981034,19.7842791 16.6981034,16.0566744 L16.6981034,6.98665116 C16.6981034,3.26011628 13.3831034,0.236953488 9.29255172,0.236953488 L7.55737931,0.236953488 Z" id="path-33"></path>
        <path d="M51.4163168,1.12128947 C46.3114455,8.55307895 38.6017426,13.5566053 29.7110495,15.2122895 C20.8220198,16.8652105 11.8187723,14.9691316 4.34914851,9.87773684 C3.18811881,9.12007895 1.65560396,9.38921053 0.875485149,10.5221053 C0.801188119,10.6326316 0.736316832,10.7464737 0.679762376,10.8636316 L0.652594059,10.9233158 C0.174653465,11.9981842 0.519524752,13.2935526 1.52918812,13.9843421 C2.04427723,14.3325 2.56491089,14.6712632 3.09386139,14.9967632 C4.44118812,15.8279211 5.83120792,16.5712105 7.25116832,17.2255263 L7.47849505,17.3305263 C14.6803168,20.5938158 22.6977426,21.5813684 30.6308911,20.1047368 C36.0235248,19.1011579 41.0380198,17.0243684 45.4309703,14.0296579 C45.4331881,14.028 45.4348515,14.0263421 45.4354059,14.0257895 C49.3537426,11.3543684 52.7791683,7.95513158 55.5420198,3.93473684 C56.3204752,2.80128947 56.0293861,1.25336842 54.8905347,0.475815789 C54.4480792,0.196184211 53.9518416,0.0585789474 53.4639208,0.0585789474 C52.6710495,0.0585789474 51.899802,0.420552632 51.4163168,1.12128947 Z" id="path-35"></path>
        <path d="M1.4422069,8.94935294 C1.2617931,9.83184706 1.15641379,10.7430941 1.13544828,11.6748 L0.330482759,46.8042588 L31.1354483,46.8042588 L31.9415172,12.3836706 C31.9624828,11.4497529 31.8995862,10.5362941 31.7588966,9.64661176 C30.9285517,4.34777647 26.1351724,0.571741176 20.7801379,0.448435294 L12.832,0.264858824 C12.7409655,0.2632 12.6504828,0.262094118 12.5605517,0.262094118 C7.3097931,0.262647059 2.4982069,3.78267059 1.4422069,8.94935294 Z" id="path-37"></path>
        <polygon id="path-39" points="0.107461933 0.272119667 7.60798779 0.272119667 7.60798779 54.9818182 0.107461933 54.9818182"></polygon>
        <path d="M2.00385,0.240684211 C0.8568,0.435289474 0.0423,1.41592105 0.0234,2.52942105 L0.0234,2.60860526 C0.02565,2.72984211 0.03645,2.85242105 0.05895,2.97455263 C1.7388,12.6703684 7.12035,21.1345789 15.2136,26.8116842 C21.52395,31.2366053 28.89315,33.5512895 36.4626,33.5638158 L36.5589,33.5638158 C38.07945,33.5620263 39.60765,33.4676316 41.1363,33.2779474 C41.724,33.2059211 42.31215,33.1191316 42.8976,33.0202632 C44.0469,32.8238684 44.86005,31.8418947 44.87805,30.7257105 L44.87805,30.6460789 C44.8767,30.5261842 44.86545,30.4049474 44.84385,30.2828158 C44.6193,28.9948421 43.3989,28.1564737 42.08895,28.3528684 C33.5799,29.8050263 25.0146,27.8867105 17.96445,22.9415 C10.9125,17.9967368 6.22305,10.6200789 4.75875,2.17197368 C4.5522,1.00076316 3.51765,0.216973684 2.35485,0.216973684 C2.2392,0.216973684 2.1222,0.225473684 2.00385,0.240684211 Z" id="path-41"></path>
        <path d="M1.30655882,8.45415 C1.13058824,9.2988 1.02892647,10.1709 1.00795588,11.06145 L0.224294118,44.67195 L30.1511471,44.67195 L30.9334412,11.7396 C30.9544118,10.8468 30.8928676,9.97245 30.7547353,9.1206 C29.9478235,4.0518 25.2932647,0.4383 20.0898235,0.3204 L12.369,0.1449 C12.2810147,0.144 12.1925735,0.14265 12.1050441,0.14265 C7.00326471,0.1431 2.33092647,3.5109 1.30655882,8.45415 Z" id="path-43"></path>
        <path d="M0.96832,1.97481188 C-0.858613333,11.8206337 1.2444,21.7930693 6.8884,30.0507525 C12.4444533,38.1813663 20.7776267,43.6940792 30.3901067,45.6133267 C30.5478667,45.6447525 30.7010933,45.6734455 30.8561333,45.7030495 C32.1594667,45.9467129 33.4156533,45.0831881 33.6568267,43.7737822 C33.9002667,42.4630099 33.0434667,41.2182772 31.7360533,40.9609505 C23.2310667,39.3851089 15.77056,34.5200396 10.8509867,27.324 C5.93368,20.127505 4.09768,11.4380594 5.69205333,2.85609901 C5.93413333,1.54623762 5.06101333,0.218158416 3.76810667,0.0455445545 C3.61986667,0.0186732673 3.47298667,0.00455445545 3.32701333,0.00455445545 C2.19322667,0.00455445545 1.1832,0.81570297 0.96832,1.97481188 Z" id="path-45"></path>
        <path d="M6.87485294,0.06808 C3.25544118,0.06808 0.322941176,3.12432 0.322941176,6.89264 L0.322941176,16.06136 C0.322941176,19.83152 3.25544118,22.88592 6.87485294,22.88592 L8.40970588,22.88592 C12.0277941,22.88592 14.9616176,19.83152 14.9616176,16.06136 L14.9616176,6.89264 C14.9616176,3.12432 12.0277941,0.06808 8.40970588,0.06808 L6.87485294,0.06808 Z" id="path-47"></path>
        <polygon id="path-49" points="0 0.132410853 227.935016 0.132410853 227.935016 175.666039 0 175.666039"></polygon>
        <polygon id="path-51" points="0 290 260.561717 290 260.561717 0.420837209 0 0.420837209"></polygon>
    </defs>
    <g id="final" stroke="none" stroke-width="1" fill="none" fill-rule="evenodd">
        <g id="About-Us" transform="translate(-644.000000, -84.000000)">
            <g id="Group" transform="translate(463.000000, -44.000000)">
                <g id="Page-1" transform="translate(160.000000, 0.000000)">
                    <g id="Group-29">
                        <path d="M482.028693,204.274084 C482.028693,206.258669 480.420354,207.867412 478.436751,207.867412 L440.714808,207.867412 C438.73072,207.867412 437.122381,206.258669 437.122381,204.274084 C437.122381,202.289499 438.73072,200.680756 440.714808,200.680756 L478.436751,200.680756 C480.420354,200.680756 482.028693,202.289499 482.028693,204.274084" id="Fill-1" fill="#009FDA"></path>
                        <path d="M631.355556,305.628994 C631.355556,307.861713 629.54575,309.671488 627.314076,309.671488 L522.911341,309.671488 C520.679667,309.671488 518.869861,307.861713 518.869861,305.628994 L518.869861,302.429476 C518.869861,300.196757 520.679667,298.386496 522.911341,298.386496 L627.314076,298.386496 C629.54575,298.386496 631.355556,300.196757 631.355556,302.429476 L631.355556,305.628994 Z" id="Fill-3" fill="#009FDA"></path>
                        <mask id="mask-2" fill="white">
                            <use xlink:href="#path-1"></use>
                        </mask>
                        <g id="Clip-6"></g>
                        <polygon id="Fill-5" fill="#009FDA" mask="url(#mask-2)" points="406.609371 338.474002 413.681598 338.474002 413.681598 322.641508 406.609371 322.641508"></polygon>
                        <polygon id="Fill-7" fill="#009FDA" mask="url(#mask-2)" points="506.751195 338.474002 513.823423 338.474002 513.823423 322.641508 506.751195 322.641508"></polygon>
                        <path d="M524.182915,318.626013 C524.182915,322.480585 520.558933,325.605809 516.088788,325.605809 L404.575475,325.605809 C400.10533,325.605809 396.481348,322.480585 396.481348,318.626013 L396.481348,212.37665 C396.481348,208.522077 400.10533,205.396853 404.575475,205.396853 L516.088788,205.396853 C520.558933,205.396853 524.182915,208.522077 524.182915,212.37665 L524.182915,318.626013 Z" id="Fill-8" fill="#4BC6F0" mask="url(#mask-2)"></path>
                        <polygon id="Fill-9" fill="#009FDA" mask="url(#mask-2)" points="448.819421 200.680562 470.3735 200.680562 470.3735 179.135648 448.819421 179.135648"></polygon>
                        <polygon id="Fill-10" fill="#4BC6F0" mask="url(#mask-2)" points="448.819033 179.135502 407.058522 138.374539 512.807931 138.374539 470.373111 179.135502"></polygon>
                        <polygon id="Fill-11" fill="#009FDA" mask="url(#mask-2)" points="403.016458 262.678578 516.175492 262.678578 516.175492 212.822611 403.016458 212.822611"></polygon>
                        <path d="M416.824924,309.84018 C416.824924,311.142519 415.769041,312.19818 414.467515,312.19818 C413.165017,312.19818 412.10962,311.142519 412.10962,309.84018 L412.10962,279.185209 C412.10962,277.882871 413.165017,276.827209 414.467515,276.827209 C415.769041,276.827209 416.824924,277.882871 416.824924,279.185209 L416.824924,309.84018 Z" id="Fill-12" fill="#F2D021" mask="url(#mask-2)"></path>
                        <path d="M428.500215,309.84018 C428.500215,311.142519 427.444819,312.19818 426.143292,312.19818 C424.840794,312.19818 423.785397,311.142519 423.785397,309.84018 L423.785397,279.185209 C423.785397,277.882871 424.840794,276.827209 426.143292,276.827209 C427.444819,276.827209 428.500215,277.882871 428.500215,279.185209 L428.500215,309.84018 Z" id="Fill-13" fill="#F2D021" mask="url(#mask-2)"></path>
                        <path d="M446.463323,309.84018 C446.463323,311.142519 445.407441,312.19818 444.105914,312.19818 C442.803416,312.19818 441.748019,311.142519 441.748019,309.84018 L441.748019,279.185209 C441.748019,277.882871 442.803416,276.827209 444.105914,276.827209 C445.407441,276.827209 446.463323,277.882871 446.463323,279.185209 L446.463323,309.84018 Z" id="Fill-14" fill="#F2D021" mask="url(#mask-2)"></path>
                        <path d="M457.914379,309.84018 C457.914379,311.142519 456.858982,312.19818 455.55697,312.19818 C454.254958,312.19818 453.199076,311.142519 453.199076,309.84018 L453.199076,279.185209 C453.199076,277.882871 454.254958,276.827209 455.55697,276.827209 C456.858982,276.827209 457.914379,277.882871 457.914379,279.185209 L457.914379,309.84018 Z" id="Fill-15" fill="#F2D021" mask="url(#mask-2)"></path>
                        <path d="M418.508413,292.828347 C418.508413,295.153812 416.623845,297.038853 414.298962,297.038853 C411.973593,297.038853 410.089025,295.153812 410.089025,292.828347 C410.089025,290.502881 411.973593,288.617355 414.298962,288.617355 C416.623845,288.617355 418.508413,290.502881 418.508413,292.828347" id="Fill-16" fill="#FFFFFF" mask="url(#mask-2)"></path>
                        <path d="M430.352937,301.24999 C430.352937,303.575456 428.467884,305.460496 426.143001,305.460496 C423.817632,305.460496 421.933064,303.575456 421.933064,301.24999 C421.933064,298.924524 423.817632,297.038998 426.143001,297.038998 C428.467884,297.038998 430.352937,298.924524 430.352937,301.24999" id="Fill-17" fill="#FFFFFF" mask="url(#mask-2)"></path>
                        <path d="M448.315559,305.460691 C448.315559,307.786156 446.430506,309.671682 444.105623,309.671682 C441.780254,309.671682 439.895686,307.786156 439.895686,305.460691 C439.895686,303.135225 441.780254,301.250184 444.105623,301.250184 C446.430506,301.250184 448.315559,303.135225 448.315559,305.460691" id="Fill-18" fill="#FFFFFF" mask="url(#mask-2)"></path>
                        <path d="M459.766615,284.406703 C459.766615,286.732169 457.882047,288.617209 455.556679,288.617209 C453.231796,288.617209 451.346742,286.732169 451.346742,284.406703 C451.346742,282.080752 453.231796,280.195711 455.556679,280.195711 C457.882047,280.195711 459.766615,282.080752 459.766615,284.406703" id="Fill-19" fill="#FFFFFF" mask="url(#mask-2)"></path>
                        <polygon id="Fill-20" fill="#009FDA" mask="url(#mask-2)" points="545.088706 338.474002 550.132183 338.474002 550.132183 309.671537 545.088706 309.671537"></polygon>
                        <polygon id="Fill-21" fill="#009FDA" mask="url(#mask-2)" points="600.995128 338.474002 606.038604 338.474002 606.038604 309.671537 600.995128 309.671537"></polygon>
                        <path d="M494.998715,293.176171 C493.458826,293.176171 492.206331,291.923362 492.206331,290.384058 C492.206331,289.139019 493.031133,288.093554 494.159349,287.734222 L494.159349,282.642379 C494.159349,282.178645 494.535098,281.803288 494.99823,281.803288 C495.462332,281.803288 495.838081,282.178645 495.838081,282.642379 L495.838081,287.734222 C496.965812,288.093554 497.790128,289.139019 497.790128,290.384544 C497.791585,291.923362 496.538604,293.176171 494.998715,293.176171 M505.105572,290.383573 C505.105572,289.919839 505.480835,289.543996 505.944453,289.543996 L508.417887,289.543996 C508.22613,286.467331 506.997422,283.666963 505.076445,281.491057 L503.33169,283.235764 C503.167604,283.400377 502.953514,283.482441 502.737969,283.482441 C502.523879,283.482441 502.308819,283.400377 502.144247,283.235764 C501.81656,282.907994 501.81656,282.376764 502.144247,282.048509 L503.888516,280.303802 C501.713641,278.381858 498.914461,277.151871 495.838081,276.961522 L494.159349,276.961522 C491.082969,277.152357 488.283789,278.382343 486.108428,280.303802 L487.852212,282.048509 C488.180871,282.376764 488.180871,282.907994 487.852212,283.235764 C487.688611,283.400377 487.474036,283.482441 487.258491,283.482441 C487.043916,283.482441 486.828856,283.400377 486.664769,283.235764 L484.9205,281.491057 C482.999037,283.666963 481.769844,286.46636 481.579543,289.543996 L484.053463,289.543996 C484.517566,289.543996 484.893314,289.919839 484.893314,290.383573 C484.893314,290.847306 484.517566,291.223634 484.053463,291.223634 L481.580514,291.223634 C481.771301,294.3003 483.000979,297.100182 484.921956,299.276088 L486.66574,297.531381 C486.993913,297.203126 487.52501,297.203126 487.853183,297.531381 C488.181356,297.859637 488.181356,298.390381 487.853183,298.718636 L486.108914,300.462372 C488.284274,302.384802 491.082969,303.614303 494.159349,303.804652 L494.159349,301.331083 C494.159349,300.867349 494.535583,300.491992 494.998715,300.491992 C495.462818,300.491992 495.838081,300.867349 495.838081,301.331083 L495.838081,303.804652 C498.914461,303.614303 501.714127,302.384316 503.889487,300.462372 L502.145218,298.718636 C501.817045,298.390381 501.817045,297.859637 502.145218,297.531381 C502.472906,297.203126 503.003517,297.203126 503.33169,297.531381 L505.076445,299.276088 C506.997908,297.100182 508.226615,294.300785 508.417887,291.223634 L505.944453,291.223634 C505.480835,291.223634 505.105572,290.847306 505.105572,290.383573" id="Fill-22" fill="#FFFFFF" mask="url(#mask-2)"></path>
                        <polygon id="Fill-23" fill="#04518C" mask="url(#mask-2)" points="455.556679 242.185926 492.264004 242.185926 492.264004 236.627922 455.556679 236.627922"></polygon>
                        <polygon id="Fill-24" fill="#04518C" mask="url(#mask-2)" points="455.556679 228.444846 506.694396 228.444846 506.694396 222.886357 455.556679 222.886357"></polygon>
                        <polygon id="Fill-25" fill="#04518C" mask="url(#mask-2)" points="455.556679 256.558752 475.761655 256.558752 475.761655 251.000748 455.556679 251.000748"></polygon>
                        <path d="M445.760712,238.508544 C445.760712,248.043488 438.03311,255.773027 428.50007,255.773027 C418.968001,255.773027 411.240398,248.043488 411.240398,238.508544 C411.240398,228.9736 418.968001,221.24406 428.50007,221.24406 C438.03311,221.24406 445.760712,228.9736 445.760712,238.508544" id="Fill-26" fill="#04518C" mask="url(#mask-2)"></path>
                        <path d="M438.56173,238.508544 C438.56173,244.066548 434.057118,248.57229 428.500021,248.57229 C422.943895,248.57229 418.439283,244.066548 418.439283,238.508544 C418.439283,232.950054 422.943895,228.444798 428.500021,228.444798 C434.057118,228.444798 438.56173,232.950054 438.56173,238.508544" id="Fill-27" fill="#00DDBE" mask="url(#mask-2)"></path>
                        <path d="M518.869861,134.331997 C518.869861,136.564716 517.060054,138.374491 514.82838,138.374491 L404.027241,138.374491 C401.795082,138.374491 399.985275,136.564716 399.985275,134.331997 L399.985275,132.984985 C399.985275,130.752265 401.795082,128.942005 404.027241,128.942005 L514.82838,128.942005 C517.060054,128.942005 518.869861,130.752265 518.869861,132.984985 L518.869861,134.331997 Z" id="Fill-28" fill="#009FDA" mask="url(#mask-2)"></path>
                    </g>
                    <g id="Group-32" transform="translate(450.000000, 146.000000)">
                        <mask id="mask-4" fill="white">
                            <use xlink:href="#path-3"></use>
                        </mask>
                        <g id="Clip-31"></g>
                        <polygon id="Fill-30" fill="#F2D021" mask="url(#mask-4)" points="-3.66816 -1.05028302 25.752 -2.56537736 27.29376 26.3459434 -2.1264 27.8610377"></polygon>
                    </g>
                </g>
                <g id="Page-1" transform="translate(181.000000, 487.000000)">
                    <g id="Group-5" transform="translate(25.000000, 108.000000)" fill="#133055">
                        <path d="M10.1865288,76.9482905 C10.1859712,79.8129122 7.99591346,82.1341081 5.29500962,82.1341081 C2.591875,82.1352297 0.404605769,79.8140338 0.404048077,76.949973 L0.397355769,5.61427703 C0.396798077,2.75133784 2.58574038,0.430141892 5.288875,0.42902027 C7.98977885,0.429581081 10.1792788,2.74965541 10.1792788,5.61259459 L10.1865288,76.9482905 Z" id="Fill-1"></path>
                        <path d="M28.9160673,77.3899851 C28.9155096,80.2546068 26.7254519,82.5758027 24.0239904,82.5758027 C21.3214135,82.5769243 19.1335865,80.2557284 19.1335865,77.3916676 L19.1263365,6.05597162 C19.1263365,3.19247162 21.3152788,0.871836486 24.0184135,0.870714865 C26.7187596,0.870714865 28.9082596,3.19135 28.9088173,6.05428919 L28.9160673,77.3899851 Z" id="Fill-3"></path>
                    </g>
                    <g id="Group-8" transform="translate(0.000000, 51.000000)">
                        <mask id="mask-6" fill="white">
                            <use xlink:href="#path-5"></use>
                        </mask>
                        <g id="Clip-7"></g>
                        <polygon id="Fill-6" fill="#003055" mask="url(#mask-6)" points="18.6708696 -13.422528 -33.1552174 54.685792 18.6279348 96.521712 70.4534783 28.413952"></polygon>
                    </g>
                    <g id="Group-11" transform="translate(27.000000, 1.000000)">
                        <mask id="mask-8" fill="white">
                            <use xlink:href="#path-7"></use>
                        </mask>
                        <g id="Clip-10"></g>
                        <polygon id="Fill-9" fill="#009FDA" mask="url(#mask-8)" points="-7.4552093 42.8961111 30.3075814 42.8961111 30.3075814 -7.71777778 -7.4552093 -7.71777778"></polygon>
                    </g>
                    <g id="Group-14" transform="translate(45.000000, 51.000000)">
                        <mask id="mask-10" fill="white">
                            <use xlink:href="#path-9"></use>
                        </mask>
                        <g id="Clip-13"></g>
                        <polygon id="Fill-12" fill="#003055" mask="url(#mask-10)" points="-37.1793404 66.9882269 -1.85807719 -11.9473557 60.7423439 16.2519703 25.4199579 95.1841734"></polygon>
                    </g>
                    <g id="Group-17" transform="translate(16.000000, 45.000000)">
                        <mask id="mask-12" fill="white">
                            <use xlink:href="#path-11"></use>
                        </mask>
                        <g id="Clip-16"></g>
                        <polygon id="Fill-15" fill="#009FDA" mask="url(#mask-12)" points="-7.79425882 76.8938226 54.8434706 76.8938226 54.8434706 -8.08190323 -7.79425882 -8.08190323"></polygon>
                    </g>
                    <g id="Group-20" transform="translate(21.000000, 58.000000)">
                        <mask id="mask-14" fill="white">
                            <use xlink:href="#path-13"></use>
                        </mask>
                        <g id="Clip-19"></g>
                        <polygon id="Fill-18" fill="#F2D021" mask="url(#mask-14)" points="-4.69001667 -1.98011613 36.5536833 -4.07166452 38.7155167 35.8415935 -2.52875 37.9331419"></polygon>
                    </g>
                    <g id="Group-25" transform="translate(138.000000, 108.000000)" fill="#133055">
                        <path d="M10.5732906,77.0025209 C10.6083094,79.8671426 8.48802642,82.2158182 5.83808302,82.2500277 C3.18649811,82.2853588 1.01204528,79.9927642 0.976479245,77.1287034 L0.0878754717,5.79917635 C0.052309434,2.93567635 2.17095094,0.587000676 4.82308302,0.551669595 C7.47247925,0.517460135 9.64912075,2.80949392 9.68468679,5.67299392 L10.5732906,77.0025209 Z" id="Fill-21"></path>
                        <path d="M28.9531623,77.2057027 C28.9881811,80.0697635 26.8684453,82.419 24.2179547,82.4532095 C21.5663698,82.4885405 19.391917,80.1959459 19.3563509,77.3318851 L18.4677472,6.00235811 C18.4321811,3.13885811 20.5508226,0.790182432 23.2029547,0.754851351 C25.8523509,0.720641892 28.0295396,3.01267568 28.0645585,5.87617568 L28.9531623,77.2057027 Z" id="Fill-23"></path>
                    </g>
                    <g id="Group-28" transform="translate(114.000000, 51.000000)">
                        <mask id="mask-16" fill="white">
                            <use xlink:href="#path-15"></use>
                        </mask>
                        <g id="Clip-27"></g>
                        <polygon id="Fill-26" fill="#003055" mask="url(#mask-16)" points="19.8830298 -13.422528 -34.8982468 54.685792 19.8376468 96.521712 74.6183489 28.413952"></polygon>
                    </g>
                    <g id="Group-31" transform="translate(140.000000, 1.000000)">
                        <mask id="mask-18" fill="white">
                            <use xlink:href="#path-17"></use>
                        </mask>
                        <g id="Clip-30"></g>
                        <polygon id="Fill-29" fill="#009FDA" mask="url(#mask-18)" points="-7.31774419 42.8961111 30.4450465 42.8961111 30.4450465 -7.71777778 -7.31774419 -7.71777778"></polygon>
                    </g>
                    <g id="Group-34" transform="translate(159.000000, 51.000000)">
                        <mask id="mask-20" fill="white">
                            <use xlink:href="#path-19"></use>
                        </mask>
                        <g id="Clip-33"></g>
                        <polygon id="Fill-32" fill="#003055" mask="url(#mask-20)" points="-35.8761964 66.9882269 -2.17119643 -11.9473557 57.5646964 16.2519703 23.858625 95.1841734"></polygon>
                    </g>
                    <g id="Group-37" transform="translate(127.000000, 45.000000)">
                        <mask id="mask-22" fill="white">
                            <use xlink:href="#path-21"></use>
                        </mask>
                        <g id="Clip-36"></g>
                        <polygon id="Fill-35" fill="#009FDA" mask="url(#mask-22)" points="-7.65215294 76.8938226 54.9855765 76.8938226 54.9855765 -8.08190323 -7.65215294 -8.08190323"></polygon>
                    </g>
                    <g id="Group-44" transform="translate(135.000000, 45.000000)">
                        <path d="M33.4457518,46.9241584 C32.1196817,46.9241584 31.0146233,45.8172882 31.0146233,44.4890439 C31.0146233,43.1607996 32.1196817,42.0539294 33.4457518,42.0539294 C34.7718218,42.0539294 35.8768802,43.1607996 35.8768802,44.4890439 C35.8768802,45.8172882 34.7718218,46.9241584 33.4457518,46.9241584 M33.4457518,38.7333187 C30.9041175,38.7333187 28.7492537,40.393624 28.0309658,42.662708 C22.1189035,41.7218683 17.5329113,36.5749218 17.5329113,30.3764485 L17.5329113,30.0443874 C25.4340786,29.2695782 31.6224054,22.5730134 31.6224054,14.4375172 L31.6224054,0.380265267 L29.9648179,0.380265267 L28.3072304,0.380265267 L27.7547012,0.380265267 C26.539137,0.380265267 25.5445844,1.37644847 25.5445844,2.59400573 C25.5445844,3.81156298 26.539137,4.80774618 27.7547012,4.80774618 L28.3072304,4.80774618 L28.3072304,14.4928607 C28.3072304,21.3554561 22.7266856,26.8898073 15.9305767,26.8898073 C9.1344677,26.8898073 3.55392296,21.3001126 3.55392296,14.4375172 L3.55392296,4.75240267 L4.10645214,4.75240267 C5.32201634,4.75240267 6.31656887,3.75621947 6.31656887,2.53866221 C6.31656887,1.32110496 5.32201634,0.324921756 4.10645214,0.324921756 L3.55392296,0.324921756 L1.89633541,0.324921756 L0.23874786,0.324921756 L0.23874786,14.3821737 C0.23874786,22.4623263 6.37182179,29.1588912 14.2177362,29.9890439 L14.2177362,30.3764485 C14.2177362,38.3459141 20.1850514,44.9871355 27.9204599,45.9279752 C28.5834949,48.3630897 30.7936117,50.1340821 33.4457518,50.1340821 C36.5951681,50.1340821 39.1368023,47.5882805 39.1368023,44.4337004 C39.1368023,41.2791202 36.5951681,38.7333187 33.4457518,38.7333187" id="Fill-38" fill="#F2D021"></path>
                        <path d="M123.143781,139.051901 C123.1587,141.878847 121.002178,144.181691 118.325174,144.19608 C115.64817,144.21213 113.46789,141.933637 113.452419,139.107798 L113.055704,68.7114046 C113.03968,65.8855649 115.195096,63.5827214 117.873758,63.5666718 C120.549104,63.5528359 122.731042,65.8302214 122.747065,68.6560611 L123.143781,139.051901 Z" id="Fill-40" fill="#133055"></path>
                        <path d="M141.702076,139.384847 C141.716995,142.211794 139.559921,144.514637 136.883469,144.529027 C134.206465,144.545076 132.026185,142.266584 132.010714,139.440191 L131.613446,69.0437977 C131.597975,66.2185115 133.753391,63.9156679 136.432053,63.8996183 C139.107399,63.885229 141.289337,66.1631679 141.30536,68.9884542 L141.702076,139.384847 Z" id="Fill-42" fill="#133055"></path>
                    </g>
                    <g id="Group-47" transform="translate(225.000000, 50.000000)">
                        <mask id="mask-24" fill="white">
                            <use xlink:href="#path-23"></use>
                        </mask>
                        <g id="Clip-46"></g>
                        <polygon id="Fill-45" fill="#003055" mask="url(#mask-24)" points="19.8830298 -13.422528 -34.8982468 54.685792 19.8376468 96.521712 74.6183489 28.413952"></polygon>
                    </g>
                    <g id="Group-50" transform="translate(250.000000, 0.000000)">
                        <mask id="mask-26" fill="white">
                            <use xlink:href="#path-25"></use>
                        </mask>
                        <g id="Clip-49"></g>
                        <polygon id="Fill-48" fill="#009FDA" mask="url(#mask-26)" points="-7.31774419 42.8961111 30.4450465 42.8961111 30.4450465 -7.71777778 -7.31774419 -7.71777778"></polygon>
                    </g>
                    <g id="Group-53" transform="translate(261.000000, 47.000000)">
                        <mask id="mask-28" fill="white">
                            <use xlink:href="#path-27"></use>
                        </mask>
                        <g id="Clip-52"></g>
                        <polygon id="Fill-51" fill="#003055" mask="url(#mask-28)" points="-11.1225556 78.3558233 -7.34311111 -8.48927752 60.4957778 -5.42384341 56.7141111 81.4189938"></polygon>
                    </g>
                    <g id="Group-56" transform="translate(239.000000, 42.000000)">
                        <mask id="mask-30" fill="white">
                            <use xlink:href="#path-29"></use>
                        </mask>
                        <g id="Clip-55"></g>
                        <polygon id="Fill-54" fill="#009FDA" mask="url(#mask-30)" points="-7.65215294 76.8938226 54.9855765 76.8938226 54.9855765 -8.08190323 -7.65215294 -8.08190323"></polygon>
                    </g>
                    <g id="Group-61" transform="translate(344.000000, 133.000000)" fill="#133055">
                        <path d="M13.3582703,52.276336 C13.3298919,54.225136 14.8248649,55.826176 16.6984054,55.853056 C18.5725135,55.880496 20.1117568,54.323136 20.1407027,52.374896 L20.8632162,3.845856 C20.8921622,1.898176 19.3983243,0.297136 17.5236486,0.269136 C15.6512432,0.242816 14.1097297,1.799056 14.0807838,3.747296 L13.3582703,52.276336 Z" id="Fill-57"></path>
                        <path d="M0.367954054,52.389792 C0.339575676,54.338592 1.83454865,55.939632 3.70808919,55.966512 C5.5821973,55.993952 7.12144054,54.437152 7.15038649,52.488352 L7.8729,3.959312 C7.90184595,2.011632 6.40800811,0.410592 4.53333243,0.382592 C2.66092703,0.356272 1.11941351,1.912512 1.0899,3.860752 L0.367954054,52.389792 Z" id="Fill-59"></path>
                    </g>
                    <g id="Group-64" transform="translate(355.000000, 106.000000)">
                        <mask id="mask-32" fill="white">
                            <use xlink:href="#path-31"></use>
                        </mask>
                        <g id="Clip-63"></g>
                        <polygon id="Fill-62" fill="#003055" mask="url(#mask-32)" points="2.09956522 -8.80694444 46.9870652 27.4836111 19.1740217 63.4302778 -25.7129348 27.1408333"></polygon>
                    </g>
                    <g id="Group-67" transform="translate(346.000000, 73.000000)">
                        <mask id="mask-34" fill="white">
                            <use xlink:href="#path-33"></use>
                        </mask>
                        <g id="Clip-66"></g>
                        <polygon id="Fill-65" fill="#009FDA" mask="url(#mask-34)" points="-5.67331034 28.1225814 22.5255862 28.1225814 22.5255862 -5.08032558 -5.67331034 -5.08032558"></polygon>
                    </g>
                    <g id="Group-70" transform="translate(302.000000, 106.000000)">
                        <mask id="mask-36" fill="white">
                            <use xlink:href="#path-35"></use>
                        </mask>
                        <g id="Clip-69"></g>
                        <polygon id="Fill-68" fill="#003055" mask="url(#mask-36)" points="11.3391683 -25.4928395 64.0933861 -1.38870789 44.849901 40.4482658 -7.90265347 16.3435816"></polygon>
                    </g>
                    <g id="Group-73" transform="translate(340.000000, 102.000000)">
                        <mask id="mask-38" fill="white">
                            <use xlink:href="#path-37"></use>
                        </mask>
                        <g id="Clip-72"></g>
                        <polygon id="Fill-71" fill="#009FDA" mask="url(#mask-38)" points="-5.15475862 52.2999412 37.430069 52.2999412 37.430069 -5.23303529 -5.15475862 -5.23303529"></polygon>
                    </g>
                </g>
                <g id="Page-1" transform="translate(353.000000, 262.000000)">
                    <g id="Group-6" transform="translate(215.000000, 235.000000)">
                        <g id="Group-3" transform="translate(26.246465, 0.000000)">
                            <mask id="mask-40" fill="white">
                                <use xlink:href="#path-39"></use>
                            </mask>
                            <g id="Clip-2"></g>
                            <path d="M0.993247677,51.5702414 C1.0294497,53.4882957 2.53907394,55.0151678 4.36546586,54.9813675 C6.19276283,54.9480179 7.64265374,53.3666146 7.60735677,51.449011 L6.72176485,3.68378182 C6.68601535,1.76617824 5.17729616,0.23930611 3.34954667,0.272655738 C1.5240598,0.306456036 0.0723587879,1.88740864 0.108108283,3.80501222 L0.993247677,51.5702414 Z" id="Fill-1" fill="#133055" mask="url(#mask-40)"></path>
                        </g>
                        <path d="M0.65783596,48.7933892 C-0.0245721212,50.587509 0.806716768,52.5636998 2.5149996,53.2086095 C4.22373495,53.8544205 6.16009051,52.923335 6.84295111,51.1296658 L23.8524703,6.46009323 C24.5353309,4.66732542 23.7049471,2.69158534 21.9953067,2.04532364 C20.2879289,1.40086462 18.3502158,2.33104882 17.6673552,4.12381663 L0.65783596,48.7933892 Z" id="Fill-4" fill="#133055"></path>
                    </g>
                    <g id="Group-9" transform="translate(187.000000, 174.000000)">
                        <mask id="mask-42" fill="white">
                            <use xlink:href="#path-41"></use>
                        </mask>
                        <g id="Clip-8"></g>
                        <polygon id="Fill-7" fill="#003055" mask="url(#mask-42)" points="-5.23575 38.7913158 50.1372 38.7913158 50.1372 -5.01142105 -5.23575 -5.01142105"></polygon>
                    </g>
                    <g id="Group-12" transform="translate(225.000000, 197.000000)">
                        <mask id="mask-44" fill="white">
                            <use xlink:href="#path-43"></use>
                        </mask>
                        <g id="Clip-11"></g>
                        <polygon id="Fill-10" fill="#009FDA" mask="url(#mask-44)" points="-5.10177941 49.9302 36.2636176 49.9302 36.2636176 -5.11515 -5.10177941 -5.11515"></polygon>
                    </g>
                    <g id="Group-15" transform="translate(222.000000, 164.000000)">
                        <mask id="mask-46" fill="white">
                            <use xlink:href="#path-45"></use>
                        </mask>
                        <g id="Clip-14"></g>
                        <polygon id="Fill-13" fill="#003055" mask="url(#mask-46)" points="-4.97034667 51.0663762 38.9957333 51.0663762 38.9957333 -5.31732673 -4.97034667 -5.31732673"></polygon>
                    </g>
                    <g id="Group-18" transform="translate(232.000000, 169.000000)">
                        <mask id="mask-48" fill="white">
                            <use xlink:href="#path-47"></use>
                        </mask>
                        <g id="Clip-17"></g>
                        <polygon id="Fill-16" fill="#009FDA" mask="url(#mask-48)" points="-4.83308824 28.26148 20.1163235 28.26148 20.1163235 -5.30794 -4.83308824 -5.30794"></polygon>
                    </g>
                    <g id="Group-35">
                        <g id="Group-21" transform="translate(0.000000, 0.449612)">
                            <mask id="mask-50" fill="white">
                                <use xlink:href="#path-49"></use>
                            </mask>
                            <g id="Clip-20"></g>
                            <path d="M227.935016,164.123589 C227.935016,170.498643 222.789779,175.666039 216.442062,175.666039 L11.4930432,175.666039 C5.14577393,175.666039 -0.000358147513,170.498643 -0.000358147513,164.123589 L-0.000358147513,11.6748605 C-0.000358147513,5.2998062 5.14577393,0.132410853 11.4930432,0.132410853 L216.442062,0.132410853 C222.789779,0.132410853 227.935016,5.2998062 227.935016,11.6748605 L227.935016,164.123589 Z" id="Fill-19" fill="#FFFFFF" mask="url(#mask-50)"></path>
                        </g>
                        <mask id="mask-52" fill="white">
                            <use xlink:href="#path-51"></use>
                        </mask>
                        <g id="Clip-23"></g>
                        <polygon id="Fill-22" fill="#04518C" mask="url(#mask-52)" points="-0.000447684391 36.0081085 227.934926 36.0081085 227.934926 0.420837209 -0.000447684391 0.420837209"></polygon>
                        <path d="M33.041436,18.2144729 C33.041436,23.7919147 28.5395218,28.3136667 22.9851015,28.3136667 C17.4320244,28.3136667 12.9292148,23.7919147 12.9292148,18.2144729 C12.9292148,12.6361318 17.4320244,8.11482946 22.9851015,8.11482946 C28.5395218,8.11482946 33.041436,12.6361318 33.041436,18.2144729" id="Fill-24" fill="#FFFFFF" mask="url(#mask-52)"></path>
                        <path d="M60.8140744,18.2144729 C60.8140744,23.7919147 56.3121602,28.3136667 50.7572923,28.3136667 C45.2042151,28.3136667 40.7014055,23.7919147 40.7014055,18.2144729 C40.7014055,12.6361318 45.2042151,8.11482946 50.7572923,8.11482946 C56.3121602,8.11482946 60.8140744,12.6361318 60.8140744,18.2144729" id="Fill-25" fill="#FFFFFF" mask="url(#mask-52)"></path>
                        <path d="M90.658059,18.2144729 C90.658059,23.7919147 86.1556971,28.3136667 80.6012768,28.3136667 C75.0481997,28.3136667 70.5453901,23.7919147 70.5453901,18.2144729 C70.5453901,12.6361318 75.0481997,8.11482946 80.6012768,8.11482946 C86.1556971,8.11482946 90.658059,12.6361318 90.658059,18.2144729" id="Fill-26" fill="#FFFFFF" mask="url(#mask-52)"></path>
                        <path d="M100.124166,72.1348248 L118.882142,72.1348248 C117.912906,62.2545922 110.008142,54.4259411 100.124166,53.6134915 L100.124166,72.1348248 Z" id="Fill-27" fill="#00DDBE" mask="url(#mask-52)"></path>
                        <path d="M95.9384964,76.053107 L95.9384964,74.2034016 L95.9384964,72.3532465 L95.9384964,55.6915101 C86.7014244,56.7629364 79.5290727,64.6396961 79.5290727,74.2034016 C79.5290727,84.4977271 87.8385427,92.8434326 98.0891722,92.8434326 C107.717968,92.8434326 115.63258,85.479231 116.557496,76.053107 L95.9384964,76.053107 Z" id="Fill-28" fill="#4BC6F0" mask="url(#mask-52)"></path>
                        <path d="M171.537258,72.1348248 L190.294787,72.1348248 C189.32555,62.2545922 181.421234,54.4259411 171.537258,53.6134915 L171.537258,72.1348248 Z" id="Fill-29" fill="#F2D021" mask="url(#mask-52)"></path>
                        <path d="M167.351141,76.053107 L167.351141,74.2034016 L167.351141,72.3532465 L167.351141,55.6915101 C158.114516,56.7629364 150.941717,64.6396961 150.941717,74.2034016 C150.941717,84.4977271 159.251187,92.8434326 169.501816,92.8434326 C179.130612,92.8434326 187.045672,85.479231 187.970588,76.053107 L167.351141,76.053107 Z" id="Fill-30" fill="#00DDBE" mask="url(#mask-52)"></path>
                        <polygon id="Fill-31" fill="#04518C" mask="url(#mask-52)" points="58.3238748 117.204512 213.480988 117.204512 213.480988 107.315736 58.3238748 107.315736"></polygon>
                        <polygon id="Fill-32" fill="#04518C" mask="url(#mask-52)" points="58.3238748 137.247783 213.480988 137.247783 213.480988 127.359008 58.3238748 127.359008"></polygon>
                        <polygon id="Fill-33" fill="#04518C" mask="url(#mask-52)" points="58.3238748 157.549581 213.480988 157.549581 213.480988 147.660806 58.3238748 147.660806"></polygon>
                        <polygon id="Fill-34" fill="#F2D021" mask="url(#mask-52)" points="14.474084 156.775798 47.469319 156.775798 47.469319 55.0028837 14.474084 55.0028837"></polygon>
                    </g>
                </g>
            </g>
        </g>
    </g>
</svg>