<svg width="877" height="911" viewBox="0 0 877 911" fill="none" xmlns="http://www.w3.org/2000/svg">
<path d="M568.67 723.861C577.437 717.18 575.223 703.426 564.802 699.833L509.801 680.873C505.478 679.383 500.697 680.131 497.035 682.87L449.658 718.31C440.743 724.98 442.987 738.918 453.545 742.452L509.65 761.234C513.986 762.686 518.76 761.896 522.398 759.124L568.67 723.861Z" fill="#6FC3EC" fill-opacity="0.15"/>
<path fill-rule="evenodd" clip-rule="evenodd" d="M574.088 713.761C573.864 717.523 572.115 721.237 568.672 723.861L522.4 759.124C518.762 761.896 513.988 762.686 509.651 761.234L453.546 742.452C448.448 740.745 445.288 736.612 444.388 732.042L444.219 732.069L454.247 794.367L454.415 794.34C455.315 798.909 458.475 803.043 463.574 804.75L519.679 823.532C524.016 824.984 528.79 824.193 532.427 821.421L578.7 786.159C584.023 782.102 585.298 775.438 583.145 770.024L574.088 713.761Z" fill="#6FC3EC" fill-opacity="0.15"/>
<path d="M249.221 387.316C221.823 361.173 234.609 315.045 271.557 306.737L466.572 262.889C481.902 259.442 497.944 263.812 509.408 274.557L657.721 413.574C685.631 439.735 672.675 486.476 635.279 494.535L436.561 537.357C421.201 540.666 405.199 536.154 393.832 525.307L249.221 387.316Z" fill="#6FC3EC" fill-opacity="0.15"/>
<path fill-rule="evenodd" clip-rule="evenodd" d="M234.561 350.764C233.895 363.696 238.457 377.047 249.218 387.316L393.829 525.307C405.197 536.154 421.199 540.666 436.558 537.356L635.276 494.534C653.337 490.643 665.697 477.728 670.506 462.467L671.071 462.624L613.16 671.541L612.596 671.385C607.787 686.646 595.427 699.561 577.366 703.452L378.648 746.274C363.289 749.584 347.287 745.072 335.919 734.225L191.308 596.234C174.672 580.36 172.852 557.118 182.259 539.449L234.561 350.764Z" fill="#6FC3EC" fill-opacity="0.15"/>
</svg>
