<svg width="877" height="911" viewBox="0 0 877 911" fill="none" xmlns="http://www.w3.org/2000/svg">
<path d="M627.779 387.315C655.177 361.172 642.391 315.044 605.443 306.736L410.428 262.888C395.098 259.441 379.056 263.811 367.592 274.556L219.279 413.573C191.369 439.734 204.325 486.475 241.721 494.534L440.439 537.356C455.799 540.666 471.801 536.153 483.168 525.306L627.779 387.315Z" fill="#6FC3EC" fill-opacity="0.15"/>
<path fill-rule="evenodd" clip-rule="evenodd" d="M642.439 350.764C643.105 363.696 638.543 377.047 627.782 387.315L483.171 525.306C471.803 536.153 455.801 540.666 440.442 537.356L241.724 494.534C223.663 490.642 211.303 477.728 206.494 462.467L205.929 462.623L263.84 671.541L264.404 671.384C269.213 686.646 281.573 699.56 299.634 703.452L498.352 746.274C513.711 749.584 529.713 745.071 541.081 734.224L685.692 596.234C702.328 580.36 704.148 557.118 694.741 539.448L642.439 350.764Z" fill="#6FC3EC" fill-opacity="0.15"/>
</svg>
