<svg xmlns="http://www.w3.org/2000/svg" xmlns:xlink="http://www.w3.org/1999/xlink" width="381" height="249" viewBox="0 0 381 249">
    <defs>
        <path id="hb54sler7a" d="M0.015 0.005L37.101 0.005 37.101 65.548 0.015 65.548z"/>
        <path id="zcgex0lkuc" d="M0.227 0.286L74.208 0.286 74.208 43.659 0.227 43.659z"/>
        <path id="4ktnpherie" d="M.957.214C.222.466-.171 1.266.081 2c1.89 5.524 5.822 9.978 11.072 12.545 5.168 2.528 11.003 2.929 16.461 1.137l.263-.089c.736-.25 1.129-1.05.877-1.785-.029-.084-.065-.164-.107-.238-.326-.577-1.023-.853-1.68-.635-4.794 1.646-9.998 1.323-14.573-.913C7.82 9.784 4.392 5.901 2.746 1.088 2.547.51 1.993.125 1.42.125c-.156 0-.313.029-.464.09z"/>
        <path id="rwi2xvad6g" d="M.69 5.239C.589 5.74.53 6.26.519 6.79L.07 26.791h17.173l.45-19.597c.012-.532-.023-1.052-.102-1.559C17.128 2.618 14.456.47 11.471.4L7.04.294 6.888.292C3.961.293 1.278 2.297.69 5.24z"/>
        <path id="ojucwdvx1i" d="M4.12.107C1.975.107.235 1.8.235 3.887v5.081c0 2.089 1.74 3.781 3.885 3.781h.91c2.147 0 3.886-1.692 3.886-3.78V3.887C8.916 1.8 7.177.107 5.03.107h-.91z"/>
        <path id="qcmd4pldvk" d="M19.481.105c-2.685.276-5.246 1.057-7.584 2.287l-.003.002c-2.621 1.38-4.96 3.326-6.88 5.761C2.188 11.736.538 16.043.21 20.569l-.01.142c-.06.897-.067 1.8-.022 2.71.017.355.044.71.076 1.067.067.7.605 1.231 1.253 1.288l.037.003c.072.005.144.003.218-.004.757-.078 1.294-.774 1.235-1.568-.487-5.168.984-10.221 4.147-14.234C10.31 5.96 14.787 3.468 19.751 2.96c.758-.08 1.285-.781 1.236-1.568C20.917.65 20.32.098 19.62.098c-.046 0-.092.002-.139.007z"/>
        <path id="dsjuei4fem" d="M8.75 2.922C4.53 5.464 1.55 9.445.34 14.149l-.056.228c-.155.637.246 1.28.896 1.432.074.018.149.028.222.032.57.028 1.093-.344 1.236-.911 1.01-4.164 3.642-7.73 7.376-9.982 3.736-2.25 8.141-2.938 12.402-1.936.652.153 1.34-.246 1.46-.88.155-.638-.246-1.28-.896-1.433-1.466-.345-2.948-.515-4.42-.515-3.433 0-6.81.93-9.81 2.738z"/>
        <path id="m4k2k5upoo" d="M.233 3.715L.127 8.392c-.044 1.923 1.441 3.518 3.317 3.563l.795.018c1.875.046 3.43-1.476 3.475-3.4l.106-4.677C7.863 1.974 6.378.38 4.503.334l-.795-.02h-.08C1.787.314.275 1.82.232 3.714z"/>
        <path id="bk70jenycq" d="M11.996.233C7.294 2.231 3.626 6.005 1.673 10.856-.252 15.631-.29 20.89 1.556 25.69l.091.231c.257.646.974.955 1.599.688.072-.03.139-.067.2-.108.485-.325.69-.965.465-1.543-1.686-4.212-1.68-8.899.022-13.127 1.703-4.227 4.899-7.516 8.997-9.257.626-.267.95-1.032.665-1.653-.195-.488-.652-.784-1.133-.784-.155 0-.313.031-.466.096z"/>
        <path id="x3qjj2crvs" d="M.546.512c-.41.551-.334 1.317.217 1.74C4.38 5.014 6.677 8.987 7.232 13.438c.553 4.45-.703 8.845-3.537 12.38-.423.55-.336 1.318.216 1.74.054.04.11.075.167.107l.03.015c.531.27 1.202.141 1.586-.336.194-.244.383-.491.567-.743.466-.64.89-1.304 1.268-1.986l.061-.109c1.894-3.46 2.657-7.396 2.162-11.368-.336-2.7-1.231-5.247-2.613-7.515 0-.002-.001-.002-.002-.003C5.905 3.597 4.285 1.794 2.328.3c-.232-.177-.507-.263-.78-.263C1.17.037.797.2.545.512z"/>
        <path id="7632jfl66u" d="M.568.662c-.41.55-.335 1.317.216 1.74 3.618 2.76 5.915 6.734 6.47 11.186.553 4.45-.703 8.844-3.537 12.38-.423.55-.336 1.317.215 1.738.054.04.11.077.168.108l.03.015c.531.271 1.201.142 1.586-.336.194-.244.383-.49.566-.742.466-.64.89-1.305 1.27-1.986l.06-.11c1.894-3.46 2.657-7.395 2.162-11.368-.336-2.7-1.231-5.247-2.613-7.515l-.002-.002C5.926 3.746 4.306 1.944 2.35.45 2.12.271 1.844.185 1.57.185c-.377 0-.75.164-1 .476z"/>
        <path id="szvevnso8w" d="M.42 4.517c-.082.43-.125.872-.125 1.325L.3 22.527l15.607.348.006-17.029c0-.451-.042-.894-.124-1.324-.474-2.514-2.87-4.274-5.53-4.334L10.12.187 6.09.185C3.377.185.904 1.96.42 4.517z"/>
    </defs>
    <g fill="none" fill-rule="evenodd">
        <g>
            <path fill="#E2E2E2" d="M150.752 88.935c4.022-2.234 9.095-.788 11.332 3.23 2.236 4.018.788 9.085-3.235 11.319l-36.004 19.992c-4.023 2.233-9.097.787-11.333-3.23-2.236-4.019-.788-9.086 3.234-11.32l36.006-19.991z" transform="translate(54 64)"/>
            <path fill="#109ED9" d="M121.224 43.598L121.224 87.159 158.311 65.52 158.311 21.616z" transform="translate(54 64)"/>
            <path fill="#F2D021" d="M84.33 65.52L121.102 87.16 121.102 43.598 84.33 21.616z" transform="translate(54 64)"/>
            <path fill="#78D5F4" d="M84.33 21.616L121.102 43.598 158.311 21.616 121.32 0.225z" transform="translate(54 64)"/>
            <path fill="#D1B534" d="M98.06 64.144L98.06 74.123 108.846 80.312 108.846 57.705z" transform="translate(54 64)"/>
            <path fill="#178DBC" d="M145.072 63.146L145.072 73.125 134.286 79.314 134.286 56.707z" transform="translate(54 64)"/>
            <path fill="#E2E2E2" d="M182.567 68.616c4.005 2.267 5.41 7.346 3.141 11.345-2.27 4-7.354 5.404-11.358 3.137L138.512 62.81c-4.004-2.266-5.411-7.346-3.141-11.346 2.27-3.999 7.354-5.403 11.358-3.137l35.838 20.289zM99.367 46.526c3.965-2.334 9.073-1.016 11.41 2.944 2.338 3.96 1.019 9.062-2.946 11.396L72.343 81.762c-3.964 2.334-9.073 1.016-11.41-2.944-2.337-3.96-1.018-9.062 2.947-11.397l35.487-20.895z" transform="translate(54 64)"/>
            <g transform="translate(54 64) translate(205.423 69.1)">
                <mask id="5tqr6wrhrb" fill="#fff">
                    <use xlink:href="#hb54sler7a"/>
                </mask>
                <path fill="#109ED9" d="M0.015 21.986L0.015 65.548 37.101 43.909 37.101 0.005z" mask="url(#5tqr6wrhrb)"/>
            </g>
            <path fill="#F2D021" d="M168.544 113.009L205.316 134.648 205.316 91.087 168.544 69.105z" transform="translate(54 64)"/>
            <g transform="translate(54 64) translate(168.317 47.428)">
                <mask id="8n6213ccud" fill="#fff">
                    <use xlink:href="#zcgex0lkuc"/>
                </mask>
                <path fill="#4BC6F0" d="M0.227 21.677L36.999 43.659 74.208 21.677 37.217 0.286z" mask="url(#8n6213ccud)"/>
            </g>
            <path fill="#109ED9" d="M36.491 91.811L36.491 135.373 74.207 113.734 73.892 69.858z" transform="translate(54 64)"/>
            <path fill="#FFF" d="M10.595 112.032L36.491 135.373 37.216 91.181 0.226 69.83z" transform="translate(54 64)"/>
            <path fill="#78D5F4" d="M0.226 69.829L37.216 91.181 74.207 69.829 37.216 48.439z" transform="translate(54 64)"/>
            <path fill="#178DBC" d="M62.998 110.05L62.998 120.029 52.212 126.218 52.212 103.611z" transform="translate(54 64)"/>
            <path fill="#E2E2E2" d="M100.321 114.588c4.04 2.202 5.53 7.258 3.325 11.293-2.204 4.036-7.266 5.523-11.306 3.321l-36.163-19.705c-4.04-2.201-5.53-7.257-3.325-11.292 2.204-4.036 7.266-5.523 11.306-3.321l36.163 19.704z" transform="translate(54 64)"/>
            <path fill="#109ED9" d="M121.224 141.438L121.224 184.999 158.311 163.36 158.311 119.456z" transform="translate(54 64)"/>
            <path fill="#F2D021" d="M84.33 163.36L121.102 185 121.102 141.438 84.33 119.456z" transform="translate(54 64)"/>
            <path fill="#78D5F4" d="M84.33 119.456L121.102 141.438 158.311 119.456 121.32 98.065z" transform="translate(54 64)"/>
        </g>
        <g>
            <path fill="#133055" d="M24.237 69.895c.118 1.068.964 1.791 1.887 1.616.925-.176 1.577-1.183 1.459-2.252l-2.946-26.608c-.118-1.069-.963-1.791-1.887-1.616-.924.175-1.577 1.183-1.46 2.252l2.947 26.608zM11.321 69.447c-.137 1.079.493 2.072 1.408 2.218.916.146 1.769-.61 1.907-1.689L18.068 43.1c.138-1.079-.491-2.072-1.407-2.218-.915-.146-1.769.61-1.907 1.689l-3.433 26.877z" transform="translate(0 130)"/>
            <g transform="translate(0 130) translate(25 18)">
                <mask id="t3p0t6f2yf" fill="#fff">
                    <use xlink:href="#4ktnpherie"/>
                </mask>
                <path fill="#003055" d="M-5.043 0.008L11.124 28.622 33.57 15.973 17.403 -12.642z" mask="url(#t3p0t6f2yf)"/>
            </g>
            <g transform="translate(0 130) translate(11 16)">
                <mask id="n8eg4kxu8h" fill="#fff">
                    <use xlink:href="#rwi2xvad6g"/>
                </mask>
                <path fill="#04518C" d="M-2.988 29.92L20.753 29.92 20.753 -2.836 -2.988 -2.836z" mask="url(#n8eg4kxu8h)"/>
            </g>
            <g transform="translate(0 130) translate(15)">
                <mask id="kbnm7buyfj" fill="#fff">
                    <use xlink:href="#ojucwdvx1i"/>
                </mask>
                <path fill="#04518C" d="M-2.822 15.728L11.974 15.728 11.974 -2.872 -2.822 -2.872z" mask="url(#kbnm7buyfj)"/>
            </g>
            <g transform="translate(0 130) translate(0 21)">
                <mask id="8wqe8oe5ol" fill="#fff">
                    <use xlink:href="#qcmd4pldvk"/>
                </mask>
                <path fill="#003055" d="M22.027 30.489L24.337 -2.722 -1.086 -4.632 -3.397 28.578z" mask="url(#8wqe8oe5ol)"/>
            </g>
        </g>
        <g>
            <g transform="translate(223 110) translate(0 18)">
                <mask id="yejz5w1xmn" fill="#fff">
                    <use xlink:href="#dsjuei4fem"/>
                </mask>
                <path fill="#003055" d="M26.79 -2.054L-1.485 -3.469 -2.614 18.265 25.66 19.679z" mask="url(#yejz5w1xmn)"/>
            </g>
            <g transform="translate(223 110) translate(20)">
                <mask id="6n6ovojb6p" fill="#fff">
                    <use xlink:href="#m4k2k5upoo"/>
                </mask>
                <path fill="#04518C" d="M-2.686 14.551L10.244 14.861 10.632 -2.263 -2.297 -2.573z" mask="url(#6n6ovojb6p)"/>
            </g>
            <g transform="translate(223 110) translate(10 34)">
                <mask id="2soyh0ts3r" fill="#fff">
                    <use xlink:href="#bk70jenycq"/>
                </mask>
                <path fill="#003055" d="M13.457 -4.474L-10.572 11.601 1.618 31.05 25.646 14.975z" mask="url(#2soyh0ts3r)"/>
            </g>
            <g transform="translate(223 110) translate(22 34)">
                <mask id="o58rnv9sbt" fill="#fff">
                    <use xlink:href="#x3qjj2crvs"/>
                </mask>
                <path fill="#003055" d="M-14.082 21.238L-0.105 -4.1 20.568 6.747 6.59 32.085z" mask="url(#o58rnv9sbt)"/>
            </g>
            <g transform="translate(223 110) translate(28 17)">
                <mask id="wmhmomfirv" fill="#fff">
                    <use xlink:href="#7632jfl66u"/>
                </mask>
                <path fill="#003055" d="M-14.061 21.388L-0.083 -3.951 20.59 6.897 6.611 32.235z" mask="url(#wmhmomfirv)"/>
            </g>
            <g transform="translate(223 110) translate(15 15)">
                <mask id="iksmqdv20x" fill="#fff">
                    <use xlink:href="#szvevnso8w"/>
                </mask>
                <path fill="#04518C" d="M-2.956 25.118L18.62 25.6 19.298 -2.274 -2.278 -2.755z" mask="url(#iksmqdv20x)"/>
            </g>
        </g>
        <g fill="#FFF">
            <path d="M24.579 62.903C23.573 58.38 19.61 55 14.867 55 9.363 55 4.9 59.546 4.9 65.153c0 .292.02.578.043.863C2.194 66.014 0 68.25 0 71.007 0 73.765 2.194 76 4.9 76h20.633C29.105 76 32 73.05 32 69.412c0-3.639-2.895-6.588-6.467-6.588-.325 0-.642.032-.954.08zM177.028 10.538C175.676 4.507 170.352 0 163.977 0c-7.396 0-13.391 6.06-13.391 13.537 0 .39.025.771.057 1.151-3.695-.003-6.643 2.978-6.643 6.655 0 3.676 2.948 6.657 6.586 6.657h27.724c4.8 0 8.69-3.933 8.69-8.784 0-4.851-3.89-8.784-8.69-8.784-.437 0-.863.043-1.282.106zM357.245 87.549C355.515 79.795 348.705 74 340.552 74c-9.46 0-17.129 7.793-17.129 17.405 0 .5.033.991.074 1.48-4.726-.004-8.497 3.828-8.497 8.556 0 4.727 3.771 8.559 8.423 8.559h35.462c6.139 0 11.115-5.056 11.115-11.294 0-6.237-4.976-11.294-11.115-11.294-.558 0-1.104.056-1.64.137z" transform="translate(11)"/>
        </g>
    </g>
</svg>
