<svg width="112" height="112" viewBox="0 0 112 112" fill="none" xmlns="http://www.w3.org/2000/svg">
<circle cx="56" cy="56" r="56" fill="#F5DE63"/>
<circle cx="56" cy="56" r="14" fill="white"/>
<path d="M23.5 86C23.5 86.8284 24.1716 87.5 25 87.5H38.5C39.3284 87.5 40 86.8284 40 86C40 85.1716 39.3284 84.5 38.5 84.5H26.5V72.5C26.5 71.6716 25.8284 71 25 71C24.1716 71 23.5 71.6716 23.5 72.5V86ZM39.9393 68.9393L23.9393 84.9393L26.0607 87.0607L42.0607 71.0607L39.9393 68.9393Z" fill="black"/>
<path d="M85 87.5C85.8284 87.5 86.5 86.8284 86.5 86V72.5C86.5 71.6716 85.8284 71 85 71C84.1716 71 83.5 71.6716 83.5 72.5V84.5H71.5C70.6716 84.5 70 85.1716 70 86C70 86.8284 70.6716 87.5 71.5 87.5H85ZM67.9393 71.0607L83.9393 87.0607L86.0607 84.9393L70.0607 68.9393L67.9393 71.0607Z" fill="black"/>
<path d="M25 24.5C24.1716 24.5 23.5 25.1716 23.5 26V39.5C23.5 40.3284 24.1716 41 25 41C25.8284 41 26.5 40.3284 26.5 39.5V27.5H38.5C39.3284 27.5 40 26.8284 40 26C40 25.1716 39.3284 24.5 38.5 24.5H25ZM42.0607 40.9393L26.0607 24.9393L23.9393 27.0607L39.9393 43.0607L42.0607 40.9393Z" fill="black"/>
<path d="M86.5 26C86.5 25.1716 85.8284 24.5 85 24.5H71.5C70.6716 24.5 70 25.1716 70 26C70 26.8284 70.6716 27.5 71.5 27.5H83.5V39.5C83.5 40.3284 84.1716 41 85 41C85.8284 41 86.5 40.3284 86.5 39.5V26ZM70.0607 43.0607L86.0607 27.0607L83.9393 24.9393L67.9393 40.9393L70.0607 43.0607Z" fill="black"/>
</svg>
