<svg width="112" height="112" viewBox="0 0 112 112" fill="none" xmlns="http://www.w3.org/2000/svg">
<circle cx="56" cy="56" r="56" fill="#F5DE63"/>
<path fill-rule="evenodd" clip-rule="evenodd" d="M52.4105 40H42.16C38.8463 40 36.16 42.6863 36.16 46V56.9379C34.7665 55.7542 32.9617 55.04 30.99 55.04C26.5772 55.04 23 58.6172 23 63.03C23 67.4428 26.5772 71.02 30.99 71.02C32.9617 71.02 34.7665 70.3058 36.16 69.1221V81C36.16 84.3137 38.8463 87 42.16 87H52.4105C51.6435 85.7733 51.2002 84.3234 51.2002 82.77C51.2002 78.3572 54.7774 74.78 59.1902 74.78C63.6029 74.78 67.1802 78.3572 67.1802 82.77C67.1802 84.3234 66.7369 85.7733 65.9699 87H77.16C80.4737 87 83.16 84.3137 83.16 81V69.1221C84.5535 70.3059 86.3583 71.02 88.33 71.02C92.7428 71.02 96.32 67.4428 96.32 63.03C96.32 58.6172 92.7428 55.04 88.33 55.04C86.3583 55.04 84.5535 55.7542 83.16 56.9379V46C83.16 42.6863 80.4737 40 77.16 40H65.9699C66.7369 41.2267 67.1802 42.6766 67.1802 44.23C67.1802 48.6428 63.6029 52.22 59.1902 52.22C54.7774 52.22 51.2002 48.6428 51.2002 44.23C51.2002 42.6766 51.6435 41.2267 52.4105 40Z" fill="white"/>
<mask id="path-3-outside-1_1167_5860" maskUnits="userSpaceOnUse" x="13" y="30" width="88" height="60" fill="black">
<rect fill="white" x="13" y="30" width="88" height="60"/>
<path fill-rule="evenodd" clip-rule="evenodd" d="M49.2876 35H38C34.6863 35 32 37.6863 32 41V53.019C30.5176 51.7597 28.5975 51 26.5 51C21.8056 51 18 54.8056 18 59.5C18 64.1944 21.8056 68 26.5 68C28.5975 68 30.5176 67.2403 32 65.981V79C32 82.3137 34.6863 85 38 85H49.2876C48.4716 83.695 48 82.1526 48 80.5C48 75.8056 51.8056 72 56.5 72C61.1944 72 65 75.8056 65 80.5C65 82.1526 64.5284 83.695 63.7124 85H76C79.3137 85 82 82.3137 82 79V65.981C83.4824 67.2403 85.4025 68 87.5 68C92.1944 68 96 64.1944 96 59.5C96 54.8056 92.1944 51 87.5 51C85.4025 51 83.4824 51.7597 82 53.019V41C82 37.6863 79.3137 35 76 35H63.7124C64.5284 36.305 65 37.8474 65 39.5C65 44.1944 61.1944 48 56.5 48C51.8056 48 48 44.1944 48 39.5C48 37.8474 48.4716 36.305 49.2876 35Z"/>
</mask>
<path d="M49.2876 35L53.5271 37.6507C54.4908 36.1094 54.542 34.1665 53.661 32.5765C52.7799 30.9866 51.1053 30 49.2876 30V35ZM32 53.019L28.7629 56.8297C30.248 58.0913 32.3308 58.3751 34.0994 57.557C35.8679 56.7388 37 54.9677 37 53.019H32ZM32 65.981H37C37 64.0323 35.8679 62.2612 34.0994 61.4431C32.3308 60.6249 30.248 60.9087 28.7629 62.1703L32 65.981ZM49.2876 85V90C51.1053 90 52.7799 89.0135 53.661 87.4235C54.542 85.8335 54.4908 83.8906 53.5271 82.3493L49.2876 85ZM63.7124 85L59.4729 82.3493C58.5092 83.8906 58.458 85.8335 59.339 87.4235C60.2201 89.0135 61.8947 90 63.7124 90V85ZM82 65.981L85.2371 62.1703C83.752 60.9087 81.6692 60.6249 79.9006 61.443C78.1321 62.2612 77 64.0323 77 65.981H82ZM82 53.019H77C77 54.9677 78.1321 56.7388 79.9006 57.557C81.6692 58.3751 83.752 58.0913 85.2371 56.8297L82 53.019ZM63.7124 35V30C61.8947 30 60.2201 30.9865 59.339 32.5765C58.458 34.1665 58.5092 36.1094 59.4729 37.6507L63.7124 35ZM56.5 48V53V48ZM38 40H49.2876V30H38V40ZM37 41C37 40.4477 37.4477 40 38 40V30C31.9249 30 27 34.9249 27 41H37ZM37 53.019V41H27V53.019H37ZM35.2371 49.2084C32.8848 47.2102 29.8273 46 26.5 46V56C27.3677 56 28.1503 56.3093 28.7629 56.8297L35.2371 49.2084ZM26.5 46C19.0442 46 13 52.0442 13 59.5H23C23 57.567 24.567 56 26.5 56V46ZM13 59.5C13 66.9558 19.0442 73 26.5 73V63C24.567 63 23 61.433 23 59.5H13ZM26.5 73C29.8273 73 32.8848 71.7898 35.2371 69.7917L28.7629 62.1703C28.1503 62.6907 27.3677 63 26.5 63V73ZM37 79V65.981H27V79H37ZM38 80C37.4477 80 37 79.5523 37 79H27C27 85.0751 31.9249 90 38 90V80ZM49.2876 80H38V90H49.2876V80ZM43 80.5C43 83.1169 43.7496 85.5741 45.048 87.6507L53.5271 82.3493C53.1936 81.8159 53 81.1882 53 80.5H43ZM56.5 67C49.0442 67 43 73.0442 43 80.5H53C53 78.567 54.567 77 56.5 77V67ZM70 80.5C70 73.0442 63.9558 67 56.5 67V77C58.433 77 60 78.567 60 80.5H70ZM67.952 87.6507C69.2504 85.5741 70 83.1169 70 80.5H60C60 81.1882 59.8064 81.8159 59.4729 82.3493L67.952 87.6507ZM76 80H63.7124V90H76V80ZM77 79C77 79.5523 76.5523 80 76 80V90C82.0751 90 87 85.0751 87 79H77ZM77 65.981V79H87V65.981H77ZM78.7629 69.7916C81.1152 71.7898 84.1727 73 87.5 73V63C86.6323 63 85.8497 62.6907 85.2371 62.1703L78.7629 69.7916ZM87.5 73C94.9558 73 101 66.9558 101 59.5H91C91 61.433 89.433 63 87.5 63V73ZM101 59.5C101 52.0442 94.9558 46 87.5 46V56C89.433 56 91 57.567 91 59.5H101ZM87.5 46C84.1727 46 81.1152 47.2102 78.7629 49.2084L85.2371 56.8297C85.8497 56.3093 86.6323 56 87.5 56V46ZM77 41V53.019H87V41H77ZM76 40C76.5523 40 77 40.4477 77 41H87C87 34.9249 82.0751 30 76 30V40ZM63.7124 40H76V30H63.7124V40ZM70 39.5C70 36.8831 69.2504 34.4259 67.952 32.3493L59.4729 37.6507C59.8064 38.1841 60 38.8118 60 39.5H70ZM56.5 53C63.9558 53 70 46.9558 70 39.5H60C60 41.433 58.433 43 56.5 43V53ZM43 39.5C43 46.9558 49.0442 53 56.5 53V43C54.567 43 53 41.433 53 39.5H43ZM45.048 32.3493C43.7496 34.4259 43 36.8831 43 39.5H53C53 38.8118 53.1936 38.1841 53.5271 37.6507L45.048 32.3493Z" fill="black" mask="url(#path-3-outside-1_1167_5860)"/>
</svg>
