<svg width="112" height="112" viewBox="0 0 112 112" fill="none" xmlns="http://www.w3.org/2000/svg">
<circle cx="56" cy="56" r="56" fill="#F5DE63"/>
<circle cx="60" cy="60" r="32" fill="white"/>
<circle cx="56" cy="56" r="38.5" stroke="black" stroke-width="5"/>
<path fill-rule="evenodd" clip-rule="evenodd" d="M41.6626 43.7541C42.7116 44.9504 42.6137 46.7899 41.444 47.8628L32.5594 56.0115L41.3262 63.2131C42.5511 64.2193 42.7466 66.0507 41.7627 67.3035C40.7788 68.5563 38.9881 68.7561 37.7632 67.7499L26.3837 58.402C25.7325 57.8671 25.3441 57.0665 25.3214 56.2126C25.2987 55.3588 25.644 54.5378 26.2658 53.9675L37.6453 43.5306C38.815 42.4577 40.6136 42.5578 41.6626 43.7541Z" fill="black"/>
<path fill-rule="evenodd" clip-rule="evenodd" d="M69.7361 67.4599C68.6288 66.3079 68.7321 64.5365 69.9668 63.5035L79.345 55.6566L70.0912 48.7217C68.7982 47.7527 68.5919 45.9892 69.6305 44.7828C70.6691 43.5764 72.5592 43.3839 73.8522 44.3529L85.8639 53.3545C86.5512 53.8697 86.9613 54.6406 86.9852 55.4628C87.0092 56.2851 86.6446 57.0756 85.9883 57.6248L73.9766 67.6752C72.7419 68.7083 70.8434 68.6119 69.7361 67.4599Z" fill="black"/>
<path fill-rule="evenodd" clip-rule="evenodd" d="M65.1413 38.2921C66.5734 39.0056 67.1559 40.7451 66.4423 42.1772L51.8018 71.5601C51.0883 72.9923 49.3488 73.5748 47.9167 72.8612C46.4846 72.1476 45.9021 70.4082 46.6157 68.9761L61.2562 39.5931C61.9697 38.161 63.7092 37.5785 65.1413 38.2921Z" fill="black"/>
</svg>
