<?xml version="1.0" encoding="UTF-8"?>
<svg width="74px" height="52px" viewBox="0 0 74 52" version="1.1" xmlns="http://www.w3.org/2000/svg" xmlns:xlink="http://www.w3.org/1999/xlink">
    <!-- Generator: Sketch 54.1 (76490) - https://sketchapp.com -->
    <title>Group 14</title>
    <desc>Created with Sketch.</desc>
    <defs>
        <path d="M12.9472607,10.0212465 L11.2463118,15.8405078 C10.6315055,17.9431044 9.50351745,19.870179 7.95661501,21.4617915 L7.95661501,21.4617915 L4.19650168,25.3310641 C-5.68086585,35.4985024 4.76026577,51.764754 18.5389176,47.6755061 L18.5389176,47.6755061 L22.0005946,46.6494134 C24.6805433,45.8520032 27.5453478,45.8520032 30.2271358,46.6494134 L30.2271358,46.6494134 L34.689885,47.9720144 C48.3986411,52.0406396 58.8508089,35.9379946 49.1256484,25.7274778 L49.1256484,25.7274778 L44.9650143,21.3582198 C43.5109996,19.8330582 42.4386522,18.0068055 41.8266049,16.0178629 L41.8266049,16.0178629 L39.9247058,9.83976692 C37.92716,3.35187254 32.1970913,0.118236685 26.4679422,0.118236685 L26.4679422,0.118236685 C20.6707368,0.119153249 14.874451,3.42932215 12.9472607,10.0212465 L12.9472607,10.0212465 Z" id="path-1"></path>
        <polygon id="path-3" points="0 0.248713096 36.1292317 0.248713096 36.1292317 39.5131789 0 39.5131789"></polygon>
        <polygon id="path-5" points="0.355420758 0.255127273 8.11610758 0.255127273 8.11610758 7.99985455 0.355420758 7.99985455"></polygon>
        <polygon id="path-7" points="0.355420758 0.180144 8.11610758 0.180144 8.11610758 7.848144 0.355420758 7.848144"></polygon>
        <polygon id="path-9" points="0.355420758 0.107352 8.11610758 0.107352 8.11610758 7.775352 0.355420758 7.775352"></polygon>
    </defs>
    <g id="final" stroke="none" stroke-width="1" fill="none" fill-rule="evenodd">
        <g id="Maestro" transform="translate(-168.000000, -782.000000)">
            <g id="Group-14" transform="translate(162.000000, 767.000000)">
                <g id="Page-1" transform="translate(36.348983, 36.860492) rotate(48.000000) translate(-36.348983, -36.860492) translate(9.848983, 12.360492)">
                    <g id="Group-3">
                        <mask id="mask-2" fill="white">
                            <use xlink:href="#path-1"></use>
                        </mask>
                        <g id="Clip-2"></g>
                        <polygon id="Fill-1" fill="#F2D021" mask="url(#mask-2)" points="-4.59840202 53.5048497 57.8272046 53.5048497 57.8272046 -4.76842135 -4.59840202 -4.76842135"></polygon>
                    </g>
                </g>
                <g id="Group-13" transform="translate(32.000000, 18.000000)">
                    <g id="Group-3" transform="translate(0.000000, 2.640000)">
                        <mask id="mask-4" fill="white">
                            <use xlink:href="#path-3"></use>
                        </mask>
                        <g id="Clip-2"></g>
                        <path d="M36.1284983,19.8783034 C36.1270315,19.9320996 36.1233646,19.9858958 36.1123636,20.0374506 C36.1035628,20.0800392 36.0896283,20.1203864 36.0756938,20.1599864 C36.0712934,20.1741826 36.0683598,20.189126 36.063226,20.2018279 C36.0456245,20.2459109 36.0221559,20.2855109 35.9986872,20.3243638 C35.99282,20.334077 35.9898864,20.3445374 35.9840192,20.3535034 C35.9524832,20.4013223 35.9172802,20.4454053 35.8769434,20.4857525 L32.2062946,24.2223487 C32.0383468,24.3927034 31.8183279,24.4793751 31.598309,24.4793751 C31.3775567,24.4793751 31.1568044,24.3927034 30.9881232,24.2208543 C30.6522277,23.8764091 30.6536945,23.3197675 30.9903234,22.9775638 L33.1853787,20.7427789 L7.72332377,20.7360543 C7.58911223,21.3367789 7.32288935,21.8859487 6.95399098,22.3499411 L33.4780039,34.6528392 L32.2818344,31.989926 C32.083084,31.5490958 32.2730336,31.026077 32.7050041,30.823594 C33.1362412,30.6211109 33.6481518,30.8146279 33.8461688,31.2562053 L36.0052877,36.0620015 C36.0089547,36.0702204 36.0111549,36.0806808 36.0148219,36.0896468 C36.0258228,36.1180392 36.035357,36.1471789 36.0441577,36.1763185 C36.0522251,36.2017223 36.0588257,36.2263789 36.0639594,36.2525298 C36.07056,36.2831638 36.0734936,36.3130506 36.0764272,36.3436845 C36.0786274,36.3690883 36.081561,36.3944921 36.081561,36.420643 C36.081561,36.4520242 36.0793608,36.4826581 36.0756938,36.5140392 C36.0734936,36.5401902 36.0712934,36.565594 36.0661596,36.5924921 C36.0602925,36.6223789 36.0522251,36.6515185 36.0434243,36.6806581 C36.0375572,36.6985902 36.035357,36.7172694 36.0287564,36.7344543 C36.0272896,36.7396845 36.0228892,36.7434204 36.0206891,36.7486506 C36.0155553,36.7620996 36.0126217,36.777043 36.0060211,36.7912392 C35.9678845,36.8771638 35.9165468,36.9526279 35.8571417,37.019126 C35.8468741,37.0295864 35.8351398,37.0363109 35.8256056,37.0460242 C35.7625335,37.1095336 35.6906607,37.1610883 35.6136541,37.2021826 C35.6004529,37.2089072 35.5923856,37.2201147 35.5791844,37.2268392 L30.8399771,39.4332317 C30.7241005,39.4877751 30.6030901,39.5131789 30.4835465,39.5131789 C30.1557183,39.5131789 29.8440249,39.3219034 29.6995458,38.9976317 C29.5029956,38.5568015 29.6936786,38.0345298 30.1263825,37.8335411 L33.1443085,36.4288619 L5.36838804,23.5454128 C4.91734928,23.7307109 4.42670711,23.8338204 3.91186286,23.8338204 C1.75494416,23.8338204 -7.33396364e-05,22.0495789 -7.33396364e-05,19.8551411 C-7.33396364e-05,17.6621977 1.75494416,15.8772091 3.91186286,15.8772091 C4.42377353,15.8772091 4.9129489,15.9803185 5.36105408,16.1633751 L33.1406415,3.33222792 L30.1263825,1.92904302 C29.6936786,1.72730717 29.5029956,1.20578264 29.6995458,0.763458113 C29.8975628,0.321880755 30.4080067,0.126869434 30.8407105,0.327858113 L35.5799178,2.53499774 C35.5865184,2.53798642 35.5909188,2.54396377 35.5960526,2.54695245 C35.6862603,2.59103547 35.7691341,2.65080906 35.8395402,2.72552604 C35.8483409,2.73449208 35.8556749,2.74420528 35.8644756,2.75391849 C35.9202138,2.81817509 35.9715515,2.88915623 36.0082213,2.97283925 C36.0140885,2.98554113 36.0162887,2.99973736 36.0221559,3.01318642 C36.0236226,3.0184166 36.0287564,3.02215245 36.0302232,3.02812981 C36.0375572,3.04606189 36.0397574,3.0654883 36.0448911,3.08342038 C36.0529585,3.11330717 36.0617593,3.14169962 36.066893,3.17083925 C36.0720268,3.19699019 36.0749604,3.2238883 36.0771606,3.25003925 C36.0800942,3.28142038 36.0830278,3.31130717 36.0830278,3.34194113 C36.0830278,3.36809208 36.0800942,3.39424302 36.0771606,3.42039396 C36.074227,3.45102792 36.0712934,3.48091472 36.0646928,3.51005434 C36.0595591,3.53620528 36.0522251,3.56235623 36.0441577,3.58776 C36.035357,3.61615245 36.0265562,3.64454491 36.0155553,3.67293736 C36.0118883,3.6819034 36.0104215,3.6916166 36.0060211,3.70132981 L33.8469022,8.50637887 C33.7024232,8.82840906 33.3899963,9.01893736 33.0636349,9.01893736 C32.9433579,9.01893736 32.8216141,8.99353358 32.7057375,8.93824302 C32.2730336,8.73576 32.0838174,8.2134883 32.2818344,7.77191094 L33.4809375,5.10451472 L6.95252419,17.359594 C7.32215595,17.8243336 7.58911223,18.3749977 7.72405716,18.9764694 L33.1839119,18.983194 L30.9756555,16.73496 C30.6390265,16.3920091 30.6382931,15.8353675 30.9734553,15.4916694 C31.3093508,15.1472242 31.8542643,15.146477 32.1916266,15.4894279 L35.8769434,19.2402204 C35.9172802,19.2820619 35.9532166,19.3261449 35.9840192,19.3732166 C35.9920866,19.3851713 35.9957536,19.3978732 36.0030875,19.4098279 C36.0250894,19.4464392 36.0470913,19.4845449 36.063226,19.5241449 C36.0712934,19.5428242 36.0749604,19.5622506 36.0808276,19.5801826 C36.0918285,19.6152996 36.105763,19.6511638 36.113097,19.6892694 C36.1233646,19.7460543 36.1292317,19.8043336 36.1292317,19.86336 C36.1292317,19.8685902 36.1284983,19.8730732 36.1284983,19.8783034 Z" id="Fill-1" fill="#003055" mask="url(#mask-4)"></path>
                    </g>
                    <g id="Group-6" transform="translate(39.289091, 35.200000)">
                        <mask id="mask-6" fill="white">
                            <use xlink:href="#path-5"></use>
                        </mask>
                        <g id="Clip-5"></g>
                        <path d="M4.23558227,7.99985455 C2.09650955,7.99985455 0.355420758,6.2624 0.355420758,4.12712727 C0.355420758,1.99185455 2.09650955,0.255127273 4.23558227,0.255127273 C6.37538258,0.255127273 8.11647136,1.99185455 8.11647136,4.12712727 C8.11647136,6.2624 6.37538258,7.99985455 4.23558227,7.99985455" id="Fill-4" fill="#003055" mask="url(#mask-6)"></path>
                    </g>
                    <g id="Group-9" transform="translate(39.289091, 17.600000)">
                        <mask id="mask-8" fill="white">
                            <use xlink:href="#path-7"></use>
                        </mask>
                        <g id="Clip-8"></g>
                        <path d="M4.23558227,7.848144 C2.09650955,7.848144 0.355420758,6.127344 0.355420758,4.014144 C0.355420758,1.900224 2.09650955,0.180144 4.23558227,0.180144 C6.37538258,0.180144 8.11647136,1.900224 8.11647136,4.014144 C8.11647136,6.127344 6.37538258,7.848144 4.23558227,7.848144" id="Fill-7" fill="#003055" mask="url(#mask-8)"></path>
                    </g>
                    <g id="Group-12" transform="translate(39.289091, 0.000000)">
                        <mask id="mask-10" fill="white">
                            <use xlink:href="#path-9"></use>
                        </mask>
                        <g id="Clip-11"></g>
                        <path d="M4.23558227,7.775352 C2.09650955,7.775352 0.355420758,6.055272 0.355420758,3.941352 C0.355420758,1.827432 2.09650955,0.107352 4.23558227,0.107352 C6.37538258,0.107352 8.11647136,1.827432 8.11647136,3.941352 C8.11647136,6.055272 6.37538258,7.775352 4.23558227,7.775352" id="Fill-10" fill="#003055" mask="url(#mask-10)"></path>
                    </g>
                </g>
            </g>
        </g>
    </g>
</svg>