<?xml version="1.0" encoding="UTF-8"?>
<svg width="76px" height="68px" viewBox="0 0 76 68" version="1.1" xmlns="http://www.w3.org/2000/svg" xmlns:xlink="http://www.w3.org/1999/xlink">
    <!-- Generator: Sketch 49.3 (51167) - http://www.bohemiancoding.com/sketch -->
    <title>Page 1</title>
    <desc>Created with Sketch.</desc>
    <defs></defs>
    <g id="final" stroke="none" stroke-width="1" fill="none" fill-rule="evenodd">
        <g id="Song" transform="translate(-168.000000, -834.000000)">
            <g id="Page-1" transform="translate(168.000000, 834.000000)">
                <path d="M70.4676906,0.832694645 C72.6147521,-1.04637463 76,0.460942977 76,3.29647266 C76,15.6326975 76,24.8848661 76,31.0529785 C76,37.1990375 76,46.418126 76,58.7102439 C76,60.5271494 74.5103166,62 72.6726461,62 L9.33402213,62 C6.27061553,62 4.83509111,58.2535556 7.1290666,56.2464659 L70.4676906,0.832694645 Z" id="Fill-1" fill="#F2D03A"></path>
                <path d="M5,68 C2.23875,68 0,65.7376842 0,62.9473684 L0,49.0526316 C0,46.2623158 2.23875,44 5,44 C7.76125,44 10,46.2623158 10,49.0526316 L10,62.9473684 C10,65.7376842 7.76125,68 5,68" id="Fill-3" fill="#003055"></path>
                <path d="M30.5,68 C28.014875,68 26,65.7956923 26,63.0769231 L26,28.9230769 C26,26.2043077 28.014875,24 30.5,24 C32.985125,24 35,26.2043077 35,28.9230769 L35,63.0769231 C35,65.7956923 32.985125,68 30.5,68" id="Fill-5" fill="#003055"></path>
                <path d="M53,68 C50.23875,68 48,65.784808 48,63.0526143 L48,8.94738571 C48,6.21519195 50.23875,4 53,4 C55.76125,4 58,6.21519195 58,8.94738571 L58,63.0526143 C58,65.784808 55.76125,68 53,68" id="Fill-7" fill="#003055"></path>
            </g>
        </g>
    </g>
</svg>