<svg width="60" height="60" viewBox="0 0 60 60" fill="none" xmlns="http://www.w3.org/2000/svg">
<circle cx="30" cy="30" r="30" fill="#F5DE63"/>
<circle cx="33.1507" cy="33.6566" r="9.99398" fill="white"/>
<path fill-rule="evenodd" clip-rule="evenodd" d="M26.322 9.59918C26.3529 9.25983 26.6374 9 26.9781 9H33.0219C33.3626 9 33.6472 9.25983 33.678 9.59918L34.043 13.6137C35.7143 14.0279 37.2875 14.6904 38.7214 15.5599L41.8248 12.9737C42.0866 12.7556 42.4715 12.773 42.7125 13.014L46.986 17.2876C47.227 17.5285 47.2444 17.9134 47.0263 18.1752L44.4401 21.2786C45.3096 22.7125 45.9721 24.2857 46.3863 25.957L50.4008 26.322C50.7402 26.3529 51 26.6374 51 26.9781V33.0219C51 33.3626 50.7402 33.6472 50.4008 33.678L46.4069 34.0411C45.9988 35.7252 45.3388 37.3109 44.469 38.756L47.0263 41.8248C47.2444 42.0866 47.227 42.4715 46.986 42.7125L42.7125 46.986C42.4715 47.227 42.0866 47.2444 41.8248 47.0263L38.7785 44.4877C37.3272 45.3756 35.7317 46.051 34.0353 46.4705L33.678 50.4008C33.6472 50.7402 33.3626 51 33.0219 51H26.9781C26.6374 51 26.3529 50.7402 26.322 50.4008L25.9666 46.4911C24.2573 46.0778 22.6494 45.4049 21.1867 44.5167L18.1752 47.0263C17.9134 47.2444 17.5285 47.227 17.2875 46.986L13.014 42.7124C12.773 42.4715 12.7556 42.0866 12.9737 41.8248L15.4833 38.8133C14.5951 37.3506 13.9222 35.7427 13.5089 34.0334L9.59918 33.678C9.25983 33.6472 9 33.3626 9 33.0219L9 26.9781C9 26.6374 9.25983 26.3529 9.59918 26.322L13.5295 25.9647C13.949 24.2683 14.6244 22.6728 15.5123 21.2215L12.9737 18.1752C12.7556 17.9134 12.773 17.5285 13.014 17.2875L17.2875 13.014C17.5285 12.773 17.9134 12.7556 18.1752 12.9737L21.244 15.5311C22.6891 14.6612 24.2748 14.0012 25.9589 13.5931L26.322 9.59918ZM40.6235 30.0412C40.6235 35.9311 35.8488 40.7059 29.9588 40.7059C24.0689 40.7059 19.2941 35.9311 19.2941 30.0412C19.2941 24.1512 24.0689 19.3765 29.9588 19.3765C35.8488 19.3765 40.6235 24.1512 40.6235 30.0412Z" fill="black"/>
</svg>
