<?xml version="1.0" encoding="UTF-8"?>
<svg width="47px" height="44px" viewBox="0 0 47 44" version="1.1" xmlns="http://www.w3.org/2000/svg" xmlns:xlink="http://www.w3.org/1999/xlink">
    <!-- Generator: Sketch 49.3 (51167) - http://www.bohemiancoding.com/sketch -->
    <title>Page 1</title>
    <desc>Created with Sketch.</desc>
    <defs>
        <polygon id="path-1" points="-5.56962025e-05 0.162867848 38.3595899 0.162867848 38.3595899 15.5949367 -5.56962025e-05 15.5949367"></polygon>
        <polygon id="path-3" points="0 0.162867848 38.3595899 0.162867848 38.3595899 15.5950501 0 15.5950501"></polygon>
    </defs>
    <g id="final" stroke="none" stroke-width="1" fill="none" fill-rule="evenodd">
        <g id="Homepage-NEW" transform="translate(-1207.000000, -839.000000)">
            <g id="Group-14" transform="translate(103.000000, 712.000000)">
                <g id="Page-1" transform="translate(1104.000000, 127.000000)">
                    <path d="M43.6672224,42.8860759 L9.80141031,42.8860759 C8.69939529,42.8860759 7.79746835,41.9911291 7.79746835,40.8973053 L7.79746835,30.393834 C7.79746835,29.3000101 8.69939529,28.4050633 9.80141031,28.4050633 L43.6672224,28.4050633 C44.7692374,28.4050633 45.6708861,29.3000101 45.6708861,30.393834 L45.6708861,40.8973053 C45.6708861,41.9911291 44.7692374,42.8860759 43.6672224,42.8860759" id="Fill-1" fill="#00528B"></path>
                    <g id="Group-5" transform="translate(7.797468, 27.848101)">
                        <mask id="mask-2" fill="white">
                            <use xlink:href="#path-1"></use>
                        </mask>
                        <g id="Clip-4"></g>
                        <path d="M1.88553924,0.729956456 C1.09938734,0.729956456 0.459716456,1.51849316 0.459716456,2.48764759 L0.459716456,13.2699868 C0.459716456,14.2394248 1.09938734,15.0279615 1.88553924,15.0279615 L36.4739949,15.0279615 C37.2601468,15.0279615 37.8995392,14.2394248 37.8995392,13.2699868 L37.8995392,2.48764759 C37.8995392,1.51849316 37.2601468,0.729956456 36.4739949,0.729956456 L1.88553924,0.729956456 Z M36.4739949,15.5950501 L1.88553924,15.5950501 C0.84596962,15.5950501 -5.56962025e-05,14.5518906 -5.56962025e-05,13.2699868 L-5.56962025e-05,2.48764759 C-5.56962025e-05,1.2057438 0.84596962,0.162867848 1.88553924,0.162867848 L36.4739949,0.162867848 C37.513843,0.162867848 38.3595899,1.2057438 38.3595899,2.48764759 L38.3595899,13.2699868 C38.3595899,14.5518906 37.513843,15.5950501 36.4739949,15.5950501 Z" id="Fill-3" fill="#FFFFFF" mask="url(#mask-2)"></path>
                    </g>
                    <path d="M18.9367089,35.3669501 C18.9367089,37.6739131 17.0665951,39.5443038 14.7593552,39.5443038 C12.4523922,39.5443038 10.5822785,37.6739131 10.5822785,35.3669501 C10.5822785,33.0599871 12.4523922,31.1898734 14.7593552,31.1898734 C17.0665951,31.1898734 18.9367089,33.0599871 18.9367089,35.3669501" id="Fill-6" fill="#04A0D8"></path>
                    <path d="M39.8754268,36.7594937 L23.6185223,36.7594937 C22.8814439,36.7594937 22.278481,36.1329692 22.278481,35.3670886 C22.278481,34.601208 22.8814439,33.9746835 23.6185223,33.9746835 L39.8754268,33.9746835 C40.6122269,33.9746835 41.2151899,34.601208 41.2151899,35.3670886 C41.2151899,36.1329692 40.6122269,36.7594937 39.8754268,36.7594937" id="Fill-8" fill="#04A0D8"></path>
                    <path d="M43.6672224,27.8481013 L9.80141031,27.8481013 C8.69939529,27.8481013 7.79746835,26.9531545 7.79746835,25.8593306 L7.79746835,15.3558593 C7.79746835,14.2620354 8.69939529,13.3670886 9.80141031,13.3670886 L43.6672224,13.3670886 C44.7692374,13.3670886 45.6708861,14.2620354 45.6708861,15.3558593 L45.6708861,25.8593306 C45.6708861,26.9531545 44.7692374,27.8481013 43.6672224,27.8481013" id="Fill-10" fill="#00528B"></path>
                    <path d="M9.68654028,13.9196912 C8.89893874,13.9196912 8.25808831,14.6880851 8.25808831,15.6327593 L8.25808831,26.1393926 C8.25808831,27.0840668 8.89893874,27.8524607 9.68654028,27.8524607 L44.3387762,27.8524607 C45.1263777,27.8524607 45.7669491,27.0840668 45.7669491,26.1393926 L45.7669491,15.6327593 C45.7669491,14.6880851 45.1263777,13.9196912 44.3387762,13.9196912 L9.68654028,13.9196912 Z M44.3387762,28.4050633 L9.68654028,28.4050633 C8.64505372,28.4050633 7.79746835,27.3885508 7.79746835,26.1393926 L7.79746835,15.6327593 C7.79746835,14.3833248 8.64505372,13.3670886 9.68654028,13.3670886 L44.3387762,13.3670886 C45.3805417,13.3670886 46.2278481,14.3833248 46.2278481,15.6327593 L46.2278481,26.1393926 C46.2278481,27.3885508 45.3805417,28.4050633 44.3387762,28.4050633 Z" id="Fill-12" fill="#FFFFFF"></path>
                    <path d="M18.9367089,20.8859374 C18.9367089,23.1929004 17.0665951,25.0632911 14.7593552,25.0632911 C12.4523922,25.0632911 10.5822785,23.1929004 10.5822785,20.8859374 C10.5822785,18.5789745 12.4523922,16.7088608 14.7593552,16.7088608 C17.0665951,16.7088608 18.9367089,18.5789745 18.9367089,20.8859374" id="Fill-14" fill="#04A0D8"></path>
                    <path d="M39.8754268,22.278481 L23.6185223,22.278481 C22.8814439,22.278481 22.278481,21.6519566 22.278481,20.8860759 C22.278481,20.1201953 22.8814439,19.4936709 23.6185223,19.4936709 L39.8754268,19.4936709 C40.6122269,19.4936709 41.2151899,20.1201953 41.2151899,20.8860759 C41.2151899,21.6519566 40.6122269,22.278481 39.8754268,22.278481" id="Fill-16" fill="#04A0D8"></path>
                    <path d="M35.869754,15.0379747 L2.00394196,15.0379747 C0.90192694,15.0379747 0,14.1430279 0,13.049204 L0,2.5457327 C0,1.45190883 0.90192694,0.556962025 2.00394196,0.556962025 L35.869754,0.556962025 C36.9717691,0.556962025 37.8734177,1.45190883 37.8734177,2.5457327 L37.8734177,13.049204 C37.8734177,14.1430279 36.9717691,15.0379747 35.869754,15.0379747" id="Fill-18" fill="#00528B"></path>
                    <g id="Group-22">
                        <mask id="mask-4" fill="white">
                            <use xlink:href="#path-3"></use>
                        </mask>
                        <g id="Clip-21"></g>
                        <path d="M1.88553924,0.729956456 C1.09938734,0.729956456 0.459716456,1.51849316 0.459716456,2.48793114 L0.459716456,13.2699868 C0.459716456,14.2394248 1.09938734,15.0279615 1.88553924,15.0279615 L36.4739949,15.0279615 C37.2601468,15.0279615 37.8995392,14.2394248 37.8995392,13.2699868 L37.8995392,2.48793114 C37.8995392,1.51849316 37.2601468,0.729956456 36.4739949,0.729956456 L1.88553924,0.729956456 Z M36.4739949,15.5950501 L1.88553924,15.5950501 C0.84596962,15.5950501 -5.56962025e-05,14.5521742 -5.56962025e-05,13.2699868 L-5.56962025e-05,2.48793114 C-5.56962025e-05,1.2057438 0.84596962,0.162867848 1.88553924,0.162867848 L36.4739949,0.162867848 C37.513843,0.162867848 38.3595899,1.2057438 38.3595899,2.48793114 L38.3595899,13.2699868 C38.3595899,14.5521742 37.513843,15.5950501 36.4739949,15.5950501 Z" id="Fill-20" fill="#FFFFFF" mask="url(#mask-4)"></path>
                    </g>
                    <path d="M11.1392405,7.51884884 C11.1392405,9.82581181 9.26912679,11.6962025 6.96188681,11.6962025 C4.65492384,11.6962025 2.78481013,9.82581181 2.78481013,7.51884884 C2.78481013,5.21188587 4.65492384,3.34177215 6.96188681,3.34177215 C9.26912679,3.34177215 11.1392405,5.21188587 11.1392405,7.51884884" id="Fill-23" fill="#04A0D8"></path>
                    <path d="M32.6349205,9.46835443 L16.378016,9.46835443 C15.6409376,9.46835443 15.0379747,8.84176492 15.0379747,8.07609394 C15.0379747,7.31013381 15.6409376,6.6835443 16.378016,6.6835443 L32.6349205,6.6835443 C33.3717206,6.6835443 33.9746835,7.31013381 33.9746835,8.07609394 C33.9746835,8.84176492 33.3717206,9.46835443 32.6349205,9.46835443" id="Fill-25" fill="#04A0D8"></path>
                </g>
            </g>
        </g>
    </g>
</svg>