<?xml version="1.0" encoding="UTF-8"?>
<svg width="76px" height="66px" viewBox="0 0 76 66" version="1.1" xmlns="http://www.w3.org/2000/svg" xmlns:xlink="http://www.w3.org/1999/xlink">
    <!-- Generator: Sketch 49.3 (51167) - http://www.bohemiancoding.com/sketch -->
    <title>Page 1</title>
    <desc>Created with Sketch.</desc>
    <defs>
        <polygon id="path-1" points="60.6501642 0.280770927 60.6501642 60.9977827 0.306531053 60.9977827 0.306531053 0.280770927"></polygon>
        <polygon id="path-3" points="32.6486789 0.145159647 0 0.145159647 0 65.7662073 32.6486789 65.7662073 65.2973578 65.7662073 65.2973578 0.145159647"></polygon>
    </defs>
    <g id="final" stroke="none" stroke-width="1" fill="none" fill-rule="evenodd">
        <g id="Song" transform="translate(-926.000000, -836.000000)">
            <g id="Page-1" transform="translate(926.000000, 836.000000)">
                <g id="Group-3" transform="translate(15.000000, 1.000000)">
                    <mask id="mask-2" fill="white">
                        <use xlink:href="#path-1"></use>
                    </mask>
                    <g id="Clip-2"></g>
                    <path d="M60.6503423,30.6392768 C60.6503423,13.8724734 47.1417212,0.280770927 30.4787335,0.280770927 C13.8151521,0.280770927 0.306531053,13.8724734 0.306531053,30.6392768 C0.306531053,47.4060803 13.8151521,60.9977827 30.4787335,60.9977827 C47.1417212,60.9977827 60.6503423,47.4060803 60.6503423,30.6392768" id="Fill-1" fill="#F2D03A" mask="url(#mask-2)"></path>
                </g>
                <g id="Group-6">
                    <mask id="mask-4" fill="white">
                        <use xlink:href="#path-3"></use>
                    </mask>
                    <g id="Clip-5"></g>
                    <path d="M32.6489442,65.7662073 C14.6465369,65.7662073 -5.8956631e-05,51.0476116 -5.8956631e-05,32.9559797 C-5.8956631e-05,14.8643478 14.6465369,0.145159647 32.6489442,0.145159647 C35.2536481,0.145159647 37.3654747,2.26745293 37.3654747,4.88506648 C37.3654747,7.50268003 35.2536481,9.62497331 32.6489442,9.62497331 C19.8476909,9.62497331 9.43300201,20.0912801 9.43300201,32.9559797 C9.43300201,45.8206793 19.8476909,56.2863936 32.6489442,56.2863936 C45.4501975,56.2863936 55.8642968,45.8206793 55.8642968,32.9559797 C55.8642968,28.6610316 54.6951868,24.4656216 52.483134,20.8235957 C51.1253628,18.5887296 51.8275363,15.6719095 54.0513804,14.3080013 C56.2758141,12.9429081 59.178249,13.6503392 60.5342515,15.8846128 C63.6501095,21.0149694 65.2973578,26.9185234 65.2973578,32.9559797 C65.2973578,51.0476116 50.6513515,65.7662073 32.6489442,65.7662073" id="Fill-4" fill="#003055" mask="url(#mask-4)"></path>
                </g>
                <path d="M31.6360351,50 L18.3784943,36.749303 C16.5405999,34.9128637 16.5405999,31.9354101 18.3779062,30.0989709 C20.2158006,28.2619437 23.1946598,28.2619437 25.031966,30.098383 L31.6360351,36.698748 L52.9679605,15.3768886 C54.8058549,13.5410371 57.7841259,13.5410371 59.6220203,15.3768886 C61.4593266,17.2139157 61.4593266,20.1907814 59.6220203,22.0278085 L31.6360351,50 Z" id="Fill-7" fill="#003055"></path>
            </g>
        </g>
    </g>
</svg>