<svg width="60" height="60" viewBox="0 0 60 60" fill="none" xmlns="http://www.w3.org/2000/svg">
<circle cx="30" cy="30" r="30" fill="#F5DE63"/>
<path fill-rule="evenodd" clip-rule="evenodd" d="M38.6181 28.2299C37.4135 23.8496 33.7726 20.6663 29.468 20.6663C24.181 20.6663 19.895 25.4687 19.895 31.3927C19.895 31.7211 19.9081 32.046 19.9339 32.3668C17.6862 33.1164 16.0658 35.2376 16.0658 37.7372C16.0658 40.8631 18.5998 43.3972 21.7257 43.3972H44.8689C47.9947 43.3972 50.5288 40.8631 50.5288 37.7372C50.5288 34.6114 47.9947 32.0773 44.8689 32.0773H44.8264C44.8794 31.7976 44.9073 31.5075 44.9073 31.2101C44.9073 28.9161 43.2476 27.0565 41.2003 27.0565C40.1963 27.0565 39.2856 27.5036 38.6181 28.2299Z" fill="white"/>
<path fill-rule="evenodd" clip-rule="evenodd" d="M35.9525 31.2237L34.5422 26.6471C33.3431 22.7557 29.7169 19.933 25.4391 19.933C20.1794 19.933 15.9156 24.1968 15.9156 29.4565C15.9156 29.7101 15.9255 29.9609 15.9447 30.2085L16.1384 32.6988L13.7107 33.2866C12.1153 33.6729 10.933 35.1142 10.933 36.8244C10.933 38.8346 12.5626 40.4641 14.5728 40.4641H46.2706C48.2808 40.4641 49.9104 38.8346 49.9104 36.8244C49.9104 34.8142 48.2808 33.1846 46.2706 33.1846H41.8018L42.5542 29.6422C42.5809 29.5165 42.5955 29.3838 42.5955 29.2445C42.5955 28.2003 41.7491 27.3539 40.705 27.3539C40.1919 27.3539 39.7316 27.5544 39.3883 27.8877L35.9525 31.2237ZM36.0968 23.0049C33.913 19.4051 29.9569 17 25.4391 17C18.5596 17 12.9826 22.577 12.9826 29.4565C12.9826 29.7861 12.9954 30.1128 13.0205 30.4359C10.1396 31.1335 8 33.7291 8 36.8244C8 40.4544 10.9427 43.3972 14.5728 43.3972H46.2706C49.9006 43.3972 52.8434 40.4544 52.8434 36.8244C52.8434 33.9194 50.9588 31.4545 48.3455 30.5858C47.6933 30.369 46.9956 30.2516 46.2706 30.2516H45.4232C45.4922 29.9268 45.5285 29.5898 45.5285 29.2445C45.5285 28.8991 45.4922 28.5622 45.4232 28.2373C44.9601 26.0568 43.0236 24.4209 40.705 24.4209C40.4664 24.4209 40.2318 24.4382 40.0025 24.4717C38.9764 24.6214 38.0551 25.0941 37.3452 25.7834C37.042 24.7997 36.6203 23.8679 36.0968 23.0049Z" fill="black"/>
</svg>
