<?xml version="1.0" encoding="UTF-8"?>
<svg width="72px" height="58px" viewBox="0 0 72 58" version="1.1" xmlns="http://www.w3.org/2000/svg" xmlns:xlink="http://www.w3.org/1999/xlink">
    <!-- Generator: Sketch 49.3 (51167) - http://www.bohemiancoding.com/sketch -->
    <title>Page 1</title>
    <desc>Created with Sketch.</desc>
    <defs></defs>
    <g id="final" stroke="none" stroke-width="1" fill="none" fill-rule="evenodd">
        <g id="Score" transform="translate(-925.000000, -851.000000)">
            <g id="Page-1" transform="translate(925.000000, 851.000000)">
                <g id="Group-14">
                    <path d="M57.4495654,17.1379471 C56.717974,17.1379471 56.004158,17.2094752 55.3015683,17.3125871 C53.0385,7.40362285 44.123751,0 33.4501891,0 C21.0655267,0 11.0262601,9.95726893 11.0262601,22.2405945 C11.0262601,22.8787738 11.0702304,23.5058059 11.1226205,24.13098 C11.0898767,24.13098 11.0590039,24.1263353 11.0262601,24.1263353 C4.9359026,24.1263353 0,29.0227589 0,35.0627032 C0,41.1035764 4.9359026,46 11.0262601,46 L57.4495654,46 C65.4858435,46 72,39.5392476 72,31.5689735 C72,23.5996284 65.4858435,17.1379471 57.4495654,17.1379471" id="Fill-1" fill="#F2D021"></path>
                    <g id="Group-2" transform="translate(13.000000, 28.000000)" fill="#123154">
                        <g id="Group" transform="translate(0.000000, 1.000000)">
                            <path d="M10.972609,27.6075408 C9.52842311,27.6075408 8.35751462,26.4115969 8.35751462,24.9365326 L8.35751462,2.6710082 C8.35751462,1.1962778 9.52842311,0 10.972609,0 C12.4167948,0 13.5877033,1.1962778 13.5877033,2.6710082 L13.5877033,24.9365326 C13.5877033,26.4115969 12.4167948,27.6075408 10.972609,27.6075408" id="Fill-5"></path>
                            <path d="M10.972609,28.713839 L0.765895755,18.288894 C-0.255298585,17.2455314 -0.255298585,15.5544493 0.765895755,14.5114206 C1.78741698,13.4687258 3.44309858,13.4690597 4.46429292,14.5114206 L10.972609,21.1592262 L17.480925,14.5114206 C18.5024462,13.4687258 20.1581278,13.4687258 21.1796491,14.5114206 C22.2008434,15.5547832 22.2008434,17.2455314 21.1796491,18.288894 L10.972609,28.713839 Z" id="Fill-7"></path>
                        </g>
                        <g id="Group" transform="translate(35.000000, 14.500000) rotate(180.000000) translate(-35.000000, -14.500000) translate(24.000000, 0.000000)">
                            <path d="M10.972609,27.6075408 C9.52842311,27.6075408 8.35751462,26.4115969 8.35751462,24.9365326 L8.35751462,2.6710082 C8.35751462,1.1962778 9.52842311,0 10.972609,0 C12.4167948,0 13.5877033,1.1962778 13.5877033,2.6710082 L13.5877033,24.9365326 C13.5877033,26.4115969 12.4167948,27.6075408 10.972609,27.6075408" id="Fill-5"></path>
                            <path d="M10.972609,28.713839 L0.765895755,18.288894 C-0.255298585,17.2455314 -0.255298585,15.5544493 0.765895755,14.5114206 C1.78741698,13.4687258 3.44309858,13.4690597 4.46429292,14.5114206 L10.972609,21.1592262 L17.480925,14.5114206 C18.5024462,13.4687258 20.1581278,13.4687258 21.1796491,14.5114206 C22.2008434,15.5547832 22.2008434,17.2455314 21.1796491,18.288894 L10.972609,28.713839 Z" id="Fill-7"></path>
                        </g>
                    </g>
                </g>
            </g>
        </g>
    </g>
</svg>