<svg xmlns="http://www.w3.org/2000/svg" width="20" height="20" viewBox="0 0 20 20">
    <path fill="#AEAFB3" fill-rule="evenodd" d="M16.998 18c0 .367-.255.664-.57.664H6.51c-.314 0-.57-.297-.57-.664V6.429c0-.367.256-.665.57-.665h9.919c.314 0 .569.298.569.665V18zM3.094 14.221c-.524 0-.95-.495-.95-1.107V2.443c-.003-.608.417-1.103.938-1.107h9.159c.524 0 .949.495.949 1.107v2H6.51c-.936.011-1.692.894-1.702 1.986v7.792H3.094zm13.335-9.778h-2.094v-2c0-1.35-.938-2.443-2.094-2.443H3.094C1.937 0 1 1.094 1 2.443v10.671c.003 1.348.939 2.44 2.094 2.443h1.714V18c.003 1.097.762 1.988 1.702 2h9.919c.945-.004 1.71-.897 1.714-2V6.429c-.01-1.098-.774-1.982-1.714-1.986z"/>
</svg>
