<?xml version="1.0" encoding="UTF-8"?>
<svg width="82px" height="62px" viewBox="0 0 82 62" version="1.1" xmlns="http://www.w3.org/2000/svg" xmlns:xlink="http://www.w3.org/1999/xlink">
    <!-- Generator: Sketch 54.1 (76490) - https://sketchapp.com -->
    <title>Group 2</title>
    <desc>Created with Sketch.</desc>
    <defs>
        <polygon id="path-1" points="0 0.121333333 6.45648182 0.121333333 6.45648182 7.36666667 0 7.36666667"></polygon>
        <polygon id="path-3" points="0.612609375 0.0495727273 20.3444062 0.0495727273 20.3444062 6.96684545 0.612609375 6.96684545"></polygon>
    </defs>
    <g id="final" stroke="none" stroke-width="1" fill="none" fill-rule="evenodd">
        <g id="Arranger" transform="translate(-556.000000, -765.000000)">
            <g id="Group-2" transform="translate(556.000000, 765.000000)">
                <g id="Page-1" fill="#F2D03A">
                    <path d="M64.4676906,0.832694645 C66.6147521,-1.04637463 70,0.460942977 70,3.29647266 C70,15.6326975 70,24.8848661 70,31.0529785 C70,37.1990375 70,46.418126 70,58.7102439 C70,60.5271494 68.5103166,62 66.6726461,62 L3.33402213,62 C0.270615526,62 -1.16490889,58.2535556 1.1290666,56.2464659 L64.4676906,0.832694645 Z" id="Fill-1"></path>
                </g>
                <g id="Page-1" transform="translate(24.000000, 10.000000)">
                    <path d="M35.1836326,5.5 C35.1836326,4.24231831 35.4817226,3.05804968 36,2 L3.49917734,2 C1.56642106,2 0,3.56678933 0,5.5 C0,7.4325667 1.56642106,9 3.49917734,9 L36,9 C35.4817226,7.94195032 35.1836326,6.75703772 35.1836326,5.5" id="Fill-1" fill="#003055"></path>
                    <path d="M37,6.00031614 C37,2.68591601 39.6857745,0 43,0 C46.31549,0 49,2.68654829 49,6.00031614 C49,9.31408399 46.31549,12 43,12 C39.6857745,12 37,9.31471627 37,6.00031614" id="Fill-3" fill="#003055"></path>
                    <path d="M54.508125,19 L21.0006424,19 C21.5177431,20.0587911 21.8145139,21.2425246 21.8145139,22.500322 C21.8145139,23.7574754 21.5171007,24.942497 21,26 L54.508125,26 C56.4352083,26 58,24.4324225 58,22.4990339 C58,20.5675775 56.4352083,19 54.508125,19" id="Fill-5" fill="#003055"></path>
                    <path d="M13,17 C16.3135933,17 19,19.6864067 19,23 C19,26.3135933 16.3135933,29 13,29 C9.68640674,29 7,26.3135933 7,23 C7,19.6864067 9.68640674,17 13,17" id="Fill-7" fill="#003055"></path>
                    <path d="M23.1923353,39.4983899 C23.1923353,38.2425246 23.4872475,37.056859 23.999363,36 L3.46187532,36 C1.54972266,36 0,37.5675775 0,39.5009661 C0,41.4330665 1.54972266,43 3.46187532,43 L24,43 C23.4878845,41.9412089 23.1923353,40.7561873 23.1923353,39.4983899" id="Fill-9" fill="#003055"></path>
                    <path d="M31,33 C34.3135933,33 37,35.685916 37,38.9996839 C37,42.3134517 34.3135933,45 31,45 C27.6864067,45 25,42.3134517 25,38.9996839 C25,35.685916 27.6864067,33 31,33" id="Fill-11" fill="#003055"></path>
                    <path d="M53.783432,2 L50,2 C50.4751479,3.05804968 50.7508876,4.24231831 50.7508876,5.5 C50.7508876,6.75703772 50.4751479,7.94195032 50,9 L53.783432,9 C55.5585799,9 57,7.43321067 57,5.5 C57,3.56678933 55.5585799,2 53.783432,2" id="Fill-13" fill="#003055"></path>
                    <g id="Group-17" transform="translate(0.000000, 19.000000)">
                        <mask id="mask-2" fill="white">
                            <use xlink:href="#path-1"></use>
                        </mask>
                        <g id="Clip-16"></g>
                        <path d="M5.64957273,3.74466667 C5.64957273,2.44333333 5.94420909,1.21733333 6.45584545,0.121333333 L3.45857273,0.121333333 C1.54820909,0.121333333 -6.36363636e-05,1.744 -6.36363636e-05,3.74533333 C-6.36363636e-05,5.74466667 1.54820909,7.36666667 3.45857273,7.36666667 L6.45648182,7.36666667 C5.94548182,6.272 5.64957273,5.04533333 5.64957273,3.74466667" id="Fill-15" fill="#003055" mask="url(#mask-2)"></path>
                    </g>
                    <g id="Group-20" transform="translate(37.000000, 36.000000)">
                        <mask id="mask-4" fill="white">
                            <use xlink:href="#path-3"></use>
                        </mask>
                        <g id="Clip-19"></g>
                        <path d="M16.7767031,0.0495727273 L0.613921875,0.0495727273 C1.14154688,1.09384545 1.44539063,2.26411818 1.44539063,3.5063 C1.44539063,4.74911818 1.14154688,5.92002727 0.612609375,6.96684545 L16.7773594,6.96684545 C18.7461094,6.96684545 20.3447344,5.41857273 20.3447344,3.50948182 C20.3440781,1.59848182 18.7454531,0.0495727273 16.7767031,0.0495727273" id="Fill-18" fill="#003055" mask="url(#mask-4)"></path>
                    </g>
                </g>
            </g>
        </g>
    </g>
</svg>