<?xml version="1.0" encoding="UTF-8"?>
<svg width="40px" height="43px" viewBox="0 0 40 43" version="1.1" xmlns="http://www.w3.org/2000/svg" xmlns:xlink="http://www.w3.org/1999/xlink">
    <!-- Generator: Sketch 49.3 (51167) - http://www.bohemiancoding.com/sketch -->
    <title>Group 13</title>
    <desc>Created with Sketch.</desc>
    <defs>
        <path d="M0.247756117,0.301496528 C-0.0605558384,0.658480903 -0.0605558384,1.23720139 0.247756117,1.59450868 L2.21264841,3.8694566 L0.247756117,6.14440451 C-0.060302042,6.50144271 -0.0605558384,7.08043229 0.247756117,7.43741667 C0.556118832,7.79445486 1.05599636,7.79445486 1.36435908,7.43741667 L4.44585434,3.8694566 L1.36435908,0.301496528 C1.21005082,0.123138889 1.00818111,0.0337986111 0.806057598,0.0337986111 C0.604187884,0.0337986111 0.402064372,0.123138889 0.247756117,0.301496528 Z" id="path-1"></path>
    </defs>
    <g id="final" stroke="none" stroke-width="1" fill="none" fill-rule="evenodd">
        <g id="Homepage-NEW" transform="translate(-618.000000, -840.000000)">
            <g id="Group-14" transform="translate(103.000000, 712.000000)">
                <g id="Core-bundle">
                    <g id="Group-22" transform="translate(298.000000, 116.000000)">
                        <g id="Group-13" transform="translate(217.000000, 12.000000)">
                            <g id="Page-1">
                                <g id="Group-9">
                                    <path d="M0.0270601693,33.3700762 L0.0270601693,26.519586 C0.0270601693,26.2561056 0.0794921965,26.0453213 0.131924224,25.834537 C3.59243802,28.4693409 11.247514,29.5232625 18.0636775,28.9963017 C18.1685416,28.522037 18.3258377,28.0477723 18.5355658,27.5735076 C10.1988735,28.3112527 0.0270601693,26.6249782 0.0270601693,22.5146841 L0.0270601693,15.6641939 C0.0270601693,15.5588017 0.0270601693,15.4534096 0.0794921965,15.2953213 C5.74215114,19.8271841 23.5166084,19.8271841 29.2316993,15.2953213 L29.2316993,15.6641939 L29.2316993,20.6703213 C35.1565184,20.8811056 39.9278329,25.7818409 39.9278329,31.84189 C39.9278329,37.954635 34.9467903,42.9607625 28.8122431,42.9607625 C25.0895692,42.9607625 21.7863515,41.1163998 19.7939344,38.3235076 C11.247514,39.3247331 0.0270601693,37.6911547 0.0270601693,33.3700762 Z" id="Fill-1" fill="#04518C"></path>
                                    <polygon id="Fill-3" fill="#000000" points="30.7522281 37.5330664 26.8722581 37.5330664 26.8722581 33.7389488 23.0971522 33.7389488 23.0971522 29.892135 26.8722581 29.892135 26.8722581 26.0980174 30.7522281 26.0980174 30.7522281 29.892135 34.4749021 29.892135 34.4749021 33.7389488 30.7522281 33.7389488"></polygon>
                                    <path d="M37.6208237,31.84189 C37.6208237,36.7426252 33.6884217,40.6948311 28.8122431,40.6948311 C23.9360646,40.6948311 20.0036626,36.7426252 20.0036626,31.84189 C20.0036626,26.9411547 23.9360646,22.9362527 28.8122431,22.9362527 C33.6884217,22.9362527 37.6208237,26.9411547 37.6208237,31.84189 Z" id="Fill-5" fill="#00A1D9"></path>
                                    <path d="M29.2316993,12.0808605 C29.2316993,19.0367429 0.0270601693,19.0367429 0.0270601693,12.0808605 L0.0270601693,5.23037034 C0.0270601693,-1.72551201 29.2316993,-1.72551201 29.2316993,5.23037034 L29.2316993,12.0808605 Z" id="Fill-7" fill="#04518C"></path>
                                </g>
                                <g id="Group-12" transform="translate(29.034317, 32.000000)">
                                    <mask id="mask-2" fill="white">
                                        <use xlink:href="#path-1"></use>
                                    </mask>
                                    <g id="Clip-11"></g>
                                </g>
                            </g>
                            <g id="Group-4" transform="translate(28.837209, 32.250000) rotate(90.000000) translate(-28.837209, -32.250000) translate(22.325581, 27.108696)" fill="#04518C">
                                <g id="Group" transform="translate(0.000000, 1.150612)">
                                    <path d="M3.16849431,7.76777747 C2.75146545,7.76777747 2.41334924,7.4312815 2.41334924,7.01625101 L2.41334924,0.751526458 C2.41334924,0.336589913 2.75146545,0 3.16849431,0 C3.58552318,0 3.92363938,0.336589913 3.92363938,0.751526458 L3.92363938,7.01625101 C3.92363938,7.4312815 3.58552318,7.76777747 3.16849431,7.76777747" id="Fill-5"></path>
                                    <path d="M3.16849431,8.07905034 L0.221163112,5.14584257 C-0.0737210373,4.85227755 -0.0737210373,4.37646736 0.221163112,4.08299628 C0.516141654,3.78961914 0.994242875,3.78971308 1.28912702,4.08299628 L3.16849431,5.95345169 L5.0478616,4.08299628 C5.34284014,3.78961914 5.82094136,3.78961914 6.1159199,4.08299628 C6.41080405,4.3765613 6.41080405,4.85227755 6.1159199,5.14584257 L3.16849431,8.07905034 Z" id="Fill-7"></path>
                                </g>
                                <g id="Group" transform="translate(9.767442, 4.946742) rotate(180.000000) translate(-9.767442, -4.946742) translate(6.511628, 0.740220)">
                                    <path d="M2.41334924,7.01625101 L2.41334924,0.751526458 C2.41334924,0.336589913 2.75146545,0 3.16849431,0 C3.58552318,0 3.92363938,0.336589913 3.92363938,0.751526458 L3.92363938,7.01625101 C3.92363938,7.4312815 3.58552318,7.76777747 3.16849431,7.76777747 C2.75146545,7.76777747 2.41334924,7.4312815 2.41334924,7.01625101 Z" id="Fill-5"></path>
                                    <path d="M3.16849431,8.07905034 L0.221163112,5.14584257 C-0.0737210373,4.85227755 -0.0737210373,4.37646736 0.221163112,4.08299628 C0.516141654,3.78961914 0.994242875,3.78971308 1.28912702,4.08299628 L3.16849431,5.95345169 L5.0478616,4.08299628 C5.34284014,3.78961914 5.82094136,3.78961914 6.1159199,4.08299628 C6.41080405,4.3765613 6.41080405,4.85227755 6.1159199,5.14584257 L3.16849431,8.07905034 Z" id="Fill-7"></path>
                                </g>
                            </g>
                        </g>
                    </g>
                </g>
            </g>
        </g>
    </g>
</svg>