<?xml version="1.0" encoding="UTF-8"?>
<svg width="65px" height="69px" viewBox="0 0 65 69" version="1.1" xmlns="http://www.w3.org/2000/svg" xmlns:xlink="http://www.w3.org/1999/xlink">
    <!-- Generator: Sketch 49.3 (51167) - http://www.bohemiancoding.com/sketch -->
    <title>Group 6</title>
    <desc>Created with Sketch.</desc>
    <defs>
        <polygon id="path-1" points="53.6903093 0.248551313 53.6903093 53.9980371 0.271355359 53.9980371 0.271355359 0.248551313"></polygon>
    </defs>
    <g id="final" stroke="none" stroke-width="1" fill="none" fill-rule="evenodd">
        <g id="Score" transform="translate(-163.000000, -833.000000)">
            <g id="Group-6" transform="translate(160.000000, 833.000000)">
                <g id="Page-1" transform="translate(9.000000, 9.000000)">
                    <g id="Group-3">
                        <mask id="mask-2" fill="white">
                            <use xlink:href="#path-1"></use>
                        </mask>
                        <g id="Clip-2"></g>
                        <path d="M53.6904669,27.1232942 C53.6904669,12.2805502 41.7320155,0.248551313 26.9811739,0.248551313 C12.2298068,0.248551313 0.271355359,12.2805502 0.271355359,27.1232942 C0.271355359,41.9660383 12.2298068,53.9980371 26.9811739,53.9980371 C41.7320155,53.9980371 53.6904669,41.9660383 53.6904669,27.1232942" id="Fill-1" fill="#F2D03A" mask="url(#mask-2)"></path>
                    </g>
                </g>
                <g id="Page-1" transform="translate(35.625426, 34.695578) rotate(-3.000000) translate(-35.625426, -34.695578) translate(2.625426, 1.695578)" fill="#003055">
                    <path d="M47.1786574,18.8207552 C46.9875254,16.3622425 46.9270232,13.9876051 47.3917902,11.7202184 L54.2931667,18.6103791 C52.0270841,19.0765065 49.6468724,19.0132562 47.1786574,18.8207552 Z M23.900434,42.096876 C23.6570501,38.8917344 23.626799,35.9450941 24.614085,33.1593296 L28.7323601,37.277476 L32.8547603,41.3983724 C30.075784,42.3773774 27.1276766,42.3430023 23.900434,42.096876 Z M18.8209988,47.1761523 C19.0148809,49.6401651 19.0767581,52.0203025 18.6119912,54.2876892 L11.72024,47.3892784 C13.9876977,46.923151 16.3624092,46.9836513 18.8209988,47.1761523 Z M39.4825019,36.3809713 C39.0617366,36.9474743 38.5832191,37.4974771 38.0428244,38.0364799 C37.9121947,38.1671056 37.7815649,38.2936063 37.6495601,38.4159819 L32.6416276,33.4068309 L27.5841932,28.3468046 C27.6996974,28.220304 27.8220769,28.0951783 27.9485815,27.9700527 C28.5041018,27.4200498 29.058247,26.9401723 29.6178924,26.5235452 L31.7519701,28.6575563 L39.4825019,36.3809713 Z M42.0964722,23.9027816 C42.2807289,26.3654194 42.3426061,28.7441817 41.8833394,31.0046934 L38.4223383,27.5465505 L34.9915882,24.1200327 C37.2452954,23.6594053 39.622757,23.7171556 42.0964722,23.9027816 Z M61.3086724,14.7672342 C60.7655276,15.311737 60.2182577,15.7874895 59.6641125,16.2041166 L49.7926277,6.3466905 C50.2092679,5.7884376 50.6891604,5.24118476 51.2336802,4.69393192 C52.3062193,3.61867635 52.3062193,1.87791731 51.2309301,0.804036742 C50.1556409,-0.26984383 48.4148275,-0.267093815 47.3422884,0.806786756 C45.8613594,2.29041945 44.724193,3.81667737 43.8634116,5.47493598 C43.8565363,5.48593603 43.8537862,5.4983111 43.848286,5.50931115 C41.5354517,9.78970836 41.3731958,14.2199813 41.6372054,18.3573778 C37.3896756,18.0851264 33.0555176,18.2460022 28.758486,20.5903894 C28.7557359,20.5917644 28.7529858,20.5917644 28.7516108,20.5931394 C28.7433605,20.5972644 28.7351102,20.6013895 28.72961,20.6055145 C28.7144844,20.6123895 28.702109,20.6192645 28.6883585,20.6261396 C28.6828583,20.6288896 28.6773581,20.6343896 28.6732329,20.6385146 C27.0657993,21.482769 25.5601195,22.5992748 24.0681901,24.0719075 C23.1235306,25.0192874 22.3425022,25.9721673 21.6673526,26.9786725 C21.6618524,26.9869226 21.6549771,26.9924226 21.6494769,27.0006727 C21.6412266,27.0102977 21.6371015,27.0185478 21.6302262,27.0281728 C21.6261011,27.0350478 21.6219759,27.0405479 21.6178508,27.0474229 C21.6123506,27.0529229 21.6096005,27.059798 21.6054753,27.066673 C18.3204806,31.8613229 18.0674714,36.9199741 18.358982,41.6334986 C14.2269564,41.3694972 9.8020451,41.5331231 5.52151408,43.84176 C5.50501348,43.8500101 5.48988793,43.8527601 5.47338733,43.8610101 C3.81507688,44.7231396 2.28877125,45.8630205 0.805092175,47.3425282 C-0.267446917,48.4164088 -0.268821968,50.1571678 0.803717125,51.2324234 C1.34273677,51.7686762 2.04538738,52.0368026 2.74941304,52.0368026 C3.45481375,52.0368026 4.15608931,51.7686762 4.69510896,51.2324234 C5.23962881,50.6865455 5.7882738,50.2080431 6.3479192,49.7914159 L16.2056535,59.6612171 C15.7890133,60.215345 15.313246,60.7612228 14.7687261,61.3071007 C13.694812,62.3823562 13.696187,64.1231153 14.7714762,65.1969958 C15.3063707,65.7318736 16.0103964,66 16.713047,66 C17.4170727,66 18.1238484,65.7304986 18.660118,65.1928708 C20.1231713,63.7271132 21.2507124,62.2214804 22.1059936,60.594847 C22.1073686,60.5934719 22.1087437,60.5920969 22.1087437,60.5907219 C22.1101187,60.5879719 22.1114938,60.5838469 22.1128688,60.5810969 C22.1211191,60.5632218 22.1348696,60.5453467 22.1417449,60.5274716 C22.1472451,60.5178466 22.1486201,60.5068465 22.1541203,60.4972214 C24.4875804,56.1920741 24.6457111,51.8704267 24.3693261,47.6340297 C25.2713589,47.690405 26.1830172,47.7344052 27.1070508,47.7344052 C31.034194,47.7344052 35.1167178,47.0634018 39.0149849,44.3670128 C39.017735,44.3656378 39.01911,44.3628877 39.0218601,44.3615127 C40.0462725,43.6547591 40.9991822,42.8586299 41.9314662,41.9277501 C43.3683935,40.4894926 44.4986847,38.9811098 45.3814669,37.3187262 C45.384217,37.3132262 45.3883422,37.3104761 45.3910923,37.3049761 L45.4034677,37.280226 C45.4062178,37.276101 45.4089679,37.273351 45.410343,37.2706009 C45.411718,37.2692259 45.410343,37.2678509 45.411718,37.2664759 C47.7465531,32.9709536 47.9101841,28.6451812 47.6379242,24.359284 C48.538582,24.4170343 49.4474901,24.4624095 50.3701487,24.4624095 C53.7060203,24.4624095 57.1601462,23.9674069 60.500143,22.1523975 C60.5070182,22.1482725 60.5166436,22.1468975 60.5262689,22.1427725 C60.5427695,22.1345224 60.55652,22.1248974 60.5716456,22.1166473 C60.5785208,22.1125223 60.5867711,22.1097723 60.5950214,22.1056473 C60.5991466,22.1028972 60.6018967,22.1001472 60.6060218,22.0973972 C62.228581,21.2421428 63.7315107,20.120137 65.193189,18.6598794 C66.2684782,17.5859988 66.2684782,15.8452398 65.1959391,14.7699842 C64.1247751,13.6947286 62.3825866,13.6919786 61.3086724,14.7672342 Z" id="Fill-1"></path>
                </g>
            </g>
        </g>
    </g>
</svg>