<?xml version="1.0" encoding="UTF-8"?>
<svg width="63px" height="68px" viewBox="0 0 63 68" version="1.1" xmlns="http://www.w3.org/2000/svg" xmlns:xlink="http://www.w3.org/1999/xlink">
    <!-- Generator: Sketch 49.3 (51167) - http://www.bohemiancoding.com/sketch -->
    <title>Page 1</title>
    <desc>Created with Sketch.</desc>
    <defs>
        <polygon id="path-1" points="62.8591415 0 62.8591415 9.57878804 31.4296302 9.57878804 0.000118867925 9.57878804 0.000118867925 0"></polygon>
    </defs>
    <g id="final" stroke="none" stroke-width="1" fill="none" fill-rule="evenodd">
        <g id="Song" transform="translate(-543.000000, -834.000000)">
            <g id="Page-1" transform="translate(543.000000, 834.000000)">
                <polygon id="Fill-1" fill="#F2D03A" points="4 48 57 48 57 0 4 0"></polygon>
                <g id="Group-9" transform="translate(0.000000, 6.000000)">
                    <g id="Group-4" transform="translate(0.000000, 51.485986)">
                        <mask id="mask-2" fill="white">
                            <use xlink:href="#path-1"></use>
                        </mask>
                        <g id="Clip-3"></g>
                        <path d="M58.1045434,9.57878804 L4.75483585,9.57878804 C2.12844906,9.57878804 0.000118867925,7.43433687 0.000118867925,4.78939402 C0.000118867925,2.14445117 2.12844906,0 4.75483585,0 L58.1045434,0 C60.7303358,0 62.8592604,2.14445117 62.8592604,4.78939402 C62.8592604,7.43433687 60.7303358,9.57878804 58.1045434,9.57878804" id="Fill-2" fill="#003055" mask="url(#mask-2)"></path>
                    </g>
                    <path d="M31.4294519,49.5683722 C28.8036594,49.5683722 26.6747349,47.423921 26.6747349,44.7789782 L26.6747349,4.85458964 C26.6747349,2.21024547 28.8036594,0.0651956261 31.4294519,0.0651956261 C34.0552443,0.0651956261 36.1841689,2.21024547 36.1841689,4.85458964 L36.1841689,44.7789782 C36.1841689,47.423921 34.0552443,49.5683722 31.4294519,49.5683722" id="Fill-5" fill="#003055"></path>
                    <path d="M31.4294519,51.5520793 L12.8717915,32.8590745 C11.0150745,30.9882174 11.0150745,27.9559324 12.8717915,26.085674 C14.7291028,24.2160143 17.739433,24.216613 19.59615,26.085674 L31.4294519,38.005877 L43.2627538,26.085674 C45.1200651,24.2160143 48.1303953,24.2160143 49.9877066,26.085674 C51.8444236,27.956531 51.8444236,30.9882174 49.9877066,32.8590745 L31.4294519,51.5520793 Z" id="Fill-7" fill="#003055"></path>
                </g>
            </g>
        </g>
    </g>
</svg>