<svg width="180" height="180" viewBox="0 0 180 180" fill="none" xmlns="http://www.w3.org/2000/svg">
<circle cx="90" cy="90" r="90" fill="#F5DE63"/>
<path fill-rule="evenodd" clip-rule="evenodd" d="M50.9876 60.2584V137.241C50.9876 138.337 51.9446 139.226 53.1251 139.226H117.964C119.144 139.226 120.101 138.337 120.101 137.241V44.6161C120.101 43.5199 119.144 42.6312 117.964 42.6312H66.6135C65.9645 42.6312 65.3506 42.9051 64.9449 43.3755L51.4565 59.0178C51.153 59.3699 50.9876 59.8074 50.9876 60.2584ZM46 60.2584C46 58.7551 46.5513 57.2967 47.5632 56.1232L61.0516 40.4809C62.4038 38.9127 64.4501 38 66.6135 38H117.964C121.899 38 125.089 40.9621 125.089 44.6161V137.241C125.089 140.895 121.899 143.857 117.964 143.857H53.1251C49.19 143.857 46 140.895 46 137.241V60.2584Z" fill="black" stroke="black" stroke-width="3"/>
<path d="M140 89C140 100.046 130.822 109 119.5 109C108.178 109 99 100.046 99 89C99 77.9543 108.178 69 119.5 69C130.822 69 140 77.9543 140 89Z" fill="white"/>
<path d="M124.056 110.589C123.528 109.436 123.928 108.07 124.995 107.386L127.444 105.816C128.511 105.131 129.92 105.337 130.747 106.298L146.503 124.61C147.512 125.783 147.25 127.577 145.948 128.412L137.812 133.629C136.51 134.464 134.77 133.954 134.126 132.548L124.056 110.589Z" fill="black"/>
<path fill-rule="evenodd" clip-rule="evenodd" d="M128.406 107.315L125.957 108.885C125.637 109.091 125.517 109.501 125.675 109.846L135.745 131.805C135.938 132.227 136.46 132.38 136.851 132.13L144.986 126.913C145.377 126.662 145.455 126.124 145.153 125.772L129.397 107.46C129.148 107.172 128.726 107.11 128.406 107.315ZM124.995 107.386C123.928 108.07 123.528 109.436 124.056 110.589L134.126 132.548C134.77 133.954 136.51 134.464 137.812 133.629L145.948 128.412C147.25 127.577 147.512 125.783 146.503 124.61L130.747 106.298C129.92 105.337 128.511 105.131 127.444 105.816L124.995 107.386Z" fill="black"/>
<path fill-rule="evenodd" clip-rule="evenodd" d="M125.395 105.315C134.682 99.3599 137.383 87.0034 131.427 77.7165C125.471 68.4296 113.115 65.729 103.828 71.6846C94.5412 77.6402 91.8406 89.9966 97.7961 99.2836C103.752 108.57 116.108 111.271 125.395 105.315ZM128.829 110.671C141.074 102.818 144.635 86.5268 136.782 74.2823C128.93 62.0378 112.638 58.4771 100.394 66.3294C88.1493 74.1816 84.5886 90.4733 92.4409 102.718C100.293 114.962 116.585 118.523 128.829 110.671Z" fill="black"/>
</svg>
