<?xml version="1.0" encoding="UTF-8"?>
<svg width="62px" height="65px" viewBox="0 0 62 65" version="1.1" xmlns="http://www.w3.org/2000/svg" xmlns:xlink="http://www.w3.org/1999/xlink">
    <!-- Generator: Sketch 51.2 (57519) - http://www.bohemiancoding.com/sketch -->
    <title>Group 17</title>
    <desc>Created with Sketch.</desc>
    <defs></defs>
    <g id="final" stroke="none" stroke-width="1" fill="none" fill-rule="evenodd">
        <g id="Persona" transform="translate(-165.000000, -767.000000)">
            <g id="Group-17" transform="translate(165.000000, 767.000000)">
                <g id="Page-1" transform="translate(6.000000, 6.290323)" fill="#F2D03A">
                    <polygon id="Fill-1" points="0 52.4193548 50 52.4193548 50 0 0 0"></polygon>
                </g>
                <path d="M19,33.0241935 C19,25.8165323 24.625,19.9193548 31.5,19.9193548 C38.375,19.9193548 44,25.8165323 44,33.0241935 C44,40.2318548 38.375,46.1290323 31.5,46.1290323 C24.625,46.1290323 19,40.2318548 19,33.0241935 M62,61.75 L62,48.75 C62,46.8 60.76,45.5 58.9,45.5 C57.04,45.5 55.8,46.8 55.8,48.75 L55.8,53.95 L46.19,43.875 C48.36,40.625 49.6,36.725 49.6,32.5 C49.6,28.275 48.36,24.375 46.19,21.125 L55.8,11.05 L55.8,16.25 C55.8,18.2 57.04,19.5 58.9,19.5 C60.76,19.5 62,18.2 62,16.25 L62,3.25 C62,1.3 60.76,0 58.9,0 L46.5,0 C44.64,0 43.4,1.3 43.4,3.25 C43.4,5.2 44.64,6.5 46.5,6.5 L51.46,6.5 L41.85,16.575 C38.75,14.3 35.03,13 31,13 C26.97,13 23.25,14.3 20.15,16.575 L10.54,6.5 L15.5,6.5 C17.36,6.5 18.6,5.2 18.6,3.25 C18.6,1.3 17.36,0 15.5,0 L3.1,0 C1.55,0 0,1.3 0,3.25 L0,16.25 C0,18.2 1.24,19.5 3.1,19.5 C4.96,19.5 6.2,18.2 6.2,16.25 L6.2,11.05 L15.81,21.125 C13.64,24.375 12.4,28.275 12.4,32.5 C12.4,36.725 13.64,40.625 15.81,43.875 L6.2,53.95 L6.2,48.75 C6.2,46.8 4.96,45.5 3.1,45.5 C1.24,45.5 0,46.8 0,48.75 L0,61.75 C0,63.7 1.24,65 3.1,65 L15.5,65 C17.36,65 18.6,63.7 18.6,61.75 C18.6,59.8 17.36,58.5 15.5,58.5 L10.54,58.5 L20.15,48.425 C23.25,50.7 26.97,52 31,52 C35.03,52 38.75,50.7 41.85,48.425 L51.46,58.5 L46.5,58.5 C44.64,58.5 43.4,59.8 43.4,61.75 C43.4,63.7 44.64,65 46.5,65 L58.9,65 C60.76,65 62,63.375 62,61.75" id="Page-1" fill="#003055"></path>
            </g>
        </g>
    </g>
</svg>