<?xml version="1.0" encoding="UTF-8"?>
<svg width="44px" height="63px" viewBox="0 0 44 63" version="1.1" xmlns="http://www.w3.org/2000/svg" xmlns:xlink="http://www.w3.org/1999/xlink">
    <!-- Generator: Sketch 49.3 (51167) - http://www.bohemiancoding.com/sketch -->
    <title>Page 1</title>
    <desc>Created with Sketch.</desc>
    <defs>
        <path d="M10.6798621,8.17457944 L9.2767931,12.9214953 C8.76965517,14.6366355 7.8392069,16.2085981 6.5632069,17.5069159 L3.46158621,20.6631776 C-4.686,28.9570093 3.92662069,42.2257944 15.2922759,38.8900935 L18.1477241,38.0530841 C20.3583448,37.4026168 22.7214483,37.4026168 24.9335862,38.0530841 L28.6147931,39.1319626 C39.9227931,42.4508411 48.5445172,29.315514 40.5224828,20.9865421 L37.0904828,17.4224299 C35.8911034,16.1783178 35.0065517,14.6885981 34.5016897,13.0661682 L32.9328621,8.02654206 C31.2851379,2.73420561 26.5585517,0.0964485981 21.8327241,0.0964485981 C17.0507586,0.0971962617 12.2695517,2.79738318 10.6798621,8.17457944 Z" id="path-1"></path>
        <polygon id="path-3" points="0.0333737991 0.0876491822 36.062968 0.0876491822 36.062968 45.5942029 0.0333737991 45.5942029"></polygon>
    </defs>
    <g id="final" stroke="none" stroke-width="1" fill="none" fill-rule="evenodd">
        <g id="Score" transform="translate(-550.000000, -842.000000)">
            <g id="Page-1" transform="translate(550.000000, 842.000000)">
                <g id="Group-3">
                    <mask id="mask-2" fill="white">
                        <use xlink:href="#path-1"></use>
                    </mask>
                    <g id="Clip-2"></g>
                    <polygon id="Fill-1" fill="#F2D021" mask="url(#mask-2)" points="-3.79310345 43.6452336 47.7001724 43.6452336 47.7001724 -3.88971963 -3.79310345 -3.88971963"></polygon>
                </g>
                <g id="Group-21" transform="translate(0.000000, 11.000000)">
                    <g id="Group-6" transform="translate(5.675676, 6.405797)">
                        <mask id="mask-4" fill="white">
                            <use xlink:href="#path-3"></use>
                        </mask>
                        <g id="Clip-5"></g>
                        <path d="M6.60387568,40.7436957 C9.29414595,39.4041304 10.1053892,38.0125652 9.74555135,35.3191159 C11.3037135,35.4988551 12.7037135,35.1631159 13.8134973,34.0055507 C14.9293351,32.8423333 15.2467946,31.4522754 14.9437135,29.9706522 C15.7193892,29.8666522 16.4977135,29.8711739 17.2037676,29.6484783 C20.3371189,28.6582174 21.2826865,24.7725362 18.9575514,22.4566522 C17.4928486,20.9972609 15.9679838,19.5977826 14.4662,18.1753188 C10.4849027,14.4045652 6.50171351,10.6356957 2.51928108,6.86531884 C1.99598378,6.37018841 1.45830811,5.88975362 0.953172973,5.37728986 C-0.251583784,4.15378261 -0.272394595,2.25842029 0.888091892,1.04584058 C2.04328108,-0.161463768 3.96241622,-0.252275362 5.23301081,0.912449275 C7.13474054,2.65482609 8.99522703,4.44166667 10.8723622,6.2107971 C13.6110649,8.79346377 16.3471189,11.3798986 19.0884703,13.9591739 C19.8387946,14.6641884 20.6693351,15.2516377 21.6319297,15.6465362 C22.9433892,16.185 24.1587405,16.0308841 25.1985243,15.0737826 C25.7214432,14.5925942 26.1894973,14.0247391 26.5743081,13.4267391 C27.4782541,12.0234928 28.2777676,10.5527971 29.1923081,9.15633333 C30.4273351,7.27114493 32.9310649,6.91581159 34.6969568,8.31566667 C36.1518216,9.46946377 36.4942541,11.5242174 35.4836054,13.2127101 C34.0544703,15.6016957 32.6041459,17.9782464 31.1610108,20.3596957 C30.4523081,21.5312029 29.7500378,22.7064783 29.0235514,23.8674348 C28.827173,24.1801884 28.8283081,24.4281304 28.9936595,24.7593478 C29.6660378,26.1072029 30.2990649,27.4742754 30.9593351,28.8285362 C33.1384162,33.2967681 31.4777135,38.2567391 27.0196595,40.4494058 C23.9960378,41.9359275 20.9550108,43.3881594 17.8962,44.8019565 C13.9217135,46.6385362 9.2389027,45.1832899 6.98944324,41.4611449 C6.84906486,41.2286522 6.73138919,40.982971 6.60387568,40.7436957" id="Fill-4" fill="#133055" mask="url(#mask-4)"></path>
                    </g>
                    <path d="M7.55871351,25.7750058 C8.0419027,25.7836725 8.75552432,26.0338754 9.34011892,26.580629 C12.3940108,29.4372377 15.4532,32.2889478 18.4874162,35.1662812 C19.7266054,36.3419333 19.7459027,38.2738464 18.5960108,39.4924551 C17.4067676,40.752513 15.4906595,40.8448319 14.2053081,39.6507159 C11.5332,37.168658 8.88492973,34.6606 6.22644324,32.1630928 C5.85374054,31.8130348 5.46855135,31.4769188 5.10492973,31.118571 C4.16428108,30.1923681 3.89147027,28.8528029 4.38525405,27.6568029 C4.85406486,26.5229768 5.98692973,25.7768899 7.55871351,25.7750058" id="Fill-7" fill="#133055"></path>
                    <path d="M24.6160108,32.3287391 C24.5853622,33.1935217 24.0124973,34.1834058 22.8232541,34.7226232 C21.6718486,35.2441304 20.5094703,35.1416377 19.552173,34.2983333 C18.1237946,33.0394058 16.7639027,31.7024783 15.3767676,30.3968261 C13.7187135,28.8364493 12.0591459,27.2787101 10.4075243,25.7119275 C9.5504973,24.8998986 9.19330811,23.9036087 9.46044324,22.744913 C10.0147676,20.3416087 12.8291459,19.5081014 14.6718486,21.1999855 C15.8179568,22.2524203 16.9375784,23.3338696 18.0700649,24.4013768 C19.7943351,26.026942 21.5102811,27.6607971 23.2470378,29.2735507 C24.0219568,29.9932609 24.6311459,30.7774058 24.6160108,32.3287391" id="Fill-9" fill="#133055"></path>
                    <path d="M3.53991892,32.504258 C4.37727027,32.4952145 5.11132432,32.8976493 5.75835135,33.5099681 C7.81483784,35.4573304 9.87435135,37.4013014 11.9338649,39.3452725 C12.355,39.7443159 12.7878649,40.1309246 13.2029459,40.5367507 C14.5234865,41.8299681 14.5851622,43.7630116 13.3539189,45.0151565 C12.1397027,46.2503449 10.2213243,46.2578812 8.90267568,45.0196783 C6.48332432,42.7467507 4.07910811,40.4568667 1.65067568,38.194113 C0.711540541,37.3187797 0.115972973,36.3383159 0.383108108,35.0047797 C0.684297297,33.4967797 1.9197027,32.4955913 3.53991892,32.504258" id="Fill-11" fill="#133055"></path>
                    <path d="M31.900173,11.0042928 C31.2686595,10.9470174 30.8770378,10.7299739 30.6560649,10.2702638 C30.4195784,9.77852464 30.5096324,9.31806087 30.856227,8.91411884 C30.990173,8.75887246 31.1676324,8.6364087 31.3352541,8.51356812 C32.4412541,7.70493043 33.544227,6.89365507 34.6589297,6.09707536 C35.3339568,5.6140029 36.0854162,5.70142319 36.5107135,6.2835971 C36.9496324,6.88498841 36.8213622,7.60017681 36.1497405,8.09945217 C34.9949297,8.95782899 33.8310378,9.80527826 32.6573081,10.6380319 C32.4022811,10.8192783 32.0867135,10.9168725 31.900173,11.0042928" id="Fill-13" fill="#133055"></path>
                    <path d="M21.5206486,7.16330145 C21.5198919,7.79672174 21.2062162,8.27037391 20.7593514,8.45011304 C20.2897838,8.63964928 19.6578919,8.54733043 19.3521622,8.14301159 C18.3729189,6.8497942 17.4069189,5.54602609 16.4840541,4.21286667 C16.0931892,3.64802609 16.3028108,2.92341739 16.8454054,2.55866377 C17.3815676,2.19843188 18.1201622,2.28924348 18.5314595,2.83298261 C19.4671892,4.07118551 20.3775676,5.32898261 21.2815135,6.59054783 C21.4226486,6.78912754 21.4752432,7.04988116 21.5206486,7.16330145" id="Fill-15" fill="#133055"></path>
                    <path d="M28.5746054,8.09428986 C27.6449297,8.09052174 27.1034703,7.254 27.4549838,6.32289855 C27.6506054,5.8044058 27.9003351,5.30626087 28.1254703,4.79869565 C28.5095243,3.93202899 28.8776865,3.05857971 29.2817946,2.20133333 C29.5932,1.54002899 30.2065514,1.274 30.8286054,1.48011594 C31.5138486,1.70808696 31.8892,2.39124638 31.5970919,3.09965217 C30.9894162,4.57336232 30.3223351,6.02408696 29.6586595,7.47443478 C29.4569838,7.91605797 29.0532541,8.09052174 28.5746054,8.09428986" id="Fill-17" fill="#133055"></path>
                    <path d="M25.5963514,5.71385797 C25.6156486,6.60953913 25.1888378,7.1513942 24.4831622,7.21846667 C23.7918649,7.28403188 23.2031081,6.79869855 23.1134324,6.03188696 C22.9439189,4.5838 22.7899189,3.13382899 22.6635405,1.6815971 C22.6370541,1.37562609 22.6858649,1.01953913 22.827,0.753510145 C23.0752162,0.28437971 23.5364595,0.0842927536 24.0677027,0.178495652 C24.6212703,0.276089855 25.0068378,0.60806087 25.084027,1.17930725 C25.2259189,2.2340029 25.3333784,3.29284348 25.4525676,4.35055362 C25.5066757,4.83362609 25.5547297,5.31745217 25.5963514,5.71385797" id="Fill-19" fill="#133055"></path>
                </g>
            </g>
        </g>
    </g>
</svg>