<svg width="180" height="180" viewBox="0 0 180 180" fill="none" xmlns="http://www.w3.org/2000/svg">
<circle cx="90" cy="90" r="90" fill="#F5DE63"/>
<path fill-rule="evenodd" clip-rule="evenodd" d="M64.5063 68.4607C66.3361 70.4377 66.1654 73.4774 64.125 75.2503L48.6274 88.7162L63.9195 100.617C66.0562 102.28 66.3971 105.306 64.6808 107.376C62.9646 109.447 59.8411 109.777 57.7044 108.114L37.8548 92.6666C36.719 91.7827 36.0414 90.4597 36.0018 89.0487C35.9623 87.6376 36.5647 86.281 37.6493 85.3385L57.4988 68.0913C59.5392 66.3184 62.6766 66.4838 64.5063 68.4607Z" fill="white"/>
<path fill-rule="evenodd" clip-rule="evenodd" d="M113.276 107.576C111.543 105.599 111.705 102.559 113.638 100.786L128.32 87.3203L113.832 75.4195C111.808 73.7566 111.485 70.7303 113.111 68.66C114.737 66.5897 117.696 66.2595 119.72 67.9223L138.525 83.3699C139.601 84.2538 140.243 85.5768 140.281 86.9878C140.318 88.3989 139.748 89.7555 138.72 90.698L119.915 107.945C117.982 109.718 115.01 109.553 113.276 107.576Z" fill="white"/>
<path fill-rule="evenodd" clip-rule="evenodd" d="M104.409 59.4884C106.776 60.6676 107.738 63.5421 106.559 65.9087L82.3655 114.465C81.1863 116.831 78.3118 117.794 75.9452 116.615C73.5786 115.435 72.616 112.561 73.7952 110.194L97.989 61.6384C99.1682 59.2718 102.043 58.3092 104.409 59.4884Z" fill="white"/>
<path fill-rule="evenodd" clip-rule="evenodd" d="M68.5175 71.4879C70.2509 73.4649 70.0892 76.5046 68.1562 78.2775L53.4742 91.7434L67.9615 103.644C69.9858 105.307 70.3087 108.333 68.6828 110.404C67.0569 112.474 64.0978 112.804 62.0735 111.141L43.2687 95.6938C42.1926 94.8099 41.5507 93.4869 41.5132 92.0759C41.4757 90.6648 42.0464 89.3082 43.074 88.3657L61.8788 71.1185C63.8118 69.3456 66.784 69.511 68.5175 71.4879Z" fill="black"/>
<path fill-rule="evenodd" clip-rule="evenodd" d="M114.91 110.662C113.081 108.758 113.251 105.831 115.292 104.124L130.789 91.1569L115.497 79.6969C113.361 78.0956 113.02 75.1814 114.736 73.1878C116.452 71.1942 119.576 70.8761 121.712 72.4774L141.562 87.3528C142.698 88.204 143.375 89.478 143.415 90.8368C143.454 92.1956 142.852 93.502 141.767 94.4095L121.918 111.018C119.878 112.725 116.74 112.566 114.91 110.662Z" fill="black"/>
<path fill-rule="evenodd" clip-rule="evenodd" d="M107.317 62.4616C109.684 63.6408 110.646 66.5152 109.467 68.8818L85.2735 117.438C84.0943 119.804 81.2198 120.767 78.8532 119.588C76.4866 118.409 75.524 115.534 76.7032 113.167L100.897 64.6116C102.076 62.245 104.951 61.2824 107.317 62.4616Z" fill="black"/>
</svg>
