<?xml version="1.0" encoding="UTF-8"?>
<svg width="40px" height="40px" viewBox="0 0 40 40" version="1.1" xmlns="http://www.w3.org/2000/svg" xmlns:xlink="http://www.w3.org/1999/xlink">
    <!-- Generator: Sketch 49.3 (51167) - http://www.bohemiancoding.com/sketch -->
    <title>Page 1</title>
    <desc>Created with Sketch.</desc>
    <defs>
        <path d="M0,0 C3.24088542,9.56276934e-16 8.765625,9.56276934e-16 16.5742187,0 C24.3828125,0 32.1914062,0 40,0 L40,40 L0,40 L0,0 Z" id="path-1"></path>
    </defs>
    <g id="final" stroke="none" stroke-width="1" fill="none" fill-rule="evenodd">
        <g id="Score" transform="translate(-163.000000, -2745.000000)">
            <g id="Page-1" transform="translate(163.000000, 2745.000000)">
                <mask id="mask-2" fill="white">
                    <use xlink:href="#path-1"></use>
                </mask>
                <g id="Clip-2"></g>
                <path d="M15.0089591,38.9728164 L15.0089591,35.4869145 C9.46627886,36.7210537 8.28859436,32.7371658 8.28859436,32.7371658 C7.94177168,31.5138524 7.17681697,30.4529257 6.12770537,29.7384241 C4.32336307,28.4718075 6.26816316,28.4934591 6.26816316,28.4934591 C7.55929433,28.6829103 8.68835882,29.4634492 9.32582107,30.6044867 C10.3933002,32.6635505 12.9226208,33.4657409 14.9776262,32.3972362 C15.0284071,32.3701718 15.0781076,32.3431073 15.127808,32.3149603 C15.2207262,31.2800155 15.6669498,30.3089428 16.3919281,29.5652116 C11.9621056,29.0563998 7.30538987,27.2917973 7.30538987,19.4431051 C7.27081565,17.415436 8.00443746,15.4505565 9.35823441,13.9436076 C8.75858771,12.1757574 8.83205794,10.2476856 9.56351886,8.53071648 C9.56351886,8.53071648 11.2382078,7.97860158 15.0413724,10.6309183 C18.3086366,9.70531386 21.7671394,9.70531386 25.035484,10.6309183 C28.8386486,7.97860158 30.5133376,8.53071648 30.5133376,8.53071648 C31.2491203,10.2476856 31.3171883,12.1779225 30.7078176,13.9436076 C32.0616146,15.4505565 32.7941559,17.415436 32.7606621,19.4431051 C32.7606621,27.3134488 28.0931419,29.045574 23.6525151,29.5543858 C24.6184324,30.5720093 25.1089542,31.9533791 25.0030707,33.3542354 L25.0030707,38.9728164 C25.0030707,39.6440149 25.3596174,40.1528267 26.3752352,39.9579626 C34.6060613,37.0479923 40.081754,29.2166214 39.9985598,20.4715544 C40.130374,9.29718187 31.197259,0.133157123 20.0459913,0.00108257823 C20.0124976,0 19.9800842,0 19.9465904,0 C8.79208149,0.142900327 -0.136711805,9.31666828 0.00158509032,20.493206 C-0.0805286912,29.245851 5.40596845,37.0793871 13.647599,39.9796142 C14.641608,40.1203493 15.0089591,39.492454 15.0089591,38.9728164" id="Fill-1" fill="#F2D03A" mask="url(#mask-2)"></path>
            </g>
        </g>
    </g>
</svg>