<?xml version="1.0" encoding="UTF-8"?>
<svg width="14px" height="14px" viewBox="0 0 14 14" version="1.1" xmlns="http://www.w3.org/2000/svg" xmlns:xlink="http://www.w3.org/1999/xlink">
    <!-- Generator: Sketch 49.3 (51167) - http://www.bohemiancoding.com/sketch -->
    <title>Page 1 Copy</title>
    <desc>Created with Sketch.</desc>
    <defs></defs>
    <g id="Symbols" stroke="none" stroke-width="1" fill="none" fill-rule="evenodd">
        <g id="footer" transform="translate(-522.000000, -138.000000)" fill="#787D91">
            <g id="Page-1-Copy" transform="translate(522.000000, 138.000000)">
                <path d="M5.25313569,13.6404857 L5.25313569,12.4204201 C3.3131976,12.8523688 2.90100803,11.458008 2.90100803,11.458008 C2.77962009,11.0298483 2.51188594,10.658524 2.14469688,10.4084484 C1.51317707,9.96513264 2.1938571,9.97271069 2.1938571,9.97271069 C2.64575301,10.0390186 3.04092559,10.3122072 3.26403738,10.7115703 C3.63765508,11.4322427 4.52291728,11.7130093 5.24216918,11.3390327 C5.25994249,11.3295601 5.27733765,11.3200876 5.2947328,11.3102361 C5.32725418,10.9480054 5.48343243,10.60813 5.73717482,10.347824 C4.18673697,10.1697399 2.55688645,9.55212904 2.55688645,6.80508678 C2.54478548,6.09540261 2.80155311,5.40769479 3.27538204,4.88026268 C3.0655057,4.26151509 3.09122028,3.58668995 3.3472316,2.98575077 C3.3472316,2.98575077 3.93337274,2.79251055 5.26448036,3.72082139 C6.40802281,3.39685985 7.6184988,3.39685985 8.76241941,3.72082139 C10.093527,2.79251055 10.6796682,2.98575077 10.6796682,2.98575077 C10.9371921,3.58668995 10.9610159,4.26227289 10.7477362,4.88026268 C11.2215651,5.40769479 11.4779546,6.09540261 11.4662318,6.80508678 C11.4662318,9.55970709 9.83259968,10.1659509 8.27838027,10.344035 C8.61645135,10.7002033 8.78813398,11.1836827 8.75107474,11.6739824 L8.75107474,13.6404857 C8.75107474,13.8754052 8.87586608,14.0534893 9.23133232,13.9852869 C12.1121215,12.9667973 14.0286139,10.2258175 13.9994959,7.16504404 C14.0456309,3.25401365 10.9190406,0.0466049929 7.01609697,0.000378902382 C7.00437415,0 6.99302948,0 6.98130666,0 C3.07722852,0.0500151144 -0.0478491317,3.2608339 0.000554781613,7.17262209 C-0.0281850419,10.2360478 1.89208896,12.9777855 4.77665967,13.992865 C5.12456279,14.0421223 5.25313569,13.8223589 5.25313569,13.6404857" id="Fill-1"></path>
            </g>
        </g>
    </g>
</svg>