<?xml version="1.0" encoding="UTF-8"?>
<svg width="196px" height="202px" viewBox="0 0 196 202" version="1.1" xmlns="http://www.w3.org/2000/svg" xmlns:xlink="http://www.w3.org/1999/xlink">
    <!-- Generator: Sketch 50.2 (55047) - http://www.bohemiancoding.com/sketch -->
    <title>Page 1</title>
    <desc>Created with Sketch.</desc>
    <defs>
        <path d="M37.657,29.822 L32.605,47.162 C30.782,53.426 27.434,59.169 22.841,63.911 L11.678,75.439 C-17.653,105.727 13.346,154.19 54.26,142.009 L64.538,138.948 C72.498,136.579 81.005,136.579 88.965,138.948 L102.216,142.895 C142.917,155.011 173.951,107.032 145.08,76.619 L132.72,63.6 C128.409,59.056 125.222,53.616 123.402,47.689 L117.756,29.283 C111.825,9.952 94.815,0.324 77.802,0.324 C60.591,0.327 43.377,10.185 37.657,29.822 Z" id="path-1"></path>
        <path d="M0.335,9.941 C0.335,14.953 4.454,19.013 9.536,19.013 C14.618,19.013 18.737,14.953 18.737,9.941 C18.737,4.93 14.618,0.867 9.536,0.867 C4.454,0.867 0.335,4.93 0.335,9.941 Z" id="path-3"></path>
        <path d="M0.466,9.324 C0.466,14.334 4.586,18.399 9.666,18.399 C14.749,18.399 18.869,14.334 18.869,9.324 C18.869,4.314 14.749,0.253 9.666,0.253 C4.586,0.253 0.466,4.314 0.466,9.324 Z" id="path-5"></path>
        <path d="M0.069,9.324 C0.069,14.334 4.186,18.399 9.269,18.399 C14.352,18.399 18.473,14.334 18.473,9.324 C18.473,4.314 14.352,0.253 9.269,0.253 C4.186,0.253 0.069,4.314 0.069,9.324 Z" id="path-7"></path>
    </defs>
    <g id="final" stroke="none" stroke-width="1" fill="none" fill-rule="evenodd">
        <g id="Our-Vision" transform="translate(-151.000000, -1853.000000)">
            <g id="Page-1" transform="translate(151.000000, 1853.000000)">
                <g id="Group-3" transform="translate(19.000000, 24.600000)">
                    <mask id="mask-2" fill="white">
                        <use xlink:href="#path-1"></use>
                    </mask>
                    <g id="Clip-2"></g>
                    <polygon id="Fill-1" fill="#F2D021" mask="url(#mask-2)" points="-14.441 159.375 170.913 159.375 170.913 -14.237 -14.441 -14.237"></polygon>
                </g>
                <path d="M173.6686,161.9955 C169.2186,161.9955 165.5976,158.3745 165.5976,153.9245 C165.5976,149.4745 169.2186,145.8535 173.6686,145.8535 C178.1186,145.8535 181.7366,149.4745 181.7366,153.9245 C181.7366,158.3745 178.1156,161.9955 173.6686,161.9955 Z M173.6686,139.2025 C165.5516,139.2025 158.9456,145.8075 158.9456,153.9245 C158.9456,157.7585 160.4316,161.2455 162.8446,163.8665 C146.6316,183.0015 122.4526,195.1835 95.4666,195.1835 C75.8996,195.1835 57.8176,188.7625 43.1646,177.9505 L47.5176,172.9975 L28.0036,169.0955 L34.3846,187.9455 L38.7656,182.9595 C54.6016,194.7945 74.2196,201.8365 95.4666,201.8365 C124.7256,201.8365 150.8996,188.5045 168.3336,167.6315 C169.9896,168.2785 171.7856,168.6465 173.6666,168.6465 C181.7806,168.6465 188.3866,162.0415 188.3866,153.9245 C188.3866,145.8075 181.7836,139.2025 173.6686,139.2025 Z M95.4666,23.2905 C91.0176,23.2905 87.3976,19.6695 87.3976,15.2195 C87.3976,10.7695 91.0176,7.1485 95.4666,7.1485 C99.9166,7.1485 103.5356,10.7695 103.5356,15.2195 C103.5356,19.6695 99.9166,23.2905 95.4666,23.2905 Z M189.3886,120.5955 C190.0516,116.1095 190.4376,111.5335 190.4376,106.8665 C190.4376,59.4465 155.4916,20.0655 110.0076,13.0445 C108.9476,5.9585 102.8416,0.5015 95.4666,0.5015 C87.3496,0.5015 80.7466,7.1065 80.7466,15.2245 C80.7466,23.3415 87.3526,29.9465 95.4666,29.9465 C102.0296,29.9465 107.5996,25.6275 109.4926,19.6835 C151.5476,26.4235 183.7856,62.9455 183.7856,106.8705 C183.7856,111.0275 183.4546,115.1025 182.8906,119.1045 L176.5796,117.6555 L182.4156,136.6815 L195.9766,122.1185 L189.3886,120.5955 Z M25.3386,153.9245 C25.3386,158.3745 21.7196,161.9955 17.2706,161.9955 C12.8196,161.9955 9.2006,158.3745 9.2006,153.9245 C9.2006,149.4745 12.8196,145.8535 17.2706,145.8535 C21.7196,145.8535 25.3386,149.4745 25.3386,153.9245 Z M75.5516,17.2925 L56.0206,13.4855 L58.1156,19.5835 C24.2696,34.1195 0.4966,67.7565 0.4966,106.8635 C0.4966,119.5935 3.0596,131.7245 7.6246,142.8275 C4.5226,145.5305 2.5476,149.4965 2.5476,153.9245 C2.5476,162.0415 9.1516,168.6465 17.2676,168.6465 C25.3826,168.6465 31.9876,162.0415 31.9876,153.9245 C31.9876,145.8075 25.3826,139.2025 17.2676,139.2025 C15.9726,139.2025 14.7226,139.3865 13.5246,139.7035 C9.4346,129.5445 7.1476,118.4735 7.1476,106.8635 C7.1476,70.6675 29.0496,39.5175 60.2856,25.8975 L62.4876,32.3055 L75.5516,17.2925 Z" id="Fill-4" fill="#133055"></path>
                <g id="Group-8" transform="translate(86.000000, 5.600000)">
                    <mask id="mask-4" fill="white">
                        <use xlink:href="#path-3"></use>
                    </mask>
                    <g id="Clip-7"></g>
                    <polygon id="Fill-6" fill="#133055" mask="url(#mask-4)" points="-21.512 40.857 40.585 40.857 40.585 -20.978 -21.512 -20.978"></polygon>
                </g>
                <g id="Group-11" transform="translate(164.000000, 144.600000)">
                    <mask id="mask-6" fill="white">
                        <use xlink:href="#path-5"></use>
                    </mask>
                    <g id="Clip-10"></g>
                    <polygon id="Fill-9" fill="#133055" mask="url(#mask-6)" points="-21.381 40.242 40.716 40.242 40.716 -21.593 -21.381 -21.593"></polygon>
                </g>
                <g id="Group-14" transform="translate(8.000000, 144.600000)">
                    <mask id="mask-8" fill="white">
                        <use xlink:href="#path-7"></use>
                    </mask>
                    <g id="Clip-13"></g>
                    <polygon id="Fill-12" fill="#133055" mask="url(#mask-8)" points="-21.779 40.242 40.318 40.242 40.318 -21.593 -21.779 -21.593"></polygon>
                </g>
                <g id="Group-25" transform="translate(52.000000, 66.600000)" fill="#133055">
                    <path d="M2.5094,48.3711 L11.1514,48.3711 C12.3444,48.3711 13.3114,49.3381 13.3114,50.5311 L13.3114,72.1361 C13.3114,73.3281 12.3444,74.2961 11.1514,74.2961 L2.5094,74.2961 C1.3164,74.2961 0.3494,73.3281 0.3494,72.1361 L0.3494,50.5311 C0.3494,49.3381 1.3164,48.3711 2.5094,48.3711" id="Fill-15"></path>
                    <path d="M24.1129,31.0879 L32.7549,31.0879 C33.9479,31.0879 34.9159,32.0549 34.9159,33.2479 L34.9159,72.1359 C34.9159,73.3279 33.9479,74.2959 32.7549,74.2959 L24.1129,74.2959 C22.9209,74.2959 21.9529,73.3279 21.9529,72.1359 L21.9529,33.2479 C21.9529,32.0549 22.9209,31.0879 24.1129,31.0879" id="Fill-17"></path>
                    <path d="M45.7174,39.7295 L54.3594,39.7295 C55.5524,39.7295 56.5194,40.6965 56.5194,41.8895 L56.5194,72.1355 C56.5194,73.3285 55.5524,74.2955 54.3594,74.2955 L45.7174,74.2955 C44.5244,74.2955 43.5574,73.3285 43.5574,72.1355 L43.5574,41.8895 C43.5574,40.6965 44.5244,39.7295 45.7174,39.7295" id="Fill-19"></path>
                    <path d="M67.3209,26.7676 L75.9629,26.7676 C77.1559,26.7676 78.1239,27.7346 78.1239,28.9276 L78.1239,72.1356 C78.1239,73.3286 77.1559,74.2956 75.9629,74.2956 L67.3209,74.2956 C66.1289,74.2956 65.1609,73.3286 65.1609,72.1356 L65.1609,28.9276 C65.1609,27.7346 66.1289,26.7676 67.3209,26.7676" id="Fill-21"></path>
                    <path d="M68.2281,12.8105 C69.2511,13.4545 70.4341,13.7975 71.6421,13.8045 C75.2211,13.8025 78.1221,10.8995 78.1201,7.3205 C78.1181,3.7415 75.2141,0.8405 71.6351,0.8425 C68.0551,0.8445 65.1561,3.7475 65.1581,7.3275 C65.1581,8.0615 65.2831,8.7905 65.5281,9.4845 L54.7261,15.9645 C52.2291,13.4005 48.1251,13.3445 45.5611,15.8415 C45.1001,16.2905 44.7081,16.8055 44.3991,17.3695 L34.9151,12.4875 C34.9361,12.2065 34.9361,11.9245 34.9151,11.6445 C34.9151,8.0645 32.0131,5.1635 28.4341,5.1635 C24.8551,5.1635 21.9531,8.0645 21.9531,11.6445 C21.9541,12.4975 22.1231,13.3415 22.4501,14.1285 L10.0711,23.3535 C9.0911,22.7655 7.9721,22.4525 6.8311,22.4465 C3.2501,22.4465 0.3491,25.3475 0.3491,28.9275 C0.3491,32.5065 3.2501,35.4085 6.8311,35.4085 C10.4101,35.4085 13.3111,32.5065 13.3111,28.9275 C13.3011,28.1445 13.1551,27.3705 12.8791,26.6375 L25.3671,17.3265 C27.8181,18.6845 30.8701,18.2815 32.8841,16.3315 L43.6861,21.7115 C44.3941,25.2205 47.8131,27.4915 51.3221,26.7835 C54.3991,26.1625 56.5891,23.4245 56.5191,20.2865 L56.5191,19.8105 L68.2281,12.8105 Z" id="Fill-23"></path>
                </g>
            </g>
        </g>
    </g>
</svg>