<?xml version="1.0" encoding="UTF-8"?>
<svg width="48px" height="37px" viewBox="0 0 48 37" version="1.1" xmlns="http://www.w3.org/2000/svg" xmlns:xlink="http://www.w3.org/1999/xlink">
    <!-- Generator: Sketch 54.1 (76490) - https://sketchapp.com -->
    <title>icon</title>
    <desc>Created with Sketch.</desc>
    <defs>
        <polygon id="path-1" points="0.130386885 0.148196721 38.2712131 0.148196721 38.2712131 35.8657049 0.130386885 35.8657049"></polygon>
    </defs>
    <g id="final" stroke="none" stroke-width="1" fill="none" fill-rule="evenodd">
        <g id="Homepage-NEW" transform="translate(-1207.000000, -835.000000)">
            <g id="Products" transform="translate(102.000000, 641.000000)">
                <g id="Arranger" transform="translate(888.000000, 178.000000)">
                    <g id="icon" transform="translate(217.000000, 16.000000)">
                        <g id="Group-3" transform="translate(9.704918, 0.114098)">
                            <mask id="mask-2" fill="white">
                                <use xlink:href="#path-1"></use>
                            </mask>
                            <g id="Clip-2"></g>
                            <path d="M35.7198951,25.6605902 L30.6174689,25.6605902 C29.2141902,25.6605902 28.0661246,26.8086557 28.0661246,28.2119344 L28.0661246,33.3143607 C28.0661246,34.7176393 29.2141902,35.8657049 30.6174689,35.8657049 L35.7198951,35.8657049 C37.1231738,35.8657049 38.2712393,34.7176393 38.2712393,33.3143607 L38.2712393,28.2119344 C38.2712393,26.8086557 37.1231738,25.6605902 35.7198951,25.6605902 M22.9636984,25.6605902 L17.8612721,25.6605902 C16.4579934,25.6605902 15.3099279,26.8086557 15.3099279,28.2119344 L15.3099279,33.3143607 C15.3099279,34.7176393 16.4579934,35.8657049 17.8612721,35.8657049 L22.9636984,35.8657049 C24.366977,35.8657049 25.5147803,34.7176393 25.5147803,33.3143607 L25.5147803,28.2119344 C25.5147803,26.8086557 24.366977,25.6605902 22.9636984,25.6605902 M10.2075016,25.6605902 L5.10481311,25.6605902 C3.70179672,25.6605902 2.55373115,26.8086557 2.55373115,28.2119344 L2.55373115,33.3143607 C2.55373115,34.7176393 3.70179672,35.8657049 5.10481311,35.8657049 L10.2075016,35.8657049 C11.610518,35.8657049 12.7585836,34.7176393 12.7585836,33.3143607 L12.7585836,28.2119344 C12.7585836,26.8086557 11.610518,25.6605902 10.2075016,25.6605902 M35.7198951,12.9043934 L30.6174689,12.9043934 C29.2141902,12.9043934 28.0661246,14.052459 28.0661246,15.4557377 L28.0661246,20.5581639 C28.0661246,21.9611803 29.2141902,23.1092459 30.6174689,23.1092459 L35.7198951,23.1092459 C37.1231738,23.1092459 38.2712393,21.9611803 38.2712393,20.5581639 L38.2712393,15.4557377 C38.2712393,14.052459 37.1231738,12.9043934 35.7198951,12.9043934 M22.9636984,12.9043934 L17.8612721,12.9043934 C16.4579934,12.9043934 15.3099279,14.052459 15.3099279,15.4557377 L15.3099279,20.5581639 C15.3099279,21.9611803 16.4579934,23.1092459 17.8612721,23.1092459 L22.9636984,23.1092459 C24.366977,23.1092459 25.5147803,21.9611803 25.5147803,20.5581639 L25.5147803,15.4557377 C25.5147803,14.052459 24.366977,12.9043934 22.9636984,12.9043934 M9.6016,11.4890492 L3.28763279,11.4890492 C1.55123934,11.4890492 0.130386885,12.9096393 0.130386885,14.6460328 L0.130386885,20.9602623 C0.130386885,22.6966557 1.55123934,24.1172459 3.28763279,24.1172459 L9.6016,24.1172459 C11.3379934,24.1172459 12.7585836,22.6966557 12.7585836,20.9602623 L12.7585836,14.6460328 C12.7585836,12.9096393 11.3379934,11.4890492 9.6016,11.4890492 M35.7198951,0.148196721 L30.6174689,0.148196721 C29.2141902,0.148196721 28.0661246,1.2962623 28.0661246,2.69927869 L28.0661246,7.80196721 C28.0661246,9.20498361 29.2141902,10.3530492 30.6174689,10.3530492 L35.7198951,10.3530492 C37.1231738,10.3530492 38.2712393,9.20498361 38.2712393,7.80196721 L38.2712393,2.69927869 C38.2712393,1.2962623 37.1231738,0.148196721 35.7198951,0.148196721 M22.9636984,0.148196721 L17.8612721,0.148196721 C16.4579934,0.148196721 15.3099279,1.2962623 15.3099279,2.69927869 L15.3099279,7.80196721 C15.3099279,9.20498361 16.4579934,10.3530492 17.8612721,10.3530492 L22.9636984,10.3530492 C24.366977,10.3530492 25.5147803,9.20498361 25.5147803,7.80196721 L25.5147803,2.69927869 C25.5147803,1.2962623 24.366977,0.148196721 22.9636984,0.148196721 M10.2075016,0.148196721 L5.10481311,0.148196721 C3.70179672,0.148196721 2.55373115,1.2962623 2.55373115,2.69927869 L2.55373115,7.80196721 C2.55373115,9.20498361 3.70179672,10.3530492 5.10481311,10.3530492 L10.2075016,10.3530492 C11.610518,10.3530492 12.7585836,9.20498361 12.7585836,7.80196721 L12.7585836,2.69927869 C12.7585836,1.2962623 11.610518,0.148196721 10.2075016,0.148196721" id="Fill-1" fill="#04A0D8" mask="url(#mask-2)"></path>
                        </g>
                        <path d="M12.8199344,26.0495475 C8.46295082,26.0495475 4.93088525,22.517482 4.93088525,18.1604984 C4.93088525,13.8035148 8.46295082,10.2717115 12.8199344,10.2717115 C17.176918,10.2717115 20.7089836,13.8035148 20.7089836,18.1604984 C20.7089836,22.517482 17.176918,26.0495475 12.8199344,26.0495475 L12.8199344,26.0495475 Z M23.4601967,25.3132852 C27.4100984,19.4373508 25.8483934,11.4719738 19.9727213,7.52233443 C14.0967869,3.57243279 6.13140984,5.13387541 2.1815082,11.0098098 C-1.76813115,16.8857443 -0.206688525,24.8511213 5.6692459,28.8007607 C9.99396721,31.707777 15.648,31.707777 19.9727213,28.8007607 L27.3487213,36.1738754 C28.344918,37.1018754 29.9047869,37.0467934 30.8330492,36.050859 C31.7154098,35.1039738 31.7154098,33.6361705 30.8330492,32.6892852 L23.4601967,25.3132852 Z" id="Fill-4" fill="#133055"></path>
                    </g>
                </g>
            </g>
        </g>
    </g>
</svg>