<?xml version="1.0" encoding="UTF-8"?>
<svg width="59px" height="64px" viewBox="0 0 59 64" version="1.1" xmlns="http://www.w3.org/2000/svg" xmlns:xlink="http://www.w3.org/1999/xlink">
    <!-- Generator: Sketch 51.2 (57519) - http://www.bohemiancoding.com/sketch -->
    <title>Group 5</title>
    <desc>Created with Sketch.</desc>
    <defs></defs>
    <g id="final" stroke="none" stroke-width="1" fill="none" fill-rule="evenodd">
        <g id="Riff" transform="translate(-543.000000, -764.000000)">
            <g id="Group-5" transform="translate(543.000000, 764.000000)">
                <path d="M46.1860091,12.2650276 L49.3650697,11.901108 C56.3742372,11.0987701 61.012229,18.8868279 56.8858377,24.5295039 L55.0142673,27.0887666 C52.945074,29.9179388 52.973263,33.7424948 55.0838402,36.5421041 L56.9931959,39.0741688 C61.2026548,44.6568321 56.679818,52.5105196 49.6598548,51.8089913 L46.4756961,51.4908942 C42.9556684,51.1390953 39.6098728,53.0754671 38.20612,56.2771322 L36.9361151,59.1731166 C34.1364066,65.5581178 24.975578,65.6237475 22.082006,59.2795432 L20.7694177,56.4021834 C19.3185833,53.2209167 15.9445987,51.3327325 12.4299689,51.735084 L9.25090824,52.0990036 C2.24174077,52.9013415 -2.3962511,45.1132837 1.73014022,39.4706077 L3.60201047,36.911345 C5.67090391,34.0821728 5.6427149,30.2573212 3.53213771,27.4580076 L1.62278207,24.9259428 C-2.58637698,19.3432795 1.9361599,11.489592 8.95642304,12.1911203 L12.1402818,12.5092174 C15.6603095,12.8610163 19.0061052,10.9246445 20.4101578,7.72297939 L21.6798628,4.82699497 C24.4795713,-1.55800621 33.6404,-1.62393154 36.5339719,4.72056842 L37.8465602,7.5979282 C39.2973946,10.7791949 42.6713792,12.6673791 46.1860091,12.2650276" id="Fill-10" fill="#F2D021"></path>
                <g id="Page-1" transform="translate(11.000000, 15.000000)" fill="#133055">
                    <path d="M18.5194532,0 C17.7802313,0 17.1577287,0.606315789 17.1577287,1.32631579 C17.1577287,2.04631579 17.7802313,2.65263158 18.5194532,2.65263158 C27.1955836,2.65263158 34.276551,9.54947368 34.276551,18 C34.276551,26.4505263 27.1955836,33.3473684 18.5194532,33.3473684 C9.84332282,33.3473684 2.76235542,26.4505263 2.76235542,18 C2.76235542,13.9073684 4.39642482,10.0421053 7.39221872,7.16210526 L7.54784437,7.01052632 L7.54784437,8.60210526 C7.54784437,9.32210526 8.170347,9.92842105 8.90956887,9.92842105 C9.64879075,9.92842105 10.2712934,9.32210526 10.2712934,8.60210526 L10.2712934,3.78947368 C10.2712934,3.71368421 10.2712934,3.6 10.232387,3.52421053 C10.232387,3.48631579 10.1934805,3.44842105 10.1934805,3.41052632 C10.1934805,3.37263158 10.1545741,3.33473684 10.1545741,3.25894737 C10.1545741,3.22105263 10.1156677,3.18315789 10.0767613,3.14526316 C10.0767613,3.10736842 10.0378549,3.06947368 10.0378549,3.03157895 C9.99894848,2.95578947 9.92113565,2.88 9.88222923,2.84210526 C9.8044164,2.76631579 9.76550999,2.72842105 9.68769716,2.69052632 C9.64879075,2.65263158 9.60988433,2.65263158 9.57097792,2.61473684 C9.5320715,2.57684211 9.49316509,2.57684211 9.45425868,2.53894737 C9.41535226,2.53894737 9.37644585,2.50105263 9.29863302,2.50105263 C9.2597266,2.50105263 9.22082019,2.46315789 9.18191377,2.46315789 L8.90956887,2.46315789 L3.92954784,2.46315789 C3.19032597,2.46315789 2.56782334,3.06947368 2.56782334,3.78947368 C2.56782334,4.50947368 3.19032597,5.11578947 3.92954784,5.11578947 L5.56361725,5.11578947 L5.40799159,5.26736842 C1.9064143,8.67789474 0,13.1873684 0,18 C0,27.9284211 8.28706625,36 18.4805468,36 C28.6740273,36 37,27.9284211 37,18 C37,8.07157895 28.7129338,0 18.5194532,0" id="Fill-1"></path>
                    <path d="M17.0474308,17.9677606 C17.0474308,18.003863 17.0948617,18.0399653 17.0948617,18.0760677 C17.0948617,18.1118091 17.1422925,18.1482725 17.1422925,18.2204773 C17.1422925,18.2565797 17.1897233,18.292321 17.2371542,18.3287844 C17.2371542,18.3648868 17.284585,18.4009892 17.284585,18.4370916 C17.3320158,18.5092964 17.4268775,18.5815011 17.4743083,18.6176035 L20.1304348,20.6389761 C20.4624506,20.8920539 20.8893281,21 21.3162055,21 C21.743083,21 22.1699605,20.8920539 22.5019763,20.6389761 C23.1660079,20.1339038 23.1660079,19.3396513 22.5019763,18.8338568 L20.3201581,17.1735081 L20.3201581,12.2635835 C20.3201581,11.5776382 19.5612648,11 18.6600791,11 C17.7588933,11 17,11.5776382 17,12.2635835 L17,17.7150439 C17,17.7872486 17,17.8955558 17.0474308,17.9677606" id="Fill-3"></path>
                    <path d="M18,9.68292683 C22.5993031,9.68292683 26.3170732,13.4006969 26.3170732,18 C26.3170732,22.5993031 22.5993031,26.3170732 18,26.3170732 C13.4006969,26.3170732 9.68292683,22.5993031 9.68292683,18 C9.68292683,13.4006969 13.4006969,9.68292683 18,9.68292683 M18,29 C24.0557491,29 29,24.0557491 29,18 C29,11.9442509 24.0557491,7 18,7 C11.9442509,7 7,11.9442509 7,18 C7,24.0557491 11.9442509,29 18,29" id="Fill-5"></path>
                </g>
            </g>
        </g>
    </g>
</svg>