<svg width="60" height="60" viewBox="0 0 60 60" fill="none" xmlns="http://www.w3.org/2000/svg">
<circle cx="30" cy="30" r="30" fill="#F5DE63"/>
<circle cx="32.994" cy="32.994" r="9.99398" fill="white"/>
<path fill-rule="evenodd" clip-rule="evenodd" d="M8.17365 24.8275C8.26955 24.2837 8.78818 23.9205 9.33204 24.0164L14.2558 24.8846C14.7997 24.9805 15.1628 25.4991 15.0669 26.043C14.971 26.5869 14.4524 26.95 13.9085 26.8541L8.98477 25.9859C8.4409 25.89 8.07775 25.3714 8.17365 24.8275Z" fill="black"/>
<path fill-rule="evenodd" clip-rule="evenodd" d="M45.6714 25.5433C45.5755 24.9995 45.9387 24.4809 46.4826 24.385L51.4063 23.5168C51.9502 23.4209 52.4688 23.784 52.5647 24.3279C52.6606 24.8717 52.2975 25.3904 51.7536 25.4863L46.8298 26.3545C46.286 26.4504 45.7673 26.0872 45.6714 25.5433Z" fill="black"/>
<path fill-rule="evenodd" clip-rule="evenodd" d="M14.2311 13.961C14.6216 13.5705 15.2547 13.5705 15.6452 13.961L19.1806 17.4963C19.5711 17.8868 19.5711 18.5199 19.1806 18.9104C18.7901 19.3009 18.1569 19.3009 17.7664 18.9104L14.2311 15.3751C13.8406 14.9846 13.8406 14.3515 14.2311 13.961Z" fill="black"/>
<path fill-rule="evenodd" clip-rule="evenodd" d="M41.7295 18.9107C41.339 18.5202 41.339 17.887 41.7295 17.4965L45.2649 13.9612C45.6554 13.5707 46.2885 13.5707 46.679 13.9612C47.0695 14.3517 47.0695 14.9848 46.679 15.3753L43.1437 18.9107C42.7532 19.3012 42.12 19.3012 41.7295 18.9107Z" fill="black"/>
<path fill-rule="evenodd" clip-rule="evenodd" d="M30.2169 9C30.7015 9 31.0944 9.44902 31.0944 10.0029L31.0944 15.0175C31.0944 15.5714 30.7015 16.0204 30.2169 16.0204C29.7322 16.0204 29.3393 15.5714 29.3393 15.0175L29.3393 10.0029C29.3393 9.44902 29.7322 9 30.2169 9Z" fill="black"/>
<path fill-rule="evenodd" clip-rule="evenodd" d="M25.1122 44.6746C25.2415 44.2361 25.6608 43.9991 26.0487 44.1452C26.0919 44.1615 26.1355 44.178 26.1796 44.1947C26.8982 44.4665 27.7462 44.7872 28.8681 44.9457C30.2176 45.1364 30.9118 45.0586 31.4916 44.9936C31.7451 44.9652 31.9767 44.9393 32.2315 44.9393C32.6404 44.9393 32.9719 45.314 32.9719 45.7763C32.9719 46.2385 32.6404 46.6133 32.2315 46.6133C32.1285 46.6133 31.9886 46.6287 31.8085 46.6486C31.225 46.7129 30.2199 46.8238 28.6844 46.6068C27.4124 46.4271 26.442 46.0595 25.7205 45.7863C25.6727 45.7682 25.6261 45.7505 25.5805 45.7333C25.1925 45.5871 24.9829 45.1131 25.1122 44.6746Z" fill="black"/>
<path fill-rule="evenodd" clip-rule="evenodd" d="M25.1122 47.3074C25.2415 46.8689 25.6608 46.6319 26.0487 46.778C26.0919 46.7943 26.1355 46.8108 26.1796 46.8275C26.8982 47.0993 27.7462 47.42 28.8681 47.5786C30.2176 47.7692 30.9118 47.6914 31.4916 47.6264C31.7451 47.598 31.9767 47.5721 32.2315 47.5721C32.6404 47.5721 32.9719 47.9468 32.9719 48.4091C32.9719 48.8713 32.6404 49.2461 32.2315 49.2461C32.1285 49.2461 31.9886 49.2615 31.8085 49.2814C31.225 49.3457 30.2199 49.4566 28.6844 49.2396C27.4124 49.0599 26.442 48.6924 25.7205 48.4191C25.6727 48.401 25.6261 48.3833 25.5805 48.3661C25.1925 48.22 24.9829 47.7459 25.1122 47.3074Z" fill="black"/>
<path fill-rule="evenodd" clip-rule="evenodd" d="M30.6556 20.6437C24.2361 20.6437 19.0321 25.8803 19.0321 32.34C19.0321 37.0813 21.8357 41.1658 25.8699 43.0024C26.2239 43.1635 26.4514 43.5183 26.4514 43.9093V48.5158C26.4514 49.3404 27.1157 50.0089 27.9352 50.0089H32.8814C33.7009 50.0089 34.3653 49.3404 34.3653 48.5158V44.1217C34.3653 43.7152 34.6109 43.3496 34.9858 43.198C39.2625 41.4694 42.2792 37.258 42.2792 32.34C42.2792 25.8803 37.0751 20.6437 30.6556 20.6437ZM17.0536 32.34C17.0536 24.7808 23.1434 18.6528 30.6556 18.6528C38.1678 18.6528 44.2577 24.7808 44.2577 32.34C44.2577 37.8573 41.0138 42.61 36.3438 44.7763V48.5158C36.3438 50.4399 34.7936 51.9998 32.8814 51.9998H27.9352C26.023 51.9998 24.4729 50.4399 24.4729 48.5158V44.5345C20.0704 42.27 17.0536 37.6605 17.0536 32.34Z" fill="black"/>
</svg>
