<svg width="60" height="60" viewBox="0 0 60 60" fill="none" xmlns="http://www.w3.org/2000/svg">
<circle cx="30" cy="30" r="30" fill="#F5DE63"/>
<path fill-rule="evenodd" clip-rule="evenodd" d="M23.977 39.6327V42.7958L27.1134 39.6327H44.4598C45.3675 39.6327 46.1035 38.9185 46.1035 38.0375V23.4357C46.1035 22.5547 45.3675 21.8406 44.4598 21.8406H18.5402C17.6325 21.8406 16.8966 22.5547 16.8966 23.4357V38.0375C16.8966 38.9185 17.6325 39.6327 18.5402 39.6327H23.977ZM22.5155 46.9243C22.3577 47.0834 22.0805 46.975 22.0805 46.7541V41.4733H18.5402C16.585 41.4733 15 39.935 15 38.0375V23.4357C15 21.5382 16.585 20 18.5402 20H44.4598C46.415 20 48 21.5382 48 23.4357V38.0375C48 39.935 46.415 41.4733 44.4598 41.4733H27.9204L22.5155 46.9243Z" fill="white"/>
<path fill-rule="evenodd" clip-rule="evenodd" d="M22.249 39.087V42.4844L25.4805 39.087H43.3525C44.2878 39.087 45.046 38.3199 45.046 37.3736V21.6902C45.046 20.744 44.2878 19.9769 43.3525 19.9769H16.6475C15.7122 19.9769 14.954 20.744 14.954 21.6902V37.3736C14.954 38.3199 15.7122 39.087 16.6475 39.087H22.249ZM20.7433 46.9187C20.5807 47.0896 20.295 46.9732 20.295 46.7359V41.0639H16.6475C14.633 41.0639 13 39.4117 13 37.3736V21.6902C13 19.6522 14.633 18 16.6475 18H43.3525C45.367 18 47 19.6522 47 21.6902V37.3736C47 39.4117 45.367 41.0639 43.3525 41.0639H26.3119L20.7433 46.9187Z" fill="black"/>
<path fill-rule="evenodd" clip-rule="evenodd" d="M25.6599 25.8947C26.0149 26.2996 25.9818 26.9221 25.5859 27.2852L22.5789 30.0432L25.546 32.4806C25.9606 32.8212 26.0268 33.441 25.6938 33.865C25.3608 34.289 24.7547 34.3567 24.3401 34.0161L20.4887 30.8523C20.2683 30.6712 20.1369 30.4003 20.1292 30.1113C20.1215 29.8223 20.2384 29.5444 20.4488 29.3514L24.3002 25.819C24.6961 25.4559 25.3049 25.4898 25.6599 25.8947Z" fill="black"/>
<path fill-rule="evenodd" clip-rule="evenodd" d="M35.1616 33.9182C34.7869 33.5283 34.8218 32.9288 35.2397 32.5792L38.4138 29.9234L35.2818 27.5762C34.8442 27.2483 34.7744 26.6514 35.1259 26.2431C35.4774 25.8348 36.1171 25.7696 36.5547 26.0976L40.6201 29.1442C40.8527 29.3186 40.9915 29.5795 40.9996 29.8578C41.0077 30.1361 40.8844 30.4036 40.6622 30.5895L36.5968 33.9911C36.1789 34.3407 35.5364 34.3081 35.1616 33.9182Z" fill="black"/>
<path fill-rule="evenodd" clip-rule="evenodd" d="M33.6065 24.0461C34.0912 24.2876 34.2883 24.8763 34.0468 25.361L29.0917 35.3058C28.8502 35.7905 28.2615 35.9876 27.7768 35.7461C27.2921 35.5046 27.0949 34.9159 27.3364 34.4312L32.2915 24.4864C32.533 24.0017 33.1218 23.8046 33.6065 24.0461Z" fill="black"/>
</svg>
