<svg width="60" height="60" viewBox="0 0 60 60" fill="none" xmlns="http://www.w3.org/2000/svg">
<circle cx="30" cy="30" r="30" fill="#F5DE63"/>
<path d="M21.175 22.1319C21.0583 21.3796 21 20.6129 21 19.8317C21.0292 19.0505 21.175 18.2838 21.4375 17.5315C21.7583 16.5478 22.2833 15.6798 23.0124 14.9275C23.7415 14.1753 24.5727 13.5821 25.506 13.1481C26.4976 12.6852 27.5038 12.3669 28.5246 12.1933C29.5746 11.9908 30.5953 11.9474 31.587 12.0631C32.6077 12.1789 33.5848 12.4393 34.5181 12.8443C35.4805 13.2205 36.3846 13.7702 37.2304 14.4935C38.1345 15.2747 38.8053 16.1861 39.2428 17.2277C39.7095 18.2404 39.9574 19.2964 39.9865 20.3959C40.0449 21.4954 39.9136 22.5948 39.5928 23.6943C39.3012 24.7648 38.8491 25.763 38.2366 26.6889C38.2366 26.6889 38.222 26.7178 38.1929 26.7757C37.6971 27.4411 37.1283 28.0487 36.4867 28.5985C35.8451 29.1193 35.2472 29.6835 34.6931 30.2911C34.0514 30.9565 33.6723 31.6365 33.5556 32.3309C33.439 32.9963 33.3223 33.7486 33.2056 34.5876C33.1181 35.3978 32.8994 36.1066 32.5494 36.7142C32.2286 37.2929 31.6161 37.5678 30.712 37.5388C30.0995 37.5099 29.6329 37.3218 29.3121 36.9746C29.0204 36.5985 28.8017 36.1645 28.6559 35.6726C28.5392 35.1518 28.4955 34.6166 28.5246 34.0668C28.5538 33.4882 28.5975 32.9819 28.6559 32.5479C28.8309 31.5352 29.1517 30.5804 29.6183 29.6835C30.085 28.7576 30.6537 27.8896 31.3245 27.0795C31.7036 26.6455 32.0828 26.2549 32.4619 25.9077C32.8411 25.5315 33.191 25.1409 33.5119 24.7359C33.8327 24.3308 34.1098 23.8968 34.3431 23.4339C34.5764 22.971 34.7368 22.4357 34.8243 21.8281C34.9118 21.2784 34.868 20.7286 34.6931 20.1789C34.5181 19.6002 34.2556 19.0939 33.9056 18.6599C33.5556 18.197 33.1327 17.8208 32.6369 17.5315C32.1411 17.2132 31.6015 17.0396 31.0182 17.0107C30.4933 16.9818 29.9391 17.0541 29.3558 17.2277C28.7725 17.3724 28.233 17.6183 27.7372 17.9655C27.2414 18.2838 26.833 18.6744 26.5122 19.1373C26.2206 19.6002 26.0893 20.121 26.1185 20.6997C26.1477 21.0469 26.206 21.4086 26.2935 21.7847C26.4101 22.1319 26.4831 22.4791 26.5122 22.8263C26.5706 23.1446 26.556 23.4628 26.4685 23.7811C26.4101 24.0994 26.2206 24.4032 25.8998 24.6925C25.3748 25.1843 24.8498 25.4303 24.3248 25.4303C23.7999 25.4013 23.3186 25.2277 22.8812 24.9095C22.4437 24.5912 22.0645 24.1862 21.7437 23.6943C21.4521 23.1735 21.2625 22.6527 21.175 22.1319ZM33.7744 43.7884C33.7744 44.6275 33.4535 45.3797 32.8119 46.0452C32.1994 46.6817 31.4849 47 30.6683 47C29.8808 47 29.1808 46.6817 28.5684 46.0452C27.9559 45.3508 27.6497 44.5985 27.6497 43.7884C27.6497 42.8915 27.9559 42.1392 28.5684 41.5316C29.1808 40.8662 29.8808 40.5334 30.6683 40.5334C31.4849 40.5334 32.1994 40.8662 32.8119 41.5316C33.4535 42.1682 33.7744 42.9204 33.7744 43.7884Z" fill="white"/>
<path d="M19.175 22.1319C19.0583 21.3796 19 20.6129 19 19.8317C19.0292 19.0505 19.175 18.2838 19.4375 17.5315C19.7583 16.5478 20.2833 15.6798 21.0124 14.9275C21.7415 14.1753 22.5727 13.5821 23.506 13.1481C24.4976 12.6852 25.5038 12.3669 26.5246 12.1933C27.5746 11.9908 28.5953 11.9474 29.587 12.0631C30.6077 12.1789 31.5848 12.4393 32.5181 12.8443C33.4805 13.2205 34.3846 13.7702 35.2304 14.4935C36.1345 15.2747 36.8053 16.1861 37.2428 17.2277C37.7095 18.2404 37.9574 19.2964 37.9865 20.3959C38.0449 21.4954 37.9136 22.5948 37.5928 23.6943C37.3012 24.7648 36.8491 25.763 36.2366 26.6889C36.2366 26.6889 36.222 26.7178 36.1929 26.7757C35.6971 27.4411 35.1283 28.0487 34.4867 28.5985C33.8451 29.1193 33.2472 29.6835 32.6931 30.2911C32.0514 30.9565 31.6723 31.6365 31.5556 32.3309C31.439 32.9963 31.3223 33.7486 31.2056 34.5876C31.1181 35.3978 30.8994 36.1066 30.5494 36.7142C30.2286 37.2929 29.6161 37.5678 28.712 37.5388C28.0995 37.5099 27.6329 37.3218 27.3121 36.9746C27.0204 36.5985 26.8017 36.1645 26.6559 35.6726C26.5392 35.1518 26.4955 34.6166 26.5246 34.0668C26.5538 33.4882 26.5975 32.9819 26.6559 32.5479C26.8309 31.5352 27.1517 30.5804 27.6183 29.6835C28.085 28.7576 28.6537 27.8896 29.3245 27.0795C29.7036 26.6455 30.0828 26.2549 30.4619 25.9077C30.8411 25.5315 31.191 25.1409 31.5119 24.7359C31.8327 24.3308 32.1098 23.8968 32.3431 23.4339C32.5764 22.971 32.7368 22.4357 32.8243 21.8281C32.9118 21.2784 32.868 20.7286 32.6931 20.1789C32.5181 19.6002 32.2556 19.0939 31.9056 18.6599C31.5556 18.197 31.1327 17.8208 30.6369 17.5315C30.1411 17.2132 29.6015 17.0396 29.0182 17.0107C28.4933 16.9818 27.9391 17.0541 27.3558 17.2277C26.7725 17.3724 26.233 17.6183 25.7372 17.9655C25.2414 18.2838 24.833 18.6744 24.5122 19.1373C24.2206 19.6002 24.0893 20.121 24.1185 20.6997C24.1477 21.0469 24.206 21.4086 24.2935 21.7847C24.4101 22.1319 24.4831 22.4791 24.5122 22.8263C24.5706 23.1446 24.556 23.4628 24.4685 23.7811C24.4101 24.0994 24.2206 24.4032 23.8998 24.6925C23.3748 25.1843 22.8498 25.4303 22.3248 25.4303C21.7999 25.4013 21.3186 25.2277 20.8812 24.9095C20.4437 24.5912 20.0645 24.1862 19.7437 23.6943C19.4521 23.1735 19.2625 22.6527 19.175 22.1319ZM31.7744 43.7884C31.7744 44.6275 31.4535 45.3797 30.8119 46.0452C30.1994 46.6817 29.4849 47 28.6683 47C27.8808 47 27.1808 46.6817 26.5684 46.0452C25.9559 45.3508 25.6497 44.5985 25.6497 43.7884C25.6497 42.8915 25.9559 42.1392 26.5684 41.5316C27.1808 40.8662 27.8808 40.5334 28.6683 40.5334C29.4849 40.5334 30.1994 40.8662 30.8119 41.5316C31.4535 42.1682 31.7744 42.9204 31.7744 43.7884Z" fill="black"/>
</svg>
