<svg id="Layer_1" data-name="Layer 1" xmlns="http://www.w3.org/2000/svg" viewBox="0 0 255.92 255.92"><defs><style>.cls-1{fill:#dfa22f;}.cls-2{fill:#3cb187;}.cls-3{fill:#ce1e5b;}.cls-4{fill:#392538;}.cls-5{fill:#bb242a;}.cls-6{fill:#72c5cd;}.cls-7{fill:#248c73;}.cls-8{fill:#62803a;}</style></defs><title>icon-slack</title><path class="cls-1" d="M166,15.84A22.8,22.8,0,1,0,122.6,29.93l59,181.36a22.79,22.79,0,0,0,27.73,14.14c12.1-3.49,19.48-16.34,15.62-28.22C224.75,196.76,166,15.84,166,15.84" transform="translate(0 -0.08)"/><path class="cls-2" d="M74.63,45.52A22.8,22.8,0,0,0,31.26,59.61L90.21,241a22.79,22.79,0,0,0,27.73,14.13c12.1-3.48,19.48-16.33,15.62-28.21-.15-.45-58.93-181.37-58.93-181.37" transform="translate(0 -0.08)"/><path class="cls-3" d="M240.16,166.05a22.8,22.8,0,1,0-14.09-43.37L44.71,181.63a22.79,22.79,0,0,0-14.14,27.73c3.49,12.1,16.34,19.48,28.22,15.62l181.37-58.93" transform="translate(0 -0.08)"/><path class="cls-4" d="M82.51,217.27l43.35-14.08c-3.84-11.81-8.78-27-14.09-43.36L68.42,173.92l14.09,43.35" transform="translate(0 -0.08)"/><path class="cls-5" d="M173.85,187.59l43.35-14.08c-3.84-11.81-8.79-27-14.09-43.36l-43.35,14.09,14.09,43.35" transform="translate(0 -0.08)"/><path class="cls-6" d="M210.48,74.71a22.8,22.8,0,1,0-14.09-43.37L15,90.29A22.79,22.79,0,0,0,.9,118c3.48,12.1,16.33,19.48,28.21,15.62L210.48,74.71" transform="translate(0 -0.08)"/><path class="cls-7" d="M52.82,125.93l43.36-14.08C90.85,95.46,85.9,80.22,82.09,68.49L38.73,82.59l14.09,43.34" transform="translate(0 -0.08)"/><path class="cls-8" d="M144.16,96.26l43.36-14.09c-5.33-16.39-10.28-31.63-14.09-43.36L130.07,52.9l14.09,43.36" transform="translate(0 -0.08)"/></svg>