<svg width="180" height="180" viewBox="0 0 180 180" fill="none" xmlns="http://www.w3.org/2000/svg">
<circle cx="90" cy="90" r="90" fill="#F5DE63"/>
<circle cx="103" cy="66" r="12" fill="white"/>
<path d="M80.7877 132.823C71.5632 127.77 65.8939 131.474 62.0503 132.823L51 110.507C55.324 108.542 65.5095 104.191 71.6592 102.507C79.3464 100.402 85.5922 105.454 87.9945 106.717C90.3967 107.981 94.7207 107.56 100.486 109.244C105.098 110.591 107.212 113.174 107.693 114.296C113.298 113.033 125.469 110.17 129.313 108.823C134.117 107.139 141.324 107.981 144.207 112.191C146.513 115.56 143.246 119.489 141.324 121.033L115.86 129.875C108.013 132.963 90.0123 137.875 80.7877 132.823Z" fill="white"/>
<path d="M106.603 110.602C112.436 109.102 125.103 105.702 129.103 104.102C134.103 102.102 141.603 103.102 144.603 108.102C147.003 112.102 143.603 116.769 141.603 118.602L115.103 129.102C106.936 132.769 88.203 138.602 78.603 132.602C69.003 126.602 63.103 131 59.103 132.602L47.603 106.102C52.103 103.769 62.703 98.6019 69.103 96.6019C77.103 94.1019 83.603 100.102 86.103 101.602C88.603 103.102 93.103 102.602 99.103 104.602C103.903 106.202 106.103 109.269 106.603 110.602ZM106.603 110.602C106.936 112.602 106.703 117.002 103.103 118.602C99.503 120.202 84.2697 116.269 77.103 114.102" stroke="black" stroke-width="6" stroke-linecap="round"/>
<rect x="32" y="103.945" width="13.3048" height="44" rx="5" transform="rotate(-23.1538 32 103.945)" stroke="black" stroke-width="6"/>
<path fill-rule="evenodd" clip-rule="evenodd" d="M99.6028 36C101.094 36 102.303 36.9066 102.303 38.025V54.225C102.303 55.3434 101.094 56.25 99.6028 56.25C98.1117 56.25 96.9028 55.3434 96.9028 54.225V38.025C96.9028 36.9066 98.1117 36 99.6028 36Z" fill="black"/>
<path fill-rule="evenodd" clip-rule="evenodd" d="M99.6028 69.75C101.094 69.75 102.303 70.6566 102.303 71.775V87.975C102.303 89.0934 101.094 90 99.6028 90C98.1117 90 96.9028 89.0934 96.9028 87.975V71.775C96.9028 70.6566 98.1117 69.75 99.6028 69.75Z" fill="black"/>
<path fill-rule="evenodd" clip-rule="evenodd" d="M80.5111 43.9082C81.3222 43.0971 82.6372 43.0971 83.4483 43.9082L95.1971 55.6571C96.0082 56.4682 96.0082 57.7832 95.1971 58.5943C94.3861 59.4054 93.071 59.4054 92.2599 58.5943L80.5111 46.8454C79.7 46.0343 79.7 44.7193 80.5111 43.9082Z" fill="black"/>
<path fill-rule="evenodd" clip-rule="evenodd" d="M104.009 67.4058C104.82 66.5947 106.135 66.5947 106.946 67.4058L118.695 79.1546C119.506 79.9657 119.506 81.2808 118.695 82.0918C117.884 82.9029 116.569 82.9029 115.758 82.0918L104.009 70.343C103.198 69.5319 103.198 68.2169 104.009 67.4058Z" fill="black"/>
<path fill-rule="evenodd" clip-rule="evenodd" d="M118.695 43.9082C119.506 44.7193 119.506 46.0343 118.695 46.8454L106.946 58.5942C106.135 59.4053 104.82 59.4053 104.009 58.5942C103.198 57.7832 103.198 56.4681 104.009 55.657L115.758 43.9082C116.569 43.0971 117.884 43.0971 118.695 43.9082Z" fill="black"/>
<path fill-rule="evenodd" clip-rule="evenodd" d="M95.1976 67.4059C96.0087 68.217 96.0087 69.532 95.1976 70.3431L83.4488 82.0919C82.6377 82.903 81.3226 82.903 80.5115 82.0919C79.7005 81.2808 79.7005 79.9658 80.5115 79.1547L92.2604 67.4059C93.0715 66.5948 94.3865 66.5948 95.1976 67.4059Z" fill="black"/>
<path fill-rule="evenodd" clip-rule="evenodd" d="M126.603 63C126.603 64.4912 125.696 65.7 124.578 65.7L108.378 65.7C107.26 65.7 106.353 64.4912 106.353 63C106.353 61.5089 107.26 60.3 108.378 60.3L124.578 60.3C125.696 60.3 126.603 61.5089 126.603 63Z" fill="black"/>
<path fill-rule="evenodd" clip-rule="evenodd" d="M92.853 63C92.853 64.4912 91.9464 65.7 90.828 65.7L74.628 65.7C73.5096 65.7 72.603 64.4912 72.603 63C72.603 61.5089 73.5096 60.3 74.628 60.3L90.828 60.3C91.9464 60.3 92.853 61.5089 92.853 63Z" fill="black"/>
</svg>
