<svg id="Layer_1" data-name="Layer 1" xmlns="http://www.w3.org/2000/svg" xmlns:xlink="http://www.w3.org/1999/xlink" viewBox="0 0 41.78 53.53"><defs><style>.cls-1,.cls-2{fill:none;}.cls-2{clip-rule:evenodd;}.cls-3{clip-path:url(#clip-path);}.cls-4{clip-path:url(#clip-path-2);}.cls-5{isolation:isolate;}.cls-6{clip-path:url(#clip-path-3);}.cls-7{clip-path:url(#clip-path-4);}.cls-8{fill:#f2d03a;}.cls-9{clip-path:url(#clip-path-6);}.cls-10{clip-path:url(#clip-path-8);}.cls-11{clip-path:url(#clip-path-9);}.cls-12{clip-path:url(#clip-path-10);}.cls-13{fill:#133055;}</style><clipPath id="clip-path"><rect class="cls-1" y="8.17" width="36.6" height="36.83"/></clipPath><clipPath id="clip-path-2"><rect class="cls-1" x="-543.19" y="-784" width="1366" height="3103"/></clipPath><clipPath id="clip-path-3"><rect class="cls-1" x="-0.19" y="8" width="37" height="37"/></clipPath><clipPath id="clip-path-4"><path class="cls-2" d="M36.6,26.58A18.3,18.3,0,1,0,18.3,45,18.35,18.35,0,0,0,36.6,26.58"/></clipPath><clipPath id="clip-path-6"><rect class="cls-1" x="8.81" width="32.97" height="53.53"/></clipPath><clipPath id="clip-path-8"><rect class="cls-1" x="8.81" y="-1" width="33" height="55"/></clipPath><clipPath id="clip-path-9"><path class="cls-2" d="M34.8,29.65A7,7,0,0,0,29.57,32L26.29,29.7a8.83,8.83,0,0,0,0-6.08l3.27-2.29a7,7,0,1,0-1.75-4.62,6.89,6.89,0,0,0,.29,2L24.84,21a9,9,0,0,0-5.58-3.24V13.81a7,7,0,1,0-3,0v4a9,9,0,0,0,.06,17.75v4.22a7,7,0,1,0,3,0V35.52a9.05,9.05,0,0,0,5.49-3.19l3.3,2.33a7,7,0,1,0,6.69-5m0-16.32a3.39,3.39,0,1,1-3.38,3.38,3.39,3.39,0,0,1,3.38-3.38M14.44,7a3.39,3.39,0,1,1,3.39,3.38A3.39,3.39,0,0,1,14.44,7m6.77,39.57a3.39,3.39,0,1,1-3.38-3.38,3.39,3.39,0,0,1,3.38,3.38M17.83,31.36a4.72,4.72,0,1,1,4.72-4.72,4.72,4.72,0,0,1-4.72,4.72M34.8,40a3.39,3.39,0,1,1,3.39-3.39A3.39,3.39,0,0,1,34.8,40"/></clipPath><clipPath id="clip-path-10"><rect class="cls-1" x="8.81" width="33" height="54"/></clipPath></defs><title>icon-kafka</title><g class="cls-3"><g class="cls-4"><g class="cls-5"><g class="cls-6"><g class="cls-7"><g class="cls-6"><rect class="cls-8" x="-5" y="3.17" width="46.6" height="46.83"/></g></g></g></g></g></g><g class="cls-9"><g class="cls-4"><g class="cls-5"><g class="cls-10"><g class="cls-11"><g class="cls-12"><rect class="cls-13" x="3.81" y="-5" width="42.97" height="63.53"/></g></g></g></g></g></g></svg>