<?xml version="1.0" encoding="UTF-8"?>
<svg width="170px" height="185px" viewBox="0 0 170 185" version="1.1" xmlns="http://www.w3.org/2000/svg" xmlns:xlink="http://www.w3.org/1999/xlink">
    <!-- Generator: Sketch 50.2 (55047) - http://www.bohemiancoding.com/sketch -->
    <title>Page 1</title>
    <desc>Created with Sketch.</desc>
    <defs>
        <path d="M0.523914591,86.6137203 C0.523914591,134.232273 38.3437722,172.831839 84.9951601,172.831839 C131.645943,172.831839 169.465801,134.232273 169.465801,86.6137203 C169.465801,38.9975874 131.645943,0.397416084 84.9951601,0.397416084 C38.3437722,0.397416084 0.523914591,38.9975874 0.523914591,86.6137203 Z" id="path-1"></path>
        <path d="M51.7278098,0.281121673 C31.2615815,2.65765779 16.319413,20.8749468 16.319413,41.4675627 L16.319413,63.6447376 L8.449875,63.6447376 C4.51540761,63.6447376 0.580940217,66.8126464 0.580940217,71.5645095 L0.580940217,150.768878 C0.580940217,154.685236 4.4291413,158.602198 8.31957065,158.686837 L103.029717,158.686837 C107.664571,158.602198 110.743614,154.685236 110.743614,150.768878 L110.743614,71.5645095 C110.743614,66.8126464 107.595196,63.6447376 102.874679,63.6447376 L32.0554728,63.6447376 L32.0554728,40.6755856 C32.0554728,28.7947186 39.9250109,18.4990152 50.932712,16.1218745 C65.8917717,13.7465475 79.267875,24.8354373 79.267875,39.8836084 C79.267875,44.636076 83.2023424,47.8039848 87.1368098,47.8039848 C91.0712772,47.8039848 95.0057446,44.636076 95.0057446,39.8836084 C95.0057446,18.2203118 77.5075598,0.0810114068 55.7141576,0.0804068441 C54.3990489,0.0804068441 53.0706685,0.146304183 51.7278098,0.281121673 Z M47.7933424,127.007749 L47.7933424,116.710837 C43.0643804,113.542323 39.9250109,108.791065 39.9250109,103.24662 C39.9250109,92.9497072 49.36725,85.821308 59.5967446,88.1893802 C65.0960707,89.7817985 69.8262391,94.5336616 71.3989402,100.070247 C72.9650054,107.206506 69.0311413,113.542323 63.5300054,116.710837 L63.5300054,127.007749 C63.5300054,131.752357 60.3833967,134.928125 55.6616739,134.928125 C50.932712,134.928125 47.7933424,131.752357 47.7933424,127.007749 Z" id="path-3"></path>
    </defs>
    <g id="final" stroke="none" stroke-width="1" fill="none" fill-rule="evenodd">
        <g id="About-Us" transform="translate(-157.000000, -1087.000000)">
            <g id="Page-1" transform="translate(157.000000, 1087.000000)">
                <g id="Group-3">
                    <mask id="mask-2" fill="white">
                        <use xlink:href="#path-1"></use>
                    </mask>
                    <g id="Clip-2"></g>
                    <polygon id="Fill-1" fill="#F2D021" mask="url(#mask-2)" points="-17.0732028 190.428238 187.063523 190.428238 187.063523 -17.1983776 -17.0732028 -17.1983776"></polygon>
                </g>
                <g id="Group-6" transform="translate(29.000000, 26.000000)">
                    <mask id="mask-4" fill="white">
                        <use xlink:href="#path-3"></use>
                    </mask>
                    <g id="Clip-5"></g>
                    <polygon id="Fill-4" fill="#133055" mask="url(#mask-4)" points="-3.69979891 162.979232 115.024353 162.979232 115.024353 -4.2101749 -3.69979891 -4.2101749"></polygon>
                </g>
                <g id="Group-15" transform="translate(43.000000, 108.000000)">
                    <path d="M70.8592553,61.4197529 L14.5139007,61.4197529 C13.3202837,61.4197529 12.3436879,60.4350471 12.3436879,59.2309098 L12.3436879,2.41885098 C12.3436879,1.21471373 13.3202837,0.230007843 14.5139007,0.230007843 L70.8592553,0.230007843 C72.0522695,0.230007843 73.0294681,1.21471373 73.0294681,2.41885098 L73.0294681,59.2309098 C73.0294681,60.4350471 72.0522695,61.4197529 70.8592553,61.4197529" id="Fill-7" fill="#133055"></path>
                    <path d="M49.5686241,7.31995098 C48.471461,7.39836275 47.4562837,8.18430392 47.0975957,9.23222549 L32.9803617,49.0891078 C32.3196525,50.5193627 33.1141915,52.4395392 34.5875248,52.971402 C36.061461,53.5038725 37.8844397,52.5301078 38.275078,51.0013824 L52.3923121,11.1451078 C53.0373475,9.3775 51.4338014,7.20446078 49.5686241,7.31995098" id="Fill-9" fill="#F2D021"></path>
                    <path d="M25.6135142,14.4371863 C25.178266,14.4718333 24.7514574,14.6098137 24.3783014,14.8371471 L1.79060638,27.648049 C0.0779468085,28.6406569 0.0779468085,31.5941667 1.79060638,32.5855588 L24.3783014,45.3970686 C25.6653582,46.3355784 27.7234433,45.8766569 28.4980887,44.4786176 C29.272734,43.0799706 28.5806773,41.0722647 27.1133723,40.4595588 L8.89383333,30.139598 L27.1133723,19.7746569 C28.2213865,19.1601275 28.8133723,17.7316961 28.4679468,16.5044608 C28.123727,15.2778333 26.8764574,14.3745784 25.6135142,14.4371863" id="Fill-11" fill="#F2D021"></path>
                    <path d="M59.4065,14.4371863 C58.2008262,14.5259314 57.1096915,15.4826765 56.8540887,16.674049 C56.597883,17.8648137 57.1989113,19.1905196 58.2593014,19.7746569 L76.4794433,30.139598 L58.2593014,40.4595588 C56.7919965,41.0722647 56.1005426,43.0799706 56.8745851,44.4786176 C57.6492305,45.8766569 59.7073156,46.3355784 60.9949752,45.3970686 L83.5820674,32.5855588 C85.294727,31.5941667 85.294727,28.6406569 83.5820674,27.648049 L60.9949752,14.8371471 C60.5193369,14.5508529 59.9593014,14.4098333 59.4065,14.4371863" id="Fill-13" fill="#F2D021"></path>
                </g>
            </g>
        </g>
    </g>
</svg>