<?xml version="1.0" encoding="UTF-8"?>
<svg width="31px" height="44px" viewBox="0 0 31 44" version="1.1" xmlns="http://www.w3.org/2000/svg" xmlns:xlink="http://www.w3.org/1999/xlink">
    <!-- Generator: Sketch 49.3 (51167) - http://www.bohemiancoding.com/sketch -->
    <title>Group 11</title>
    <desc>Created with Sketch.</desc>
    <defs>
        <polygon id="path-1" points="0.0011043257 0.0342705167 30.9211196 0.0342705167 30.9211196 44 0.0011043257 44"></polygon>
    </defs>
    <g id="final" stroke="none" stroke-width="1" fill="none" fill-rule="evenodd">
        <g id="Homepage-NEW" transform="translate(-329.000000, -838.000000)">
            <g id="Group-14" transform="translate(103.000000, 712.000000)">
                <g id="Core-bundle">
                    <g id="Group-20" transform="translate(0.000000, 115.000000)">
                        <g id="Group-11" transform="translate(226.000000, 11.000000)">
                            <g id="Page-1">
                                <g id="Group-3">
                                    <mask id="mask-2" fill="white">
                                        <use xlink:href="#path-1"></use>
                                    </mask>
                                    <g id="Clip-2"></g>
                                    <path d="M17.6703155,32.3640663 L17.6703155,35.2182709 C17.6703155,36.5334006 16.786855,37.413813 15.4616641,37.413813 C14.1342646,37.413813 13.2530127,36.5334006 13.2530127,35.2182709 L13.2530127,32.3640663 C11.9256132,31.4858494 11.0443613,30.1685242 11.0443613,28.6316448 C11.0443613,25.7774401 13.694743,23.8014523 16.5659898,24.4579194 C18.1098372,24.8992233 19.4372366,26.2165485 19.8789669,27.7512324 C20.3184885,29.7294158 19.2141628,31.4858494 17.6703155,32.3640663 M28.7135725,17.6539345 L8.83570992,17.6539345 L8.83570992,11.2868626 C8.83570992,7.99354954 11.0443613,5.13934488 14.1342646,4.48068227 C18.3329109,3.82201966 22.0876183,6.89577852 22.0876183,11.0673084 C22.0876183,12.3846336 23.191944,13.2628505 24.2962697,13.2628505 C25.4005954,13.2628505 26.5049211,12.3846336 26.5049211,11.0673084 C26.5049211,4.70023647 20.9832926,-0.569064438 14.3573384,0.0895981763 C8.61263613,0.74826079 4.41840712,5.7980075 4.41840712,11.5064168 L4.41840712,17.6539345 L2.20975573,17.6539345 C1.10543003,17.6539345 0.0011043257,18.5321514 0.0011043257,19.8494766 L0.0011043257,41.8048971 C0.0011043257,42.9026681 1.10543003,44.0004391 2.20975573,44.0004391 L28.7135725,44.0004391 C30.0387634,44.0004391 30.9222239,42.9026681 30.9222239,41.8048971 L30.9222239,19.8494766 C30.9222239,18.5321514 30.0387634,17.6539345 28.7135725,17.6539345" id="Fill-1" fill="#04518C" mask="url(#mask-2)"></path>
                                </g>
                                <path d="M20.3563655,28.3574101 C20.3563655,31.0503344 18.2045023,33.2340426 15.5531828,33.2340426 C12.8995293,33.2340426 10.75,31.0503344 10.75,28.3574101 C10.75,25.6668542 12.8995293,23.4831461 15.5531828,23.4831461 C18.2045023,23.4831461 20.3563655,25.6668542 20.3563655,28.3574101" id="Fill-4" fill="#00A1D9"></path>
                                <path d="M15.6587947,38.0621563 L15.3128468,38.0621563 C14.0400195,38.0621563 13,37.0053361 13,35.71906 L13,31.5116356 C13,30.2231533 14.0400195,29.1685393 15.3128468,29.1685393 L15.6587947,29.1685393 C16.9294461,29.1685393 17.9694656,30.2231533 17.9694656,31.5116356 L17.9694656,35.71906 C17.9694656,37.0053361 16.9294461,38.0621563 15.6587947,38.0621563" id="Fill-6" fill="#00A1D9"></path>
                            </g>
                        </g>
                    </g>
                </g>
            </g>
        </g>
    </g>
</svg>