<?xml version="1.0" encoding="UTF-8"?>
<svg width="55px" height="53px" viewBox="0 0 55 53" version="1.1" xmlns="http://www.w3.org/2000/svg" xmlns:xlink="http://www.w3.org/1999/xlink">
    <!-- Generator: Sketch 51.2 (57519) - http://www.bohemiancoding.com/sketch -->
    <title>Group 2</title>
    <desc>Created with Sketch.</desc>
    <defs>
        <polygon id="path-1" points="36.7878045 0.170303677 36.7878045 36.9986551 0.185928672 36.9986551 0.185928672 0.170303677"></polygon>
        <path d="M0.00151260504,18.348 C0.00151260504,28.4738235 8.41367647,36.6963697 18.7732248,36.6963697 C22.7969433,36.6963697 26.5260819,35.4547563 29.5833403,33.3440504 L39.5404412,43.0759076 C40.7871113,44.2945966 42.7945273,44.2945966 44.0411975,43.0759076 C45.2879622,41.8574958 45.2879622,39.8954286 44.0411975,38.6770168 L34.0898634,28.9506134 C36.2649895,25.955563 37.5448424,22.2967227 37.5448424,18.348 C37.5448424,8.22217647 29.1326786,0 18.7732248,0 C8.41367647,0 0.00151260504,8.22217647 0.00151260504,18.348 M6.19619748,18.3249832 L6.19619748,18.3248908 C6.19629202,11.4875126 11.8672374,5.9449916 18.8626576,5.9449916 C25.8580777,5.94508403 31.5289286,11.487605 31.5290231,18.3248908 C31.5290231,25.162084 25.8581723,30.7047899 18.8626576,30.7048824 C11.8672374,30.7048824 6.19629202,25.1622689 6.19619748,18.3249832" id="path-3"></path>
        <polygon id="path-5" points="0.0895139293 0.079218684 15.9911588 0.079218684 15.9911588 15.4327938 0.0895139293 15.4327938"></polygon>
    </defs>
    <g id="final" stroke="none" stroke-width="1" fill="none" fill-rule="evenodd">
        <g id="Riff" transform="translate(-166.000000, -765.000000)">
            <g id="Group-2" transform="translate(166.000000, 765.000000)">
                <g id="Group-6">
                    <g id="Page-1">
                        <g id="Group-3">
                            <mask id="mask-2" fill="white">
                                <use xlink:href="#path-1"></use>
                            </mask>
                            <g id="Clip-2"></g>
                            <path d="M36.7879125,18.5844794 C36.7879125,8.41445105 28.5941588,0.170303677 18.4871007,0.170303677 C8.37968243,0.170303677 0.185928672,8.41445105 0.185928672,18.5844794 C0.185928672,28.7545077 8.37968243,36.9986551 18.4871007,36.9986551 C28.5941588,36.9986551 36.7879125,28.7545077 36.7879125,18.5844794" id="Fill-1" fill="#F2D03A" mask="url(#mask-2)"></path>
                        </g>
                    </g>
                </g>
                <g id="Page-1" transform="translate(8.000000, 7.000000)">
                    <g id="Group-3">
                        <mask id="mask-4" fill="white">
                            <use xlink:href="#path-3"></use>
                        </mask>
                        <g id="Clip-2"></g>
                        <path d="M37.5536723,18.3220437 C37.5536723,28.457758 29.1469916,36.6743882 18.776855,36.6743882 C8.40662395,36.6743882 3.78151261e-05,28.457758 3.78151261e-05,18.3220437 C3.78151261e-05,8.18642185 8.40662395,-0.0302084034 18.776855,-0.0302084034 C29.1469916,-0.0302084034 37.5536723,8.18642185 37.5536723,18.3220437" id="Fill-1" fill="#003055" mask="url(#mask-4)"></path>
                    </g>
                    <g id="Group-9" transform="translate(10.000000, 17.000000)">
                        <g id="Group-6" transform="translate(20.358864, 13.189655)">
                            <mask id="mask-6" fill="white">
                                <use xlink:href="#path-5"></use>
                            </mask>
                            <g id="Clip-5"></g>
                            <path d="M0.0895139293,4.57572467 L10.3766901,14.5007159 C11.6647833,15.7435044 13.7385986,15.7435044 15.0266919,14.5007159 C16.3146922,13.2581068 16.3106018,11.2611751 15.0266919,10.0144386 L4.79454975,0.079218684 C3.65240816,1.78579856 1.9378943,3.28394599 0.0895139293,4.57572467" id="Fill-4" fill="#003055" mask="url(#mask-6)"></path>
                        </g>
                        <path d="M15.5263393,2.69174842 L1.39598595,2.69174842 C0.625881691,2.69174842 0.00154318333,2.08915165 0.00154318333,1.34586524 C0.00154318333,0.602578818 0.625881691,-1.79451091e-05 1.39598595,-1.79451091e-05 L15.5263393,-1.79451091e-05 C16.2964436,-1.79451091e-05 16.9207821,0.602578818 16.9207821,1.34586524 C16.9207821,2.08915165 16.2964436,2.69174842 15.5263393,2.69174842" id="Fill-7" fill="#003055"></path>
                    </g>
                </g>
            </g>
        </g>
    </g>
</svg>