<?xml version="1.0" encoding="UTF-8"?>
<svg id="Layer_1" data-name="Layer 1" xmlns="http://www.w3.org/2000/svg" version="1.1" viewBox="0 0 36 36">
  <defs>
    <style>
      .cls-1 {
        fill: #f2d021;
      }

      .cls-1, .cls-2 {
        fill-rule: evenodd;
        stroke-width: 0px;
      }

      .cls-2 {
        fill: #000;
      }
    </style>
  </defs>
  <path class="cls-2" d="M25.6,33.4c-.1-.7-.3-1.3-.4-2,0,0,0-.2-.2-.2-.7-.1-1.4-.3-2.1-.4-.3.8-.5,1.6-.8,2.4,0,.3,0,.6.3.8.2.2.5.2.7,0,0,0,2.5-.7,2.5-.7ZM29.2,23.1l4.6,4.4c0,0-.2.2-.2.2-2.3,2.2-4.5,4.3-6.8,6.5-.2.2-.4.3-.6.4-1.6.5-3.2.9-4.9,1.4-.2,0-.4,0-.6,0-.3,0-.5-.4-.4-.7h0c.5-1.7,1-3.4,1.5-5,0-.1.1-.2.2-.3,2.4-2.3,4.7-4.5,7.1-6.8,0,0,0,0,0,0ZM34,26l-4-3.9c.6-.6,1.1-1.3,1.8-1.8.5-.4,1.2-.4,1.7,0,.8.7,1.5,1.4,2.2,2.2.5.5.5,1.3,0,1.8,0,0-.2.2-.2.2l-1.4,1.4h0Z"/>
  <path class="cls-1" d="M29.3.3c.4,0,.7.2,1.1.4,1.6.6,2.6,2.2,2.5,3.9,0,4.2,0,8.3,0,12.5s0,.2,0,.3c-.9-.2-1.9,0-2.7.3V6H2.8c0,.1,0,.2,0,.4v23.1c0,1.1.5,1.7,1.6,1.7h13.5c-.3.9-.5,1.8-.8,2.7,0,0-.1.1-.2.1H4.3c-1.9,0-3.6-1.1-4.1-2.9C.1,30.7,0,30.5,0,30.2V4c0,0,0-.1,0-.2C.3,2.5,1.2,1.3,2.4.7c.4-.2.8-.3,1.2-.4C3.6.3,29.3.3,29.3.3ZM7,20v-3h20v3H7ZM7,14v-3h20v3H7ZM25,23c-1.3,1-2.5,2-3.8,2.9-.1,0-.3.1-.5.1H7.4c-.1,0-.2,0-.4,0v-3h18Z"/>
</svg>