<svg xmlns="http://www.w3.org/2000/svg" width="36" height="36" viewBox="0 0 36 36">
    <g fill="none" fill-rule="evenodd">
        <path fill="#FFF" d="M25.642 33.396c-.137-.69-.265-1.35-.405-2.004-.022-.087-.085-.158-.17-.195-.693-.148-1.393-.282-2.104-.419-.258.838-.481 1.647-.757 2.438-.098.288.004.604.254.79.177.188.47.229.696.098l2.486-.708zm3.515-10.299l4.631 4.384c-.072.076-.155.163-.239.242-2.27 2.167-4.55 4.334-6.84 6.5-.175.165-.387.29-.62.361-1.616.47-3.24.921-4.867 1.365-.186.056-.384.066-.575.03-.32-.091-.504-.412-.41-.718l.001-.005c.505-1.685 1.018-3.357 1.54-5.016.045-.122.12-.232.22-.321 2.36-2.27 4.722-4.529 7.083-6.775.022-.02.047-.036.076-.047zM33.989 26L30 22.102c.59-.622 1.142-1.27 1.77-1.831.503-.391 1.22-.355 1.68.085.752.704 1.487 1.428 2.194 2.176.475.52.475 1.311 0 1.832-.072.086-.15.168-.23.246L33.988 26z"/>
        <path fill="#F2D021" d="M29.31.347c.368.097.73.218 1.082.362 1.56.636 2.562 2.201 2.505 3.913.028 4.164 0 8.32 0 12.49 0 .08 0 .163-.025.268-.915-.192-1.866-.077-2.71.329V5.972H2.756c0 .115-.021.242-.021.361v23.099c0 1.124.522 1.656 1.614 1.656h13.484c-.263.912-.51 1.809-.777 2.666-.055.078-.143.127-.238.13H4.305c-1.868.08-3.556-1.13-4.114-2.948-.07-.235-.127-.474-.191-.723V4.026c.027-.06.05-.122.067-.185C.281 2.46 1.174 1.285 2.434.731 2.82.576 3.216.448 3.62.347h25.69zM7 20v-3h20v3H7zm0-6v-3h20v3H7zm18 9c-1.275.983-2.5 1.958-3.763 2.89-.142.078-.3.116-.458.11H7.375c-.114 0-.228 0-.375-.032V23h18z"/>
    </g>
</svg>
