<?xml version="1.0" encoding="UTF-8"?>
<svg width="36px" height="36px" viewBox="0 0 36 36" version="1.1" xmlns="http://www.w3.org/2000/svg" xmlns:xlink="http://www.w3.org/1999/xlink">
    <!-- Generator: Sketch 49.3 (51167) - http://www.bohemiancoding.com/sketch -->
    <title>Page 1</title>
    <desc>Created with Sketch.</desc>
    <defs>
        <polygon id="path-1" points="0 0.347234043 32.9095713 0.347234043 32.9095713 33.8878849 0 33.8878849"></polygon>
        <polygon id="path-3" points="0.21223602 0.0970666667 13.7881838 0.0970666667 13.7881838 13 0.21223602 13"></polygon>
        <polygon id="path-5" points="0 36 36 36 36 0 0 0"></polygon>
    </defs>
    <g id="final" stroke="none" stroke-width="1" fill="none" fill-rule="evenodd">
        <g id="Song" transform="translate(-930.000000, -3254.000000)">
            <g id="Page-1" transform="translate(930.000000, 3254.000000)">
                <g id="Group-3">
                    <mask id="mask-2" fill="white">
                        <use xlink:href="#path-1"></use>
                    </mask>
                    <g id="Clip-2"></g>
                    <path d="M29.3095355,0.347125532 C29.6775032,0.444061702 30.0394387,0.564870213 30.3921484,0.70882766 C31.9523742,1.3450617 32.9544387,2.91014681 32.8969548,4.62244468 C32.9253419,8.78563617 32.8969548,12.9415936 32.8969548,17.1120191 C32.8969548,17.1915936 32.8969548,17.2747851 32.8721161,17.3796787 C31.9573419,17.1876149 31.0060194,17.3029979 30.1611484,17.7088277 L30.1611484,5.97159362 L2.75695484,5.97159362 C2.75695484,6.0873383 2.73566452,6.21393404 2.73566452,6.33329574 L2.73566452,29.4315936 C2.73566452,30.5564872 3.25763226,31.0881894 4.35018065,31.0881894 L17.8340516,31.0881894 C17.571471,31.9996787 17.3230839,32.8967 17.0569548,33.753934 C17.0019548,33.8324234 16.9139548,33.8808915 16.8192129,33.8841468 L15.7546968,33.8841468 L4.30405161,33.8841468 C2.43653548,33.964083 0.749277419,32.7549128 0.191470968,30.9362745 C0.120503226,30.7011681 0.064083871,30.4624447 -0.000141935484,30.2128702 L-0.000141935484,4.02563617 C0.0268258065,3.96595532 0.0495354839,3.90410426 0.0672774194,3.84116809 C0.280890323,2.45910426 1.17401935,1.28538085 2.43405161,0.730529787 C2.82047097,0.575721277 3.21611613,0.447678723 3.61956774,0.347125532 L29.3095355,0.347125532 Z" id="Fill-1" fill="#F2D03A" mask="url(#mask-2)"></path>
                </g>
                <g id="Group-6" transform="translate(20.000000, 23.000000)">
                    <mask id="mask-4" fill="white">
                        <use xlink:href="#path-3"></use>
                    </mask>
                    <g id="Clip-5"></g>
                    <path d="M5.6416973,10.3963167 C5.50548108,9.70659444 5.37683243,9.04576111 5.23683243,8.39215 C5.21450811,8.30548333 5.1516973,8.23362222 5.06618378,8.19715 C4.37375135,8.04909444 3.67412973,7.91548333 2.96277838,7.77826111 C2.70548108,8.61603889 2.48185946,9.42492778 2.20602162,10.2157611 C2.1084,10.5039278 2.20980541,10.8199 2.45953514,11.0062333 C2.63737297,11.1940111 2.9291027,11.2348167 3.15575135,11.1040944 L5.6416973,10.3963167 Z M9.15683243,0.0970666667 L13.7881838,4.48131667 C13.7162919,4.55715 13.6330486,4.64381667 13.549427,4.72326111 C11.2791568,6.88992778 8.99904865,9.05659444 6.70872432,11.2232611 C6.53429189,11.3882889 6.32164324,11.51215 6.08818378,11.5843722 C4.47250811,12.0538167 2.84926486,12.5052056 1.22223784,12.9493722 C1.03607568,13.0053444 0.838183784,13.0150944 0.647102703,12.9782611 C0.326237838,12.8879833 0.142724324,12.5673167 0.236940541,12.2610944 C0.237318919,12.2592889 0.238075676,12.2574833 0.238454054,12.2560389 C0.742832432,10.5707333 1.25629189,8.89915 1.77845405,7.24020556 C1.82348108,7.11778889 1.89877838,7.00765 1.99791351,6.91881667 C4.35861622,4.64851111 6.72007568,2.39048333 9.08115676,0.144372222 C9.10272432,0.12415 9.12845405,0.108261111 9.15683243,0.0970666667 Z" id="Fill-4" fill="#FFFFFF" mask="url(#mask-4)"></path>
                </g>
                <mask id="mask-6" fill="white">
                    <use xlink:href="#path-5"></use>
                </mask>
                <g id="Clip-8"></g>
                <polygon id="Fill-7" fill="#F2D03A" mask="url(#mask-6)" points="7 20 27 20 27 17 7 17"></polygon>
                <polygon id="Fill-9" fill="#F2D03A" mask="url(#mask-6)" points="7 14 27 14 27 11 7 11"></polygon>
                <path d="M25,23 C23.7252782,23.9831485 22.5005455,24.9576832 21.2365357,25.8895403 C21.0947809,25.9682392 20.9376723,26.0062182 20.7794926,25.9991706 L7.37527524,25.9991706 C7.2606574,25.9991706 7.14675368,25.9991706 7,25.9678477 L7,23 L25,23 Z" id="Fill-10" fill="#F2D03A" mask="url(#mask-6)"></path>
                <path d="M33.9885001,26 L30,22.1019502 C30.5899434,21.4801753 31.1422821,20.8310697 31.7698301,20.2707891 C32.2728344,19.8796176 32.9900814,19.9158309 33.4499612,20.3561978 C34.2020527,21.0599649 34.9372395,21.7842301 35.6444815,22.5324096 C36.1185062,23.0523774 36.1185062,23.8432613 35.6444815,24.3635707 C35.5716873,24.4496626 35.4944082,24.5316548 35.4133341,24.6095475 L33.9885001,26 Z" id="Fill-11" fill="#FFFFFF" mask="url(#mask-6)"></path>
            </g>
        </g>
    </g>
</svg>