<?xml version="1.0" encoding="UTF-8"?>
<svg width="185px" height="171px" viewBox="0 0 185 171" version="1.1" xmlns="http://www.w3.org/2000/svg" xmlns:xlink="http://www.w3.org/1999/xlink">
    <!-- Generator: Sketch 50.2 (55047) - http://www.bohemiancoding.com/sketch -->
    <title>Page 1</title>
    <desc>Created with Sketch.</desc>
    <defs>
        <path d="M91.7522419,0.293738676 C71.4440161,0.29671777 51.1387742,11.9086307 44.3886613,35.041892 L38.4310645,55.4623902 C36.2790968,62.8380314 32.3284516,69.6047456 26.9127258,75.1893554 L13.7431129,88.7692578 C-20.8638226,124.445101 15.7088871,181.527523 63.9747903,167.177822 L76.1000484,163.577289 C85.4914839,160.782303 95.5280323,160.782303 104.919468,163.577289 L120.549581,168.220505 C168.569613,182.496324 205.180516,125.984697 171.12321,90.1610906 L156.539839,74.8265017 C151.454726,69.4736655 147.695645,63.0620592 145.549048,56.0850209 L138.886661,34.4061533 C131.890677,11.6357456 111.824742,0.293738676 91.7594032,0.293738676 C91.7570161,0.293738676 91.754629,0.293738676 91.7522419,0.293738676 Z" id="path-1"></path>
        <path d="M7.58367308,0.367722772 C3.52505769,0.367722772 0.233692308,3.55485149 0.233692308,7.48752475 L0.233692308,52.8481188 C0.233692308,56.7807921 3.52505769,59.970297 7.58367308,59.970297 L54.4008269,59.970297 C58.4624231,59.970297 61.7531923,56.7807921 61.7531923,52.8481188 L61.7531923,7.48752475 C61.7531923,3.55485149 58.4624231,0.367722772 54.4008269,0.367722772 L7.58367308,0.367722772 Z" id="path-3"></path>
        <path d="M0.453333333,19.5627656 C0.453333333,30.0842344 9.18242424,38.6154844 19.9472727,38.6154844 C30.7145455,38.6154844 39.4412121,30.0842344 39.4412121,19.5627656 C39.4412121,9.03764063 30.7145455,0.50578125 19.9472727,0.50578125 C9.18242424,0.50578125 0.453333333,9.03764063 0.453333333,19.5627656 Z" id="path-5"></path>
        <path d="M1.30727273,1.6812 C-0.358787879,3.4488 -0.22,6.1812 1.61575758,7.7808 L32.2266667,34.5126 C33.0848485,35.2608 34.1624242,35.6316 35.2369697,35.6316 C36.4581818,35.6316 37.6745455,35.1534 38.5630303,34.2126 C40.2260606,32.4486 40.090303,29.7162 38.2545455,28.1136 L7.64363636,1.3872 C6.78242424,0.6372 5.70545455,0.2682 4.62787879,0.2682 C3.40909091,0.2682 2.19333333,0.744 1.30727273,1.6812 Z" id="path-7"></path>
    </defs>
    <g id="final" stroke="none" stroke-width="1" fill="none" fill-rule="evenodd">
        <g id="Our-Vision" transform="translate(-1015.000000, -1491.000000)">
            <g id="Page-1" transform="translate(1015.000000, 1491.000000)">
                <g id="Group-3">
                    <mask id="mask-2" fill="white">
                        <use xlink:href="#path-1"></use>
                    </mask>
                    <g id="Clip-2"></g>
                    <polygon id="Fill-1" fill="#F2D021" mask="url(#mask-2)" points="-17.0737097 187.634666 201.598677 187.634666 201.598677 -16.8563101 -17.0737097 -16.8563101"></polygon>
                </g>
                <g id="Group-6" transform="translate(7.000000, 6.000000)">
                    <mask id="mask-4" fill="white">
                        <use xlink:href="#path-3"></use>
                    </mask>
                    <g id="Clip-5"></g>
                    <polygon id="Fill-4" fill="#133055" mask="url(#mask-4)" points="-16.9265962 77.0673267 78.9134808 77.0673267 78.9134808 -16.7328713 -16.9265962 -16.7328713"></polygon>
                </g>
                <g id="Group-9" transform="translate(115.000000, 104.000000)">
                    <mask id="mask-6" fill="white">
                        <use xlink:href="#path-5"></use>
                    </mask>
                    <g id="Clip-8"></g>
                    <polygon id="Fill-7" fill="#133055" mask="url(#mask-6)" points="-16.9915152 56.1563438 56.8860606 56.1563438 56.8860606 -17.0362969 -16.9915152 -17.0362969"></polygon>
                </g>
                <g id="Group-12" transform="translate(75.000000, 69.000000)">
                    <mask id="mask-8" fill="white">
                        <use xlink:href="#path-7"></use>
                    </mask>
                    <g id="Clip-11"></g>
                    <polygon id="Fill-10" fill="#133055" mask="url(#mask-8)" points="-17.3018182 52.8996 57.169697 52.8996 57.169697 -17.0028 -17.3018182 -17.0028"></polygon>
                </g>
            </g>
        </g>
    </g>
</svg>