<?xml version="1.0" encoding="UTF-8"?>
<svg width="93px" height="59px" viewBox="0 0 93 59" version="1.1" xmlns="http://www.w3.org/2000/svg" xmlns:xlink="http://www.w3.org/1999/xlink">
    <!-- Generator: Sketch 50 (54983) - http://www.bohemiancoding.com/sketch -->
    <title>Group</title>
    <desc>Created with Sketch.</desc>
    <defs>
        <path d="M14.5634483,11.2400467 L12.6501724,17.7670561 C11.9586207,20.1253738 10.6898276,22.2868224 8.94982759,24.0720093 L4.72034483,28.4118692 C-6.39,39.8158879 5.35448276,58.0604673 20.8531034,53.4738785 L24.7468966,52.3229907 C27.7613793,51.4285981 30.9837931,51.4285981 34.0003448,52.3229907 L39.0201724,53.8064486 C54.4401724,58.3699065 66.197069,40.3088318 55.257931,28.8564953 L50.577931,23.9558411 C48.9424138,22.2451869 47.7362069,20.1968224 47.0477586,17.9659813 L44.9084483,11.0364953 C42.6615517,3.75953271 36.2162069,0.132616822 29.7718966,0.132616822 C23.2510345,0.13364486 16.7312069,3.84640187 14.5634483,11.2400467 Z" id="path-1"></path>
        <polygon id="path-3" points="0.130347826 0.157826087 17.2490435 0.157826087 17.2490435 2.89686957 0.130347826 2.89686957"></polygon>
        <polygon id="path-5" points="0 0.0617826087 17.1186522 0.0617826087 17.1186522 2.80091304 0 2.80091304"></polygon>
        <polygon id="path-7" points="0 0.400826087 17.1186522 0.400826087 17.1186522 3.13952174 0 3.13952174"></polygon>
        <polygon id="path-9" points="0.427409278 0.107705175 46.8347732 0.107705175 46.8347732 46.2419355 0.427409278 46.2419355"></polygon>
    </defs>
    <g id="final" stroke="none" stroke-width="1" fill="none" fill-rule="evenodd">
        <g id="Jukebox" transform="translate(-167.000000, -841.000000)">
            <g id="Group" transform="translate(160.000000, 824.000000)">
                <g id="Page-1" transform="translate(41.000000, 41.500000) rotate(48.000000) translate(-41.000000, -41.500000) translate(11.000000, 14.000000)">
                    <g id="Group-3">
                        <mask id="mask-2" fill="white">
                            <use xlink:href="#path-1"></use>
                        </mask>
                        <g id="Clip-2"></g>
                        <polygon id="Fill-1" fill="#F2D021" mask="url(#mask-2)" points="-5.17241379 60.0121963 65.0456897 60.0121963 65.0456897 -5.34836449 -5.17241379 -5.34836449"></polygon>
                    </g>
                </g>
                <g id="Page-1" transform="translate(30.000000, 32.000000)">
                    <g id="Group-3" transform="translate(2.608696, 0.277043)">
                        <mask id="mask-4" fill="white">
                            <use xlink:href="#path-3"></use>
                        </mask>
                        <g id="Clip-2"></g>
                        <path d="M1.49991304,2.89686957 L15.8794783,2.89686957 C16.6355652,2.89686957 17.2490435,2.2833913 17.2490435,1.52730435 C17.2490435,0.771217391 16.6355652,0.15773913 15.8794783,0.15773913 L1.49991304,0.15773913 C0.743826087,0.15773913 0.130347826,0.771217391 0.130347826,1.52730435 C0.130347826,2.2833913 0.743391304,2.89686957 1.49991304,2.89686957" id="Fill-1" fill="#133055" mask="url(#mask-4)"></path>
                    </g>
                    <g id="Group-6" transform="translate(0.000000, 7.668348)">
                        <mask id="mask-6" fill="white">
                            <use xlink:href="#path-5"></use>
                        </mask>
                        <g id="Clip-5"></g>
                        <path d="M1.36952174,2.80091304 L15.749087,2.80091304 C16.5051739,2.80091304 17.1186522,2.18743478 17.1186522,1.43134783 C17.1186522,0.67526087 16.5051739,0.0617826087 15.749087,0.0617826087 L1.36952174,0.0617826087 C0.613434783,0.0617826087 -4.34782609e-05,0.67526087 -4.34782609e-05,1.43134783 C-4.34782609e-05,2.18743478 0.613,2.80091304 1.36952174,2.80091304" id="Fill-4" fill="#133055" mask="url(#mask-6)"></path>
                    </g>
                    <g id="Group-9" transform="translate(0.000000, 14.624870)">
                        <mask id="mask-8" fill="white">
                            <use xlink:href="#path-7"></use>
                        </mask>
                        <g id="Clip-8"></g>
                        <path d="M1.36952174,3.13952174 L15.749087,3.13952174 C16.5051739,3.13952174 17.1186522,2.52604348 17.1186522,1.76995652 C17.1186522,1.01430435 16.5051739,0.400826087 15.749087,0.400826087 L1.36952174,0.400826087 C0.613434783,0.400826087 -4.34782609e-05,1.01430435 -4.34782609e-05,1.76995652 C-4.34782609e-05,2.52604348 0.613,3.13952174 1.36952174,3.13952174" id="Fill-7" fill="#133055" mask="url(#mask-8)"></path>
                    </g>
                    <path d="M19.8577826,23.6904348 C19.8577826,22.9343478 19.2443043,22.3208696 18.4882174,22.3208696 L4.10865217,22.3208696 C3.35256522,22.3208696 2.73865217,22.9343478 2.73865217,23.6904348 C2.73865217,24.446087 3.35256522,25.0595652 4.10865217,25.0595652 L18.4882174,25.0595652 C19.2443043,25.0595652 19.8577826,24.446087 19.8577826,23.6904348" id="Fill-10" fill="#133055"></path>
                </g>
                <g id="Page-1" transform="translate(53.000000, 21.000000)">
                    <g id="Group-3">
                        <mask id="mask-10" fill="white">
                            <use xlink:href="#path-9"></use>
                        </mask>
                        <g id="Clip-2"></g>
                        <path d="M23.6308732,37.572825 C31.2477804,37.572825 37.4236773,31.4332447 37.4236773,23.8616094 C37.4236773,18.8761507 34.7466155,14.5125498 30.7438629,12.112786 C30.066966,11.7216563 29.7752753,11.8642356 29.523801,12.4085417 L28.549399,14.8010802 C28.2640072,15.6035704 28.4171206,15.8444138 28.9370278,16.2451773 C31.3626155,17.917594 32.9504402,20.7051156 32.9504402,23.8616094 C32.9504402,28.9785686 28.7785845,33.1263739 23.6308732,33.1263739 C18.4836464,33.1263739 14.3117907,28.9785686 14.3117907,23.8616094 C14.3117907,20.753766 15.8516464,18.0033342 18.2132753,16.3232106 C18.8640072,15.8203295 19.0340794,15.6228379 18.6716464,14.6994443 L17.8164402,12.6007347 C17.4913165,11.9080691 17.2388732,11.674451 16.424368,12.169625 C12.4739454,14.5809493 9.83855361,18.9156491 9.83855361,23.8616094 C9.83855361,31.4332447 16.0144505,37.572825 23.6308732,37.572825 Z M21.9408113,8.7771047 C21.264399,8.7771047 20.7110588,9.42304674 20.7110588,10.2125315 L20.7110588,23.4849303 C20.7110588,24.274415 21.264399,24.9203571 21.9408113,24.9203571 L25.3214196,24.9203571 C25.997832,24.9203571 26.5511722,24.274415 26.5511722,23.4849303 L26.5511722,10.2125315 C26.5511722,9.42304674 25.997832,8.7771047 25.3214196,8.7771047 L21.9408113,8.7771047 Z M23.6308732,46.2422245 C10.8158629,46.2422245 0.427409278,35.9148589 0.427409278,23.174724 C0.427409278,10.4345891 10.8158629,0.107705175 23.6308732,0.107705175 C36.446368,0.107705175 46.8348216,10.4350708 46.8348216,23.174724 C46.8348216,35.9148589 36.446368,46.2422245 23.6308732,46.2422245 Z" id="Fill-1" fill="#133055" mask="url(#mask-10)"></path>
                    </g>
                </g>
            </g>
        </g>
    </g>
</svg>