<svg width="112" height="112" viewBox="0 0 112 112" fill="none" xmlns="http://www.w3.org/2000/svg">
<circle cx="56" cy="56" r="56" fill="#F5DE63"/>
<path fill-rule="evenodd" clip-rule="evenodd" d="M38 41.7667V88.7877C38 89.4572 38.6039 90 39.3487 90H80.2607C81.0056 90 81.6095 89.4572 81.6095 88.7877V32.2123C81.6095 31.5428 81.0056 31 80.2607 31H47.8597C47.4502 31 47.0628 31.1672 46.8069 31.4546L38.2959 41.0089C38.1044 41.224 38 41.4912 38 41.7667Z" fill="white"/>
<path fill-rule="evenodd" clip-rule="evenodd" d="M33.2914 35.6887V86.4911C33.2914 87.2144 33.9229 87.8009 34.702 87.8009H77.4901C78.2692 87.8009 78.9007 87.2144 78.9007 86.4911V25.3661C78.9007 24.6427 78.2692 24.0562 77.4901 24.0562H43.6032C43.1749 24.0562 42.7698 24.2369 42.5021 24.5474L33.6009 34.8701C33.4005 35.1024 33.2914 35.3911 33.2914 35.6887ZM30 35.6887C30 34.6967 30.3638 33.7342 31.0316 32.9598L39.9328 22.6372C40.8252 21.6023 42.1755 21 43.6032 21H77.4901C80.087 21 82.1921 22.9548 82.1921 25.3661V86.4911C82.1921 88.9024 80.087 90.8571 77.4901 90.8571H34.702C32.1052 90.8571 30 88.9024 30 86.4911V35.6887Z" fill="black" stroke="black" stroke-width="3"/>
<path fill-rule="evenodd" clip-rule="evenodd" d="M48.7223 45.1679C49.0372 45.4367 49.0925 45.9328 48.8459 46.2759L45.4514 51L43.24 48.833C42.9426 48.5415 42.9183 48.0425 43.1856 47.7184C43.453 47.3942 43.9109 47.3677 44.2083 47.6591L45.267 48.6966L47.7057 45.3026C47.9523 44.9595 48.4075 44.8992 48.7223 45.1679Z" fill="black"/>
<path fill-rule="evenodd" clip-rule="evenodd" d="M48.7223 57.1679C49.0372 57.4367 49.0925 57.9328 48.8459 58.2759L45.4514 63L43.24 60.833C42.9426 60.5415 42.9183 60.0425 43.1856 59.7184C43.453 59.3942 43.9109 59.3677 44.2083 59.6591L45.267 60.6966L47.7057 57.3026C47.9523 56.9595 48.4075 56.8992 48.7223 57.1679Z" fill="black"/>
<path fill-rule="evenodd" clip-rule="evenodd" d="M48.7223 69.1679C49.0372 69.4367 49.0925 69.9328 48.8459 70.2759L45.4514 75L43.24 72.833C42.9426 72.5415 42.9183 72.0425 43.1856 71.7184C43.453 71.3942 43.9109 71.3677 44.2083 71.6591L45.267 72.6966L47.7057 69.3026C47.9523 68.9595 48.4075 68.8992 48.7223 69.1679Z" fill="black"/>
<rect x="52" y="47" width="20" height="2" fill="black"/>
<rect x="52" y="71" width="20" height="2" fill="black"/>
<rect x="52" y="59" width="20" height="2" fill="black"/>
</svg>
