<?xml version="1.0" encoding="UTF-8"?>
<svg width="36px" height="36px" viewBox="0 0 36 36" version="1.1" xmlns="http://www.w3.org/2000/svg" xmlns:xlink="http://www.w3.org/1999/xlink">
    <!-- Generator: Sketch 52.6 (67491) - http://www.bohemiancoding.com/sketch -->
    <title>icon</title>
    <desc>Created with Sketch.</desc>
    <defs>
        <polygon id="path-1" points="8.49056604e-05 0.030260303 35.9516887 0.030260303 35.9516887 35.6603774 8.49056604e-05 35.6603774"></polygon>
        <polygon id="path-3" points="0 35.7999623 35.9517736 35.7999623 35.9517736 0.169811321 0 0.169811321"></polygon>
    </defs>
    <g id="final" stroke="none" stroke-width="1" fill="none" fill-rule="evenodd">
        <g id="Products-Landing" transform="translate(-883.000000, -905.000000)">
            <g id="Grid-of-4" transform="translate(0.000000, 685.000000)">
                <g id="Access-&amp;-Download" transform="translate(633.000000, 24.000000)">
                    <g id="product" transform="translate(250.000000, 179.000000)">
                        <g id="icon" transform="translate(0.000000, 17.000000)">
                            <path d="M30.8356981,18.1207868 C30.8356981,25.2231453 25.0782453,30.9807679 17.9758868,30.9807679 C10.8735283,30.9807679 5.11590566,25.2231453 5.11590566,18.1207868 C5.11590566,11.0184283 10.8735283,5.26097547 17.9758868,5.26097547 C25.0782453,5.26097547 30.8356981,11.0184283 30.8356981,18.1207868" id="Fill-1" fill="#119FD6"></path>
                            <g id="Group-5" transform="translate(0.000000, 0.139585)">
                                <mask id="mask-2" fill="white">
                                    <use xlink:href="#path-1"></use>
                                </mask>
                                <g id="Clip-4"></g>
                                <path d="M17.6579151,35.6604113 C16.3024811,35.6604113 15.1995566,34.5574868 15.1995566,33.201883 C15.1995566,31.9682038 16.1134811,30.9472981 17.299783,30.7727321 L17.299783,28.440034 L16.4938585,28.440034 C16.3622547,28.440034 16.2483113,28.3632792 16.1785189,28.2517132 C16.0880094,28.1077132 16.1552547,27.9441849 16.1946509,27.8847509 L17.3587075,26.1175245 C17.3823113,26.0818642 17.4806321,25.9219019 17.6579151,25.9219019 C17.8238208,25.9219019 17.9336887,26.0818642 17.9571226,26.1175245 L19.1208396,27.8847509 C19.1933491,27.9949585 19.1994623,28.1359019 19.1371415,28.2517132 C19.0748208,28.3676943 18.9534057,28.440034 18.8218019,28.440034 L18.016217,28.440034 L18.016217,30.7727321 C19.2020094,30.9472981 20.1164434,31.9682038 20.1164434,33.201883 C20.1164434,34.5574868 19.0133491,35.6604113 17.6579151,35.6604113 Z M35.9516887,18.411317 C35.9516887,19.8414679 34.7883113,21.0048453 33.3581604,21.0048453 C32.0567264,21.0048453 30.9794434,20.0406566 30.7953679,18.789317 L28.3346321,18.789317 L28.3346321,19.6395623 C28.3346321,19.7782981 28.2534623,19.8985245 28.1356132,19.9722226 C27.9841415,20.0676566 27.8114434,19.9965057 27.7486132,19.9550717 L25.8842547,18.7269962 C25.8467264,18.7022038 25.677934,18.5984491 25.677934,18.411317 C25.677934,18.2365811 25.8467264,18.1204302 25.8842547,18.0958075 L27.7486132,16.8679019 C27.864934,16.7916566 28.0135189,16.7852038 28.1356132,16.8509208 C28.258217,16.9166377 28.3346321,17.0448453 28.3346321,17.1835811 L28.3346321,18.0334868 L30.7953679,18.0334868 C30.9794434,16.7824868 32.0567264,15.8177887 33.3581604,15.8177887 C34.7883113,15.8177887 35.9516887,16.9813358 35.9516887,18.411317 Z M20.2305566,2.62344906 C20.2305566,3.92488302 19.2665377,5.00250566 18.0151981,5.18624151 L18.0151981,7.7466566 L18.8447264,7.7466566 C18.9781981,7.7466566 19.1021604,7.81695849 19.1700849,7.93209057 C19.2383491,8.04705283 19.2405566,8.18969434 19.1761981,8.30669434 L17.9481226,10.5424302 C17.9195943,10.5945623 17.8158396,10.8025811 17.6161415,10.8025811 C17.4166132,10.8025811 17.3131981,10.6341283 17.2858585,10.5843736 L16.0576132,8.30703396 C15.9934245,8.18986415 15.9956321,8.04773208 16.0637264,7.9326 C16.1318208,7.81780755 16.2552736,7.74699623 16.3890849,7.74699623 L17.2595377,7.74699623 L17.2595377,5.18641132 C16.0085377,5.00250566 15.0438396,3.92488302 15.0438396,2.62378868 C15.0438396,1.19380755 16.2073868,0.0302603774 17.6375377,0.0302603774 C19.0671792,0.0299207547 20.2305566,1.19329811 20.2305566,2.62344906 Z M8.2274434,19.9550717 C8.16427358,19.9965057 7.99700943,20.0737698 7.8404434,19.9722226 C7.72361321,19.8968264 7.64159434,19.7782981 7.64159434,19.6395623 L7.64159434,18.789317 L5.15623585,18.789317 C4.97233019,20.040317 3.89504717,21.0048453 2.59361321,21.0048453 C1.16346226,21.0048453 8.49056604e-05,19.8414679 8.49056604e-05,18.411317 C8.49056604e-05,16.9813358 1.16346226,15.8177887 2.59361321,15.8177887 C3.89470755,15.8177887 4.97233019,16.7821472 5.15623585,18.0334868 L7.64159434,18.0334868 L7.64159434,17.1835811 C7.64159434,17.0448453 7.71800943,16.9166377 7.8404434,16.8509208 C7.96270755,16.7852038 8.11146226,16.7916566 8.2274434,16.8679019 L10.0912925,18.0958075 C10.1213491,18.1155057 10.2943868,18.2238453 10.2943868,18.3904302 C10.2943868,18.6067698 10.1244057,18.7052604 10.0912925,18.7269962 L8.2274434,19.9550717 Z" id="Fill-3" fill="#113154" mask="url(#mask-2)"></path>
                            </g>
                            <mask id="mask-4" fill="white">
                                <use xlink:href="#path-3"></use>
                            </mask>
                            <g id="Clip-7"></g>
                            <path d="M14.5154717,22.0162075 L21.4376604,22.0162075 L21.4376604,21.1634151 L14.5154717,21.1634151 L14.5154717,22.0162075 Z M14.5154717,19.677566 L21.4376604,19.677566 L21.4376604,18.8285094 L14.5154717,18.8285094 L14.5154717,19.677566 Z M14.5154717,17.4735849 L21.4376604,17.4735849 L21.4376604,16.6221509 L14.5154717,16.6221509 L14.5154717,17.4735849 Z M20.3659811,12.2807547 L23.0350755,14.8233396 L20.9946226,14.8233396 C20.6458302,14.8233396 20.3653019,14.5558868 20.3653019,14.2240755 L20.3659811,12.2807547 Z M13.0987358,11.8545283 C12.7501132,11.8545283 12.4694151,12.1219811 12.4694151,12.4539623 L12.4694151,23.7876792 C12.4694151,24.1196604 12.7501132,24.3871132 13.0987358,24.3871132 L22.8528679,24.3871132 C23.2016604,24.3871132 23.4821887,24.1196604 23.4821887,23.7876792 L23.4821887,14.3977925 L20.813434,11.8552075 L13.0987358,11.8545283 Z" id="Fill-6" fill="#113154" mask="url(#mask-4)"></path>
                        </g>
                    </g>
                </g>
            </g>
        </g>
    </g>
</svg>