<svg width="112" height="112" viewBox="0 0 112 112" fill="none" xmlns="http://www.w3.org/2000/svg">
<circle cx="56" cy="56" r="56" fill="#F5DE63"/>
<path fill-rule="evenodd" clip-rule="evenodd" d="M41 43.6325V94.4348C41 95.1582 41.6315 95.7446 42.4106 95.7446H85.1987C85.9778 95.7446 86.6093 95.1582 86.6093 94.4348V33.3098C86.6093 32.5864 85.9778 32 85.1987 32H51.3118C50.8835 32 50.4784 32.1807 50.2107 32.4911L41.3095 42.8138C41.1092 43.0461 41 43.3349 41 43.6325Z" fill="white"/>
<path fill-rule="evenodd" clip-rule="evenodd" d="M33.2914 35.6887V86.4911C33.2914 87.2144 33.9229 87.8009 34.702 87.8009H77.4901C78.2692 87.8009 78.9007 87.2144 78.9007 86.4911V25.3661C78.9007 24.6427 78.2692 24.0562 77.4901 24.0562H43.6032C43.1749 24.0562 42.7698 24.2369 42.5021 24.5474L33.6009 34.8701C33.4005 35.1024 33.2914 35.3911 33.2914 35.6887ZM30 35.6887C30 34.6967 30.3638 33.7342 31.0316 32.9598L39.9328 22.6372C40.8252 21.6023 42.1755 21 43.6032 21H77.4901C80.087 21 82.1921 22.9548 82.1921 25.3661V86.4911C82.1921 88.9024 80.087 90.8571 77.4901 90.8571H34.702C32.1052 90.8571 30 88.9024 30 86.4911V35.6887Z" fill="black" stroke="black" stroke-width="3"/>
<path fill-rule="evenodd" clip-rule="evenodd" d="M55.5 66.5133C60.4779 66.5133 64.5133 62.4779 64.5133 57.5C64.5133 52.5221 60.4779 48.4867 55.5 48.4867C50.5221 48.4867 46.4867 52.5221 46.4867 57.5C46.4867 62.4779 50.5221 66.5133 55.5 66.5133ZM55.5 68C61.299 68 66 63.299 66 57.5C66 51.701 61.299 47 55.5 47C49.701 47 45 51.701 45 57.5C45 63.299 49.701 68 55.5 68Z" fill="black"/>
<path fill-rule="evenodd" clip-rule="evenodd" d="M58.9402 63.8254C59.9459 62.2658 60.6105 60.033 60.6105 57.5C60.6105 54.9669 59.9459 52.7342 58.9402 51.1746C57.9258 49.6016 56.6796 48.8584 55.4999 48.8584C54.3202 48.8584 53.0739 49.6016 52.0595 51.1746C51.0538 52.7342 50.3893 54.9669 50.3893 57.5C50.3893 60.033 51.0538 62.2658 52.0595 63.8254C53.0739 65.3984 54.3202 66.1416 55.4999 66.1416C56.6796 66.1416 57.9258 65.3984 58.9402 63.8254ZM55.4999 67.4425C59.0409 67.4425 61.9114 62.9911 61.9114 57.5C61.9114 52.0089 59.0409 47.5575 55.4999 47.5575C51.9589 47.5575 49.0884 52.0089 49.0884 57.5C49.0884 62.9911 51.9589 67.4425 55.4999 67.4425Z" fill="black"/>
<path fill-rule="evenodd" clip-rule="evenodd" d="M64.1769 52.3509C64.3007 52.5756 64.219 52.8582 63.9943 52.9821C60.9945 54.6358 57.438 55.0819 54.3092 54.8998C51.1927 54.7184 48.4168 53.9081 46.9755 52.9638C46.7609 52.8232 46.7009 52.5352 46.8415 52.3206C46.9822 52.106 47.2701 52.046 47.4848 52.1866C48.7382 53.0078 51.3331 53.7958 54.3632 53.9721C57.3812 54.1478 60.7473 53.7111 63.5457 52.1684C63.7704 52.0445 64.053 52.1262 64.1769 52.3509Z" fill="black"/>
<path fill-rule="evenodd" clip-rule="evenodd" d="M64.1769 62.6887C64.3007 62.464 64.219 62.1814 63.9943 62.0575C60.9945 60.4038 57.438 59.9577 54.3092 60.1398C51.1927 60.3212 48.4168 61.1315 46.9755 62.0758C46.7609 62.2164 46.7009 62.5044 46.8415 62.719C46.9822 62.9336 47.2701 62.9936 47.4848 62.853C48.7382 62.0318 51.3331 61.2438 54.3632 61.0675C57.3812 60.8918 60.7473 61.3285 63.5457 62.8713C63.7704 62.9951 64.053 62.9134 64.1769 62.6887Z" fill="black"/>
<path fill-rule="evenodd" clip-rule="evenodd" d="M55.4072 47.4646C55.6637 47.4646 55.8718 47.6726 55.8718 47.9292V57.1283H65.0709C65.3275 57.1283 65.5355 57.3363 65.5355 57.5929C65.5355 57.8495 65.3275 58.0575 65.0709 58.0575H55.8718V66.9779C55.8718 67.2345 55.6637 67.4425 55.4072 67.4425C55.1506 67.4425 54.9425 67.2345 54.9425 66.9779V58.0575H45.6505C45.3939 58.0575 45.1859 57.8495 45.1859 57.5929C45.1859 57.3363 45.3939 57.1283 45.6505 57.1283H54.9425V47.9292C54.9425 47.6726 55.1506 47.4646 55.4072 47.4646Z" fill="black"/>
</svg>
