<svg xmlns="http://www.w3.org/2000/svg" xmlns:xlink="http://www.w3.org/1999/xlink" viewBox="0 0 149.21 209.67"><defs><style>.cls-1,.cls-2{fill:none;}.cls-2{clip-rule:evenodd;}.cls-3{fill:#123154;}.cls-4{clip-path:url(#clip-path);}.cls-5{clip-path:url(#clip-path-2);}.cls-6{isolation:isolate;}.cls-7{clip-path:url(#clip-path-3);}.cls-8{clip-path:url(#clip-path-4);}.cls-9{clip-path:url(#clip-path-5);}.cls-10{fill:#fff;}</style><clipPath id="clip-path" transform="translate(5.38 5.38)"><rect class="cls-1" width="138.44" height="198.9"/></clipPath><clipPath id="clip-path-2" transform="translate(5.38 5.38)"><rect class="cls-1" x="-1037.25" y="-441.31" width="1469.79" height="3806.83"/></clipPath><clipPath id="clip-path-3" transform="translate(5.38 5.38)"><rect class="cls-1" y="-3.38" width="138.8" height="203.36"/></clipPath><clipPath id="clip-path-4" transform="translate(5.38 5.38)"><path class="cls-2" d="M128.56,79.71h-89V50.91c0-14.9,9.89-27.81,23.72-30.79,18.8-3,35.61,10.92,35.61,29.79a9.89,9.89,0,1,0,19.78,0C118.67,21.11,94-2.73,64.28.25c-25.72,3-44.5,25.83-44.5,51.65V79.71H9.89A9.93,9.93,0,0,0,0,89.64V189c0,5,4.94,9.93,9.89,9.93H128.56a9.93,9.93,0,0,0,9.89-9.93V89.64c0-6-4-9.93-9.89-9.93M79.11,146.26v12.91c0,6-4,9.94-9.89,9.94s-9.88-4-9.88-9.94V146.26c-6-4-9.89-9.93-9.89-16.88,0-12.92,11.86-21.86,24.72-18.89A22.42,22.42,0,0,1,89,125.39c2,9-3,16.9-9.89,20.87"/></clipPath><clipPath id="clip-path-5" transform="translate(5.38 5.38)"><rect class="cls-3" y="-0.16" width="138.8" height="199.06"/></clipPath></defs><g id="Layer_2" data-name="Layer 2"><g id="Ego"><g class="cls-4"><g class="cls-5"><g class="cls-6"><g class="cls-7"><g class="cls-8"><rect class="cls-3" x="5.37" y="5.23" width="138.8" height="199.06"/><g class="cls-9"><rect class="cls-10" width="149.21" height="209.67"/></g></g></g></g></g></g></g></g></svg>