<svg width="112" height="112" viewBox="0 0 112 112" fill="none" xmlns="http://www.w3.org/2000/svg">
<circle cx="56" cy="56" r="56" fill="#F5DE63"/>
<circle cx="60.5" cy="62.5" r="24.5" fill="white"/>
<circle cx="56" cy="58" r="29" stroke="black" stroke-width="8"/>
<rect x="47" y="16" width="18" height="21" fill="#F5DE63"/>
<path d="M54.5858 68.4142C55.3668 69.1953 56.6332 69.1953 57.4142 68.4142L70.1421 55.6863C70.9232 54.9052 70.9232 53.6389 70.1421 52.8579C69.3611 52.0768 68.0948 52.0768 67.3137 52.8579L56 64.1716L44.6863 52.8579C43.9052 52.0768 42.6389 52.0768 41.8579 52.8579C41.0768 53.6389 41.0768 54.9052 41.8579 55.6863L54.5858 68.4142ZM54 16L54 67L58 67L58 16L54 16Z" fill="black"/>
</svg>
