<?xml version="1.0" encoding="UTF-8"?>
<svg width="24px" height="33px" viewBox="0 0 24 33" version="1.1" xmlns="http://www.w3.org/2000/svg" xmlns:xlink="http://www.w3.org/1999/xlink">
    <!-- Generator: Sketch 52.6 (67491) - http://www.bohemiancoding.com/sketch -->
    <title>icon</title>
    <desc>Created with Sketch.</desc>
    <defs>
        <polygon id="path-1" points="0 0.192021622 23.9601297 0.192021622 23.9601297 32.8648649 0 32.8648649"></polygon>
        <polygon id="path-3" points="0 32.8892973 23.9602162 32.8892973 23.9602162 0.216216216 0 0.216216216"></polygon>
    </defs>
    <g id="final" stroke="none" stroke-width="1" fill="none" fill-rule="evenodd">
        <g id="Products-Landing" transform="translate(-108.000000, -1219.000000)">
            <g id="Grid-of-4" transform="translate(0.000000, 685.000000)">
                <g id="Analyze-&amp;-Discover" transform="translate(0.000000, 351.000000)">
                    <g id="product" transform="translate(108.000000, 166.000000)">
                        <g id="icon" transform="translate(0.000000, 17.000000)">
                            <g id="Group-3" transform="translate(0.000000, 0.024432)">
                                <mask id="mask-2" fill="white">
                                    <use xlink:href="#path-1"></use>
                                </mask>
                                <g id="Clip-2"></g>
                                <path d="M23.3056432,31.3598054 C23.3748324,31.2434811 23.4156973,31.1064 23.4156973,30.9589405 C23.4156973,30.5818595 23.1532108,30.2700757 22.8105081,30.2127784 L22.8105081,20.949427 L22.8105081,20.3401297 L22.8105081,9.98985946 C22.8105081,6.78964324 21.1192649,3.94812973 18.5032649,2.16002162 C17.7782919,2.33321081 16.7601297,2.94488649 16.3968865,4.16715676 L15.0658595,3.75526486 C15.0658595,3.75526486 17.003373,2.44175135 17.2498595,1.42077838 C15.6980757,0.638291892 13.9119135,0.192021622 12.0102919,0.192021622 C10.1088865,0.192021622 8.32272432,0.638291892 6.77072432,1.42077838 C7.01742703,2.44175135 8.95472432,3.75526486 8.95472432,3.75526486 L7.6236973,4.16715676 C7.38175135,2.94488649 6.24250811,2.33321081 5.51731892,2.16002162 C2.90153514,3.94812973 1.21007568,6.78964324 1.21007568,9.98985946 L1.21007568,20.3401297 L1.21007568,20.949427 L1.21007568,30.2257514 C0.897643243,30.3076973 0.665643243,30.6043459 0.665643243,30.9589405 C0.665643243,31.1031568 0.704562162,31.2376432 0.771156757,31.3522378 L0.756237838,31.3522378 C0.338508108,31.3522378 -8.64864865e-05,31.6908324 -8.64864865e-05,32.1085622 C-8.64864865e-05,32.5262919 0.338508108,32.8648865 0.756237838,32.8648865 L23.2038054,32.8648865 C23.6215351,32.8648865 23.9601297,32.5262919 23.9601297,32.1085622 C23.9601297,31.725427 23.6751568,31.4095351 23.3056432,31.3598054" id="Fill-1" fill="#133055" mask="url(#mask-2)"></path>
                            </g>
                            <path d="M19.8458811,27.2767568 C19.8458811,28.2713514 19.0277189,29.0774054 18.0182054,29.0774054 L6.06296216,29.0774054 C5.05366486,29.0774054 4.2355027,28.2713514 4.2355027,27.2767568 L4.2355027,18.1113514 C4.2355027,17.116973 5.05366486,16.3107027 6.06296216,16.3107027 L18.0182054,16.3107027 C19.0277189,16.3107027 19.8458811,17.116973 19.8458811,18.1113514 L19.8458811,27.2767568 Z" id="Fill-4" fill="#04A0D8"></path>
                            <path d="M19.8458811,8.9896 C19.8458811,5.98224865 16.8627459,3.54397838 13.1829622,3.54397838 L10.8984216,3.54397838 C7.21863784,3.54397838 4.2355027,5.98224865 4.2355027,8.9896 C4.2355027,9.01187027 4.23615135,9.03392432 4.23636757,9.05619459 C4.23615135,9.06938378 4.2355027,9.08278919 4.2355027,9.09597838 L4.2355027,12.6951135 C4.2355027,13.6892757 5.05366486,14.4955459 6.06296216,14.4955459 L18.0182054,14.4955459 C19.0277189,14.4955459 19.8458811,13.6892757 19.8458811,12.6951135 L19.8458811,9.09597838 C19.8458811,9.08278919 19.8452324,9.06938378 19.8448,9.05619459 C19.8452324,9.03392432 19.8458811,9.01187027 19.8458811,8.9896" id="Fill-6" fill="#00A1D9"></path>
                            <mask id="mask-4" fill="white">
                                <use xlink:href="#path-3"></use>
                            </mask>
                            <g id="Clip-9"></g>
                            <polygon id="Fill-8" fill="#133055" mask="url(#mask-4)" points="4.96151351 13.7997838 5.68756757 13.7997838 5.68756757 9.01989189 4.96151351 9.01989189"></polygon>
                            <polygon id="Fill-10" fill="#133055" mask="url(#mask-4)" points="6.17145946 13.7997838 6.89751351 13.7997838 6.89751351 9.01989189 6.17145946 9.01989189"></polygon>
                            <polygon id="Fill-11" fill="#133055" mask="url(#mask-4)" points="7.38183784 13.7997838 8.10789189 13.7997838 8.10789189 9.01989189 7.38183784 9.01989189"></polygon>
                            <polygon id="Fill-12" fill="#133055" mask="url(#mask-4)" points="8.59178378 13.7997838 9.31783784 13.7997838 9.31783784 9.01989189 8.59178378 9.01989189"></polygon>
                            <polygon id="Fill-13" fill="#133055" mask="url(#mask-4)" points="9.80194595 13.7997838 10.528 13.7997838 10.528 9.01989189 9.80194595 9.01989189"></polygon>
                            <polygon id="Fill-14" fill="#133055" mask="url(#mask-4)" points="11.0121081 13.7997838 11.7381622 13.7997838 11.7381622 9.01989189 11.0121081 9.01989189"></polygon>
                            <polygon id="Fill-15" fill="#133055" mask="url(#mask-4)" points="12.2220541 13.7997838 12.9481081 13.7997838 12.9481081 9.01989189 12.2220541 9.01989189"></polygon>
                            <polygon id="Fill-16" fill="#133055" mask="url(#mask-4)" points="13.4322162 13.7997838 14.1582703 13.7997838 14.1582703 9.01989189 13.4322162 9.01989189"></polygon>
                            <polygon id="Fill-17" fill="#133055" mask="url(#mask-4)" points="14.6423784 13.7997838 15.3684324 13.7997838 15.3684324 9.01989189 14.6423784 9.01989189"></polygon>
                            <polygon id="Fill-18" fill="#133055" mask="url(#mask-4)" points="15.8525405 13.7997838 16.5785946 13.7997838 16.5785946 9.01989189 15.8525405 9.01989189"></polygon>
                            <polygon id="Fill-19" fill="#133055" mask="url(#mask-4)" points="17.0627027 13.7997838 17.7887568 13.7997838 17.7887568 9.01989189 17.0627027 9.01989189"></polygon>
                            <polygon id="Fill-20" fill="#133055" mask="url(#mask-4)" points="18.2726486 13.7997838 18.9987027 13.7997838 18.9987027 9.01989189 18.2726486 9.01989189"></polygon>
                        </g>
                    </g>
                </g>
            </g>
        </g>
    </g>
</svg>