<svg id="Layer_1" data-name="Layer 1" xmlns="http://www.w3.org/2000/svg" xmlns:xlink="http://www.w3.org/1999/xlink" viewBox="0 0 197.99 201.59"><defs><style>.cls-1,.cls-2,.cls-3{fill:none;}.cls-1,.cls-2,.cls-5{clip-rule:evenodd;}.cls-2{clip-path:url(#clip-path);}.cls-4{fill:#4dc5ef;}.cls-5,.cls-6,.cls-9{fill:#fff;}.cls-7{clip-path:url(#clip-path-2);}.cls-8{clip-path:url(#clip-path-3);}.cls-9{fill-rule:evenodd;}.cls-10{clip-path:url(#clip-path-4);}.cls-11{clip-path:url(#clip-path-5);}.cls-12{clip-path:url(#clip-path-6);}.cls-13{clip-path:url(#clip-path-7);}.cls-14{isolation:isolate;}.cls-15{clip-path:url(#clip-path-8);}.cls-16{clip-path:url(#clip-path-9);}.cls-17{clip-path:url(#clip-path-11);}.cls-18{clip-path:url(#clip-path-13);}.cls-19{clip-path:url(#clip-path-14);}.cls-20{clip-path:url(#clip-path-15);}.cls-21{clip-path:url(#clip-path-17);}.cls-22{clip-path:url(#clip-path-18);}.cls-23{clip-path:url(#clip-path-19);}</style><clipPath id="clip-path"><path class="cls-1" d="M124.89,70.25"/></clipPath><clipPath id="clip-path-2"><path class="cls-2" d="M124.89,70.25l10.22-13.59A17.17,17.17,0,0,0,144,58a18.38,18.38,0,1,0-20.23-16.27,19.45,19.45,0,0,0,3.78,9.36L117.33,64.68"/></clipPath><clipPath id="clip-path-3"><rect class="cls-3" x="-689.84" y="-308.55" width="1048.54" height="2424.07"/></clipPath><clipPath id="clip-path-4"><path class="cls-5" d="M96.15,114.75l-4,4a6.49,6.49,0,0,1-9.16,0L81.32,117a6.45,6.45,0,0,1,0-9.14l7.14-7.13a6.49,6.49,0,0,1,9.16,0l1.95,2a3.06,3.06,0,0,0,4.33-4.33l-2-1.95a12.53,12.53,0,0,0-17.7,0L77,103.59a12.51,12.51,0,0,0,0,17.68L78.69,123a12.57,12.57,0,0,0,17.71,0l4-4a3,3,0,0,0,0-4.32,3,3,0,0,0-4.21.06"/></clipPath><clipPath id="clip-path-5"><rect class="cls-6" x="-689.84" y="-307.02" width="1048.54" height="2424.07"/></clipPath><clipPath id="clip-path-6"><rect class="cls-3" x="90.65" y="78.92" width="29.41" height="34.23"/></clipPath><clipPath id="clip-path-7"><rect class="cls-3" x="-689.84" y="-307.02" width="1048.54" height="2424.07"/></clipPath><clipPath id="clip-path-8"><rect class="cls-3" x="90.04" y="78.32" width="30.7" height="35.31"/></clipPath><clipPath id="clip-path-9"><path class="cls-1" d="M115,82.67a11.71,11.71,0,0,0-8.55-3.75,11.84,11.84,0,0,0-8.61,3.75l-3.36,3.55a3.21,3.21,0,0,0,0,4.43,2.82,2.82,0,0,0,4.19,0L102,87.09a6,6,0,0,1,8.84,0l1.65,1.75a6.89,6.89,0,0,1,0,9.35L106,105a6,6,0,0,1-8.85,0l-1.47-1.56a2.8,2.8,0,0,0-4.18,0,3.21,3.21,0,0,0,0,4.43L93,109.42a11.72,11.72,0,0,0,8.55,3.74,11.52,11.52,0,0,0,8.54-3.74l6.43-6.8a13.34,13.34,0,0,0,0-18.08Z"/></clipPath><clipPath id="clip-path-11"><rect class="cls-3" x="132.01" y="113.53" width="65.48" height="42.81"/></clipPath><clipPath id="clip-path-13"><rect class="cls-3" x="131.49" y="112.86" width="67.55" height="44.52"/></clipPath><clipPath id="clip-path-14"><path class="cls-1" d="M177,119.91a19.08,19.08,0,0,0-12.18,6.61l-29-13a40.63,40.63,0,0,1-3.77,8.36l29.25,13.21a19.11,19.11,0,0,0-.22,5.06,18.28,18.28,0,0,0,36.34-4A18.52,18.52,0,0,0,177,119.91"/></clipPath><clipPath id="clip-path-15"><rect class="cls-3" x="41.08" y="0.83" width="42.34" height="63.53"/></clipPath><clipPath id="clip-path-17"><rect class="cls-3" x="39.38" y="-0.74" width="44.52" height="65.25"/></clipPath><clipPath id="clip-path-18"><path class="cls-1" d="M62.53,37.09,75.06,64.36a48.86,48.86,0,0,1,8.36-4l-12.76-27a18.09,18.09,0,1,0-9.45,4,2.79,2.79,0,0,0,1.32-.22"/></clipPath><clipPath id="clip-path-19"><rect class="cls-4" x="40.92" y="0.79" width="42.99" height="63.71"/></clipPath></defs><g class="cls-7"><g class="cls-8"><rect class="cls-4" x="113.49" y="17.5" width="50.69" height="56.59"/></g></g><path class="cls-6" d="M99.25,24.87A75.73,75.73,0,1,0,175,100.6,75.73,75.73,0,0,0,99.25,24.87Zm32.82,79.83a36.08,36.08,0,1,1-32.2-40A36.17,36.17,0,0,1,132.07,104.7Z"/><path class="cls-9" d="M96.15,114.75l-4,4a6.49,6.49,0,0,1-9.16,0L81.32,117a6.45,6.45,0,0,1,0-9.14l7.14-7.13a6.49,6.49,0,0,1,9.16,0l1.95,2a3.06,3.06,0,0,0,4.33-4.33l-2-1.95a12.53,12.53,0,0,0-17.7,0L77,103.59a12.51,12.51,0,0,0,0,17.68L78.69,123a12.57,12.57,0,0,0,17.71,0l4-4a3,3,0,0,0,0-4.32,3,3,0,0,0-4.21.06"/><g class="cls-10"><rect class="cls-6" x="-689.84" y="-307.02" width="1048.54" height="2424.07"/><g class="cls-11"><rect class="cls-6" x="69.48" y="88.9" width="39.18" height="41.57"/></g></g><g class="cls-12"><g class="cls-13"><g class="cls-14"><g class="cls-15"><g class="cls-16"><g class="cls-15"><rect class="cls-6" x="86.81" y="75.09" width="37.09" height="41.91"/></g></g></g></g></g></g><path class="cls-4" d="M93.69,142.17l-.56,22.65a17.85,17.85,0,0,0-13.36,13.12,18.08,18.08,0,1,0,22.45-13l.56-22.65A36,36,0,0,1,93.69,142.17Z"/><path class="cls-6" d="M115.14,189.16A19.2,19.2,0,0,1,92.52,201a18.81,18.81,0,0,1-11.6-8.71,19.13,19.13,0,0,1-2.12-14.6,18.79,18.79,0,0,1,13.35-13.64l.57-23,1.12.16a34.09,34.09,0,0,0,8.83.12l1.14-.12-.57,23a19,19,0,0,1,12.54,22.92A19.36,19.36,0,0,1,115.14,189.16Zm-33.8-13a16.59,16.59,0,0,0-.6,2,17.12,17.12,0,0,0,1.9,13.09A16.81,16.81,0,0,0,93,199.06a17.19,17.19,0,0,0,20.83-12.43A17,17,0,0,0,102,165.9l-.75-.2.55-22.31a36.32,36.32,0,0,1-7.09-.08l-.55,22.3-.74.18A17,17,0,0,0,81.34,176.2Z"/><path class="cls-6" d="M41,20.85A19.2,19.2,0,0,1,56.3.37,18.85,18.85,0,0,1,70.53,3.2a19.14,19.14,0,0,1,8.23,12.24,18.81,18.81,0,0,1-6.12,18.08L85,60.59l-1.08.34a34.43,34.43,0,0,0-8,3.72l-1,.6L62.58,38.18A19,19,0,0,1,41.35,23,17.32,17.32,0,0,1,41,20.85Zm36.08-3a17.79,17.79,0,0,0-.31-2,17.15,17.15,0,0,0-7.39-11A16.76,16.76,0,0,0,56.7,2.34,17.17,17.17,0,0,0,43.31,22.56,17,17,0,0,0,63,36.09l.77-.13,12,26.4a36.7,36.7,0,0,1,6.43-3L70.19,33l.59-.48A17,17,0,0,0,77.12,17.88Z"/><path class="cls-6" d="M191.76,123.06a19.19,19.19,0,0,1,2.58,25.4A18.84,18.84,0,0,1,181.93,156a19.12,19.12,0,0,1-14.34-3.46,18.82,18.82,0,0,1-7.69-17.47l-29.37-12.64.57-1a34.33,34.33,0,0,0,3.39-8.15l.31-1.1,29.37,12.63a19,19,0,0,1,25.94-3.11Q191,122.36,191.76,123.06Zm-24.6,26.56a15.21,15.21,0,0,0,1.6,1.28A17.1,17.1,0,0,0,181.62,154a16.83,16.83,0,0,0,11.1-6.72,17.18,17.18,0,0,0-3.79-24,17,17,0,0,0-23.66,3.32l-.47.62-28.71-12.35a36.83,36.83,0,0,1-2.71,6.55l28.7,12.35-.11.75A17,17,0,0,0,167.16,149.62Z"/><g class="cls-17"><g class="cls-8"><g class="cls-14"><g class="cls-18"><g class="cls-19"><rect class="cls-4" x="131.49" y="112.86" width="66.01" height="43.75"/></g></g></g></g></g><path class="cls-4" d="M55.59,109l-21.4,7.45a17.85,17.85,0,0,0-17-7.89A18.08,18.08,0,1,0,37.28,125l21.4-7.46A35.55,35.55,0,0,1,55.59,109Z"/><path class="cls-6" d="M19.17,145.6a19.17,19.17,0,0,1-19-17,18.77,18.77,0,0,1,4.07-13.92,19.15,19.15,0,0,1,12.91-7.13,18.8,18.8,0,0,1,17.47,7.7l21.76-7.58.24,1.11a34.3,34.3,0,0,0,3,8.3l.51,1-21.75,7.58A19.11,19.11,0,0,1,19.17,145.6Zm.22-36.19a15.68,15.68,0,0,0-2.05.13,17.14,17.14,0,0,0-11.59,6.39,16.81,16.81,0,0,0-3.64,12.45,17.17,17.17,0,0,0,19,15.12,17,17,0,0,0,15.22-18.43l-.07-.77L57.28,117a37,37,0,0,1-2.41-6.66L33.8,117.63l-.43-.63A17,17,0,0,0,19.39,109.41Z"/><g class="cls-20"><g class="cls-8"><g class="cls-14"><g class="cls-21"><g class="cls-22"><rect class="cls-4" x="40.92" y="0.79" width="42.99" height="63.71"/><g class="cls-23"><rect class="cls-4" x="37.24" y="-3.01" width="50.02" height="71.21"/></g></g></g></g></g></g><path class="cls-4" d="M125.65,69l9.67-13.07A17.86,17.86,0,0,0,153.82,53,18.08,18.08,0,1,0,128,50.49l-9.66,13.07A35.46,35.46,0,0,1,125.65,69Z"/><path class="cls-6" d="M131.63,23.29a19.2,19.2,0,0,1,25.29,3.57,18.82,18.82,0,0,1,4.34,13.84,19.15,19.15,0,0,1-6.79,13.1,18.85,18.85,0,0,1-18.81,3.29l-9.89,14.37-.82-.79a34.57,34.57,0,0,0-7.1-5.24l-1-.56,9.9-14.37a19,19,0,0,1,3.18-25.94A18.31,18.31,0,0,1,131.63,23.29Zm19.91,30.23a17.51,17.51,0,0,0,1.63-1.24,17.18,17.18,0,0,0,6.09-11.75,16.82,16.82,0,0,0-3.87-12.38,17.19,17.19,0,0,0-24.17-2.06,17,17,0,0,0-2.44,23.77l.49.61-9.45,13.8a36.22,36.22,0,0,1,5.7,4.2L135,54.68l.71.28A17,17,0,0,0,151.54,53.52Z"/></svg>