<svg width="112" height="112" viewBox="0 0 112 112" fill="none" xmlns="http://www.w3.org/2000/svg">
<circle cx="56" cy="56" r="56" fill="#F5DE63"/>
<path d="M47 43C54.1964 32 73.1479 24.9861 81.9768 23C82.31 31.5556 79.0677 51.5502 71.4821 59.6667C62.4866 69.2917 46.6613 75.8611 36 78C36.4997 70.8194 39.8036 54 47 43Z" fill="white"/>
<path d="M29.5 86.5C29.5 86.5 35.508 74.5391 40 67C49.1001 51.727 62.0414 52.2276 72 37.5C76.4023 30.9895 82 19 82 19" stroke="black" stroke-width="4" stroke-linecap="round" stroke-linejoin="round"/>
<path d="M63.5 23.5C52 29.5 45.5806 35 40.5 42.5C32.1001 54.9 30.8331 71 31.9998 80C42.8331 78 62.0001 68.5 71.0001 58.5C79.1659 49.4269 85.0001 36 82.0001 19" stroke="black" stroke-width="4" stroke-linecap="round" stroke-linejoin="round"/>
<path d="M46.5 49C44.8333 52.5 41.5 60.3 41.5 63.5" stroke="black" stroke-width="4" stroke-linecap="round" stroke-linejoin="round"/>
<path d="M69.5 49C66.1667 49.1667 58.6 50.1 55 52.5" stroke="black" stroke-width="4" stroke-linecap="round" stroke-linejoin="round"/>
</svg>
