<svg xmlns="http://www.w3.org/2000/svg" viewBox="0 0 213.72 211.82"><defs><style>.cls-1{fill:#fff;}.cls-2{fill:#4ec6ef;}</style></defs><g id="Layer_2" data-name="Layer 2"><g id="Meestro"><rect class="cls-1" x="86.48" y="97.89" width="40.76" height="5.01"/><rect class="cls-1" x="86.48" y="124.63" width="40.76" height="5.02"/><rect class="cls-1" x="86.48" y="110.88" width="40.76" height="5"/><path class="cls-1" d="M120.93,83.76a3.61,3.61,0,0,0,3.7,3.53h12l-15.72-15Z"/><path class="cls-1" d="M104.86,33.51a75.74,75.74,0,1,0,75.73,75.73A75.74,75.74,0,0,0,104.86,33.51Zm34.42,106.57a3.61,3.61,0,0,1-3.7,3.53H78.14a3.61,3.61,0,0,1-3.71-3.53V73.34a3.62,3.62,0,0,1,3.71-3.53h45.43l15.71,15Z"/><path class="cls-2" d="M49.45,118.34a2.15,2.15,0,0,1-2.28.1,2.38,2.38,0,0,1-1.17-2v-5H31.36a15.28,15.28,0,1,1,0-4.45H46v-5a2.23,2.23,0,0,1,3.45-1.85l11,7.23a2.34,2.34,0,0,1,1.19,1.73,2.31,2.31,0,0,1-1.19,2ZM120.14,16.27a15.27,15.27,0,0,1-13,15.09V46.44H112a2.23,2.23,0,0,1,2,3.3l-7.24,13.17c-.16.3-.77,1.53-2,1.53a2.32,2.32,0,0,1-1.95-1.29L95.56,49.74a2.24,2.24,0,0,1,2-3.3h5.13V31.36a15.26,15.26,0,1,1,17.5-15.09Zm92.58,93a15.27,15.27,0,0,1-30.37,2.23H167.86v5a2.37,2.37,0,0,1-1.17,2,2.22,2.22,0,0,1-2.28-.1l-11-7.24a2.33,2.33,0,0,1-1.22-1.86,2.46,2.46,0,0,1,1.22-1.85l11-7.23a2.23,2.23,0,0,1,3.45,1.85v5h14.49a15.27,15.27,0,0,1,30.37,2.22ZM105,210.82A14.47,14.47,0,0,1,102.88,182V168.3H98.13a2.22,2.22,0,0,1-1.86-1.11,2.1,2.1,0,0,1,.1-2.16l6.85-10.4a2.24,2.24,0,0,1,1.77-1.16,2.37,2.37,0,0,1,1.76,1.16L113.6,165a2.11,2.11,0,0,1-1.76,3.27H107.1V182A14.47,14.47,0,0,1,105,210.82Z"/><path class="cls-1" d="M105,211.82a15.47,15.47,0,0,1-3.11-30.62V169.3H98.13a3.19,3.19,0,0,1-2.7-1.58,3.06,3.06,0,0,1,.1-3.24l6.86-10.4a3.07,3.07,0,0,1,2.6-1.61,3.25,3.25,0,0,1,2.59,1.61l6.86,10.4a3.11,3.11,0,0,1-2.6,4.82H108.1v11.9A15.47,15.47,0,0,1,105,211.82Zm0-57.35c-.32,0-.62.22-.91.68L97.2,165.58a1.17,1.17,0,0,0-.08,1.08,1.26,1.26,0,0,0,1,.64h5.75v15.6L103,183a13.48,13.48,0,1,0,3.93,0l-.85-.13V167.3h5.74a1.1,1.1,0,0,0,.92-1.72l-6.85-10.4C105.7,154.85,105.33,154.47,105,154.47Zm92.45-28.95a16.36,16.36,0,0,1-15.93-13H168.86v4a3.33,3.33,0,0,1-1.64,2.8,3.2,3.2,0,0,1-3.36-.11l-11-7.23a3.18,3.18,0,0,1-1.67-2.7,3.42,3.42,0,0,1,1.67-2.69l11-7.23a3.22,3.22,0,0,1,5,2.69v4h12.65a16.27,16.27,0,1,1,15.93,19.5Zm-30.58-15h16.35l.13.85a14.27,14.27,0,1,0,0-4.16l-.13.86H166.86v-6a1.23,1.23,0,0,0-1.9-1l-11,7.23c-.35.23-.77.64-.77,1s.25.69.74,1l11,7.25a1.23,1.23,0,0,0,1.19.09,1.35,1.35,0,0,0,.71-1.11Zm-150.59,15A16.28,16.28,0,1,1,32.2,106H45v-4a3.22,3.22,0,0,1,5-2.69l11,7.23a3.17,3.17,0,0,1,1.64,2.57,3.21,3.21,0,0,1-1.62,2.8l-11,7.25a3.07,3.07,0,0,1-3.37.11,3.33,3.33,0,0,1-1.63-2.8v-4H32.2A16.34,16.34,0,0,1,16.27,125.52Zm0-30.55a14.28,14.28,0,1,0,14.11,16.35l.12-.85H47v6a1.45,1.45,0,0,0,.71,1.12,1.16,1.16,0,0,0,1.19-.1l11-7.23a1.34,1.34,0,0,0,.74-1.15c0-.26-.27-.59-.72-.89L48.9,101a1.23,1.23,0,0,0-1.9,1v6H30.5l-.12-.86A14.35,14.35,0,0,0,16.27,95Zm88.47-29.53a3.27,3.27,0,0,1-2.82-1.81L94.68,50.22a3.24,3.24,0,0,1,2.83-4.78h4.13V32.2A16.26,16.26,0,0,1,104.87,0h0a16.3,16.3,0,0,1,16.27,16.27,16.34,16.34,0,0,1-13,15.93V45.44H112a3.23,3.23,0,0,1,2.83,4.78l-7.23,13.17A3.25,3.25,0,0,1,104.74,65.44Zm-7.23-18a1.23,1.23,0,0,0-1.07,1.82l7.23,13.42a1.33,1.33,0,0,0,1.07.76c.53,0,.92-.73,1.05-1l7.26-13.21A1.23,1.23,0,0,0,112,47.44h-5.88V30.5l.85-.13a14.34,14.34,0,0,0,12.2-14.1A14.29,14.29,0,0,0,104.87,2h0a14.27,14.27,0,0,0-2.08,28.38l.85.12V47.44Z"/></g></g></svg>