<?xml version="1.0" encoding="UTF-8"?>
<svg width="23px" height="32px" viewBox="0 0 23 32" version="1.1" xmlns="http://www.w3.org/2000/svg" xmlns:xlink="http://www.w3.org/1999/xlink">
    <!-- Generator: Sketch 52.6 (67491) - http://www.bohemiancoding.com/sketch -->
    <title>icon</title>
    <desc>Created with Sketch.</desc>
    <defs>
        <polygon id="path-1" points="0 0.0444519774 22.8471607 0.0444519774 22.8471607 16.346516 0 16.346516"></polygon>
        <path d="M5.36282828,0.214974359 C2.6630303,0.214974359 0.474828283,2.05128205 0.474828283,4.31480342 L0.474828283,9.8237265 C0.474828283,12.0883419 2.6630303,13.9241026 5.36282828,13.9241026 L6.50787879,13.9241026 C9.20610101,13.9241026 11.3953535,12.0883419 11.3953535,9.8237265 L11.3953535,4.31480342 C11.3953535,2.05128205 9.20610101,0.214974359 6.50787879,0.214974359 L5.36282828,0.214974359 Z" id="path-3"></path>
    </defs>
    <g id="final" stroke="none" stroke-width="1" fill="none" fill-rule="evenodd">
        <g id="Products-Landing" transform="translate(-752.000000, -1543.000000)">
            <g id="Grid-of-4" transform="translate(0.000000, 685.000000)">
                <g id="Management" transform="translate(368.000000, 677.000000)">
                    <g id="product" transform="translate(384.000000, 166.000000)">
                        <g id="icon" transform="translate(0.000000, 15.000000)">
                            <g id="Group-6">
                                <g id="Group-3" transform="translate(0.000000, 14.764595)">
                                    <mask id="mask-2" fill="white">
                                        <use xlink:href="#path-1"></use>
                                    </mask>
                                    <g id="Clip-2"></g>
                                    <path d="M17.6546853,0.0444519774 L5.19242171,0.0444519774 C2.32933127,0.0444519774 -5.374677e-05,2.32980038 -5.374677e-05,5.1387646 L-5.374677e-05,11.2518343 L-5.374677e-05,14.3086328 C-5.374677e-05,15.4328512 0.931915245,16.3466742 2.07725891,16.3466742 L6.21791008,16.3466742 L13.1980031,16.3466742 L16.6162977,16.3466742 L16.6297344,16.3466742 L17.8277499,16.3466742 L20.7569488,16.3466742 C21.9022925,16.3466742 22.8342615,15.4328512 22.8342615,14.3086328 L22.8342615,12.4804595 L22.8396362,11.2159774 C22.8401736,11.2286328 22.8471607,11.2391789 22.8471607,11.2518343 L22.8471607,5.1387646 C22.8471607,2.32980038 20.5177757,0.0444519774 17.6546853,0.0444519774" id="Fill-1" fill="#003055" mask="url(#mask-2)"></path>
                                </g>
                                <path d="M10.8617922,0.207178908 C8.09920827,0.207178908 5.8606553,1.9773484 5.8606553,4.15987194 L5.8606553,9.46985311 C5.8606553,11.6534313 8.09920827,13.4225461 10.8617922,13.4225461 L12.0340093,13.4225461 C14.7949809,13.4225461 17.0351463,11.6534313 17.0351463,9.46985311 L17.0351463,4.15987194 C17.0351463,1.9773484 14.7949809,0.207178908 12.0340093,0.207178908 L10.8617922,0.207178908 Z" id="Fill-4" fill="#003055"></path>
                            </g>
                            <g id="Group-9" transform="translate(5.333333, 0.000000)">
                                <mask id="mask-4" fill="white">
                                    <use xlink:href="#path-3"></use>
                                </mask>
                                <g id="Clip-8"></g>
                                <polygon id="Fill-7" fill="#003055" mask="url(#mask-4)" points="-3.37159596 17.153094 15.2407273 17.153094 15.2407273 -3.01511111 -3.37159596 -3.01511111"></polygon>
                            </g>
                            <path d="M12.5554889,25.0002666 L12.5554889,25.7524759 L12.5554889,27.8891554 C12.5554889,28.5720613 12.0719862,29.1174263 11.4354897,29.2682947 C11.3283408,29.2933506 11.2265227,29.3333333 11.1113777,29.3333333 C10.3133582,29.3333333 9.6667333,28.6872117 9.6667333,27.8891554 L9.6667333,25.0002666 L6.77797768,25.0002666 C5.97995828,25.0002666 5.33333333,24.3536118 5.33333333,23.5555556 C5.33333333,23.3284534 5.39676975,23.1205429 5.49059167,22.9291587 C5.72514647,22.4488323 6.20758305,22.1113777 6.77797768,22.1113777 L8.70345938,22.1113777 L9.6667333,22.1113777 L9.6667333,19.2224888 C9.6667333,18.9948535 9.73016971,18.7869431 9.82399163,18.5955588 C10.0585464,18.1157655 10.540983,17.7777778 11.1113777,17.7777778 C11.908864,17.7777778 12.5554889,18.4244326 12.5554889,19.2224888 L12.5554889,22.1113777 L15.4442445,22.1113777 C16.242797,22.1113777 16.8888889,22.7580324 16.8888889,23.5555556 C16.8888889,24.2384614 16.4059192,24.7838265 15.7688897,24.9346948 C15.6617408,24.9602838 15.5599227,25.0002666 15.4442445,25.0002666 L12.5554889,25.0002666 Z" id="Fill-10" fill="#009FDA"></path>
                        </g>
                    </g>
                </g>
            </g>
        </g>
    </g>
</svg>