<svg xmlns="http://www.w3.org/2000/svg" viewBox="0 0 164.73 194.3"><defs><style>.cls-1{fill:#4ec6ef;}.cls-2{fill:#fff;}</style></defs><g id="Layer_2" data-name="Layer 2"><g id="Billing_Usage" data-name="Billing&amp;Usage"><path class="cls-1" d="M75.69,118.52h87.38A95.75,95.75,0,0,0,75.69,32.61Z"/><path class="cls-2" d="M164.73,120H74.19V31l1.62.13a97.09,97.09,0,0,1,88.76,87.26Zm-87.54-3H161.4A94.07,94.07,0,0,0,77.19,34.25Z"/><path class="cls-2" d="M62.65,130.47V53.07a70.85,70.85,0,1,0,78.72,77.4Z"/><path class="cls-2" d="M119.38,0a7.08,7.08,0,0,1,7.08,7.08V11.5a31.73,31.73,0,0,1,20.23,14.26,7.09,7.09,0,0,1-12.16,7.3,18.19,18.19,0,0,0-15.15-8.3c-4.6,0-8.28,1.33-10.61,3.21a8.76,8.76,0,0,0-3.54,7.41c0,6.2,10.36,8.48,16.81,11,4.75,1.88,10.29,3.31,15.58,6.53a21.18,21.18,0,0,1,10.06,17.79A23.68,23.68,0,0,1,139,89.11a28.87,28.87,0,0,1-12.49,5.74v4.21a7.08,7.08,0,0,1-14.15,0V94.63A31.94,31.94,0,0,1,92.08,80.26,7.09,7.09,0,1,1,104.24,73a18.26,18.26,0,0,0,15.14,8.4A17,17,0,0,0,130,78.05a8.58,8.58,0,0,0,3.53-7.3c0-6.32-10.3-8.58-16.8-11.16-4.75-1.88-10.3-3.31-15.59-6.52A21,21,0,0,1,91.08,35.38a23.88,23.88,0,0,1,8.74-18.47,28.15,28.15,0,0,1,12.49-5.63V7.08A7.08,7.08,0,0,1,119.38,0Z"/></g></g></svg>