<svg id="Layer_1" data-name="Layer 1" xmlns="http://www.w3.org/2000/svg" xmlns:xlink="http://www.w3.org/1999/xlink" viewBox="0 0 225.37 172.89"><defs><style>.cls-1,.cls-2{fill:none;}.cls-2,.cls-4{clip-rule:evenodd;}.cls-3{fill:#0b9dd9;}.cls-15,.cls-4,.cls-6{fill:#4dc5ef;}.cls-14,.cls-5,.cls-7{fill:#fff;}.cls-5{clip-path:url(#clip-path);}.cls-7{clip-path:url(#clip-path-2);}.cls-8{clip-path:url(#clip-path-3);}.cls-9{clip-path:url(#clip-path-4);}.cls-10{isolation:isolate;}.cls-11{clip-path:url(#clip-path-5);}.cls-12{clip-path:url(#clip-path-6);}.cls-13{clip-path:url(#clip-path-7);}.cls-15{fill-rule:evenodd;}.cls-16{clip-path:url(#clip-path-8);}.cls-17{clip-path:url(#clip-path-9);}</style><clipPath id="clip-path"><path class="cls-4" d="M107.61,119.28a58,58,0,1,0-15.78,15.77l33.37,33.36A11.15,11.15,0,0,0,141,152.64Zm-48.14,3.33A35.69,35.69,0,1,1,95.16,86.92,35.69,35.69,0,0,1,59.47,122.61Z"/></clipPath><clipPath id="clip-path-2"><rect class="cls-6" x="-983" y="-488.49" width="1463.32" height="4026.82"/></clipPath><clipPath id="clip-path-3"><rect class="cls-1" x="40.04" width="185.33" height="172.47"/></clipPath><clipPath id="clip-path-4"><rect class="cls-1" x="-983" y="-488.49" width="1463.32" height="4026.82"/></clipPath><clipPath id="clip-path-5"><rect class="cls-1" x="43.25" y="3.21" width="177.83" height="164.97"/></clipPath><clipPath id="clip-path-6"><path class="cls-2" d="M91.37,3.89h-23A11.56,11.56,0,0,0,56.9,15.45V38.57A11.56,11.56,0,0,0,68.39,50.13h23a11.56,11.56,0,0,0,11.49-11.56V15.45A11.56,11.56,0,0,0,91.37,3.89m36.61,0a11.56,11.56,0,0,0-11.49,11.56V38.57A11.56,11.56,0,0,0,128,50.13h23a11.56,11.56,0,0,0,11.49-11.56V15.45A11.56,11.56,0,0,0,151,3.89Zm81.5,0h-23A11.56,11.56,0,0,0,175,15.45V38.57A11.56,11.56,0,0,0,186.5,50.13h23A11.56,11.56,0,0,0,221,38.57V15.45A11.56,11.56,0,0,0,209.48,3.89M88.21,56.35H58.92A14.73,14.73,0,0,0,44.27,71.08v29.48A14.74,14.74,0,0,0,58.92,115.3H88.21a14.74,14.74,0,0,0,14.65-14.74V71.08A14.73,14.73,0,0,0,88.21,56.35M151,62.76H128a11.56,11.56,0,0,0-11.49,11.56V97.44A11.56,11.56,0,0,0,128,109h23a11.56,11.56,0,0,0,11.49-11.56V74.32A11.56,11.56,0,0,0,151,62.76m58.52,0h-23A11.56,11.56,0,0,0,175,74.32V97.44A11.56,11.56,0,0,0,186.5,109h23A11.56,11.56,0,0,0,221,97.44V74.32a11.56,11.56,0,0,0-11.49-11.56M91.37,121.63h-23A11.56,11.56,0,0,0,56.9,133.19v23.12a11.56,11.56,0,0,0,11.49,11.56h23a11.56,11.56,0,0,0,11.49-11.56V133.19a11.56,11.56,0,0,0-11.49-11.56m59.59,0H128a11.56,11.56,0,0,0-11.49,11.56v23.12A11.56,11.56,0,0,0,128,167.87h23a11.56,11.56,0,0,0,11.49-11.56V133.19A11.56,11.56,0,0,0,151,121.63m58.52,0h-23A11.56,11.56,0,0,0,175,133.19v23.12a11.56,11.56,0,0,0,11.49,11.56h23A11.56,11.56,0,0,0,221,156.31V133.19a11.56,11.56,0,0,0-11.49-11.56"/></clipPath><clipPath id="clip-path-7"><rect class="cls-3" x="40.04" width="185.33" height="172.47"/></clipPath><clipPath id="clip-path-8"><path class="cls-5" d="M132.79,172.89a12.6,12.6,0,0,1-8.62-3.39L91.63,137a59.5,59.5,0,1,1,17.9-17.9L142,151.58a12.64,12.64,0,0,1-9.23,21.31ZM92,133.12l34.24,34.23a9.65,9.65,0,0,0,13.6-13.68l-34.19-34.21.69-1A56.49,56.49,0,1,0,91,133.81Zm-32.55-9A37.19,37.19,0,1,1,96.66,86.92,37.24,37.24,0,0,1,59.47,124.11Zm0-71.38A34.19,34.19,0,1,0,93.66,86.92,34.23,34.23,0,0,0,59.47,52.73Z"/></clipPath><clipPath id="clip-path-9"><path class="cls-7" d="M481.82,3539.83H-984.5V-490H481.82Zm-1463.32-3H478.82V-487H-981.5Z"/></clipPath></defs><g class="cls-8"><g class="cls-9"><g class="cls-10"><g class="cls-11"><g class="cls-12"><rect class="cls-3" x="40.04" width="185.33" height="172.47"/><g class="cls-13"><rect class="cls-14" x="38.91" y="-1.47" width="187.42" height="174.7"/></g></g></g></g></g></g><path class="cls-15" d="M107.61,119.28a58,58,0,1,0-15.78,15.77l33.37,33.36A11.15,11.15,0,0,0,141,152.64Zm-48.14,3.33A35.69,35.69,0,1,1,95.16,86.92,35.69,35.69,0,0,1,59.47,122.61Z"/><path class="cls-14" d="M132.79,172.89a12.6,12.6,0,0,1-8.62-3.39L91.63,137a59.5,59.5,0,1,1,17.9-17.9L142,151.58a12.64,12.64,0,0,1-9.23,21.31ZM92,133.12l34.24,34.23a9.65,9.65,0,0,0,13.6-13.68l-34.19-34.21.69-1A56.49,56.49,0,1,0,91,133.81Zm-32.55-9A37.19,37.19,0,1,1,96.66,86.92,37.24,37.24,0,0,1,59.47,124.11Zm0-71.38A34.19,34.19,0,1,0,93.66,86.92,34.23,34.23,0,0,0,59.47,52.73Z"/><g class="cls-16"><rect class="cls-6" x="-983" y="-488.49" width="1463.32" height="4026.82"/><path class="cls-14" d="M481.82,3539.83H-984.5V-490H481.82Zm-1463.32-3H478.82V-487H-981.5Z"/><g class="cls-17"><rect class="cls-6" x="-3.88" y="23.57" width="153.19" height="153.19"/><path class="cls-14" d="M150.81,178.26H-5.38V22.07H150.81Zm-153.19-3H147.81V25.07H-2.38Z"/></g></g></svg>