<svg xmlns="http://www.w3.org/2000/svg" xmlns:xlink="http://www.w3.org/1999/xlink" viewBox="0 0 274.61 236.49"><defs><style>.cls-1{fill:none;}.cls-2,.cls-6,.cls-7{fill:#4ec6ef;}.cls-2,.cls-3{clip-rule:evenodd;}.cls-3,.cls-5,.cls-9{fill:#fff;}.cls-4{clip-path:url(#clip-path);}.cls-7,.cls-9{fill-rule:evenodd;}.cls-8{clip-path:url(#clip-path-2);}.cls-10{clip-path:url(#clip-path-3);}</style><clipPath id="clip-path" transform="translate(0 -13.76)"><polygon class="cls-1" points="41.3 0 41.3 83.65 137.48 138.26 236.8 81.5 238.8 0 41.3 0"/></clipPath><clipPath id="clip-path-2" transform="translate(0 -13.76)"><path class="cls-2" d="M126.2,72.24h15.29a16.79,16.79,0,0,0-15.29-15.1Z"/></clipPath><clipPath id="clip-path-3" transform="translate(0 -13.76)"><path class="cls-3" d="M181,75.43V58.83a15.2,15.2,0,1,0,16.81,16.6Z"/></clipPath></defs><g id="Layer_2" data-name="Layer 2"><g id="DMS"><g class="cls-4"><path class="cls-5" d="M221,13.89H54a9.4,9.4,0,0,0-9.37,9.42v124.3A9.4,9.4,0,0,0,54,157H221a9.39,9.39,0,0,0,9.37-9.42V23.31A9.39,9.39,0,0,0,221,13.89ZM184.4,57.14a16.78,16.78,0,0,1,15.29,15.1H184.4Zm-61.61,1.69v16.6h16.8a15.13,15.13,0,1,1-16.8-16.6ZM83.28,141.26H56.39v-83H83.28Zm135.31.63H92.13v-8.07H218.59Zm0-16.56H92.13v-8.06H218.59Zm0-16.34H92.13v-8.06H218.59Z" transform="translate(0 -13.76)"/><rect class="cls-6" x="44.59" width="185.78" height="29.02"/><path class="cls-5" d="M227.37,16.76v23H47.59v-23H227.37m3-3H44.59v29H230.37v-29Z" transform="translate(0 -13.76)"/><path class="cls-5" d="M63.33,20a8.24,8.24,0,1,0,8.19,8.23A8.21,8.21,0,0,0,63.33,20Z" transform="translate(0 -13.76)"/><path class="cls-5" d="M86,20a8.24,8.24,0,1,0,8.2,8.23A8.21,8.21,0,0,0,86,20Z" transform="translate(0 -13.76)"/><path class="cls-5" d="M110.29,20a8.24,8.24,0,1,0,8.19,8.23A8.21,8.21,0,0,0,110.29,20Z" transform="translate(0 -13.76)"/><path class="cls-7" d="M126.2,72.24h15.29a16.79,16.79,0,0,0-15.29-15.1Z" transform="translate(0 -13.76)"/><g class="cls-8"><rect class="cls-6" x="121.45" y="38.63" width="24.79" height="24.6"/></g><path class="cls-9" d="M181,75.43V58.83a15.2,15.2,0,1,0,16.81,16.6Z" transform="translate(0 -13.76)"/><g class="cls-10"><rect class="cls-6" x="162.87" y="40.32" width="39.68" height="39.79"/></g></g><path class="cls-5" d="M0,113.5,41.12,89.62l90,51.93L90,165.44ZM134.19,250.25l-90-51.94V146.2l44.21,25.52a3.11,3.11,0,0,0,1.55.42,3,3,0,0,0,1.57-.43l42.67-24.78Zm96.18-51.94-90,51.94,0-103.3,42.65,24.76a3.07,3.07,0,0,0,3.1,0l44.18-25.49Zm44.24-84.82-90,52-41.14-23.89,90-52" transform="translate(0 -13.76)"/></g></g></svg>