<svg id="Layer_1" data-name="Layer 1" xmlns="http://www.w3.org/2000/svg" xmlns:xlink="http://www.w3.org/1999/xlink" viewBox="0 0 193.31 159.17"><defs><style>.cls-1,.cls-21,.cls-4{fill:#fff;}.cls-2,.cls-3{fill:none;}.cls-2,.cls-4{clip-rule:evenodd;}.cls-5{clip-path:url(#clip-path);}.cls-6{clip-path:url(#clip-path-2);}.cls-7{clip-path:url(#clip-path-3);}.cls-8{clip-path:url(#clip-path-5);}.cls-9{clip-path:url(#clip-path-7);}.cls-10{clip-path:url(#clip-path-9);}.cls-11{isolation:isolate;}.cls-12{clip-path:url(#clip-path-11);}.cls-13{clip-path:url(#clip-path-12);}.cls-14{clip-path:url(#clip-path-13);}.cls-15{clip-path:url(#clip-path-14);}.cls-16{clip-path:url(#clip-path-16);}.cls-17{clip-path:url(#clip-path-18);}.cls-18{clip-path:url(#clip-path-20);}.cls-19{clip-path:url(#clip-path-22);}.cls-20{clip-path:url(#clip-path-23);}.cls-21{fill-rule:evenodd;}.cls-22{clip-path:url(#clip-path-25);}.cls-23{clip-path:url(#clip-path-27);}.cls-24{clip-path:url(#clip-path-29);}.cls-25{clip-path:url(#clip-path-31);}</style><clipPath id="clip-path"><rect class="cls-1" x="4.88" y="73.25" width="20.5" height="76.15"/></clipPath><clipPath id="clip-path-2"><rect class="cls-1" x="-909.94" y="-455.93" width="1333.67" height="4443.3"/></clipPath><clipPath id="clip-path-3"><rect class="cls-1" x="45.89" y="92.78" width="20.5" height="54.67"/></clipPath><clipPath id="clip-path-5"><rect class="cls-1" x="85.92" y="50.79" width="20.5" height="97.63"/></clipPath><clipPath id="clip-path-7"><rect class="cls-1" x="126.92" y="63.49" width="20.5" height="83.96"/></clipPath><clipPath id="clip-path-9"><rect class="cls-1" x="167.93" y="34.19" width="20.5" height="113.25"/></clipPath><clipPath id="clip-path-11"><rect class="cls-1" y="154.28" width="193.31" height="4.88"/></clipPath><clipPath id="clip-path-12"><path class="cls-2" d="M14.25,56.18a10,10,0,1,0-10-10,10,10,0,0,0,10,10"/></clipPath><clipPath id="clip-path-13"><rect class="cls-3" x="-909.94" y="-455.93" width="1333.67" height="4443.3"/></clipPath><clipPath id="clip-path-14"><path class="cls-2" d="M55.53,77.44a10,10,0,1,0-10-10,10,10,0,0,0,10,10"/></clipPath><clipPath id="clip-path-16"><path class="cls-2" d="M96.6,36a10,10,0,1,0-10-10,10,10,0,0,0,10,10"/></clipPath><clipPath id="clip-path-18"><path class="cls-2" d="M137.68,49.17a10,10,0,1,0-10-10,10,10,0,0,0,10,10"/></clipPath><clipPath id="clip-path-20"><rect class="cls-3" x="168.77" width="19.95" height="19.94"/></clipPath><clipPath id="clip-path-22"><rect class="cls-3" x="167.93" y="-0.95" width="21.48" height="21.48"/></clipPath><clipPath id="clip-path-23"><path class="cls-2" d="M178.75,19.94a10,10,0,1,0-10-10,10,10,0,0,0,10,10"/></clipPath><clipPath id="clip-path-25"><path class="cls-4" d="M28,55.71l11.59,5.76a2,2,0,0,0,1,.23,2.14,2.14,0,0,0,1-4.05L29.93,51.88A2.14,2.14,0,1,0,28,55.71"/></clipPath><clipPath id="clip-path-27"><path class="cls-4" d="M67.57,57.47a2.11,2.11,0,0,0,1.52-.64L86,39.7a2.14,2.14,0,1,0-3-3l-17,17.13a2.14,2.14,0,0,0,1.52,3.64"/></clipPath><clipPath id="clip-path-29"><path class="cls-4" d="M111.86,33l8.85,3.2a2.08,2.08,0,0,0,.73.13,2.14,2.14,0,0,0,.73-4.15L113.32,29a2.14,2.14,0,1,0-1.46,4"/></clipPath><clipPath id="clip-path-31"><path class="cls-4" d="M151.54,31.6a2.16,2.16,0,0,0,1.25-.4L166,21.66a2.14,2.14,0,1,0-2.5-3.47l-13.25,9.53a2.14,2.14,0,0,0,1.25,3.88"/></clipPath></defs><rect class="cls-1" x="4.88" y="73.25" width="20.5" height="76.15"/><g class="cls-5"><rect class="cls-1" x="-909.94" y="-455.93" width="1333.67" height="4443.3"/><g class="cls-6"><rect class="cls-1" y="68.37" width="30.27" height="85.92"/></g></g><rect class="cls-1" x="45.89" y="92.78" width="20.5" height="54.67"/><g class="cls-7"><rect class="cls-1" x="-909.94" y="-455.93" width="1333.67" height="4443.3"/><g class="cls-6"><rect class="cls-1" x="41.01" y="87.89" width="30.27" height="64.44"/></g></g><rect class="cls-1" x="85.92" y="50.79" width="20.5" height="97.63"/><g class="cls-8"><rect class="cls-1" x="-909.94" y="-455.93" width="1333.67" height="4443.3"/><g class="cls-6"><rect class="cls-1" x="81.04" y="45.91" width="30.27" height="107.4"/></g></g><rect class="cls-1" x="126.92" y="63.49" width="20.5" height="83.96"/><g class="cls-9"><rect class="cls-1" x="-909.94" y="-455.93" width="1333.67" height="4443.3"/><g class="cls-6"><rect class="cls-1" x="122.04" y="58.6" width="30.27" height="93.73"/></g></g><rect class="cls-1" x="167.93" y="34.19" width="20.5" height="113.25"/><g class="cls-10"><rect class="cls-1" x="-909.94" y="-455.93" width="1333.67" height="4443.3"/><g class="cls-6"><rect class="cls-1" x="163.05" y="29.31" width="30.27" height="123.02"/></g></g><g class="cls-11"><rect class="cls-1" y="154.28" width="193.31" height="4.88"/><g class="cls-12"><rect class="cls-1" x="-4.88" y="149.85" width="202.97" height="14.04"/></g></g><g class="cls-13"><g class="cls-14"><rect class="cls-1" x="-0.6" y="31.36" width="29.71" height="29.7"/></g></g><g class="cls-15"><g class="cls-14"><rect class="cls-1" x="40.68" y="52.62" width="29.71" height="29.7"/></g></g><g class="cls-16"><g class="cls-14"><rect class="cls-1" x="81.75" y="11.17" width="29.71" height="29.7"/></g></g><g class="cls-17"><g class="cls-14"><rect class="cls-1" x="122.82" y="24.35" width="29.72" height="29.7"/></g></g><g class="cls-18"><g class="cls-14"><g class="cls-11"><g class="cls-19"><g class="cls-20"><g class="cls-19"><rect class="cls-1" x="163.89" y="-4.88" width="29.72" height="29.7"/></g></g></g></g></g></g><path class="cls-21" d="M28,55.71l11.59,5.76a2,2,0,0,0,1,.23,2.14,2.14,0,0,0,1-4.05L29.93,51.88A2.14,2.14,0,1,0,28,55.71"/><g class="cls-22"><rect class="cls-1" x="-909.94" y="-455.93" width="1333.67" height="4443.3"/><g class="cls-6"><rect class="cls-1" x="21.96" y="46.77" width="25.64" height="19.81"/></g></g><path class="cls-21" d="M67.57,57.47a2.11,2.11,0,0,0,1.52-.64L86,39.7a2.14,2.14,0,1,0-3-3l-17,17.13a2.14,2.14,0,0,0,1.52,3.64"/><g class="cls-23"><rect class="cls-1" x="-909.94" y="-455.93" width="1333.67" height="4443.3"/><g class="cls-6"><rect class="cls-1" x="60.55" y="31.18" width="30.99" height="31.17"/></g></g><path class="cls-21" d="M111.86,33l8.85,3.2a2.08,2.08,0,0,0,.73.13,2.14,2.14,0,0,0,.73-4.15L113.32,29a2.14,2.14,0,1,0-1.46,4"/><g class="cls-24"><rect class="cls-1" x="-909.94" y="-455.93" width="1333.67" height="4443.3"/><g class="cls-6"><rect class="cls-1" x="105.57" y="23.99" width="22.89" height="17.25"/></g></g><path class="cls-21" d="M151.54,31.6a2.16,2.16,0,0,0,1.25-.4L166,21.66a2.14,2.14,0,1,0-2.5-3.47l-13.25,9.53a2.14,2.14,0,0,0,1.25,3.88"/><g class="cls-25"><rect class="cls-1" x="-909.94" y="-455.93" width="1333.67" height="4443.3"/><g class="cls-6"><rect class="cls-1" x="144.52" y="12.91" width="27.3" height="23.57"/></g></g></svg>