<?xml version="1.0" encoding="UTF-8"?>
<svg width="30px" height="32px" viewBox="0 0 30 32" version="1.1" xmlns="http://www.w3.org/2000/svg" xmlns:xlink="http://www.w3.org/1999/xlink">
    <!-- Generator: Sketch 52.6 (67491) - http://www.bohemiancoding.com/sketch -->
    <title>icon</title>
    <desc>Created with Sketch.</desc>
    <g id="final" stroke="none" stroke-width="1" fill="none" fill-rule="evenodd">
        <g id="Products-Landing" transform="translate(-109.000000, -910.000000)">
            <g id="Grid-of-4" transform="translate(0.000000, 685.000000)">
                <g id="Generate-&amp;-Upload" transform="translate(108.000000, 24.000000)">
                    <g id="product" transform="translate(1.000000, 179.000000)">
                        <g id="icon" transform="translate(0.000000, 22.000000)">
                            <g id="Group-9">
                                <path d="M14.8684688,28.4818152 C8.48878125,29.2239906 0.11296875,28.0130433 0.11296875,24.809862 L0.11296875,19.7317801 C0.11296875,19.5364117 0.15215625,19.3801544 0.19134375,19.2238971 C2.77453125,21.1770199 8.48878125,21.9583064 13.5769688,21.5675696 C13.6551563,21.216131 13.7725313,20.8645053 13.9290938,20.5130667 C7.70596875,21.0598737 0.11296875,19.8098152 0.11296875,16.7628912 L0.11296875,11.6846222 C0.11296875,11.6065871 0.11296875,11.528552 0.15215625,11.4112187 C4.37915625,14.7706573 17.6474062,14.7706573 21.9135938,11.4112187 L21.9135938,11.6846222 L21.9135938,15.3956865 C26.3363438,15.5519439 29.8979062,19.184786 29.8979062,23.6771368 C29.8979062,28.2084117 26.1797813,31.9192889 21.6004688,31.9192889 C18.8215313,31.9192889 16.3557188,30.5520842 14.8684688,28.4818152" id="Fill-1" fill="#133055"></path>
                                <path d="M21.600525,17.0753871 C25.2404625,17.0753871 28.175775,20.044276 28.175775,23.6771181 C28.175775,27.3097731 25.2404625,30.2395509 21.600525,30.2395509 C17.9605875,30.2395509 15.0250875,27.3097731 15.0250875,23.6771181 C15.0250875,20.044276 17.9605875,17.0753871 21.600525,17.0753871" id="Fill-3" fill="#04A0D8"></path>
                                <path d="M21.9136313,3.95029708 L21.9136313,9.02837895 C21.9136313,14.184683 0.11300625,14.184683 0.11300625,9.02837895 L0.11300625,3.95029708 C0.11300625,-1.20600702 21.9136313,-1.20600702 21.9136313,3.95029708" id="Fill-5" fill="#133055"></path>
                            </g>
                            <path d="M19.5805298,21 L24.4194702,21 C24.7398611,21 25,21.2239458 25,21.5000705 C25,21.7761952 24.7398611,22 24.4194702,22 L19.5805298,22 C19.2599601,22 19,21.7761952 19,21.5000705 C19,21.2239458 19.2599601,21 19.5805298,21 Z" id="Fill-16" fill="#133055"></path>
                            <path d="M25,26.5 C25,26.7761636 24.740211,27 24.4196317,27 L19.5803683,27 C19.2599678,27 19,26.7761636 19,26.5 C19,26.2238364 19.2599678,26 19.5803683,26 L24.4196317,26 C24.740211,26 25,26.2238364 25,26.5" id="Fill-56" fill="#133055"></path>
                            <path d="M18,21.499979 L20.087157,19.1745578 C20.2960045,18.9418141 20.6346405,18.9418141 20.8434879,19.1745578 C21.0521707,19.4073016 21.052006,19.784565 20.8434879,20.0171407 L19.5124971,21.499979 L20.8434879,22.9828173 C21.0521707,23.2155611 21.0521707,23.5928244 20.8434879,23.8255682 C20.6344758,24.0581439 20.2960045,24.0581439 20.087157,23.8255682 L18,21.499979 Z" id="Fill-80" fill="#133055"></path>
                            <path d="M23,26.499979 L25.087157,24.1745578 C25.2960045,23.9418141 25.6346405,23.9418141 25.8434879,24.1745578 C26.0521707,24.4073016 26.052006,24.784565 25.8434879,25.0171407 L24.5124971,26.499979 L25.8434879,27.9828173 C26.0521707,28.2155611 26.0521707,28.5928244 25.8434879,28.8255682 C25.6344758,29.0581439 25.2960045,29.0581439 25.087157,28.8255682 L23,26.499979 Z" id="Fill-80-Copy" fill="#133055" transform="translate(24.500000, 26.500000) scale(-1, 1) translate(-24.500000, -26.500000) "></path>
                        </g>
                    </g>
                </g>
            </g>
        </g>
    </g>
</svg>