<svg width="112" height="112" viewBox="0 0 112 112" fill="none" xmlns="http://www.w3.org/2000/svg">
<circle cx="56" cy="56" r="56" fill="#F5DE63"/>
<path fill-rule="evenodd" clip-rule="evenodd" d="M38 41.7667V88.7877C38 89.4572 38.6039 90 39.3487 90H80.2607C81.0056 90 81.6095 89.4572 81.6095 88.7877V32.2123C81.6095 31.5428 81.0056 31 80.2607 31H47.8597C47.4502 31 47.0628 31.1672 46.8069 31.4546L38.2959 41.0089C38.1044 41.224 38 41.4912 38 41.7667Z" fill="white"/>
<path fill-rule="evenodd" clip-rule="evenodd" d="M33.2914 35.6887V86.4911C33.2914 87.2144 33.9229 87.8009 34.702 87.8009H77.4901C78.2692 87.8009 78.9007 87.2144 78.9007 86.4911V25.3661C78.9007 24.6427 78.2692 24.0562 77.4901 24.0562H43.6032C43.1749 24.0562 42.7698 24.2369 42.5021 24.5474L33.6009 34.8701C33.4005 35.1024 33.2914 35.3911 33.2914 35.6887ZM30 35.6887C30 34.6967 30.3638 33.7342 31.0316 32.9598L39.9328 22.6372C40.8252 21.6023 42.1755 21 43.6032 21H77.4901C80.087 21 82.1921 22.9548 82.1921 25.3661V86.4911C82.1921 88.9024 80.087 90.8571 77.4901 90.8571H34.702C32.1052 90.8571 30 88.9024 30 86.4911V35.6887Z" fill="black" stroke="black" stroke-width="3"/>
<path fill-rule="evenodd" clip-rule="evenodd" d="M65.0744 51.5317C66.1239 52.3828 66.3084 53.9537 65.4865 55.0404L54.1714 70L46.8 63.1377C45.8087 62.2149 45.7275 60.6347 46.6188 59.6082C47.5101 58.5817 49.0363 58.4977 50.0276 59.4206L53.5567 62.7059L61.6858 51.9584C62.5077 50.8717 64.0249 50.6807 65.0744 51.5317Z" fill="black"/>
</svg>
