<svg xmlns="http://www.w3.org/2000/svg" xmlns:xlink="http://www.w3.org/1999/xlink" viewBox="0 0 157.7 179.2"><defs><style>.cls-1,.cls-2{fill:none;}.cls-1{clip-rule:evenodd;}.cls-3{fill:#fff;}.cls-4{clip-path:url(#clip-path);}.cls-5{clip-path:url(#clip-path-2);}</style><clipPath id="clip-path"><path class="cls-1" d="M75.86,124.93,43.54,92.63A8.79,8.79,0,1,1,56,80.2l19.88,19.87,60.68-60.63A8.79,8.79,0,0,1,149,51.87Z"/></clipPath><clipPath id="clip-path-2"><rect class="cls-2" x="-973.84" y="-480.26" width="1398.81" height="4011.08"/></clipPath></defs><g id="Layer_2" data-name="Layer 2"><g id="Song"><path class="cls-3" d="M79,0,0,44.62v56.13a79.71,79.71,0,0,0,59.16,75.88,78.48,78.48,0,0,0,21.29,2.56c42.36-.72,76.54-35.26,77.25-78.08V44.62Zm60.24,100.7a60.93,60.93,0,1,1-121.86,0v-43L78.34,23.55l60.93,34.14Z"/><g class="cls-4"><g class="cls-5"><rect class="cls-3" x="35.84" y="31.74" width="120.83" height="98.31"/></g></g></g></g></svg>