<svg id="Layer_1" data-name="Layer 1" xmlns="http://www.w3.org/2000/svg" xmlns:xlink="http://www.w3.org/1999/xlink" viewBox="0 0 177.18 189.75"><defs><style>.cls-1,.cls-2,.cls-3{fill:#fff;}.cls-1{clip-rule:evenodd;}.cls-3{fill-rule:evenodd;}.cls-4{clip-path:url(#clip-path);}.cls-5{clip-path:url(#clip-path-2);}.cls-6{clip-path:url(#clip-path-3);}.cls-7{clip-path:url(#clip-path-5);}.cls-8{clip-path:url(#clip-path-7);}</style><clipPath id="clip-path"><path class="cls-1" d="M146.67,157.93a3.8,3.8,0,0,1-3.62,4H112.86a4,4,0,0,1,0-7.91h30.19a3.8,3.8,0,0,1,3.62,4"/></clipPath><clipPath id="clip-path-2"><rect class="cls-2" x="-1206.38" y="-462.27" width="5080.99" height="2065.67"/></clipPath><clipPath id="clip-path-3"><path class="cls-1" d="M148.46,157.77l-14.14,15.44a3.41,3.41,0,0,1-5.12,0,4.24,4.24,0,0,1,0-5.6l9-9.84-9-9.84a4.22,4.22,0,0,1,0-5.59,3.4,3.4,0,0,1,5.12,0Z"/></clipPath><clipPath id="clip-path-5"><path class="cls-1" d="M111.13,122.74a3.8,3.8,0,0,1,3.62-3.95h30.18a4,4,0,0,1,0,7.91H114.75a3.8,3.8,0,0,1-3.62-4"/></clipPath><clipPath id="clip-path-7"><path class="cls-1" d="M109.34,122.91l14.13-15.44a3.41,3.41,0,0,1,5.12,0,4.21,4.21,0,0,1,0,5.6l-9,9.84,9,9.84a4.2,4.2,0,0,1,0,5.59,3.4,3.4,0,0,1-5.12,0Z"/></clipPath></defs><path class="cls-2" d="M129.68,91.27V67.52c-25.38,20-104.3,20-129.45,0A4.59,4.59,0,0,0,0,69.15V99.42C0,117.58,45.17,125,82.19,121.77a33.58,33.58,0,0,0-2.1,6.28c-30.27,2.33-64.26-2.33-79.62-14a11.53,11.53,0,0,0-.47,3v30.27c0,19.09,49.82,26.31,87.77,21.88a49.31,49.31,0,1,0,41.91-78Zm-1.86,88.47a39.23,39.23,0,1,1,39.11-39.11A39,39,0,0,1,127.82,179.74Z"/><path class="cls-2" d="M129.68,23.05V53.32C129.68,84.05,0,84.05,0,53.32V23.05C0-7.68,129.68-7.68,129.68,23.05Z"/><path class="cls-3" d="M146.67,157.93a3.8,3.8,0,0,1-3.62,4H112.86a4,4,0,0,1,0-7.91h30.19a3.8,3.8,0,0,1,3.62,4"/><g class="cls-4"><rect class="cls-2" x="-1206.38" y="-462.27" width="5080.99" height="2065.67"/><g class="cls-5"><rect class="cls-2" x="101.68" y="146.42" width="52.55" height="23.03"/></g></g><path class="cls-3" d="M148.46,157.77l-14.14,15.44a3.41,3.41,0,0,1-5.12,0,4.24,4.24,0,0,1,0-5.6l9-9.84-9-9.84a4.22,4.22,0,0,1,0-5.59,3.4,3.4,0,0,1,5.12,0Z"/><g class="cls-6"><rect class="cls-2" x="-1206.38" y="-462.27" width="5080.99" height="2065.67"/><g class="cls-5"><rect class="cls-2" x="120.58" y="133.62" width="35.44" height="48.31"/></g></g><path class="cls-3" d="M111.13,122.74a3.8,3.8,0,0,1,3.62-3.95h30.18a4,4,0,0,1,0,7.91H114.75a3.8,3.8,0,0,1-3.62-4"/><g class="cls-7"><rect class="cls-2" x="-1206.38" y="-462.27" width="5080.99" height="2065.67"/><g class="cls-5"><rect class="cls-2" x="103.57" y="111.23" width="52.55" height="23.03"/></g></g><path class="cls-3" d="M109.34,122.91l14.13-15.44a3.41,3.41,0,0,1,5.12,0,4.21,4.21,0,0,1,0,5.6l-9,9.84,9,9.84a4.2,4.2,0,0,1,0,5.59,3.4,3.4,0,0,1-5.12,0Z"/><g class="cls-8"><rect class="cls-2" x="-1206.38" y="-462.27" width="5080.99" height="2065.67"/><g class="cls-5"><rect class="cls-2" x="101.78" y="98.75" width="35.44" height="48.31"/></g></g></svg>