<svg xmlns="http://www.w3.org/2000/svg" xmlns:xlink="http://www.w3.org/1999/xlink" viewBox="0 0 214.47 163.14"><defs><style>.cls-1,.cls-2{fill:none;}.cls-2{clip-rule:evenodd;}.cls-3{clip-path:url(#clip-path);}.cls-4{clip-path:url(#clip-path-2);}.cls-5{isolation:isolate;}.cls-6{clip-path:url(#clip-path-3);}.cls-7{clip-path:url(#clip-path-4);}.cls-8{fill:#fff;}</style><clipPath id="clip-path" transform="translate(4.92 4.92)"><rect class="cls-1" width="204.62" height="153.29"/></clipPath><clipPath id="clip-path-2" transform="translate(4.92 4.92)"><rect class="cls-1" x="-909.87" y="-444.43" width="1345.12" height="3411.04"/></clipPath><clipPath id="clip-path-3" transform="translate(4.92 4.92)"><rect class="cls-1" y="-0.32" width="204.82" height="153.62"/></clipPath><clipPath id="clip-path-4" transform="translate(4.92 4.92)"><path class="cls-2" d="M102.31,0A12.76,12.76,0,0,0,89.52,12.78v8.51a12.79,12.79,0,0,0,25.58,0V12.78A12.76,12.76,0,0,0,102.31,0ZM12.79,17A12.76,12.76,0,0,0,0,29.8V140.52a12.76,12.76,0,0,0,12.79,12.77h179a12.76,12.76,0,0,0,12.79-12.77V29.8A12.76,12.76,0,0,0,191.83,17H122.56v4.26a20.25,20.25,0,0,1-40.5,0V17ZM55.94,51.09A18.44,18.44,0,1,1,56,88h0A18.45,18.45,0,0,1,37.49,69.53h0A18.46,18.46,0,0,1,55.94,51.09ZM121.3,74.52h57a5.32,5.32,0,1,1,.25,10.64H121.3a5.32,5.32,0,1,1-.24-10.64ZM41.88,95H70a21,21,0,0,1,21.1,21.07v18.45a1.75,1.75,0,0,1-1.77,1.74H22.55a1.76,1.76,0,0,1-1.76-1.74V116.06A21,21,0,0,1,41.88,95Zm79.42,5.06h57a5.33,5.33,0,1,1,.32,10.65H121.3a5.33,5.33,0,0,1-.33-10.65Zm57.1,25.56a5.32,5.32,0,1,1,0,10.64H121.29a5.32,5.32,0,1,1-.25-10.64H178.4Z"/></clipPath></defs><g id="Layer_2" data-name="Layer 2"><g id="Persona"><g class="cls-3"><g class="cls-4"><g class="cls-5"><g class="cls-6"><g class="cls-7"><g class="cls-6"><rect class="cls-8" width="214.47" height="163.14"/></g></g></g></g></g></g></g></g></svg>