<?xml version="1.0" encoding="UTF-8"?>
<svg width="30px" height="25px" viewBox="0 0 30 25" version="1.1" xmlns="http://www.w3.org/2000/svg" xmlns:xlink="http://www.w3.org/1999/xlink">
    <!-- Generator: Sketch 52.6 (67491) - http://www.bohemiancoding.com/sketch -->
    <title>icon</title>
    <desc>Created with Sketch.</desc>
    <defs>
        <path d="M0.464769231,0.0549230769 C0.287384615,0.0601538462 0.145384615,0.205692308 0.145384615,0.383538462 C0.145384615,0.565384615 0.292769231,0.712769231 0.474307692,0.712769231 L29.5406154,0.712769231 C29.7223077,0.712769231 29.8696923,0.565384615 29.8696923,0.383538462 C29.8696923,0.205692308 29.7275385,0.0601538462 29.5503077,0.0549230769 L0.464769231,0.0549230769 Z" id="path-1"></path>
        <path d="M0.0346153846,1.66630769 C0.0346153846,2.51215385 0.722923077,3.20030769 1.56861538,3.20030769 C2.41476923,3.20030769 3.10323077,2.51215385 3.10323077,1.66630769 C3.10323077,0.820461538 2.41476923,0.133076923 1.56861538,0.133076923 C0.722461538,0.133076923 0.0346153846,0.820461538 0.0346153846,1.66630769 Z" id="path-3"></path>
        <path d="M0.0772307692,1.55384615 C0.0772307692,2.39953846 0.765846154,3.08707692 1.612,3.08707692 C2.458,3.08707692 3.14661538,2.39953846 3.14661538,1.55384615 C3.14661538,0.707846154 2.458,0.02 1.612,0.02 C0.765846154,0.02 0.0772307692,0.707384615 0.0772307692,1.55384615 Z" id="path-5"></path>
        <path d="M0.0883076923,1.63661538 C0.0883076923,2.48230769 0.776615385,3.17061538 1.62276923,3.17061538 C2.46907692,3.17061538 3.15753846,2.48230769 3.15753846,1.63661538 C3.15753846,0.790923077 2.46907692,0.103538462 1.62276923,0.103538462 C0.776615385,0.103538462 0.0883076923,0.790923077 0.0883076923,1.63661538 Z" id="path-7"></path>
        <path d="M0.0992307692,1.66461538 C0.0992307692,2.51092308 0.788,3.19861538 1.63384615,3.19861538 C2.48,3.19861538 3.16876923,2.51092308 3.16876923,1.66461538 C3.16876923,0.818923077 2.48,0.131384615 1.63384615,0.131384615 C0.788,0.131384615 0.0992307692,0.818923077 0.0992307692,1.66461538 Z" id="path-9"></path>
        <path d="M0.109846154,1.62938462 C0.110153846,2.47538462 0.798769231,3.16323077 1.64492308,3.16323077 C2.49107692,3.16323077 3.17938462,2.47569231 3.17938462,1.62938462 C3.17938462,0.783692308 2.49107692,0.0961538462 1.64492308,0.0961538462 C0.798769231,0.0961538462 0.109846154,0.783692308 0.109846154,1.62938462 Z" id="path-11"></path>
        <path d="M0.155076923,0.225538462 C0.074,0.387846154 0.140461538,0.585076923 0.303076923,0.666307692 L2.08676923,1.55369231 C2.134,1.57723077 2.18384615,1.58846154 2.23307692,1.58846154 C2.354,1.58846154 2.47061538,1.52153846 2.52784615,1.406 C2.60876923,1.24338462 2.54261538,1.04584615 2.38,0.964923077 L0.596307692,0.0775384615 C0.549230769,0.0541538462 0.499230769,0.0430769231 0.45,0.0430769231 C0.328923077,0.0430769231 0.212461538,0.11 0.155076923,0.225538462 Z" id="path-13"></path>
        <path d="M2.76092308,0.203538462 L0.153076923,2.83907692 C0.0253846154,2.96815385 0.0263076923,3.17646154 0.155692308,3.30415385 C0.219538462,3.36769231 0.303538462,3.39923077 0.387076923,3.39923077 C0.471846154,3.39923077 0.556307692,3.36661538 0.621076923,3.30138462 L3.22907692,0.665846154 C3.35661538,0.536769231 3.35569231,0.328307692 3.22630769,0.200769231 C3.16230769,0.137384615 3.07861538,0.105692308 2.99507692,0.105692308 C2.91015385,0.105692308 2.82523077,0.138307692 2.76092308,0.203538462 Z" id="path-15"></path>
        <path d="M0.0806153846,0.292769231 C0.0186153846,0.463692308 0.106769231,0.652307692 0.277692308,0.714461538 L1.63876923,1.20769231 C1.67569231,1.22123077 1.71384615,1.22738462 1.75076923,1.22738462 C1.88492308,1.22738462 2.01123077,1.14415385 2.06030769,1.01046154 C2.12215385,0.839692308 2.03415385,0.650923077 1.86323077,0.589230769 L0.502307692,0.0958461538 C0.465230769,0.0824615385 0.427230769,0.076 0.39,0.076 C0.255384615,0.076 0.129076923,0.158923077 0.0806153846,0.292769231 Z" id="path-17"></path>
        <path d="M2.22876923,0.125538462 L0.189846154,1.59184615 C0.0421538462,1.69815385 0.00861538462,1.90353846 0.114461538,2.05123077 C0.179076923,2.14015385 0.279692308,2.188 0.382153846,2.188 C0.448769231,2.188 0.516307692,2.168 0.574,2.12630769 L2.61323077,0.66 C2.76076923,0.553692308 2.79476923,0.348153846 2.68846154,0.200461538 C2.62461538,0.111076923 2.52353846,0.0638461538 2.42107692,0.0638461538 C2.42092308,0.0638461538 2.42061538,0.0638461538 2.42030769,0.0638461538 C2.35384615,0.0638461538 2.28692308,0.084 2.22876923,0.125538462 Z" id="path-19"></path>
    </defs>
    <g id="final" stroke="none" stroke-width="1" fill="none" fill-rule="evenodd">
        <g id="Products-Landing" transform="translate(-379.000000, -1223.000000)">
            <g id="Grid-of-4" transform="translate(0.000000, 685.000000)">
                <g id="Analyze-&amp;-Discover" transform="translate(0.000000, 351.000000)">
                    <g id="product" transform="translate(379.000000, 166.000000)">
                        <g id="icon" transform="translate(0.000000, 21.000000)">
                            <polygon id="Fill-1" fill="#113154" points="0.896307692 23.1273846 4.05061538 23.1273846 4.05061538 11.4113846 0.896307692 11.4113846"></polygon>
                            <polygon id="Fill-2" fill="#113154" points="0.896307692 23.1273846 4.05061538 23.1273846 4.05061538 11.4113846 0.896307692 11.4113846"></polygon>
                            <polygon id="Fill-3" fill="#113154" points="0.896307692 23.1273846 4.05061538 23.1273846 4.05061538 11.4113846 0.896307692 11.4113846"></polygon>
                            <polygon id="Fill-4" fill="#113154" points="7.20492308 22.8269231 10.3592308 22.8269231 10.3592308 14.4153846 7.20492308 14.4153846"></polygon>
                            <polygon id="Fill-5" fill="#113154" points="7.20476923 22.8269231 10.3592308 22.8269231 10.3592308 14.4155385 7.20476923 14.4155385"></polygon>
                            <polygon id="Fill-6" fill="#113154" points="7.20476923 22.8269231 10.3592308 22.8269231 10.3592308 14.4153846 7.20476923 14.4153846"></polygon>
                            <polygon id="Fill-7" fill="#113154" points="13.3633846 22.9770769 16.5176923 22.9770769 16.5176923 7.95661538 13.3633846 7.95661538"></polygon>
                            <polygon id="Fill-8" fill="#113154" points="13.3633846 22.9770769 16.5176923 22.9770769 16.5176923 7.95661538 13.3633846 7.95661538"></polygon>
                            <polygon id="Fill-9" fill="#113154" points="13.3632308 22.9770769 16.5175385 22.9770769 16.5175385 7.95661538 13.3632308 7.95661538"></polygon>
                            <polygon id="Fill-10" fill="#113154" points="19.672 22.8269231 22.8263077 22.8269231 22.8263077 9.90923077 19.672 9.90923077"></polygon>
                            <polygon id="Fill-11" fill="#113154" points="19.672 22.8269231 22.8263077 22.8269231 22.8263077 9.90923077 19.672 9.90923077"></polygon>
                            <polygon id="Fill-12" fill="#113154" points="19.672 22.8269231 22.8263077 22.8269231 22.8263077 9.90923077 19.672 9.90923077"></polygon>
                            <polygon id="Fill-13" fill="#113154" points="25.9806154 22.8269231 29.1349231 22.8269231 29.1349231 5.40307692 25.9806154 5.40307692"></polygon>
                            <polygon id="Fill-14" fill="#113154" points="25.9804615 22.8269231 29.1349231 22.8269231 29.1349231 5.40307692 25.9804615 5.40307692"></polygon>
                            <polygon id="Fill-15" fill="#113154" points="25.9804615 22.8269231 29.1349231 22.8269231 29.1349231 5.40307692 25.9804615 5.40307692"></polygon>
                            <polygon id="Fill-16" fill="#113154" points="0.145384615 24.6050769 29.8696923 24.6050769 29.8696923 23.9470769 0.145384615 23.9470769"></polygon>
                            <g id="Group-19" transform="translate(0.000000, 23.892308)">
                                <mask id="mask-2" fill="white">
                                    <use xlink:href="#path-1"></use>
                                </mask>
                                <g id="Clip-18"></g>
                                <polygon id="Fill-17" fill="#143055" mask="url(#mask-2)" points="-0.605692308 1.46369231 30.6207692 1.46369231 30.6207692 -0.696307692 -0.605692308 -0.696307692"></polygon>
                            </g>
                            <g id="Group-22" transform="translate(0.769231, 5.584615)">
                                <mask id="mask-4" fill="white">
                                    <use xlink:href="#path-3"></use>
                                </mask>
                                <g id="Clip-21"></g>
                                <polygon id="Fill-20" fill="#0AA1D8" mask="url(#mask-4)" points="-0.716307692 3.95123077 3.85430769 3.95123077 3.85430769 -0.617846154 -0.716307692 -0.617846154"></polygon>
                            </g>
                            <g id="Group-25" transform="translate(7.076923, 8.969231)">
                                <mask id="mask-6" fill="white">
                                    <use xlink:href="#path-5"></use>
                                </mask>
                                <g id="Clip-24"></g>
                                <polygon id="Fill-23" fill="#0AA1D8" mask="url(#mask-6)" points="-0.673538462 3.838 3.89769231 3.838 3.89769231 -0.731076923 -0.673538462 -0.731076923"></polygon>
                            </g>
                            <g id="Group-28" transform="translate(13.384615, 2.507692)">
                                <mask id="mask-8" fill="white">
                                    <use xlink:href="#path-7"></use>
                                </mask>
                                <g id="Clip-27"></g>
                                <polygon id="Fill-26" fill="#0AA1D8" mask="url(#mask-8)" points="-0.662769231 3.92153846 3.90846154 3.92153846 3.90846154 -0.647538462 -0.662769231 -0.647538462"></polygon>
                            </g>
                            <g id="Group-31" transform="translate(19.692308, 4.507692)">
                                <mask id="mask-10" fill="white">
                                    <use xlink:href="#path-9"></use>
                                </mask>
                                <g id="Clip-30"></g>
                                <polygon id="Fill-29" fill="#0AA1D8" mask="url(#mask-10)" points="-0.651846154 3.94953846 3.91984615 3.94953846 3.91984615 -0.619538462 -0.651846154 -0.619538462"></polygon>
                            </g>
                            <g id="Group-34" transform="translate(26.000000, 0.046154)">
                                <mask id="mask-12" fill="white">
                                    <use xlink:href="#path-11"></use>
                                </mask>
                                <g id="Clip-33"></g>
                                <polygon id="Fill-32" fill="#0AA1D8" mask="url(#mask-12)" points="-0.641076923 3.91430769 3.93061538 3.91430769 3.93061538 -0.654923077 -0.641076923 -0.654923077"></polygon>
                            </g>
                            <g id="Group-37" transform="translate(4.153846, 8.046154)">
                                <mask id="mask-14" fill="white">
                                    <use xlink:href="#path-13"></use>
                                </mask>
                                <g id="Clip-36"></g>
                                <polygon id="Fill-35" fill="#143055" mask="url(#mask-14)" points="-0.630461538 2.33938462 3.31353846 2.33938462 3.31353846 -0.708 -0.630461538 -0.708"></polygon>
                            </g>
                            <g id="Group-40" transform="translate(10.153846, 5.584615)">
                                <mask id="mask-16" fill="white">
                                    <use xlink:href="#path-15"></use>
                                </mask>
                                <g id="Clip-39"></g>
                                <polygon id="Fill-38" fill="#143055" mask="url(#mask-16)" points="-0.693076923 4.15015385 4.07507692 4.15015385 4.07507692 -0.645384615 -0.693076923 -0.645384615"></polygon>
                            </g>
                            <g id="Group-43" transform="translate(17.076923, 4.507692)">
                                <mask id="mask-18" fill="white">
                                    <use xlink:href="#path-17"></use>
                                </mask>
                                <g id="Clip-42"></g>
                                <polygon id="Fill-41" fill="#143055" mask="url(#mask-18)" points="-0.690307692 1.97830769 2.83107692 1.97830769 2.83107692 -0.675076923 -0.690307692 -0.675076923"></polygon>
                            </g>
                            <g id="Group-46" transform="translate(23.076923, 2.815385)">
                                <mask id="mask-20" fill="white">
                                    <use xlink:href="#path-19"></use>
                                </mask>
                                <g id="Clip-45"></g>
                                <polygon id="Fill-44" fill="#143055" mask="url(#mask-20)" points="-0.698307692 2.93892308 3.50153846 2.93892308 3.50153846 -0.687538462 -0.698307692 -0.687538462"></polygon>
                            </g>
                        </g>
                    </g>
                </g>
            </g>
        </g>
    </g>
</svg>