<svg width="112" height="112" viewBox="0 0 112 112" fill="none" xmlns="http://www.w3.org/2000/svg">
<circle cx="56" cy="56" r="56" fill="#F5DE63"/>
<rect x="30" y="36" width="46" height="46" rx="2" fill="white"/>
<path d="M28 82C28 83.1046 28.8954 84 30 84L48 84C49.1046 84 50 83.1046 50 82C50 80.8954 49.1046 80 48 80L32 80L32 64C32 62.8954 31.1046 62 30 62C28.8954 62 28 62.8954 28 64L28 82ZM54.5858 54.5858L28.5858 80.5858L31.4142 83.4142L57.4142 57.4142L54.5858 54.5858Z" fill="black"/>
<path d="M85 29C85 27.8954 84.1046 27 83 27L65 27C63.8954 27 63 27.8954 63 29C63 30.1046 63.8954 31 65 31L81 31L81 47C81 48.1046 81.8954 49 83 49C84.1046 49 85 48.1046 85 47L85 29ZM57.4142 57.4142L84.4142 30.4142L81.5858 27.5858L54.5858 54.5858L57.4142 57.4142Z" fill="black"/>
</svg>
