<?xml version="1.0" encoding="UTF-8"?>
<svg width="33px" height="26px" viewBox="0 0 33 26" version="1.1" xmlns="http://www.w3.org/2000/svg" xmlns:xlink="http://www.w3.org/1999/xlink">
    <!-- Generator: Sketch 52.6 (67491) - http://www.bohemiancoding.com/sketch -->
    <title>icon</title>
    <desc>Created with Sketch.</desc>
    <defs>
        <path d="M21.3756,0.0828 C20.42775,0.0828 19.65225,0.86325 19.65225,1.8168 L19.65225,5.28525 C19.65225,6.2388 20.42775,7.0191 21.3756,7.0191 L24.82275,7.0191 C25.77075,7.0191 26.54625,6.2388 26.54625,5.28525 L26.54625,1.8168 C26.54625,0.86325 25.77075,0.0828 24.82275,0.0828 L21.3756,0.0828 Z M12.59745,0.0828 C11.64945,0.0828 10.87395,0.86325 10.87395,1.8168 L10.87395,5.28525 C10.87395,6.2388 11.64945,7.0191 12.59745,7.0191 L16.04445,7.0191 C16.99245,7.0191 17.76795,6.2388 17.76795,5.28525 L17.76795,1.8168 C17.76795,0.86325 16.99245,0.0828 16.04445,0.0828 L12.59745,0.0828 Z M3.65835,0.0828 C2.7105,0.0828 1.935,0.86325 1.935,1.8168 L1.935,5.28525 C1.935,6.2388 2.7105,7.0191 3.65835,7.0191 L7.1055,7.0191 C8.05335,7.0191 8.829,6.2388 8.829,5.28525 L8.829,1.8168 C8.829,0.86325 8.05335,0.0828 7.1055,0.0828 L3.65835,0.0828 Z M2.23755,7.9518 C1.02915,7.9518 0.0402,8.9466 0.0402,10.1625 L0.0402,14.5839 C0.0402,15.79965 1.02915,16.79445 2.23755,16.79445 L6.6318,16.79445 C7.8402,16.79445 8.829,15.79965 8.829,14.5839 L8.829,10.1625 C8.829,8.9466 7.8402,7.9518 6.6318,7.9518 L2.23755,7.9518 Z M21.3756,8.91405 C20.42775,8.91405 19.65225,9.69435 19.65225,10.64805 L19.65225,14.1162 C19.65225,15.06975 20.42775,15.8502 21.3756,15.8502 L24.82275,15.8502 C25.77075,15.8502 26.54625,15.06975 26.54625,14.1162 L26.54625,10.64805 C26.54625,9.69435 25.77075,8.91405 24.82275,8.91405 L21.3756,8.91405 Z M12.59745,8.91405 C11.64945,8.91405 10.87395,9.69435 10.87395,10.64805 L10.87395,14.1162 C10.87395,15.06975 11.64945,15.8502 12.59745,15.8502 L16.04445,15.8502 C16.99245,15.8502 17.76795,15.06975 17.76795,14.1162 L17.76795,10.64805 C17.76795,9.69435 16.99245,8.91405 16.04445,8.91405 L12.59745,8.91405 Z M21.3756,17.745 C20.42775,17.745 19.65225,18.5253 19.65225,19.47915 L19.65225,22.94715 C19.65225,23.901 20.42775,24.6813 21.3756,24.6813 L24.82275,24.6813 C25.77075,24.6813 26.54625,23.901 26.54625,22.94715 L26.54625,19.47915 C26.54625,18.5253 25.77075,17.745 24.82275,17.745 L21.3756,17.745 Z M12.59745,17.745 C11.64945,17.745 10.87395,18.5253 10.87395,19.47915 L10.87395,22.94715 C10.87395,23.901 11.64945,24.6813 12.59745,24.6813 L16.04445,24.6813 C16.99245,24.6813 17.76795,23.901 17.76795,22.94715 L17.76795,19.47915 C17.76795,18.5253 16.99245,17.745 16.04445,17.745 L12.59745,17.745 Z M3.65835,17.745 C2.7105,17.745 1.935,18.5253 1.935,19.47915 L1.935,22.94715 C1.935,23.901 2.7105,24.6813 3.65835,24.6813 L7.1055,24.6813 C8.05335,24.6813 8.829,23.901 8.829,22.94715 L8.829,19.47915 C8.829,18.5253 8.05335,17.745 7.1055,17.745 L3.65835,17.745 Z" id="path-1"></path>
        <path d="M1.55175,3.9357 C-1.12815,7.92285 -0.0687,13.3278 3.91845,16.008 C6.85305,17.9808 10.68975,17.9808 13.6245,16.008 L18.62955,21.0111 C19.30545,21.64095 20.364,21.6036 20.99385,20.92785 C21.59265,20.28525 21.59265,19.28925 20.99385,18.64665 L15.99075,13.64145 C18.6711,9.6543 17.6115,4.2492 13.6245,1.56915 C12.1353,0.5682 10.4481,0.0888 8.7792,0.08865 C5.9796,0.08865 3.23115,1.43745 1.55175,3.9357 Z M3.41745,8.7879 C3.41745,5.8314 5.81415,3.4347 8.7708,3.4347 C11.7273,3.4347 14.124,5.8314 14.124,8.7879 C14.124,11.7444 11.7273,14.14125 8.7708,14.14125 C5.81415,14.14125 3.41745,11.7444 3.41745,8.7879 Z" id="path-3"></path>
        <path d="M1.55175,3.9357 C-1.12815,7.92285 -0.0687,13.3278 3.91845,16.008 C6.85305,17.9808 10.68975,17.9808 13.6245,16.008 L18.62955,21.0111 C19.30545,21.64095 20.364,21.6036 20.99385,20.92785 C21.59265,20.28525 21.59265,19.28925 20.99385,18.64665 L15.99075,13.64145 C18.6711,9.6543 17.6115,4.2492 13.6245,1.56915 C12.1353,0.5682 10.4481,0.0888 8.7792,0.0888 C5.97975,0.0885 3.231,1.4376 1.55175,3.9357 Z M3.41745,8.7879 C3.41745,5.8314 5.81415,3.4347 8.7708,3.4347 C11.7273,3.4347 14.124,5.8314 14.124,8.7879 C14.124,11.7444 11.7273,14.14125 8.7708,14.14125 C5.81415,14.14125 3.41745,11.7444 3.41745,8.7879 Z" id="path-5"></path>
    </defs>
    <g id="final" stroke="none" stroke-width="1" fill="none" fill-rule="evenodd">
        <g id="Products-Landing" transform="translate(-1085.000000, -912.000000)">
            <g id="Grid-of-4" transform="translate(0.000000, 685.000000)">
                <g id="Access-&amp;-Download" transform="translate(633.000000, 24.000000)">
                    <g id="product" transform="translate(452.000000, 179.000000)">
                        <g id="icon" transform="translate(0.000000, 24.000000)">
                            <g id="Group-4" transform="translate(6.450000, 0.123000)">
                                <mask id="mask-2" fill="white">
                                    <use xlink:href="#path-1"></use>
                                </mask>
                                <g id="Clip-2"></g>
                                <polygon id="Fill-1" fill="#109ED9" mask="url(#mask-2)" points="-0.5937 25.37085 27.2052 25.37085 27.2052 -0.4998 -0.5937 -0.4998"></polygon>
                                <polygon id="Fill-3" fill="#113154" mask="url(#mask-2)" points="-0.7632 25.4847 27.3498 25.4847 27.3498 -0.7206 -0.7632 -0.7206"></polygon>
                            </g>
                            <g id="Group-7" transform="translate(0.000000, 3.873000)">
                                <mask id="mask-4" fill="white">
                                    <use xlink:href="#path-3"></use>
                                </mask>
                                <g id="Clip-6"></g>
                                <polygon id="Fill-5" fill="#113154" mask="url(#mask-4)" points="-147.6 526.5 71.89875 526.5 71.89875 -77.5233 -147.6 -77.5233"></polygon>
                            </g>
                            <g id="Group-10" transform="translate(0.000000, 3.873000)">
                                <mask id="mask-6" fill="white">
                                    <use xlink:href="#path-5"></use>
                                </mask>
                                <g id="Clip-9"></g>
                                <polygon id="Fill-8" fill="#109ED9" mask="url(#mask-6)" points="-0.73185 22.26345 22.2465 22.26345 22.2465 -0.71475 -0.73185 -0.71475"></polygon>
                            </g>
                        </g>
                    </g>
                </g>
            </g>
        </g>
    </g>
</svg>