<?xml version="1.0" encoding="UTF-8"?>
<svg width="30px" height="31px" viewBox="0 0 30 31" version="1.1" xmlns="http://www.w3.org/2000/svg" xmlns:xlink="http://www.w3.org/1999/xlink">
    <!-- Generator: Sketch 52.6 (67491) - http://www.bohemiancoding.com/sketch -->
    <title>icon</title>
    <desc>Created with Sketch.</desc>
    <defs>
        <path d="M3.46106061,0.0589393939 C1.94530303,0.227727273 0.833787879,1.61212121 1.00212121,3.13151515 C1.06969697,3.67166667 1.27166667,4.14454545 1.57469697,4.54969697 L0.0254545455,6.60939394 C0.42969697,6.84560606 0.79969697,7.14954545 1.17060606,7.45348485 L2.72,5.39378788 C3.12409091,5.56257576 3.59575758,5.66393939 4.06727273,5.59636364 C5.58272727,5.42757576 6.69393939,4.04318182 6.52560606,2.52378788 C6.36863636,1.10666667 5.1569697,0.0421212121 3.765,0.041969697 C3.66454545,0.041969697 3.56318182,0.0475757576 3.46106061,0.0589393939 Z" id="path-1"></path>
        <path d="M0.128787879,1.33863636 L4.56045455,3.33969697 C4.5269697,3.57318182 4.49348485,3.84015152 4.5269697,4.10681818 C4.69469697,5.60757576 6.07121212,6.70818182 7.58212121,6.54151515 C9.09287879,6.37484848 10.2007576,5.00742424 10.0327273,3.50636364 C9.83181818,1.93893939 8.45484848,0.871666667 6.94409091,1.03848485 C6.20560606,1.13863636 5.53409091,1.50545455 5.09757576,2.03893939 L0.699545455,0.0712121212 C0.56530303,0.504848485 0.363787879,0.938333333 0.128787879,1.33863636 Z" id="path-3"></path>
        <path d="M3.27909091,0.0924242424 C2.84787879,0.125454545 2.41636364,0.125454545 1.98484848,0.0924242424 L2.0180303,3.56287879 C0.756515152,3.93030303 -0.13969697,5.16484848 0.0263636364,6.53318182 C0.192272727,8.03484848 1.55318182,9.13621212 3.0469697,8.96939394 C4.54045455,8.76954545 5.63606061,7.43454545 5.47015152,5.89909091 C5.33742424,4.73090909 4.47424242,3.79651515 3.4119697,3.52939394 L3.34575758,0.0924242424 L3.27909091,0.0924242424 Z" id="path-5"></path>
        <path d="M2.58333333,0.0737878788 C1.07939394,0.239848485 -0.0234848485,1.60166667 0.143636364,3.09606061 C0.310757576,4.59045455 1.68106061,5.68636364 3.18484848,5.52045455 C4.65515152,5.35439394 5.75787879,4.05924242 5.62424242,2.56469697 L8.86590909,1.43545455 C8.66530303,1.0369697 8.49818182,0.605151515 8.3980303,0.140606061 L5.15636364,1.26939394 C4.64969697,0.528787879 3.82363636,0.0525757576 2.91606061,0.0525757576 C2.80621212,0.0525757576 2.69515152,0.0595454545 2.58333333,0.0737878788 Z" id="path-7"></path>
        <path d="M2.87090909,0.116818182 C2.77742424,0.117575758 2.68318182,0.123030303 2.58848485,0.133636364 C1.08878788,0.301666667 -0.0109090909,1.67924242 0.155909091,3.19106061 C0.322424242,4.7030303 1.68878788,5.81181818 3.18833333,5.64393939 C3.25515152,5.64393939 3.32166667,5.64393939 3.38833333,5.61015152 L5.28787879,9.74272727 C5.68787879,9.50772727 6.08772727,9.30606061 6.55424242,9.1380303 L4.62136364,5.03893939 C5.32121212,4.46787879 5.72106061,3.56060606 5.62121212,2.58636364 C5.46636364,1.18242424 4.2769697,0.126212121 2.90712121,0.116818182 L2.87090909,0.116818182 Z" id="path-9"></path>
        <path d="M0.0575757576,4.77909091 C0.0575757576,7.39863636 2.17939394,9.52242424 4.79712121,9.52242424 C7.41484848,9.52242424 9.53681818,7.39863636 9.53681818,4.77909091 C9.53681818,2.15924242 7.41484848,0.0357575758 4.79712121,0.0357575758 C2.17939394,0.0357575758 0.0575757576,2.15924242 0.0575757576,4.77909091 Z" id="path-11"></path>
        <path d="M0.171969697,5.02590909 C-0.136363636,8.06121212 2.0469697,10.7748485 5.05,11.0865152 C8.05287879,11.3989394 10.7369697,9.19227273 11.0462121,6.15712121 C11.355303,3.12181818 9.17121212,0.409090909 6.1680303,0.0965151515 C5.97818182,0.0768181818 5.78893939,0.0671212121 5.60212121,0.0671212121 C2.83530303,0.066969697 0.461515152,2.18378788 0.171969697,5.02590909 Z" id="path-13"></path>
        <path d="M0.171969697,5.02590909 C-0.136363636,8.06121212 2.0469697,10.7748485 5.05,11.0865152 C8.05287879,11.3989394 10.7369697,9.19227273 11.0462121,6.15712121 C11.355303,3.12181818 9.17121212,0.409090909 6.1680303,0.0965151515 C5.9780303,0.0768181818 5.78893939,0.0671212121 5.6019697,0.0671212121 C2.83530303,0.066969697 0.461666667,2.18378788 0.171969697,5.02590909 Z" id="path-15"></path>
        <path d="M0.171969697,5.02590909 C-0.136363636,8.06121212 2.0469697,10.7748485 5.05,11.0865152 C8.05287879,11.3989394 10.7369697,9.19227273 11.0462121,6.15712121 C11.355303,3.12181818 9.17121212,0.409090909 6.1680303,0.0965151515 C5.97818182,0.0768181818 5.78893939,0.0671212121 5.60212121,0.0671212121 C2.83530303,0.066969697 0.461515152,2.18378788 0.171969697,5.02590909 Z" id="path-17"></path>
        <path d="M1.67924242,0.657575758 L0.578333333,1.74742424 C0.217727273,2.10757576 0.0233333333,2.5880303 0.0233333333,3.08666667 C0.0233333333,3.58560606 0.217727273,4.075 0.578333333,4.42590909 L0.837424242,4.68454545 C1.19833333,5.04484848 1.67924242,5.23863636 2.17878788,5.23863636 C2.67833333,5.23863636 3.16878788,5.04484848 3.52030303,4.68454545 L4.12136364,4.08424242 C4.30636364,3.89939394 4.30636364,3.61318182 4.12136364,3.42848485 C3.955,3.26227273 3.66818182,3.26227273 3.4830303,3.43772727 L2.8819697,4.0380303 C2.69681818,4.22257576 2.44712121,4.32439394 2.18818182,4.32439394 C1.92909091,4.32439394 1.67924242,4.22257576 1.49424242,4.0380303 L1.23515152,3.77939394 C1.05030303,3.59469697 0.948484848,3.34530303 0.948484848,3.08666667 C0.948484848,2.8280303 1.05030303,2.57863636 1.23515152,2.39393939 L2.31757576,1.31333333 C2.50257576,1.12863636 2.75227273,1.0269697 3.01136364,1.0269697 C3.27030303,1.0269697 3.52030303,1.12863636 3.70515152,1.31333333 L4.00121212,1.60893939 C4.18621212,1.79363636 4.47287879,1.79363636 4.65787879,1.60893939 C4.8430303,1.42424242 4.8430303,1.13787879 4.65787879,0.953181818 L4.3619697,0.657575758 C4.00121212,0.297424242 3.52030303,0.103333333 3.02060606,0.103333333 C2.52090909,0.103333333 2.03075758,0.297424242 1.67924242,0.657575758 Z" id="path-19"></path>
        <path d="M1.16378788,0.697878788 L0.65469697,1.23636364 C0.476060606,1.42530303 0.476060606,1.71818182 0.65469697,1.90727273 C0.833333333,2.09621212 1.11015152,2.09621212 1.28878788,1.90727273 L1.79787879,1.36878788 C1.97651515,1.17969697 2.21757576,1.07590909 2.46757576,1.07590909 C2.71757576,1.07590909 2.95893939,1.17969697 3.13742424,1.36878788 L3.38742424,1.63333333 C3.56606061,1.82212121 3.66424242,2.07727273 3.66424242,2.34181818 C3.66424242,2.60636364 3.56606061,2.86151515 3.38742424,3.05045455 L2.40515152,4.08030303 C2.22651515,4.26939394 1.98530303,4.37318182 1.73530303,4.37318182 C1.48530303,4.37318182 1.24424242,4.26939394 1.06545455,4.08030303 L0.842272727,3.84409091 C0.663636364,3.65515152 0.386818182,3.65515152 0.208181818,3.84409091 C0.0296969697,4.0330303 0.0296969697,4.32590909 0.208181818,4.515 L0.431515152,4.75106061 C0.77969697,5.11954545 1.24424242,5.3180303 1.72636364,5.3180303 C2.21757576,5.3180303 2.6819697,5.11954545 3.02151515,4.75106061 L3.99484848,3.72136364 C4.34318182,3.35287879 4.53060606,2.86151515 4.53060606,2.35121212 C4.53060606,1.84106061 4.34318182,1.34045455 3.99484848,0.981363636 L3.76257576,0.697878788 C3.41424242,0.329393939 2.94984848,0.131060606 2.46757576,0.131060606 C1.98530303,0.131060606 1.5119697,0.329393939 1.16378788,0.697878788 Z" id="path-21"></path>
    </defs>
    <g id="final" stroke="none" stroke-width="1" fill="none" fill-rule="evenodd">
        <g id="Products-Landing" transform="translate(-1008.000000, -1221.000000)">
            <g id="Grid-of-4" transform="translate(0.000000, 685.000000)">
                <g id="Collaborate-&amp;-Share" transform="translate(633.000000, 351.000000)">
                    <g id="product" transform="translate(375.000000, 166.000000)">
                        <g id="icon" transform="translate(0.000000, 19.000000)">
                            <path d="M26.4868939,15.3257121 C26.4868939,21.6628333 21.3497727,26.8001061 15.0126515,26.8001061 C8.67537879,26.8001061 3.53825758,21.6628333 3.53825758,15.3257121 C3.53825758,8.98859091 8.67537879,3.85131818 15.0126515,3.85131818 C21.3497727,3.85131818 26.4868939,8.98859091 26.4868939,15.3257121" id="Fill-1" fill="#119FD6"></path>
                            <g id="Group-5" transform="translate(17.727273, 3.274242)">
                                <mask id="mask-2" fill="white">
                                    <use xlink:href="#path-1"></use>
                                </mask>
                                <g id="Clip-4"></g>
                                <polygon id="Fill-3" fill="#143055" mask="url(#mask-2)" points="-0.556060606 8.035 7.12393939 8.035 7.12393939 -0.539545455 -0.556060606 -0.539545455"></polygon>
                            </g>
                            <g id="Group-8" transform="translate(19.848485, 17.213636)">
                                <mask id="mask-4" fill="white">
                                    <use xlink:href="#path-3"></use>
                                </mask>
                                <g id="Clip-7"></g>
                                <polygon id="Fill-6" fill="#143055" mask="url(#mask-4)" points="-0.452575758 7.13969697 10.6312121 7.13969697 10.6312121 -0.51030303 -0.452575758 -0.51030303"></polygon>
                            </g>
                            <g id="Group-11" transform="translate(11.969697, 21.456061)">
                                <mask id="mask-6" fill="white">
                                    <use xlink:href="#path-5"></use>
                                </mask>
                                <g id="Clip-10"></g>
                                <polygon id="Fill-9" fill="#143055" mask="url(#mask-6)" points="-0.575 9.56757576 6.06833333 9.56757576 6.06833333 -0.489242424 -0.575 -0.489242424"></polygon>
                            </g>
                            <g id="Group-14" transform="translate(0.000000, 16.456061)">
                                <mask id="mask-8" fill="white">
                                    <use xlink:href="#path-7"></use>
                                </mask>
                                <g id="Clip-13"></g>
                                <polygon id="Fill-12" fill="#143055" mask="url(#mask-8)" points="-0.454545455 6.11848485 9.44742424 6.11848485 9.44742424 -0.529090909 -0.454545455 -0.529090909"></polygon>
                            </g>
                            <g id="Group-17" transform="translate(6.060606, 0.092424)">
                                <mask id="mask-10" fill="white">
                                    <use xlink:href="#path-9"></use>
                                </mask>
                                <g id="Clip-16"></g>
                                <polygon id="Fill-15" fill="#143055" mask="url(#mask-10)" points="-0.442424242 10.3243939 7.13590909 10.3243939 7.13590909 -0.46469697 -0.442424242 -0.46469697"></polygon>
                            </g>
                            <g id="Group-20" transform="translate(9.696970, 10.395455)">
                                <mask id="mask-12" fill="white">
                                    <use xlink:href="#path-11"></use>
                                </mask>
                                <g id="Clip-19"></g>
                                <polygon id="Fill-18" fill="#02528C" mask="url(#mask-12)" points="-0.523939394 10.1039394 10.1183333 10.1039394 10.1183333 -0.545757576 -0.523939394 -0.545757576"></polygon>
                            </g>
                            <g id="Group-23" transform="translate(8.939394, 9.789394)">
                                <mask id="mask-14" fill="white">
                                    <use xlink:href="#path-13"></use>
                                </mask>
                                <g id="Clip-22"></g>
                                <polygon id="Fill-21" fill="#0AA1D8" mask="url(#mask-14)" points="-0.438636364 11.6974242 11.6568182 11.6974242 11.6568182 -0.514393939 -0.438636364 -0.514393939"></polygon>
                            </g>
                            <path d="M19.9856515,15.9464848 C20.2947424,12.9111818 18.1106515,10.1984545 15.1076212,9.8860303 C12.1053485,9.57345455 9.42065152,11.7810303 9.11125758,14.8154242 C8.80292424,17.8505758 10.9862576,20.5642121 13.9894394,20.8758788 C16.9923182,21.188303 19.6764091,18.9816364 19.9856515,15.9464848" id="Fill-24" fill="#143055"></path>
                            <g id="Group-28" transform="translate(8.939394, 9.789394)">
                                <mask id="mask-16" fill="white">
                                    <use xlink:href="#path-15"></use>
                                </mask>
                                <g id="Clip-27"></g>
                                <polygon id="Fill-26" fill="#143055" mask="url(#mask-16)" points="-113.484848 310.82803 45.384697 310.82803 45.384697 -56.4559091 -113.484848 -56.4559091"></polygon>
                            </g>
                            <g id="Group-31" transform="translate(8.939394, 9.789394)">
                                <mask id="mask-18" fill="white">
                                    <use xlink:href="#path-17"></use>
                                </mask>
                                <g id="Clip-30"></g>
                                <polygon id="Fill-29" fill="#143055" mask="url(#mask-18)" points="-0.438636364 11.6974242 11.6568182 11.6974242 11.6568182 -0.514393939 -0.438636364 -0.514393939"></polygon>
                            </g>
                            <g id="Group-34" transform="translate(11.060606, 14.031818)">
                                <mask id="mask-20" fill="white">
                                    <use xlink:href="#path-19"></use>
                                </mask>
                                <g id="Clip-33"></g>
                                <polygon id="Fill-32" fill="#119FD6" mask="url(#mask-20)" points="-0.558181818 5.82030303 5.37818182 5.82030303 5.37818182 -0.478030303 -0.558181818 -0.478030303"></polygon>
                            </g>
                            <g id="Group-37" transform="translate(13.636364, 11.910606)">
                                <mask id="mask-22" fill="white">
                                    <use xlink:href="#path-21"></use>
                                </mask>
                                <g id="Clip-36"></g>
                                <polygon id="Fill-35" fill="#119FD6" mask="url(#mask-22)" points="-0.507272727 5.89954545 5.11212121 5.89954545 5.11212121 -0.450454545 -0.507272727 -0.450454545"></polygon>
                            </g>
                        </g>
                    </g>
                </g>
            </g>
        </g>
    </g>
</svg>