<svg width="112" height="112" viewBox="0 0 112 112" fill="none" xmlns="http://www.w3.org/2000/svg">
<circle cx="56" cy="56" r="56" fill="#F5DE63"/>
<circle cx="72" cy="65" r="16" fill="white"/>
<circle cx="47" cy="65" r="16" fill="white"/>
<mask id="path-4-inside-1_1192_13870" fill="white">
<path fill-rule="evenodd" clip-rule="evenodd" d="M56 78.4746C51.7773 81.9282 46.3806 84 40.5 84C26.969 84 16 73.031 16 59.5C16 45.969 26.969 35 40.5 35C46.3806 35 51.7773 37.0718 56 40.5254C60.2227 37.0718 65.6194 35 71.5 35C85.031 35 96 45.969 96 59.5C96 73.031 85.031 84 71.5 84C65.6194 84 60.2227 81.9282 56 78.4746Z"/>
</mask>
<path d="M56 78.4746L60.4316 73.0561L56 69.4317L51.5684 73.0561L56 78.4746ZM56 40.5254L51.5684 45.9439L56 49.5683L60.4316 45.9439L56 40.5254ZM51.5684 73.0561C48.5503 75.5245 44.7068 77 40.5 77V91C48.0544 91 55.0044 88.3319 60.4316 83.8932L51.5684 73.0561ZM40.5 77C30.835 77 23 69.165 23 59.5H9C9 76.897 23.103 91 40.5 91V77ZM23 59.5C23 49.835 30.835 42 40.5 42V28C23.103 28 9 42.103 9 59.5H23ZM40.5 42C44.7068 42 48.5503 43.4755 51.5684 45.9439L60.4316 35.1068C55.0044 30.6681 48.0544 28 40.5 28V42ZM60.4316 45.9439C63.4497 43.4755 67.2932 42 71.5 42V28C63.9456 28 56.9956 30.6681 51.5684 35.1068L60.4316 45.9439ZM71.5 42C81.165 42 89 49.835 89 59.5H103C103 42.103 88.897 28 71.5 28V42ZM89 59.5C89 69.165 81.165 77 71.5 77V91C88.897 91 103 76.897 103 59.5H89ZM71.5 77C67.2932 77 63.4497 75.5245 60.4316 73.0561L51.5684 83.8932C56.9956 88.3319 63.9456 91 71.5 91V77Z" fill="black" mask="url(#path-4-inside-1_1192_13870)"/>
<circle cx="40" cy="60" r="22" stroke="black" stroke-width="2" stroke-dasharray="2 2"/>
<circle cx="72" cy="60" r="22" stroke="black" stroke-width="2" stroke-dasharray="2 2"/>
</svg>
