<svg xmlns="http://www.w3.org/2000/svg" viewBox="0 0 147.16 200.67"><defs><style>.cls-1{fill:#fff;}</style></defs><g id="Layer_2" data-name="Layer 2"><g id="Jukebox"><path class="cls-1" d="M55,21.89h0a49.1,49.1,0,0,1,12-1.46H81a49.72,49.72,0,0,1,11.66,1.38c1.06-.73,11.88-8.31,13.32-14.27a72.35,72.35,0,0,0-64.36,0C43.1,13.82,55,21.89,55,21.89Z"/><path class="cls-1" d="M143.14,191.42a4.82,4.82,0,0,0,.67-2.46,4.58,4.58,0,0,0-3.71-4.58V60.18c0-19.66-10.39-37.11-26.46-48.09a18.1,18.1,0,0,0-12.93,12.33L99.26,24c13.41,5.49,22.63,16.82,22.63,29.91,0,.14,0,.27,0,.41s0,.16,0,.25v22.1A11.15,11.15,0,0,1,110.66,87.7H37.24A11.15,11.15,0,0,1,26,76.64V54.54c0-.09,0-.17,0-.25s0-.27,0-.41C26,40.32,35.9,28.65,50.1,23.4l-3.28,1c-1.48-7.51-8.48-11.27-12.93-12.33C17.82,23.07,7.43,40.52,7.43,60.18V184.46A4.59,4.59,0,0,0,4.09,189a4.81,4.81,0,0,0,.65,2.42H4.65a4.65,4.65,0,1,0,0,9.29H142.51a4.65,4.65,0,0,0,.63-9.25ZM121.89,166.2a11.15,11.15,0,0,1-11.23,11.06H37.24A11.15,11.15,0,0,1,26,166.2V109.91A11.15,11.15,0,0,1,37.24,98.85h73.42a11.15,11.15,0,0,1,11.23,11.06Z"/><rect class="cls-1" x="30.47" y="54.07" width="4.46" height="29.36"/><rect class="cls-1" x="37.9" y="54.07" width="4.46" height="29.36"/><rect class="cls-1" x="45.34" y="54.07" width="4.46" height="29.36"/><rect class="cls-1" x="52.77" y="54.07" width="4.46" height="29.36"/><rect class="cls-1" x="60.2" y="54.07" width="4.46" height="29.36"/><rect class="cls-1" x="67.63" y="54.07" width="4.46" height="29.36"/><rect class="cls-1" x="75.06" y="54.07" width="4.46" height="29.36"/><rect class="cls-1" x="82.5" y="54.07" width="4.46" height="29.36"/><rect class="cls-1" x="89.93" y="54.07" width="4.46" height="29.36"/><rect class="cls-1" x="97.36" y="54.07" width="4.46" height="29.36"/><rect class="cls-1" x="104.79" y="54.07" width="4.46" height="29.36"/><rect class="cls-1" x="112.22" y="54.07" width="4.46" height="29.36"/></g></g></svg>