<?xml version="1.0" encoding="UTF-8"?>
<svg width="24px" height="35px" viewBox="0 0 24 35" version="1.1" xmlns="http://www.w3.org/2000/svg" xmlns:xlink="http://www.w3.org/1999/xlink">
    <!-- Generator: Sketch 52.6 (67491) - http://www.bohemiancoding.com/sketch -->
    <title>icon</title>
    <desc>Created with Sketch.</desc>
    <defs>
        <path d="M11.9593846,0.176 C11.6984615,0.178051282 11.4350769,0.192410256 11.1692308,0.219076923 C6.7265641,0.73374359 3.48328205,4.67938462 3.48328205,9.13948718 L3.48328205,13.9429744 L1.77538462,13.9429744 C0.921435897,13.9429744 0.0672820513,14.6293333 0.0672820513,15.6584615 L0.0672820513,32.8131282 C0.0672820513,33.6635897 0.907282051,34.5142564 1.75405128,34.5284103 L22.2966154,34.5284103 C23.2855385,34.5146667 23.9501538,33.6996923 23.9780513,32.8674872 L23.9780513,15.593641 C23.9497436,14.6006154 23.2738462,13.9429744 22.2709744,13.9429744 L6.89928205,13.9429744 L6.89928205,8.968 C6.89928205,6.39487179 8.60738462,4.16471795 10.9967179,3.65025641 C14.2434872,3.13538462 17.1468718,5.53723077 17.1468718,8.79651282 C17.1468718,9.82584615 18.0010256,10.512 18.8551795,10.512 C19.7087179,10.512 20.5630769,9.82584615 20.5630769,8.79651282 C20.5630769,4.12923077 16.8049231,0.217025641 12.1091282,0.176 L11.9593846,0.176 Z M10.3152821,27.6668718 L10.3152821,25.4367179 C9.28861538,24.750359 8.60738462,23.7212308 8.60738462,22.5202051 C8.60738462,20.2902564 10.6568205,18.7462564 12.8771282,19.2592821 C14.0707692,19.6041026 15.0974359,20.6332308 15.4389744,21.8324103 C15.7790769,23.3780513 14.9251282,24.750359 13.7310769,25.4367179 L13.7310769,27.6668718 C13.7310769,28.694359 13.0477949,29.382359 12.0229744,29.382359 C10.9967179,29.382359 10.3152821,28.694359 10.3152821,27.6668718 Z" id="path-1"></path>
        <path d="M0.174358974,3.87076923 C0.174358974,5.97497436 1.83671795,7.68123077 3.88882051,7.68123077 C5.93907692,7.68123077 7.60307692,5.97497436 7.60307692,3.87076923 C7.60307692,1.76861538 5.93907692,0.0623589744 3.88882051,0.0623589744 C1.83671795,0.0623589744 0.174358974,1.76861538 0.174358974,3.87076923 Z" id="path-3"></path>
        <path d="M1.85682051,0.00492307692 C0.872615385,0.00492307692 0.0683076923,0.828923077 0.0683076923,1.83569231 L0.0683076923,5.12328205 C0.0683076923,6.12820513 0.872615385,6.95384615 1.85682051,6.95384615 L2.12430769,6.95384615 C3.10707692,6.95384615 3.91117949,6.12820513 3.91117949,5.12328205 L3.91117949,1.83569231 C3.91117949,0.828923077 3.10707692,0.00492307692 2.12430769,0.00492307692 L1.85682051,0.00492307692 Z" id="path-5"></path>
    </defs>
    <g id="final" stroke="none" stroke-width="1" fill="none" fill-rule="evenodd">
        <g id="Products-Landing" transform="translate(-743.000000, -901.000000)">
            <g id="Grid-of-4" transform="translate(0.000000, 685.000000)">
                <g id="Access-&amp;-Download" transform="translate(633.000000, 24.000000)">
                    <g id="product" transform="translate(110.000000, 179.000000)">
                        <g id="icon" transform="translate(0.000000, 13.000000)">
                            <g id="Group-3" transform="translate(0.000000, 0.194872)">
                                <mask id="mask-2" fill="white">
                                    <use xlink:href="#path-1"></use>
                                </mask>
                                <g id="Clip-2"></g>
                                <polygon id="Fill-1" fill="#133055" mask="url(#mask-2)" points="-0.86174359 35.4578462 24.9081026 35.4578462 24.9081026 -0.753641026 -0.86174359 -0.753641026"></polygon>
                            </g>
                            <g id="Group-6" transform="translate(8.205128, 19.476923)">
                                <mask id="mask-4" fill="white">
                                    <use xlink:href="#path-3"></use>
                                </mask>
                                <g id="Clip-5"></g>
                                <polygon id="Fill-4" fill="#04A0D8" mask="url(#mask-4)" points="-0.754666667 8.61025641 8.53230769 8.61025641 8.53230769 -0.866871795 -0.754666667 -0.866871795"></polygon>
                            </g>
                            <g id="Group-9" transform="translate(10.051282, 24.400000)">
                                <mask id="mask-6" fill="white">
                                    <use xlink:href="#path-5"></use>
                                </mask>
                                <g id="Clip-8"></g>
                                <polygon id="Fill-7" fill="#04A0D8" mask="url(#mask-6)" points="-0.860923077 7.88307692 4.84020513 7.88307692 4.84020513 -0.924307692 -0.860923077 -0.924307692"></polygon>
                            </g>
                        </g>
                    </g>
                </g>
            </g>
        </g>
    </g>
</svg>