<svg xmlns="http://www.w3.org/2000/svg" xmlns:xlink="http://www.w3.org/1999/xlink" viewBox="0 0 138.15 209.66"><defs><style>.cls-1{fill:#fff;}.cls-2{clip-path:url(#clip-path);}</style><clipPath id="clip-path" transform="translate(0 19.19)"><path class="cls-1" d="M65.68,0C49,0,35.44,10.91,35.44,24.36V57.09c0,13.46,13.53,24.36,30.24,24.36h7.09c16.69,0,30.24-10.9,30.24-24.36V24.36C103,10.91,89.46,0,72.77,0Z"/></clipPath></defs><g id="Layer_2" data-name="Layer 2"><g id="Enrolment"><path class="cls-1" d="M65.68,0C49,0,35.44,10.91,35.44,24.36V57.09c0,13.46,13.53,24.36,30.24,24.36h7.09c16.69,0,30.24-10.9,30.24-24.36V24.36C103,10.91,89.46,0,72.77,0Z" transform="translate(0 19.19)"/><g class="cls-2"><rect class="cls-1" x="11.64" width="115.16" height="119.83"/></g><path class="cls-1" d="M106.76,90H31.4A31.43,31.43,0,0,0,0,121.39v56.52a12.57,12.57,0,0,0,12.56,12.56h113a12.57,12.57,0,0,0,12.56-12.56V166.64l0-7.79c0,.08,0,.14,0,.22V121.39A31.42,31.42,0,0,0,106.76,90Zm-9.29,58.64a8.59,8.59,0,0,1-2,.4H77.88v17.61a8.68,8.68,0,0,1-6.83,8.41,8.61,8.61,0,0,1-2,.4,8.81,8.81,0,0,1-8.81-8.81V149H42.66a8.81,8.81,0,0,1-8.81-8.81,9,9,0,0,1,8.81-8.8H60.27V113.82A9,9,0,0,1,69.08,105a8.8,8.8,0,0,1,8.8,8.81v17.61H95.49a8.8,8.8,0,0,1,8.81,8.8A8.68,8.68,0,0,1,97.47,148.64Z" transform="translate(0 19.19)"/></g></g></svg>