<?xml version="1.0" encoding="UTF-8"?>
<svg width="30px" height="23px" viewBox="0 0 30 23" version="1.1" xmlns="http://www.w3.org/2000/svg" xmlns:xlink="http://www.w3.org/1999/xlink">
    <!-- Generator: Sketch 52.6 (67491) - http://www.bohemiancoding.com/sketch -->
    <title>icon</title>
    <desc>Created with Sketch.</desc>
    <defs>
        <path d="M1.6255102,0.0506122449 C0.739795918,0.0506122449 0.0153061224,0.774081633 0.0153061224,1.65816327 L0.0153061224,12.0183673 C0.0153061224,12.902449 0.739795918,13.6257143 1.6255102,13.6257143 L24.1259184,13.6257143 C25.0116327,13.6257143 25.7361224,12.902449 25.7361224,12.0183673 L25.7361224,1.65816327 C25.7361224,0.774081633 25.0116327,0.0506122449 24.1259184,0.0506122449 L1.6255102,0.0506122449 Z" id="path-1"></path>
        <path d="M15.044898,0.115918367 C14.0169388,0.115918367 13.1889796,0.943469388 13.1889796,1.97040816 L13.1889796,3.2055102 C13.1889796,4.23265306 14.0169388,5.06 15.044898,5.06 C16.0728571,5.06 16.9010204,4.23265306 16.9010204,3.2055102 L16.9010204,1.97040816 C16.9010204,0.943673469 16.0730612,0.115918367 15.0453061,0.115918367 L15.044898,0.115918367 Z M17.9830612,2.58673469 L17.9830612,3.2055102 C17.9830612,4.81285714 16.6542857,6.14020408 15.0426531,6.14020408 C13.4357143,6.14020408 12.1071429,4.81285714 12.1071429,3.2055102 L12.1071429,2.58673469 L2.0544898,2.58693878 C1.02632653,2.58693878 0.198367347,3.41408163 0.198367347,4.44102041 L0.198367347,20.5069388 C0.198367347,21.5338776 1.02632653,22.3610204 2.0544898,22.3610204 L28.0353061,22.3610204 C29.0632653,22.3610204 29.8912245,21.5338776 29.8912245,20.5069388 L29.8912245,4.44081633 C29.8912245,3.41408163 29.0632653,2.58673469 28.0353061,2.58673469 L17.9830612,2.58673469 Z M5.63877551,10.2055102 L5.63877551,10.204898 C5.63938776,8.72816327 6.83755102,7.53081633 8.31632653,7.53061224 C9.79489796,7.53081633 10.9932653,8.72816327 10.9938776,10.204898 C10.9946939,11.682449 9.79612245,12.8810204 8.31693878,12.8822449 L8.31632653,12.8822449 C6.83693878,12.8816327 5.63836735,11.6834694 5.63877551,10.2055102 Z M26.0714286,10.9293878 C26.4983673,10.9193878 26.8526531,11.2571429 26.862449,11.6836735 C26.8726531,12.11 26.5346939,12.4638776 26.1077551,12.4736735 C26.0957143,12.4738776 26.0834694,12.4738776 26.0714286,12.4736735 L17.8010204,12.4736735 C17.3740816,12.4836735 17.02,12.1461224 17.0102041,11.7195918 C17,11.2930612 17.3381633,10.9393878 17.765102,10.9293878 C17.7771429,10.9291837 17.7887755,10.9291837 17.8010204,10.9293878 L26.0714286,10.9293878 Z M3.21469388,19.6346939 L3.21469388,18.9957143 L3.21469388,18.1032653 L3.21469388,16.957551 C3.21469388,15.265102 4.57938776,13.8997959 6.27612245,13.9002041 L10.3565306,13.9002041 C12.0532653,13.9002041 13.4177551,15.2653061 13.4177551,16.9577551 L13.4177551,18.9957143 L13.4177551,19.6346939 C13.4177551,19.7736735 13.3053061,19.8881633 13.1618367,19.8881633 L3.47061224,19.8881633 C3.32938776,19.8881633 3.21469388,19.7736735 3.21469388,19.6346939 Z M17.0038776,15.4312245 C16.9910204,15.0046939 17.3265306,14.6483673 17.7534694,14.635102 C17.7691837,14.6346939 17.785102,14.6346939 17.8010204,14.635102 L26.0714286,14.635102 C26.4983673,14.6218367 26.8553061,14.9571429 26.8683673,15.3836735 C26.8816327,15.8106122 26.5459184,16.1669388 26.1191837,16.18 C26.1030612,16.1806122 26.0871429,16.1806122 26.0714286,16.18 L17.8010204,16.18 C17.7928571,16.1802041 17.7846939,16.1804082 17.7769388,16.1804082 C17.3606122,16.1804082 17.0171429,15.8497959 17.0038776,15.4312245 Z M17.007551,19.1338776 C16.9977551,18.7073469 17.3359184,18.3536735 17.762449,18.3434694 C17.7746939,18.3434694 17.7867347,18.3434694 17.7987755,18.3434694 L26.0671429,18.3434694 L26.0869388,18.3434694 C26.5140816,18.3418367 26.8616327,18.6865306 26.8632653,19.1130612 C26.864898,19.5397959 26.52,19.8869388 26.0928571,19.8883673 C26.0834694,19.8885714 26.0740816,19.8883673 26.0646939,19.8881633 L17.7987755,19.8881633 C17.7926531,19.8883673 17.7865306,19.8883673 17.7804082,19.8883673 C17.3618367,19.8883673 17.017551,19.5542857 17.007551,19.1338776 Z M26.0869388,18.3434694 L26.0897959,18.3434694 L26.0869388,18.3434694 Z" id="path-3"></path>
    </defs>
    <g id="final" stroke="none" stroke-width="1" fill="none" fill-rule="evenodd">
        <g id="Products-Landing" transform="translate(-744.000000, -1226.000000)">
            <g id="Grid-of-4" transform="translate(0.000000, 685.000000)">
                <g id="Collaborate-&amp;-Share" transform="translate(633.000000, 351.000000)">
                    <g id="product" transform="translate(111.000000, 166.000000)">
                        <g id="icon" transform="translate(0.000000, 24.000000)">
                            <g id="Group-3" transform="translate(2.040816, 6.824490)">
                                <mask id="mask-2" fill="white">
                                    <use xlink:href="#path-1"></use>
                                </mask>
                                <g id="Clip-2"></g>
                                <polygon id="Fill-1" fill="#04A0D8" mask="url(#mask-2)" points="-0.699387755 14.3402041 26.4506122 14.3402041 26.4506122 -0.663877551 -0.699387755 -0.663877551"></polygon>
                            </g>
                            <g id="Group-6" transform="translate(0.000000, 0.089796)">
                                <mask id="mask-4" fill="white">
                                    <use xlink:href="#path-3"></use>
                                </mask>
                                <g id="Clip-5"></g>
                                <polygon id="Fill-4" fill="#133055" mask="url(#mask-4)" points="-0.516122449 23.0755102 30.6057143 23.0755102 30.6057143 -0.598367347 -0.516122449 -0.598367347"></polygon>
                            </g>
                        </g>
                    </g>
                </g>
            </g>
        </g>
    </g>
</svg>