<?xml version="1.0" encoding="UTF-8"?>
<svg width="30px" height="35px" viewBox="0 0 30 35" version="1.1" xmlns="http://www.w3.org/2000/svg" xmlns:xlink="http://www.w3.org/1999/xlink">
    <!-- Generator: Sketch 52.6 (67491) - http://www.bohemiancoding.com/sketch -->
    <title>icon</title>
    <desc>Created with Sketch.</desc>
    <defs>
        <polygon id="path-1" points="0 0.240708276 25.2740274 0.240708276 25.2740274 25.4898502 0 25.4898502"></polygon>
    </defs>
    <g id="final" stroke="none" stroke-width="1" fill="none" fill-rule="evenodd">
        <g id="Products-Landing" transform="translate(-476.000000, -1543.000000)">
            <g id="Grid-of-4" transform="translate(0.000000, 685.000000)">
                <g id="Management" transform="translate(368.000000, 677.000000)">
                    <g id="product" transform="translate(108.000000, 166.000000)">
                        <g id="icon" transform="translate(0.000000, 15.000000)">
                            <path d="M13.5319045,21.1875051 L29.1529782,21.1875051 C28.345712,12.9947519 21.7630239,6.50324913 13.5319045,5.82947618 L13.5319045,21.1875051 Z" id="Fill-1" fill="#04A0D8"></path>
                            <g id="Group-5" transform="translate(0.000000, 9.245983)">
                                <mask id="mask-2" fill="white">
                                    <use xlink:href="#path-1"></use>
                                </mask>
                                <g id="Clip-4"></g>
                                <path d="M11.2002139,14.0788063 L11.2002139,12.8216574 L11.2002139,11.5645085 L11.2002139,0.240708276 C4.89581187,0.968614307 -7.88345882e-05,6.32200841 -7.88345882e-05,12.8216574 C-7.88345882e-05,19.8179643 5.671807,25.4898502 12.6683767,25.4898502 C19.2405535,25.4898502 24.6425623,20.484905 25.2740274,14.0788063 L11.2002139,14.0788063 Z" id="Fill-3" fill="#003055" mask="url(#mask-2)"></path>
                            </g>
                            <path d="M21.3424676,5.25563921e-05 C22.0409421,5.25563921e-05 22.6072372,0.566347682 22.6072372,1.26482213 L22.6072372,2.05553305 C24.2648658,2.42447893 25.5367305,3.45957707 26.2241681,4.60504363 C26.5655219,5.17422936 26.3584497,6.00278088 25.7892639,6.34439743 C25.2200782,6.6857512 24.3915267,6.47867901 24.0501729,5.90949329 C23.6397075,5.22573463 22.6429755,4.42714025 21.3424676,4.42714025 C20.5189089,4.42714025 19.8614285,4.66364401 19.4449191,5.0002677 C19.0286724,5.33715418 18.8126657,5.73106434 18.8126657,6.324426 C18.8202864,7.43310309 20.6639646,7.84067792 21.816789,8.30080913 C22.6661003,8.63611891 23.6578395,8.89154298 24.603329,9.46703547 C25.549344,10.0422652 26.4020715,11.2090171 26.4020715,12.6487994 C26.4020715,13.9711183 25.7868989,15.1641484 24.8406211,15.9296322 C24.2044259,16.4444221 23.4415699,16.7894548 22.6072372,16.9573725 L22.6072372,17.7084033 C22.6072372,18.4068778 22.0409421,18.9734357 21.3424676,18.9734357 C20.6439932,18.9734357 20.077698,18.4068778 20.077698,17.7084033 L20.077698,16.9179552 C18.4200694,16.5440165 17.147942,15.4939397 16.4607671,14.348736 C16.1191506,13.7795502 16.3262228,12.9507359 16.8956713,12.6093822 C17.4645942,12.2677656 18.2931457,12.4751006 18.6347623,13.0442863 C19.0449649,13.728045 20.0419597,14.5460852 21.3424676,14.5460852 C22.1660263,14.5460852 22.8235067,14.2898728 23.2397534,13.9532491 C23.656,13.6166254 23.8722695,13.2424239 23.8722695,12.6487994 C23.8646489,11.5183115 22.0296424,11.1144156 20.8681462,10.6527077 C20.0188349,10.3173979 19.0270958,10.0619738 18.0816063,9.48674412 C17.1355912,8.91125162 16.2828637,7.76420836 16.2828637,6.324426 C16.2828637,5.00210718 16.8977735,3.78936843 17.8440514,3.02388458 C18.4799837,2.50962028 19.2438909,2.17825223 20.077698,2.01585298 L20.077698,1.26482213 C20.077698,0.566347682 20.6439932,5.25563921e-05 21.3424676,5.25563921e-05 Z" id="Fill-6" fill="#003055"></path>
                        </g>
                    </g>
                </g>
            </g>
        </g>
    </g>
</svg>