<svg width="112" height="112" viewBox="0 0 112 112" fill="none" xmlns="http://www.w3.org/2000/svg">
<circle cx="56" cy="56" r="56" fill="#F5DE63"/>
<path d="M77.7769 47.8884C77.7769 58.9341 68.5987 67.8884 57.2769 67.8884C45.955 67.8884 36.7769 58.9341 36.7769 47.8884C36.7769 36.8427 45.955 27.8884 57.2769 27.8884C68.5987 27.8884 77.7769 36.8427 77.7769 47.8884Z" fill="white"/>
<path fill-rule="evenodd" clip-rule="evenodd" d="M62.7723 66.2744C61.705 66.9589 61.3044 68.3247 61.8329 69.4772L71.9024 91.4362C72.5472 92.8424 74.2871 93.3527 75.5892 92.5176L83.7244 87.3007C85.0266 86.4656 85.2886 84.6715 84.2797 83.4989L68.5237 65.1865C67.6967 64.2253 66.2884 64.0196 65.221 64.7041L62.7723 66.2744Z" fill="black"/>
<path fill-rule="evenodd" clip-rule="evenodd" d="M63.1719 64.2039C72.4589 58.2483 75.1594 45.8919 69.2039 36.605C63.2483 27.318 50.8918 24.6175 41.6049 30.573C32.318 36.5286 29.6174 48.8851 35.573 58.172C41.5286 67.4589 53.885 70.1595 63.1719 64.2039ZM66.6062 69.5592C78.8507 61.7069 82.4114 45.4152 74.5591 33.1707C66.7069 20.9262 50.4152 17.3655 38.1707 25.2178C25.9262 33.07 22.3655 49.3617 30.2178 61.6062C38.07 73.8508 54.3617 77.4114 66.6062 69.5592Z" fill="black"/>
</svg>
