<svg width="112" height="112" viewBox="0 0 112 112" fill="none" xmlns="http://www.w3.org/2000/svg">
<circle cx="56" cy="56" r="56" fill="#F5DE63"/>
<circle cx="58.5" cy="51.5" r="20.5" fill="white"/>
<path fill-rule="evenodd" clip-rule="evenodd" d="M83 47.1382C83 52.0268 81.7244 56.6175 79.4878 60.5956H79.4894L79.4822 60.6057C78.5087 62.3355 77.3534 63.9494 76.0424 65.4214L56.0851 93.3616L35.8354 66.362C34.1574 64.6457 32.7023 62.7108 31.5167 60.6038L31.5106 60.5956H31.5122C29.2756 56.6175 28 52.0268 28 47.1382C28 31.9504 40.3122 19.6382 55.5 19.6382C70.6878 19.6382 83 31.9504 83 47.1382ZM56 70C69.2548 70 80 59.2548 80 46C80 32.7452 69.2548 22 56 22C42.7452 22 32 32.7452 32 46C32 59.2548 42.7452 70 56 70Z" fill="black"/>
<path d="M79.4878 60.5956L77.3086 59.3704C76.8734 60.1446 76.8815 61.0914 77.33 61.858C77.7784 62.6245 78.5998 63.0956 79.4878 63.0956V60.5956ZM79.4894 60.5956L81.5238 62.0486C82.068 61.2865 82.1408 60.2842 81.7122 59.4516C81.2837 58.619 80.4258 58.0956 79.4894 58.0956V60.5956ZM79.4822 60.6057L77.4478 59.1527C77.3956 59.2257 77.3475 59.3014 77.3035 59.3796L79.4822 60.6057ZM76.0424 65.4214L74.1755 63.7587C74.1159 63.8255 74.06 63.8955 74.008 63.9683L76.0424 65.4214ZM56.0851 93.3616L54.0851 94.8616C54.5634 95.4993 55.3171 95.8707 56.1142 95.8614C56.9112 95.8521 57.6561 95.4633 58.1194 94.8147L56.0851 93.3616ZM35.8354 66.362L37.8354 64.862C37.77 64.7748 37.6991 64.6921 37.623 64.6142L35.8354 66.362ZM31.5167 60.6038L33.6955 59.3778C33.642 59.2827 33.5823 59.1912 33.5169 59.1039L31.5167 60.6038ZM31.5106 60.5956V58.0956C30.5638 58.0956 29.6981 58.6306 29.2746 59.4775C28.8511 60.3244 28.9424 61.3379 29.5105 62.0954L31.5106 60.5956ZM31.5122 60.5956V63.0956C32.4002 63.0956 33.2216 62.6245 33.6701 61.858C34.1185 61.0914 34.1266 60.1446 33.6914 59.3704L31.5122 60.5956ZM81.667 61.8208C84.1084 57.4784 85.5 52.467 85.5 47.1382H80.5C80.5 51.5867 79.3403 55.7567 77.3086 59.3704L81.667 61.8208ZM79.4894 58.0956H79.4878V63.0956H79.4894V58.0956ZM81.5166 62.0586L81.5238 62.0486L77.4549 59.1427L77.4478 59.1527L81.5166 62.0586ZM77.9092 67.0842C79.3387 65.4792 80.5988 63.7191 81.6609 61.8318L77.3035 59.3796C76.4186 60.952 75.3681 62.4196 74.1755 63.7587L77.9092 67.0842ZM58.1194 94.8147L78.0767 66.8745L74.008 63.9683L54.0508 91.9085L58.1194 94.8147ZM33.8354 67.862L54.0851 94.8616L58.0851 91.8616L37.8354 64.862L33.8354 67.862ZM29.3379 61.8297C30.6314 64.1284 32.2184 66.2386 34.0478 68.1097L37.623 64.6142C36.0964 63.0529 34.7732 61.2931 33.6955 59.3778L29.3379 61.8297ZM29.5105 62.0954L29.5166 62.1036L33.5169 59.1039L33.5108 59.0958L29.5105 62.0954ZM31.5122 58.0956H31.5106V63.0956H31.5122V58.0956ZM25.5 47.1382C25.5 52.467 26.8916 57.4784 29.333 61.8208L33.6914 59.3704C31.6597 55.7567 30.5 51.5867 30.5 47.1382H25.5ZM55.5 17.1382C38.9315 17.1382 25.5 30.5696 25.5 47.1382H30.5C30.5 33.3311 41.6929 22.1382 55.5 22.1382V17.1382ZM85.5 47.1382C85.5 30.5696 72.0685 17.1382 55.5 17.1382V22.1382C69.3071 22.1382 80.5 33.3311 80.5 47.1382H85.5ZM77.5 46C77.5 57.8741 67.8741 67.5 56 67.5V72.5C70.6355 72.5 82.5 60.6355 82.5 46H77.5ZM56 24.5C67.8741 24.5 77.5 34.1259 77.5 46H82.5C82.5 31.3645 70.6355 19.5 56 19.5V24.5ZM34.5 46C34.5 34.1259 44.1259 24.5 56 24.5V19.5C41.3645 19.5 29.5 31.3645 29.5 46H34.5ZM56 67.5C44.1259 67.5 34.5 57.8741 34.5 46H29.5C29.5 60.6355 41.3645 72.5 56 72.5V67.5Z" fill="black"/>
<path fill-rule="evenodd" clip-rule="evenodd" d="M46.6416 52.6875C44.8814 52.2343 43.5808 50.6363 43.5808 48.7346C43.5808 46.4804 45.4082 44.653 47.6624 44.653C47.8645 44.653 48.0631 44.6677 48.2573 44.6961C48.2015 44.3498 48.1725 43.9946 48.1725 43.6326C48.1725 39.9695 51.142 37 54.8051 37C58.1232 37 60.8722 39.4365 61.3606 42.6179C62.5819 42.6945 63.5913 43.5524 63.8949 44.6975C64.0921 44.6682 64.294 44.653 64.4994 44.653C66.7536 44.653 68.581 46.4804 68.581 48.7346C68.581 50.9888 66.7536 52.8162 64.4994 52.8162C64.4895 52.8162 64.4795 52.8162 64.4696 52.8161H47.6922C47.6823 52.8162 47.6724 52.8162 47.6624 52.8162C47.6525 52.8162 47.6425 52.8162 47.6326 52.8161H46.6416V52.6875Z" fill="black"/>
</svg>
