<svg width="112" height="112" viewBox="0 0 112 112" fill="none" xmlns="http://www.w3.org/2000/svg">
<circle cx="56" cy="56" r="56" fill="#F5DE63"/>
<circle cx="66.5" cy="59.5" r="14.5" fill="white"/>
<path fill-rule="evenodd" clip-rule="evenodd" d="M81.3378 20.127C79.9787 19.616 78.4626 20.3036 77.9517 21.6627L75.0227 29.4532L75.0221 29.4549C74.1716 31.7265 70.7016 36.4973 63.8864 36.2036C54.4497 35.797 49.4071 41.0896 48.0071 44.425L47.9879 44.4708L42.7285 58.4601L42.7234 58.4742C41.5543 61.6945 41.7854 68.5193 48.3683 74.792C51.808 78.0696 53.2019 80.6642 53.7223 82.4846C54.2311 84.2642 53.9576 85.4828 53.7018 86.1633L50.4913 94.7026C49.9803 96.0618 50.6679 97.5778 52.027 98.0888C53.3861 98.5997 54.9021 97.9122 55.4131 96.5531L58.6236 88.0137C59.2236 86.4178 59.6356 84.0391 58.7779 81.0392C57.9319 78.08 55.9075 74.7128 51.9957 70.9853C46.833 66.0659 47.2561 61.4198 47.662 60.2794L52.8718 46.4222C53.4867 45.0182 56.5555 41.1508 63.66 41.4569C73.449 41.8788 78.5736 34.9632 79.9457 31.3004L82.8735 23.5131C83.3845 22.154 82.6969 20.638 81.3378 20.127Z" fill="black"/>
<path fill-rule="evenodd" clip-rule="evenodd" d="M62.5978 13.0813C63.9569 13.5923 64.6444 15.1083 64.1335 16.4675L61.2045 24.258L61.2039 24.2597C60.3471 26.5289 59.8146 32.4041 65.1353 36.6731C72.5025 42.5841 72.8093 49.8878 71.6651 53.3195L71.6494 53.3666L66.39 67.3558L66.3846 67.3698C65.1425 70.5627 60.4724 75.5448 51.3874 75.927C46.6404 76.1267 43.8825 77.1604 42.2917 78.187C40.7365 79.1906 40.1394 80.2876 39.8836 80.968L36.6731 89.5074C36.1621 90.8665 34.6461 91.5541 33.287 91.0431C31.9278 90.5321 31.2403 89.0161 31.7513 87.6569L34.9618 79.1176C35.5618 77.5216 36.819 75.4608 39.4405 73.7689C42.0266 72.1 45.7678 70.9006 51.1664 70.6734C58.2914 70.3737 61.0339 66.5996 61.4798 65.4743L66.6897 51.6171C67.152 50.1558 67.3912 45.2245 61.8447 40.7744C54.2024 34.6426 54.9031 26.0639 56.2839 22.4043L59.2116 14.617C59.7226 13.2579 61.2386 12.5703 62.5978 13.0813Z" fill="black"/>
<path fill-rule="evenodd" clip-rule="evenodd" d="M80.7264 26.1606C80.9818 25.481 80.6381 24.723 79.9585 24.4675L60.9849 17.3341C60.3053 17.0786 59.5473 17.4224 59.2918 18.102C59.0363 18.7815 59.3801 19.5395 60.0596 19.795L79.0333 26.9284C79.7129 27.1839 80.4709 26.8401 80.7264 26.1606Z" fill="black"/>
<path fill-rule="evenodd" clip-rule="evenodd" d="M77.0808 35.8565C77.3363 35.177 76.9926 34.419 76.313 34.1635L57.3393 27.0301C56.6598 26.7746 55.9018 27.1183 55.6463 27.7979C55.3908 28.4775 55.7346 29.2355 56.4141 29.491L75.3878 36.6244C76.0673 36.8799 76.8254 36.5361 77.0808 35.8565Z" fill="black"/>
<path fill-rule="evenodd" clip-rule="evenodd" d="M78.9036 31.0088C79.1591 30.3293 78.8153 29.5713 78.1358 29.3158L59.1621 22.1824C58.4825 21.9269 57.7245 22.2707 57.469 22.9502C57.2135 23.6298 57.5573 24.3878 58.2369 24.6433L77.2105 31.7767C77.8901 32.0322 78.6481 31.6884 78.9036 31.0088Z" fill="black"/>
<path fill-rule="evenodd" clip-rule="evenodd" d="M71.0306 51.9509C71.286 51.2714 70.9423 50.5133 70.2627 50.2579L51.2891 43.1244C50.6095 42.869 49.8515 43.2127 49.596 43.8923C49.3405 44.5719 49.6843 45.3299 50.3638 45.5854L69.3375 52.7188C70.0171 52.9743 70.7751 52.6305 71.0306 51.9509Z" fill="black"/>
<path fill-rule="evenodd" clip-rule="evenodd" d="M66.7742 63.2712C67.0297 62.5917 66.6859 61.8337 66.0064 61.5782L47.0327 54.4448C46.3531 54.1893 45.5951 54.533 45.3396 55.2126C45.0842 55.8922 45.4279 56.6502 46.1075 56.9057L65.0811 64.0391C65.7607 64.2946 66.5187 63.9508 66.7742 63.2712Z" fill="black"/>
<path fill-rule="evenodd" clip-rule="evenodd" d="M58.6322 84.9271C58.8877 84.2475 58.544 83.4895 57.8644 83.234L38.8907 76.1006C38.2112 75.8452 37.4532 76.1889 37.1977 76.8685C36.9422 77.5481 37.286 78.3061 37.9655 78.5616L56.9392 85.695C57.6187 85.9505 58.3768 85.6067 58.6322 84.9271Z" fill="black"/>
<path fill-rule="evenodd" clip-rule="evenodd" d="M55.2463 93.9342C55.5017 93.2546 55.158 92.4966 54.4784 92.2411L35.5048 85.1077C34.8252 84.8522 34.0672 85.196 33.8117 85.8755C33.5562 86.5551 33.9 87.3131 34.5795 87.5686L53.5532 94.702C54.2328 94.9575 54.9908 94.6137 55.2463 93.9342Z" fill="black"/>
<path fill-rule="evenodd" clip-rule="evenodd" d="M56.9392 89.4308C57.1947 88.7512 56.851 87.9932 56.1714 87.7377L37.1977 80.6043C36.5182 80.3488 35.7602 80.6926 35.5047 81.3722C35.2492 82.0517 35.593 82.8097 36.2725 83.0652L55.2462 90.1986C55.9257 90.4541 56.6838 90.1103 56.9392 89.4308Z" fill="black"/>
<path fill-rule="evenodd" clip-rule="evenodd" d="M64.6462 68.9315C64.9016 68.252 64.5579 67.494 63.8783 67.2385L44.9047 60.1051C44.2251 59.8496 43.4671 60.1934 43.2116 60.8729C42.9561 61.5525 43.2999 62.3105 43.9794 62.566L62.9531 69.6994C63.6327 69.9549 64.3907 69.6111 64.6462 68.9315Z" fill="black"/>
<path fill-rule="evenodd" clip-rule="evenodd" d="M68.9018 57.6109C69.1573 56.9314 68.8135 56.1733 68.1339 55.9179L49.1603 48.7844C48.4807 48.529 47.7227 48.8727 47.4672 49.5523C47.2117 50.2319 47.5555 50.9899 48.2351 51.2454L67.2087 58.3788C67.8883 58.6343 68.6463 58.2905 68.9018 57.6109Z" fill="black"/>
</svg>
