<svg width="112" height="112" viewBox="0 0 112 112" fill="none" xmlns="http://www.w3.org/2000/svg">
<circle cx="56" cy="56" r="56" fill="#F5DE63"/>
<circle cx="42.5" cy="77.5" r="7.5" fill="white"/>
<path d="M44.3866 69.0036C43.5641 68.2243 43.5526 66.918 44.3612 66.1244L87.8202 23.4696C88.241 23.0566 88.9097 23.0401 89.3504 23.4318C89.8115 23.8417 89.8548 24.5472 89.4473 25.0104L49.2249 70.7309C48.4762 71.582 47.1706 71.6413 46.3478 70.8617L44.3866 69.0036Z" stroke="black" stroke-width="4" stroke-linejoin="round"/>
<path d="M45.2889 85.0178L43.7985 83.0106C43.1646 83.4813 42.7903 84.2238 42.7889 85.0133C42.7875 85.8029 43.1592 86.5467 43.7914 87.0196L45.2889 85.0178ZM31.3616 74.5988L29.864 76.6006C30.5103 77.0841 31.3503 77.2258 32.1195 76.9811C32.8887 76.7364 33.4924 76.1354 33.7405 75.3673L31.3616 74.5988ZM31.3388 74.5818L32.8364 72.58C32.157 72.0717 31.2662 71.9427 30.4705 72.2374C29.6748 72.5321 29.0829 73.2103 28.8986 74.0385L31.3388 74.5818ZM31.2665 74.9101L33.6689 75.6017C33.6841 75.5491 33.6975 75.4961 33.7091 75.4427L31.2665 74.9101ZM30.9634 76.3566L33.4141 76.8507C33.4251 76.7962 33.4343 76.7414 33.4416 76.6864L30.9634 76.3566ZM29.9716 89.1718L27.8728 90.5302L27.8728 90.5302L29.9716 89.1718ZM34.5919 88.1072L35.7273 90.3345L34.5919 88.1072ZM37.6729 86.6204L38.2729 84.1935C37.7405 84.0618 37.1795 84.109 36.6765 84.3276L37.6729 86.6204ZM45.2711 85.0309L45.4625 82.5383C44.8637 82.4923 44.2683 82.6634 43.7853 83.0204L45.2711 85.0309ZM45.3107 85.0341L45.1103 87.526C46.2204 87.6153 47.2557 86.9595 47.6493 85.9177C48.043 84.8759 47.7 83.6993 46.8082 83.0322L45.3107 85.0341ZM46.2418 79.832C45.702 81.1622 44.8373 82.2393 43.7985 83.0106L46.7793 87.0249C48.5431 85.7153 49.9852 83.9043 50.8748 81.7121L46.2418 79.832ZM42.758 70.754C46.0509 72.0903 47.7606 76.089 46.2418 79.832L50.8748 81.7121C53.3439 75.6274 50.7016 68.5815 44.6381 66.1209L42.758 70.754ZM33.9334 74.8373C35.4523 71.0944 39.465 69.4177 42.758 70.754L44.6381 66.1209C38.5745 63.6604 31.7695 66.8726 29.3004 72.9573L33.9334 74.8373ZM33.7405 75.3673C33.7977 75.1903 33.8619 75.0135 33.9334 74.8373L29.3004 72.9573C29.1831 73.2463 29.0772 73.5375 28.9826 73.8303L33.7405 75.3673ZM29.8412 76.5836L29.864 76.6006L32.8592 72.597L32.8364 72.58L29.8412 76.5836ZM33.7091 75.4427C33.7329 75.3338 33.7562 75.2278 33.7791 75.125L28.8986 74.0385C28.8741 74.1486 28.8492 74.2616 28.8239 74.3774L33.7091 75.4427ZM33.4416 76.6864C33.4896 76.3255 33.5649 75.9631 33.6689 75.6017L28.8641 74.2184C28.6915 74.818 28.5657 75.4225 28.4853 76.0269L33.4416 76.6864ZM32.0704 87.8135C32.2074 88.0251 32.1933 88.1247 32.1554 87.9187C32.1246 87.751 32.0965 87.4828 32.0868 87.0979C32.0675 86.3292 32.1259 85.314 32.2496 84.1342C32.4957 81.787 32.9717 79.0458 33.4141 76.8507L28.5127 75.8626C28.0545 78.1357 27.5459 81.047 27.2769 83.6129C27.143 84.8895 27.0613 86.146 27.0884 87.2235C27.1019 87.7618 27.1436 88.3103 27.2379 88.8231C27.3251 89.2974 27.4915 89.941 27.8728 90.5302L32.0704 87.8135ZM33.4566 85.8798C32.8673 86.1802 32.367 86.4349 31.919 86.645C31.4647 86.858 31.1437 86.9867 30.9191 87.0551C30.6624 87.1334 30.7262 87.071 30.967 87.1035C31.114 87.1234 31.3277 87.1791 31.5556 87.3179C31.7888 87.4599 31.9592 87.6418 32.0704 87.8135L27.8728 90.5302C28.4622 91.4407 29.3611 91.9321 30.2979 92.0586C31.1016 92.1671 31.8464 91.9995 32.3765 91.838C33.4241 91.5188 34.6516 90.8828 35.7273 90.3345L33.4566 85.8798ZM36.6765 84.3276C35.482 84.8467 34.3808 85.4088 33.4566 85.8798L35.7273 90.3345C36.6662 89.8559 37.6363 89.3622 38.6694 88.9132L36.6765 84.3276ZM43.7853 83.0204C42.1643 84.2184 40.1515 84.6579 38.2729 84.1935L37.0729 89.0473C40.4987 89.8943 44.0259 89.0598 46.757 87.0415L43.7853 83.0204ZM45.5111 82.5421C45.4948 82.5408 45.4786 82.5395 45.4625 82.5383L45.0798 87.5236C45.09 87.5244 45.1002 87.5252 45.1103 87.526L45.5111 82.5421ZM43.7914 87.0196L43.8131 87.0359L46.8082 83.0322L46.7865 83.0159L43.7914 87.0196Z" fill="black"/>
<rect x="50.0713" y="59" width="8.64169" height="10" transform="rotate(45 50.0713 59)" fill="black"/>
<rect x="28" y="91" width="50" height="3" rx="1.5" fill="black"/>
</svg>
