<svg width="112" height="112" viewBox="0 0 112 112" fill="none" xmlns="http://www.w3.org/2000/svg">
<circle cx="56" cy="56" r="56" fill="#F5DE63"/>
<path fill-rule="evenodd" clip-rule="evenodd" d="M71.7756 48.2902C69.3844 39.5959 62.1574 33.2775 53.6133 33.2775C43.1187 33.2775 34.6112 42.81 34.6112 54.5689C34.6112 55.2207 34.6373 55.8656 34.6885 56.5025C30.2269 57.9903 27.0104 62.2008 27.0104 67.1626C27.0104 73.3673 32.0403 78.3972 38.245 78.3972H84.1831C90.3879 78.3972 95.4178 73.3673 95.4178 67.1626C95.4178 60.9578 90.3879 55.9279 84.1832 55.9279H84.0982C84.2035 55.3726 84.2589 54.7967 84.2589 54.2063C84.2589 49.6528 80.9645 45.9615 76.9006 45.9615C74.9081 45.9615 73.1006 46.8489 71.7756 48.2902Z" fill="white"/>
<path fill-rule="evenodd" clip-rule="evenodd" d="M66.4844 54.2333L63.6851 45.1491C61.3049 37.4248 54.1071 31.8219 45.6158 31.8219C35.1756 31.8219 26.7121 40.2854 26.7121 50.7256C26.7121 51.2291 26.7317 51.7268 26.7699 52.2183L27.1544 57.1614L22.3356 58.3281C19.1687 59.0949 16.8219 61.9558 16.8219 65.3505C16.8219 69.3406 20.0566 72.5753 24.0467 72.5753H86.9654C90.9555 72.5753 94.1902 69.3406 94.1902 65.3505C94.1902 61.3603 90.9555 58.1257 86.9654 58.1257H78.095L79.5886 51.0942C79.6416 50.8446 79.6705 50.5813 79.6705 50.3047C79.6705 48.2322 77.9904 46.552 75.9178 46.552C74.8994 46.552 73.9859 46.95 73.3044 47.6117L66.4844 54.2333ZM66.7708 37.9194C62.4361 30.7741 54.5835 26 45.6158 26C31.9602 26 20.8902 37.07 20.8902 50.7256C20.8902 51.3799 20.9156 52.0282 20.9655 52.6697C15.247 54.0543 11 59.2064 11 65.3505C11 72.556 16.8412 78.3972 24.0467 78.3972H86.9654C94.1709 78.3972 100.012 72.556 100.012 65.3505C100.012 59.5842 96.2712 54.6916 91.084 52.9672C89.7893 52.5368 88.4046 52.3038 86.9654 52.3038H85.2834C85.4204 51.659 85.4924 50.9903 85.4924 50.3047C85.4924 49.6191 85.4204 48.9504 85.2834 48.3056C84.3641 43.9773 80.5202 40.7301 75.9178 40.7301C75.4442 40.7301 74.9787 40.7645 74.5235 40.8309C72.4867 41.1281 70.658 42.0665 69.2489 43.4347C68.6472 41.482 67.8101 39.6325 66.7708 37.9194Z" fill="black"/>
<path d="M65 59.9488H58.2727V67H53.6909V59.9488H47V56.0157H53.6909V49H58.2727V56.0157H65V59.9488Z" fill="black"/>
</svg>
