<?xml version="1.0" encoding="UTF-8"?>
<svg width="42px" height="42px" viewBox="0 0 42 42" version="1.1" xmlns="http://www.w3.org/2000/svg" xmlns:xlink="http://www.w3.org/1999/xlink">
    <!-- Generator: Sketch 49.3 (51167) - http://www.bohemiancoding.com/sketch -->
    <title>Page 1</title>
    <desc>Created with Sketch.</desc>
    <defs>
        <polygon id="path-1" points="0 0.235576923 41.9679995 0.235576923 41.9679995 34.8616116 0 34.8616116"></polygon>
    </defs>
    <g id="final" stroke="none" stroke-width="1" fill="none" fill-rule="evenodd">
        <g id="Score" transform="translate(-796.000000, -2748.000000)">
            <g id="Page-1" transform="translate(796.000000, 2748.000000)">
                <g id="Group-3">
                    <mask id="mask-2" fill="white">
                        <use xlink:href="#path-1"></use>
                    </mask>
                    <g id="Clip-2"></g>
                    <path d="M15.2543664,6.83169712 C14.3135664,6.83169712 13.5407664,6.02400481 13.5407664,5.11535096 C13.5407664,4.20669712 14.3471664,3.39900481 15.2543664,3.39900481 C16.1615664,3.39900481 16.9679664,4.27400481 16.9679664,5.11535096 C17.0351664,5.95669712 16.1951664,6.83169712 15.2543664,6.83169712 M9.9455664,6.83169712 C9.0047664,6.83169712 8.2319664,6.02400481 8.2991664,5.04804327 C8.2991664,4.10573558 9.1055664,3.33169712 9.9455664,3.33169712 C10.9535664,3.33169712 11.6591664,4.07208173 11.6591664,5.04804327 C11.5919664,6.0913125 10.8863664,6.83169712 9.9455664,6.83169712 M4.5695664,6.83169712 C3.6287664,6.83169712 2.8559664,6.02400481 2.8559664,5.11535096 C2.8559664,4.20669712 3.6623664,3.39900481 4.5695664,3.39900481 C5.4767664,3.39900481 6.2831664,4.27400481 6.2831664,5.11535096 C6.3503664,5.95669712 5.4767664,6.83169712 4.5695664,6.83169712 M37.6319664,0.235543269 L4.3679664,0.235543269 C1.9823664,0.235543269 -3.36e-05,2.22112019 -3.36e-05,4.61054327 L-3.36e-05,30.4230433 C-3.36e-05,32.5432356 1.5791664,34.4951587 3.7295664,34.6970817 C4.1999664,34.7307356 10.1807664,34.7643894 16.1279664,34.7980433 C16.3967664,33.9566971 16.8671664,33.1826587 17.4719664,32.6105433 C17.4047664,32.5432356 17.3375664,32.442274 17.2703664,32.3413125 L5.6111664,32.3413125 C3.5615664,32.3413125 2.4191664,31.2643894 2.4191664,29.1441971 L2.4191664,9.08650481 L28.5935664,9.08650481 C29.3999664,9.08650481 29.3999664,9.08650481 29.3999664,8.2788125 L29.3999664,6.36054327 C29.3999664,5.88938942 29.5343664,5.68746635 30.0047664,5.68746635 L36.7247664,5.68746635 C37.2623664,5.68746635 37.3967664,5.88938942 37.3295664,6.36054327 L37.3295664,8.54804327 C37.3295664,8.95188942 37.4639664,9.1538125 37.8671664,9.08650481 L39.5135664,9.08650481 L39.5135664,29.6490048 C39.3791664,31.365351 38.3039664,32.3749663 36.5903664,32.3749663 L24.7295664,32.3749663 C24.6623664,32.442274 24.6287664,32.5432356 24.5615664,32.6105433 C25.2335664,33.1826587 25.7039664,33.9230433 25.9391664,34.8316971 L32.0207664,34.8316971 C33.9359664,34.8316971 35.8175664,34.8990048 37.5983664,34.8316971 C40.0511664,34.6970817 41.8991664,32.7788125 41.8991664,30.3893894 C41.9663664,20.9999663 41.9663664,14.1009279 41.9663664,4.71150481 C42.0335664,2.28842788 40.0175664,0.302850962 37.6319664,0.235543269" id="Fill-1" fill="#F2D03A" mask="url(#mask-2)"></path>
                </g>
                <path d="M26.8274954,27.6337522 L23.8586478,24.4614004 C24.0182632,23.1651706 24.1140325,21.9371634 24.1140325,20.9820467 L24.1140325,20.9479354 C24.1140325,19.0035907 23.4436476,17.1274686 22.2308893,15.6606822 L20.155569,13.1023339 C20.155569,13.0682226 20.1236459,13.0682226 20.0917228,13.0341113 C20.0597997,13 20.0278766,13 19.9959535,13 C19.9640304,13 19.9321073,13 19.9001842,13.0341113 C19.8682611,13.0341113 19.8682611,13.0682226 19.8363381,13.1023339 L17.7932601,15.6606822 C16.6121057,17.1274686 15.9417207,19.0035907 15.9097976,20.9479354 L15.9097976,20.9820467 C15.9097976,21.9371634 16.0055669,23.1651706 16.1651824,24.4614004 L13.1963347,27.6337522 C12.7813345,28.0771993 13.0686424,28.7935368 13.643258,28.7935368 C14.7924894,29.1687612 15.9736438,29.4416517 17.1547982,29.6463196 C17.3144137,30.226553 17.4740292,30.8061041 17.6336446,31.3518851 C17.761337,31.7615619 18.112491,32 18.4955682,32 L21.4328119,32 C21.8155698,32 22.1667238,31.7271095 22.2944162,31.3518851 C22.4859548,30.8061041 22.6455702,30.2603232 22.7732626,29.6463196 C23.954417,29.4416517 25.1039676,29.1687612 26.2848028,28.7935368 C26.9232647,28.7935368 27.2105725,28.043088 26.8274954,27.6337522" id="Fill-4" fill="#FFFFFF"></path>
                <path d="M23.9192888,36.924812 C23.8854103,36.9924812 23.8854103,37.093985 23.8854103,37.1616541 C23.6509443,38.4473684 22.9129968,39.6315789 22.5775661,40.8834586 C22.2756786,40.4774436 22.1079632,39.9699248 22.1079632,39.462406 C22.1079632,39.2593985 22.1415063,38.9890602 21.973791,38.8533835 C21.1687574,38.075188 20.1960085,41.3574812 20.4308099,41.9661654 C20.4308099,42 20.4308099,42 20.464353,42 C19.5586902,41.5266541 19.2232595,40.4101128 19.3909749,39.4285714 C19.458061,38.9548872 19.4245179,38.4815414 19.3574318,37.9740226 L19.3574318,37.9398496 C19.3574318,37.906015 19.3574318,37.8383459 19.3238887,37.8048496 C19.3238887,37.7706767 19.2903457,37.7706767 19.2903457,37.7368421 L19.3238887,37.7368421 C19.2903457,37.6356767 19.2903457,37.5341729 19.2568026,37.4665038 L19.2232595,37.4323308 C19.1897165,37.365 19.1561734,37.3308271 19.1226303,37.2631579 L19.0890873,37.2293233 C19.0890873,37.1958271 19.0555442,37.1958271 19.0555442,37.1958271 C19.0220011,37.1281579 18.9884581,37.093985 18.954915,37.0601504 L18.9213719,37.0266541 C18.5188551,36.8909774 18.7201135,37.7706767 18.7536566,37.9740226 C18.7871997,38.2443609 18.8207427,38.5150376 18.8542858,38.8198872 C18.8542858,38.9548872 18.8878289,39.1240602 18.8542858,39.2593985 C18.8207427,39.7334211 18.3846829,40.3759398 18.3846829,40.2409398 C18.3511398,39.5300752 17.8479938,38.8875564 17.5796493,38.2781955 C17.2442186,37.5676692 16.942331,36.6883083 17.0094172,35.8759398 C17.0765033,34.9965789 17.5796493,33.9473684 18.2840537,33.4398496 C18.5188551,33.2706767 18.7536566,33.1356767 19.0220011,33.0338346 C19.0555442,33.0338346 19.0555442,33 19.0555442,33 L19.0890873,33 C18.8207427,33.2371805 18.8542858,33.8123684 18.8542858,34.1165414 C18.8878289,34.7255639 19.0555442,35.3349248 19.4245179,35.8424436 C19.6593194,36.1466165 20.0282931,36.4172932 20.3301807,36.6883083 C20.4308099,36.7556391 20.497896,36.8574812 20.5649822,36.924812 L20.5985252,36.958985 C20.8333267,37.2293233 21.0342497,37.5341729 21.1352143,37.9398496 C21.1687574,38.075188 21.504188,37.2973308 21.4371019,36.7556391 C21.3696803,36.2822932 21.201965,35.8424436 21.0342497,35.4022556 C20.967499,35.2330827 20.5649822,34.2857143 21.001042,34.3533835 C21.0681282,34.387218 21.1687574,34.421391 21.201965,34.4890602 C21.3696803,34.6582331 21.470645,34.827406 21.5373957,35.0639098 C21.6048172,35.2672556 21.8728263,35.3007519 22.007334,35.1657519 C22.0405417,35.1315789 22.0744202,35.0980827 22.0744202,35.0639098 C22.2421355,34.8609023 22.3092216,34.6240602 22.3759723,34.387218 C22.4433939,34.0830451 22.4433939,33.8123684 22.3759723,33.5075188 C22.3427647,33.3721805 22.3092216,33.2371805 22.2421355,33.1015038 C22.3092216,33.1356767 22.4098508,33.1691729 22.4769369,33.2030075 C22.5436877,33.2371805 22.5775661,33.2706767 22.6446523,33.3048496 C23.9192888,34.2180451 24.1540903,35.6056015 23.9192888,36.924812" id="Fill-6" fill="#FFFFFF"></path>
            </g>
        </g>
    </g>
</svg>