<?xml version="1.0" encoding="UTF-8"?>
<svg width="63px" height="61px" viewBox="0 0 63 61" version="1.1" xmlns="http://www.w3.org/2000/svg" xmlns:xlink="http://www.w3.org/1999/xlink">
    <!-- Generator: Sketch 54.1 (76490) - https://sketchapp.com -->
    <title>Group</title>
    <desc>Created with Sketch.</desc>
    <defs>
        <polygon id="path-1" points="41.7591294 0.193317688 41.7591294 41.9984733 0.211054168 41.9984733 0.211054168 0.193317688"></polygon>
        <path d="M0.00173788664,21.0806809 C0.00173788664,32.7146058 9.66677722,42.1617865 21.569237,42.1617865 L21.569237,42.1617865 C26.1922327,42.1617865 30.476775,40.7352519 33.9893697,38.3101856 L33.9893697,38.3101856 L45.4294431,49.4914683 C46.8617875,50.8916642 49.1681803,50.8916642 50.6005248,49.4914683 L50.6005248,49.4914683 C52.0329778,48.0915909 52.0329778,45.8373009 50.6005248,44.4374236 L50.6005248,44.4374236 L39.1670772,33.2624069 C41.6661581,29.8212852 43.1366275,25.6175112 43.1366275,21.0806809 L43.1366275,21.0806809 C43.1366275,9.44675594 33.4715881,0 21.569237,0 L21.569237,0 C9.66677722,0 0.00173788664,9.44675594 0.00173788664,21.0806809 M7.1190354,21.054236 L7.1190354,21.0541298 C7.11914402,13.1984187 13.6346983,6.83041588 21.6719895,6.83041588 L21.6719895,6.83041588 C29.7092808,6.83052208 36.2247264,13.1985249 36.2248351,21.0541298 L36.2248351,21.0541298 C36.2248351,28.9096285 29.7093894,35.2778437 21.6719895,35.2779499 L21.6719895,35.2779499 C13.6346983,35.2779499 7.11914402,28.9098409 7.1190354,21.054236" id="path-3"></path>
        <polygon id="path-5" points="0.102845791 0.0910172114 18.3728208 0.0910172114 18.3728208 17.731295 0.102845791 17.731295"></polygon>
    </defs>
    <g id="final" stroke="none" stroke-width="1" fill="none" fill-rule="evenodd">
        <g id="Arranger" transform="translate(-926.000000, -770.000000)">
            <g id="Group" transform="translate(926.000000, 770.000000)">
                <g id="Group-6">
                    <g id="Page-1">
                        <g id="Group-3">
                            <mask id="mask-2" fill="white">
                                <use xlink:href="#path-1"></use>
                            </mask>
                            <g id="Clip-2"></g>
                            <path d="M41.7592521,21.0958955 C41.7592521,9.55153903 32.4582343,0.193317688 20.9853575,0.193317688 C9.51207195,0.193317688 0.211054168,9.55153903 0.211054168,21.0958955 C0.211054168,32.640252 9.51207195,41.9984733 20.9853575,41.9984733 C32.4582343,41.9984733 41.7592521,32.640252 41.7592521,21.0958955" id="Fill-1" fill="#F2D03A" mask="url(#mask-2)"></path>
                        </g>
                    </g>
                </g>
                <g id="Page-1" transform="translate(9.000000, 8.000000)">
                    <g id="Group-3">
                        <mask id="mask-4" fill="white">
                            <use xlink:href="#path-3"></use>
                        </mask>
                        <g id="Clip-2"></g>
                        <path d="M43.1467724,21.0508587 C43.1467724,32.6961475 33.4880329,42.1365312 21.5734079,42.1365312 C9.65867433,42.1365312 4.34471661e-05,32.6961475 4.34471661e-05,21.0508587 C4.34471661e-05,9.40567617 9.65867433,-0.0347075273 21.5734079,-0.0347075273 C33.4880329,-0.0347075273 43.1467724,9.40567617 43.1467724,21.0508587" id="Fill-1" fill="#003055" mask="url(#mask-4)"></path>
                    </g>
                    <g id="Group-9" transform="translate(34.468085, 34.468085)">
                        <g id="Group-6" transform="translate(0.412312, 0.217902)">
                            <mask id="mask-6" fill="white">
                                <use xlink:href="#path-5"></use>
                            </mask>
                            <g id="Clip-5"></g>
                            <path d="M0.102845791,5.25721557 L11.9221545,16.660397 C13.4020915,18.0882816 15.7847729,18.0882816 17.2647098,16.660397 C18.74454,15.2327184 18.7398404,12.9383713 17.2647098,11.5059507 L5.50863163,0.0910172114 C4.19638384,2.05176856 2.22651685,3.77304433 0.102845791,5.25721557" id="Fill-4" fill="#003055" mask="url(#mask-6)"></path>
                        </g>
                    </g>
                </g>
            </g>
        </g>
    </g>
</svg>