<svg xmlns="http://www.w3.org/2000/svg" xmlns:xlink="http://www.w3.org/1999/xlink" width="20" height="20" viewBox="0 0 20 20">
    <defs>
        <path id="m645vmoiya" d="M0 0L19.62 0 19.62 19.393 0 19.393z"/>
    </defs>
    <g fill="none" fill-rule="evenodd">
        <mask id="7thqfv83rb" fill="#fff">
            <use xlink:href="#m645vmoiya"/>
        </mask>
        <path fill="#AEAFB3" d="M7.85 13.112c-2.871 0-5.2-2.327-5.2-5.2 0-2.872 2.329-5.2 5.2-5.2 2.867 0 5.194 2.322 5.201 5.188.006 2.867-2.309 5.199-5.176 5.212H7.85zm11.25 2.813l-4.288-4.3c.624-1.151.948-2.441.938-3.75C15.75 3.526 12.225 0 7.875 0 3.526 0 0 3.526 0 7.875s3.526 7.875 7.875 7.875c1.424.001 2.82-.388 4.037-1.125l4.238 4.237c.666.69 1.766.71 2.457.044l.043-.044.501-.5c.644-.692.622-1.772-.051-2.437z" mask="url(#7thqfv83rb)"/>
    </g>
</svg>
