<?xml version="1.0" encoding="UTF-8"?>
<svg width="73px" height="68px" viewBox="0 0 73 68" version="1.1" xmlns="http://www.w3.org/2000/svg" xmlns:xlink="http://www.w3.org/1999/xlink">
    <!-- Generator: Sketch 49.3 (51167) - http://www.bohemiancoding.com/sketch -->
    <title>icon single signon</title>
    <desc>Created with Sketch.</desc>
    <defs></defs>
    <g id="final" stroke="none" stroke-width="1" fill="none" fill-rule="evenodd">
        <g id="Ego" transform="translate(-166.000000, -804.000000)">
            <g id="icon-single-signon" transform="translate(166.000000, 804.000000)">
                <g id="Page-1" transform="translate(11.000000, 0.000000)" fill="#F2D03A">
                    <polygon id="Fill-1" points="0.281671159 48.8534058 54.574979 48.8534058 54.574979 0 0.281671159 0"></polygon>
                </g>
                <path d="M46.5331687,18.6207255 C46.5331687,21.6713743 48.9820475,24.1441006 52.0032753,24.1441006 C55.0245031,24.1441006 57.4733819,21.6713743 57.4733819,18.6207255 C57.4733819,15.5700766 55.0245031,13.0973504 52.0032753,13.0973504 C48.983538,13.1018654 46.5368949,15.5715816 46.5331687,18.6207255 Z M15.3073556,24.8815539 L15.3073556,18.1842735 C15.3274773,16.2495872 16.8865322,14.6926576 18.80256,14.6926576 L39.1321293,14.6926576 C41.2702405,7.4994774 48.7793405,3.41865135 55.9016578,5.57758366 C63.0254656,7.73726848 67.0669354,15.317988 64.9288243,22.5111682 C62.7899679,29.7035959 55.2823583,33.7844219 48.1592957,31.6254896 C43.824199,30.3116186 40.4333291,26.8877281 39.1321293,22.5111682 L33.5956958,22.5111682 L33.5956958,24.9116541 C33.6843801,26.8583804 32.1938878,28.5101254 30.2651908,28.5996733 C28.3364938,28.6899738 26.7014238,27.1842144 26.6127395,25.2374881 C26.6075228,25.1283751 26.6075228,25.0200146 26.6127395,24.9116541 L26.6127395,22.481068 L22.2903119,22.481068 L22.2903119,24.8815539 C22.3789962,26.8282803 20.8877587,28.4800253 18.9598069,28.5695732 C17.0318552,28.6598736 15.3960399,27.1541143 15.3073556,25.2073879 C15.3021389,25.0982749 15.3021389,24.9899144 15.3073556,24.8815539 Z M18.6311534,68 L0,52.60378 L10.6793771,41.9784317 C16.5057114,36.1578177 25.1975171,34.3841671 32.8057349,37.4634111 L45.9518767,37.4634111 C48.6764965,37.4634111 50.8854061,39.6930788 50.8854061,42.4449838 C50.8854061,45.1961363 48.6764965,47.4265565 45.9518767,47.4265565 L35.7718145,47.4265565 C34.8700667,47.4258039 34.1389802,48.1617523 34.1374897,49.0722814 C34.1367445,49.9828106 34.8663404,50.7217689 35.7680882,50.7225214 L35.7718145,50.7225214 L47.3082246,50.7225214 C48.968633,50.7225214 50.5500453,50.0046332 51.6522644,48.7509625 L64.0911676,34.4308224 C65.9922905,32.3177928 69.2303849,32.1605195 71.3230361,34.0809083 C73.3702272,35.9591568 73.5699532,39.1392363 71.77391,41.2628009 L56.2429806,59.5192864 C53.9297366,62.1966936 50.5820909,63.7333056 47.0622934,63.7333056 L22.8194367,63.7333056 L18.6311534,68 Z" id="Fill-1" fill="#003055"></path>
            </g>
        </g>
    </g>
</svg>