<?xml version="1.0" encoding="UTF-8"?>
<svg width="70px" height="52px" viewBox="0 0 70 52" version="1.1" xmlns="http://www.w3.org/2000/svg" xmlns:xlink="http://www.w3.org/1999/xlink">
    <!-- Generator: Sketch 51.2 (57519) - http://www.bohemiancoding.com/sketch -->
    <title>Group 14</title>
    <desc>Created with Sketch.</desc>
    <defs>
        <polygon id="path-1" points="0 0 52 0 52 52 0 52"></polygon>
    </defs>
    <g id="final" stroke="none" stroke-width="1" fill="none" fill-rule="evenodd">
        <g id="Riff" transform="translate(-925.000000, -772.000000)">
            <g id="Group-14" transform="translate(925.000000, 772.000000)">
                <g id="Page-1" transform="translate(0.000000, 1.000000)" fill="#F2D03A">
                    <polygon id="Fill-1" points="0.281671159 48.8534058 54.574979 48.8534058 54.574979 0 0.281671159 0"></polygon>
                </g>
                <g id="Page-1" transform="translate(18.000000, 0.000000)">
                    <mask id="mask-2" fill="white">
                        <use xlink:href="#path-1"></use>
                    </mask>
                    <g id="Clip-2"></g>
                    <path d="M42.362,32.7233707 C39.65,32.7233707 37.202,33.8453491 35.45,35.6483145 L19.158,27.5014711 C19.235,27.0114805 19.275,26.5114902 19.275,25.9985 C19.275,25.4875099 19.234,24.9855195 19.158,24.4955289 L35.45,16.3496856 C37.201,18.1526509 39.65,19.2736294 42.362,19.2736294 C47.684,19.2736294 52,14.9587123 52,9.63681468 C52,4.31491702 47.684,0 42.362,0 C37.039,0 32.723,4.31491702 32.723,9.63881464 C32.723,10.1488048 32.764,10.6507952 32.841,11.1407858 L16.549,19.2866291 C14.798,17.4836638 12.349,16.3626853 9.637,16.3626853 C4.315,16.3616854 0,20.6766024 0,25.9995 C0,31.3233976 4.315,35.6373147 9.638,35.6373147 C12.35,35.6373147 14.798,34.5153362 16.55,32.7133709 L32.841,40.8602142 C32.764,41.3492048 32.724,41.8501952 32.724,42.3631853 C32.724,47.685083 37.04,52 42.363,52 C47.684,51.999 52,47.684083 52,42.3621853 C52,37.0382877 47.684,32.7233707 42.362,32.7233707" id="Fill-1" fill="#123154" mask="url(#mask-2)"></path>
                </g>
            </g>
        </g>
    </g>
</svg>