<?xml version="1.0" encoding="UTF-8"?>
<svg width="39px" height="44px" viewBox="0 0 39 44" version="1.1" xmlns="http://www.w3.org/2000/svg" xmlns:xlink="http://www.w3.org/1999/xlink">
    <!-- Generator: Sketch 49.3 (51167) - http://www.bohemiancoding.com/sketch -->
    <title>Group 10</title>
    <desc>Created with Sketch.</desc>
    <defs></defs>
    <g id="final" stroke="none" stroke-width="1" fill="none" fill-rule="evenodd">
        <g id="Homepage-NEW" transform="translate(-916.000000, -838.000000)">
            <g id="Group-14" transform="translate(103.000000, 712.000000)">
                <g id="Core-bundle">
                    <g id="Group-23" transform="translate(596.000000, 116.000000)">
                        <g id="Group-10" transform="translate(217.000000, 10.000000)">
                            <path d="M19.5438387,0 L0,10.9554449 L0,24.7375262 C0.146262162,33.7657606 6.36954612,41.2086656 14.6308259,43.3672405 C16.3127448,43.8067061 18.0791369,44.0271408 19.8959182,43.9973299 C30.3726816,43.820408 38.8239602,35.3391272 39,24.8259871 L39,10.9554449 L19.5438387,0 Z" id="Fill-1" fill="#00A1D9"></path>
                            <path d="M19.5,5.5 L4.64285714,13.8747147 L4.64285714,24.4264291 C4.64285714,32.7166201 11.2825205,39.4166667 19.5,39.4166667 C27.7174795,39.4166667 34.3571429,32.7166201 34.3571429,24.4264291 L34.3571429,13.8747147 L19.5,5.5 Z" id="Fill-3" fill="#04518C"></path>
                            <path d="M19.0052815,30.25 L10.8638873,22.5178315 C9.99775185,21.695895 9.99775185,20.3628997 10.8638873,19.5416261 C11.7293248,18.7190267 13.1314732,18.7190267 13.9976087,19.5416261 L19.0052815,24.2975891 L34.2886291,9.78311902 C35.1540666,8.96118255 36.5569129,8.96118255 37.4223504,9.78311902 C38.287788,10.6050555 38.287788,11.9380508 37.4223504,12.7593245 L19.0052815,30.25 Z" id="Fill-5" fill="#00A1D9"></path>
                        </g>
                    </g>
                </g>
            </g>
        </g>
    </g>
</svg>