<svg width="180" height="180" viewBox="0 0 180 180" fill="none" xmlns="http://www.w3.org/2000/svg">
<circle cx="90" cy="90" r="90" fill="#F5DE63"/>
<path fill-rule="evenodd" clip-rule="evenodd" d="M70.5478 75.8525C66.0859 75.8525 62.4688 79.4697 62.4688 83.9316V119.71C62.4688 124.172 66.0859 127.789 70.5478 127.789H70.9996V129.5L70.6536 132.614C70.5611 133.447 70.9975 134.249 71.747 134.624L72.4814 134.991C73.1126 135.307 73.8636 135.266 74.4573 134.884L80.2363 131.169C80.4108 131.057 80.5668 130.918 80.6986 130.758L83.1436 127.789H134.796C139.258 127.789 142.875 124.172 142.875 119.71V83.9316C142.875 79.4697 139.258 75.8525 134.796 75.8525H70.5478Z" fill="white"/>
<path fill-rule="evenodd" clip-rule="evenodd" d="M73.2408 123.942V133.86L82.784 123.942H135.565C138.327 123.942 140.566 121.703 140.566 118.941V73.1594C140.566 70.3973 138.327 68.1581 135.565 68.1581H56.6979C53.9357 68.1581 51.6965 70.3973 51.6965 73.1594V118.941C51.6965 121.703 53.9357 123.942 56.6979 123.942H73.2408ZM68.7939 146.804C68.3136 147.303 67.47 146.963 67.47 146.27V129.713H56.6979C50.7486 129.713 45.9258 124.89 45.9258 118.941V73.1594C45.9258 67.2102 50.7486 62.3873 56.6979 62.3873H135.565C141.514 62.3873 146.337 67.2102 146.337 73.1594V118.941C146.337 124.89 141.514 129.713 135.565 129.713H85.2396L68.7939 146.804Z" fill="black"/>
<path fill-rule="evenodd" clip-rule="evenodd" d="M44.7721 57.7708H123.639C126.272 57.7708 128.43 59.805 128.626 62.3874H134.405C134.202 56.6163 129.46 52 123.639 52H44.7721C38.8228 52 34 56.8228 34 62.7721V108.554C34 114.503 38.8228 119.326 44.7721 119.326H45.933C45.9285 119.198 45.9263 119.07 45.9263 118.941V113.555H44.7721C42.0099 113.555 39.7708 111.316 39.7708 108.554V62.7721C39.7708 60.0099 42.0099 57.7708 44.7721 57.7708Z" fill="black"/>
</svg>
