<svg width="69" height="60" viewBox="0 0 69 60" fill="none" xmlns="http://www.w3.org/2000/svg">
    <rect width="69" height="60" rx="4.5" fill="#dfecf2"/>
    <circle cx="34.5" cy="30" r="18.75" stroke="#04518C" stroke-width="4.5"/>
    <path fill-rule="evenodd" clip-rule="evenodd" d="M31.5 25.5C29.8431 25.5 28.5 24.1569 28.5 22.5C28.5 21.9687 28.6383 21.4689 28.8809 21.036C28.7563 21.0121 28.629 21 28.5 21C26.8431 21 25.5 23.0147 25.5 25.5C25.5 27.9853 26.8431 30 28.5 30C30.1569 30 31.5 27.9853 31.5 25.5Z" fill="#04518C"/>
    <path fill-rule="evenodd" clip-rule="evenodd" d="M43.5 25.5C41.8431 25.5 40.5 24.1569 40.5 22.5C40.5 21.9687 40.6383 21.4689 40.8809 21.036C40.7563 21.0121 40.629 21 40.5 21C38.8431 21 37.5 23.0147 37.5 25.5C37.5 27.9853 38.8431 30 40.5 30C42.1569 30 43.5 27.9853 43.5 25.5Z" fill="#04518C"/>
    <path fill-rule="evenodd" clip-rule="evenodd" d="M22.878 34.5C24.21 39.6756 28.9083 43.5 34.4999 43.5C40.0914 43.5 44.7897 39.6756 46.1216 34.5H22.878Z" fill="#04518C"/>
</svg>
