<svg width="60" height="60" viewBox="0 0 60 60" fill="none" xmlns="http://www.w3.org/2000/svg">
<circle cx="30" cy="30" r="30" fill="#F5DE63"/>
<path fill-rule="evenodd" clip-rule="evenodd" d="M18.9908 20.6722C19.7605 21.5038 19.6887 22.7824 18.8304 23.5281L12.3115 29.1924L18.7439 34.1983C19.6427 34.8978 19.7861 36.1707 19.0642 37.0416C18.3423 37.9124 17.0284 38.0513 16.1297 37.3519L7.78021 30.8541C7.30243 30.4822 7.01742 29.9258 7.00077 29.3322C6.98412 28.7387 7.23751 28.168 7.69375 27.7716L16.0432 20.5168C16.9014 19.7711 18.2211 19.8406 18.9908 20.6722Z" fill="white"/>
<path fill-rule="evenodd" clip-rule="evenodd" d="M39.5053 37.1254C38.7761 36.2938 38.8442 35.0152 39.6572 34.2694L45.833 28.6052L39.7391 23.5993C38.8877 22.8998 38.7518 21.6268 39.4357 20.756C40.1197 19.8852 41.3644 19.7462 42.2158 20.4457L50.1258 26.9435C50.5785 27.3153 50.8485 27.8718 50.8643 28.4654C50.88 29.0589 50.64 29.6295 50.2078 30.026L42.2978 37.2808C41.4847 38.0265 40.2344 37.9569 39.5053 37.1254Z" fill="white"/>
<path fill-rule="evenodd" clip-rule="evenodd" d="M35.7754 16.8981C36.7709 17.3941 37.1758 18.6032 36.6798 19.5987L26.503 40.0231C26.007 41.0186 24.7979 41.4235 23.8024 40.9275C22.8069 40.4314 22.402 39.2224 22.8981 38.2269L33.0748 17.8025C33.5708 16.807 34.7799 16.4021 35.7754 16.8981Z" fill="white"/>
<path fill-rule="evenodd" clip-rule="evenodd" d="M20.678 21.9455C21.4072 22.7771 21.3392 24.0557 20.5261 24.8015L14.3503 30.4657L20.4442 35.4716C21.2957 36.1711 21.4315 37.4441 20.7476 38.3149C20.0637 39.1858 18.819 39.3247 17.9675 38.6252L10.0575 32.1274C9.60485 31.7556 9.33484 31.1991 9.31907 30.6056C9.30329 30.012 9.54335 29.4414 9.97557 29.045L17.8856 21.7901C18.6986 21.0444 19.9489 21.114 20.678 21.9455Z" fill="black"/>
<path fill-rule="evenodd" clip-rule="evenodd" d="M40.1925 38.4236C39.4229 37.6229 39.4947 36.3916 40.3529 35.6735L46.8718 30.219L40.4394 25.3985C39.5406 24.725 39.3972 23.4991 40.1191 22.6605C40.8411 21.822 42.1549 21.6882 43.0537 22.3617L51.4031 28.6189C51.8809 28.9769 52.1659 29.5128 52.1826 30.0844C52.1992 30.6559 51.9458 31.2054 51.4896 31.5872L43.1402 38.5733C42.2819 39.2914 40.9622 39.2244 40.1925 38.4236Z" fill="black"/>
<path fill-rule="evenodd" clip-rule="evenodd" d="M36.9985 18.1487C37.994 18.6447 38.3989 19.8538 37.9029 20.8493L27.7262 41.2737C27.2301 42.2692 26.021 42.6741 25.0256 42.1781C24.0301 41.6821 23.6252 40.473 24.1212 39.4775L34.298 19.0531C34.794 18.0576 36.0031 17.6527 36.9985 18.1487Z" fill="black"/>
</svg>
