<?xml version="1.0" encoding="UTF-8"?>
<svg width="71px" height="62px" viewBox="0 0 71 62" version="1.1" xmlns="http://www.w3.org/2000/svg" xmlns:xlink="http://www.w3.org/1999/xlink">
    <!-- Generator: Sketch 50 (54983) - http://www.bohemiancoding.com/sketch -->
    <title>Group 2</title>
    <desc>Created with Sketch.</desc>
    <defs>
        <polygon id="path-1" points="53.6903093 0.248551313 53.6903093 53.9980371 0.271355359 53.9980371 0.271355359 0.248551313"></polygon>
        <polygon id="path-3" points="0.331044776 0.301492537 16.2926761 0.301492537 16.2926761 23.2947761 0.331044776 23.2947761"></polygon>
        <polygon id="path-5" points="0.23763059 0.203022388 14.3970522 0.203022388 14.3970522 24.6268657 0.23763059 24.6268657"></polygon>
        <polygon id="path-7" points="0 0.119932674 23.9651493 0.119932674 23.9651493 15.6203358 0 15.6203358"></polygon>
    </defs>
    <g id="final" stroke="none" stroke-width="1" fill="none" fill-rule="evenodd">
        <g id="Jukebox" transform="translate(-543.000000, -841.000000)">
            <g id="Group-2" transform="translate(543.000000, 841.000000)">
                <g id="Group-6" transform="translate(17.000000, 0.000000)">
                    <g id="Page-1">
                        <g id="Group-3">
                            <mask id="mask-2" fill="white">
                                <use xlink:href="#path-1"></use>
                            </mask>
                            <g id="Clip-2"></g>
                            <path d="M53.6904669,27.1232942 C53.6904669,12.2805502 41.7320155,0.248551313 26.9811739,0.248551313 C12.2298068,0.248551313 0.271355359,12.2805502 0.271355359,27.1232942 C0.271355359,41.9660383 12.2298068,53.9980371 26.9811739,53.9980371 C41.7320155,53.9980371 53.6904669,41.9660383 53.6904669,27.1232942" id="Fill-1" fill="#F2D03A" mask="url(#mask-2)"></path>
                        </g>
                    </g>
                </g>
                <g id="Page-1" transform="translate(0.000000, 11.813433)">
                    <path d="M36.606194,13.1221642 C36.6722388,18.6318657 33.1793284,23.4807463 28.3397761,25.2445522 C32.6856716,25.7553731 37.206194,23.466194 39.3599254,19.2818657 C41.0405224,16.0180597 41.3390299,12.3762687 40.1994776,9.02850746 C39.3774627,6.61320896 37.8677612,4.56731343 35.8550746,3.09380597 C35.8483582,3.08895522 35.8420149,3.08410448 35.8352985,3.08 C35.1983582,2.61470149 34.5125373,2.20649254 33.7800746,1.86283582 C32.3845522,1.20798507 30.9009701,0.762089552 29.3763433,0.525149254 C30.3203731,1.06358209 31.2091791,1.71544776 32.0229851,2.48 C34.9300746,5.21171642 36.5580597,8.99119403 36.606194,13.1221642" id="Fill-1" fill="#133055"></path>
                    <g id="Group-5" transform="translate(18.656716, 0.071642)">
                        <mask id="mask-4" fill="white">
                            <use xlink:href="#path-3"></use>
                        </mask>
                        <g id="Clip-4"></g>
                        <path d="M12.0862687,9.30223881 C14.2851493,14.1029851 13.2508209,19.6820896 9.89671642,23.2947761 C13.6858955,21.5541045 16.3459701,17.5660448 16.2918657,13.0701493 C16.2489552,9.39440299 14.806791,6.03731343 12.2310448,3.61679104 C9.78402985,1.31791045 6.58216418,0.146641791 3.21686567,0.317910448 C2.24522388,0.368283582 1.27992537,0.514179104 0.331044776,0.738432836 C1.42731343,0.844776119 2.51985075,1.07985075 3.58850746,1.45186567 C7.34970149,2.76231343 10.3679851,5.55037313 12.0862687,9.30223881" id="Fill-3" fill="#133055" mask="url(#mask-4)"></path>
                    </g>
                    <path d="M48.0197761,29.8716791 C45.6152985,33.040709 42.0462687,35.0496642 37.9686567,35.5287687 C37.4727612,35.5869776 36.9787313,35.6153358 36.4895522,35.6153358 C31.5977612,35.615709 27.1402985,32.774291 25.0884328,28.5571269 C25.0395522,32.946306 27.7813433,37.2138433 32.1514925,38.924291 C35.5522388,40.2560075 39.1839552,40.1761567 42.3783582,38.7000373 C44.6955224,37.6291418 46.5731343,35.9063806 47.8276119,33.7384701 C47.833209,33.7272761 47.8402985,33.7164552 47.8462687,33.7048881 C48.2376866,33.0235448 48.5705224,32.2996642 48.833209,31.5366045 C49.3354478,30.0776493 49.6227612,28.5533955 49.6985075,27.0097388 C49.2593284,28.0138433 48.7,28.9746642 48.0197761,29.8716791" id="Fill-6" fill="#133055"></path>
                    <path d="M8.16544776,25.5230597 C11.9344776,21.5144776 17.8031343,20.4592537 22.5061194,22.5596269 C19.7329851,19.1633582 14.8960448,17.6611194 10.4508955,19.1689552 C6.99156716,20.3420896 4.25985075,22.7465672 2.75910448,25.9376119 C1.66880597,28.2555224 1.33559701,30.7879851 1.76507463,33.26 C1.76619403,33.2644776 1.7669403,33.2693284 1.7680597,33.2741791 C1.90462687,34.054403 2.11544776,34.8286567 2.405,35.5887313 C2.95462687,37.0316418 3.71097015,38.3842537 4.64231343,39.6163433 C4.33597015,38.5678358 4.14828358,37.4764179 4.09343284,36.3555224 C3.89828358,32.3704478 5.34455224,28.523806 8.16544776,25.5230597" id="Fill-8" fill="#133055"></path>
                    <path d="M41.3261194,28.1426493 C39.119403,29.6743657 36.5675373,30.4131716 34.0488806,30.4131716 C31.413806,30.4131716 28.816791,29.603097 26.6869403,28.0519776 C28.6962687,31.9527239 33.1171642,34.4318284 37.7757463,33.8810821 C41.4007463,33.455709 44.5697761,31.6758582 46.6996269,28.8691418 C48.2473881,26.8288433 49.0992537,24.4191418 49.1910448,21.9090672 C49.1910448,21.9038433 49.1914179,21.8986194 49.1914179,21.8926493 C49.2190299,21.1019776 49.1738806,20.3019776 49.0481343,19.4989925 C48.8097015,17.9751119 48.35,16.4952612 47.694403,15.0967537 C47.7768657,16.1866791 47.7339552,17.2948881 47.5541045,18.4038433 C46.916791,22.339291 44.7052239,25.7978731 41.3261194,28.1426493" id="Fill-10" fill="#133055"></path>
                    <path d="M40.8338433,20.0417537 C38.5875746,24.4033209 34.0946642,26.9734701 29.5353358,26.9734701 C28.9752612,26.9734701 28.4144403,26.9301866 27.8569776,26.8510821 C31.4558582,29.3529478 36.5211567,29.4615299 40.3812313,26.7798134 C43.3875746,24.6939925 45.3532463,21.625709 45.9181716,18.1387687 C46.3267537,15.6133955 45.9517537,13.0913806 44.8618284,10.8365299 C44.8566045,10.8275746 44.8528731,10.8182463 44.8476493,10.8085448 C44.5028731,10.1003358 44.0894403,9.41787313 43.6047388,8.77048507 C42.6801119,7.53578358 41.5808582,6.44473881 40.346903,5.5186194 C40.9286194,6.43876866 41.408097,7.43429104 41.7685448,8.49324627 C43.0547388,12.273097 42.7226493,16.3738433 40.8338433,20.0417537" id="Fill-12" fill="#133055"></path>
                    <path d="M22.7052985,8.45470149 C27.0717164,11.795 28.7302985,17.5375373 27.1403731,22.4479851 C30.2146269,19.325597 31.1963433,14.3427612 29.2362687,10.0651493 C27.7075373,6.72783582 25.0310448,4.25059701 21.7000746,3.08977612 C18.531791,1.98604478 15.1302985,2.22149254 12.1243284,3.75283582 C10.7493284,4.45283582 9.48589552,5.35097015 8.36014925,6.41104478 C9.36985075,5.99537313 10.4355224,5.69276119 11.5433582,5.52149254 C15.4747015,4.91402985 19.4370149,5.95507463 22.7052985,8.45470149" id="Fill-14" fill="#133055"></path>
                    <path d="M3.95802239,14.0876119 C7.14048507,11.7047761 11.1240672,10.7626119 15.1751866,11.4271642 C20.5934701,12.3197015 24.7460821,16.6070149 25.6416045,21.6902239 C26.8927239,17.4857463 25.4289179,12.6260448 21.6983209,9.77268657 C18.7919776,7.54992537 15.2755597,6.62231343 11.7975746,7.16037313 C9.27630597,7.55104478 7.00093284,8.68985075 5.20093284,10.426791 C5.19757463,10.4305224 5.19421642,10.4327612 5.19085821,10.4368657 C4.62294776,10.9861194 4.10093284,11.5947015 3.63563433,12.2588806 C2.7505597,13.5234328 2.05503731,14.9111194 1.55727612,16.3756716 C2.25578358,15.5312687 3.05690299,14.7614925 3.95802239,14.0876119" id="Fill-16" fill="#133055"></path>
                    <g id="Group-20" transform="translate(11.194030, 25.444776)">
                        <mask id="mask-6" fill="white">
                            <use xlink:href="#path-5"></use>
                        </mask>
                        <g id="Clip-19"></g>
                        <path d="M4.70227612,13.7866045 C3.49593284,8.41048507 5.90787313,2.93847015 10.2772761,0.203022388 C5.91906716,0.608992537 1.97242537,3.7944403 0.731380597,8.33697761 C-0.236156716,11.8821269 0.228022388,15.5071269 2.03809701,18.5455597 C3.34220149,20.7336194 5.24145522,22.4172015 7.51309701,23.4388433 C7.52503731,23.4433209 7.53623134,23.4496642 7.54817164,23.4541418 C8.26421642,23.7739179 9.01608209,24.0280224 9.79929104,24.2108582 C11.3048881,24.5619776 12.8522761,24.6884701 14.3970522,24.5996642 C13.3582463,24.2690672 12.3485448,23.8198134 11.3899627,23.2395896 C7.98100746,21.1735448 5.60600746,17.8168284 4.70227612,13.7866045" id="Fill-18" fill="#133055" mask="url(#mask-6)"></path>
                    </g>
                    <path d="M10.3266418,33.3446642 C11.7785075,28.0286194 16.4684328,24.3353358 21.6061194,23.9760075 C17.5684328,22.2827239 12.5930597,23.2338433 9.37291045,26.6592164 C6.86320896,29.3293657 5.57664179,32.7439179 5.74902985,36.2745149 C5.87365672,38.8278731 6.76432836,41.2159328 8.29679104,43.1916791 C8.30014925,43.1954104 8.30276119,43.1998881 8.3061194,43.2036194 C8.7919403,43.8282463 9.34044776,44.4129478 9.95164179,44.9476493 C11.1128358,45.9629478 12.4154478,46.8017537 13.8150746,47.4513806 C13.0557463,46.6715299 12.3803731,45.7991418 11.8087313,44.8398134 C9.76544776,41.4099627 9.23932836,37.3282463 10.3266418,33.3446642" id="Fill-21" fill="#133055"></path>
                    <g id="Group-25" transform="translate(0.000000, 12.758209)">
                        <mask id="mask-8" fill="white">
                            <use xlink:href="#path-7"></use>
                        </mask>
                        <g id="Clip-24"></g>
                        <path d="M9.9188806,4.84011194 C15.1207463,3.07593284 20.795,4.90615672 23.9651493,8.97406716 C23.103209,4.67070896 19.5356716,1.06772388 14.906194,0.306156716 C11.3039552,-0.287126866 7.7688806,0.547947761 4.95134328,2.65727612 C2.90283582,4.19048507 1.42261194,6.27033582 0.645746269,8.65727612 C0.645373134,8.65802239 0.645373134,8.65876866 0.645373134,8.65876866 C0.398731343,9.41473881 0.221865672,10.201306 0.121119403,11.0121269 C-0.0684328358,12.5438433 -0.0337313433,14.0938433 0.212164179,15.6203358 C0.433432836,14.5475746 0.780074627,13.4919776 1.2591791,12.4740672 C2.95358209,8.87070896 6.02858209,6.15951493 9.9188806,4.84011194" id="Fill-23" fill="#133055" mask="url(#mask-8)"></path>
                    </g>
                    <path d="M33.8829104,47.0034328 C29.9112687,46.7810448 26.2478358,44.9355224 23.5683582,41.8075373 C19.9881343,37.6299254 19.5564179,31.665 22.1314179,27.1926119 C18.4765672,29.6052985 16.4832836,34.2747015 17.5135075,38.8687313 C18.3176119,42.4541791 20.423209,45.4362687 23.4426119,47.265 C25.6183582,48.5832836 28.0832836,49.176194 30.5683582,49.006791 C30.578806,49.0052985 30.5896269,49.0060448 30.6004478,49.0041791 C31.3832836,48.9500746 32.1676119,48.8202239 32.9448507,48.6123881 C34.4336567,48.2146269 35.8549254,47.6004478 37.1743284,46.7989552 C36.3575373,46.9485821 35.5228358,47.026194 34.6769403,47.026194 C34.4131343,47.026194 34.1485821,47.0183582 33.8829104,47.0034328" id="Fill-26" fill="#133055"></path>
                    <path d="M37.0623881,41.528097 C35.2168657,41.528097 33.3526866,41.1762313 31.548209,40.4687687 C26.4332836,38.4672761 23.2608955,33.4072015 23.4388806,28.2471269 C21.3433582,32.0993657 21.7683582,37.1583209 24.8265672,40.7273507 C27.2101493,43.5105597 30.4586567,45.1508582 33.9754478,45.3478731 C36.523209,45.4885448 38.9806716,44.8504851 41.098209,43.5288433 C41.1034328,43.5254851 41.1090299,43.5225 41.1142537,43.5191418 C41.7825373,43.0997388 42.4179851,42.6146642 43.0101493,42.0624254 C44.1377612,41.0094403 45.1056716,39.7975 45.895597,38.4683955 C45.0373881,39.1486194 44.0941045,39.7344403 43.0735821,40.2064552 C41.1679851,41.086306 39.1273134,41.528097 37.0623881,41.528097" id="Fill-28" fill="#133055"></path>
                </g>
            </g>
        </g>
    </g>
</svg>