<?xml version="1.0" encoding="UTF-8"?>
<svg width="11px" height="10px" viewBox="0 0 11 10" version="1.1" xmlns="http://www.w3.org/2000/svg" xmlns:xlink="http://www.w3.org/1999/xlink">
    <!-- Generator: Sketch 54.1 (76490) - https://sketchapp.com -->
    <title>Fill 1</title>
    <desc>Created with Sketch.</desc>
    <g id="Symbols" stroke="none" stroke-width="1" fill="none" fill-rule="evenodd">
        <g id="Products-dropdown" transform="translate(-381.000000, -84.000000)" fill="#00A1D9">
            <g id="DROPDOWN">
                <g id="core-tag" transform="translate(381.000000, 69.000000)">
                    <g id="Page-1" transform="translate(0.000000, 15.000000)">
                        <path d="M10.2018755,3.69128965 C10.1416932,3.50393647 9.97963373,3.3676439 9.78413962,3.33936418 L6.87768894,2.91791772 L5.57767277,0.28790331 C5.49034944,0.111547804 5.31058926,0 5.11352176,0 C4.91645425,0 4.73669408,0.111547804 4.64937075,0.28790331 L3.34974793,2.91752495 L0.443297246,3.33897141 C0.248196483,3.36725113 0.0865303265,3.50354369 0.0251679898,3.69089687 C-0.0354076503,3.87825005 0.0153342819,4.08367083 0.156152978,4.22114171 L2.25977975,6.2678868 L1.76298083,9.15791757 C1.72954623,9.35194791 1.80978928,9.54794211 1.968702,9.66381043 C2.05877876,9.72940368 2.16576951,9.76239669 2.27315359,9.76239669 C2.35536339,9.76239669 2.43835989,9.742758 2.51466946,9.7034806 L5.11352176,8.33819833 L7.71276741,9.7034806 C7.78829028,9.74315077 7.87128678,9.76239669 7.95349657,9.76239669 C8.06127401,9.76239669 8.1678714,9.72940368 8.25834152,9.66381043 C8.41764758,9.54794211 8.49710394,9.35194791 8.46327599,9.15831035 L7.96687042,6.26827958 L10.0704972,4.22192726 C10.2121026,4.0840636 10.2628445,3.87864282 10.2018755,3.69128965" id="Fill-1"></path>
                    </g>
                </g>
            </g>
        </g>
    </g>
</svg>