<?xml version="1.0" encoding="UTF-8"?>
<svg width="33px" height="29px" viewBox="0 0 33 29" version="1.1" xmlns="http://www.w3.org/2000/svg" xmlns:xlink="http://www.w3.org/1999/xlink">
    <!-- Generator: Sketch 49.3 (51167) - http://www.bohemiancoding.com/sketch -->
    <title>Page 1 Copy 2</title>
    <desc>Created with Sketch.</desc>
    <defs>
        <polygon id="path-1" points="16.5 29 33 29 33 0 1.10773093e-15 0 0 29"></polygon>
    </defs>
    <g id="final" stroke="none" stroke-width="1" fill="none" fill-rule="evenodd">
        <g id="Song" transform="translate(-163.000000, -1536.000000)">
            <g id="Page-1-Copy-2" transform="translate(163.000000, 1536.000000)">
                <mask id="mask-2" fill="white">
                    <use xlink:href="#path-1"></use>
                </mask>
                <g id="Clip-2"></g>
                <path d="M25.8711078,9.33251233 L23.2075338,8.85235948 L23.742776,5.90507457 L26.1459039,4.2441725 L25.610876,7.19145741 L28.2744499,7.67161026 L25.8711078,9.33251233 Z M32.9686884,6.65880785 C32.8504597,6.11143359 32.41674,5.69338051 31.8637208,5.59372212 L28.7381551,5.03034277 L29.3569284,1.62296472 C29.4567375,1.07302966 29.2164247,0.522240982 28.7447948,0.219851385 C28.2731648,-0.0827516127 27.670241,-0.0720815493 27.2093202,0.246313143 L21.6602792,4.08092053 C19.3616723,2.46397912 16.626133,1.59074113 13.7548021,1.59074113 C6.1703845,1.59074113 0,7.73883166 0,15.2953706 C0,22.8521229 6.1703845,29 13.7548021,29 C21.3390054,29 27.5093899,22.8521229 27.5093899,15.2953706 C27.5093899,14.7746715 27.4772625,14.259094 27.4200758,13.749065 L24.8143312,15.4505133 C24.7305858,21.4571188 19.8031025,26.3186131 13.7548021,26.3186131 C7.65424106,26.3186131 2.69120349,21.3736789 2.69120349,15.2953706 C2.69120349,9.21727565 7.65424106,4.27212806 13.7548021,4.27212806 C16.3746828,4.27212806 18.8544881,5.17524223 20.839746,6.83038247 L20.4115951,9.18867988 L19.1342105,10.0612777 C19.1134348,10.0401509 19.09373,10.0181706 19.0727401,9.99725728 C17.6520674,8.58198007 15.76362,7.80242524 13.7548021,7.80242524 C9.60779992,7.80242524 6.23421089,11.1637086 6.23421089,15.2953706 C6.23421089,19.4270325 9.60779992,22.7885293 13.7548021,22.7885293 C17.90159,22.7885293 21.275179,19.4270325 21.275179,15.2953706 C21.275179,15.1816277 21.2719663,15.0683116 21.2668259,14.9554223 L18.3121779,16.8847832 C17.6518532,18.7590865 15.858717,20.1071424 13.7548021,20.1071424 C11.0916565,20.1071424 8.92541438,17.9485885 8.92541438,15.2953706 C8.92541438,12.642366 11.0916565,10.4838122 13.7548021,10.4838122 C14.9051764,10.4838122 15.9934379,10.8828725 16.8623764,11.6133451 L14.618386,13.1464198 C14.3513004,13.0397192 14.0602263,12.9793266 13.7548021,12.9793266 C12.4707778,12.9793266 11.4300649,14.0164568 11.4300649,15.295584 C11.4300649,16.5747112 12.4707778,17.6116279 13.7548021,17.6116279 C15.0019869,17.6116279 16.0167838,16.6321161 16.0737563,15.4033516 L21.994404,11.358544 L26.4888102,12.1688286 L32.4017473,8.08262111 C32.8643815,7.76508002 33.0869172,7.2061821 32.9686884,6.65880785 Z" id="Fill-1" fill="#9E005D" mask="url(#mask-2)"></path>
            </g>
        </g>
    </g>
</svg>