<?xml version="1.0" encoding="UTF-8"?>
<svg width="77px" height="68px" viewBox="0 0 77 68" version="1.1" xmlns="http://www.w3.org/2000/svg" xmlns:xlink="http://www.w3.org/1999/xlink">
    <!-- Generator: Sketch 49.3 (51167) - http://www.bohemiancoding.com/sketch -->
    <title>Group 17</title>
    <desc>Created with Sketch.</desc>
    <defs>
        <polygon id="path-1" points="61.0332022 0.282875776 61.0332022 61.4550634 0.30846696 61.4550634 0.30846696 0.282875776"></polygon>
        <polygon id="path-3" points="33.0856356 0.147456522 0 0.147456522 0 66.8068323 33.0856356 66.8068323 66.1712712 66.8068323 66.1712712 0.147456522"></polygon>
    </defs>
    <g id="final" stroke="none" stroke-width="1" fill="none" fill-rule="evenodd">
        <g id="Ego" transform="translate(-924.000000, -804.000000)">
            <g id="Group-17" transform="translate(924.000000, 804.000000)">
                <g id="Page-1">
                    <g id="Group-3" transform="translate(15.533878, 1.056270)">
                        <mask id="mask-2" fill="white">
                            <use xlink:href="#path-1"></use>
                        </mask>
                        <g id="Clip-2"></g>
                        <path d="M61.0333815,30.8689696 C61.0333815,13.9764708 47.4394463,0.282875776 30.6712229,0.282875776 C13.9024022,0.282875776 0.30846696,13.9764708 0.30846696,30.8689696 C0.30846696,47.7614683 13.9024022,61.4550634 30.6712229,61.4550634 C47.4394463,61.4550634 61.0333815,47.7614683 61.0333815,30.8689696" id="Fill-1" fill="#F2D03A" mask="url(#mask-2)"></path>
                    </g>
                    <g id="Group-6" transform="translate(0.000000, 0.454407)">
                        <mask id="mask-4" fill="white">
                            <use xlink:href="#path-3"></use>
                        </mask>
                        <g id="Clip-5"></g>
                        <path d="M33.0859045,66.8068323 C14.8425602,66.8068323 -5.97456828e-05,51.8553429 -5.97456828e-05,33.4774453 C-5.97456828e-05,15.0995478 14.8425602,0.147456522 33.0859045,0.147456522 C35.7254687,0.147456522 37.8655591,2.30333106 37.8655591,4.96236335 C37.8655591,7.62139565 35.7254687,9.77727019 33.0859045,9.77727019 C20.1133244,9.77727019 9.5592495,20.4091863 9.5592495,33.4774453 C9.5592495,46.5457043 20.1133244,57.1770186 33.0859045,57.1770186 C46.0584846,57.1770186 56.611962,46.5457043 56.611962,33.4774453 C56.611962,29.1145379 55.4272051,24.8527435 53.1855471,21.1530894 C51.809604,18.8828609 52.5211751,15.9198876 54.7747822,14.5343981 C57.0289868,13.147705 59.9702668,13.8663298 61.3444175,16.1359565 C64.5019768,21.3474913 66.1712712,27.3444578 66.1712712,33.4774453 C66.1712712,51.8553429 51.3292487,66.8068323 33.0859045,66.8068323" id="Fill-4" fill="#003055" mask="url(#mask-4)"></path>
                    </g>
                </g>
                <g id="noun_160304" transform="translate(15.000000, 15.000000)" fill="#003055" fill-rule="nonzero">
                    <path d="M41.50376,35.4971989 C38.2393662,30.6792717 33.4434418,27.2380952 28.0018491,25.6377218 C32.0739134,23.2399627 34.8120337,18.8188609 34.8120337,13.7712418 C34.8120337,6.17787115 28.6161469,0 21.0001646,0 C13.3841823,0 7.18829552,6.17787115 7.18829552,13.7712418 C7.18829552,18.8188609 9.92641581,23.2399627 13.9984801,25.6377218 C8.55735567,27.2380952 3.76143123,30.6792717 0.496569259,35.4971989 C-0.398657484,36.818394 -0.0503056556,38.6125117 1.2747423,39.5046685 C2.59932203,40.3972923 4.39913982,40.0499533 5.29436656,38.7287582 C8.82751562,33.5144725 14.6989295,30.4014939 21.0001646,30.4014939 C27.3013997,30.4014939 33.1728136,33.5144725 36.7059627,38.729225 C37.2654794,39.5550887 38.1780301,40 39.1074365,40 C39.6650803,40 40.228811,39.8398693 40.7255869,39.5051354 C42.0501667,38.6125117 42.3985185,36.818394 41.50376,35.4971989 Z M21.0001646,5.77310924 C25.42339,5.77310924 29.0220892,9.36134454 29.0220892,13.7717087 C29.0220892,18.1820728 25.42339,21.7698413 21.0001646,21.7698413 C16.5769392,21.7698413 12.97824,18.181606 12.97824,13.7712418 C12.97824,9.36087768 16.5769392,5.77310924 21.0001646,5.77310924 Z" id="Shape"></path>
                </g>
            </g>
        </g>
    </g>
</svg>