<?xml version="1.0" encoding="UTF-8"?>
<svg width="55px" height="56px" viewBox="0 0 55 56" version="1.1" xmlns="http://www.w3.org/2000/svg" xmlns:xlink="http://www.w3.org/1999/xlink">
    <!-- Generator: Sketch 54.1 (76490) - https://sketchapp.com -->
    <title>Group 7</title>
    <desc>Created with Sketch.</desc>
    <defs>
        <polygon id="path-1" points="0 0.274217143 46.7274 0.274217143 46.7274 47.3142171 0 47.3142171"></polygon>
        <polygon id="path-3" points="0.139534884 0 30 0 30 29.7906279 0.139534884 29.7906279"></polygon>
    </defs>
    <g id="final" stroke="none" stroke-width="1" fill="none" fill-rule="evenodd">
        <g id="Maestro" transform="translate(-920.000000, -784.000000)">
            <g id="Group-7" transform="translate(920.000000, 784.000000)">
                <g id="Group-3" transform="translate(0.000000, 8.000000)">
                    <mask id="mask-2" fill="white">
                        <use xlink:href="#path-1"></use>
                    </mask>
                    <g id="Clip-2"></g>
                    <path d="M25.4071101,0.41136 C24.7259507,0.342788571 24.0447913,0.274217143 23.3636319,0.274217143 C10.4897188,0.274217143 -0.000136231884,10.8342171 -0.000136231884,23.7942171 C-0.000136231884,36.7542171 10.4897188,47.3142171 23.3636319,47.3142171 C36.2375449,47.3142171 46.7274,36.7542171 46.7274,23.7942171 C46.7274,23.1085029 46.6592841,22.4227886 46.5918493,21.7370743 C44.343342,23.0399314 41.6868203,23.7942171 38.8940667,23.7942171 C30.311458,23.7942171 23.3636319,16.7999314 23.3636319,8.15993143 C23.3636319,5.34850286 24.1129072,2.74278857 25.4071101,0.41136 Z" id="Fill-1" fill="#F2D03A" mask="url(#mask-2)"></path>
                </g>
                <g id="Group-6" transform="translate(25.000000, 0.000000)">
                    <mask id="mask-4" fill="white">
                        <use xlink:href="#path-3"></use>
                    </mask>
                    <g id="Clip-5"></g>
                    <path d="M14.0232558,-6.97674419e-05 C8.09302326,-6.97674419e-05 2.93023256,3.279 0.139534884,8.09295349 C11.7209302,9.06969767 20.9302326,18.279 21.9069767,29.7906279 C26.7209302,27.0696977 30,21.906907 30,15.9766744 C30,7.1162093 22.8837209,-6.97674419e-05 14.0232558,-6.97674419e-05 Z" id="Fill-4" fill="#133055" mask="url(#mask-4)"></path>
                </g>
            </g>
        </g>
    </g>
</svg>