<svg width="69" height="60" viewBox="0 0 69 60" fill="none" xmlns="http://www.w3.org/2000/svg">
    <rect width="69" height="60" rx="4.5" fill="#dfecf2"/>
    <circle cx="34.5" cy="30" r="18.75" stroke="#04518C" stroke-width="4.5"/>
    <path fill-rule="evenodd" clip-rule="evenodd" d="M43.5 39.6769C42.4684 35.8372 38.8301 33 34.5 33C30.1699 33 26.5316 35.8372 25.5 39.6769L43.5 39.6769Z" fill="#04518C"/>
    <path fill-rule="evenodd" clip-rule="evenodd" d="M25.5 25.5C26.6569 25.5 28.5 24.1569 28.5 22.5C28.5 21.9531 28.3664 21.4534 28.1192 21.0359C28.2389 21.0123 28.371 21 28.5 21C29.6569 21 30.5 23.0147 30.5 25.5C30.5 27.9853 29.6569 30 28.5 30C27.3431 30 26.5 27.9853 26.5 25.5Z" fill="#04518C"/>
    <path fill-rule="evenodd" clip-rule="evenodd" d="M37.5 25.5C38.6569 25.5 40.5 24.1569 40.5 22.5C40.5 21.9531 40.3664 21.4534 40.1192 21.0359C40.2389 21.0123 40.371 21 40.5 21C41.6569 21 42.5 23.0147 42.5 25.5C42.5 27.9853 41.6569 30 40.5 30C39.3431 30 38.5 27.9853 38.5 25.5Z" fill="#04518C"/>
</svg>
