<svg width="46" height="40" viewBox="0 0 46 40" fill="none" xmlns="http://www.w3.org/2000/svg">
<rect width="46" height="40" rx="3" fill="white"/>
<circle cx="23" cy="20" r="12.5" stroke="#04518C" stroke-width="3"/>
<path fill-rule="evenodd" clip-rule="evenodd" d="M29 26.4513C28.3123 23.8915 25.8867 22 23 22C20.1133 22 17.6877 23.8915 17 26.4513L29 26.4513Z" fill="#04518C"/>
<path fill-rule="evenodd" clip-rule="evenodd" d="M17 17C18.1046 17 19 16.1046 19 15C19 14.6455 18.9078 14.3126 18.7461 14.0239C18.8293 14.0082 18.914 14 19 14C20.1046 14 21 15.3431 21 17C21 18.6569 20.1046 20 19 20C17.8954 20 17 18.6569 17 17Z" fill="#04518C"/>
<path fill-rule="evenodd" clip-rule="evenodd" d="M25 17C26.1046 17 27 16.1046 27 15C27 14.6456 26.9078 14.3126 26.7461 14.024C26.8292 14.0081 26.914 14 27 14C28.1046 14 29 15.3431 29 17C29 18.6569 28.1046 20 27 20C25.8954 20 25 18.6569 25 17Z" fill="#04518C"/>
</svg>
