<?xml version="1.0" encoding="UTF-8"?>
<svg width="138px" height="101px" viewBox="0 0 138 101" version="1.1" xmlns="http://www.w3.org/2000/svg" xmlns:xlink="http://www.w3.org/1999/xlink">
    <!-- Generator: Sketch 49.3 (51167) - http://www.bohemiancoding.com/sketch -->
    <title>4117 rp FA OICR Logo_CMYK_ENG</title>
    <desc>Created with Sketch.</desc>
    <defs>
        <radialGradient cx="61.839477%" cy="57.7584457%" fx="61.839477%" fy="57.7584457%" r="62.3418679%" gradientTransform="translate(0.618395,0.577584),scale(1.000000,0.959596),translate(-0.618395,-0.577584)" id="radialGradient-1">
            <stop stop-color="#FFFFFF" offset="0%"></stop>
            <stop stop-color="#FAFCF6" offset="9%"></stop>
            <stop stop-color="#ECF5DE" offset="24%"></stop>
            <stop stop-color="#D4EAB7" offset="42%"></stop>
            <stop stop-color="#B4DA81" offset="63%"></stop>
            <stop stop-color="#8DC63F" offset="86%"></stop>
            <stop stop-color="#8DC63F" offset="100%"></stop>
        </radialGradient>
    </defs>
    <g id="Symbols" stroke="none" stroke-width="1" fill="none" fill-rule="evenodd">
        <g id="footer" transform="translate(-94.000000, -56.000000)" fill-rule="nonzero">
            <g id="4117-rp-FA-OICR-Logo_CMYK_ENG" transform="translate(94.000000, 56.000000)">
                <path d="M44,58.5815916 L44,58.5 C44,50.6089228 50.0207712,44 58.5403498,44 C67.0599284,44 73,50.5302452 73,58.4213223 L73,58.5 C73,66.3910772 66.9763467,73 58.4596502,73 C49.9429537,73 44,66.4697548 44,58.5815916 Z M67.8871,58.5815916 L67.8871,58.5 C67.8871,53.053758 63.9674021,48.528336 58.4596502,48.528336 C52.9518982,48.528336 49.1100179,52.9721664 49.1100179,58.4213223 L49.1100179,58.5 C49.1100179,63.946242 53.0325979,68.474578 58.5403498,68.474578 C64.0481018,68.474578 67.8755715,64.0278336 67.8755715,58.5815916 L67.8871,58.5815916 Z" id="Shape" fill="#231F20"></path>
                <polygon id="Shape" fill="#231F20" points="77 45 82 45 82 73 77 73"></polygon>
                <path d="M86,58.5786618 L86,58.4970866 C86,50.5289331 91.8230078,44 100.10424,44 C105.14289,44 108.189383,45.8033956 110.806752,48.3701025 L107.720473,52.0118545 C105.532227,49.9316858 103.187678,48.5303396 100.064454,48.5303396 C94.8297147,48.5303396 91.0414914,52.9324895 91.0414914,58.4213382 L91.0414914,58.5 C91.0414914,63.9859353 94.8297147,68.4725738 100.064454,68.4725738 C103.423553,68.4725738 105.572013,67.0683142 107.916562,64.8279084 L111,68.0326502 C108.158122,71.0771549 105.032056,73 99.9166761,73 C91.9395248,72.9941732 86,66.6254772 86,58.5786618 Z" id="Shape" fill="#231F20"></path>
                <path d="M115,45 L127.071481,45 C130.477846,45 133.146634,46.0417793 134.889229,47.799418 C136.322154,49.3213469 137.141371,51.3990854 137.141371,53.8405737 L137.141371,53.9104136 C137.141371,58.5111203 134.472583,61.2697984 130.680539,62.3901476 L138,72.99127 L132.37246,72.99127 L125.717381,63.231137 L119.760465,63.231137 L119.760465,73 L115,73 L115,45 Z M126.713953,58.8806901 C130.117503,58.8806901 132.28519,57.0415714 132.28519,54.2014134 L132.28519,54.1199335 C132.28519,51.1197256 130.196328,49.4813968 126.674541,49.4813968 L119.760465,49.4813968 L119.760465,58.8806901 L126.713953,58.8806901 Z" id="Shape" fill="#231F20"></path>
                <path d="M33.059136,55.6131805 L22.4004145,54.2091691 C22.6022418,52.6176592 22.9078419,51.0411988 23.3152406,49.4899714 L33.6975193,52.286533 C33.4131413,53.3803108 33.1998958,54.4915436 33.059136,55.6131805 Z M17.4700434,82.9856734 L7.83729516,88.5759312 C9.12240158,90.8080934 10.5503708,92.9539676 12.1121834,95 L20.9469525,88.1919771 C19.6764393,86.5345289 18.5149958,84.7953899 17.4700434,82.9856734 Z M24.9938468,25.1060172 L17.2220999,17.2922636 C19.0361616,15.4701432 20.9668331,13.7692817 23.0017488,12.2005731 L29.6876741,20.9541547 C28.0340567,22.2339783 26.4660555,23.6218901 24.9938468,25.1088825 L24.9938468,25.1060172 Z M77.210182,14.6561605 L81.4138221,4.54727796 C79.0483216,3.55221282 76.6195665,2.71655483 74.1436622,2.0458453 L71.2937366,12.6275072 C73.3084291,13.1711285 75.2849377,13.8488413 77.210182,14.6561605 Z M11.0919101,59.0458453 L0,59.0544413 L0,59.0773639 C3.73787204e-05,61.6401983 0.163770027,64.2003853 0.490187188,66.7421204 L11.4937496,65.3094556 C11.2218502,63.2327247 11.0838158,61.1404886 11.0805104,59.0458453 L11.0919101,59.0458453 Z M58.8338623,10.9713467 L58.9364596,10.9713467 L58.9364596,0 L58.7711639,2.40429573e-08 C56.2076226,-7.32689322e-05 53.6467885,0.167424214 51.1048643,0.501432689 L52.5155774,11.3896848 C54.6102849,11.1112468 56.7209269,10.9714997 58.8338623,10.9713467 Z M53.9348403,22.3724929 L52.5098776,11.3896848 C50.4429254,11.6658001 48.3961209,12.0773736 46.3825377,12.6217765 L49.2324632,23.3180516 C50.77736,22.898491 52.3482798,22.5826089 53.9348403,22.3724929 Z M36.3935488,29.7335244 L29.6876741,20.9541547 C28.0340567,22.2339783 26.4660555,23.6218901 24.9938468,25.1088825 L32.7741434,32.9484241 C33.9095536,31.7985431 35.1186065,30.7246142 36.3935488,29.7335244 Z M81.2684759,29.7335244 L88,20.9713467 C86.3473542,19.6875614 84.6127803,18.5140807 82.8074357,17.4584527 L77.2643306,27.0286533 C78.6565133,27.8390465 79.9941209,28.7407098 81.2684759,29.7277937 L81.2684759,29.7335244 Z M23.3152406,49.504298 L12.6821685,46.6389685 C12.1470176,48.6589554 11.7443125,50.7120788 11.47665,52.7851003 L22.4004145,54.2177651 C22.6018724,52.6233635 22.9074747,51.0440197 23.3152406,49.4899714 L23.3152406,49.504298 Z M34.7690913,49.0859599 L24.8399508,44.9398281 C24.2327296,46.421176 23.7233865,47.9411921 23.3152406,49.4899714 L33.6975193,52.286533 C33.9859806,51.1976472 34.3439125,50.1285757 34.7690913,49.0859599 Z M48.8021245,34.8595989 L44.686832,24.8767908 C43.2098719,25.4986951 41.7751668,26.2175321 40.3919943,27.0286533 L45.7755036,36.3868195 C46.7506926,35.8128947 47.761662,35.3027636 48.8021245,34.8595989 Z M34.8203899,69.0114613 L24.8855496,73.1432665 C25.4997216,74.6207562 26.2089542,76.0564596 27.0087441,77.4412607 L36.3166008,72.0401146 C35.7535303,71.0640026 35.2537531,70.0523458 34.8203899,69.0114613 Z M12.6821685,46.6246418 L1.99494786,43.747851 C1.33231215,46.2376289 0.832506446,48.7683508 0.498736965,51.3237822 L11.4709502,52.7707736 C11.7404866,50.6976229 12.145096,48.6444978 12.6821685,46.6246418 Z M27.0087441,77.4469914 L17.4700434,82.9856734 C18.5113174,84.7950667 19.668948,86.5341981 20.9355528,88.1919771 L29.6734244,81.4555874 C28.6997146,80.1788723 27.8096098,78.8398486 27.0087441,77.4469914 Z M55.325604,33.0859599 L53.9348403,22.3724929 C52.3463617,22.5823587 50.7735297,22.8982424 49.2267634,23.3180516 L51.9997409,33.7621777 C53.0920389,33.4621006 54.2031647,33.2361854 55.325604,33.0859599 Z" id="Shape" fill="#38793B"></path>
                <path d="M20.5715453,29.8956938 L11.7679015,23.137799 C10.1918159,25.1834141 8.75118681,27.3296066 7.45520852,29.5626794 L17.0811392,35.1263158 C18.1286077,33.308318 19.2945884,31.5610129 20.5715453,29.8956938 Z M12.3285515,71.5770335 L1.50081714,74.4478469 C0.835178484,71.952149 0.333834692,69.4156278 0,66.8545455 L11.1008716,65.4191388 C11.3743629,67.4964396 11.7844758,69.5535164 12.3285515,71.5770335 Z M24.7749834,93.0822967 L16.8281278,101 C15.0014654,99.1708823 13.2957943,97.2251546 11.7218994,95.1751196 L20.6347981,88.354067 C21.911702,90.0173134 23.2946297,91.5966629 24.7749834,93.0822967 Z M83.0452152,17.4794258 L88.5740875,8.00574163 C90.8080359,9.30567307 92.9545747,10.7498948 95,12.3291866 L88.2836995,20.9990431 C86.6164387,19.7128007 84.8665252,18.5370741 83.0452152,17.4794258 Z M40.3323043,14.6717703 L36.1058653,4.48325359 C38.4968628,3.49430905 40.9508958,2.66473857 43.4518189,2 L46.2981962,12.6449761 C44.2675584,13.1903743 42.2746998,13.8674088 40.3323043,14.6717703 Z M58.966013,22.0727273 L58.966013,10.9856459 C61.0688996,10.9908675 63.1692486,11.1318314 65.2539193,11.4076555 L63.7847285,22.4057416 C62.188304,22.1913151 60.5796749,22.0800787 58.9688881,22.0727273 L58.966013,22.0727273 Z M26.6955693,40.6870813 L17.078264,35.1263158 C18.1266602,33.3082366 19.2936026,31.5609297 20.5715453,29.8956938 L29.3751892,36.6535885 C28.3955471,37.9387976 27.50046,39.2861258 26.6955693,40.6870813 Z M23.0614067,68.723445 L12.3285515,71.5770335 C11.7848459,69.5563419 11.3747354,67.502154 11.1008716,65.4277512 L22.1212396,63.9923445 C22.3301118,65.5883026 22.6441825,67.1687666 23.0614067,68.723445 Z M23.0269052,49.5779904 L12.2998003,46.707177 C12.8384188,44.6840874 13.5107562,42.6988739 14.3123903,40.7645933 L24.5708492,45.0191388 C23.9563054,46.5031813 23.4405363,48.026109 23.0269052,49.5779904 Z M44.5903698,24.9177033 L40.3323043,14.6717703 C42.2736241,13.865577 44.2655212,13.186625 46.2953211,12.6392344 L49.1704497,23.3559809 C47.6103049,23.7761421 46.0793799,24.2978317 44.5874947,24.9177033 L44.5903698,24.9177033 Z M36.2237455,29.7980861 L29.4556928,20.9875598 C31.1215373,19.701614 32.8705389,18.5268137 34.691302,17.4708134 L40.2546759,27.0736842 C38.8516688,27.8871858 37.504122,28.7925136 36.2208704,29.7837321 L36.2237455,29.7980861 Z M36.2869984,88.4574163 L29.5074451,97.2421053 C27.8420463,95.9647744 26.2621421,94.5799978 24.7778585,93.0966507 L32.6327099,85.2535885 C33.7789717,86.3950262 34.9987081,87.4604539 36.2841232,88.4430622 L36.2869984,88.4574163 Z M65.7024393,33.8028708 L68.5315659,23.3502392 C70.0898393,23.7692224 71.6188661,24.2899607 73.1087707,24.9090909 L68.9254585,34.9023923 C67.8760354,34.4667482 66.7994394,34.0994713 65.7024393,33.8028708 Z M33.5412505,65.9358852 L23.0614067,68.723445 C22.6449238,67.1744175 22.3308578,65.5997316 22.1212396,64.0095694 L32.8742207,62.6172249 C33.0238643,63.7367826 33.2466832,64.8453688 33.5412505,65.9358852 Z M38.0322014,75.0162679 L29.4298166,81.6191388 C28.4473912,80.3390545 27.549413,78.9965062 26.7415713,77.6 L36.1317414,72.1885167 C36.7033259,73.1711405 37.3381454,74.1157073 38.0322014,75.0162679 Z M55.3088493,33.1425837 L53.9057866,22.4086124 C55.5437752,22.1852724 57.1949441,22.0720987 58.8481327,22.0698565 L58.9573876,22.0698565 L58.9573876,32.8985646 L58.8423824,32.8985646 C57.6642082,32.9006302 56.4875191,32.9821555 55.3203499,33.1425837 L55.3088493,33.1425837 Z M48.7276799,34.9196172 L44.5874947,24.9177033 C46.0784436,24.2979499 47.6084045,23.7762615 49.1675746,23.3559809 L51.9650748,33.8200957 C50.8671,34.1165778 49.7895401,34.4838559 48.7391804,34.9196172 L48.7276799,34.9196172 Z M37.9603232,43.2449761 L29.3636886,36.6421053 C30.3520439,35.3614449 31.4229007,34.1464321 32.5694571,33.0047847 L40.2374251,40.661244 C39.4266288,41.4753 38.6698247,42.3412497 37.9718237,43.2535885 L37.9603232,43.2449761 Z M32.8627202,62.6028708 L22.1212396,64.0095694 C21.903767,62.3994591 21.792356,60.7768335 21.7877247,59.1521531 L32.6327099,59.1521531 C32.6350229,60.3093808 32.7157106,61.4651277 32.8742207,62.6114833 L32.8627202,62.6028708 Z" id="Shape" fill="url(#radialGradient-1)"></path>
                <path d="M46.0191901,36.4361144 L40.6431127,27.0714036 C39.2572501,27.8842424 37.9262206,28.7884669 36.658725,29.7781663 L43.2045048,38.3514931 C44.1006304,37.652376 45.0408336,37.0125726 46.0191901,36.4361144 Z M33.09839,85.1807819 L25.320296,93 C23.8520131,91.5164353 22.4802434,89.9389944 21.2135307,88.2775019 L29.9393397,81.5364012 C30.9122109,82.819414 31.9674887,84.036816 33.09839,85.1807819 Z M59.0595219,22.0736416 L59.1676695,22.0736416 L59.1676695,11 L59.0652139,11.0000001 C56.953296,10.9999018 54.8436581,11.1397472 52.7499593,11.4186307 L54.172955,22.4091196 C55.7925256,22.1872655 57.4250507,22.0751876 59.0595219,22.0736416 Z M27.2214181,40.6682985 L17.7015775,35.1142738 C16.6662071,36.9262005 15.7497339,38.8045005 14.958042,40.7371145 L25.1125386,44.9865026 C25.7208661,43.5021196 26.4253434,42.0596111 27.2214181,40.6682985 Z M77.4645471,27.065669 L83,17.4887755 C81.1994168,16.4340813 79.3322509,15.4992443 77.4104732,14.6902581 L73.1642544,24.9094343 C74.6432365,25.5320184 76.0797935,26.2523307 77.4645471,27.065669 Z M23.6240852,68.6706763 L13,71.5208057 C13.5350548,73.5389948 14.2005395,75.51977 14.9921939,77.4504511 L25.1523825,73.218267 C24.5450552,71.7376062 24.0345324,70.2184982 23.6240852,68.6706763 Z M38.3833957,43.2316946 L29.8738819,36.6368278 C28.9046844,37.9158551 28.0186775,39.2567472 27.2214181,40.6510945 L36.5107335,46.0703546 C37.072025,45.0834933 37.6976167,44.1351952 38.3833957,43.2316946 Z M33.095544,59.0479055 C33.098347,57.9202059 33.1734478,56.7938664 33.3203773,55.6759214 L22.6763701,54.2709281 C22.470205,55.8548513 22.3646885,57.4504266 22.3604651,59.0479055 C22.3604651,59.0651095 22.3604651,59.0851808 22.3604651,59.1052521 L33.095544,59.1052521 C33.09839,59.0880481 33.095544,59.0651095 33.095544,59.0479055 Z M65.824443,33.7924331 L68.6248984,23.3524722 C67.0798878,22.9346881 65.5093172,22.6195594 63.9233209,22.4091196 L62.5003253,33.1272117 C63.6243854,33.2757088 64.7376341,33.497921 65.832981,33.7924331 L65.824443,33.7924331 Z" id="Shape" fill="#231F20"></path>
                <path d="M49.520976,84 C47.4473459,84 46,82.6263736 46,80.5192308 C46,78.6483516 47.1836473,77 49.5089897,77 C51.8882705,77 53,78.75 53,80.4725275 C53,82.4835165 51.6934932,84 49.520976,84 Z M49.520976,77.5796703 C48.0226884,77.5796703 47.0517979,78.8351648 47.0517979,80.4917582 C47.0517979,82.3818681 48.1845034,83.4203297 49.5329623,83.4203297 C51.0851884,83.4203297 51.9721747,82.1483516 51.9721747,80.4642857 C51.9601884,79.0054945 51.1750856,77.5714286 49.5089897,77.5714286 L49.520976,77.5796703 Z" id="Shape" fill="#231F20"></path>
                <path d="M57.9944675,84 L57.1452282,84 L57.1452282,81.2760161 C57.1663344,80.9349975 57.1440255,80.5926771 57.0788382,80.2572904 C56.9451844,79.8573817 56.5587527,79.5980554 56.1383126,79.6261234 C55.5948476,79.6420293 55.1016889,79.9484976 54.846473,80.4289235 L54.846473,84 L54,84 L54,79.2025771 L54.846473,79.2025771 L54.846473,79.8725 C55.2072976,79.3194958 55.8270016,78.9911156 56.4868603,79.0032612 C56.8880861,78.9773929 57.2839937,79.106157 57.593361,79.3631372 C57.988935,79.7313179 58,80.1936201 58,80.6254712 L57.9944675,84 Z" id="Shape" fill="#231F20"></path>
                <path d="M60.5672069,83.1079988 C60.5672069,83.7900941 60.5672069,84.4629302 61.2678742,84.4629302 C61.4767869,84.456998 61.6811135,84.3955091 61.8627264,84.2839188 L62,84.5370039 C61.7122952,84.8366163 61.327351,85.002791 60.92755,84.9999645 C60.6407795,85.0017539 60.359669,84.9138494 60.1182078,84.7468794 C59.7206864,84.438239 59.6806482,84.0123152 59.6806482,83.3703432 L59.6806482,80.0370267 L59,80.0370267 L59,79.4197459 L59.6806482,79.4197459 L59.6806482,78 L60.5672069,78 L60.5672069,79.4197459 L61.6253575,79.4197459 L61.6253575,80.0370267 L60.5672069,80.0370267 L60.5672069,83.1079988 Z" id="Shape" fill="#231F20"></path>
                <path d="M66,83.8065216 L65.1729841,83.8065216 L65.1729841,83.2730183 C64.8423117,83.7476183 64.2808906,84.0222748 63.6898691,83.9985827 C62.5706409,83.9985827 62,83.3103636 62,82.5554565 C62,81.8005494 62.6175052,80.9202691 64.1116471,80.9202691 C64.4691008,80.9266374 64.824857,80.9695562 65.1729841,81.0483098 C65.204852,80.7132617 65.128778,80.376881 64.9552033,80.0853365 C64.7380025,79.7759804 64.3641776,79.6053345 63.9793246,79.6398613 C63.3704402,79.6306832 62.8065845,79.9492127 62.5155065,80.4667913 C62.4493453,80.4481187 62.3363198,80.4107735 62.2701585,80.3840983 C62.5237767,79.4664727 63.1716058,79.0023249 64.1778084,79.0023249 C64.7350434,78.9746116 65.2746087,79.1958429 65.6416265,79.6025161 C65.9972433,80.0399887 65.9972433,80.5201416 65.9972433,81.0376398 L66,83.8065216 Z M65.1729841,81.5738105 C64.8599199,81.4928449 64.5376716,81.4498351 64.2136458,81.4457697 C63.2294969,81.4457697 62.9014473,82.0459609 62.9014473,82.4887686 C62.9047536,82.7532636 63.0197373,83.0049364 63.2196824,83.1853116 C63.4196274,83.3656869 63.6871266,83.4590612 63.9600276,83.4437394 C64.4275549,83.4202587 64.8652424,83.2142717 65.1729841,82.8728909 L65.1729841,81.5738105 Z" id="Shape" fill="#231F20"></path>
                <path d="M69.0021345,84 L68,84 L68,79.1157709 L69.0021345,79.1157709 L69.0021345,79.7865421 C69.1878335,79.5554361 69.6232657,79.0002179 70.4204909,79.0002179 C70.6214616,78.9966769 70.8203803,79.0363409 71,79.1157709 L71,79.9020952 C70.735857,79.78205 70.4453133,79.7137841 70.1483458,79.7019911 C69.681225,79.720786 69.2536763,79.938401 69.0021345,80.285393 L69.0021345,84 Z" id="Shape" fill="#231F20"></path>
                <path d="M71.5093066,77.0001373 C71.6393726,76.9993648 71.764326,77.0528789 71.856298,77.1487442 C71.9482701,77.2446094 71.9996109,77.3748521 71.9988697,77.5104239 C72.0082998,77.6557205 71.9583937,77.7984065 71.8614616,77.9032854 C71.7645295,78.0081644 71.6295961,78.065472 71.4899453,78.061072 C71.3581653,78.0611071 71.2319366,78.0057648 71.1398009,77.9075587 C71.0476652,77.8093526 70.9974041,77.6765769 71.0003822,77.5392536 C70.9950022,77.3961361 71.0466102,77.2570646 71.1429854,77.154972 C71.2393606,77.0528793 71.3719322,76.9968447 71.5093066,77.0001373 Z M71.9214247,84 L71.0667637,84 L71.0667637,78.983624 L71.9214247,78.983624 L71.9214247,84 Z" id="Shape" fill="#231F20"></path>
                <path d="M77.43575,83.1991467 C76.9554373,83.7311195 76.2207435,84.0276196 75.4563562,83.9979698 C74.8657359,84.0099025 74.2897013,83.8333561 73.8317031,83.5000368 C73.0596203,82.9009195 73,82.0035748 73,81.5775359 C73,79.7988231 74.1685578,79 75.5487676,79 C77.0601421,79 77.9961808,80.0171681 77.9961808,81.431085 C78.0304284,82.0592807 77.833603,82.6802308 77.43575,83.1991467 Z M75.5070334,79.4979331 C74.3802098,79.4979331 73.9837349,80.485811 73.9837349,81.4577124 C73.9698953,81.8525903 74.0386407,82.2463095 74.1864439,82.6186686 C74.3668853,83.1317112 74.8960906,83.4830163 75.4980904,83.4893858 C76.2880593,83.4893858 77.0094649,82.9568371 77.0094649,81.4736889 C77.0094649,80.4352188 76.5533696,79.5005958 75.5070334,79.5005958 L75.5070334,79.4979331 Z" id="Shape" fill="#231F20"></path>
                <polygon id="Shape" fill="#231F20" points="83 85 82 85 82 78 83 78"></polygon>
                <path d="M87.9944675,84 L87.1452282,84 L87.1452282,81.2760161 C87.1663344,80.9349975 87.1440255,80.5926771 87.0788382,80.2572904 C86.9451844,79.8573817 86.5587527,79.5980554 86.1383126,79.6261234 C85.5948476,79.6420293 85.1016889,79.9484976 84.846473,80.4289235 L84.846473,84 L84,84 L84,79.2025771 L84.846473,79.2025771 L84.846473,79.8725 C85.2072976,79.3194958 85.8270016,78.9911156 86.4868603,79.0032612 C86.8880861,78.9773929 87.2839937,79.106157 87.593361,79.3631372 C87.988935,79.7313179 88,80.1936201 88,80.6254712 L87.9944675,84 Z" id="Shape" fill="#231F20"></path>
                <path d="M92.6359798,80.3531323 C92.3644755,79.8534503 91.8042411,79.5477642 91.2033636,79.5714402 C90.5586864,79.5714402 90.1403625,79.8729119 90.1403625,80.2810992 C90.1403625,80.6892866 90.4727294,80.8440242 90.9798755,80.9987619 C91.0085278,80.9987619 91.4268518,81.1268207 91.4956173,81.142828 C91.9941677,81.2815584 92.9998643,81.5536832 92.9998643,82.5327993 C93.0060023,82.9484876 92.8036498,83.3430752 92.4526049,83.5999557 C92.0377055,83.8806689 91.5322344,84.0209247 91.0199888,83.9974714 C90.5346385,84.0144053 90.0560558,83.887352 89.653273,83.6346382 C89.2950324,83.377126 89.060297,82.9984663 89,82.5808213 C89.0773613,82.5541424 89.1948358,82.5274635 89.2636014,82.4981167 C89.5947364,83.0928506 90.2636948,83.4572379 90.9827407,83.4345464 C91.6560703,83.4345464 92.0944509,83.1250711 92.0944509,82.6635259 C92.0900451,82.3634771 91.8939075,82.0947819 91.5959005,81.9805458 C91.2760534,81.8526124 90.946638,81.7465062 90.6102605,81.6630668 C90.1145754,81.5190007 89.2550057,81.2628831 89.2550057,80.3744754 C89.2550057,79.600787 89.936931,79.0005115 91.060102,79.0005115 C91.4944439,78.9914919 91.922,79.1019229 92.2892867,79.3179906 C92.6390786,79.5403329 92.861486,79.8985678 92.8938507,80.2917708 L92.6359798,80.3531323 Z" id="Shape" fill="#231F20"></path>
                <path d="M94.5700667,83.1079812 C94.5700667,83.7900742 94.5700667,84.4629079 95.270734,84.4629079 C95.4796468,84.4569757 95.6839733,84.3954871 95.8655863,84.2838971 C95.9027645,84.3579706 95.9628217,84.4629079 96,84.5369814 C95.7138542,84.8372576 95.3295137,85.0036147 94.9304099,84.9999404 C94.6435709,85.0022632 94.3623225,84.9143158 94.1210677,84.7468561 C93.7235462,84.4382168 93.6835081,84.0122945 93.6835081,83.3703246 L93.6835081,80.0370197 L93,80.0370197 L93,79.419741 L93.6835081,79.419741 L93.6835081,78 L94.5700667,78 L94.5700667,79.419741 L95.5996187,79.419741 L95.5996187,80.0370197 L94.5700667,80.0370197 L94.5700667,83.1079812 Z" id="Shape" fill="#231F20"></path>
                <path d="M97.5093066,77.0001373 C97.6393726,76.9993648 97.764326,77.0528789 97.856298,77.1487442 C97.9482701,77.2446094 97.9996109,77.3748521 97.9988697,77.5104239 C98.0082998,77.6557205 97.9583937,77.7984065 97.8614616,77.9032854 C97.7645295,78.0081644 97.6295961,78.065472 97.4899453,78.061072 C97.3581653,78.0611071 97.2319366,78.0057648 97.1398009,77.9075587 C97.0476652,77.8093526 96.9974041,77.6765769 97.0003822,77.5392536 C96.9950022,77.3961361 97.0466102,77.2570646 97.1429854,77.154972 C97.2393606,77.0528793 97.3719322,76.9968447 97.5093066,77.0001373 Z M97.9241906,84 L97.0667637,84 L97.0667637,78.983624 L97.9241906,78.983624 L97.9241906,84 Z" id="Shape" fill="#231F20"></path>
                <path d="M99.5672069,83.1079988 C99.5672069,83.7900941 99.5672069,84.4629302 100.267874,84.4629302 C100.476787,84.456998 100.681113,84.3955091 100.862726,84.2839188 L101,84.5370039 C100.712295,84.8366163 100.327351,85.002791 99.92755,84.9999645 C99.6407795,85.0017539 99.359669,84.9138494 99.1182078,84.7468794 C98.7206864,84.438239 98.6806482,84.0123152 98.6806482,83.3703432 L98.6806482,80.0370267 L98,80.0370267 L98,79.4197459 L98.6692088,79.4197459 L98.6692088,78 L99.5557674,78 L99.5557674,79.4197459 L100.599619,79.4197459 L100.599619,80.0370267 L99.5557674,80.0370267 L99.5672069,83.1079988 Z" id="Shape" fill="#231F20"></path>
                <path d="M106,79 L106,83.7989409 L105.141274,83.7989409 L105.141274,83.1952657 C104.826886,83.7174619 104.251727,84.0256689 103.642659,83.9983199 C103.148057,84.0164102 102.669625,83.8206619 102.32964,83.4611043 C102.052632,83.1121912 102,82.6968183 102,82.1596028 L102,79 L102.858726,79 L102.858726,81.7913055 C102.826249,82.1557333 102.871571,82.5229009 102.99169,82.8685058 C103.164695,83.2059012 103.518614,83.4114734 103.897507,83.3946447 C104.388164,83.3828878 104.846428,83.1472009 105.141274,82.7549705 L105.141274,79 L106,79 Z" id="Shape" fill="#231F20"></path>
                <path d="M107.567207,83.107992 C107.567207,83.7900864 107.567207,84.4629216 108.270734,84.4629216 C108.478744,84.4569928 108.682145,84.3954868 108.862726,84.2839104 L109,84.5369952 C108.713173,84.8361394 108.329281,85.0023028 107.93041,84.9999552 C107.643571,85.0022779 107.362322,84.9143304 107.121068,84.7468704 C106.720686,84.4382304 106.683508,84.0123072 106.683508,83.370336 L106.683508,80.037024 L106,80.037024 L106,79.419744 L106.683508,79.419744 L106.683508,78 L107.567207,78 L107.567207,79.419744 L108.611058,79.419744 L108.611058,80.037024 L107.567207,80.037024 L107.567207,83.107992 Z" id="Shape" fill="#231F20"></path>
                <path d="M109.983196,81.5041834 C109.986003,81.9578238 110.142034,82.4003341 110.431197,82.7747325 C110.769656,83.1602556 111.293126,83.3822579 111.844353,83.3740481 C112.59208,83.3659669 113.27882,83.007024 113.648383,82.4311249 C113.720544,82.4577612 113.834799,82.5030428 113.903953,82.5216882 C113.801725,82.8466504 113.404839,84 111.609829,84 C110.229747,84 109,83.1742763 109,81.5228288 C109,79.9246538 110.202686,79.000376 111.600809,79.000376 C112.200261,78.9903662 112.782019,79.1805412 113.230449,79.533101 C114.039256,80.19368 114.006182,81.1845484 113.997162,81.5095107 L109.983196,81.5041834 Z M113.104167,81.0060856 C113.032006,79.8447451 112.111951,79.5730553 111.600809,79.5730553 C110.978419,79.5730553 110.148565,79.9432992 110.004243,81.0060856 L113.104167,81.0060856 Z" id="Shape" fill="#231F20"></path>
                <path d="M48.5900858,95 L47.7035272,95 L47.7035272,90.6618813 L47,90.6618813 L47,90.0970222 L47.7035272,90.0970222 L47.7035272,89.4926228 C47.7035272,89.0492083 47.7035272,88.597321 48.1496663,88.2697026 C48.4065604,88.0914869 48.7137253,87.9976181 49.0276454,88.0013945 C49.4012541,87.9833986 49.7615911,88.1403935 50,88.4250389 C49.9628217,88.4815248 49.8856053,88.569078 49.8455672,88.6255639 C49.6782896,88.5470247 49.4959612,88.5046575 49.3107722,88.5012949 C49.0645866,88.4868488 48.8296113,88.6044941 48.6959009,88.8091432 C48.5900858,88.9814252 48.5900858,89.2045446 48.5900858,89.6253647 L48.5900858,90.0970222 L49.6081983,90.0970222 L49.6081983,90.6618813 L48.5872259,90.6618813 L48.5900858,95 Z" id="Shape" fill="#231F20"></path>
                <path d="M53.4382997,93.19872 C52.9577109,93.7309763 52.2225948,94.0276343 51.4577681,93.9979688 C50.8668083,94.0099078 50.2904426,93.8332673 49.8321812,93.4997704 C49.0596546,92.9003338 49,92.0025111 49,91.5762451 C49,89.7992487 50.1662468,89 51.54725,89 C53.0624759,89 53.9960699,90.0150459 53.9960699,91.4323803 C54.0307731,92.0597349 53.8349003,92.6800226 53.4382997,93.19872 Z M51.5084745,89.4981984 C50.3810032,89.4981984 49.9843003,90.4866026 49.9843003,91.4563578 C49.9701719,91.8514615 50.0389649,92.2454367 50.1871259,92.6179326 C50.3665273,93.1308334 50.8949875,93.4824283 51.4965436,93.4891137 C52.2899493,93.4891137 53.0117695,92.9562812 53.0117695,91.4750069 C53.0117695,90.4306552 52.5554121,89.4981984 51.5084745,89.4981984 Z" id="Shape" fill="#231F20"></path>
                <path d="M56.0053362,95 L55,95 L55,90.1155366 L56.0053362,90.1155366 L56.0053362,90.78877 C56.1910352,90.5577862 56.6264674,90.0000447 57.4236926,90.0000447 C57.6234028,89.99848 57.820761,90.0380305 58,90.1155366 L58,90.904262 C57.736336,90.7827947 57.4456501,90.71357 57.1483458,90.7014469 C56.6812941,90.7203414 56.2543399,90.9391995 56.0053362,91.2873571 L56.0053362,95 Z" id="Shape" fill="#231F20"></path>
                <path d="M66.1994261,94.4476132 C65.6701594,94.8330685 65.0158155,95.0275518 64.3515065,94.9968496 C62.0760402,94.9968496 61,93.3052014 61,91.5284216 C61,89.6665102 62.1621234,88.0023239 64.420373,88.0023239 C65.0790358,87.9756948 65.7254287,88.1786512 66.2395983,88.5735298 C66.6147412,88.8722279 66.86442,89.2906406 66.9426112,89.7516419 C66.8737446,89.7791037 66.7560976,89.8340273 66.687231,89.8642353 C66.25555,89.1013479 65.4156927,88.632211 64.5093257,88.6476767 C62.8192253,88.6476767 61.9956958,89.8807124 61.9956958,91.5009598 C61.9956958,93.31344 63.143472,94.3514968 64.517934,94.3514968 C65.4279154,94.3449029 66.26852,93.8848935 66.7360115,93.1376843 L67,93.2392931 C66.8746278,93.7134743 66.59411,94.1368646 66.1994261,94.4476132 Z" id="Shape" fill="#231F20"></path>
                <path d="M72,93.8172039 L71.1729841,93.8172039 L71.1729841,93.2703617 C70.8433279,93.7463793 70.2815418,94.0222255 69.6898691,93.9985955 C68.5706409,93.9985955 68,93.307707 68,92.552798 C68,91.797889 68.6175052,90.9176064 70.1116471,90.9176064 C70.4689893,90.9254639 70.8245872,90.9683637 71.1729841,91.0456475 C71.2044886,90.7106204 71.1284383,90.374344 70.9552033,90.0826717 C70.7380025,89.7733149 70.3641776,89.6026685 69.9793246,89.6371954 C69.3704402,89.6280173 68.8065845,89.9465476 68.5155065,90.4641275 C68.4320842,90.4413488 68.3501535,90.4137346 68.2701585,90.3814343 C68.5237767,89.4664739 69.1716058,89.0023249 70.1778084,89.0023249 C70.7350434,88.9746115 71.2746087,89.1958434 71.6416265,89.6025176 C72,90.0373238 72,90.5201455 72,91.037645 L72,93.8172039 Z M71.1729841,91.5818196 C70.8599199,91.5008538 70.5376716,91.4578439 70.2136458,91.4537785 C69.2294969,91.4537785 68.9014473,92.0539712 68.9014473,92.4994475 C68.9047536,92.7639433 69.0197373,93.0156167 69.2196824,93.1959924 C69.4196274,93.3763681 69.6871266,93.4697426 69.9600276,93.4544208 C70.4279738,93.4302575 70.8657263,93.2232768 71.1729841,92.8809033 L71.1729841,91.5818196 Z" id="Shape" fill="#231F20"></path>
                <path d="M76.9972318,94 L76.150173,94 L76.150173,91.2704131 C76.1714142,90.9293859 76.1490889,90.587042 76.083737,90.2516626 C75.9481059,89.8519337 75.5609907,89.5930835 75.1397924,89.6204802 C74.5970229,89.6350898 74.1041458,89.9407778 73.849827,90.4205315 L73.849827,93.9944633 L73,93.9944633 L73,89.199692 L73.849827,89.199692 L73.849827,89.8696311 C74.2099262,89.3173039 74.829401,88.9897564 75.4885813,89.0031395 C75.8895421,88.9779046 76.2851767,89.105505 76.5958478,89.3602559 C76.9916955,89.7284456 77,90.190759 77,90.625389 L76.9972318,94 Z" id="Shape" fill="#231F20"></path>
                <path d="M81.4219653,93.5449116 C81.0577838,93.8596183 80.5929942,94.021215 80.1194605,93.9977626 C78.8503532,93.9977626 78,93.0361201 78,91.56835 C78,90.10058 78.8323699,89.0004184 80.206808,89.0004184 C80.6174106,88.9918312 81.0204585,89.1156244 81.3603083,89.3547077 C81.7156857,89.6202503 81.9476586,90.0278984 82,90.4788438 C81.9306358,90.5054821 81.8253051,90.5427757 81.7559409,90.5614225 C81.625927,90.2826283 81.4339892,90.0397881 81.1958895,89.8528438 C80.9437898,89.6794495 80.648056,89.5868075 80.3455363,89.5864609 C79.5491329,89.5864609 78.8400771,90.2470906 78.8400771,91.4831075 C78.8400771,92.7617457 79.5594091,93.3957371 80.3121387,93.3957371 C80.6216686,93.3975062 80.9241244,93.2997923 81.1779062,93.116035 C81.4265168,92.9391246 81.6258667,92.6975094 81.7559409,92.4154478 C81.8357123,92.447767 81.9171978,92.4753381 82,92.4980266 C81.9137826,92.8995406 81.7122491,93.2645401 81.4219653,93.5449116 Z" id="Shape" fill="#231F20"></path>
                <path d="M83.9802173,91.5054944 C83.9844598,91.9595833 84.1415014,92.4022183 84.4312375,92.7767328 C84.770628,93.1611303 85.2938165,93.3821404 85.8444343,93.3737085 C86.5921822,93.3656229 87.2789423,93.0064853 87.6485152,92.4302737 C87.7206785,92.4569244 87.8319301,92.5022306 87.9040934,92.5208861 C87.8018621,92.8486897 87.4019575,94 85.6099038,94 C84.2297818,94 83,93.1764933 83,91.5241499 C83,89.9251078 84.2027206,89.0003285 85.6008834,89.0003285 C86.1993215,88.9909855 86.7798884,89.1812198 87.227563,89.5333425 C88.0363926,90.196945 88.0063246,91.185686 87.9973042,91.5134896 L83.9802173,91.5054944 Z M87.0952637,91.0071263 C87.0231005,89.8451557 86.1000124,89.5706535 85.591863,89.5706535 C84.9664482,89.5706535 84.136571,89.9437633 83.9952513,91.0071263 L87.0952637,91.0071263 Z" id="Shape" fill="#231F20"></path>
                <path d="M90.0053362,95 L89,95 L89,90.1155639 L90.0053362,90.1155639 L90.0053362,90.7887936 C90.1878335,90.557811 90.6264674,90.0000726 91.4204909,90.0000726 C91.6212805,89.9980667 91.8197927,90.0376285 92,90.1155639 L92,90.9042849 C91.7361479,90.7832414 91.44557,90.7140428 91.1483458,90.7014709 C90.6809738,90.7194077 90.2535509,90.9385048 90.0053362,91.2873779 L90.0053362,95 Z" id="Shape" fill="#231F20"></path>
                <path d="M100,95 L98.9961068,95 L97.205228,91.7779626 C96.9238768,91.8245589 96.6390349,91.8440446 96.3542825,91.8361746 C96.1540601,91.8361746 96.051168,91.8361746 95.9093437,91.818711 L95.9093437,95 L95,95 L95,88 L96.7992214,88 C97.7641824,88 98.2480534,88.0902287 98.6735261,88.3987526 C99.0956894,88.7200712 99.3400068,89.2380311 99.32703,89.7841996 C99.3293452,90.1857748 99.2106287,90.577891 98.9877642,90.9047817 C98.7585968,91.2189916 98.4447852,91.4541793 98.0867631,91.5800416 L100,95 Z M95.9093437,91.4607069 C97.4527253,91.4810811 98.3898776,90.8465696 98.3898776,89.8453222 C98.3913402,89.5576076 98.2924626,89.2792181 98.1117909,89.0623701 C97.8086763,88.6956341 97.394327,88.6054054 96.8353726,88.6054054 L95.9065628,88.6054054 L95.9093437,91.4607069 Z" id="Shape" fill="#231F20"></path>
                <path d="M100.983196,91.5054654 C100.986003,91.9593572 101.142034,92.4021127 101.431197,92.7767186 C101.770577,93.1611205 102.293751,93.3821333 102.844353,93.3737013 C103.59208,93.3656155 104.27882,93.0064737 104.648383,92.4302555 C104.720544,92.4569065 104.834799,92.5022132 104.903953,92.5208689 C104.801725,92.8486763 104.404839,94 102.609829,94 C101.229747,94 100,93.1764838 100,91.5241211 C100,89.9250605 101.202686,89.0002704 102.600809,89.0002704 C103.199963,88.9918153 103.781103,89.1818938 104.230449,89.5332906 C105.039256,90.1969008 105.006182,91.1856533 104.997162,91.5134607 L100.983196,91.5054654 Z M104.095147,91.0070915 C104.022986,89.8451075 103.102931,89.570602 102.591789,89.570602 C101.966392,89.570602 101.139545,89.9437162 100.995223,91.0070915 L104.095147,91.0070915 Z" id="Shape" fill="#231F20"></path>
                <path d="M108.638388,90.350884 C108.366704,89.851266 107.806099,89.5456191 107.204823,89.569292 C106.559719,89.569292 106.141118,89.8680576 106.141118,90.2761927 C106.141118,90.6843277 106.470838,90.8417131 106.981187,90.996431 L107.49727,91.1404787 C107.996151,91.2765237 108.999647,91.5486138 108.999647,92.530272 C109.009629,92.94608 108.807611,93.3417742 108.454892,93.5972918 C108.040614,93.8798977 107.534394,94.0211924 107.021327,93.9974242 C106.535655,94.0143559 106.056755,93.8873189 105.653706,93.6346375 C105.295228,93.3771581 105.060337,92.9985469 105,92.5809554 C105.077413,92.5516124 105.194965,92.5249369 105.263776,92.4982614 C105.59513,93.0929192 106.264532,93.4572598 106.984054,93.4345712 C107.65783,93.4345712 108.096501,93.1251355 108.096501,92.6609819 C108.090955,92.361947 107.894879,92.0945966 107.59762,91.9807568 C107.277371,91.8532959 106.947774,91.7472148 106.611327,91.6633184 C106.112447,91.5166032 105.255175,91.263186 105.255175,90.3722244 C105.255175,89.6013026 105.937552,89.001104 107.061467,89.001104 C107.492864,88.987881 107.918824,89.0936873 108.285731,89.3052046 C108.63532,89.5266753 108.857875,89.8838831 108.890696,90.2761927 L108.638388,90.350884 Z" id="Shape" fill="#231F20"></path>
                <path d="M110.980217,91.5054944 C110.98446,91.9595833 111.141501,92.4022183 111.431238,92.7767328 C111.770628,93.1611303 112.293816,93.3821404 112.844434,93.3737085 C113.592182,93.3656229 114.278942,93.0064853 114.648515,92.4302737 C114.720678,92.4569244 114.83193,92.5022306 114.904093,92.5208861 C114.801862,92.8486897 114.401958,94 112.609904,94 C111.226775,94 110,93.1764933 110,91.5241499 C110,89.9251078 111.202721,89.0003285 112.600883,89.0003285 C113.199321,88.9909855 113.779888,89.1812198 114.227563,89.5333425 C115.036393,90.196945 115.006325,91.185686 114.997304,91.5134896 L110.980217,91.5054944 Z M114.095264,91.0071263 C114.023101,89.8451557 113.100012,89.5706535 112.591863,89.5706535 C111.966448,89.5706535 111.136571,89.9437633 110.995251,91.0071263 L114.095264,91.0071263 Z" id="Shape" fill="#231F20"></path>
                <path d="M119,93.8169867 L118.172984,93.8169867 L118.172984,93.2698597 C117.844069,93.7469339 117.281779,94.0231713 116.689869,93.9984727 C115.573398,93.9984727 115,93.3072244 115,92.5519223 C115,91.7966201 115.620262,90.918548 117.111647,90.918548 C117.468989,90.9264095 117.824587,90.9693317 118.172984,91.0466557 C118.207729,90.7115969 118.132488,90.3744607 117.95796,90.0831784 C117.739967,89.774559 117.366722,89.6040887 116.982081,89.6374701 C116.373185,89.6308698 115.809787,89.9487088 115.515507,90.4648329 C115.433129,90.4416057 115.352141,90.4139848 115.272915,90.3820966 C115.526533,89.4666597 116.174363,89.002269 117.177808,89.002269 C117.735772,88.974911 118.276016,89.1961201 118.644383,89.6027742 C119,90.0378069 119,90.52088 119,91.038649 L119,93.8169867 Z M118.172984,91.5804382 C117.860869,91.4993776 117.539526,91.4563425 117.216402,91.4523304 C116.229497,91.4523304 115.901447,92.0528357 115.901447,92.498544 C115.9055,92.7634179 116.021099,93.0152024 116.221475,93.1955911 C116.421851,93.3759798 116.689624,93.4693265 116.962784,93.4540146 C117.430001,93.4300397 117.866974,93.2228491 118.172984,92.8801985 L118.172984,91.5804382 Z" id="Shape" fill="#231F20"></path>
                <path d="M121.005336,95 L120,95 L120,90.1155639 L121.005336,90.1155639 L121.005336,90.7887936 C121.187834,90.557811 121.626467,90.0000726 122.420491,90.0000726 C122.62128,89.9980667 122.819793,90.0376285 123,90.1155639 L123,90.9042849 C122.736148,90.7832414 122.44557,90.7140428 122.148346,90.7014709 C121.680974,90.7194077 121.253551,90.9385048 121.005336,91.2873779 L121.005336,95 Z" id="Shape" fill="#231F20"></path>
                <path d="M126.421965,93.5448439 C126.056996,93.8599503 125.591262,94.0215541 125.116891,93.9976881 C123.850353,93.9976881 123,93.03606 123,91.5683118 C123,90.1005636 123.83237,89.0004184 125.206808,89.0004184 C125.617411,88.9918313 126.020459,89.1156227 126.360308,89.3547024 C126.715686,89.6202411 126.947659,90.027883 127,90.4788217 C126.928067,90.5054596 126.825305,90.5427527 126.743096,90.5613992 C126.613924,90.2820523 126.421836,90.0390256 126.183044,89.8528311 C125.931674,89.679939 125.636905,89.5873206 125.33526,89.5864521 C124.538857,89.5864521 123.829801,90.247072 123.829801,91.4830705 C123.829801,92.7616896 124.546564,93.3956716 125.299294,93.3956716 C125.609624,93.3974676 125.912906,93.2997779 126.16763,93.1159737 C126.416374,92.9399547 126.615087,92.6980403 126.743096,92.415397 C126.827097,92.4481144 126.91288,92.4756877 127,92.4979745 C126.91273,92.8990587 126.711364,93.2637495 126.421965,93.5448439 Z" id="Shape" fill="#231F20"></path>
                <path d="M131.998915,95 L131.142202,95 L131.142202,91.7819767 C131.142202,91.2877907 131.142202,90.4156977 130.183236,90.4156977 C129.906018,90.4153235 129.635567,90.5057485 129.409431,90.6744186 C129.186413,90.8359351 128.998114,91.0448986 128.856713,91.2877907 L128.856713,95 L128,95 L128,88 L128.856713,88 L128.856713,90.7122093 C129.226983,90.1175806 129.855694,89.7574496 130.531448,89.752907 C130.918069,89.7404904 131.294963,89.8816345 131.58714,90.1482558 C131.892437,90.4876686 132.040044,90.9513404 131.990624,91.4156977 L131.998915,95 Z" id="Shape" fill="#231F20"></path>
            </g>
        </g>
    </g>
</svg>