<svg xmlns="http://www.w3.org/2000/svg" xmlns:xlink="http://www.w3.org/1999/xlink" viewBox="0 0 485.04 351.85"><defs><style>.cls-1{fill:#231f20;}.cls-2{fill:#38793b;}.cls-3{fill:url(#radial-gradient);}</style><radialGradient id="radial-gradient" cx="206.05" cy="206.18" r="205.99" gradientUnits="userSpaceOnUse"><stop offset="0" stop-color="#fff"/><stop offset="0.09" stop-color="#fafcf6"/><stop offset="0.24" stop-color="#ecf5de"/><stop offset="0.42" stop-color="#d4eab7"/><stop offset="0.63" stop-color="#b4da81"/><stop offset="0.86" stop-color="#8dc63f"/><stop offset="1" stop-color="#8dc63f"/></radialGradient></defs><title>4117 rp FA OICR Logo_CMYK_ENG</title><g id="Artwork"><path class="cls-1" d="M155.16,204.77v-.28c0-27.08,20.89-49.76,50.45-49.76s50.17,22.41,50.17,49.49v.27c0,27.08-20.9,49.76-50.45,49.76S155.16,231.84,155.16,204.77Zm82.88,0v-.28c0-18.69-13.6-34.22-32.71-34.22s-32.44,15.25-32.44,33.95v.27c0,18.69,13.61,34.23,32.72,34.23S238,223.46,238,204.77Z"/><path class="cls-1" d="M270.34,156.38h16.91V252.6H270.34Z"/><path class="cls-1" d="M301.81,204.77v-.28c0-27.35,20.49-49.76,49.63-49.76,17.73,0,28.45,6.19,37.66,15l-10.86,12.5c-7.7-7.14-15.95-11.95-26.94-11.95-18.42,0-31.75,15.11-31.75,33.95v.27c0,18.83,13.33,34.23,31.75,34.23,11.82,0,19.38-4.82,27.63-12.51l10.85,11c-10,10.45-21,17.05-39,17.05C322.71,254.25,301.81,232.39,301.81,204.77Z"/><path class="cls-1" d="M403.39,156.38h42.88c12.1,0,21.58,3.58,27.77,9.62,5.09,5.23,8,12.37,8,20.76V187c0,15.81-9.48,25.29-22.95,29.14l26,36.43H465.1l-23.64-33.54H420.3V252.6H403.39ZM445,204.08c12.09,0,19.79-6.32,19.79-16.08v-.28c0-10.31-7.42-15.94-19.93-15.94H420.3v32.3Z"/><path class="cls-2" d="M116,194.1,78.6,189.2a127.85,127.85,0,0,1,3.21-16.47l36.43,9.76A90.9,90.9,0,0,0,116,194.1ZM61.3,289.63,27.5,309.14a207.85,207.85,0,0,0,15,22.42l31-23.76A167.66,167.66,0,0,1,61.3,289.63Zm26.4-202L60.43,60.36A206.32,206.32,0,0,1,80.71,42.59l23.46,30.55A166.8,166.8,0,0,0,87.7,87.64ZM270.92,51.16l14.75-35.28a202.76,202.76,0,0,0-25.51-8.73l-10,36.93A165.11,165.11,0,0,1,270.92,51.16Zm-232,154.92L0,206.11v.08a208.92,208.92,0,0,0,1.72,26.75l38.61-5A169.56,169.56,0,0,1,38.88,206.08ZM206.44,38.3h.36l0-38.29h-.58a207.53,207.53,0,0,0-26.9,1.75l4.95,38A169.24,169.24,0,0,1,206.44,38.3ZM189.25,78.09l-5-38.33a168,168,0,0,0-21.5,4.3l10,37.33A126.75,126.75,0,0,1,189.25,78.09ZM127.7,103.78,104.17,73.14A166.8,166.8,0,0,0,87.7,87.64L115,115A129.59,129.59,0,0,1,127.7,103.78Zm157.46,0,23.62-30.58a167.68,167.68,0,0,0-18.22-12.26l-19.45,33.4A128.61,128.61,0,0,1,285.16,103.76Zm-203.35,69-37.31-10a166.73,166.73,0,0,0-4.23,21.45l38.33,5A127.85,127.85,0,0,1,81.81,172.73ZM122,171.32,87.16,156.85a127.12,127.12,0,0,0-5.35,15.88l36.43,9.76A91.57,91.57,0,0,1,122,171.32Zm49.24-49.65L156.8,86.83a128.22,128.22,0,0,0-15.07,7.51L160.62,127A92.27,92.27,0,0,1,171.24,121.67ZM122.18,240.86,87.32,255.28a128.71,128.71,0,0,0,7.45,15l32.66-18.85A91.46,91.46,0,0,1,122.18,240.86ZM44.5,162.73,7,152.69a206.1,206.1,0,0,0-5.25,26.44l38.5,5.05A166.73,166.73,0,0,1,44.5,162.73ZM94.77,270.3,61.3,289.63A167.66,167.66,0,0,0,73.46,307.8l30.66-23.51A129.52,129.52,0,0,1,94.77,270.3Zm99.36-154.82-4.88-37.39a126.75,126.75,0,0,0-16.52,3.3l9.73,36.45A88.66,88.66,0,0,1,194.13,115.48Z"/><path class="cls-3" d="M73.27,104.17,42.65,80.63a206.52,206.52,0,0,0-15,22.38l33.48,19.38A166.77,166.77,0,0,1,73.27,104.17ZM44.6,249.36l-37.66,10a206.19,206.19,0,0,1-5.22-26.45l38.61-5A166.34,166.34,0,0,0,44.6,249.36Zm43.29,74.91L60.25,351.85a207.66,207.66,0,0,1-17.76-20.29l31-23.76A169.91,169.91,0,0,0,87.89,324.27ZM290.56,60.92l19.23-33a206.55,206.55,0,0,1,22.35,15.06L308.78,73.18A167.68,167.68,0,0,0,290.56,60.92ZM142,51.14,127.3,15.65A203.65,203.65,0,0,1,152.85,7l9.9,37.08A168.24,168.24,0,0,0,142,51.14Zm64.81,25.78,0-38.62a169.7,169.7,0,0,1,21.87,1.47l-5.11,38.31A130.1,130.1,0,0,0,206.82,76.92ZM94.57,141.76,61.12,122.39a166.77,166.77,0,0,1,12.15-18.22l30.62,23.54A130.05,130.05,0,0,0,94.57,141.76ZM81.93,239.42,44.6,249.36a166.34,166.34,0,0,1-4.27-21.42l38.33-5A127.5,127.5,0,0,0,81.93,239.42Zm-.12-66.69-37.31-10a165,165,0,0,1,7-20.7l35.68,14.82A127.12,127.12,0,0,0,81.81,172.73Zm75-85.9L142,51.14a168.24,168.24,0,0,1,20.74-7.08l10,37.33A128.78,128.78,0,0,0,156.8,86.83Zm-29.1,17L104.17,73.14a166.5,166.5,0,0,1,18.21-12.25l19.35,33.45A127.89,127.89,0,0,0,127.7,103.78Zm.22,204.33-23.58,30.6a167.43,167.43,0,0,1-16.45-14.44L115.22,297A129.25,129.25,0,0,0,127.92,308.11ZM230.24,117.78l9.84-36.41A128.17,128.17,0,0,1,256,86.8l-14.55,34.81A91.49,91.49,0,0,0,230.24,117.78ZM118.38,229.71l-36.45,9.71A127.5,127.5,0,0,1,78.66,223l37.4-4.85A90.23,90.23,0,0,0,118.38,229.71ZM134,261.34l-29.92,23a129.52,129.52,0,0,1-9.35-14l32.66-18.85A91.53,91.53,0,0,0,134,261.34Zm60.09-145.86-4.88-37.39a128.34,128.34,0,0,1,17.19-1.18h.38l0,37.72h-.4A91,91,0,0,0,194.13,115.48Zm-22.89,6.19L156.8,86.83a128.78,128.78,0,0,1,15.93-5.44l9.73,36.45A91.49,91.49,0,0,0,171.24,121.67Zm-37.45,29-29.9-23A129.68,129.68,0,0,1,115,115l26.67,26.67A92.05,92.05,0,0,0,133.79,150.7Zm-17.73,67.43L78.66,223a129.35,129.35,0,0,1-1.16-16.92l37.72,0A89.41,89.41,0,0,0,116.06,218.13Z"/><path class="cls-1" d="M160.62,127,141.73,94.34a127.89,127.89,0,0,0-14,9.44l23,29.9A92.07,92.07,0,0,1,160.62,127Zm-45.4,170L87.89,324.27A169.91,169.91,0,0,1,73.46,307.8l30.66-23.51A128.89,128.89,0,0,0,115.22,297ZM206.44,76.91h.38l0-38.62h-.36a169.24,169.24,0,0,0-22.19,1.46l5,38.33A128.34,128.34,0,0,1,206.44,76.91ZM94.57,141.76,61.12,122.39A167,167,0,0,0,51.48,142l35.68,14.82A127.86,127.86,0,0,1,94.57,141.76ZM271.11,94.32l19.45-33.4a167.73,167.73,0,0,0-19.64-9.76L256,86.8A127.92,127.92,0,0,1,271.11,94.32ZM81.93,239.42,44.6,249.36a167.1,167.1,0,0,0,7,20.68l35.7-14.76A128.1,128.1,0,0,1,81.93,239.42Zm51.86-88.72-29.9-23a130.05,130.05,0,0,0-9.32,14l32.64,18.9A89.78,89.78,0,0,1,133.79,150.7Zm-18.58,55.16A91.33,91.33,0,0,1,116,194.1L78.6,189.2a130.81,130.81,0,0,0-1.11,16.66c0,.06,0,.13,0,.2l37.72,0C115.22,206,115.21,205.92,115.21,205.86Zm115-88.08,9.84-36.41a128.41,128.41,0,0,0-16.52-3.29l-5,37.38A91.6,91.6,0,0,1,230.24,117.78Z"/><path class="cls-1" d="M173.75,295c-6.92,0-11.75-5-11.75-12.67,0-6.81,3.95-12.81,11.71-12.81,7.94,0,11.65,6.37,11.65,12.64C185.36,289.48,181,295,173.75,295Zm0-23.37c-5,0-8.24,4.57-8.24,10.6,0,6.88,3.78,10.66,8.28,10.66,5.18,0,8.14-4.63,8.14-10.76C181.89,276.82,179.27,271.6,173.71,271.6Z"/><path class="cls-1" d="M204,294.25h-3.07v-9.84a14.56,14.56,0,0,0-.24-3.68,3.35,3.35,0,0,0-3.4-2.28,5.47,5.47,0,0,0-4.67,2.9v12.9h-3.06V276.92h3.06v2.42a6.93,6.93,0,0,1,5.93-3.14,5.69,5.69,0,0,1,4,1.3c1.43,1.33,1.47,3,1.47,4.56Z"/><path class="cls-1" d="M212.3,288.84c0,2.21,0,4.39,2.45,4.39a4.44,4.44,0,0,0,2.08-.58l.48.82a5.35,5.35,0,0,1-3.75,1.5,5.19,5.19,0,0,1-2.83-.82c-1.39-1-1.53-2.38-1.53-4.46v-10.8h-2.38v-2h2.38v-4.6h3.1v4.6H216v2H212.3Z"/><path class="cls-1" d="M232.39,294.25h-3v-2a6.18,6.18,0,0,1-5.38,2.72c-4.06,0-6.13-2.58-6.13-5.41s2.24-6.13,7.66-6.13a18.4,18.4,0,0,1,3.85.48,6.11,6.11,0,0,0-.79-3.61,3.85,3.85,0,0,0-3.54-1.67,5.94,5.94,0,0,0-5.31,3.1c-.24-.07-.65-.21-.89-.31.92-3.44,3.27-5.18,6.92-5.18a6.6,6.6,0,0,1,5.31,2.25c1.29,1.64,1.29,3.44,1.29,5.38Zm-3-8.37a14.19,14.19,0,0,0-3.48-.48c-3.57,0-4.76,2.25-4.76,3.91a3.63,3.63,0,0,0,3.84,3.58,6.27,6.27,0,0,0,4.4-2.14Z"/><path class="cls-1" d="M239.68,294.25h-3.13V276.92h3.13v2.38c.58-.82,1.94-2.79,4.43-2.79a3.86,3.86,0,0,1,1.81.41v2.79a6.43,6.43,0,0,0-2.66-.71,4.49,4.49,0,0,0-3.58,2.07Z"/><path class="cls-1" d="M249.87,270a1.76,1.76,0,0,1,1.77,1.77,1.79,1.79,0,0,1-1.84,1.91,1.77,1.77,0,0,1-1.77-1.81A1.8,1.8,0,0,1,249.87,270Zm1.49,24.28h-3.09V276.88h3.09Z"/><path class="cls-1" d="M269.14,292a8.08,8.08,0,0,1-6.64,3,8.33,8.33,0,0,1-5.45-1.87c-2.59-2.25-2.79-5.62-2.79-7.22,0-6.68,3.92-9.68,8.55-9.68,5.07,0,8.21,3.82,8.21,9.13A10.82,10.82,0,0,1,269.14,292Zm-6.47-13.9c-3.78,0-5.11,3.71-5.11,7.36a11.93,11.93,0,0,0,.68,4.36,4.67,4.67,0,0,0,4.4,3.27c2.65,0,5.07-2,5.07-7.57C267.71,281.62,266.18,278.11,262.67,278.11Z"/><path class="cls-1" d="M289.06,294.25H285.8v-24h3.26Z"/><path class="cls-1" d="M308.14,294.25h-3.07v-9.84a14.56,14.56,0,0,0-.24-3.68,3.35,3.35,0,0,0-3.4-2.28,5.47,5.47,0,0,0-4.67,2.9v12.9H293.7V276.92h3.06v2.42a6.93,6.93,0,0,1,5.93-3.14,5.69,5.69,0,0,1,4,1.3c1.43,1.33,1.47,3,1.47,4.56Z"/><path class="cls-1" d="M323.5,281.31a5.35,5.35,0,0,0-5-2.93c-2.25,0-3.71,1.13-3.71,2.66s1.16,2.11,2.93,2.69c.1,0,1.56.48,1.8.54,1.74.52,5.25,1.54,5.25,5.21a5,5,0,0,1-1.91,4,7.85,7.85,0,0,1-5,1.49,8,8,0,0,1-4.77-1.36,6,6,0,0,1-2.28-3.95c.27-.1.68-.2.92-.31a6.51,6.51,0,0,0,6,3.51c2.35,0,3.88-1.16,3.88-2.89a2.81,2.81,0,0,0-1.74-2.56,25.06,25.06,0,0,0-3.44-1.19c-1.73-.54-4.73-1.5-4.73-4.83,0-2.9,2.38-5.15,6.3-5.15a7.71,7.71,0,0,1,4.29,1.19,4.87,4.87,0,0,1,2.11,3.65Z"/><path class="cls-1" d="M331.4,288.84c0,2.21,0,4.39,2.45,4.39a4.44,4.44,0,0,0,2.08-.58c.13.24.34.58.47.82a5.3,5.3,0,0,1-3.74,1.5,5.16,5.16,0,0,1-2.83-.82c-1.39-1-1.53-2.38-1.53-4.46v-10.8h-2.39v-2h2.39v-4.6h3.1v4.6H335v2H331.4Z"/><path class="cls-1" d="M339.3,270a1.76,1.76,0,0,1,1.77,1.77,1.79,1.79,0,0,1-1.84,1.91,1.77,1.77,0,0,1-1.77-1.81A1.8,1.8,0,0,1,339.3,270Zm1.5,24.28h-3.1V276.88h3.1Z"/><path class="cls-1" d="M349.14,288.84c0,2.21,0,4.39,2.45,4.39a4.44,4.44,0,0,0,2.08-.58l.48.82a5.35,5.35,0,0,1-3.75,1.5,5.19,5.19,0,0,1-2.83-.82c-1.39-1-1.53-2.38-1.53-4.46v-10.8h-2.38v-2H346v-4.6h3.1v4.6h3.65v2h-3.65Z"/><path class="cls-1" d="M369.88,276.92v17.33h-3.1v-2.18a6,6,0,0,1-5.41,2.9,6.21,6.21,0,0,1-4.74-1.94c-1-1.26-1.19-2.76-1.19-4.7V276.92h3.1V287a9.33,9.33,0,0,0,.48,3.89,3.5,3.5,0,0,0,3.27,1.9,5.79,5.79,0,0,0,4.49-2.31V276.92Z"/><path class="cls-1" d="M377.54,288.84c0,2.21,0,4.39,2.46,4.39a4.4,4.4,0,0,0,2.07-.58l.48.82a5.34,5.34,0,0,1-3.74,1.5,5.16,5.16,0,0,1-2.83-.82c-1.4-1-1.53-2.38-1.53-4.46v-10.8h-2.39v-2h2.39v-4.6h3.09v4.6h3.65v2h-3.65Z"/><path class="cls-1" d="M385.62,285.6a8.53,8.53,0,0,0,1.49,4.77,5.83,5.83,0,0,0,4.7,2.25,7,7,0,0,0,6-3.54c.24.1.62.27.85.34-.34,1.22-1.66,5.55-7.63,5.55-4.59,0-8.68-3.1-8.68-9.3,0-6,4-9.47,8.65-9.47a7.94,7.94,0,0,1,5.42,2c2.69,2.48,2.58,6.2,2.55,7.42ZM396,283.73c-.24-4.36-3.3-5.38-5-5.38-2.07,0-4.83,1.39-5.31,5.38Z"/><path class="cls-1" d="M168.44,329.86h-3.1V314.5h-2.46v-2h2.46v-2.14c0-1.57,0-3.17,1.56-4.33a5.23,5.23,0,0,1,3.07-.95,4.15,4.15,0,0,1,3.4,1.5c-.13.2-.4.51-.54.71a4.55,4.55,0,0,0-1.87-.44,2.39,2.39,0,0,0-2.15,1.09c-.37.61-.37,1.4-.37,2.89v1.67H172v2h-3.57Z"/><path class="cls-1" d="M187.27,327.61a8.08,8.08,0,0,1-6.64,3,8.33,8.33,0,0,1-5.45-1.87c-2.59-2.25-2.79-5.62-2.79-7.22,0-6.67,3.91-9.67,8.54-9.67,5.08,0,8.21,3.81,8.21,9.13A10.81,10.81,0,0,1,187.27,327.61Zm-6.47-13.89c-3.78,0-5.11,3.71-5.11,7.35a11.89,11.89,0,0,0,.68,4.36,4.66,4.66,0,0,0,4.39,3.27c2.66,0,5.08-2,5.08-7.56C185.84,317.22,184.31,313.72,180.8,313.72Z"/><path class="cls-1" d="M195.82,329.86h-3.14V312.52h3.14v2.39c.58-.82,1.94-2.8,4.43-2.8a4,4,0,0,1,1.8.41v2.8a6.37,6.37,0,0,0-2.66-.72,4.46,4.46,0,0,0-3.57,2.08Z"/><path class="cls-1" d="M232.6,328.53a9.85,9.85,0,0,1-6.44,2c-7.93,0-11.68-6.16-11.68-12.63,0-6.78,4.05-12.84,11.92-12.84a9.49,9.49,0,0,1,6.34,2.08,7.05,7.05,0,0,1,2.45,4.29c-.24.1-.65.3-.89.41a8.46,8.46,0,0,0-7.59-4.43c-5.89,0-8.76,4.49-8.76,10.39,0,6.6,4,10.38,8.79,10.38a9.09,9.09,0,0,0,7.73-4.42l.92.37A8.35,8.35,0,0,1,232.6,328.53Z"/><path class="cls-1" d="M251.71,329.86h-3v-2.05a6.17,6.17,0,0,1-5.38,2.73c-4.06,0-6.13-2.59-6.13-5.42s2.24-6.13,7.66-6.13a19.18,19.18,0,0,1,3.85.48,6.13,6.13,0,0,0-.79-3.61,3.85,3.85,0,0,0-3.54-1.67,5.94,5.94,0,0,0-5.31,3.1,7.84,7.84,0,0,1-.89-.31c.92-3.43,3.27-5.17,6.92-5.17a6.6,6.6,0,0,1,5.31,2.25c1.3,1.63,1.3,3.44,1.3,5.38Zm-3-8.38a14.19,14.19,0,0,0-3.48-.48c-3.57,0-4.76,2.25-4.76,3.92a3.63,3.63,0,0,0,3.84,3.58,6.27,6.27,0,0,0,4.4-2.15Z"/><path class="cls-1" d="M270.3,329.86h-3.06V320a14.52,14.52,0,0,0-.24-3.68,3.37,3.37,0,0,0-3.41-2.28,5.44,5.44,0,0,0-4.66,2.89v12.91h-3.07V312.52h3.07v2.42a6.9,6.9,0,0,1,5.92-3.13,5.74,5.74,0,0,1,4,1.29c1.43,1.33,1.46,3,1.46,4.57Z"/><path class="cls-1" d="M286.51,328.87a7.37,7.37,0,0,1-5.07,1.7c-4.94,0-8.25-3.61-8.25-9.12s3.24-9.64,8.59-9.64a7.72,7.72,0,0,1,4.49,1.33,6.1,6.1,0,0,1,2.49,4.22c-.27.1-.68.24-.95.31a7.35,7.35,0,0,0-2.18-2.66,6,6,0,0,0-3.31-1c-3.1,0-5.86,2.48-5.86,7.12,0,4.8,2.8,7.18,5.73,7.18a5.83,5.83,0,0,0,3.37-1.05,6.69,6.69,0,0,0,2.25-2.63,8.76,8.76,0,0,0,.95.31A7.64,7.64,0,0,1,286.51,328.87Z"/><path class="cls-1" d="M293.83,321.21a8.56,8.56,0,0,0,1.5,4.77,5.84,5.84,0,0,0,4.7,2.24,7,7,0,0,0,6-3.54c.24.1.61.27.85.34-.34,1.23-1.67,5.55-7.63,5.55-4.59,0-8.68-3.09-8.68-9.29,0-6,4-9.47,8.65-9.47a7.94,7.94,0,0,1,5.41,2c2.69,2.49,2.59,6.2,2.56,7.43Zm10.36-1.87c-.24-4.36-3.31-5.39-5-5.39-2.08,0-4.84,1.4-5.31,5.39Z"/><path class="cls-1" d="M313.32,329.86h-3.14V312.52h3.14v2.39c.57-.82,1.94-2.8,4.42-2.8a4,4,0,0,1,1.81.41v2.8a6.42,6.42,0,0,0-2.66-.72,4.44,4.44,0,0,0-3.57,2.08Z"/><path class="cls-1" d="M351.15,329.86h-3.61l-6.44-11.07a16.75,16.75,0,0,1-3.06.2c-.72,0-1.09,0-1.6-.06v10.93h-3.27V305.81h6.47c3.47,0,5.21.31,6.74,1.37a5.71,5.71,0,0,1,2.35,4.76,6.56,6.56,0,0,1-1.22,3.85,6.8,6.8,0,0,1-3.24,2.32ZM336.44,317.7c5.55.07,8.92-2.11,8.92-5.55a4.06,4.06,0,0,0-1-2.69c-1.09-1.26-2.58-1.57-4.59-1.57h-3.34Z"/><path class="cls-1" d="M353.88,321.21a8.53,8.53,0,0,0,1.49,4.77,5.84,5.84,0,0,0,4.7,2.24,7,7,0,0,0,6-3.54c.24.1.62.27.85.34-.34,1.23-1.66,5.55-7.63,5.55-4.59,0-8.68-3.09-8.68-9.29,0-6,4-9.47,8.65-9.47a8,8,0,0,1,5.42,2c2.69,2.49,2.58,6.2,2.55,7.43Zm10.35-1.87c-.24-4.36-3.3-5.39-5-5.39-2.08,0-4.83,1.4-5.31,5.39Z"/><path class="cls-1" d="M381.23,316.92a5.35,5.35,0,0,0-5-2.93c-2.25,0-3.71,1.12-3.71,2.65s1.15,2.12,2.93,2.7l1.8.54c1.74.51,5.24,1.53,5.24,5.21a4.93,4.93,0,0,1-1.9,4,7.8,7.8,0,0,1-5,1.5,8,8,0,0,1-4.77-1.36,6,6,0,0,1-2.28-3.95c.27-.11.68-.21.92-.31a6.51,6.51,0,0,0,6,3.51c2.35,0,3.88-1.16,3.88-2.9a2.81,2.81,0,0,0-1.74-2.55,25.59,25.59,0,0,0-3.44-1.19c-1.74-.55-4.73-1.5-4.73-4.84,0-2.89,2.38-5.14,6.3-5.14A7.63,7.63,0,0,1,380,313a4.86,4.86,0,0,1,2.11,3.64Z"/><path class="cls-1" d="M387.93,321.21a8.56,8.56,0,0,0,1.5,4.77,5.84,5.84,0,0,0,4.7,2.24,7,7,0,0,0,6-3.54c.24.1.61.27.85.34-.34,1.23-1.67,5.55-7.63,5.55-4.6,0-8.68-3.09-8.68-9.29,0-6,4-9.47,8.65-9.47a7.94,7.94,0,0,1,5.41,2c2.69,2.49,2.59,6.2,2.56,7.43Zm10.36-1.87c-.24-4.36-3.31-5.39-5-5.39-2.08,0-4.84,1.4-5.31,5.39Z"/><path class="cls-1" d="M416.85,329.86h-3v-2.05a6.15,6.15,0,0,1-5.38,2.73c-4.05,0-6.13-2.59-6.13-5.42S404.59,319,410,319a19.18,19.18,0,0,1,3.85.48,6,6,0,0,0-.78-3.61,3.87,3.87,0,0,0-3.54-1.67,6,6,0,0,0-5.32,3.1,8.44,8.44,0,0,1-.88-.31c.92-3.43,3.27-5.17,6.91-5.17a6.63,6.63,0,0,1,5.32,2.25c1.29,1.63,1.29,3.44,1.29,5.38Zm-3-8.38a14.09,14.09,0,0,0-3.47-.48c-3.58,0-4.77,2.25-4.77,3.92a3.64,3.64,0,0,0,3.85,3.58,6.24,6.24,0,0,0,4.39-2.15Z"/><path class="cls-1" d="M423.46,329.86h-3.14V312.52h3.14v2.39c.57-.82,1.94-2.8,4.42-2.8a4,4,0,0,1,1.81.41v2.8a6.42,6.42,0,0,0-2.66-.72,4.44,4.44,0,0,0-3.57,2.08Z"/><path class="cls-1" d="M443.21,328.87a7.38,7.38,0,0,1-5.08,1.7c-4.93,0-8.24-3.61-8.24-9.12s3.24-9.64,8.59-9.64a7.72,7.72,0,0,1,4.49,1.33,6.1,6.1,0,0,1,2.49,4.22c-.28.1-.68.24-1,.31a7.25,7.25,0,0,0-2.18-2.66,6,6,0,0,0-3.3-1c-3.1,0-5.86,2.48-5.86,7.12,0,4.8,2.79,7.18,5.72,7.18a5.86,5.86,0,0,0,3.38-1.05,6.56,6.56,0,0,0,2.24-2.63,8.92,8.92,0,0,0,1,.31A7.71,7.71,0,0,1,443.21,328.87Z"/><path class="cls-1" d="M462.52,329.86h-3.1V318.79c0-1.7,0-4.7-3.47-4.7a4.83,4.83,0,0,0-2.8.89,7,7,0,0,0-2,2.11v12.77h-3.1V305.78h3.1v9.33a7.3,7.3,0,0,1,6.06-3.3,5.57,5.57,0,0,1,3.82,1.36,5.46,5.46,0,0,1,1.46,4.36Z"/></g></svg>