<svg id="Layer_3" data-name="Layer 3" xmlns="http://www.w3.org/2000/svg" viewBox="0 0 200 72"><defs><style>.cls-1{fill:#8fa6c6;}.cls-2{fill:#b92025;}.cls-3{fill:#3e6c99;}</style></defs><title>logo-ICGC-nav</title><path class="cls-1" d="M40.08,10.42c.14-.05.23-.05.37-.09s.23-.05.37-.05.24,0,.38,0,.23,0,.37,0a4.59,4.59,0,0,0-1.21.37,1.38,1.38,0,0,0-.61.42.36.36,0,0,0,0,.42,1.39,1.39,0,0,0,.61.37c.28.09.7.19,1.12.28a7.1,7.1,0,0,0,1.44.14c.51.05,1.07.05,1.68.05s1.16-.05,1.77-.1A14.22,14.22,0,0,0,48,11.91a6,6,0,0,0,1.26-.33,2.36,2.36,0,0,0,.84-.37.58.58,0,0,0,.28-.42c0-.14-.14-.28-.38-.42a3.32,3.32,0,0,0-1-.32,10.73,10.73,0,0,0-1.5-.24c-.55,0-1.21-.09-1.86-.09h0a27.52,27.52,0,0,1,5.22.51,27.22,27.22,0,0,1,5.22,1.59A26,26,0,0,1,60.21,14a6.54,6.54,0,0,1,.74.51,15.58,15.58,0,0,1,1.4,1.07c.89.7,1.35,1.17,2.05,1.82,0,.05.09.14.14.19s0,.13,0,.18V18a.33.33,0,0,1-.1.18,3.41,3.41,0,0,1-1.77,1,19,19,0,0,1-3.44.84c-1.36.23-2.89.46-4.57.65s-3.45.33-5.41.42-3.77.19-5.63.19-3.64,0-5.31-.1S35,21,33.51,20.86a39.31,39.31,0,0,1-4-.56c-.7-.14-1.26-.28-1.73-.42a4.89,4.89,0,0,1-1.16-.51,1.2,1.2,0,0,1-.52-.56.68.68,0,0,1,.19-.61,26.76,26.76,0,0,1,6.24-5A33,33,0,0,1,40.08,10.42Z"/><path class="cls-1" d="M26.1,53.47a.64.64,0,0,1-.19-.6,1.12,1.12,0,0,1,.52-.56,3.85,3.85,0,0,1,1.16-.51c.47-.14,1.07-.33,1.77-.47a39.78,39.78,0,0,1,4.1-.61c1.49-.14,3.17-.28,4.9-.37s3.54-.14,5.4-.09,3.77,0,5.73.14,3.78.23,5.5.42,3.31.37,4.66.65a27.87,27.87,0,0,1,3.54.84,4.67,4.67,0,0,1,1.86,1,.35.35,0,0,1,.1.19v.19s-.05.14-.05.18S65,54,65,54.08a26.09,26.09,0,0,1-7.41,5.4,25.16,25.16,0,0,1-4.38,1.68,27.86,27.86,0,0,1-4.66.89A11,11,0,0,0,50,61.81c.42-.09.79-.18,1.12-.28a1.58,1.58,0,0,0,.69-.37.66.66,0,0,0,.24-.42.81.81,0,0,0-.38-.56,3.4,3.4,0,0,0-1.07-.46,12.75,12.75,0,0,0-1.63-.38c-.6-.09-1.3-.18-2-.23S45.39,59,44.65,59s-1.45,0-2.1,0-1.31.14-1.87.24a7.87,7.87,0,0,0-1.44.37,2.36,2.36,0,0,0-.79.47.36.36,0,0,0,0,.51,1.57,1.57,0,0,0,.74.51,7.67,7.67,0,0,0,1.54.47.16.16,0,0,1-.14-.05.17.17,0,0,1-.14,0,.2.2,0,0,1-.14,0,.17.17,0,0,1-.14-.05,23.33,23.33,0,0,1-3.91-1.16,26.57,26.57,0,0,1-3.59-1.73A20.14,20.14,0,0,1,26.1,53.47Z"/><path class="cls-1" d="M24.1,21.14a.36.36,0,0,0,0,.51c.09.19.32.32.7.46a10.56,10.56,0,0,0,1.3.42,14.94,14.94,0,0,0,1.91.38c1.31.23,2.84.37,4.52.51s3.45.23,5.31.28,3.82.09,5.83.05,4.1-.1,6.15-.19,4.1-.23,5.91-.42,3.59-.37,5.08-.61a35.32,35.32,0,0,0,3.92-.79,5.07,5.07,0,0,0,2.14-1,.2.2,0,0,0,.09-.14.16.16,0,0,0,.05-.14v-.14s-.05-.09-.09-.14a26.15,26.15,0,0,1,4.24,8.39v.05l0,0s0,.05-.09.05-.1.05-.14.05a13,13,0,0,1-2.8.51c-1.26.14-2.89.28-4.75.42s-3.82.23-6,.33-4.43.14-6.85.23-4.76.09-7,.09H36.82l-6.11-.14c-1.95,0-3.72-.14-5.26-.28-.84,0-1.54-.14-2.19-.18a11.66,11.66,0,0,1-1.63-.24,5.07,5.07,0,0,1-1-.23c-.28.09-.37,0-.33-.09h0a1.57,1.57,0,0,1,.1-.42c0-.24.09-.24.28-.89.09-.32.28-.74.28-.84.27-.7.55-1.39.88-2.05A21.47,21.47,0,0,1,24.1,21.14Z"/><path class="cls-1" d="M20.23,42.66c-.05-.09.09-.18.33-.28a4,4,0,0,1,1-.23c.42-.09,1-.14,1.64-.23s1.35-.14,2.19-.19c1.53-.14,3.35-.23,5.31-.28s4-.14,6.15-.18,4.38-.05,6.71-.05,4.66,0,7.08.05,4.75.09,6.85.18,4.24.19,6,.28,3.49.23,4.75.42a13,13,0,0,1,2.8.51s.09.05.14.05.09,0,.09,0,0,0,0,0v.1h0c0,.14-.1.32-.14.46s-.1.33-.14.47c-.19.56-.28.79-.47,1.35a18.45,18.45,0,0,1-.93,2.14,24.87,24.87,0,0,1-2.38,4c.05,0,.05-.09.1-.14v-.14s0-.09,0-.14-.05-.09-.14-.14a5.71,5.71,0,0,0-2.19-1A34,34,0,0,0,61,49c-1.54-.23-3.26-.42-5.17-.56s-3.87-.28-6-.37-4.2-.14-6.25-.14-4,0-5.87.09-3.72.19-5.36.33-3.26.32-4.56.56c-.75.14-1.4.28-1.91.42a6.81,6.81,0,0,0-1.35.46,1.74,1.74,0,0,0-.7.51.37.37,0,0,0,0,.52,17.22,17.22,0,0,1-1.17-1.91c-.37-.66-.7-1.31-1-2a17.69,17.69,0,0,1-.84-2.05c-.05-.14-.19-.51-.42-1.26A2.1,2.1,0,0,0,20.23,42.66Z"/><path class="cls-1" d="M19.72,32s.09.09.32.14.56.09,1,.14l1.68.14c.65,0,1.39.09,2.23.09l5.41.14c2,0,4,0,6.24.09h6.8c2.33,0,4.76,0,7.18,0l7-.14c2.24,0,4.29-.14,6.1-.19s3.59-.19,4.9-.28a24.16,24.16,0,0,0,2.88-.33s.1,0,.14,0a.17.17,0,0,0,.1-.05s0-.05,0-.05v0a25.68,25.68,0,0,1,.1,8.48v0l0-.05s0,0-.09,0-.1,0-.14,0c-.52-.09-1.54-.23-2.89-.33s-3-.18-4.89-.23-3.92-.14-6.15-.18-4.52-.1-7-.1-4.85,0-7.18,0-4.61,0-6.8.05-4.34,0-6.25.14-3.82.09-5.4.18l-2.24.14-1.68.14c-.46,0-.79.1-1,.14s-.37.1-.37.14c-.1-.56-.14-.93-.19-1.49h0A25.05,25.05,0,0,1,19.72,32Z"/><path class="cls-2" d="M41.15,51.84h0c1.63-1.91,3.12-3.54,3.64-6.06a7.31,7.31,0,0,0-.89-5.12h0a15,15,0,0,0-4-4.1c2.79-2,5.26-3.87,4.94-8a10.28,10.28,0,0,0-2.8-5.68c-.37-.47-.74-.89-1.12-1.35,2.1-1.49,3.87-3.17,4-6.15,0-.7-1.86-1.45-1.86-1.87a5.29,5.29,0,0,1-.23,1.5H40v.88H42.5a9,9,0,0,1-3,3.54,15.56,15.56,0,0,1-.65-1.49h1.12V17H38.59a15.23,15.23,0,0,1-.19-1.63c0-.75-1.82-1.4-1.86-1.87a9.52,9.52,0,0,0,2.05,5.87,1.3,1.3,0,0,0,.32.38c-1.39,1-2.93,1.95-4.24,3-3.49,3-2.84,7.18,0,10.3a15.94,15.94,0,0,0,2.47,2.19c-.51.37-1,.7-1.49,1.07C32.06,39,31.09,43.18,34,46.72a22.57,22.57,0,0,0,4.34,3.82c.09,0,.18.14.27.18a9.9,9.9,0,0,0-2.09,5.83c0,.7,1.86,1.44,1.86,1.86a8.56,8.56,0,0,1,.19-1.63h4.56c.33.65,1.77,1.21,1.77,1.63C44.83,55.71,43.15,53.57,41.15,51.84Zm-7-7.78v-.19H43c-.1.52-.24,1-.37,1.5H34.3A6.12,6.12,0,0,1,34.16,44.06Zm.51-2.52H43A7,7,0,0,1,43,43h-8.8A7.9,7.9,0,0,1,34.67,41.54Zm.52-.88a13.57,13.57,0,0,1,1.07-1.31h6.1a4.2,4.2,0,0,1,.51,1.31Zm6.47-2.19H37.24c.7-.56,1.44-1.12,2.19-1.63A15.6,15.6,0,0,1,41.66,38.47Zm-7.27-7.08a2.29,2.29,0,0,0-.09-.28H42a8.36,8.36,0,0,1-1,1.21h-6.2A3.17,3.17,0,0,1,34.39,31.39ZM36.3,25a9.23,9.23,0,0,1,.7-.61h2.75v-.88H38.12c.84-.61,1.68-1.17,2.52-1.73a10.86,10.86,0,0,1,2.19,3.92s0,.14,0,.18h-4v.89H43a6,6,0,0,1-.51,3.49H34.11a4.1,4.1,0,0,1,0-1.26h6.48v-.88H34.35A7.81,7.81,0,0,1,36.3,25Zm-.88,8.24H40A29.08,29.08,0,0,1,37.66,35,13.7,13.7,0,0,1,35.42,33.2Zm-.79,13h7.55a13.06,13.06,0,0,1-.8,1.31H35.47A5.87,5.87,0,0,1,34.63,46.2Zm3.77,3.59a20.46,20.46,0,0,1-2-1.44h4.28c-.37.46-.74.88-1.11,1.3-.19.19-.33.38-.52.61C38.87,50.12,38.63,50,38.4,49.79Zm3.92,4.06H39.75a16.34,16.34,0,0,1,1.12-1.63A7.93,7.93,0,0,1,42.32,53.85Zm-3,.88h3.44A4.45,4.45,0,0,1,43,55.9H38.87C39,55.48,39.15,55.1,39.29,54.73Z"/><path class="cls-3" d="M26.33,18.34A16.5,16.5,0,0,1,27.64,17a21.34,21.34,0,0,1,1.91-1.63,24.91,24.91,0,0,1,2.93-2,26.67,26.67,0,0,1,7.6-3,15,15,0,0,0-2.24.74,12.12,12.12,0,0,0-2.19,1.26,23.67,23.67,0,0,0-2.09,1.77,21.85,21.85,0,0,0-1.91,2.29c-.75.14-1.45.28-2,.42a11.79,11.79,0,0,0-1.59.46,8,8,0,0,0-1.07.47A4.4,4.4,0,0,0,26.33,18.34Z"/><path class="cls-3" d="M32.3,58.55a26,26,0,0,1-3.36-2.33,23.93,23.93,0,0,1-2.84-2.75,2,2,0,0,0,.65.47,6.25,6.25,0,0,0,1.12.46c.47.14,1,.33,1.59.47s1.3.28,2.09.42a13.73,13.73,0,0,0,1,1.35,13.13,13.13,0,0,0,1.07,1.17c.37.37.74.7,1.12,1a10.18,10.18,0,0,0,1.16.89c.33.23.7.46,1,.65l1.07.56,1.07.42a5.48,5.48,0,0,0,1.07.28A24.92,24.92,0,0,1,32.3,58.55Z"/><path class="cls-3" d="M20.32,29.2c.24-.75.38-1.35.52-1.73h0a6.24,6.24,0,0,1,.32-.84c.09-.28.23-.55.33-.83h0c.14-.28.23-.56.37-.84a23.42,23.42,0,0,1,2.24-3.87,2.07,2.07,0,0,1,.56-.47,6.92,6.92,0,0,1,1.11-.46c.47-.14,1.08-.33,1.73-.47l2.37-.46-1,1.95c-.28.7-.56,1.4-.84,2.15a18.85,18.85,0,0,0-.7,2.28A20.8,20.8,0,0,0,26.8,28c-1.12.1-2.1.19-2.94.28s-1.49.19-2,.28a7,7,0,0,0-1.16.28C20.46,29.06,20.32,29.1,20.32,29.2Z"/><path class="cls-3" d="M45.72,9.81a26.87,26.87,0,0,1,14.49,4.24,29.31,29.31,0,0,1,4.24,3.41,4.81,4.81,0,0,0-1.77-.84,21.26,21.26,0,0,0-3.5-.7c-1.44-.19-3.17-.38-5.08-.47s-4.05-.18-6.29-.14c-.14-.93-.32-1.72-.46-2.42s-.33-1.26-.51-1.73a4.13,4.13,0,0,0-.52-1A.89.89,0,0,0,45.72,9.81Z"/><path class="cls-3" d="M65,54.13a28.88,28.88,0,0,1-3.4,3,26.28,26.28,0,0,1-4,2.42,27.18,27.18,0,0,1-9,2.61c-.18,0-.37,0-.6,0s-.42,0-.61,0a2.85,2.85,0,0,0-.65.05H46a.27.27,0,0,0,.23-.14.79.79,0,0,0,.23-.33,1.44,1.44,0,0,0,.24-.46,3.11,3.11,0,0,0,.23-.65,4.67,4.67,0,0,0,.23-.8c.09-.28.14-.6.23-1s.14-.74.24-1.16.14-.84.23-1.3c2.28,0,4.47-.1,6.43-.19S58,56,59.46,55.76A30.52,30.52,0,0,0,63.05,55,4.61,4.61,0,0,0,65,54.13Z"/><path class="cls-3" d="M66.92,20.25a30.51,30.51,0,0,1,2.51,4,26.53,26.53,0,0,1,1.77,4.43c0-.19-.55-.33-1.53-.47s-2.47-.28-4.38-.42-4.34-.23-7.09-.28-5.91-.09-9.22-.09c0-.89-.09-1.77-.14-2.61s-.09-1.63-.19-2.42-.14-1.54-.18-2.24-.14-1.4-.24-2.05c2.61,0,5.08.05,7.32.14s4.15.28,5.82.47a24.64,24.64,0,0,1,3.87.7A4.31,4.31,0,0,1,66.92,20.25Z"/><path class="cls-3" d="M23.91,50.72a29.32,29.32,0,0,1-2.19-3.86c-.09-.24-.47-1-.84-2-.18-.52-.28-.8-.42-1.26h0l-.14-.42a2.57,2.57,0,0,0-.14-.42c0,.09.14.19.42.28a8.46,8.46,0,0,0,1.17.28c.56.09,1.21.19,2.05.28s1.81.18,2.93.23c.14.84.38,1.63.56,2.42s.47,1.54.7,2.29a16.38,16.38,0,0,0,.84,2.14,21,21,0,0,0,.93,2c-.93-.14-1.72-.28-2.42-.42a11.48,11.48,0,0,1-1.77-.47,7.51,7.51,0,0,1-1.17-.46Z"/><path class="cls-3" d="M71.34,42.85a22.58,22.58,0,0,1-.88,2.7s-.28.75-.75,1.73a26.81,26.81,0,0,1-2.37,4,3.4,3.4,0,0,1-1.73.89,29,29,0,0,1-3.91.74c-1.68.24-3.64.42-5.87.52s-4.8.18-7.46.23c.1-.65.14-1.35.19-2s.14-1.49.19-2.24.09-1.58.14-2.42.09-1.72.14-2.61c3.35,0,6.47-.05,9.27-.14s5.17-.19,7.13-.33,3.4-.28,4.38-.46S71.3,43,71.34,42.85Z"/><path class="cls-3" d="M19.39,36.14A25.81,25.81,0,0,1,19.72,32c0-.05.14-.1.37-.14l1.16-.19c.56-.05,1.22-.09,2.05-.19s1.87-.09,3-.18c0,.42-.09.79-.14,1.21s0,.79-.09,1.21-.05.84-.05,1.21v2.38c0,.37.05.74.05,1.12a10.38,10.38,0,0,0,.09,1.11c0,.38,0,.75.1,1.08l-3-.14-2.05-.14A5.52,5.52,0,0,1,20,40.1c-.23-.05-.37-.09-.37-.14A31.62,31.62,0,0,1,19.39,36.14Z"/><path class="cls-3" d="M71.86,31.53A26,26,0,0,1,72,40c0,.09-.51.23-1.49.32s-2.52.19-4.47.28-4.48.19-7.32.24-6.1.09-9.6.09v-7.5c0-.47,0-.89,0-1.31a11.3,11.3,0,0,0-.05-1.3c3.45,0,6.66,0,9.55,0l7.32.14c2,0,3.44.14,4.42.24S71.81,31.39,71.86,31.53Z"/><path class="cls-3" d="M84.16,19h1.63v9.23H84.16Z"/><path class="cls-3" d="M87.65,22h1.49v1h0a2,2,0,0,1,1.91-1.16,2.17,2.17,0,0,1,2.28,2.46v4H91.8V25.1c0-.7,0-1.82-1.17-1.82a1.41,1.41,0,0,0-1.44,1.58v3.41H87.61V22Z"/><path class="cls-3" d="M94.32,23.33V22h1.3V20.16H97.2V22h1.73v1.36H97.2v2.75c0,.6.19,1,.89,1a1.61,1.61,0,0,0,.84-.19v1.31a3.77,3.77,0,0,1-1.26.19c-1.68,0-2-.75-2-2.24V23.33Z"/><path class="cls-3" d="M101.44,25.66a1.61,1.61,0,0,0,1.68,1.49,2.07,2.07,0,0,0,1.68-.84l1.12.84a3.39,3.39,0,0,1-2.66,1.26,3.31,3.31,0,1,1,0-6.62c1.77,0,2.94,1.21,2.94,3.4v.47Zm3.22-1.17A1.42,1.42,0,0,0,103.08,23a1.6,1.6,0,0,0-1.64,1.49Z"/><path class="cls-3" d="M107.69,22h1.58v1h0a2,2,0,0,1,1.86-1.16,2.62,2.62,0,0,1,.56.09v1.49a6.29,6.29,0,0,0-.74-.14,1.57,1.57,0,0,0-1.68,1.59v3.35h-1.59V22Z"/><path class="cls-3" d="M112.72,22h1.49v1h.05a2,2,0,0,1,1.91-1.16,2.17,2.17,0,0,1,2.28,2.46v4h-1.58V25.1c0-.7-.05-1.82-1.17-1.82a1.41,1.41,0,0,0-1.44,1.58v3.41h-1.59V22Z"/><path class="cls-3" d="M124.09,27.38h0a2.36,2.36,0,0,1-2,1,2,2,0,0,1-2.28-1.87c0-2.05,2.37-2.19,4-2.19h.37v-.19c0-.79-.61-1.16-1.44-1.16a2.58,2.58,0,0,0-1.68.65l-.84-.84a3.72,3.72,0,0,1,2.65-1c2.66,0,2.66,1.91,2.66,2.79v3.59H124v-.79Zm-.09-2h-.33c-.84,0-2.33,0-2.33,1,0,.56.61.84,1.12.84,1.07,0,1.58-.56,1.58-1.44v-.38Z"/><path class="cls-3" d="M126.42,23.33V22h1.3V20.16h1.59V22H131v1.36h-1.72v2.75c0,.6.18,1,.88,1a1.58,1.58,0,0,0,.84-.19v1.31a3.7,3.7,0,0,1-1.26.19c-1.67,0-2.05-.75-2.05-2.24V23.33Z"/><path class="cls-3" d="M133.36,18.9a.93.93,0,1,1,0,1.86,1,1,0,0,1-1-.93A.93.93,0,0,1,133.36,18.9ZM132.57,22h1.58v6.25h-1.58Z"/><path class="cls-3" d="M139,21.84a3.31,3.31,0,1,1-3.4,3.3A3.22,3.22,0,0,1,139,21.84ZM139,27a1.78,1.78,0,0,0,1.82-1.87A1.8,1.8,0,0,0,139,23.28,1.87,1.87,0,0,0,139,27Z"/><path class="cls-3" d="M143.75,22h1.49v1h0a2,2,0,0,1,1.91-1.16,2.17,2.17,0,0,1,2.28,2.46v4H147.9V25.1c0-.7-.05-1.82-1.17-1.82a1.41,1.41,0,0,0-1.44,1.58v3.41h-1.58V22Z"/><path class="cls-3" d="M155.12,27.38h0a2.35,2.35,0,0,1-2.05,1,2,2,0,0,1-2.28-1.87c0-2.05,2.37-2.19,4-2.19h.37v-.19c0-.79-.6-1.16-1.44-1.16a2.58,2.58,0,0,0-1.68.65l-.84-.84a3.73,3.73,0,0,1,2.66-1c2.65,0,2.65,1.91,2.65,2.79v3.59h-1.39v-.79Zm-.09-2h-.33c-.84,0-2.33,0-2.33,1,0,.56.61.84,1.12.84,1.07,0,1.59-.56,1.59-1.44v-.38Z"/><path class="cls-3" d="M158.24,18.39h1.59v9.88h-1.59Z"/><path class="cls-3" d="M90.54,33.3a2.63,2.63,0,0,0-2-.93,3.11,3.11,0,0,0-3.16,3.3,3.18,3.18,0,0,0,3.16,3.45A2.63,2.63,0,0,0,90.68,38L92,39a4,4,0,0,1-3.45,1.63,4.62,4.62,0,0,1-4.89-4.8,4.64,4.64,0,0,1,4.89-4.89,4,4,0,0,1,3.22,1.45Z"/><path class="cls-3" d="M97.11,39.49h0a2.35,2.35,0,0,1-2,1,2,2,0,0,1-2.28-1.86c0-2,2.37-2.19,4-2.19h.37v-.19c0-.79-.6-1.17-1.44-1.17a2.54,2.54,0,0,0-1.68.66l-.84-.84a3.74,3.74,0,0,1,2.66-1c2.65,0,2.65,1.91,2.65,2.8v3.59h-1.4v-.8Zm0-2h-.32c-.84,0-2.33,0-2.33,1,0,.56.6.83,1.12.83,1.07,0,1.58-.55,1.58-1.44v-.37Z"/><path class="cls-3" d="M100.23,34.09h1.49v1h0A2,2,0,0,1,103.68,34,2.17,2.17,0,0,1,106,36.42v4h-1.58V37.21c0-.7,0-1.82-1.16-1.82A1.41,1.41,0,0,0,101.77,37v3.4h-1.58V34.09Z"/><path class="cls-3" d="M111.93,36a1.79,1.79,0,0,0-1.17-.61A1.77,1.77,0,0,0,109,37.26a1.79,1.79,0,0,0,1.81,1.86,1.39,1.39,0,0,0,1.21-.6l1,1.11a3.49,3.49,0,0,1-2.24.89,3.31,3.31,0,1,1,0-6.62,3.12,3.12,0,0,1,2.29.94Z"/><path class="cls-3" d="M115.1,37.77a1.6,1.6,0,0,0,1.67,1.49,2,2,0,0,0,1.68-.84l1.12.84a3.36,3.36,0,0,1-2.66,1.26,3.31,3.31,0,1,1,0-6.62c1.77,0,2.94,1.21,2.94,3.4v.47Zm3.21-1.16a1.42,1.42,0,0,0-1.58-1.5,1.6,1.6,0,0,0-1.63,1.5Z"/><path class="cls-3" d="M121.34,34.09h1.58v1h0a2,2,0,0,1,1.87-1.17,2.13,2.13,0,0,1,.55.1v1.49a4.74,4.74,0,0,0-.74-.14A1.57,1.57,0,0,0,123,36.93v3.36h-1.58v-6.2Z"/><path class="cls-3" d="M138.63,39.68a8,8,0,0,1-3.82.93,4.62,4.62,0,0,1-4.9-4.8,4.65,4.65,0,0,1,4.9-4.89,5.16,5.16,0,0,1,3.63,1.17l-1.21,1.21a3.6,3.6,0,0,0-2.42-.89,3.13,3.13,0,0,0-3.17,3.31,3.19,3.19,0,0,0,3.17,3.45A4.24,4.24,0,0,0,137,38.7V36.51H135V35h3.54v4.71Z"/><path class="cls-3" d="M141.66,37.77a1.6,1.6,0,0,0,1.67,1.49,2,2,0,0,0,1.68-.84l1.12.84a3.36,3.36,0,0,1-2.66,1.26,3.31,3.31,0,1,1,0-6.62c1.77,0,2.94,1.21,2.94,3.4v.47Zm3.21-1.16a1.42,1.42,0,0,0-1.58-1.5,1.59,1.59,0,0,0-1.63,1.5Z"/><path class="cls-3" d="M147.9,34.09h1.49v1h.05A2,2,0,0,1,151.35,34a2.18,2.18,0,0,1,2.28,2.47v4h-1.58V37.21c0-.7-.05-1.82-1.17-1.82A1.41,1.41,0,0,0,149.44,37v3.4h-1.59V34.09Z"/><path class="cls-3" d="M158.43,34a3.31,3.31,0,1,1-3.4,3.31A3.23,3.23,0,0,1,158.43,34Zm0,5.17a1.77,1.77,0,0,0,1.82-1.86,1.81,1.81,0,0,0-1.82-1.87,1.87,1.87,0,0,0,0,3.73Z"/><path class="cls-3" d="M163.23,34.09h1.49v1h.05A2,2,0,0,1,166.68,34a1.88,1.88,0,0,1,1.95,1.16A2.19,2.19,0,0,1,170.68,34c1.68,0,2.24,1.16,2.24,2.7v3.73h-1.58V36.84c0-.79-.24-1.45-1.17-1.45s-1.35.8-1.35,1.64v3.4h-1.58V36.7c0-.79-.33-1.26-1.08-1.26A1.41,1.41,0,0,0,164.72,37v3.4h-1.58V34.09Z"/><path class="cls-3" d="M175.86,37.77a1.6,1.6,0,0,0,1.67,1.49,2,2,0,0,0,1.68-.84l1.12.84a3.36,3.36,0,0,1-2.66,1.26,3.31,3.31,0,1,1,0-6.62c1.77,0,2.94,1.21,2.94,3.4v.47Zm3.21-1.16a1.42,1.42,0,0,0-1.58-1.5,1.6,1.6,0,0,0-1.63,1.5Z"/><path class="cls-3" d="M90.54,45.41a2.63,2.63,0,0,0-2-.93,3.11,3.11,0,0,0-3.16,3.31,3.18,3.18,0,0,0,3.16,3.45,2.66,2.66,0,0,0,2.1-1.12l1.35,1a4.06,4.06,0,0,1-3.45,1.63,4.85,4.85,0,1,1,0-9.69,4,4,0,0,1,3.22,1.44Z"/><path class="cls-3" d="M96.09,46.06a3.31,3.31,0,1,1-3.41,3.31A3.23,3.23,0,0,1,96.09,46.06Zm0,5.18a1.77,1.77,0,0,0,1.81-1.87,1.79,1.79,0,0,0-1.81-1.86,1.77,1.77,0,0,0-1.82,1.86A1.8,1.8,0,0,0,96.09,51.24Z"/><path class="cls-3" d="M100.93,46.2h1.49v1h0a2,2,0,0,1,1.91-1.17,2.17,2.17,0,0,1,2.28,2.47v4h-1.58V49.33c0-.7,0-1.82-1.17-1.82a1.4,1.4,0,0,0-1.44,1.58v3.4h-1.54Z"/><path class="cls-3" d="M111.74,47.93a1.4,1.4,0,0,0-1.21-.65c-.42,0-.93.18-.93.65,0,1.12,3.4.18,3.4,2.65,0,1.5-1.44,2-2.7,2a2.93,2.93,0,0,1-2.43-1l1-1a1.91,1.91,0,0,0,1.49.79c.47,0,1-.23,1-.7,0-1.3-3.41-.28-3.41-2.65,0-1.4,1.26-2,2.52-2a2.82,2.82,0,0,1,2.24.94Z"/><path class="cls-3" d="M117.29,46.06a3.31,3.31,0,1,1-3.4,3.31A3.23,3.23,0,0,1,117.29,46.06Zm0,5.18a1.77,1.77,0,0,0,1.81-1.87,1.79,1.79,0,0,0-1.81-1.86,1.77,1.77,0,0,0-1.82,1.86A1.83,1.83,0,0,0,117.29,51.24Z"/><path class="cls-3" d="M122.13,46.2h1.59v1h0A2,2,0,0,1,125.63,46a2.25,2.25,0,0,1,.56.09V47.6a6.42,6.42,0,0,0-.75-.14,1.57,1.57,0,0,0-1.68,1.59V52.4h-1.58V46.2Z"/><path class="cls-3" d="M126.79,47.56V46.2h1.31V44.39h1.58V46.2h1.72v1.36h-1.72V50.3c0,.61.19,1,.89,1a1.55,1.55,0,0,0,.83-.19v1.31a3.68,3.68,0,0,1-1.25.18c-1.68,0-2.05-.74-2.05-2.23V47.56Z"/><path class="cls-3" d="M133.69,43.13a.93.93,0,1,1,0,1.86,1,1,0,0,1-1-.93A.91.91,0,0,1,133.69,43.13Zm-.79,3.07h1.58v6.25H132.9Z"/><path class="cls-3" d="M142,52.49h-1.49v-1h-.05a2,2,0,0,1-1.91,1.16,2.18,2.18,0,0,1-2.28-2.47v-4h1.58v3.17c0,.7,0,1.82,1.17,1.82a1.41,1.41,0,0,0,1.44-1.58V46.2H142v6.29Z"/><path class="cls-3" d="M143.85,46.2h1.49v1h0a2,2,0,0,1,1.91-1.12,1.9,1.9,0,0,1,2,1.17,2.2,2.2,0,0,1,2.05-1.17c1.68,0,2.24,1.17,2.24,2.71v3.72H152V49c0-.79-.23-1.44-1.16-1.44s-1.35.79-1.35,1.63v3.4h-1.59V48.81c0-.79-.32-1.25-1.07-1.25a1.4,1.4,0,0,0-1.44,1.58v3.4h-1.59V46.2Z"/></svg>