<svg xmlns="http://www.w3.org/2000/svg" xmlns:xlink="http://www.w3.org/1999/xlink" width="656" height="624" viewBox="0 0 656 624">
  <defs>
    <polygon id="hero-illustration-a" points="115.945 .659 0 .659 0 17.401 0 34.143 115.945 34.143 115.945 .659"/>
  </defs>
  <g fill="none" fill-rule="evenodd">
    <polygon fill="#009FDA" points="434 262.624 434 624 492 590.378 492 229"/>
    <polygon fill="#4BC6F0" points="376 590.378 434 624 434 262.624 376 229"/>
    <polygon fill="#4BC6F0" points="492 228.531 434 195 376 228.531 434 262"/>
    <polygon fill="#F5BACC" points="492 296.479 434 330 434 262.521 492 229"/>
    <polygon fill="#4BC6F0" points="376 296.479 434 330 434 262.521 376 229"/>
    <polygon fill="#4BC6F0" points="492 228.531 434 195 376 228.531 434 262"/>
    <polygon fill="#FDDB07" points="232 135.479 174 169 174 101.521 232 68"/>
    <polygon fill="#4BC6F0" points="116 135.479 174 169 174 101.521 116 68"/>
    <polygon fill="#4BC6F0" points="232 67.531 174 34 116 67.531 174 101"/>
    <polygon fill="#FFF" points="116 1 58 34.522 58 102 116 68.48"/>
    <polygon fill="#4BC6F0" points="0 1 0 68.48 58 102 58 34.522"/>
    <polygon fill="#4BC6F0" points="232 446.479 174 480 174 412.521 232 379"/>
    <polygon fill="#4BC6F0" points="232 379.531 174 346 116 379.531 174 413"/>
    <polygon fill="#4BC6F0" points="175 479.479 117 513 117 445.521 175 412"/>
    <polygon fill="#FFF" points="60 479.479 118 513 118 445.521 60 412"/>
    <polygon fill="#4BC6F0" points="176 411.531 118 378 60 411.531 118 445"/>
    <polygon fill="#009FDA" points="290 256.364 232 290 232 134.638 290 101"/>
    <polygon fill="#4BC6F0" points="174 256.364 232 290 232 134.638 174 101"/>
    <polygon fill="#4BC6F0" points="290 101.531 232 68 174 101.531 232 135"/>
    <polygon fill="#FFF" points="550 329.479 492 363 492 295.521 550 262"/>
    <polygon fill="#4BC6F0" points="434 329.479 492 363 492 295.521 434 262"/>
    <polygon fill="#4BC6F0" points="550 261.531 492 228 434 261.531 492 295"/>
    <polygon fill="#4BC6F0" points="567 413.479 625 447 625 379.521 567 346"/>
    <path fill="#FEFEFE" d="M249.534477 371.449675C249.233101 371.449675 248.945286 371.390985 248.675555 371.285646 248.404316 371.165257 248.148147 370.998218 247.935676 370.789044 247.515257 370.36618 247.274156 369.794335 247.274156 369.192393 247.274156 368.6055 247.515257 368.020112 247.935676 367.597248 248.464592 367.072053 249.248169 366.831277 249.986541 366.980257 250.12216 367.011859 250.271342 367.0555 250.408468 367.115694 250.544087 367.16084 250.664637 367.236083 250.800257 367.311325 250.920807 367.403121 251.024782 367.491908 251.13177 367.597248 251.237252 367.704092 251.326158 367.824481 251.418078 367.944869 251.493422 368.063752 251.568766 368.200694 251.629041 368.336131 251.674247 368.471568 251.717947 368.6055 251.749592 368.75749 251.778222 368.907976 251.794798 369.041908 251.794798 369.192393 251.794798 369.794335 251.568766 370.36618 251.13177 370.789044 250.708337 371.210403 250.135722 371.449675 249.534477 371.449675M372.314366 298.148218C371.681476 297.064723 372.058196 295.680257 373.14315 295.048218 374.213035 294.431228 375.600872 294.793898 376.217187 295.875888 376.850077 296.959383 376.473356 298.345354 375.403471 298.96084 375.043327 299.173024 374.650031 299.261811 374.273311 299.261811 373.489733 299.261811 372.736292 298.870549 372.314366 298.148218M347.360421 312.581277C346.7426 311.496277 347.105758 310.126859 348.189205 309.49482 349.274159 308.862782 350.645421 309.238995 351.278311 310.323995 351.896132 311.392442 351.53448 312.776908 350.464595 313.393898 350.102944 313.604578 349.711155 313.709917 349.319366 313.709917 348.550856 313.709917 347.782347 313.302102 347.360421 312.581277M322.423051 327.01283C321.788655 325.944383 322.165375 324.559917 323.250329 323.927879 324.320214 323.310888 325.706544 323.670549 326.339434 324.755549 326.957256 325.823995 326.595604 327.208461 325.51065 327.838995 325.148999 328.049675 324.75721 328.141471 324.380489 328.141471 323.596911 328.141471 322.843471 327.733655 322.423051 327.01283M297.482668 341.457927C296.849778 340.375937 297.21143 338.991471 298.296384 338.372976 299.382845 337.742442 300.7526 338.118655 301.386996 339.187102 302.003311 340.269092 301.643166 341.653558 300.573281 342.270549 300.210122 342.481228 299.81984 342.573024 299.426544 342.573024 298.658035 342.573024 297.889526 342.181762 297.482668 341.457927M272.528723 355.889481C271.895833 354.821034 272.272554 353.436568 273.357508 352.804529 274.427393 352.187539 275.813723 352.548704 276.446613 353.632199 277.064434 354.700646 276.702783 356.085112 275.617829 356.718655 275.256178 356.914286 274.864389 357.018121 274.487668 357.018121 273.705597 357.018121 272.952157 356.613316 272.528723 355.889481M399.213091 284.830859C398.911715 284.830859 398.6239 284.770665 398.354169 284.665325 398.08293 284.544937 397.826761 284.379403 397.61429 284.168723 397.404834 283.958044 397.23757 283.717267 397.132089 283.446393 397.013045 283.175519 396.95277 282.874549 396.95277 282.573578 396.95277 282.423092 396.967839 282.272607 396.996469 282.13717 397.028114 281.986684 397.07332 281.852752 397.132089 281.715811 397.192364 281.580374 397.252639 281.444937 397.344559 281.324549 397.419903 281.20416 397.508809 281.083772 397.61429 280.978432 397.721279 280.873092 397.841829 280.782801 397.96238 280.69251 398.08293 280.617267 398.21855 280.542024 398.354169 280.496879 398.489788 280.436684 398.6239 280.391539 398.776095 280.361442 399.060896 280.301248 399.363779 280.301248 399.650086 280.361442 399.800774 280.391539 399.949956 280.436684 400.070506 280.496879 400.222701 280.542024 400.343251 280.617267 400.463802 280.69251 400.599421 280.782801 400.703396 280.873092 400.810384 280.978432 400.915866 281.083772 401.004772 281.20416 401.096692 281.324549 401.172036 281.444937 401.24738 281.580374 401.307655 281.715811 401.352861 281.852752 401.396561 281.986684 401.428206 282.13717 401.456836 282.272607 401.473412 282.423092 401.473412 282.573578 401.473412 282.874549 401.413137 283.175519 401.307655 283.446393 401.187105 283.717267 401.019841 283.958044 400.810384 284.168723 400.599421 284.379403 400.35832 284.544937 400.087082 284.665325 399.800774 284.770665 399.51296 284.830859 399.213091 284.830859M374.077265 217.954529C373.775889 217.954529 373.47602 217.89584 373.203275 217.7905 372.932036 217.670112 372.675866 217.503073 372.46641 217.293898 372.25394 217.083218 372.08969 216.842442 371.982701 216.555015 371.862151 216.285646 371.801875 215.998218 371.801875 215.697248 371.801875 215.110354 372.042976 214.524966 372.46641 214.102102 372.570385 213.996762 372.690935 213.907976 372.811486 213.81618 372.932036 213.740937 373.067655 213.665694 373.203275 213.6055 373.340401 213.560354 373.47602 213.516714 373.625201 213.485112 374.363573 213.336131 375.147151 213.576908 375.65949 214.102102 376.081417 214.524966 376.322518 215.110354 376.322518 215.697248 376.322518 216.299189 376.096486 216.871034 375.65949 217.293898 375.23907 217.715257 374.666456 217.954529 374.077265 217.954529M292.540853 171.124665C291.470968 170.507675 291.094247 169.123209 291.727137 168.038209 292.344958 166.969762 293.731289 166.593549 294.816243 167.225587 295.886128 167.842578 296.262848 169.227044 295.629958 170.312044 295.221594 171.032869 294.454592 171.440684 293.671014 171.440684 293.294293 171.440684 292.900997 171.335345 292.540853 171.124665M319.331686 186.639714C318.2618 186.007675 317.901656 184.623209 318.51797 183.554762 319.15086 182.471267 320.522121 182.110102 321.608582 182.727092 322.693536 183.359131 323.055188 184.743597 322.422298 185.812044 322.01544 186.532869 321.246931 186.940684 320.478422 186.940684 320.085126 186.940684 319.694844 186.848888 319.331686 186.639714M346.139094 202.138209C345.055647 201.521218 344.692488 200.136752 345.325378 199.054762 345.943199 197.986316 347.32953 197.610102 348.399415 198.242141 349.485876 198.859131 349.84602 200.243597 349.229706 201.325587 348.80778 202.049422 348.054339 202.454228 347.269254 202.454228 346.878972 202.454228 346.487183 202.350393 346.139094 202.138209M266.878222 155.924733C266.27547 155.924733 265.716417 155.70051 265.279422 155.264102 264.859002 154.841238 264.617901 154.269393 264.617901 153.667451 264.617901 153.516966 264.63297 153.383034 264.663107 153.231044 264.693245 153.080558 264.738451 152.946626 264.798727 152.811189 264.859002 152.674248 264.919277 152.538811 265.00969 152.418422 265.085034 152.298034 265.175447 152.177646 265.279422 152.072306 265.808337 151.545607 266.591915 151.306335 267.330286 151.455316 267.465906 151.485413 267.616594 151.530558 267.752213 151.590752 267.887832 151.635898 268.023451 151.711141 268.144002 151.801432 268.264552 151.87818 268.385103 151.966966 268.475516 152.072306 268.897442 152.493665 269.153612 153.067015 269.153612 153.667451 269.153612 154.269393 268.912511 154.841238 268.475516 155.264102 268.053589 155.70051 267.496043 155.924733 266.878222 155.924733"/>
    <polygon fill="#4BC6F0" points="655.936 361.512 624.811 379.522 655.936 397.501"/>
    <polygon fill="#4BC6F0" points="655.936 397.5 624.811 379.523 624.811 446.93 655.936 464.907"/>
    <polygon fill="#4BC6F0" points="655.936 330.472 624.811 312.462 566.839 346.008 624.811 379.492 655.936 361.514"/>
    <mask id="hero-illustration-b" fill="#fff">
      <use xlink:href="#hero-illustration-a"/>
    </mask>
    <polygon fill="#4BC6F0" points="57.973 34.143 115.945 .659 0 .659" mask="url(#hero-illustration-b)"/>
  </g>
</svg>
