<svg xmlns="http://www.w3.org/2000/svg" xmlns:xlink="http://www.w3.org/1999/xlink" width="380" height="388" viewBox="0 0 380 388">
  <defs>
    <polygon id="product-splash-fg-a" points="296.165 .884 306.141 .884 306.141 10.859 296.165 10.859 296.165 .884"/>
  </defs>
  <g fill="none" fill-rule="evenodd">
    <path fill="#00A1D9" d="M212.161866,101 L140,141.335956 L140,192.079074 C140.649993,232.086808 173.804693,263.639039 213.461852,262.990169 C252.145286,262.338775 283.350007,231.112241 284,192.404771 L284,141.335956 L212.161866,101 Z"/>
    <path fill="#04518C" d="M211,122 L156,152.865042 L156,191.753424 C156,222.306954 180.579523,247 211,247 C241.420477,247 266,222.306954 266,191.753424 L266,152.865042 L211,122 Z"/>
    <path fill="#00A1D9" d="M208.557421,214 L179.331903,184.660546 C176.222699,181.541736 176.222699,176.48373 179.331903,173.367435 C182.438602,170.246109 187.471955,170.246109 190.581159,173.367435 L208.557421,191.413777 L263.42072,136.339108 C266.527418,133.220297 271.563277,133.220297 274.669976,136.339108 C277.776675,139.457918 277.776675,144.515924 274.669976,147.632219 L208.557421,214 Z"/>
    <path fill="#04518C" d="M257.957553 312.36953C258.408527 307.700987 255.214745 303.524697 250.818366 303.045537 246.424451 302.563758 242.493832 305.959775 242.042858 310.630936 241.58942 315.299479 244.785666 319.47315 249.182045 319.954929 253.57596 320.43409 257.506579 317.038072 257.957553 312.36953M28.9494826 202.47279C29.4857925 197.252715 25.6907615 192.586826 20.4732323 192.050517 15.2531494 191.514208 10.5872533 195.309233 10.0509434 200.529308 9.51207962 205.74683 13.3096645 210.412719 18.5271936 210.949028 23.7472766 211.487891 28.4131727 207.692865 28.9494826 202.47279"/>
    <path fill="#04518C" d="M208.857963 318C201.47944 318 194.085745 317.623156 186.697108 316.866956 114.300092 309.468253 51.2362255 266.580898 18 202.148118L20.2479462 201C53.0947637 264.674068 115.415215 307.056451 186.955027 314.369737 208.291551 316.547895 229.666005 315.540465 250.501861 311.365034L251 313.829594C237.138087 316.605677 223.028368 318 208.857963 318M238.917285 374.086701C239.794062 365.570692 233.600555 357.959556 225.085121 357.082721 216.572236 356.205885 208.959066 362.39981 208.08229 370.91327 207.208063 379.42928 213.39902 387.042964 221.914454 387.91725 230.429888 388.794086 238.040509 382.60271 238.917285 374.086701M135.928194 48.881719C136.690315 41.465217 131.299016 34.8339917 123.883093 34.0718113 116.467171 33.309631 109.836463 38.701351 109.071776 46.1178531 108.309655 53.5343551 113.70352 60.1655804 121.119443 60.9277608 128.535366 61.6925073 135.166073 56.2982211 135.928194 48.881719"/>
    <path fill="#04518C" d="M225.850848 377C223.107976 376.838562 220.339823 376.616584 217.622231 376.334067 168.306139 371.271464 123.922163 347.350853 92.6382469 308.978995 61.3543311 270.604614 46.9220179 222.372409 51.9957003 173.166529 57.1603904 123.087874 81.7779881 78.2786645 121.315802 47L122.888213 48.9750963C83.8863344 79.8299853 59.6024318 124.028756 54.5085255 173.423821 49.503099 221.961246 63.7407566 269.535085 94.5974416 307.384792 125.454127 345.237021 169.236441 368.834755 217.880086 373.826729 220.562287 374.104201 223.292519 374.321134 226 374.482572L225.850848 377zM379.531421 148.418451C380.579878 142.567251 376.677707 136.976996 370.814392 135.930705 364.951078 134.884415 359.34925 138.781033 358.300792 144.629724 357.252335 150.480924 361.154507 156.071178 367.017821 157.117469 372.881135 158.16376 378.482964 154.269651 379.531421 148.418451"/>
    <path fill="#04518C" d="M306.06224,6.74864 C306.54704,4.03664 304.74224,1.44704 302.03024,0.96224 C299.32064,0.47744 296.72864,2.28224 296.24384,4.99424 C295.75904,7.70384 297.56384,10.29584 300.27584,10.78064 C302.98784,11.26544 305.57744,9.46064 306.06224,6.74864"/>
    <path fill="#04518C" d="M369.768482 148L367.456473 147.025368C370.360276 140.010548 372.511799 132.618533 373.850858 125.056906 383.186661 72.3406993 351.86671 21.3433891 301 6.43278308L301.699621 4C353.802579 19.2726122 385.882334 71.5078319 376.318339 125.502452 374.946681 133.246348 372.745006 140.815569 369.768482 148M380 279C380 276.239892 377.7622 274 374.998652 274 372.2378 274 370 276.239892 370 279 370 281.760108 372.2378 284 374.998652 284 377.7622 284 380 281.760108 380 279M26 101C26 93.8219095 20.1801186 88 12.9986933 88 5.8198814 88 0 93.8219095 0 101 0 108.17809 5.8198814 114 12.9986933 114 20.1801186 114 26 108.17809 26 101"/>
  </g>
</svg>
