<?xml version="1.0" encoding="UTF-8"?>
<svg width="71px" height="26px" viewBox="0 0 71 26" version="1.1" xmlns="http://www.w3.org/2000/svg" xmlns:xlink="http://www.w3.org/1999/xlink">
    <!-- Generator: Sketch 52.6 (67491) - http://www.bohemiancoding.com/sketch -->
    <title>Fill 166</title>
    <desc>Created with Sketch.</desc>
    <g id="final" stroke="none" stroke-width="1" fill="none" fill-rule="evenodd">
        <g id="Artboard" transform="translate(-1272.000000, -1298.000000)" fill="#FFFFFF">
            <g id="illustration-with-maestro" transform="translate(1030.000000, 190.000000)">
                <g id="Group-304" transform="translate(235.653188, 965.272291)">
                    <path d="M71.8157037,156.57993 L69.3182309,156.552118 C68.3478059,156.541594 67.5574093,155.770741 67.5220801,154.801444 C67.4051931,151.625951 64.5442807,149.152157 61.1748536,149.88768 C60.3404834,150.072595 59.4937105,149.647141 59.1366602,148.871026 C57.5780417,145.48168 54.1627618,143.264209 50.4355327,143.222867 C47.272443,143.187913 44.2829925,144.70782 42.4391096,147.287978 C41.8644466,148.093409 40.7485705,148.291102 39.9322408,147.729969 C38.8374119,146.980163 37.5569168,146.575381 36.2275622,146.560347 C33.5233761,146.530656 31.0826555,148.115959 30.0084979,150.598774 C29.812684,151.050912 29.4432309,151.403453 28.9831998,151.577468 C28.5239204,151.751107 28.0135264,151.731939 27.5674015,151.52297 C26.996121,151.254619 26.3913906,151.115181 25.7701231,151.10804 C23.6981039,151.085114 21.8839126,152.536993 21.456204,154.560529 C21.2776788,155.408429 20.5248665,156.012032 19.6581739,156.00226 L12.3611936,155.92183 C9.28379601,155.887628 6.75212157,158.363678 6.71791991,161.441076 C6.68409409,164.518473 9.16014386,167.049772 12.2371656,167.083974 L70.7141096,167.73155 L71.6920516,167.742449 C74.7694492,167.776651 77.3011236,165.300226 77.3353253,162.222828 C77.3691511,159.145806 74.8931013,156.614132 71.8157037,156.57993" id="Fill-166"></path>
                </g>
            </g>
        </g>
    </g>
</svg>