<?xml version="1.0" encoding="UTF-8"?>
<svg width="91px" height="26px" viewBox="0 0 91 26" version="1.1" xmlns="http://www.w3.org/2000/svg" xmlns:xlink="http://www.w3.org/1999/xlink">
    <!-- Generator: Sketch 52.6 (67491) - http://www.bohemiancoding.com/sketch -->
    <title>Group</title>
    <desc>Created with Sketch.</desc>
    <g id="final" stroke="none" stroke-width="1" fill="none" fill-rule="evenodd">
        <g id="Artboard" transform="translate(-1265.000000, -1155.000000)" fill="#FFFFFF">
            <g id="illustration-with-maestro" transform="translate(1029.000000, 189.000000)">
                <g id="Group-304" transform="translate(0.653188, 0.272291)">
                    <g id="Group">
                        <path d="M319.998485,979.743467 L317.501012,979.71603 C316.531339,979.705131 315.740191,978.93503 315.704861,977.965356 C315.587598,974.79024 312.725934,972.315693 309.357635,973.051217 C308.52552,973.236507 307.676868,972.811054 307.319441,972.034563 C305.760823,968.645216 302.345543,966.427746 298.617938,966.386404 L289.08883,966.281168 C289.953643,967.109524 290.718107,968.049506 291.339374,969.097731 C295.727334,968.836896 299.489892,971.819581 300.455432,975.891458 L301.390527,975.901606 C306.472293,975.957982 310.561082,980.138477 310.504706,985.220242 C310.481404,987.319322 309.747008,989.242508 308.54356,990.780455 L319.874833,990.905986 C322.95223,990.940188 325.483905,988.463762 325.518107,985.386741 C325.551932,982.309343 323.075883,979.777668 319.998485,979.743467" id="Fill-162"></path>
                        <path d="M301.350049,979.537017 L298.852576,979.50958 C297.882151,979.498681 297.092131,978.727828 297.056426,977.758906 C296.939539,974.583038 294.078626,972.109243 290.709575,972.844767 C289.874829,973.030057 289.028056,972.604603 288.671006,971.828113 C287.112387,968.438766 283.697483,966.221296 279.969878,966.179953 C276.806788,966.145 273.817714,967.664907 271.973455,970.245065 C271.398792,971.050495 270.282916,971.248188 269.466586,970.687055 C268.371757,969.93725 267.091262,969.532468 265.761908,969.51781 C263.057722,969.487742 260.617001,971.073046 259.542843,973.555861 C259.34703,974.007999 258.977576,974.360539 258.517545,974.534554 C258.058266,974.708193 257.547872,974.689025 257.101747,974.480057 C256.530842,974.211706 255.925736,974.072268 255.304469,974.065503 C253.232449,974.042576 251.418634,975.49408 250.990925,977.517615 C250.812024,978.365516 250.059212,978.969119 249.192519,978.959347 L241.895539,978.878917 C238.818142,978.844715 236.286467,981.320765 236.252265,984.398162 C236.21844,987.47556 238.694489,990.006858 241.771511,990.04106 L300.248455,990.688637 L301.226397,990.699536 C304.303795,990.733738 306.835469,988.257312 306.869671,985.18029 C306.903497,982.102893 304.427447,979.571218 301.350049,979.537017" id="Fill-164"></path>
                    </g>
                </g>
            </g>
        </g>
    </g>
</svg>