<svg width="419" height="489" viewBox="0 0 419 489" fill="none" xmlns="http://www.w3.org/2000/svg">
<path fill-rule="evenodd" clip-rule="evenodd" d="M322.44 221.248C322.44 265.243 287.256 300.909 243.853 300.909C200.449 300.909 165.264 265.243 165.264 221.248C165.264 177.253 200.449 141.589 243.853 141.589C287.256 141.589 322.44 177.253 322.44 221.248Z" fill="#119FD6"/>
<mask id="mask0_1167_7689" style="mask-type:luminance" maskUnits="userSpaceOnUse" x="134" y="110" width="220" height="221">
<path fill-rule="evenodd" clip-rule="evenodd" d="M134.001 110.052H353.705V330.761H134.001V110.052Z" fill="white"/>
</mask>
<g mask="url(#mask0_1167_7689)">
<path fill-rule="evenodd" clip-rule="evenodd" d="M241.909 330.761C233.626 330.761 226.886 323.929 226.886 315.532C226.886 307.89 232.471 301.566 239.721 300.485V286.035H234.796C233.992 286.035 233.295 285.559 232.869 284.868C232.316 283.976 232.727 282.963 232.967 282.595L240.081 271.648C240.225 271.427 240.826 270.436 241.909 270.436C242.923 270.436 243.595 271.427 243.738 271.648L250.85 282.595C251.293 283.278 251.33 284.151 250.949 284.868C250.568 285.587 249.826 286.035 249.022 286.035H244.099V300.485C251.346 301.566 256.934 307.89 256.934 315.532C256.934 323.929 250.193 330.761 241.909 330.761ZM353.705 223.912C353.705 232.771 346.595 239.978 337.855 239.978C329.902 239.978 323.319 234.005 322.194 226.254H307.156V231.521C307.156 232.38 306.66 233.125 305.94 233.581C305.014 234.173 303.959 233.732 303.575 233.475L292.182 225.868C291.952 225.714 290.921 225.072 290.921 223.912C290.921 222.83 291.952 222.111 292.182 221.958L303.575 214.352C304.286 213.88 305.194 213.84 305.94 214.247C306.689 214.654 307.156 215.448 307.156 216.307V221.572H322.194C323.319 213.823 329.902 207.847 337.855 207.847C346.595 207.847 353.705 215.055 353.705 223.912ZM257.631 126.115C257.631 134.177 251.74 140.852 244.093 141.991V157.851H249.162C249.978 157.851 250.735 158.286 251.151 159C251.568 159.712 251.581 160.595 251.188 161.32L243.683 175.169C243.509 175.492 242.875 176.781 241.654 176.781C240.435 176.781 239.803 175.737 239.636 175.429L232.13 161.322C231.738 160.596 231.751 159.716 232.167 159.003C232.583 158.292 233.338 157.853 234.156 157.853H239.475V141.992C231.83 140.852 225.935 134.177 225.935 126.118C225.935 117.26 233.045 110.052 241.785 110.052C250.522 110.05 257.631 117.256 257.631 126.115ZM184.279 233.475C183.893 233.732 182.871 234.21 181.914 233.581C181.2 233.114 180.699 232.38 180.699 231.521V226.254H165.51C164.386 234.003 157.803 239.978 149.85 239.978C141.11 239.978 134.001 232.771 134.001 223.912C134.001 215.055 141.11 207.847 149.85 207.847C157.801 207.847 164.386 213.821 165.51 221.572H180.699V216.307C180.699 215.448 181.166 214.654 181.914 214.247C182.661 213.84 183.57 213.88 184.279 214.352L195.669 221.958C195.853 222.08 196.91 222.751 196.91 223.783C196.91 225.123 195.871 225.733 195.669 225.868L184.279 233.475Z" fill="#113154"/>
</g>
<mask id="mask1_1167_7689" style="mask-type:luminance" maskUnits="userSpaceOnUse" x="134" y="110" width="220" height="221">
<path fill-rule="evenodd" clip-rule="evenodd" d="M134 330.761H353.705V110.052H134V330.761Z" fill="white"/>
</mask>
<g mask="url(#mask1_1167_7689)">
<path fill-rule="evenodd" clip-rule="evenodd" d="M222.706 245.378H265.008V240.096H222.706V245.378ZM222.706 230.892H265.008V225.632H222.706V230.892ZM222.706 217.239H265.008V211.965H222.706V217.239ZM258.459 185.072L274.77 200.822H262.3C260.169 200.822 258.455 199.166 258.455 197.11L258.459 185.072ZM214.048 182.432C211.917 182.432 210.202 184.089 210.202 186.145V256.351C210.202 258.408 211.917 260.065 214.048 260.065H273.656C275.788 260.065 277.502 258.408 277.502 256.351V198.186L261.193 182.436L214.048 182.432Z" fill="#113154"/>
</g>
<path fill-rule="evenodd" clip-rule="evenodd" d="M367.076 354.951C361.782 348.223 352.038 347.062 345.309 352.356C338.583 357.647 337.421 367.394 342.714 374.121C348.009 380.847 357.754 382.011 364.48 376.716C371.209 371.423 372.37 361.68 367.076 354.951Z" fill="#04518C"/>
<path fill-rule="evenodd" clip-rule="evenodd" d="M64.016 189.121C59.3632 183.21 50.8005 182.186 44.8893 186.839C38.9781 191.491 37.9554 200.054 42.6064 205.967C47.2593 211.879 55.8238 212.9 61.735 208.248C67.6479 203.597 68.6689 195.033 64.016 189.121Z" fill="#04518C"/>
<path fill-rule="evenodd" clip-rule="evenodd" d="M360.09 365.391C357.977 367.209 355.802 369.001 353.622 370.713C314.104 401.831 264.887 415.737 215.033 409.875C165.176 404.011 120.655 379.077 89.666 339.668C58.1282 299.558 44.4855 249.558 51.2572 198.879L53.7957 199.208C47.116 249.199 60.5717 298.52 91.6791 338.082C122.246 376.956 166.162 401.548 215.337 407.332C264.514 413.117 313.064 399.4 352.042 368.706C354.193 367.015 356.336 365.246 358.424 363.453L360.09 365.391Z" fill="#04518C"/>
<path fill-rule="evenodd" clip-rule="evenodd" d="M412.832 125.428C410.599 119.617 404.079 116.716 398.267 118.949C392.456 121.183 389.557 127.705 391.789 133.514C394.022 139.325 400.542 142.226 406.353 139.993C412.165 137.76 415.065 131.24 412.832 125.428Z" fill="#04518C"/>
<path fill-rule="evenodd" clip-rule="evenodd" d="M273.917 40.7433C272.893 38.0793 269.906 36.7511 267.242 37.7749C264.58 38.7974 263.249 41.7865 264.273 44.4505C265.296 47.1123 268.285 48.4427 270.949 47.4189C273.613 46.3951 274.941 43.4072 273.917 40.7433Z" fill="#04518C"/>
<path fill-rule="evenodd" clip-rule="evenodd" d="M403.703 129.727L401.186 130.089C400.009 122.458 397.981 114.893 395.159 107.606C375.49 56.8024 321.495 28.7974 269.563 42.4628L268.889 39.9774C322.082 25.9796 377.388 54.6646 397.532 106.701C400.421 114.164 402.499 121.91 403.703 129.727Z" fill="#04518C"/>
<path fill-rule="evenodd" clip-rule="evenodd" d="M418.177 311.084C418.177 308.232 415.865 305.917 413.009 305.917C410.156 305.917 407.843 308.232 407.843 311.084C407.843 313.936 410.156 316.251 413.009 316.251C415.865 316.251 418.177 313.936 418.177 311.084Z" fill="#04518C"/>
<path fill-rule="evenodd" clip-rule="evenodd" d="M111.305 90.1524C111.305 82.8902 105.417 77 98.1511 77C90.8882 77 85.0001 82.8902 85.0001 90.1524C85.0001 97.4146 90.8882 103.305 98.1511 103.305C105.417 103.305 111.305 97.4146 111.305 90.1524Z" fill="#04518C"/>
</svg>
