<svg width="538" height="563" viewBox="0 0 538 563" fill="none" xmlns="http://www.w3.org/2000/svg">
<mask id="mask0_1329_6659" style="mask-type:alpha" maskUnits="userSpaceOnUse" x="0" y="0" width="538" height="563">
<rect width="538" height="563" fill="#D9D9D9"/>
</mask>
<g mask="url(#mask0_1329_6659)">
<path fill-rule="evenodd" clip-rule="evenodd" d="M285.047 53.77C286.902 48.2983 292.842 45.3666 298.313 47.222L451.087 99.0253C456.559 100.881 459.49 106.821 457.635 112.292C455.78 117.764 449.84 120.696 444.368 118.84L291.595 67.037C286.123 65.1816 283.191 59.2418 285.047 53.77Z" fill="#167BAB"/>
<path fill-rule="evenodd" clip-rule="evenodd" d="M298.282 14.7343C300.138 9.26252 306.077 6.33088 311.549 8.18627L464.323 59.9896C469.794 61.845 472.726 67.7848 470.871 73.2566C469.015 78.7283 463.075 81.6599 457.604 79.8046L304.83 28.0013C299.358 26.1459 296.427 20.206 298.282 14.7343Z" fill="#167BAB"/>
<path fill-rule="evenodd" clip-rule="evenodd" d="M335.315 -62.8249C337.17 -68.2967 343.11 -71.2283 348.582 -69.3729L501.356 -17.5696C506.827 -15.7142 509.759 -9.7744 507.904 -4.30265C506.048 1.16911 500.108 4.10074 494.637 2.24535L341.863 -49.558C336.391 -51.4133 333.46 -57.3532 335.315 -62.8249Z" fill="#167BAB"/>
<path fill-rule="evenodd" clip-rule="evenodd" d="M241.105 183.36C242.961 177.888 248.9 174.957 254.372 176.812L407.146 228.615C412.617 230.471 415.549 236.411 413.694 241.882C411.838 247.354 405.898 250.286 400.427 248.43L247.653 196.627C242.181 194.772 239.25 188.832 241.105 183.36Z" fill="#167BAB"/>
<path fill-rule="evenodd" clip-rule="evenodd" d="M210.196 274.509C212.052 269.037 217.991 266.106 223.463 267.961L376.237 319.764C381.708 321.62 384.64 327.559 382.785 333.031C380.929 338.503 374.989 341.435 369.518 339.579L216.744 287.776C211.272 285.921 208.341 279.981 210.196 274.509Z" fill="#167BAB"/>
<path fill-rule="evenodd" clip-rule="evenodd" d="M151.071 448.88C152.927 443.409 158.867 440.477 164.338 442.332L317.112 494.136C322.584 495.991 325.515 501.931 323.66 507.403C321.805 512.874 315.865 515.806 310.393 513.951L157.619 462.147C152.148 460.292 149.216 454.352 151.071 448.88Z" fill="#167BAB"/>
<path fill-rule="evenodd" clip-rule="evenodd" d="M126.478 521.403C128.334 515.931 134.274 513 139.745 514.855L292.519 566.658C297.991 568.514 300.922 574.454 299.067 579.925C297.212 585.397 291.272 588.329 285.8 586.473L133.026 534.67C127.555 532.815 124.623 526.875 126.478 521.403Z" fill="#167BAB"/>
<path fill-rule="evenodd" clip-rule="evenodd" d="M138.775 485.141C140.631 479.67 146.571 476.738 152.042 478.593L304.816 530.397C310.288 532.252 313.219 538.192 311.364 543.664C309.508 549.136 303.569 552.067 298.097 550.212L145.323 498.408C139.852 496.553 136.92 490.613 138.775 485.141Z" fill="#167BAB"/>
<path fill-rule="evenodd" clip-rule="evenodd" d="M194.744 320.083C196.599 314.612 202.539 311.68 208.011 313.535L360.784 365.339C366.256 367.194 369.187 373.134 367.332 378.606C365.477 384.077 359.537 387.009 354.065 385.154L201.292 333.35C195.82 331.495 192.888 325.555 194.744 320.083Z" fill="#167BAB"/>
<path fill-rule="evenodd" clip-rule="evenodd" d="M225.651 228.934C227.506 223.462 233.446 220.53 238.918 222.386L391.692 274.189C397.163 276.045 400.095 281.984 398.24 287.456C396.384 292.928 390.444 295.86 384.973 294.004L232.199 242.201C226.727 240.345 223.796 234.406 225.651 228.934Z" fill="#167BAB"/>
<path fill-rule="evenodd" clip-rule="evenodd" d="M338.545 -64.4055C349.489 -60.6947 355.352 -48.8151 351.641 -37.8716L330.371 24.8566L330.366 24.8703C324.142 43.1429 321.435 90.0133 364.867 122.585C425.004 167.684 429.344 225.699 421.136 253.292L421.023 253.671L382.829 366.311L382.789 366.423C373.74 392.143 337.89 432.986 265.728 438.39C228.022 441.213 206.353 450.153 193.968 458.732C181.859 467.12 177.394 476.001 175.537 481.479L152.222 550.237C148.511 561.181 136.631 567.044 125.688 563.333C114.744 559.622 108.881 547.743 112.592 536.799L135.907 468.041C140.264 455.191 149.728 438.471 170.14 424.332C190.275 410.385 219.721 399.871 262.603 396.66C319.197 392.422 340.03 361.69 343.284 352.623L381.118 241.046C384.416 229.302 385.035 190.017 339.76 156.063C277.377 109.279 280.719 40.8604 290.75 11.3929L312.011 -51.3095C315.722 -62.253 327.602 -68.1163 338.545 -64.4055Z" fill="url(#paint0_linear_1329_6659)"/>
<path fill-rule="evenodd" clip-rule="evenodd" d="M-102.802 1142.73C-92.0478 1146.96 -79.9026 1141.67 -75.6752 1130.91L-51.4437 1069.27L-51.4384 1069.25C-44.4013 1051.28 -16.2226 1013.73 37.9743 1016.87C113.017 1021.23 153.772 979.711 165.308 953.335L165.466 952.973L208.979 842.279L209.021 842.167C218.706 816.681 217.677 762.345 166.038 711.649C139.056 685.159 128.272 664.347 124.347 649.801C120.51 635.579 122.831 625.914 124.947 620.53L151.508 552.96C155.735 542.205 150.444 530.06 139.69 525.832C128.935 521.605 116.79 526.896 112.562 537.651L86.0016 605.221C81.0376 617.849 77.4774 636.729 83.946 660.702C90.327 684.35 106.036 711.384 136.722 741.51C177.22 781.269 173.301 818.19 169.936 827.216L126.835 936.865C121.775 947.965 96.8966 978.375 40.3992 975.096C-37.4465 970.577 -79.0454 1025 -90.3991 1053.98L-114.621 1115.6C-118.848 1126.36 -113.557 1138.5 -102.802 1142.73Z" fill="url(#paint1_linear_1329_6659)"/>
<path fill-rule="evenodd" clip-rule="evenodd" d="M288.82 579.681C278.052 575.488 265.924 580.818 261.731 591.586L237.696 653.308L237.69 653.321C230.711 671.319 202.652 708.96 148.445 705.986C73.3886 701.87 32.7667 743.516 21.3145 769.928L21.1573 770.291L-22.002 881.123L-22.044 881.235C-31.6476 906.752 -30.4453 961.084 21.3545 1011.62C48.4206 1038.02 59.2705 1058.8 63.2418 1073.33C67.1245 1087.54 64.8346 1097.21 62.7354 1102.6L36.39 1170.26C32.1969 1181.03 37.5268 1193.15 48.2947 1197.35C59.0626 1201.54 71.191 1196.21 75.3841 1185.44L101.73 1117.79C106.653 1105.14 110.153 1086.25 103.608 1062.3C97.1521 1038.67 81.3567 1011.69 50.5753 981.662C9.95094 942.032 13.7517 905.099 17.088 896.062L59.8399 786.275C64.8639 775.16 89.6457 744.671 146.153 747.77C224.013 752.041 265.438 697.486 276.7 668.467L300.725 606.771C304.918 596.003 299.588 583.874 288.82 579.681Z" fill="url(#paint2_linear_1329_6659)"/>
<path fill-rule="evenodd" clip-rule="evenodd" d="M489.085 -13.3596C478.141 -17.0704 466.261 -11.2071 462.551 -0.26361L441.28 62.4645L441.276 62.4782C435.102 80.768 408.743 119.618 354.457 119.055C279.292 118.276 240.56 161.685 230.292 188.58L230.151 188.949L191.956 301.589L191.919 301.702C183.459 327.621 187.073 381.846 241.065 430.027C269.277 455.202 281.039 475.478 285.652 489.821C290.162 503.844 288.304 513.608 286.446 519.087L263.132 587.845C259.421 598.789 265.284 610.668 276.228 614.379C287.171 618.09 299.051 612.226 302.761 601.283L326.076 532.525C330.434 519.675 333.091 500.647 325.489 477.009C317.99 453.691 301.012 427.436 268.927 398.805C226.583 361.018 228.74 323.953 231.671 314.777L269.505 203.2C274.031 191.872 297.434 160.312 354.024 160.899C431.996 161.708 470.958 105.368 480.919 75.8767L502.181 13.1743C505.891 2.23083 500.028 -9.64883 489.085 -13.3596Z" fill="url(#paint3_linear_1329_6659)"/>
<ellipse cx="263.24" cy="159.258" rx="46.3596" ry="46.2577" fill="white"/>
<path fill-rule="evenodd" clip-rule="evenodd" d="M263.303 120.067L228.542 139.553V164.066C228.802 180.124 239.871 193.362 254.564 197.201C257.556 197.983 260.698 198.375 263.929 198.322C282.563 198.007 297.595 182.922 297.908 164.223V139.553L263.303 120.067Z" fill="#00A1D9"/>
<path fill-rule="evenodd" clip-rule="evenodd" d="M263.225 129.849L236.799 144.744V163.512C236.799 178.257 248.609 190.174 263.225 190.174C277.84 190.174 289.65 178.257 289.65 163.512V144.744L263.225 129.849Z" fill="#04518C"/>
<path fill-rule="evenodd" clip-rule="evenodd" d="M262.345 173.87L247.864 160.117C246.324 158.655 246.324 156.285 247.864 154.824C249.404 153.361 251.898 153.361 253.438 154.824L262.345 163.283L289.528 137.467C291.068 136.005 293.563 136.005 295.102 137.467C296.641 138.929 296.641 141.3 295.102 142.761L262.345 173.87Z" fill="#00A1D9"/>
<ellipse cx="444.241" cy="97.3089" rx="46.3596" ry="46.3087" fill="white"/>
<path fill-rule="evenodd" clip-rule="evenodd" d="M417.645 117.47V106.868C417.645 106.461 417.727 106.134 417.809 105.808C423.206 109.886 435.144 111.517 445.775 110.701C445.938 109.967 446.184 109.233 446.511 108.499C433.509 109.641 417.645 107.031 417.645 100.671V90.0695C417.645 89.9064 417.645 89.7433 417.727 89.4987C426.558 96.5118 454.279 96.5118 463.193 89.4987V90.0695V97.8165C472.433 98.1427 479.874 105.727 479.874 115.105C479.874 124.564 472.106 132.311 462.538 132.311C456.733 132.311 451.581 129.457 448.473 125.135C435.144 126.684 417.645 124.156 417.645 117.47Z" fill="#04518C"/>
<path fill-rule="evenodd" clip-rule="evenodd" d="M465.564 123.91H459.513V118.039H453.625V112.086H459.513V106.214H465.564V112.086H471.37V118.039H465.564V123.91Z" fill="black"/>
<path fill-rule="evenodd" clip-rule="evenodd" d="M476.277 115.104C476.277 122.688 470.144 128.804 462.539 128.804C454.934 128.804 448.801 122.688 448.801 115.104C448.801 107.52 454.934 101.322 462.539 101.322C470.144 101.322 476.277 107.52 476.277 115.104Z" fill="#00A1D9"/>
<path fill-rule="evenodd" clip-rule="evenodd" d="M463.193 84.5234C463.193 95.2877 417.645 95.2877 417.645 84.5234V73.9222C417.645 63.1579 463.193 63.1579 463.193 73.9222V84.5234Z" fill="#04518C"/>
<path fill-rule="evenodd" clip-rule="evenodd" d="M457.056 109.706C457.056 109.04 457.555 108.5 458.17 108.5H467.461C468.077 108.5 468.576 109.04 468.576 109.706C468.576 110.372 468.077 110.912 467.461 110.912H458.17C457.555 110.912 457.056 110.372 457.056 109.706Z" fill="#04518C"/>
<path fill-rule="evenodd" clip-rule="evenodd" d="M456.594 109.705L460.944 104.999C461.379 104.528 462.085 104.528 462.52 104.999C462.955 105.47 462.955 106.233 462.52 106.704L459.746 109.705L462.52 112.706C462.955 113.177 462.955 113.94 462.52 114.411C462.085 114.882 461.379 114.882 460.944 114.411L456.594 109.705Z" fill="#04518C"/>
<path fill-rule="evenodd" clip-rule="evenodd" d="M467.112 121.587H457.822C457.206 121.587 456.707 121.047 456.707 120.381C456.707 119.715 457.206 119.176 457.822 119.176H467.112C467.728 119.176 468.227 119.715 468.227 120.381C468.227 121.047 467.728 121.587 467.112 121.587Z" fill="#04518C"/>
<path fill-rule="evenodd" clip-rule="evenodd" d="M468.689 120.382L464.339 125.088C463.904 125.559 463.198 125.559 462.763 125.088C462.328 124.617 462.328 123.854 462.763 123.383L465.537 120.382L462.763 117.381C462.328 116.91 462.328 116.147 462.763 115.676C463.198 115.205 463.904 115.205 464.339 115.676L468.689 120.382Z" fill="#04518C"/>
<circle cx="388.24" cy="304.36" r="46.3596" fill="white"/>
<path fill-rule="evenodd" clip-rule="evenodd" d="M413.683 304.601C413.683 318.793 402.317 330.297 388.295 330.297C374.274 330.297 362.907 318.793 362.907 304.601C362.907 290.409 374.274 278.905 388.295 278.905C402.317 278.905 413.683 290.409 413.683 304.601" fill="#119FD6"/>
<mask id="mask1_1329_6659" style="mask-type:luminance" maskUnits="userSpaceOnUse" x="352" y="268" width="72" height="72">
<path fill-rule="evenodd" clip-rule="evenodd" d="M352.807 268.732H423.783V339.927H352.807V268.732Z" fill="white"/>
</mask>
<g mask="url(#mask1_1329_6659)">
<path fill-rule="evenodd" clip-rule="evenodd" d="M387.667 339.927C384.992 339.927 382.814 337.723 382.814 335.014C382.814 332.549 384.618 330.509 386.96 330.161V325.499H385.369C385.11 325.499 384.885 325.346 384.747 325.123C384.568 324.835 384.701 324.509 384.779 324.39L387.077 320.859C387.123 320.787 387.317 320.468 387.667 320.468C387.995 320.468 388.212 320.787 388.258 320.859L390.556 324.39C390.699 324.61 390.711 324.892 390.588 325.123C390.465 325.355 390.225 325.499 389.965 325.499H388.375V330.161C390.716 330.509 392.521 332.549 392.521 335.014C392.521 337.723 390.343 339.927 387.667 339.927V339.927ZM423.783 305.46C423.783 308.318 421.486 310.643 418.663 310.643C416.094 310.643 413.967 308.716 413.603 306.216H408.745V307.915C408.745 308.192 408.585 308.432 408.352 308.579C408.053 308.77 407.712 308.628 407.588 308.545L403.908 306.091C403.834 306.042 403.501 305.834 403.501 305.46C403.501 305.111 403.834 304.879 403.908 304.83L407.588 302.376C407.818 302.224 408.111 302.211 408.352 302.343C408.595 302.474 408.745 302.73 408.745 303.007V304.706H413.603C413.967 302.206 416.094 300.278 418.663 300.278C421.486 300.278 423.783 302.603 423.783 305.46V305.46ZM392.746 273.914C392.746 276.514 390.843 278.668 388.373 279.035V284.151H390.01C390.274 284.151 390.519 284.291 390.653 284.521C390.788 284.751 390.792 285.036 390.665 285.27L388.24 289.737C388.184 289.841 387.979 290.257 387.585 290.257C387.191 290.257 386.987 289.92 386.933 289.821L384.508 285.271C384.381 285.036 384.386 284.752 384.52 284.522C384.655 284.293 384.898 284.151 385.162 284.151H386.881V279.035C384.411 278.668 382.507 276.514 382.507 273.914C382.507 271.057 384.804 268.732 387.627 268.732C390.45 268.731 392.746 271.056 392.746 273.914V273.914ZM369.05 308.545C368.925 308.628 368.595 308.782 368.286 308.579C368.055 308.429 367.893 308.192 367.893 307.915V306.216H362.987C362.624 308.715 360.497 310.643 357.928 310.643C355.104 310.643 352.807 308.318 352.807 305.46C352.807 302.603 355.104 300.278 357.928 300.278C360.496 300.278 362.624 302.205 362.987 304.706H367.893V303.007C367.893 302.73 368.044 302.474 368.286 302.343C368.527 302.211 368.821 302.224 369.05 302.376L372.729 304.83C372.789 304.869 373.13 305.086 373.13 305.419C373.13 305.851 372.795 306.048 372.729 306.091L369.05 308.545Z" fill="#113154"/>
</g>
<mask id="mask2_1329_6659" style="mask-type:luminance" maskUnits="userSpaceOnUse" x="352" y="268" width="72" height="72">
<path fill-rule="evenodd" clip-rule="evenodd" d="M352.807 339.927H423.783V268.732H352.807V339.927Z" fill="white"/>
</mask>
<g mask="url(#mask2_1329_6659)">
<path fill-rule="evenodd" clip-rule="evenodd" d="M381.464 312.385H395.129V310.681H381.464V312.385ZM381.464 307.712H395.129V306.015H381.464V307.712ZM381.464 303.308H395.129V301.606H381.464V303.308ZM393.014 292.932L398.283 298.012H394.255C393.566 298.012 393.012 297.478 393.012 296.815L393.014 292.932ZM378.667 292.08C377.978 292.08 377.424 292.614 377.424 293.278V315.924C377.424 316.588 377.978 317.122 378.667 317.122H397.923C398.612 317.122 399.166 316.588 399.166 315.924V297.162L393.897 292.081L378.667 292.08Z" fill="#113154"/>
</g>
<circle cx="214.24" cy="352.36" r="46.3596" fill="white"/>
<mask id="mask3_1329_6659" style="mask-type:luminance" maskUnits="userSpaceOnUse" x="190" y="329" width="53" height="50">
<path fill-rule="evenodd" clip-rule="evenodd" d="M190.847 329.913H242.293V378.09H190.847V329.913Z" fill="white"/>
</mask>
<g mask="url(#mask3_1329_6659)">
<path fill-rule="evenodd" clip-rule="evenodd" d="M238.852 364.325H231.969C230.076 364.325 228.528 365.873 228.528 367.766V374.648C228.528 376.541 230.076 378.09 231.969 378.09H238.852C240.744 378.09 242.293 376.541 242.293 374.648V367.766C242.293 365.873 240.744 364.325 238.852 364.325ZM221.645 364.325H214.763C212.87 364.325 211.322 365.873 211.322 367.766V374.648C211.322 376.541 212.87 378.09 214.763 378.09H221.645C223.538 378.09 225.086 376.541 225.086 374.648V367.766C225.086 365.873 223.538 364.325 221.645 364.325ZM204.439 364.325H197.556C195.664 364.325 194.115 365.873 194.115 367.766V374.648C194.115 376.541 195.664 378.09 197.556 378.09H204.439C206.332 378.09 207.88 376.541 207.88 374.648V367.766C207.88 365.873 206.332 364.325 204.439 364.325ZM238.852 347.119H231.969C230.076 347.119 228.528 348.667 228.528 350.56V357.442C228.528 359.335 230.076 360.883 231.969 360.883H238.852C240.744 360.883 242.293 359.335 242.293 357.442V350.56C242.293 348.667 240.744 347.119 238.852 347.119ZM221.645 347.119H214.763C212.87 347.119 211.322 348.667 211.322 350.56V357.442C211.322 359.335 212.87 360.883 214.763 360.883H221.645C223.538 360.883 225.086 359.335 225.086 357.442V350.56C225.086 348.667 223.538 347.119 221.645 347.119ZM203.622 345.209H195.105C192.763 345.209 190.846 347.125 190.846 349.467V357.984C190.846 360.326 192.763 362.243 195.105 362.243H203.622C205.964 362.243 207.88 360.326 207.88 357.984V349.467C207.88 347.125 205.964 345.209 203.622 345.209ZM238.852 329.913H231.969C230.076 329.913 228.528 331.462 228.528 333.354V340.237C228.528 342.129 230.076 343.678 231.969 343.678H238.852C240.744 343.678 242.293 342.129 242.293 340.237V333.354C242.293 331.462 240.744 329.913 238.852 329.913ZM221.645 329.913H214.763C212.87 329.913 211.322 331.462 211.322 333.354V340.237C211.322 342.129 212.87 343.678 214.763 343.678H221.645C223.538 343.678 225.086 342.129 225.086 340.237V333.354C225.086 331.462 223.538 329.913 221.645 329.913ZM204.439 329.913H197.556C195.664 329.913 194.115 331.462 194.115 333.354V340.237C194.115 342.129 195.664 343.678 197.556 343.678H204.439C206.332 343.678 207.88 342.129 207.88 340.237V333.354C207.88 331.462 206.332 329.913 204.439 329.913Z" fill="#04A0D8"/>
</g>
<path fill-rule="evenodd" clip-rule="evenodd" d="M194.873 364.695C188.996 364.695 184.232 359.931 184.232 354.054C184.232 348.177 188.996 343.413 194.873 343.413C200.75 343.413 205.514 348.177 205.514 354.054C205.514 359.931 200.75 364.695 194.873 364.695ZM209.225 363.702C214.553 355.776 212.446 345.032 204.521 339.705C196.595 334.377 185.851 336.483 180.523 344.409C175.196 352.335 177.302 363.079 185.228 368.406C191.061 372.327 198.687 372.327 204.521 368.406L214.47 378.351C215.814 379.603 217.918 379.529 219.17 378.185C220.36 376.908 220.36 374.928 219.17 373.651L209.225 363.702Z" fill="#133055"/>
<circle cx="316.24" cy="492.36" r="46.3596" fill="white"/>
<mask id="mask4_1329_6659" style="mask-type:luminance" maskUnits="userSpaceOnUse" x="293" y="459" width="47" height="67">
<path fill-rule="evenodd" clip-rule="evenodd" d="M293.088 459.504H339.664V525.73H293.088V459.504Z" fill="white"/>
</mask>
<g mask="url(#mask4_1329_6659)">
<path fill-rule="evenodd" clip-rule="evenodd" d="M319.704 508.203V512.503C319.704 514.484 318.373 515.81 316.377 515.81C314.377 515.81 313.05 514.484 313.05 512.503V508.203C311.05 506.88 309.723 504.896 309.723 502.581C309.723 498.282 313.715 495.305 318.04 496.294C320.366 496.959 322.365 498.943 323.031 501.255C323.693 504.235 322.029 506.88 319.704 508.203ZM336.338 486.045H306.396V476.455C306.396 471.494 309.723 467.194 314.377 466.202C320.702 465.21 326.358 469.84 326.358 476.124C326.358 478.108 328.021 479.431 329.685 479.431C331.348 479.431 333.012 478.108 333.012 476.124C333.012 466.533 324.694 458.596 314.713 459.588C306.06 460.58 299.742 468.187 299.742 476.785V486.045H296.415C294.752 486.045 293.088 487.368 293.088 489.353V522.424C293.088 524.078 294.752 525.732 296.415 525.732H336.338C338.335 525.732 339.665 524.078 339.665 522.424V489.353C339.665 487.368 338.335 486.045 336.338 486.045Z" fill="#04518C"/>
</g>
<path fill-rule="evenodd" clip-rule="evenodd" d="M323.75 502.167C323.75 506.224 320.508 509.513 316.514 509.513C312.517 509.513 309.279 506.224 309.279 502.167C309.279 498.114 312.517 494.825 316.514 494.825C320.508 494.825 323.75 498.114 323.75 502.167Z" fill="#00A1D9"/>
<path fill-rule="evenodd" clip-rule="evenodd" d="M316.674 516.786H316.153C314.235 516.786 312.669 515.194 312.669 513.257V506.919C312.669 504.978 314.235 503.389 316.153 503.389H316.674C318.588 503.389 320.154 504.978 320.154 506.919V513.257C320.154 515.194 318.588 516.786 316.674 516.786Z" fill="#00A1D9"/>
<path fill-rule="evenodd" clip-rule="evenodd" d="M325.398 -32.5438C336.152 -28.3164 348.298 -33.6076 352.525 -44.3621L376.757 -106.007L376.762 -106.02C383.799 -123.996 411.978 -161.547 466.174 -158.401C541.217 -154.045 581.972 -195.562 593.508 -221.938L593.667 -222.3L637.179 -332.994L637.221 -333.106C646.906 -358.592 645.877 -412.928 594.238 -463.624C567.256 -490.114 556.473 -510.926 552.548 -525.472C548.71 -539.694 551.031 -549.359 553.147 -554.743L579.708 -622.313C583.936 -633.068 578.644 -645.213 567.89 -649.441C557.135 -653.668 544.99 -648.377 540.763 -637.622L514.202 -570.052C509.238 -557.424 505.678 -538.544 512.146 -514.571C518.527 -490.923 534.237 -463.889 564.922 -433.763C605.42 -394.004 601.502 -357.083 598.137 -348.057L555.035 -238.407C549.976 -227.308 525.097 -196.898 468.599 -200.177C390.754 -204.696 349.155 -150.274 337.801 -121.29L313.58 -59.671C309.352 -48.9165 314.643 -36.7712 325.398 -32.5438Z" fill="url(#paint4_linear_1329_6659)"/>
<path fill-rule="evenodd" clip-rule="evenodd" d="M717.02 -595.592C706.252 -599.785 694.124 -594.455 689.931 -583.687L665.896 -521.966L665.89 -521.952C658.911 -503.955 630.852 -466.314 576.645 -469.287C501.589 -473.404 460.967 -431.757 449.514 -405.345L449.357 -404.982L406.198 -294.15L406.156 -294.038C396.552 -268.521 397.755 -214.189 449.554 -163.658C476.621 -137.254 487.47 -116.477 491.442 -101.942C495.324 -87.7331 493.035 -78.0607 490.935 -72.67L464.59 -5.01535C460.397 5.75258 465.727 17.8809 476.495 22.074C487.263 26.2672 499.391 20.9373 503.584 10.1693L529.929 -57.4853C534.853 -70.1294 538.353 -89.0199 531.808 -112.973C525.352 -136.6 509.557 -163.584 478.775 -193.612C438.151 -233.242 441.952 -270.175 445.288 -279.211L488.04 -388.998C493.064 -400.113 517.846 -430.603 574.353 -427.503C652.213 -423.233 693.638 -477.787 704.9 -506.806L728.925 -568.503C733.118 -579.271 727.788 -591.399 717.02 -595.592Z" fill="url(#paint5_linear_1329_6659)"/>
<path fill-rule="evenodd" clip-rule="evenodd" d="M262.603 396.66C285.539 394.943 302.601 388.874 315 381.659V427.807C300.939 433.151 284.572 436.979 265.728 438.39C238.95 440.395 220.261 445.485 207.241 451.34L172.121 422.992C192.192 409.713 221.107 399.768 262.603 396.66Z" fill="url(#paint6_linear_1329_6659)"/>
<rect x="47" y="297" width="501" height="266" fill="url(#paint7_linear_1329_6659)"/>
<rect x="548" y="262" width="501" height="266" transform="rotate(-180 548 262)" fill="url(#paint8_linear_1329_6659)"/>
<circle cx="316.5" cy="491.5" r="46.5" fill="white"/>
<mask id="mask5_1329_6659" style="mask-type:luminance" maskUnits="userSpaceOnUse" x="293" y="458" width="47" height="67">
<path fill-rule="evenodd" clip-rule="evenodd" d="M293.278 458.545H339.994V524.972H293.278V458.545Z" fill="white"/>
</mask>
<g mask="url(#mask5_1329_6659)">
<path fill-rule="evenodd" clip-rule="evenodd" d="M319.973 507.392V511.704C319.973 513.691 318.638 515.021 316.636 515.021C314.631 515.021 313.299 513.691 313.299 511.704V507.392C311.294 506.065 309.962 504.074 309.962 501.752C309.962 497.44 313.967 494.455 318.305 495.446C320.637 496.113 322.643 498.103 323.31 500.422C323.974 503.411 322.306 506.065 319.973 507.392ZM336.659 485.166H306.626V475.547C306.626 470.571 309.963 466.258 314.631 465.263C320.975 464.268 326.648 468.912 326.648 475.215C326.648 477.205 328.316 478.532 329.985 478.532C331.653 478.532 333.322 477.205 333.322 475.215C333.322 465.595 324.979 457.634 314.968 458.629C306.289 459.624 299.952 467.254 299.952 475.878V485.166H296.615C294.946 485.166 293.278 486.493 293.278 488.484V521.656C293.278 523.314 294.946 524.973 296.615 524.973H336.659C338.661 524.973 339.996 523.314 339.996 521.656V488.484C339.996 486.493 338.661 485.166 336.659 485.166Z" fill="#04518C"/>
</g>
<path fill-rule="evenodd" clip-rule="evenodd" d="M324.031 501.337C324.031 505.406 320.78 508.705 316.774 508.705C312.765 508.705 309.517 505.406 309.517 501.337C309.517 497.272 312.765 493.973 316.774 493.973C320.78 493.973 324.031 497.272 324.031 501.337Z" fill="#00A1D9"/>
<path fill-rule="evenodd" clip-rule="evenodd" d="M316.934 516H316.411C314.488 516 312.917 514.404 312.917 512.46V506.103C312.917 504.157 314.488 502.563 316.411 502.563H316.934C318.854 502.563 320.425 504.157 320.425 506.103V512.46C320.425 514.404 318.854 516 316.934 516Z" fill="#00A1D9"/>
<ellipse cx="444.5" cy="96.85" rx="46.5" ry="46.4489" fill="white"/>
<path fill-rule="evenodd" clip-rule="evenodd" d="M417.823 117.072V106.438C417.823 106.029 417.906 105.702 417.988 105.375C423.401 109.465 435.376 111.101 446.039 110.283C446.203 109.547 446.449 108.81 446.777 108.074C433.735 109.219 417.823 106.602 417.823 100.222V89.5887C417.823 89.4251 417.823 89.2615 417.906 89.0161C426.764 96.0505 454.569 96.0505 463.509 89.0161V89.5887V97.3592C472.777 97.6864 480.241 105.293 480.241 114.7C480.241 124.188 472.449 131.958 462.853 131.958C457.029 131.958 451.862 129.096 448.745 124.76C435.376 126.314 417.823 123.779 417.823 117.072Z" fill="#04518C"/>
<path fill-rule="evenodd" clip-rule="evenodd" d="M465.888 123.532H459.819V117.643H453.913V111.672H459.819V105.782H465.888V111.672H471.712V117.643H465.888V123.532Z" fill="black"/>
<path fill-rule="evenodd" clip-rule="evenodd" d="M476.633 114.699C476.633 122.306 470.481 128.44 462.853 128.44C455.225 128.44 449.074 122.306 449.074 114.699C449.074 107.092 455.225 100.876 462.853 100.876C470.481 100.876 476.633 107.092 476.633 114.699Z" fill="#00A1D9"/>
<path fill-rule="evenodd" clip-rule="evenodd" d="M463.509 84.0258C463.509 94.8227 417.823 94.8227 417.823 84.0258V73.3925C417.823 62.5956 463.509 62.5956 463.509 73.3925V84.0258Z" fill="#04518C"/>
<path fill-rule="evenodd" clip-rule="evenodd" d="M457.354 109.284C457.354 108.616 457.854 108.075 458.472 108.075H467.791C468.408 108.075 468.908 108.616 468.908 109.284C468.908 109.952 468.408 110.494 467.791 110.494H458.472C457.854 110.494 457.354 109.952 457.354 109.284Z" fill="#04518C"/>
<path fill-rule="evenodd" clip-rule="evenodd" d="M456.891 109.284L461.254 104.563C461.69 104.091 462.398 104.091 462.835 104.563C463.271 105.036 463.271 105.802 462.835 106.274L460.052 109.284L462.835 112.294C463.271 112.766 463.271 113.532 462.835 114.004C462.398 114.477 461.69 114.477 461.254 114.004L456.891 109.284Z" fill="#04518C"/>
<path fill-rule="evenodd" clip-rule="evenodd" d="M467.441 121.202H458.122C457.505 121.202 457.004 120.66 457.004 119.992C457.004 119.324 457.505 118.783 458.122 118.783H467.441C468.058 118.783 468.559 119.324 468.559 119.992C468.559 120.66 468.058 121.202 467.441 121.202Z" fill="#04518C"/>
<path fill-rule="evenodd" clip-rule="evenodd" d="M469.022 119.993L464.659 124.713C464.223 125.185 463.515 125.185 463.078 124.713C462.642 124.241 462.642 123.475 463.078 123.003L465.861 119.993L463.078 116.983C462.642 116.51 462.642 115.745 463.078 115.272C463.515 114.8 464.223 114.8 464.659 115.272L469.022 119.993Z" fill="#04518C"/>
</g>
<defs>
<linearGradient id="paint0_linear_1329_6659" x1="413.99" y1="-38.823" x2="201.133" y2="588.916" gradientUnits="userSpaceOnUse">
<stop stop-color="#159DD4"/>
<stop offset="1" stop-color="#123255"/>
</linearGradient>
<linearGradient id="paint1_linear_1329_6659" x1="-28.6599" y1="1171.87" x2="213.832" y2="554.977" gradientUnits="userSpaceOnUse">
<stop stop-color="#159DD4"/>
<stop offset="1" stop-color="#123255"/>
</linearGradient>
<linearGradient id="paint2_linear_1329_6659" x1="214.585" y1="550.773" x2="-25.9402" y2="1168.44" gradientUnits="userSpaceOnUse">
<stop stop-color="#159DD4"/>
<stop offset="1" stop-color="#123255"/>
</linearGradient>
<linearGradient id="paint3_linear_1329_6659" x1="413.639" y1="-38.9421" x2="200.782" y2="588.797" gradientUnits="userSpaceOnUse">
<stop stop-color="#133558"/>
<stop offset="1" stop-color="#169CD3"/>
</linearGradient>
<linearGradient id="paint4_linear_1329_6659" x1="399.54" y1="-3.39963" x2="642.032" y2="-620.296" gradientUnits="userSpaceOnUse">
<stop stop-color="#159DD4"/>
<stop offset="1" stop-color="#123255"/>
</linearGradient>
<linearGradient id="paint5_linear_1329_6659" x1="642.785" y1="-624.5" x2="402.26" y2="-6.83377" gradientUnits="userSpaceOnUse">
<stop stop-color="#159DD4"/>
<stop offset="1" stop-color="#123255"/>
</linearGradient>
<linearGradient id="paint6_linear_1329_6659" x1="413.991" y1="-38.823" x2="201.134" y2="588.916" gradientUnits="userSpaceOnUse">
<stop stop-color="#159DD4"/>
<stop offset="1" stop-color="#123255"/>
</linearGradient>
<linearGradient id="paint7_linear_1329_6659" x1="297.5" y1="297" x2="297.5" y2="563" gradientUnits="userSpaceOnUse">
<stop offset="0.609375" stop-color="#6FC3EC" stop-opacity="0"/>
<stop offset="1" stop-color="#6FC3EC"/>
</linearGradient>
<linearGradient id="paint8_linear_1329_6659" x1="798.5" y1="262" x2="798.5" y2="528" gradientUnits="userSpaceOnUse">
<stop offset="0.609375" stop-color="#6FC3EC" stop-opacity="0"/>
<stop offset="1" stop-color="#6FC3EC"/>
</linearGradient>
</defs>
</svg>
