<svg width="1468" height="804" viewBox="0 0 1468 804" fill="none" xmlns="http://www.w3.org/2000/svg">
<ellipse cx="437.804" cy="401.472" rx="437.804" ry="401.472" transform="matrix(-0.838671 -0.544639 -0.913545 0.406737 1467.87 476.89)" fill="#DFECF2"/>
<g filter="url(#filter0_d_1304_7943)">
<path d="M483.541 134.41C475.131 129.555 458.858 131.078 447.195 137.812L320.482 210.97C308.818 217.704 306.18 227.099 314.59 231.954L997.172 626.043C1005.58 630.899 1021.85 629.376 1033.52 622.642L1160.23 549.484C1171.89 542.75 1174.53 533.355 1166.12 528.499L483.541 134.41Z" fill="#0089BC"/>
</g>
<path d="M339.117 198.985H309.854V224.834H339.117V198.985Z" fill="#0089BC"/>
<path d="M483.958 110.022C475.554 105.169 459.285 106.695 447.621 113.429L320.908 186.586C309.245 193.32 306.603 202.713 315.008 207.565L997.181 601.419C1005.59 606.271 1021.85 604.746 1033.52 598.012L1160.23 524.854C1171.89 518.12 1174.54 508.727 1166.13 503.875L483.958 110.022Z" fill="#EEEEEE"/>
<path d="M483.634 109.834C475.226 104.98 458.954 106.503 447.29 113.237L320.577 186.395C308.914 193.129 306.275 202.524 314.684 207.378L997.175 601.415C1005.58 606.269 1021.85 604.746 1033.52 598.012L1160.23 524.854C1171.9 518.12 1174.53 508.726 1166.13 503.871L483.634 109.834Z" fill="url(#paint0_linear_1304_7943)"/>
<g filter="url(#filter1_d_1304_7943)">
<path d="M1091.79 458.95C1068.23 445.891 1030.03 445.891 1006.48 458.95L842.029 550.104C818.47 563.162 818.47 584.335 842.029 597.394L1006.48 688.548C1030.03 701.607 1068.23 701.607 1091.79 688.548L1256.23 597.394C1279.79 584.335 1279.79 563.162 1256.23 550.104L1091.79 458.95Z" fill="#009FDA"/>
</g>
<path fill-rule="evenodd" clip-rule="evenodd" d="M908.709 353.905C907.511 353.347 906.089 353.866 905.531 355.064L869.81 431.812L751.609 455.419C750.313 455.678 749.473 456.938 749.732 458.233C749.991 459.528 751.25 460.368 752.546 460.11L873.123 436.028L909.868 357.082C910.425 355.885 909.906 354.462 908.709 353.905Z" fill="black" fill-opacity="0.1"/>
<path fill-rule="evenodd" clip-rule="evenodd" d="M859.263 326.29C858.057 325.751 856.643 326.293 856.105 327.499L822.239 403.409L702.19 427.822C700.896 428.085 700.06 429.348 700.323 430.642C700.586 431.936 701.849 432.772 703.143 432.509L825.604 407.606L860.473 329.448C861.011 328.242 860.47 326.828 859.263 326.29Z" fill="black" fill-opacity="0.1"/>
<path fill-rule="evenodd" clip-rule="evenodd" d="M809.165 297.487C807.955 296.958 806.545 297.511 806.016 298.722L773.196 373.905L652.1 399.028C650.807 399.297 649.976 400.563 650.244 401.856C650.512 403.149 651.778 403.98 653.072 403.712L776.59 378.086L810.4 300.636C810.929 299.425 810.376 298.015 809.165 297.487Z" fill="black" fill-opacity="0.1"/>
<path fill-rule="evenodd" clip-rule="evenodd" d="M759.351 269.735C758.135 269.218 756.731 269.785 756.214 271L724.487 345.618L602.301 371.287C601.008 371.558 600.18 372.827 600.452 374.119C600.723 375.412 601.991 376.24 603.284 375.968L727.913 349.786L760.616 272.872C761.133 271.656 760.566 270.252 759.351 269.735Z" fill="black" fill-opacity="0.1"/>
<path fill-rule="evenodd" clip-rule="evenodd" d="M710.801 241.514C709.585 240.997 708.181 241.564 707.664 242.779L675.937 317.397L553.751 343.066C552.458 343.337 551.631 344.605 551.902 345.898C552.174 347.191 553.442 348.018 554.734 347.747L679.363 321.565L712.066 244.651C712.583 243.435 712.016 242.031 710.801 241.514Z" fill="black" fill-opacity="0.1"/>
<path fill-rule="evenodd" clip-rule="evenodd" d="M662.73 212.719C661.514 212.202 660.11 212.769 659.593 213.984L627.866 288.602L505.68 314.271C504.387 314.542 503.559 315.81 503.831 317.103C504.102 318.396 505.37 319.223 506.663 318.952L631.291 292.77L663.995 215.856C664.512 214.64 663.945 213.236 662.73 212.719Z" fill="black" fill-opacity="0.1"/>
<path fill-rule="evenodd" clip-rule="evenodd" d="M611.262 182.585C610.046 182.068 608.642 182.634 608.125 183.85L576.398 258.468L454.212 284.136C452.919 284.408 452.091 285.676 452.363 286.969C452.635 288.261 453.903 289.089 455.195 288.818L579.824 262.636L612.527 185.721C613.044 184.506 612.477 183.101 611.262 182.585Z" fill="black" fill-opacity="0.1"/>
<path fill-rule="evenodd" clip-rule="evenodd" d="M560.99 153.79C559.774 153.273 558.37 153.839 557.853 155.055L526.126 229.673L403.94 255.341C402.647 255.613 401.82 256.881 402.091 258.174C402.363 259.466 403.631 260.294 404.923 260.022L529.552 233.841L562.255 156.926C562.772 155.711 562.205 154.306 560.99 153.79Z" fill="black" fill-opacity="0.1"/>
<path fill-rule="evenodd" clip-rule="evenodd" d="M510.383 126.047C509.168 125.53 507.764 126.096 507.247 127.312L475.52 201.93L353.333 227.599C352.041 227.87 351.213 229.138 351.485 230.431C351.756 231.724 353.024 232.551 354.317 232.28L478.945 206.098L511.649 129.183C512.165 127.968 511.599 126.564 510.383 126.047Z" fill="black" fill-opacity="0.1"/>
<path d="M1273.8 443.108L1049.5 562.37V696.124L1273.87 574L1273.8 443.108Z" fill="#009FDA"/>
<path d="M824.908 444.083L1049.21 563.345V697.099L824.372 574.5L824.908 444.083Z" fill="#009FDA"/>
<path d="M1091.79 329.185C1068.23 316.126 1030.03 316.126 1006.48 329.185L842.029 420.339C818.47 433.398 818.47 454.57 842.029 467.629L1006.48 558.783C1030.03 571.842 1068.23 571.842 1091.79 558.783L1256.23 467.629C1279.79 454.57 1279.79 433.398 1256.23 420.339L1091.79 329.185Z" fill="#4BC6F0"/>
<g filter="url(#filter2_d_1304_7943)">
<path d="M1005.9 412.481C981.945 428.639 981.722 455.178 1005.4 471.759C1029.08 488.34 1067.7 488.683 1091.65 472.525C1115.61 456.368 1115.83 429.828 1092.15 413.247C1068.47 396.667 1029.85 396.324 1005.9 412.481Z" fill="#005A7B"/>
</g>
<g filter="url(#filter3_d_1304_7943)">
<path d="M1016.69 420.038C998.768 432.129 998.601 451.988 1016.32 464.395C1034.04 476.802 1062.93 477.058 1080.86 464.968C1098.78 452.878 1098.95 433.019 1081.23 420.612C1063.51 408.205 1034.62 407.948 1016.69 420.038Z" fill="#005A7B"/>
</g>
<path fill-rule="evenodd" clip-rule="evenodd" d="M918.964 218.02C897.898 183.022 908.211 141.373 949.726 113.37C1004.43 76.4726 1092.59 77.242 1146.64 115.089C1187.82 143.922 1197.32 185.956 1175.32 220.657L1093.85 447.466H1003.92L918.964 218.02Z" fill="url(#paint1_linear_1304_7943)"/>
<g filter="url(#filter4_d_1304_7943)">
<path d="M1105.59 680.951L1223.78 612.715L1260.45 632.211C1269.65 637.107 1269.8 645.303 1260.76 650.517L1175.28 699.87C1166.25 705.084 1151.47 705.342 1142.26 700.446L1105.59 680.951Z" fill="#009FDA"/>
</g>
<path d="M1160.94 660.455L1267.25 599.077V640.159L1160.94 701.536V660.455Z" fill="#009FDA"/>
<path d="M1105.48 591.394L1159.86 622.791L1152.59 703.325L1105.48 680.778V591.394Z" fill="#009FDA"/>
<path d="M1105.99 590.495L1221.56 523.773L1264.46 585.039C1270.44 593.581 1267.97 604.733 1258.94 609.947L1176.08 657.787C1167.04 663.001 1154.87 660.303 1148.89 651.76L1105.99 590.495Z" fill="#4BC6F0"/>
<path d="M1221.42 541.603C1219.94 539.414 1216.89 538.713 1214.6 540.037L1127.95 590.201C1125.67 591.525 1125.01 594.372 1126.49 596.56L1159.63 645.566C1161.11 647.754 1164.17 648.455 1166.45 647.131L1253.1 596.967C1255.39 595.643 1256.04 592.796 1254.56 590.608L1221.42 541.603Z" fill="#90D6EE"/>
<g filter="url(#filter5_d_1304_7943)">
<path fill-rule="evenodd" clip-rule="evenodd" d="M490.023 157.74L405.862 158.076L406.015 196.297C405.217 199.95 406.721 204.037 410.516 206.05L443.504 223.543C446.097 224.918 449.203 224.92 451.798 223.547L485.363 205.788C488.414 204.174 489.982 201.227 490.075 198.239L490.184 198.239L490.023 157.74Z" fill="#61B1D1"/>
<path d="M410.354 165.551C404.105 162.237 404.069 153.295 410.292 149.931L443.14 132.176C445.722 130.78 448.828 130.754 451.433 132.105L485.139 149.596C491.482 152.887 491.518 161.948 485.201 165.29L451.636 183.048C449.042 184.421 445.936 184.42 443.343 183.045L410.354 165.551Z" fill="#67C2E8"/>
<path fill-rule="evenodd" clip-rule="evenodd" d="M447.519 157.91L490.021 157.74L490.183 198.238L490.073 198.239C489.981 201.227 488.412 204.174 485.362 205.788L451.796 223.547C450.46 224.254 448.987 224.596 447.519 224.574L447.519 157.91Z" fill="#569FBD"/>
<path d="M410.354 165.551C404.104 162.237 404.068 153.295 410.291 149.931L443.139 132.176C445.721 130.78 448.827 130.754 451.432 132.105L485.138 149.596C491.481 152.887 491.517 161.948 485.2 165.29L451.635 183.048C449.041 184.421 445.935 184.42 443.342 183.045L410.354 165.551Z" fill="#67C2E8"/>
</g>
<g filter="url(#filter6_d_1304_7943)">
<path fill-rule="evenodd" clip-rule="evenodd" d="M758.248 311.933L674.088 312.268L674.24 350.489C673.443 354.142 674.947 358.229 678.742 360.242L711.73 377.735C714.323 379.11 717.429 379.112 720.023 377.739L753.589 359.981C756.639 358.367 758.208 355.419 758.3 352.431L758.41 352.431L758.248 311.933Z" fill="#00DBBB"/>
<path d="M678.58 319.743C672.33 316.429 672.295 307.487 678.518 304.123L711.366 286.368C713.948 284.972 717.053 284.946 719.659 286.298L753.364 303.788C759.707 307.08 759.743 316.14 753.427 319.482L719.862 337.241C717.267 338.613 714.161 338.612 711.568 337.237L678.58 319.743Z" fill="#40E6CF"/>
<path fill-rule="evenodd" clip-rule="evenodd" d="M715.746 312.102L758.248 311.932L758.409 352.431L758.3 352.431C758.208 355.419 756.639 358.367 753.588 359.981L720.023 377.739C718.686 378.446 717.214 378.789 715.746 378.766V312.102Z" fill="#00C4A7"/>
<path d="M678.58 319.743C672.33 316.429 672.294 307.487 678.517 304.123L711.365 286.368C713.947 284.972 717.053 284.946 719.658 286.298L753.364 303.788C759.707 307.08 759.743 316.14 753.427 319.482L719.861 337.241C717.267 338.613 714.161 338.612 711.568 337.237L678.58 319.743Z" fill="#40E6CF"/>
</g>
<g filter="url(#filter7_d_1304_7943)">
<path fill-rule="evenodd" clip-rule="evenodd" d="M672.248 258.933L588.088 259.268L588.24 297.489C587.443 301.142 588.947 305.229 592.742 307.242L625.73 324.735C628.323 326.11 631.429 326.112 634.023 324.739L667.589 306.981C670.639 305.367 672.208 302.419 672.3 299.431L672.41 299.431L672.248 258.933Z" fill="#BA026E"/>
<path d="M592.58 266.743C586.33 263.429 586.295 254.487 592.518 251.123L625.366 233.368C627.948 231.972 631.053 231.946 633.659 233.298L667.364 250.788C673.707 254.08 673.743 263.14 667.427 266.482L633.862 284.241C631.267 285.613 628.161 285.612 625.568 284.237L592.58 266.743Z" fill="#B74A89"/>
<path fill-rule="evenodd" clip-rule="evenodd" d="M629.746 259.102L672.248 258.933L672.409 299.431L672.3 299.431C672.208 302.419 670.639 305.367 667.588 306.981L634.023 324.739C632.686 325.446 631.214 325.789 629.746 325.767V259.102Z" fill="#9E005D"/>
<path d="M592.58 266.743C586.33 263.429 586.294 254.487 592.517 251.123L625.365 233.368C627.947 231.972 631.053 231.946 633.658 233.298L667.364 250.788C673.707 254.08 673.743 263.14 667.427 266.482L633.861 284.241C631.267 285.613 628.161 285.612 625.568 284.237L592.58 266.743Z" fill="#B74A89"/>
</g>
<g filter="url(#filter8_d_1304_7943)">
<path fill-rule="evenodd" clip-rule="evenodd" d="M851.248 359.933L767.088 360.268L767.24 398.489C766.443 402.142 767.947 406.23 771.742 408.242L804.73 425.735C807.323 427.11 810.429 427.112 813.023 425.739L846.589 407.981C849.639 406.367 851.208 403.419 851.3 400.431L851.41 400.431L851.248 359.933Z" fill="#005EA7"/>
<path d="M771.58 367.743C765.33 364.429 765.295 355.487 771.518 352.123L804.366 334.368C806.948 332.972 810.053 332.946 812.659 334.298L846.364 351.788C852.707 355.08 852.743 364.14 846.427 367.482L812.862 385.241C810.267 386.613 807.161 386.612 804.568 385.237L771.58 367.743Z" fill="#04518C"/>
<path fill-rule="evenodd" clip-rule="evenodd" d="M808.746 360.102L851.248 359.933L851.409 400.431L851.3 400.431C851.208 403.419 849.639 406.367 846.588 407.981L813.023 425.739C811.686 426.446 810.214 426.789 808.746 426.767V360.102Z" fill="#003055"/>
<path d="M771.58 367.743C765.33 364.429 765.294 355.487 771.517 352.123L804.365 334.368C806.947 332.972 810.053 332.946 812.658 334.298L846.364 351.788C852.707 355.08 852.743 364.14 846.427 367.482L812.861 385.241C810.267 386.613 807.161 386.612 804.568 385.237L771.58 367.743Z" fill="#04518C"/>
</g>
<g filter="url(#filter9_d_1304_7943)">
<path fill-rule="evenodd" clip-rule="evenodd" d="M580.023 212.74L495.862 213.076L496.015 251.297C495.217 254.95 496.721 259.037 500.516 261.05L533.504 278.543C536.097 279.918 539.203 279.92 541.798 278.547L575.363 260.788C578.414 259.174 579.982 256.227 580.075 253.239L580.184 253.239L580.023 212.74Z" fill="#CBCF40"/>
<path d="M500.354 220.551C494.105 217.237 494.069 208.295 500.292 204.931L533.14 187.176C535.722 185.78 538.828 185.754 541.433 187.105L575.139 204.596C581.482 207.887 581.518 216.948 575.201 220.29L541.636 238.048C539.042 239.421 535.936 239.42 533.343 238.045L500.354 220.551Z" fill="#D9DE3A"/>
<path fill-rule="evenodd" clip-rule="evenodd" d="M537.52 212.91L580.022 212.74L580.183 253.238L580.074 253.239C579.981 256.227 578.413 259.174 575.362 260.788L541.797 278.547C540.46 279.254 538.988 279.596 537.52 279.574V212.91Z" fill="#BABE3C"/>
<path d="M500.354 220.551C494.104 217.237 494.068 208.295 500.291 204.931L533.139 187.176C535.721 185.78 538.827 185.754 541.432 187.105L575.138 204.596C581.481 207.887 581.517 216.948 575.2 220.29L541.635 238.048C539.041 239.421 535.935 239.42 533.342 238.045L500.354 220.551Z" fill="#D9DE3A"/>
</g>
<path d="M965.75 235.088C965.865 228.485 970.641 220.536 976.417 217.334L1132.47 130.833C1138.25 127.632 1142.83 130.389 1142.72 136.992L1141.2 224.282C1141.08 230.885 1136.3 238.834 1130.53 242.035L974.476 328.536C968.7 331.738 964.111 328.981 964.226 322.378L965.75 235.088Z" fill="white"/>
<path d="M965.753 233.904C965.858 227.94 968.894 221.469 972.536 219.45L1136.26 128.696C1139.9 126.677 1142.77 129.876 1142.67 135.84V135.84L965.753 233.904V233.904Z" fill="#04518C"/>
<path fill-rule="evenodd" clip-rule="evenodd" d="M1028.38 220.831L1042.54 212.982C1041.96 204.882 1036.11 201.449 1028.66 204.886L1028.38 220.831Z" fill="#00DDBE"/>
<path fill-rule="evenodd" clip-rule="evenodd" d="M1025.17 225.924L1025.2 224.337L1025.23 222.751L1025.48 208.465C1018.48 213.253 1012.94 223.012 1012.8 231.212C1012.65 240.04 1018.8 243.714 1026.55 239.42C1033.83 235.386 1039.92 225.755 1040.76 217.285L1025.17 225.924Z" fill="#4BC6F0"/>
<path fill-rule="evenodd" clip-rule="evenodd" d="M1072.16 196.563L1086.32 188.714C1085.74 180.614 1079.89 177.181 1072.44 180.618L1072.16 196.563Z" fill="#9E005D"/>
<path fill-rule="evenodd" clip-rule="evenodd" d="M1068.96 201.655L1068.98 200.069L1069.01 198.483L1069.26 184.196C1062.26 188.984 1056.72 198.743 1056.58 206.944C1056.43 215.771 1062.58 219.446 1070.33 215.151C1077.61 211.117 1083.7 201.486 1084.54 193.017L1068.96 201.655Z" fill="#04518C"/>
<path fill-rule="evenodd" clip-rule="evenodd" d="M1115.94 172.295L1130.1 164.446C1129.52 156.346 1123.67 152.913 1116.22 156.349L1115.94 172.295Z" fill="#F2D021"/>
<path fill-rule="evenodd" clip-rule="evenodd" d="M1112.74 177.387L1112.76 175.801L1112.79 174.215L1113.04 159.928C1106.04 164.717 1100.51 174.475 1100.36 182.676C1100.21 191.503 1106.36 195.178 1114.11 190.883C1121.39 186.849 1127.48 177.219 1128.32 168.749L1112.74 177.387Z" fill="#00DDBE"/>
<path fill-rule="evenodd" clip-rule="evenodd" d="M1012.24 263.141L1129.52 198.135L1129.66 189.695L1012.39 254.701L1012.24 263.141Z" fill="#04518C"/>
<path fill-rule="evenodd" clip-rule="evenodd" d="M1011.94 280.504L1129.21 215.498L1129.36 206.886L1012.09 271.891L1011.94 280.504Z" fill="#04518C"/>
<path fill-rule="evenodd" clip-rule="evenodd" d="M1011.67 295.689L1128.95 230.683L1129.1 222.07L1011.82 287.076L1011.67 295.689Z" fill="#04518C"/>
<path fill-rule="evenodd" clip-rule="evenodd" d="M972.637 321.199L997.537 307.396L999.068 219.714L974.167 233.517L972.637 321.199Z" fill="#F2D021"/>
<path fill-rule="evenodd" clip-rule="evenodd" d="M973.818 224.476C973.801 225.431 973.11 226.581 972.275 227.044C971.439 227.507 970.775 227.108 970.792 226.153C970.809 225.198 971.5 224.048 972.335 223.585C973.171 223.122 973.834 223.521 973.818 224.476" fill="white"/>
<path fill-rule="evenodd" clip-rule="evenodd" d="M978.961 221.625C978.945 222.58 978.254 223.73 977.418 224.193C976.583 224.656 975.919 224.257 975.936 223.302C975.952 222.347 976.643 221.197 977.479 220.734C978.314 220.271 978.978 220.67 978.961 221.625" fill="white"/>
<path fill-rule="evenodd" clip-rule="evenodd" d="M984.498 218.556C984.481 219.511 983.79 220.661 982.955 221.124C982.119 221.587 981.456 221.188 981.472 220.233C981.489 219.278 982.18 218.128 983.015 217.665C983.851 217.202 984.515 217.601 984.498 218.556" fill="white"/>
<path fill-rule="evenodd" clip-rule="evenodd" d="M1238.14 587.125C1239.04 588.411 1240.88 588.815 1242.24 588.028C1243.6 587.242 1243.98 585.561 1243.08 584.275L1221.88 554.001C1220.98 552.715 1219.14 552.311 1217.78 553.097C1216.42 553.884 1216.04 555.565 1216.94 556.851L1238.14 587.125Z" fill="#F2D021"/>
<path fill-rule="evenodd" clip-rule="evenodd" d="M1227 593.555C1227.9 594.841 1229.74 595.245 1231.1 594.458C1232.47 593.672 1232.84 591.991 1231.94 590.705L1210.74 560.431C1209.84 559.145 1208.01 558.741 1206.64 559.527C1205.28 560.314 1204.91 561.995 1205.81 563.281L1227 593.555Z" fill="#F2D021"/>
<path fill-rule="evenodd" clip-rule="evenodd" d="M1215.64 600.116C1216.54 601.402 1218.37 601.81 1219.72 601.027C1221.08 600.244 1221.45 598.567 1220.55 597.281L1199.35 567.008C1198.45 565.722 1196.62 565.314 1195.27 566.096C1193.91 566.879 1193.54 568.557 1194.44 569.843L1215.64 600.116Z" fill="#F2D021"/>
<path fill-rule="evenodd" clip-rule="evenodd" d="M1203.44 607.16C1204.34 608.446 1206.17 608.851 1207.54 608.064C1208.9 607.277 1209.28 605.596 1208.37 604.31L1187.18 574.037C1186.28 572.751 1184.44 572.346 1183.08 573.133C1181.72 573.92 1181.34 575.6 1182.24 576.886L1203.44 607.16Z" fill="#F2D021"/>
<path fill-rule="evenodd" clip-rule="evenodd" d="M1221.85 566.853C1223.24 568.836 1226.06 569.462 1228.16 568.252C1230.26 567.041 1230.83 564.452 1229.44 562.468C1228.05 560.485 1225.23 559.859 1223.13 561.069C1221.03 562.28 1220.46 564.869 1221.85 566.853" fill="white"/>
<path fill-rule="evenodd" clip-rule="evenodd" d="M1220.44 587.169C1221.82 589.152 1224.65 589.779 1226.75 588.568C1228.84 587.357 1229.42 584.768 1228.03 582.785C1226.64 580.801 1223.81 580.175 1221.72 581.385C1219.62 582.596 1219.05 585.186 1220.44 587.169" fill="white"/>
<path fill-rule="evenodd" clip-rule="evenodd" d="M1201 582.253C1202.39 584.236 1205.21 584.863 1207.31 583.652C1209.41 582.442 1209.98 579.852 1208.59 577.869C1207.2 575.886 1204.38 575.259 1202.28 576.47C1200.18 577.68 1199.61 580.27 1201 582.253" fill="white"/>
<path fill-rule="evenodd" clip-rule="evenodd" d="M1192.18 594.07C1193.57 596.054 1196.39 596.68 1198.49 595.47C1200.58 594.259 1201.16 591.67 1199.77 589.686C1198.38 587.703 1195.56 587.077 1193.46 588.287C1191.36 589.498 1190.79 592.087 1192.18 594.07" fill="white"/>
<path fill-rule="evenodd" clip-rule="evenodd" d="M1168.71 610.242C1170.32 609.313 1170.76 607.322 1169.69 605.801C1168.83 604.572 1167.25 604.038 1165.82 604.363L1162.3 599.336C1161.98 598.879 1161.33 598.735 1160.85 599.014C1160.36 599.294 1160.23 599.891 1160.55 600.348L1164.07 605.375C1163.14 606.41 1163 607.938 1163.86 609.168C1164.93 610.688 1167.1 611.17 1168.71 610.242M1156.22 613.578C1155.9 613.12 1155.25 612.975 1154.77 613.255L1152.18 614.746C1150.26 611.593 1149.61 608.088 1150.11 604.781L1153.14 605.452C1153.42 605.516 1153.7 605.467 1153.92 605.338C1154.15 605.208 1154.32 604.998 1154.38 604.736C1154.49 604.215 1154.12 603.691 1153.55 603.564L1150.53 602.894C1151.47 599.685 1153.54 596.783 1156.62 594.741L1158.38 593.729C1161.72 592.063 1165.49 591.589 1169.09 592.175L1168.48 594.948C1168.36 595.47 1168.73 595.995 1169.3 596.12C1169.58 596.184 1169.86 596.136 1170.09 596.006C1170.31 595.876 1170.48 595.666 1170.54 595.405L1171.15 592.631C1174.66 593.621 1177.88 595.643 1180.21 598.566L1177.63 600.058C1177.14 600.337 1177.01 600.935 1177.33 601.393C1177.65 601.85 1178.3 601.995 1178.79 601.716L1181.37 600.225C1183.3 603.377 1183.95 606.882 1183.45 610.188L1180.42 609.518C1179.85 609.391 1179.29 609.712 1179.18 610.234C1179.06 610.755 1179.43 611.279 1180 611.405L1183.03 612.075C1182.08 615.285 1180.01 618.185 1176.93 620.228L1175.22 617.786C1174.9 617.329 1174.25 617.185 1173.76 617.464C1173.28 617.743 1173.15 618.341 1173.47 618.799L1175.18 621.241C1171.83 622.907 1168.06 623.38 1164.46 622.795L1165.08 620.021C1165.19 619.5 1164.83 618.975 1164.26 618.849C1163.69 618.723 1163.13 619.043 1163.02 619.565L1162.4 622.338C1158.89 621.349 1155.67 619.327 1153.35 616.404L1155.93 614.913C1156.41 614.634 1156.54 614.036 1156.22 613.578" fill="white"/>
<path fill-rule="evenodd" clip-rule="evenodd" d="M997.29 640.867C997.29 646.15 993.58 648.291 989.005 645.65L872.769 578.541C868.193 575.899 864.484 569.475 864.484 564.191V515.785C864.484 510.502 868.193 508.36 872.769 511.002L989.005 578.111C993.58 580.752 997.29 587.177 997.29 592.46V640.867Z" fill="#90D6EE"/>
<path fill-rule="evenodd" clip-rule="evenodd" d="M935.65 583.994C935.65 585.685 934.463 586.37 932.999 585.525L895.221 563.713C893.756 562.868 892.569 560.812 892.569 559.121V557.734C892.569 556.043 893.756 555.358 895.221 556.203L932.999 578.015C934.463 578.86 935.65 580.916 935.65 582.607V583.994Z" fill="#009FDA"/>
<path fill-rule="evenodd" clip-rule="evenodd" d="M935.65 565.387C935.65 567.078 934.463 567.763 932.999 566.918L878.278 535.325C876.814 534.479 875.627 532.423 875.627 530.733V529.345C875.627 527.655 876.814 526.969 878.278 527.815L932.999 559.408C934.463 560.253 935.65 562.309 935.65 564V565.387Z" fill="#009FDA"/>
<path fill-rule="evenodd" clip-rule="evenodd" d="M935.65 603.462C935.65 605.152 934.463 605.838 932.999 604.992L914.566 594.35C913.101 593.504 911.914 591.448 911.914 589.758V588.371C911.914 586.68 913.101 585.995 914.566 586.84L932.999 597.483C934.463 598.328 935.65 600.384 935.65 602.075V603.462Z" fill="#009FDA"/>
<path fill-rule="evenodd" clip-rule="evenodd" d="M947.125 588.705C947.125 601.623 956.194 617.331 967.381 623.79C978.569 630.249 987.638 625.013 987.638 612.095C987.638 599.177 978.569 583.469 967.381 577.01C956.194 570.551 947.125 575.787 947.125 588.705" fill="#009FDA"/>
<path fill-rule="evenodd" clip-rule="evenodd" d="M955.575 593.584C955.575 601.113 960.861 610.268 967.381 614.033C973.901 617.797 979.187 614.746 979.187 607.217C979.187 599.688 973.901 590.533 967.381 586.768C960.861 583.004 955.575 586.055 955.575 593.584" fill="#015C7C"/>
<path fill-rule="evenodd" clip-rule="evenodd" d="M711.459 316.975L708.079 315.177C707.949 315.108 707.87 315.038 707.792 314.968C710.778 314.686 715.027 312.809 718.088 310.754C717.905 310.6 717.748 310.431 717.616 310.248C713.918 312.786 708.131 315.205 706.103 314.127L702.723 312.33C702.671 312.302 702.619 312.274 702.566 312.218C707.561 311.814 716.221 306.814 716.769 304.018L716.951 304.115L719.421 305.428C722.411 303.817 727.154 303.76 730.144 305.35C733.16 306.954 733.204 309.668 730.215 311.394C728.401 312.441 725.882 312.886 723.533 312.714C719.863 315.381 713.591 318.108 711.459 316.975Z" fill="#04518C"/>
<path fill-rule="evenodd" clip-rule="evenodd" d="M728.481 309.424L726.591 310.515L724.719 309.52L722.88 310.582L720.982 309.573L722.821 308.511L720.949 307.515L722.839 306.424L724.711 307.419L726.525 306.372L728.423 307.382L726.609 308.429L728.481 309.424Z" fill="black"/>
<path fill-rule="evenodd" clip-rule="evenodd" d="M729.02 305.999C731.438 307.285 731.472 309.428 729.097 310.799C726.721 312.171 722.855 312.24 720.437 310.954C718.019 309.669 717.959 307.512 720.334 306.14C722.71 304.769 726.602 304.713 729.02 305.999Z" fill="#00A1D9"/>
<path fill-rule="evenodd" clip-rule="evenodd" d="M715.182 303.175C718.615 304.999 704.386 313.214 700.954 311.389L697.574 309.592C694.142 307.767 708.37 299.552 711.802 301.377L715.182 303.175Z" fill="#04518C"/>
<path fill-rule="evenodd" clip-rule="evenodd" d="M721.295 308.551C721.082 308.438 721.066 308.256 721.258 308.145L724.161 306.469C724.353 306.358 724.681 306.36 724.893 306.473C725.106 306.586 725.122 306.767 724.93 306.878L722.027 308.554C721.835 308.665 721.507 308.663 721.295 308.551" fill="#04518C"/>
<path fill-rule="evenodd" clip-rule="evenodd" d="M721.15 308.634L721.009 307.051C720.994 306.893 721.215 306.766 721.501 306.767C721.787 306.768 722.03 306.898 722.045 307.056L722.135 308.065L723.958 308.074C724.244 308.075 724.488 308.204 724.502 308.363C724.516 308.521 724.296 308.648 724.01 308.647L721.15 308.634Z" fill="#04518C"/>
<path fill-rule="evenodd" clip-rule="evenodd" d="M728.224 308.751L725.322 310.427C725.13 310.538 724.801 310.536 724.589 310.423C724.377 310.31 724.361 310.129 724.553 310.018L727.455 308.342C727.647 308.231 727.975 308.233 728.188 308.345C728.4 308.458 728.416 308.64 728.224 308.751Z" fill="#04518C"/>
<path fill-rule="evenodd" clip-rule="evenodd" d="M728.332 308.262L728.474 309.845C728.488 310.003 728.268 310.13 727.982 310.129C727.695 310.128 727.452 309.998 727.438 309.84L727.348 308.831L725.524 308.822C725.238 308.821 724.995 308.692 724.981 308.533C724.966 308.375 725.187 308.248 725.473 308.249L728.332 308.262Z" fill="#04518C"/>
<path fill-rule="evenodd" clip-rule="evenodd" d="M799.212 353.295L795.276 361.418L801.914 364.948C806.331 367.22 812.849 367.432 817.782 365.737C818.786 365.392 819.725 364.967 820.567 364.465C825.42 361.569 825.319 357.097 820.339 354.357L813.658 350.805L799.212 353.295Z" fill="#00A1D9"/>
<path fill-rule="evenodd" clip-rule="evenodd" d="M801.84 354.715L798.87 360.902L803.952 363.604C807.945 365.727 814.301 365.636 818.174 363.4C822.047 361.164 821.95 357.641 817.958 355.518L812.876 352.816L801.84 354.715Z" fill="#04518C"/>
<path fill-rule="evenodd" clip-rule="evenodd" d="M813.526 361.187L805.965 361.423C805.161 361.448 804.519 361.107 804.532 360.661C804.544 360.215 805.204 359.833 806.009 359.808L810.66 359.663L810.873 351.787C810.885 351.341 811.546 350.96 812.35 350.935C813.154 350.909 813.796 351.251 813.783 351.697L813.526 361.187Z" fill="#00A1D9"/>
<path fill-rule="evenodd" clip-rule="evenodd" d="M637.256 254.372C641.437 256.595 641.542 260.293 637.49 262.632C633.439 264.971 626.766 265.066 622.585 262.843C618.404 260.62 618.299 256.922 622.351 254.583C626.402 252.243 633.075 252.149 637.256 254.372" fill="#119FD6"/>
<mask id="mask0_1304_7943" style="mask-type:luminance" maskUnits="userSpaceOnUse" x="609" y="247" width="42" height="24">
<path fill-rule="evenodd" clip-rule="evenodd" d="M609.1 258.909L629.608 247.069L650.581 258.221L630.073 270.061L609.1 258.909Z" fill="white"/>
</mask>
<g mask="url(#mask0_1304_7943)">
<path fill-rule="evenodd" clip-rule="evenodd" d="M640.146 264.245C639.372 264.692 638.094 264.71 637.296 264.286C636.57 263.899 636.49 263.279 637.064 262.834L635.691 262.104L635.231 262.369C635.156 262.412 635.046 262.426 634.941 262.414C634.804 262.399 634.746 262.325 634.734 262.294L634.358 261.357C634.35 261.338 634.312 261.256 634.413 261.197C634.508 261.143 634.665 261.157 634.699 261.16L636.403 261.33C636.509 261.341 636.596 261.383 636.628 261.44C636.661 261.496 636.634 261.559 636.559 261.602L636.1 261.868L637.473 262.598C638.252 262.262 639.375 262.28 640.101 262.666C640.899 263.091 640.919 263.799 640.146 264.245V264.245ZM640.428 252.822C641.269 253.27 641.291 254.017 640.475 254.488C639.732 254.916 638.55 254.97 637.709 254.638L636.305 255.449L636.806 255.715C636.887 255.758 636.912 255.823 636.888 255.885C636.858 255.964 636.717 255.999 636.657 256.007L634.871 256.236C634.835 256.241 634.677 256.264 634.567 256.206C634.464 256.151 634.492 256.059 634.499 256.039L634.84 255.041C634.861 254.978 634.942 254.927 635.051 254.908C635.159 254.888 635.278 254.903 635.36 254.946L635.86 255.212L637.264 254.402C636.632 253.95 636.679 253.293 637.421 252.864C638.237 252.393 639.586 252.374 640.428 252.822V252.822ZM622.167 253.058C622.933 253.466 623.017 254.12 622.411 254.59L623.919 255.391L624.392 255.118C624.468 255.074 624.58 255.055 624.686 255.069C624.793 255.082 624.878 255.126 624.91 255.184L625.526 256.288C625.54 256.314 625.604 256.413 625.49 256.479C625.376 256.545 625.218 256.526 625.173 256.52L623.132 256.211C623.026 256.196 622.944 256.151 622.915 256.092C622.886 256.034 622.915 255.971 622.991 255.927L623.488 255.64L621.98 254.839C621.159 255.193 619.974 255.174 619.208 254.767C618.366 254.319 618.345 253.572 619.161 253.101C619.976 252.63 621.325 252.611 622.167 253.058V253.058ZM625.522 262.436C625.51 262.47 625.46 262.549 625.311 262.569C625.2 262.583 625.083 262.573 625.002 262.53L624.501 262.264L623.083 263.082C623.715 263.534 623.668 264.191 622.926 264.62C622.11 265.091 620.762 265.11 619.92 264.662C619.078 264.215 619.057 263.467 619.873 262.996C620.615 262.568 621.797 262.515 622.639 262.846L624.056 262.027L623.556 261.761C623.474 261.718 623.442 261.653 623.474 261.592C623.505 261.531 623.593 261.484 623.704 261.47L625.49 261.24C625.519 261.236 625.682 261.213 625.78 261.265C625.907 261.333 625.868 261.42 625.862 261.438L625.522 262.436Z" fill="#113154"/>
</g>
<mask id="mask1_1304_7943" style="mask-type:luminance" maskUnits="userSpaceOnUse" x="609" y="247" width="42" height="24">
<path fill-rule="evenodd" clip-rule="evenodd" d="M630.073 270.061L650.581 258.221L629.608 247.069L609.1 258.909L630.073 270.061Z" fill="white"/>
</mask>
<g mask="url(#mask1_1304_7943)">
<path fill-rule="evenodd" clip-rule="evenodd" d="M630.239 260.966L634.188 258.687L633.686 258.42L629.737 260.699L630.239 260.966ZM628.863 260.234L632.811 257.955L632.312 257.689L628.363 259.969L628.863 260.234ZM627.565 259.545L631.514 257.265L631.013 256.998L627.064 259.278L627.565 259.545ZM627.846 255.992L630.865 255.909L629.701 256.581C629.502 256.696 629.185 256.705 628.99 256.601L627.846 255.992ZM623.45 258.252C623.251 258.367 623.248 258.543 623.444 258.647L630.115 262.195C630.31 262.298 630.628 262.29 630.827 262.175L636.391 258.963C636.59 258.848 636.592 258.672 636.397 258.568L630.87 255.629L627.851 255.712L623.45 258.252Z" fill="#113154"/>
</g>
<mask id="mask2_1304_7943" style="mask-type:luminance" maskUnits="userSpaceOnUse" x="430" y="145" width="37" height="20">
<path fill-rule="evenodd" clip-rule="evenodd" d="M430 153.56L444.826 145L466.32 156.429L451.494 164.989L430 153.56Z" fill="white"/>
</mask>
<g mask="url(#mask2_1304_7943)">
<path fill-rule="evenodd" clip-rule="evenodd" d="M454.278 157.072L455.673 157.814C456.316 158.156 456.323 158.63 455.687 158.997C455.051 159.364 454.198 159.379 453.555 159.037L452.16 158.295C451.094 158.435 450.027 158.336 449.276 157.937C447.88 157.195 448.185 155.947 449.883 155.323C450.839 155.01 452.12 154.985 453.082 155.262C454.259 155.654 454.589 156.417 454.278 157.072M452.382 150.191L442.85 155.694L439.738 154.039C438.128 153.183 437.791 151.83 438.951 150.803C440.642 149.47 443.945 149.229 445.985 150.314C446.629 150.656 447.587 150.579 448.117 150.273C448.647 149.967 448.747 149.433 448.103 149.091C444.99 147.436 439.766 147.595 436.911 149.6C434.479 151.362 434.936 153.835 437.727 155.319L440.732 156.917L439.673 157.529C439.144 157.834 439.043 158.369 439.687 158.711L450.421 164.418C450.958 164.703 452.024 164.683 452.553 164.377L465.262 157.04C465.897 156.673 465.784 156.143 465.248 155.858L454.514 150.151C453.87 149.808 453.017 149.825 452.382 150.191" fill="#04518C"/>
</g>
<path fill-rule="evenodd" clip-rule="evenodd" d="M453.606 155.287C454.923 155.987 454.959 157.15 453.687 157.884C452.415 158.619 450.317 158.647 449 157.947C447.685 157.247 447.648 156.084 448.92 155.35C450.192 154.616 452.291 154.588 453.606 155.287" fill="#00A1D9"/>
<path fill-rule="evenodd" clip-rule="evenodd" d="M456.098 159.11L455.932 159.206C455.322 159.558 454.307 159.572 453.678 159.237L451.621 158.144C450.991 157.809 450.974 157.247 451.585 156.894L451.75 156.799C452.36 156.447 453.374 156.433 454.004 156.768L456.061 157.862C456.69 158.196 456.708 158.759 456.098 159.11" fill="#00A1D9"/>
<mask id="mask3_1304_7943" style="mask-type:luminance" maskUnits="userSpaceOnUse" x="517" y="201" width="43" height="24">
<path fill-rule="evenodd" clip-rule="evenodd" d="M517.59 213.515L539.266 201L559.961 212.004L538.285 224.518L517.59 213.515Z" fill="white"/>
</mask>
<g mask="url(#mask3_1304_7943)">
<path fill-rule="evenodd" clip-rule="evenodd" d="M552.598 209.697L549.698 211.371C548.901 211.831 548.913 212.562 549.727 212.994L552.683 214.566C553.496 214.998 554.814 214.975 555.611 214.515L558.511 212.841C559.309 212.38 559.296 211.65 558.483 211.218L555.526 209.646C554.713 209.213 553.396 209.236 552.598 209.697M545.348 213.883L542.448 215.557C541.651 216.017 541.664 216.748 542.477 217.18L545.433 218.752C546.246 219.184 547.564 219.161 548.361 218.701L551.261 217.027C552.059 216.566 552.046 215.836 551.233 215.403L548.276 213.832C547.463 213.399 546.146 213.422 545.348 213.883M538.099 218.068L535.199 219.742C534.402 220.203 534.414 220.933 535.227 221.365L538.184 222.937C538.997 223.37 540.315 223.347 541.112 222.886L544.012 221.212C544.809 220.752 544.796 220.021 543.983 219.589L541.027 218.017C540.214 217.585 538.896 217.608 538.099 218.068M545.207 205.767L542.307 207.441C541.51 207.902 541.522 208.632 542.335 209.064L545.292 210.636C546.105 211.068 547.422 211.045 548.22 210.585L551.12 208.911C551.917 208.45 551.904 207.72 551.092 207.288L548.135 205.716C547.322 205.283 546.004 205.306 545.207 205.767M537.957 209.953L535.057 211.627C534.26 212.087 534.273 212.818 535.086 213.25L538.042 214.822C538.855 215.254 540.173 215.231 540.97 214.771L543.87 213.097C544.667 212.636 544.655 211.906 543.842 211.474L540.885 209.902C540.072 209.469 538.755 209.492 537.957 209.953M529.543 213.901L525.955 215.972C524.968 216.542 524.984 217.446 525.99 217.981L529.648 219.926C530.654 220.461 532.285 220.433 533.272 219.863L536.86 217.791C537.847 217.221 537.831 216.318 536.825 215.783L533.166 213.837C532.16 213.303 530.53 213.331 529.543 213.901M537.816 201.837L534.916 203.511C534.119 203.972 534.131 204.702 534.944 205.134L537.901 206.706C538.714 207.139 540.032 207.116 540.829 206.655L543.729 204.981C544.526 204.521 544.514 203.79 543.701 203.358L540.744 201.786C539.931 201.354 538.613 201.377 537.816 201.837M530.566 206.023L527.666 207.697C526.869 208.157 526.882 208.888 527.695 209.32L530.651 210.892C531.464 211.324 532.782 211.301 533.579 210.841L536.479 209.167C537.276 208.706 537.264 207.976 536.451 207.544L533.494 205.972C532.681 205.539 531.364 205.562 530.566 206.023M523.317 210.208L520.417 211.882C519.62 212.343 519.632 213.073 520.445 213.505L523.402 215.077C524.215 215.51 525.532 215.487 526.33 215.026L529.23 213.352C530.027 212.892 530.014 212.161 529.201 211.729L526.245 210.157C525.432 209.725 524.114 209.748 523.317 210.208" fill="#04A0D8"/>
</g>
<path fill-rule="evenodd" clip-rule="evenodd" d="M534.227 220.479C531.751 221.909 527.697 221.98 525.173 220.638C522.648 219.295 522.609 217.048 525.085 215.619C527.561 214.189 531.615 214.118 534.139 215.46C536.664 216.803 536.703 219.05 534.227 220.479V220.479ZM539.848 216.762C538.688 213.655 533.185 211.714 527.557 212.425C521.929 213.136 518.307 216.23 519.467 219.337C520.627 222.443 526.13 224.385 531.757 223.673C535.9 223.15 539.113 221.295 539.886 218.98L548.35 218.832C549.454 218.791 550.309 218.262 550.259 217.65C550.212 217.069 549.361 216.617 548.311 216.615L539.848 216.762Z" fill="#133055"/>
<defs>
<filter id="filter0_d_1304_7943" x="299.671" y="126.57" width="881.371" height="517.313" filterUnits="userSpaceOnUse" color-interpolation-filters="sRGB">
<feFlood flood-opacity="0" result="BackgroundImageFix"/>
<feColorMatrix in="SourceAlpha" type="matrix" values="0 0 0 0 0 0 0 0 0 0 0 0 0 0 0 0 0 0 127 0" result="hardAlpha"/>
<feOffset dy="5"/>
<feGaussianBlur stdDeviation="5"/>
<feComposite in2="hardAlpha" operator="out"/>
<feColorMatrix type="matrix" values="0 0 0 0 0 0 0 0 0 0 0 0 0 0 0 0 0 0 0.15 0"/>
<feBlend mode="normal" in2="BackgroundImageFix" result="effect1_dropShadow_1304_7943"/>
<feBlend mode="normal" in="SourceGraphic" in2="effect1_dropShadow_1304_7943" result="shape"/>
</filter>
<filter id="filter1_d_1304_7943" x="814.36" y="444.155" width="469.544" height="269.186" filterUnits="userSpaceOnUse" color-interpolation-filters="sRGB">
<feFlood flood-opacity="0" result="BackgroundImageFix"/>
<feColorMatrix in="SourceAlpha" type="matrix" values="0 0 0 0 0 0 0 0 0 0 0 0 0 0 0 0 0 0 127 0" result="hardAlpha"/>
<feOffset dy="5"/>
<feGaussianBlur stdDeviation="5"/>
<feComposite in2="hardAlpha" operator="out"/>
<feColorMatrix type="matrix" values="0 0 0 0 0 0 0 0 0 0 0 0 0 0 0 0 0 0 0.15 0"/>
<feBlend mode="normal" in2="BackgroundImageFix" result="effect1_dropShadow_1304_7943"/>
<feBlend mode="normal" in="SourceGraphic" in2="effect1_dropShadow_1304_7943" result="shape"/>
</filter>
<filter id="filter2_d_1304_7943" x="967.787" y="385.584" width="161.977" height="123.838" filterUnits="userSpaceOnUse" color-interpolation-filters="sRGB">
<feFlood flood-opacity="0" result="BackgroundImageFix"/>
<feColorMatrix in="SourceAlpha" type="matrix" values="0 0 0 0 0 0 0 0 0 0 0 0 0 0 0 0 0 0 127 0" result="hardAlpha"/>
<feOffset dy="5"/>
<feGaussianBlur stdDeviation="10"/>
<feComposite in2="hardAlpha" operator="out"/>
<feColorMatrix type="matrix" values="0 0 0 0 1 0 0 0 0 1 0 0 0 0 1 0 0 0 0.5 0"/>
<feBlend mode="normal" in2="BackgroundImageFix" result="effect1_dropShadow_1304_7943"/>
<feBlend mode="normal" in="SourceGraphic" in2="effect1_dropShadow_1304_7943" result="shape"/>
</filter>
<filter id="filter3_d_1304_7943" x="983.139" y="396.136" width="131.272" height="102.735" filterUnits="userSpaceOnUse" color-interpolation-filters="sRGB">
<feFlood flood-opacity="0" result="BackgroundImageFix"/>
<feColorMatrix in="SourceAlpha" type="matrix" values="0 0 0 0 0 0 0 0 0 0 0 0 0 0 0 0 0 0 127 0" result="hardAlpha"/>
<feOffset dy="5"/>
<feGaussianBlur stdDeviation="10"/>
<feComposite in2="hardAlpha" operator="out"/>
<feColorMatrix type="matrix" values="0 0 0 0 1 0 0 0 0 1 0 0 0 0 1 0 0 0 0.5 0"/>
<feBlend mode="normal" in2="BackgroundImageFix" result="effect1_dropShadow_1304_7943"/>
<feBlend mode="normal" in="SourceGraphic" in2="effect1_dropShadow_1304_7943" result="shape"/>
</filter>
<filter id="filter4_d_1304_7943" x="1095.59" y="607.715" width="181.854" height="111.241" filterUnits="userSpaceOnUse" color-interpolation-filters="sRGB">
<feFlood flood-opacity="0" result="BackgroundImageFix"/>
<feColorMatrix in="SourceAlpha" type="matrix" values="0 0 0 0 0 0 0 0 0 0 0 0 0 0 0 0 0 0 127 0" result="hardAlpha"/>
<feOffset dy="5"/>
<feGaussianBlur stdDeviation="5"/>
<feComposite in2="hardAlpha" operator="out"/>
<feColorMatrix type="matrix" values="0 0 0 0 0 0 0 0 0 0 0 0 0 0 0 0 0 0 0.15 0"/>
<feBlend mode="normal" in2="BackgroundImageFix" result="effect1_dropShadow_1304_7943"/>
<feBlend mode="normal" in="SourceGraphic" in2="effect1_dropShadow_1304_7943" result="shape"/>
</filter>
<filter id="filter5_d_1304_7943" x="396.645" y="126.11" width="102.539" height="111.466" filterUnits="userSpaceOnUse" color-interpolation-filters="sRGB">
<feFlood flood-opacity="0" result="BackgroundImageFix"/>
<feColorMatrix in="SourceAlpha" type="matrix" values="0 0 0 0 0 0 0 0 0 0 0 0 0 0 0 0 0 0 127 0" result="hardAlpha"/>
<feOffset dy="4"/>
<feGaussianBlur stdDeviation="4.5"/>
<feComposite in2="hardAlpha" operator="out"/>
<feColorMatrix type="matrix" values="0 0 0 0 0 0 0 0 0 0 0 0 0 0 0 0 0 0 0.1 0"/>
<feBlend mode="normal" in2="BackgroundImageFix" result="effect1_dropShadow_1304_7943"/>
<feBlend mode="normal" in="SourceGraphic" in2="effect1_dropShadow_1304_7943" result="shape"/>
</filter>
<filter id="filter6_d_1304_7943" x="664.871" y="280.302" width="102.539" height="111.466" filterUnits="userSpaceOnUse" color-interpolation-filters="sRGB">
<feFlood flood-opacity="0" result="BackgroundImageFix"/>
<feColorMatrix in="SourceAlpha" type="matrix" values="0 0 0 0 0 0 0 0 0 0 0 0 0 0 0 0 0 0 127 0" result="hardAlpha"/>
<feOffset dy="4"/>
<feGaussianBlur stdDeviation="4.5"/>
<feComposite in2="hardAlpha" operator="out"/>
<feColorMatrix type="matrix" values="0 0 0 0 0 0 0 0 0 0 0 0 0 0 0 0 0 0 0.1 0"/>
<feBlend mode="normal" in2="BackgroundImageFix" result="effect1_dropShadow_1304_7943"/>
<feBlend mode="normal" in="SourceGraphic" in2="effect1_dropShadow_1304_7943" result="shape"/>
</filter>
<filter id="filter7_d_1304_7943" x="578.871" y="227.302" width="102.539" height="111.466" filterUnits="userSpaceOnUse" color-interpolation-filters="sRGB">
<feFlood flood-opacity="0" result="BackgroundImageFix"/>
<feColorMatrix in="SourceAlpha" type="matrix" values="0 0 0 0 0 0 0 0 0 0 0 0 0 0 0 0 0 0 127 0" result="hardAlpha"/>
<feOffset dy="4"/>
<feGaussianBlur stdDeviation="4.5"/>
<feComposite in2="hardAlpha" operator="out"/>
<feColorMatrix type="matrix" values="0 0 0 0 0 0 0 0 0 0 0 0 0 0 0 0 0 0 0.1 0"/>
<feBlend mode="normal" in2="BackgroundImageFix" result="effect1_dropShadow_1304_7943"/>
<feBlend mode="normal" in="SourceGraphic" in2="effect1_dropShadow_1304_7943" result="shape"/>
</filter>
<filter id="filter8_d_1304_7943" x="757.871" y="328.302" width="102.539" height="111.466" filterUnits="userSpaceOnUse" color-interpolation-filters="sRGB">
<feFlood flood-opacity="0" result="BackgroundImageFix"/>
<feColorMatrix in="SourceAlpha" type="matrix" values="0 0 0 0 0 0 0 0 0 0 0 0 0 0 0 0 0 0 127 0" result="hardAlpha"/>
<feOffset dy="4"/>
<feGaussianBlur stdDeviation="4.5"/>
<feComposite in2="hardAlpha" operator="out"/>
<feColorMatrix type="matrix" values="0 0 0 0 0 0 0 0 0 0 0 0 0 0 0 0 0 0 0.1 0"/>
<feBlend mode="normal" in2="BackgroundImageFix" result="effect1_dropShadow_1304_7943"/>
<feBlend mode="normal" in="SourceGraphic" in2="effect1_dropShadow_1304_7943" result="shape"/>
</filter>
<filter id="filter9_d_1304_7943" x="486.645" y="181.11" width="102.54" height="111.466" filterUnits="userSpaceOnUse" color-interpolation-filters="sRGB">
<feFlood flood-opacity="0" result="BackgroundImageFix"/>
<feColorMatrix in="SourceAlpha" type="matrix" values="0 0 0 0 0 0 0 0 0 0 0 0 0 0 0 0 0 0 127 0" result="hardAlpha"/>
<feOffset dy="4"/>
<feGaussianBlur stdDeviation="4.5"/>
<feComposite in2="hardAlpha" operator="out"/>
<feColorMatrix type="matrix" values="0 0 0 0 0 0 0 0 0 0 0 0 0 0 0 0 0 0 0.1 0"/>
<feBlend mode="normal" in2="BackgroundImageFix" result="effect1_dropShadow_1304_7943"/>
<feBlend mode="normal" in="SourceGraphic" in2="effect1_dropShadow_1304_7943" result="shape"/>
</filter>
<linearGradient id="paint0_linear_1304_7943" x1="383.934" y1="149.816" x2="740.404" y2="767.241" gradientUnits="userSpaceOnUse">
<stop stop-color="#0089BC"/>
<stop offset="1" stop-color="#018ABD" stop-opacity="0"/>
</linearGradient>
<linearGradient id="paint1_linear_1304_7943" x1="1047.59" y1="86.1926" x2="1047.59" y2="447.466" gradientUnits="userSpaceOnUse">
<stop stop-color="#00DDBE"/>
<stop offset="1" stop-color="#00DDBE" stop-opacity="0"/>
</linearGradient>
</defs>
</svg>
