<svg width="1070" height="634" viewBox="0 0 1070 634" fill="none" xmlns="http://www.w3.org/2000/svg">
<path d="M152.763 78.2929C-49.7946 168.477 -49.6109 348.342 153.173 480.031C355.957 611.721 684.552 645.367 887.109 555.183C1089.67 464.999 1089.48 285.134 886.699 153.445C683.915 21.755 355.32 -11.8915 152.763 78.2929Z" fill="#DFECF2"/>
<g filter="url(#filter0_d_1477_2990)">
<path d="M269.541 49.41C261.131 44.5547 244.859 46.0776 233.195 52.8116L106.482 125.969C94.8185 132.703 92.1807 142.098 100.59 146.954L783.173 541.043C791.582 545.898 807.855 544.375 819.519 537.641L946.232 464.483C957.895 457.749 960.533 448.354 952.123 443.499L269.541 49.41Z" fill="#0089BC"/>
</g>
<path d="M125.117 113.985H95.8541V139.834H125.117V113.985Z" fill="#0089BC"/>
<path d="M269.959 25.0214C261.554 20.169 245.285 21.6943 233.622 28.4283L106.909 101.586C95.2453 108.32 92.6034 117.713 101.008 122.565L783.182 516.418C791.586 521.271 807.855 519.745 819.518 513.011L946.231 439.854C957.895 433.12 960.537 423.727 952.132 418.875L269.959 25.0214Z" fill="#EEEEEE"/>
<path d="M269.634 24.8341C261.226 19.9795 244.954 21.5029 233.29 28.2369L106.577 101.395C94.9138 108.129 92.275 117.523 100.684 122.378L783.175 516.414C791.583 521.269 807.855 519.745 819.518 513.011L946.231 439.854C957.895 433.12 960.534 423.725 952.125 418.87L269.634 24.8341Z" fill="url(#paint0_linear_1477_2990)"/>
<g filter="url(#filter1_d_1477_2990)">
<path d="M877.789 373.949C854.23 360.891 816.034 360.891 792.475 373.949L628.029 465.103C604.47 478.162 604.47 499.335 628.029 512.394L792.475 603.548C816.034 616.606 854.23 616.606 877.789 603.548L1042.24 512.394C1065.79 499.335 1065.79 478.162 1042.24 465.103L877.789 373.949Z" fill="#009FDA"/>
</g>
<path fill-rule="evenodd" clip-rule="evenodd" d="M694.709 268.904C693.511 268.347 692.089 268.866 691.531 270.063L655.81 346.812L537.609 370.419C536.313 370.677 535.473 371.937 535.732 373.232C535.991 374.528 537.25 375.368 538.546 375.109L659.123 351.027L695.868 272.082C696.425 270.884 695.906 269.461 694.709 268.904Z" fill="black" fill-opacity="0.1"/>
<path fill-rule="evenodd" clip-rule="evenodd" d="M645.263 241.289C644.057 240.751 642.643 241.293 642.105 242.499L608.239 318.409L488.19 342.821C486.896 343.084 486.06 344.347 486.323 345.641C486.586 346.936 487.849 347.772 489.143 347.508L611.604 322.606L646.473 244.448C647.011 243.241 646.47 241.827 645.263 241.289Z" fill="black" fill-opacity="0.1"/>
<path fill-rule="evenodd" clip-rule="evenodd" d="M595.165 212.486C593.955 211.958 592.545 212.511 592.016 213.722L559.196 288.904L438.1 314.028C436.807 314.296 435.976 315.562 436.244 316.856C436.512 318.149 437.778 318.98 439.072 318.712L562.59 293.085L596.4 215.635C596.929 214.425 596.376 213.015 595.165 212.486Z" fill="black" fill-opacity="0.1"/>
<path fill-rule="evenodd" clip-rule="evenodd" d="M545.351 184.735C544.135 184.218 542.731 184.784 542.214 186L510.487 260.618L388.301 286.287C387.008 286.558 386.18 287.826 386.452 289.119C386.723 290.412 387.991 291.239 389.284 290.968L513.913 264.786L546.616 187.872C547.133 186.656 546.566 185.252 545.351 184.735Z" fill="black" fill-opacity="0.1"/>
<path fill-rule="evenodd" clip-rule="evenodd" d="M496.801 156.514C495.585 155.997 494.181 156.563 493.664 157.779L461.937 232.397L339.751 258.065C338.458 258.337 337.631 259.605 337.902 260.898C338.174 262.19 339.442 263.018 340.734 262.747L465.363 236.565L498.066 159.65C498.583 158.435 498.016 157.03 496.801 156.514Z" fill="black" fill-opacity="0.1"/>
<path fill-rule="evenodd" clip-rule="evenodd" d="M448.73 127.719C447.514 127.202 446.11 127.768 445.593 128.984L413.866 203.602L291.68 229.271C290.387 229.542 289.559 230.81 289.831 232.103C290.102 233.395 291.37 234.223 292.663 233.952L417.291 207.77L449.995 130.855C450.512 129.64 449.945 128.235 448.73 127.719Z" fill="black" fill-opacity="0.1"/>
<path fill-rule="evenodd" clip-rule="evenodd" d="M397.262 97.5844C396.046 97.0675 394.642 97.6339 394.125 98.8495L362.398 173.468L240.212 199.136C238.919 199.408 238.091 200.676 238.363 201.969C238.635 203.261 239.903 204.089 241.195 203.817L365.824 177.636L398.527 100.721C399.044 99.5056 398.477 98.1012 397.262 97.5844Z" fill="black" fill-opacity="0.1"/>
<path fill-rule="evenodd" clip-rule="evenodd" d="M346.99 68.789C345.774 68.2721 344.37 68.8385 343.853 70.0541L312.126 144.672L189.94 170.341C188.647 170.612 187.82 171.88 188.091 173.173C188.363 174.466 189.631 175.293 190.923 175.022L315.552 148.84L348.255 71.9257C348.772 70.7102 348.205 69.3058 346.99 68.789Z" fill="black" fill-opacity="0.1"/>
<path fill-rule="evenodd" clip-rule="evenodd" d="M296.383 41.0463C295.168 40.5295 293.764 41.0959 293.247 42.3114L261.52 116.93L139.333 142.598C138.041 142.87 137.213 144.138 137.485 145.43C137.756 146.723 139.024 147.551 140.317 147.279L264.945 121.098L297.649 44.183C298.165 42.9675 297.599 41.5631 296.383 41.0463Z" fill="black" fill-opacity="0.1"/>
<path d="M1059.8 358.108L835.503 477.369V611.123L1059.87 489L1059.8 358.108Z" fill="#009FDA"/>
<path d="M610.908 359.083L835.206 478.345V612.099L610.372 489.5L610.908 359.083Z" fill="#009FDA"/>
<path d="M877.789 244.185C854.23 231.126 816.034 231.126 792.475 244.185L628.029 335.339C604.47 348.398 604.47 369.57 628.029 382.629L792.475 473.783C816.034 486.842 854.23 486.842 877.789 473.783L1042.24 382.629C1065.79 369.57 1065.79 348.398 1042.24 335.339L877.789 244.185Z" fill="#4BC6F0"/>
<g filter="url(#filter2_d_1477_2990)">
<path d="M791.899 327.481C767.945 343.638 767.722 370.178 791.402 386.758C815.082 403.339 853.697 403.682 877.651 387.525C901.606 371.367 901.828 344.828 878.148 328.247C854.469 311.666 815.854 311.323 791.899 327.481Z" fill="#005A7B"/>
</g>
<g filter="url(#filter3_d_1477_2990)">
<path d="M802.692 335.038C784.768 347.128 784.601 366.987 802.32 379.394C820.039 391.801 848.934 392.058 866.859 379.968C884.783 367.877 884.95 348.018 867.231 335.611C849.512 323.204 820.617 322.948 802.692 335.038Z" fill="#005A7B"/>
</g>
<path fill-rule="evenodd" clip-rule="evenodd" d="M704.964 133.019C683.898 98.022 694.211 56.3725 735.726 28.3701C790.429 -8.5276 878.591 -7.75822 932.642 30.0885C973.82 58.9214 983.32 100.956 961.322 135.657L879.847 362.466H789.918L704.964 133.019Z" fill="url(#paint1_linear_1477_2990)"/>
<g filter="url(#filter4_d_1477_2990)">
<path d="M891.591 595.95L1009.78 527.715L1046.45 547.21C1055.65 552.106 1055.8 560.302 1046.76 565.516L961.283 614.87C952.251 620.084 937.465 620.342 928.258 615.446L891.591 595.95Z" fill="#009FDA"/>
</g>
<path d="M946.942 575.454L1053.25 514.077V555.158L946.942 616.535V575.454Z" fill="#009FDA"/>
<path d="M891.478 506.394L945.859 537.791L938.589 618.325L891.478 595.777V506.394Z" fill="#009FDA"/>
<path d="M891.994 505.495L1007.56 438.773L1050.46 500.038C1056.44 508.581 1053.97 519.733 1044.94 524.947L962.075 572.786C953.044 578.001 940.874 575.303 934.892 566.76L891.994 505.495Z" fill="#4BC6F0"/>
<path d="M1007.42 456.602C1005.94 454.414 1002.89 453.713 1000.6 455.036L913.955 505.201C911.668 506.524 911.015 509.371 912.494 511.56L945.634 560.565C947.114 562.753 950.167 563.454 952.453 562.131L1039.1 511.966C1041.39 510.643 1042.04 507.796 1040.56 505.608L1007.42 456.602Z" fill="#90D6EE"/>
<g filter="url(#filter5_d_1477_2990)">
<path fill-rule="evenodd" clip-rule="evenodd" d="M276.022 72.7406L191.862 73.0758L192.014 111.297C191.217 114.95 192.721 119.037 196.516 121.05L229.504 138.543C232.097 139.918 235.203 139.92 237.797 138.547L271.362 120.789C274.413 119.175 275.982 116.227 276.074 113.239L276.184 113.239L276.022 72.7406Z" fill="#61B1D1"/>
<path d="M196.354 80.5511C190.104 77.2368 190.068 68.295 196.292 64.9311L229.139 47.1754C231.722 45.7797 234.827 45.7535 237.433 47.1054L271.138 64.5959C277.481 67.8874 277.517 76.9481 271.201 80.2899L237.636 98.0484C235.041 99.4211 231.935 99.4196 229.342 98.0445L196.354 80.5511Z" fill="#67C2E8"/>
<path fill-rule="evenodd" clip-rule="evenodd" d="M233.52 72.9095L276.022 72.7402L276.183 113.238L276.074 113.239C275.981 116.226 274.413 119.174 271.362 120.788L237.797 138.547C236.46 139.254 234.988 139.596 233.52 139.574L233.52 72.9095Z" fill="#569FBD"/>
<path d="M196.354 80.5511C190.104 77.2368 190.068 68.295 196.291 64.9311L229.139 47.1754C231.721 45.7797 234.827 45.7535 237.432 47.1054L271.138 64.5959C277.481 67.8874 277.517 76.9481 271.2 80.2899L237.635 98.0484C235.041 99.4211 231.935 99.4196 229.342 98.0445L196.354 80.5511Z" fill="#67C2E8"/>
</g>
<g filter="url(#filter6_d_1477_2990)">
<path fill-rule="evenodd" clip-rule="evenodd" d="M544.248 226.932L460.088 227.268L460.24 265.489C459.443 269.142 460.947 273.229 464.742 275.242L497.73 292.735C500.323 294.11 503.429 294.112 506.023 292.739L539.589 274.981C542.639 273.367 544.208 270.419 544.3 267.431L544.41 267.431L544.248 226.932Z" fill="#00DBBB"/>
<path d="M464.58 234.743C458.33 231.429 458.295 222.487 464.518 219.123L497.366 201.367C499.948 199.972 503.053 199.945 505.659 201.297L539.364 218.788C545.707 222.079 545.743 231.14 539.427 234.482L505.862 252.24C503.267 253.613 500.161 253.611 497.568 252.236L464.58 234.743Z" fill="#40E6CF"/>
<path fill-rule="evenodd" clip-rule="evenodd" d="M501.746 227.101L544.248 226.932L544.409 267.43L544.3 267.431C544.208 270.418 542.639 273.366 539.588 274.98L506.023 292.739C504.686 293.446 503.214 293.788 501.746 293.766V227.101Z" fill="#00C4A7"/>
<path d="M464.58 234.743C458.33 231.429 458.294 222.487 464.517 219.123L497.365 201.367C499.947 199.972 503.053 199.945 505.658 201.297L539.364 218.788C545.707 222.079 545.743 231.14 539.427 234.482L505.861 252.24C503.267 253.613 500.161 253.611 497.568 252.236L464.58 234.743Z" fill="#40E6CF"/>
</g>
<g filter="url(#filter7_d_1477_2990)">
<path fill-rule="evenodd" clip-rule="evenodd" d="M458.248 173.933L374.088 174.268L374.24 212.489C373.443 216.143 374.947 220.23 378.742 222.242L411.73 239.736C414.323 241.111 417.429 241.112 420.023 239.739L453.589 221.981C456.639 220.367 458.208 217.419 458.3 214.432L458.41 214.431L458.248 173.933Z" fill="#BA026E"/>
<path d="M378.58 181.743C372.33 178.429 372.295 169.487 378.518 166.123L411.366 148.368C413.948 146.972 417.053 146.946 419.659 148.298L453.364 165.788C459.707 169.08 459.743 178.14 453.427 181.482L419.862 199.241C417.267 200.613 414.161 200.612 411.568 199.237L378.58 181.743Z" fill="#B74A89"/>
<path fill-rule="evenodd" clip-rule="evenodd" d="M415.746 174.102L458.248 173.933L458.409 214.431L458.3 214.431C458.208 217.419 456.639 220.367 453.588 221.981L420.023 239.739C418.686 240.446 417.214 240.789 415.746 240.767V174.102Z" fill="#9E005D"/>
<path d="M378.58 181.743C372.33 178.429 372.294 169.487 378.517 166.123L411.365 148.368C413.947 146.972 417.053 146.946 419.658 148.298L453.364 165.788C459.707 169.08 459.743 178.14 453.427 181.482L419.861 199.241C417.267 200.613 414.161 200.612 411.568 199.237L378.58 181.743Z" fill="#B74A89"/>
</g>
<g filter="url(#filter8_d_1477_2990)">
<path fill-rule="evenodd" clip-rule="evenodd" d="M637.248 274.933L553.088 275.268L553.24 313.489C552.443 317.143 553.947 321.23 557.742 323.242L590.73 340.736C593.323 342.111 596.429 342.112 599.023 340.739L632.589 322.981C635.639 321.367 637.208 318.419 637.3 315.432L637.41 315.431L637.248 274.933Z" fill="#005EA7"/>
<path d="M557.58 282.743C551.33 279.429 551.295 270.487 557.518 267.123L590.366 249.368C592.948 247.972 596.053 247.946 598.659 249.298L632.364 266.788C638.707 270.08 638.743 279.14 632.427 282.482L598.862 300.241C596.267 301.613 593.161 301.612 590.568 300.237L557.58 282.743Z" fill="#04518C"/>
<path fill-rule="evenodd" clip-rule="evenodd" d="M594.746 275.102L637.248 274.933L637.409 315.431L637.3 315.431C637.208 318.419 635.639 321.367 632.588 322.981L599.023 340.739C597.686 341.446 596.214 341.789 594.746 341.767V275.102Z" fill="#003055"/>
<path d="M557.58 282.743C551.33 279.429 551.294 270.487 557.517 267.123L590.365 249.368C592.947 247.972 596.053 247.946 598.658 249.298L632.364 266.788C638.707 270.08 638.743 279.14 632.427 282.482L598.861 300.241C596.267 301.613 593.161 301.612 590.568 300.237L557.58 282.743Z" fill="#04518C"/>
</g>
<g filter="url(#filter9_d_1477_2990)">
<path fill-rule="evenodd" clip-rule="evenodd" d="M366.022 127.741L281.862 128.076L282.014 166.297C281.217 169.95 282.721 174.037 286.516 176.05L319.504 193.543C322.097 194.918 325.203 194.92 327.797 193.547L361.362 175.789C364.413 174.175 365.982 171.227 366.074 168.239L366.184 168.239L366.022 127.741Z" fill="#CBCF40"/>
<path d="M286.354 135.551C280.104 132.237 280.068 123.295 286.292 119.931L319.139 102.175C321.722 100.78 324.827 100.753 327.433 102.105L361.138 119.596C367.481 122.887 367.517 131.948 361.201 135.29L327.636 153.048C325.041 154.421 321.935 154.42 319.342 153.044L286.354 135.551Z" fill="#D9DE3A"/>
<path fill-rule="evenodd" clip-rule="evenodd" d="M323.52 127.91L366.022 127.74L366.183 168.238L366.074 168.239C365.981 171.226 364.413 174.174 361.362 175.788L327.797 193.547C326.46 194.254 324.988 194.596 323.52 194.574V127.91Z" fill="#BABE3C"/>
<path d="M286.354 135.551C280.104 132.237 280.068 123.295 286.291 119.931L319.139 102.175C321.721 100.78 324.827 100.753 327.432 102.105L361.138 119.596C367.481 122.887 367.517 131.948 361.2 135.29L327.635 153.048C325.041 154.421 321.935 154.42 319.342 153.044L286.354 135.551Z" fill="#D9DE3A"/>
</g>
<path d="M751.75 150.088C751.865 143.485 756.641 135.536 762.417 132.334L918.469 45.8334C924.245 42.6316 928.835 45.389 928.719 51.9923L927.196 139.282C927.08 145.885 922.304 153.834 916.528 157.035L760.476 243.536C754.7 246.738 750.111 243.981 750.226 237.378L751.75 150.088Z" fill="white"/>
<path d="M751.753 148.904C751.858 142.94 754.894 136.469 758.536 134.45L922.261 43.6957C925.902 41.6771 928.77 44.8756 928.666 50.8397V50.8397L751.753 148.904V148.904Z" fill="#04518C"/>
<path fill-rule="evenodd" clip-rule="evenodd" d="M814.383 135.831L828.543 127.982C827.959 119.882 822.11 116.449 814.661 119.886L814.383 135.831Z" fill="#00DDBE"/>
<path fill-rule="evenodd" clip-rule="evenodd" d="M811.175 140.924L811.203 139.337L811.23 137.751L811.48 123.465C804.482 128.253 798.943 138.012 798.8 146.212C798.646 155.039 804.801 158.714 812.549 154.42C819.827 150.386 825.92 140.755 826.76 132.285L811.175 140.924Z" fill="#4BC6F0"/>
<path fill-rule="evenodd" clip-rule="evenodd" d="M858.164 111.563L872.324 103.714C871.74 95.6141 865.891 92.1813 858.442 95.6177L858.164 111.563Z" fill="#9E005D"/>
<path fill-rule="evenodd" clip-rule="evenodd" d="M854.956 116.655L854.984 115.069L855.011 113.482L855.261 99.196C848.263 103.984 842.724 113.743 842.581 121.944C842.427 130.771 848.582 134.446 856.33 130.151C863.608 126.117 869.701 116.486 870.541 108.016L854.956 116.655Z" fill="#04518C"/>
<path fill-rule="evenodd" clip-rule="evenodd" d="M901.944 87.2944L916.104 79.4454C915.521 71.3456 909.671 67.913 902.223 71.3491L901.944 87.2944Z" fill="#F2D021"/>
<path fill-rule="evenodd" clip-rule="evenodd" d="M898.737 92.3869L898.765 90.8005L898.792 89.2142L899.042 74.9278C892.044 79.7161 886.505 89.4749 886.362 97.6755C886.208 106.503 892.364 110.177 900.111 105.883C907.389 101.849 913.481 92.2182 914.322 83.7483L898.737 92.3869Z" fill="#00DDBE"/>
<path fill-rule="evenodd" clip-rule="evenodd" d="M798.243 178.14L915.516 113.134L915.664 104.695L798.39 169.701L798.243 178.14Z" fill="#04518C"/>
<path fill-rule="evenodd" clip-rule="evenodd" d="M797.94 195.504L915.214 130.498L915.364 121.885L798.09 186.891L797.94 195.504Z" fill="#04518C"/>
<path fill-rule="evenodd" clip-rule="evenodd" d="M797.674 210.688L914.948 145.682L915.098 137.07L797.825 202.076L797.674 210.688Z" fill="#04518C"/>
<path fill-rule="evenodd" clip-rule="evenodd" d="M758.637 236.198L783.537 222.396L785.068 134.714L760.167 148.517L758.637 236.198Z" fill="#F2D021"/>
<path fill-rule="evenodd" clip-rule="evenodd" d="M759.818 139.476C759.801 140.431 759.11 141.58 758.275 142.044C757.439 142.507 756.775 142.108 756.792 141.153C756.809 140.198 757.5 139.048 758.335 138.585C759.171 138.122 759.834 138.52 759.818 139.476" fill="white"/>
<path fill-rule="evenodd" clip-rule="evenodd" d="M764.961 136.625C764.945 137.58 764.254 138.73 763.418 139.193C762.583 139.656 761.919 139.257 761.936 138.302C761.952 137.347 762.643 136.197 763.479 135.734C764.314 135.271 764.978 135.67 764.961 136.625" fill="white"/>
<path fill-rule="evenodd" clip-rule="evenodd" d="M770.498 133.556C770.481 134.511 769.79 135.661 768.955 136.124C768.119 136.587 767.456 136.188 767.472 135.233C767.489 134.278 768.18 133.128 769.015 132.665C769.851 132.202 770.515 132.601 770.498 133.556" fill="white"/>
<path fill-rule="evenodd" clip-rule="evenodd" d="M1024.14 502.125C1025.04 503.411 1026.88 503.815 1028.24 503.028C1029.6 502.241 1029.98 500.561 1029.08 499.275L1007.88 469.001C1006.98 467.715 1005.14 467.311 1003.78 468.097C1002.42 468.884 1002.04 470.565 1002.94 471.851L1024.14 502.125Z" fill="#F2D021"/>
<path fill-rule="evenodd" clip-rule="evenodd" d="M1013 508.555C1013.9 509.84 1015.74 510.245 1017.1 509.458C1018.47 508.671 1018.84 506.991 1017.94 505.705L996.742 475.431C995.841 474.145 994.006 473.74 992.644 474.527C991.281 475.314 990.906 476.995 991.806 478.281L1013 508.555Z" fill="#F2D021"/>
<path fill-rule="evenodd" clip-rule="evenodd" d="M1001.64 515.116C1002.54 516.402 1004.37 516.81 1005.72 516.027C1007.08 515.244 1007.45 513.567 1006.55 512.281L985.352 482.007C984.451 480.721 982.622 480.313 981.266 481.096C979.91 481.879 979.541 483.556 980.441 484.842L1001.64 515.116Z" fill="#F2D021"/>
<path fill-rule="evenodd" clip-rule="evenodd" d="M989.439 522.16C990.339 523.446 992.174 523.851 993.538 523.064C994.9 522.277 995.275 520.596 994.375 519.31L973.177 489.037C972.276 487.751 970.441 487.346 969.079 488.133C967.716 488.92 967.341 490.6 968.241 491.886L989.439 522.16Z" fill="#F2D021"/>
<path fill-rule="evenodd" clip-rule="evenodd" d="M1007.85 481.852C1009.24 483.836 1012.06 484.462 1014.16 483.252C1016.26 482.041 1016.83 479.451 1015.44 477.468C1014.05 475.485 1011.23 474.858 1009.13 476.069C1007.03 477.28 1006.46 479.869 1007.85 481.852" fill="white"/>
<path fill-rule="evenodd" clip-rule="evenodd" d="M1006.44 502.169C1007.82 504.152 1010.65 504.779 1012.75 503.568C1014.84 502.357 1015.42 499.768 1014.03 497.785C1012.64 495.801 1009.81 495.175 1007.72 496.385C1005.62 497.596 1005.05 500.185 1006.44 502.169" fill="white"/>
<path fill-rule="evenodd" clip-rule="evenodd" d="M986.998 497.253C988.387 499.236 991.213 499.863 993.31 498.652C995.407 497.441 995.98 494.852 994.592 492.869C993.203 490.885 990.377 490.259 988.28 491.469C986.183 492.68 985.61 495.269 986.998 497.253" fill="white"/>
<path fill-rule="evenodd" clip-rule="evenodd" d="M978.176 509.07C979.565 511.054 982.391 511.68 984.488 510.47C986.585 509.259 987.159 506.669 985.77 504.686C984.381 502.703 981.556 502.076 979.459 503.287C977.362 504.498 976.788 507.087 978.176 509.07" fill="white"/>
<path fill-rule="evenodd" clip-rule="evenodd" d="M954.708 525.241C956.316 524.313 956.758 522.321 955.694 520.801C954.833 519.572 953.249 519.037 951.823 519.363L948.304 514.336C947.983 513.878 947.331 513.735 946.847 514.014C946.363 514.294 946.23 514.89 946.551 515.348L950.071 520.375C949.141 521.409 949.003 522.938 949.864 524.168C950.926 525.688 953.1 526.17 954.708 525.241M942.224 528.578C941.903 528.12 941.251 527.975 940.767 528.254L938.185 529.745C936.258 526.593 935.605 523.088 936.107 519.781L939.135 520.452C939.42 520.516 939.7 520.467 939.925 520.338C940.149 520.208 940.317 519.998 940.375 519.736C940.491 519.215 940.124 518.691 939.554 518.564L936.527 517.894C937.469 514.685 939.542 511.783 942.623 509.741L944.376 508.729C947.72 507.062 951.493 506.589 955.093 507.175L954.478 509.948C954.362 510.47 954.729 510.995 955.298 511.12C955.583 511.184 955.864 511.135 956.089 511.005C956.312 510.876 956.481 510.665 956.538 510.404L957.153 507.63C960.664 508.62 963.883 510.643 966.208 513.566L963.625 515.057C963.141 515.337 963.008 515.935 963.329 516.393C963.649 516.85 964.302 516.995 964.786 516.716L967.369 515.225C969.296 518.377 969.948 521.882 969.446 525.188L966.419 524.518C965.85 524.391 965.295 524.712 965.179 525.233C965.063 525.755 965.43 526.279 966 526.405L969.027 527.075C968.084 530.285 966.012 533.185 962.931 535.228L961.221 532.786C960.9 532.329 960.248 532.184 959.764 532.464C959.28 532.743 959.147 533.341 959.468 533.798L961.178 536.24C957.834 537.907 954.06 538.38 950.46 537.795L951.077 535.021C951.192 534.499 950.825 533.975 950.256 533.849C949.686 533.723 949.132 534.043 949.017 534.565L948.401 537.338C944.891 536.349 941.673 534.327 939.346 531.404L941.928 529.913C942.413 529.633 942.544 529.035 942.224 528.578" fill="white"/>
<path fill-rule="evenodd" clip-rule="evenodd" d="M783.29 555.866C783.29 561.15 779.58 563.291 775.005 560.65L658.769 493.541C654.193 490.899 650.484 484.475 650.484 479.191V430.785C650.484 425.501 654.193 423.36 658.769 426.002L775.005 493.11C779.58 495.752 783.29 502.177 783.29 507.46V555.866Z" fill="#90D6EE"/>
<path fill-rule="evenodd" clip-rule="evenodd" d="M721.65 498.994C721.65 500.685 720.463 501.37 718.999 500.524L681.221 478.713C679.756 477.868 678.569 475.812 678.569 474.121V472.734C678.569 471.043 679.756 470.358 681.221 471.203L718.999 493.015C720.463 493.86 721.65 495.916 721.65 497.607V498.994Z" fill="#009FDA"/>
<path fill-rule="evenodd" clip-rule="evenodd" d="M721.65 480.387C721.65 482.078 720.463 482.763 718.999 481.918L664.278 450.324C662.814 449.479 661.627 447.423 661.627 445.732V444.345C661.627 442.655 662.814 441.969 664.278 442.815L718.999 474.408C720.463 475.253 721.65 477.309 721.65 479V480.387Z" fill="#009FDA"/>
<path fill-rule="evenodd" clip-rule="evenodd" d="M721.65 518.462C721.65 520.152 720.463 520.838 718.999 519.992L700.566 509.35C699.101 508.504 697.914 506.448 697.914 504.758V503.37C697.914 501.68 699.101 500.995 700.566 501.84L718.999 512.483C720.463 513.328 721.65 515.384 721.65 517.074V518.462Z" fill="#009FDA"/>
<path fill-rule="evenodd" clip-rule="evenodd" d="M733.125 503.705C733.125 516.623 742.194 532.331 753.381 538.79C764.569 545.249 773.638 540.013 773.638 527.095C773.638 514.177 764.569 498.469 753.381 492.01C742.194 485.551 733.125 490.787 733.125 503.705" fill="#009FDA"/>
<path fill-rule="evenodd" clip-rule="evenodd" d="M741.575 508.584C741.575 516.113 746.861 525.268 753.381 529.033C759.901 532.797 765.187 529.745 765.187 522.217C765.187 514.687 759.901 505.532 753.381 501.768C746.861 498.004 741.575 501.055 741.575 508.584" fill="#015C7C"/>
<path fill-rule="evenodd" clip-rule="evenodd" d="M497.459 231.975L494.079 230.178C493.949 230.108 493.87 230.038 493.792 229.968C496.778 229.686 501.027 227.809 504.088 225.754C503.905 225.6 503.748 225.431 503.616 225.248C499.918 227.786 494.131 230.205 492.103 229.127L488.723 227.33C488.671 227.302 488.619 227.274 488.566 227.218C493.561 226.814 502.221 221.815 502.769 219.018L502.951 219.115L505.421 220.428C508.411 218.817 513.154 218.761 516.144 220.351C519.16 221.954 519.204 224.669 516.215 226.394C514.401 227.441 511.882 227.887 509.533 227.714C505.863 230.381 499.591 233.108 497.459 231.975Z" fill="#04518C"/>
<path fill-rule="evenodd" clip-rule="evenodd" d="M514.481 224.424L512.591 225.516L510.719 224.52L508.88 225.582L506.982 224.573L508.821 223.511L506.949 222.516L508.839 221.424L510.711 222.42L512.525 221.373L514.423 222.382L512.609 223.429L514.481 224.424Z" fill="black"/>
<path fill-rule="evenodd" clip-rule="evenodd" d="M515.02 220.999C517.438 222.285 517.472 224.428 515.097 225.799C512.721 227.171 508.855 227.24 506.437 225.955C504.019 224.669 503.959 222.512 506.334 221.14C508.71 219.769 512.602 219.713 515.02 220.999Z" fill="#00A1D9"/>
<path fill-rule="evenodd" clip-rule="evenodd" d="M501.182 218.175C504.615 220 490.386 228.214 486.954 226.39L483.574 224.592C480.142 222.767 494.37 214.553 497.802 216.378L501.182 218.175Z" fill="#04518C"/>
<path fill-rule="evenodd" clip-rule="evenodd" d="M507.295 223.551C507.082 223.438 507.066 223.256 507.258 223.145L510.161 221.47C510.353 221.359 510.681 221.36 510.893 221.473C511.106 221.586 511.122 221.767 510.93 221.878L508.027 223.554C507.835 223.665 507.507 223.664 507.295 223.551" fill="#04518C"/>
<path fill-rule="evenodd" clip-rule="evenodd" d="M507.15 223.634L507.009 222.051C506.994 221.893 507.215 221.766 507.501 221.767C507.787 221.769 508.03 221.898 508.045 222.056L508.135 223.065L509.958 223.074C510.244 223.075 510.488 223.205 510.502 223.363C510.516 223.521 510.296 223.648 510.01 223.647L507.15 223.634Z" fill="#04518C"/>
<path fill-rule="evenodd" clip-rule="evenodd" d="M514.224 223.751L511.322 225.427C511.13 225.538 510.801 225.536 510.589 225.424C510.377 225.311 510.361 225.129 510.553 225.018L513.455 223.342C513.647 223.231 513.975 223.233 514.188 223.346C514.4 223.459 514.416 223.64 514.224 223.751Z" fill="#04518C"/>
<path fill-rule="evenodd" clip-rule="evenodd" d="M514.332 223.263L514.474 224.845C514.488 225.003 514.268 225.131 513.982 225.129C513.695 225.128 513.452 224.999 513.438 224.84L513.348 223.831L511.524 223.823C511.238 223.821 510.995 223.692 510.981 223.534C510.966 223.375 511.187 223.248 511.473 223.249L514.332 223.263Z" fill="#04518C"/>
<path fill-rule="evenodd" clip-rule="evenodd" d="M585.212 268.295L581.276 276.419L587.914 279.948C592.331 282.22 598.849 282.432 603.782 280.737C604.786 280.392 605.725 279.968 606.567 279.466C611.42 276.569 611.319 272.098 606.339 269.358L599.658 265.806L585.212 268.295Z" fill="#00A1D9"/>
<path fill-rule="evenodd" clip-rule="evenodd" d="M587.84 269.715L584.87 275.903L589.952 278.605C593.945 280.728 600.301 280.637 604.174 278.4C608.047 276.164 607.95 272.642 603.958 270.519L598.876 267.817L587.84 269.715Z" fill="#04518C"/>
<path fill-rule="evenodd" clip-rule="evenodd" d="M599.526 276.188L591.965 276.423C591.161 276.449 590.519 276.107 590.532 275.661C590.544 275.215 591.204 274.833 592.009 274.808L596.66 274.664L596.873 266.788C596.885 266.342 597.546 265.96 598.35 265.935C599.154 265.91 599.796 266.251 599.783 266.697L599.526 276.188Z" fill="#00A1D9"/>
<path fill-rule="evenodd" clip-rule="evenodd" d="M423.256 169.372C427.437 171.595 427.542 175.293 423.49 177.632C419.439 179.971 412.766 180.066 408.585 177.843C404.404 175.62 404.299 171.922 408.351 169.583C412.402 167.244 419.075 167.149 423.256 169.372" fill="#119FD6"/>
<mask id="mask0_1477_2990" style="mask-type:luminance" maskUnits="userSpaceOnUse" x="395" y="162" width="42" height="24">
<path fill-rule="evenodd" clip-rule="evenodd" d="M395.1 173.909L415.608 162.069L436.581 173.221L416.073 185.061L395.1 173.909Z" fill="white"/>
</mask>
<g mask="url(#mask0_1477_2990)">
<path fill-rule="evenodd" clip-rule="evenodd" d="M426.146 179.245C425.372 179.692 424.094 179.71 423.296 179.286C422.57 178.899 422.49 178.279 423.064 177.834L421.691 177.103L421.231 177.369C421.156 177.412 421.046 177.426 420.941 177.414C420.804 177.399 420.746 177.325 420.734 177.294L420.358 176.357C420.35 176.338 420.312 176.256 420.413 176.197C420.508 176.143 420.665 176.157 420.699 176.16L422.403 176.33C422.509 176.341 422.596 176.383 422.628 176.439C422.661 176.496 422.634 176.559 422.559 176.602L422.1 176.868L423.473 177.598C424.252 177.262 425.375 177.28 426.101 177.666C426.899 178.091 426.919 178.799 426.146 179.245V179.245ZM426.428 167.822C427.269 168.27 427.291 169.017 426.475 169.488C425.732 169.916 424.55 169.969 423.709 169.638L422.305 170.449L422.806 170.715C422.887 170.758 422.912 170.823 422.888 170.885C422.858 170.964 422.717 170.999 422.657 171.007L420.871 171.236C420.835 171.241 420.677 171.264 420.567 171.205C420.464 171.151 420.492 171.059 420.499 171.039L420.84 170.04C420.861 169.978 420.942 169.927 421.051 169.908C421.159 169.888 421.278 169.903 421.36 169.946L421.86 170.212L423.264 169.402C422.632 168.95 422.679 168.293 423.421 167.864C424.237 167.393 425.586 167.374 426.428 167.822V167.822ZM408.167 168.058C408.933 168.466 409.017 169.12 408.411 169.59L409.919 170.391L410.392 170.118C410.468 170.074 410.58 170.055 410.686 170.069C410.793 170.082 410.878 170.126 410.91 170.184L411.526 171.288C411.54 171.314 411.604 171.413 411.49 171.479C411.376 171.545 411.218 171.526 411.173 171.52L409.132 171.211C409.026 171.196 408.944 171.151 408.915 171.092C408.886 171.034 408.915 170.971 408.991 170.927L409.488 170.64L407.98 169.839C407.159 170.193 405.974 170.174 405.208 169.766C404.366 169.319 404.345 168.572 405.161 168.101C405.976 167.63 407.325 167.611 408.167 168.058V168.058ZM411.522 177.436C411.51 177.469 411.46 177.549 411.311 177.569C411.2 177.583 411.083 177.573 411.002 177.53L410.501 177.264L409.083 178.082C409.715 178.534 409.668 179.191 408.926 179.62C408.11 180.091 406.762 180.11 405.92 179.662C405.078 179.215 405.057 178.467 405.873 177.996C406.615 177.568 407.797 177.515 408.639 177.846L410.056 177.027L409.556 176.761C409.474 176.718 409.442 176.653 409.474 176.592C409.505 176.531 409.593 176.484 409.704 176.469L411.49 176.24C411.519 176.236 411.682 176.213 411.78 176.265C411.907 176.333 411.868 176.42 411.862 176.438L411.522 177.436Z" fill="#113154"/>
</g>
<mask id="mask1_1477_2990" style="mask-type:luminance" maskUnits="userSpaceOnUse" x="395" y="162" width="42" height="24">
<path fill-rule="evenodd" clip-rule="evenodd" d="M416.073 185.061L436.581 173.221L415.608 162.069L395.1 173.909L416.073 185.061Z" fill="white"/>
</mask>
<g mask="url(#mask1_1477_2990)">
<path fill-rule="evenodd" clip-rule="evenodd" d="M416.239 175.966L420.188 173.686L419.686 173.419L415.737 175.699L416.239 175.966ZM414.863 175.234L418.811 172.954L418.312 172.689L414.363 174.968L414.863 175.234ZM413.565 174.544L417.514 172.265L417.013 171.998L413.064 174.278L413.565 174.544ZM413.846 170.992L416.865 170.909L415.701 171.581C415.502 171.696 415.185 171.705 414.99 171.601L413.846 170.992ZM409.45 173.252C409.251 173.367 409.248 173.543 409.444 173.647L416.115 177.194C416.31 177.298 416.628 177.289 416.827 177.175L422.391 173.962C422.59 173.847 422.592 173.671 422.397 173.567L416.87 170.629L413.851 170.712L409.45 173.252Z" fill="#113154"/>
</g>
<mask id="mask2_1477_2990" style="mask-type:luminance" maskUnits="userSpaceOnUse" x="216" y="60" width="37" height="20">
<path fill-rule="evenodd" clip-rule="evenodd" d="M216 68.5601L230.826 60.0001L252.32 71.4285L237.494 79.9885L216 68.5601Z" fill="white"/>
</mask>
<g mask="url(#mask2_1477_2990)">
<path fill-rule="evenodd" clip-rule="evenodd" d="M240.278 72.0724L241.673 72.8144C242.316 73.1562 242.323 73.6297 241.687 73.9965C241.051 74.364 240.198 74.3791 239.555 74.0373L238.16 73.2953C237.094 73.4345 236.027 73.3361 235.276 72.9366C233.88 72.1947 234.185 70.9473 235.883 70.323C236.839 70.0103 238.12 69.9853 239.082 70.2619C240.259 70.6545 240.589 71.4168 240.278 72.0724M238.382 65.1914L228.85 70.6944L225.738 69.0394C224.128 68.1833 223.791 66.8299 224.951 65.8033C226.642 64.4697 229.945 64.2292 231.985 65.3136C232.629 65.656 233.587 65.5786 234.117 65.2729C234.647 64.9671 234.747 64.4331 234.103 64.0907C230.99 62.4356 225.766 62.5946 222.911 64.6001C220.479 66.3617 220.936 68.8355 223.727 70.3193L226.732 71.9173L225.673 72.5288C225.144 72.8345 225.043 73.3685 225.687 73.7109L236.421 79.418C236.958 79.7034 238.024 79.683 238.553 79.3773L251.262 72.0399C251.897 71.673 251.784 71.1431 251.248 70.8577L240.514 65.1506C239.87 64.8082 239.017 64.8245 238.382 65.1914" fill="#04518C"/>
</g>
<path fill-rule="evenodd" clip-rule="evenodd" d="M239.606 70.2872C240.923 70.9872 240.959 72.1506 239.687 72.8846C238.415 73.6193 236.317 73.6467 235 72.9467C233.685 72.2473 233.648 71.0846 234.92 70.35C236.192 69.616 238.291 69.5879 239.606 70.2872" fill="#00A1D9"/>
<path fill-rule="evenodd" clip-rule="evenodd" d="M242.099 74.1104L241.933 74.2062C241.323 74.5586 240.307 74.5718 239.678 74.2374L237.622 73.1437C236.992 72.8088 236.975 72.2467 237.585 71.8944L237.751 71.7986C238.36 71.4468 239.375 71.433 240.004 71.768L242.061 72.8616C242.69 73.196 242.708 73.7586 242.099 74.1104" fill="#00A1D9"/>
<mask id="mask3_1477_2990" style="mask-type:luminance" maskUnits="userSpaceOnUse" x="303" y="116" width="43" height="24">
<path fill-rule="evenodd" clip-rule="evenodd" d="M303.589 128.515L325.265 116L345.96 127.004L324.285 139.519L303.589 128.515Z" fill="white"/>
</mask>
<g mask="url(#mask3_1477_2990)">
<path fill-rule="evenodd" clip-rule="evenodd" d="M338.598 124.697L335.698 126.371C334.9 126.831 334.913 127.562 335.726 127.994L338.683 129.566C339.496 129.998 340.813 129.975 341.611 129.515L344.511 127.841C345.308 127.38 345.295 126.65 344.482 126.218L341.526 124.646C340.713 124.213 339.395 124.236 338.598 124.697M331.348 128.883L328.448 130.557C327.65 131.017 327.663 131.748 328.476 132.18L331.433 133.752C332.246 134.184 333.563 134.161 334.361 133.701L337.261 132.027C338.058 131.566 338.045 130.836 337.232 130.403L334.276 128.832C333.463 128.399 332.145 128.422 331.348 128.883M324.098 133.068L321.198 134.742C320.401 135.203 320.414 135.933 321.227 136.365L324.183 137.937C324.996 138.37 326.314 138.347 327.111 137.886L330.011 136.212C330.809 135.752 330.796 135.021 329.983 134.589L327.026 133.017C326.213 132.585 324.896 132.608 324.098 133.068M331.206 120.767L328.307 122.441C327.509 122.902 327.522 123.632 328.335 124.064L331.291 125.636C332.104 126.068 333.422 126.045 334.219 125.585L337.119 123.911C337.917 123.45 337.904 122.72 337.091 122.288L334.135 120.716C333.322 120.283 332.004 120.306 331.206 120.767M323.957 124.953L321.057 126.627C320.259 127.087 320.272 127.818 321.085 128.25L324.042 129.822C324.854 130.254 326.172 130.231 326.97 129.771L329.869 128.097C330.667 127.636 330.654 126.906 329.841 126.474L326.885 124.902C326.072 124.469 324.754 124.492 323.957 124.953M315.543 128.901L311.954 130.972C310.968 131.542 310.983 132.446 311.989 132.981L315.648 134.926C316.654 135.461 318.285 135.433 319.271 134.863L322.86 132.791C323.846 132.221 323.831 131.318 322.825 130.783L319.166 128.837C318.16 128.303 316.529 128.331 315.543 128.901M323.815 116.837L320.916 118.511C320.118 118.972 320.131 119.702 320.944 120.134L323.9 121.706C324.713 122.139 326.031 122.116 326.829 121.655L329.728 119.981C330.526 119.521 330.513 118.79 329.7 118.358L326.744 116.786C325.931 116.354 324.613 116.377 323.815 116.837M316.566 121.023L313.666 122.697C312.868 123.157 312.881 123.888 313.694 124.32L316.651 125.892C317.464 126.324 318.781 126.301 319.579 125.841L322.479 124.167C323.276 123.706 323.263 122.976 322.45 122.544L319.494 120.972C318.681 120.539 317.363 120.562 316.566 121.023M309.316 125.208L306.416 126.882C305.619 127.343 305.632 128.073 306.445 128.505L309.401 130.077C310.214 130.51 311.532 130.487 312.329 130.026L315.229 128.352C316.026 127.892 316.014 127.161 315.201 126.729L312.244 125.157C311.431 124.725 310.114 124.748 309.316 125.208" fill="#04A0D8"/>
</g>
<path fill-rule="evenodd" clip-rule="evenodd" d="M320.227 135.48C317.751 136.909 313.697 136.98 311.173 135.638C308.648 134.295 308.609 132.048 311.085 130.619C313.561 129.189 317.615 129.118 320.139 130.461C322.664 131.803 322.703 134.05 320.227 135.48V135.48ZM325.848 131.762C324.688 128.655 319.185 126.714 313.557 127.425C307.929 128.136 304.307 131.231 305.467 134.337C306.627 137.443 312.13 139.385 317.757 138.674C321.9 138.15 325.113 136.295 325.886 133.98L334.35 133.832C335.454 133.791 336.309 133.262 336.259 132.651C336.212 132.069 335.361 131.617 334.311 131.615L325.848 131.762Z" fill="#133055"/>
<defs>
<filter id="filter0_d_1477_2990" x="85.6714" y="41.5698" width="881.371" height="517.313" filterUnits="userSpaceOnUse" color-interpolation-filters="sRGB">
<feFlood flood-opacity="0" result="BackgroundImageFix"/>
<feColorMatrix in="SourceAlpha" type="matrix" values="0 0 0 0 0 0 0 0 0 0 0 0 0 0 0 0 0 0 127 0" result="hardAlpha"/>
<feOffset dy="5"/>
<feGaussianBlur stdDeviation="5"/>
<feComposite in2="hardAlpha" operator="out"/>
<feColorMatrix type="matrix" values="0 0 0 0 0 0 0 0 0 0 0 0 0 0 0 0 0 0 0.15 0"/>
<feBlend mode="normal" in2="BackgroundImageFix" result="effect1_dropShadow_1477_2990"/>
<feBlend mode="normal" in="SourceGraphic" in2="effect1_dropShadow_1477_2990" result="shape"/>
</filter>
<filter id="filter1_d_1477_2990" x="600.36" y="359.155" width="469.544" height="269.187" filterUnits="userSpaceOnUse" color-interpolation-filters="sRGB">
<feFlood flood-opacity="0" result="BackgroundImageFix"/>
<feColorMatrix in="SourceAlpha" type="matrix" values="0 0 0 0 0 0 0 0 0 0 0 0 0 0 0 0 0 0 127 0" result="hardAlpha"/>
<feOffset dy="5"/>
<feGaussianBlur stdDeviation="5"/>
<feComposite in2="hardAlpha" operator="out"/>
<feColorMatrix type="matrix" values="0 0 0 0 0 0 0 0 0 0 0 0 0 0 0 0 0 0 0.15 0"/>
<feBlend mode="normal" in2="BackgroundImageFix" result="effect1_dropShadow_1477_2990"/>
<feBlend mode="normal" in="SourceGraphic" in2="effect1_dropShadow_1477_2990" result="shape"/>
</filter>
<filter id="filter2_d_1477_2990" x="753.787" y="300.583" width="161.977" height="123.838" filterUnits="userSpaceOnUse" color-interpolation-filters="sRGB">
<feFlood flood-opacity="0" result="BackgroundImageFix"/>
<feColorMatrix in="SourceAlpha" type="matrix" values="0 0 0 0 0 0 0 0 0 0 0 0 0 0 0 0 0 0 127 0" result="hardAlpha"/>
<feOffset dy="5"/>
<feGaussianBlur stdDeviation="10"/>
<feComposite in2="hardAlpha" operator="out"/>
<feColorMatrix type="matrix" values="0 0 0 0 1 0 0 0 0 1 0 0 0 0 1 0 0 0 0.5 0"/>
<feBlend mode="normal" in2="BackgroundImageFix" result="effect1_dropShadow_1477_2990"/>
<feBlend mode="normal" in="SourceGraphic" in2="effect1_dropShadow_1477_2990" result="shape"/>
</filter>
<filter id="filter3_d_1477_2990" x="769.139" y="311.135" width="131.272" height="102.735" filterUnits="userSpaceOnUse" color-interpolation-filters="sRGB">
<feFlood flood-opacity="0" result="BackgroundImageFix"/>
<feColorMatrix in="SourceAlpha" type="matrix" values="0 0 0 0 0 0 0 0 0 0 0 0 0 0 0 0 0 0 127 0" result="hardAlpha"/>
<feOffset dy="5"/>
<feGaussianBlur stdDeviation="10"/>
<feComposite in2="hardAlpha" operator="out"/>
<feColorMatrix type="matrix" values="0 0 0 0 1 0 0 0 0 1 0 0 0 0 1 0 0 0 0.5 0"/>
<feBlend mode="normal" in2="BackgroundImageFix" result="effect1_dropShadow_1477_2990"/>
<feBlend mode="normal" in="SourceGraphic" in2="effect1_dropShadow_1477_2990" result="shape"/>
</filter>
<filter id="filter4_d_1477_2990" x="881.591" y="522.715" width="181.854" height="111.241" filterUnits="userSpaceOnUse" color-interpolation-filters="sRGB">
<feFlood flood-opacity="0" result="BackgroundImageFix"/>
<feColorMatrix in="SourceAlpha" type="matrix" values="0 0 0 0 0 0 0 0 0 0 0 0 0 0 0 0 0 0 127 0" result="hardAlpha"/>
<feOffset dy="5"/>
<feGaussianBlur stdDeviation="5"/>
<feComposite in2="hardAlpha" operator="out"/>
<feColorMatrix type="matrix" values="0 0 0 0 0 0 0 0 0 0 0 0 0 0 0 0 0 0 0.15 0"/>
<feBlend mode="normal" in2="BackgroundImageFix" result="effect1_dropShadow_1477_2990"/>
<feBlend mode="normal" in="SourceGraphic" in2="effect1_dropShadow_1477_2990" result="shape"/>
</filter>
<filter id="filter5_d_1477_2990" x="182.645" y="41.1099" width="102.539" height="111.466" filterUnits="userSpaceOnUse" color-interpolation-filters="sRGB">
<feFlood flood-opacity="0" result="BackgroundImageFix"/>
<feColorMatrix in="SourceAlpha" type="matrix" values="0 0 0 0 0 0 0 0 0 0 0 0 0 0 0 0 0 0 127 0" result="hardAlpha"/>
<feOffset dy="4"/>
<feGaussianBlur stdDeviation="4.5"/>
<feComposite in2="hardAlpha" operator="out"/>
<feColorMatrix type="matrix" values="0 0 0 0 0 0 0 0 0 0 0 0 0 0 0 0 0 0 0.1 0"/>
<feBlend mode="normal" in2="BackgroundImageFix" result="effect1_dropShadow_1477_2990"/>
<feBlend mode="normal" in="SourceGraphic" in2="effect1_dropShadow_1477_2990" result="shape"/>
</filter>
<filter id="filter6_d_1477_2990" x="450.871" y="195.302" width="102.539" height="111.466" filterUnits="userSpaceOnUse" color-interpolation-filters="sRGB">
<feFlood flood-opacity="0" result="BackgroundImageFix"/>
<feColorMatrix in="SourceAlpha" type="matrix" values="0 0 0 0 0 0 0 0 0 0 0 0 0 0 0 0 0 0 127 0" result="hardAlpha"/>
<feOffset dy="4"/>
<feGaussianBlur stdDeviation="4.5"/>
<feComposite in2="hardAlpha" operator="out"/>
<feColorMatrix type="matrix" values="0 0 0 0 0 0 0 0 0 0 0 0 0 0 0 0 0 0 0.1 0"/>
<feBlend mode="normal" in2="BackgroundImageFix" result="effect1_dropShadow_1477_2990"/>
<feBlend mode="normal" in="SourceGraphic" in2="effect1_dropShadow_1477_2990" result="shape"/>
</filter>
<filter id="filter7_d_1477_2990" x="364.871" y="142.302" width="102.539" height="111.466" filterUnits="userSpaceOnUse" color-interpolation-filters="sRGB">
<feFlood flood-opacity="0" result="BackgroundImageFix"/>
<feColorMatrix in="SourceAlpha" type="matrix" values="0 0 0 0 0 0 0 0 0 0 0 0 0 0 0 0 0 0 127 0" result="hardAlpha"/>
<feOffset dy="4"/>
<feGaussianBlur stdDeviation="4.5"/>
<feComposite in2="hardAlpha" operator="out"/>
<feColorMatrix type="matrix" values="0 0 0 0 0 0 0 0 0 0 0 0 0 0 0 0 0 0 0.1 0"/>
<feBlend mode="normal" in2="BackgroundImageFix" result="effect1_dropShadow_1477_2990"/>
<feBlend mode="normal" in="SourceGraphic" in2="effect1_dropShadow_1477_2990" result="shape"/>
</filter>
<filter id="filter8_d_1477_2990" x="543.871" y="243.302" width="102.539" height="111.466" filterUnits="userSpaceOnUse" color-interpolation-filters="sRGB">
<feFlood flood-opacity="0" result="BackgroundImageFix"/>
<feColorMatrix in="SourceAlpha" type="matrix" values="0 0 0 0 0 0 0 0 0 0 0 0 0 0 0 0 0 0 127 0" result="hardAlpha"/>
<feOffset dy="4"/>
<feGaussianBlur stdDeviation="4.5"/>
<feComposite in2="hardAlpha" operator="out"/>
<feColorMatrix type="matrix" values="0 0 0 0 0 0 0 0 0 0 0 0 0 0 0 0 0 0 0.1 0"/>
<feBlend mode="normal" in2="BackgroundImageFix" result="effect1_dropShadow_1477_2990"/>
<feBlend mode="normal" in="SourceGraphic" in2="effect1_dropShadow_1477_2990" result="shape"/>
</filter>
<filter id="filter9_d_1477_2990" x="272.645" y="96.1099" width="102.539" height="111.466" filterUnits="userSpaceOnUse" color-interpolation-filters="sRGB">
<feFlood flood-opacity="0" result="BackgroundImageFix"/>
<feColorMatrix in="SourceAlpha" type="matrix" values="0 0 0 0 0 0 0 0 0 0 0 0 0 0 0 0 0 0 127 0" result="hardAlpha"/>
<feOffset dy="4"/>
<feGaussianBlur stdDeviation="4.5"/>
<feComposite in2="hardAlpha" operator="out"/>
<feColorMatrix type="matrix" values="0 0 0 0 0 0 0 0 0 0 0 0 0 0 0 0 0 0 0.1 0"/>
<feBlend mode="normal" in2="BackgroundImageFix" result="effect1_dropShadow_1477_2990"/>
<feBlend mode="normal" in="SourceGraphic" in2="effect1_dropShadow_1477_2990" result="shape"/>
</filter>
<linearGradient id="paint0_linear_1477_2990" x1="169.934" y1="64.8158" x2="526.404" y2="682.241" gradientUnits="userSpaceOnUse">
<stop stop-color="#0089BC"/>
<stop offset="1" stop-color="#018ABD" stop-opacity="0"/>
</linearGradient>
<linearGradient id="paint1_linear_1477_2990" x1="833.594" y1="1.19238" x2="833.594" y2="362.466" gradientUnits="userSpaceOnUse">
<stop stop-color="#00DDBE"/>
<stop offset="1" stop-color="#00DDBE" stop-opacity="0"/>
</linearGradient>
</defs>
</svg>
