<?xml version="1.0" encoding="UTF-8"?>
<svg width="168px" height="32px" viewBox="0 0 168 32" version="1.1" xmlns="http://www.w3.org/2000/svg" xmlns:xlink="http://www.w3.org/1999/xlink">
    <!-- Generator: Sketch 49.3 (51167) - http://www.bohemiancoding.com/sketch -->
    <title>Page 1</title>
    <desc>Created with Sketch.</desc>
    <defs></defs>
    <g id="Symbols" stroke="none" stroke-width="1" fill="none" fill-rule="evenodd">
        <g id="navi-bar---products" transform="translate(-18.000000, -19.000000)">
            <g id="Page-1" transform="translate(19.000000, 20.000000)">
                <path d="M27.4113373,13.372303 C25.5489296,18.5699673 19.825426,21.2737679 14.6277333,19.4113704 C9.43004051,17.5489729 6.72622508,11.8255006 8.58863279,6.62783636 C10.4510405,1.4298962 16.1745441,-1.27390444 21.3722369,0.588768952 C26.5702055,2.45116647 29.273745,8.17463874 27.4113373,13.372303" id="Fill-1" fill="#D9E021"></path>
                <path d="M19.4113672,20.3720742 C17.5489595,25.5699796 11.8254559,28.2737621 6.62776314,26.4113771 C1.42979452,24.5487162 -1.27374504,18.825558 0.588662671,13.6276526 C2.45107038,8.43002312 8.17457399,5.72624057 13.3722667,7.58862563 C18.5699595,9.45101069 21.2737749,15.1744447 19.4113672,20.3720742" id="Fill-3" fill="#9E005D"></path>
                <path d="M28.4113373,23.3720742 C26.5489296,28.5699796 20.825426,31.2737621 15.6277333,29.4113771 C10.4300405,27.5487162 7.72622508,21.825558 9.58863279,16.6276526 C11.4510405,11.4300231 17.1745441,8.72624057 22.3722369,10.5886256 C27.5702055,12.4510107 30.273745,18.1744447 28.4113373,23.3720742" id="Fill-5" fill="#29ABE2"></path>
                <path d="M27.6526818,12.6032278 C26.2150836,17.9339906 20.7278778,21.0902944 15.3968188,19.6527016 C10.0657599,18.214833 6.90971996,12.7276482 8.3473182,7.39688536 C9.78491645,2.06584668 15.272398,-1.09045706 20.6031812,0.347411576 C25.9342401,1.78500434 29.09028,7.27218916 27.6526818,12.6032278 Z" id="Stroke-7" stroke="#FFFFFF" stroke-linecap="round"></path>
                <path d="M37.6769931,15.0372065 C37.6769931,18.9583085 40.7701137,22.4312846 44.8321637,22.4312846 C49.0432797,22.4312846 52.3230069,19.2197153 52.3230069,15.0372065 C52.3230069,10.7800101 49.0805462,7.5684408 44.8321637,7.5684408 C40.7328472,7.5684408 37.6769931,11.0411423 37.6769931,15.0372065 M54,14.9995881 C54,20.1159672 50.0124831,24 44.9439632,24 C39.9875169,24 36,19.9292481 36,15.0372065 C36,10.0704773 39.9502504,6 44.9439632,6 C50.0124831,6 54,9.88348359 54,14.9995881" id="Fill-9" fill="#29ABE2"></path>
                <polygon id="Fill-11" fill="#29ABE2" points="63.0567356 20.0821355 69.2598297 6 71 6 63.0189119 24 55 6 56.7401703 6"></polygon>
                <path d="M88.2844755,13.5806383 C87.8652083,10.4063644 85.1971443,7.56819014 81.57592,7.56819014 C77.9930912,7.56819014 75.0203859,10.3316756 74.715184,13.5806383 L88.2844755,13.5806383 Z M74.715184,15.1493776 C74.6011187,19.5186722 77.6881696,22.4312607 81.7667763,22.4312607 C84.5110707,22.4312607 86.7217523,20.8257261 87.9795539,18.5103734 L89.4279315,19.3319502 C87.8270931,22.3192275 85.0065683,24 81.5380851,24 C76.3163027,24 73,19.8547718 73,14.9626556 C73,10.1449536 76.3922528,6 81.5380851,6 C86.8742131,6 90.0377747,10.1825726 89.9996595,15.1493776 L74.715184,15.1493776 Z" id="Fill-13" fill="#29ABE2"></path>
                <path d="M95.8366658,8.66944994 L95.9182954,8.66944994 C96.6532618,7.06777998 97.9998499,6 99.9997749,6 C100.734441,6 101.346663,6.15225959 102,6.41976539 L101.020145,7.94488496 C100.571182,7.71607496 100.204149,7.60166996 99.7143715,7.60166996 C95.5920771,7.60166996 95.8366658,12.4066799 95.8366658,14.9998598 L95.8366658,24 L94,24 L94,6.38134999 L95.8366658,6.38134999 L95.8366658,8.66944994 Z" id="Fill-15" fill="#29ABE2"></path>
                <polygon id="Fill-17" fill="#29ABE2" points="108.796743 23 107.017156 23 107.017156 7.59330144 105 7.59330144 105 6.05236185 107.017156 6.05236185 107.017156 0 108.796743 0 108.796743 6.05236185 112 6.05236185 112 7.59330144 108.796743 7.59330144"></polygon>
                <path d="M131.999837,6 L131.999837,16.5636752 C131.999837,18.3557397 132.038993,20.1483651 130.903191,21.6356301 C129.650499,23.2373 127.536095,24 125.500002,24 C123.463909,24 121.349505,23.2373 120.096236,21.6356301 C118.960723,20.1483651 119.000166,18.3557397 119.000166,16.5636752 L119.000166,6 L120.76217,6 L120.76217,15.9532348 C120.76217,19.3475301 121.153438,22.3980496 125.500002,22.3980496 C129.846277,22.3980496 130.237834,19.3475301 130.237834,15.9532348 L130.237834,6 L131.999837,6 Z" id="Fill-19" fill="#29ABE2"></path>
                <path d="M140.836666,8.66944994 L140.918295,8.66944994 C141.653262,7.06777998 142.99985,6 144.999775,6 C145.734441,6 146.346663,6.15225959 147,6.41976539 L146.020145,7.94488496 C145.571182,7.71607496 145.204149,7.60166996 144.714371,7.60166996 C140.592077,7.60166996 140.836666,12.4066799 140.836666,14.9998598 L140.836666,24 L139,24 L139,6.38134999 L140.836666,6.38134999 L140.836666,8.66944994 Z" id="Fill-21" fill="#29ABE2"></path>
                <path d="M165.284475,13.5806383 C164.865208,10.4063644 162.197144,7.56819014 158.57592,7.56819014 C154.993091,7.56819014 152.020386,10.3316756 151.715184,13.5806383 L165.284475,13.5806383 Z M151.715184,15.1493776 C151.601119,19.5186722 154.68817,22.4312607 158.766776,22.4312607 C161.511071,22.4312607 163.721752,20.8257261 164.979554,18.5103734 L166.427931,19.3319502 C164.827093,22.3192275 162.006568,24 158.538085,24 C153.316303,24 150,19.8547718 150,14.9626556 C150,10.1449536 153.392253,6 158.538085,6 C163.874213,6 167.037775,10.1825726 166.999659,15.1493776 L151.715184,15.1493776 Z" id="Fill-23" fill="#29ABE2"></path>
                <path d="M13,29 C12.3721769,28.2814084 11.792482,27.4789112 11.3344249,26.5580472 C10.8739734,25.6398801 10.5461741,24.6111375 10.3347447,23.5548258 C10.118287,22.5012111 9.99952255,21.4023474 10.0000014,20.2980896 C9.999762,19.1932326 10.1132586,18.081783 10.3402519,17 L11.2542111,17.3571982 C10.9762162,18.3101261 10.7949568,19.3142964 10.7183346,20.3376451 C10.6412335,21.3618929 10.6742768,22.4014234 10.8050134,23.432863 C10.9309612,24.4628043 11.1665744,25.4723686 11.5436993,26.4106131 C11.9181903,27.3512548 12.4282068,28.2103883 13,29" id="Fill-25" fill="#FFFFFF"></path>
                <path d="M8,7.18803996 C9.75710155,6.85263996 11.6355389,6.9678517 13.3784657,7.51819113 C15.12281,8.06091976 16.7387311,9.03326482 18,10.340485 L17.1177638,11 C16.1283665,9.72584743 14.7568181,8.67975637 13.168963,8.00580708 C11.5862108,7.32634653 9.78658502,7.02611367 8,7.18803996" id="Fill-27" fill="#FFFFFF"></path>
                <path d="M27,12 C26.782718,12.9612468 26.4257174,13.8930076 25.9431006,14.7514743 C25.4604838,15.6096602 24.8587797,16.3973603 24.1703718,17.0870542 C22.8024353,18.4771132 21.0798485,19.5037911 19.203963,20 L19,18.8980623 C20.7309438,18.6237012 22.4127901,17.848638 23.8306075,16.6596462 C24.5430418,16.0710475 25.1849639,15.3779837 25.7258186,14.5950576 C26.2661509,13.8121314 26.699148,12.9351306 27,12" id="Fill-29" fill="#FFFFFF"></path>
                <path d="M17.6199423,10 C14.2497504,10.5900758 11.28321,12.9154649 10.0464498,16.3578402 C10.0296084,16.4042148 10.0160265,16.4511223 10,16.4977634 C11.083829,17.7861222 12.5123644,18.8154233 14.2144377,19.423356 C15.9311793,20.0368856 17.7052361,20.1437602 19.3752563,19.825002 C19.3901963,19.7858235 19.4067661,19.7474446 19.4208912,19.7077331 C20.6576514,16.2656242 19.8473602,12.5903102 17.6199423,10" id="Fill-31" fill="#FFFFFF"></path>
                <path d="M28.6526818,22.6031565 C27.2150836,27.934165 21.7278778,31.0904509 16.3968188,29.6525904 C11.0657599,28.2150058 7.90971996,22.727852 9.3473182,17.3968435 C10.7849164,12.065835 16.2721222,8.90954911 21.6031812,10.3474096 C26.9342401,11.7849942 30.09028,17.272148 28.6526818,22.6031565 Z" id="Stroke-33" stroke="#FFFFFF" stroke-linecap="round"></path>
                <path d="M19.6526818,19.6032876 C18.2150836,24.9340073 12.7278778,28.0902856 7.39681885,26.6527044 C4.50498347,25.8727382 2.25315289,23.9012603 1.0273808,21.4095741 C-0.00654120872,19.3078708 -0.310454215,16.8360555 0.347318205,14.3969871 C1.78491645,9.06599147 7.27239804,5.9097132 12.6031812,7.34729436 C17.9342401,8.7851514 21.09028,14.2722919 19.6526818,19.6032876 Z" id="Stroke-35" stroke="#FFFFFF" stroke-linecap="round"></path>
            </g>
        </g>
    </g>
</svg>